<?xml version="1.0" encoding="utf-8" standalone="no"?>
<!DOCTYPE svg PUBLIC "-//W3C//DTD SVG 1.1//EN"
  "http://www.w3.org/Graphics/SVG/1.1/DTD/svg11.dtd">
<svg xmlns:xlink="http://www.w3.org/1999/xlink" width="1464.149375pt" height="342.953281pt" viewBox="0 0 1464.149375 342.953281" xmlns="http://www.w3.org/2000/svg" version="1.1">
 <metadata>
  <rdf:RDF xmlns:dc="http://purl.org/dc/elements/1.1/" xmlns:cc="http://creativecommons.org/ns#" xmlns:rdf="http://www.w3.org/1999/02/22-rdf-syntax-ns#">
   <cc:Work>
    <dc:type rdf:resource="http://purl.org/dc/dcmitype/StillImage"/>
    <dc:date>2023-10-13T09:38:54.775986</dc:date>
    <dc:format>image/svg+xml</dc:format>
    <dc:creator>
     <cc:Agent>
      <dc:title>Matplotlib v3.7.3, https://matplotlib.org/</dc:title>
     </cc:Agent>
    </dc:creator>
   </cc:Work>
  </rdf:RDF>
 </metadata>
 <defs>
  <style type="text/css">*{stroke-linejoin: round; stroke-linecap: butt}</style>
 </defs>
 <g id="figure_1">
  <g id="patch_1">
   <path d="M 0 342.953281 
L 1464.149375 342.953281 
L 1464.149375 0 
L 0 0 
z
" style="fill: #ffffff"/>
  </g>
  <g id="axes_1">
   <g id="patch_2">
    <path d="M 61.949375 289.718906 
L 1456.949375 289.718906 
L 1456.949375 12.518906 
L 61.949375 12.518906 
z
" style="fill: #ffffff"/>
   </g>
   <g id="patch_3">
    <path d="M 70.759901 289.718906 
L 82.50727 289.718906 
L 82.50727 278.162343 
L 70.759901 278.162343 
z
" clip-path="url(#p104b99559b)" style="fill: #cccccc; stroke: #cccccc; stroke-linejoin: miter"/>
   </g>
   <g id="patch_4">
    <path d="M 85.444112 289.718906 
L 97.19148 289.718906 
L 97.19148 282.520538 
L 85.444112 282.520538 
z
" clip-path="url(#p104b99559b)" style="fill: #cccccc; stroke: #cccccc; stroke-linejoin: miter"/>
   </g>
   <g id="patch_5">
    <path d="M 100.128322 289.718906 
L 111.875691 289.718906 
L 111.875691 222.136171 
L 100.128322 222.136171 
z
" clip-path="url(#p104b99559b)" style="fill: #cccccc; stroke: #cccccc; stroke-linejoin: miter"/>
   </g>
   <g id="patch_6">
    <path d="M 114.812533 289.718906 
L 126.559901 289.718906 
L 126.559901 282.988977 
L 114.812533 282.988977 
z
" clip-path="url(#p104b99559b)" style="fill: #cccccc; stroke: #cccccc; stroke-linejoin: miter"/>
   </g>
   <g id="patch_7">
    <path d="M 129.496743 289.718906 
L 141.244112 289.718906 
L 141.244112 278.214222 
L 129.496743 278.214222 
z
" clip-path="url(#p104b99559b)" style="fill: #cccccc; stroke: #cccccc; stroke-linejoin: miter"/>
   </g>
   <g id="patch_8">
    <path d="M 144.180954 289.718906 
L 155.928322 289.718906 
L 155.928322 284.481828 
L 144.180954 284.481828 
z
" clip-path="url(#p104b99559b)" style="fill: #cccccc; stroke: #cccccc; stroke-linejoin: miter"/>
   </g>
   <g id="patch_9">
    <path d="M 158.865164 289.718906 
L 170.612533 289.718906 
L 170.612533 285.59775 
L 158.865164 285.59775 
z
" clip-path="url(#p104b99559b)" style="fill: #cccccc; stroke: #cccccc; stroke-linejoin: miter"/>
   </g>
   <g id="patch_10">
    <path d="M 173.549375 289.718906 
L 185.296743 289.718906 
L 185.296743 284.271217 
L 173.549375 284.271217 
z
" clip-path="url(#p104b99559b)" style="fill: #cccccc; stroke: #cccccc; stroke-linejoin: miter"/>
   </g>
   <g id="patch_11">
    <path d="M 188.233586 289.718906 
L 199.980954 289.718906 
L 199.980954 284.212946 
L 188.233586 284.212946 
z
" clip-path="url(#p104b99559b)" style="fill: #cccccc; stroke: #cccccc; stroke-linejoin: miter"/>
   </g>
   <g id="patch_12">
    <path d="M 202.917796 289.718906 
L 214.665164 289.718906 
L 214.665164 284.734671 
L 202.917796 284.734671 
z
" clip-path="url(#p104b99559b)" style="fill: #cccccc; stroke: #cccccc; stroke-linejoin: miter"/>
   </g>
   <g id="patch_13">
    <path d="M 217.602007 289.718906 
L 229.349375 289.718906 
L 229.349375 284.734671 
L 217.602007 284.734671 
z
" clip-path="url(#p104b99559b)" style="fill: #cccccc; stroke: #cccccc; stroke-linejoin: miter"/>
   </g>
   <g id="patch_14">
    <path d="M 232.286217 289.718906 
L 244.033586 289.718906 
L 244.033586 219.381201 
L 232.286217 219.381201 
z
" clip-path="url(#p104b99559b)" style="fill: #cccccc; stroke: #cccccc; stroke-linejoin: miter"/>
   </g>
   <g id="patch_15">
    <path d="M 246.970428 289.718906 
L 258.717796 289.718906 
L 258.717796 221.665249 
L 246.970428 221.665249 
z
" clip-path="url(#p104b99559b)" style="fill: #cccccc; stroke: #cccccc; stroke-linejoin: miter"/>
   </g>
   <g id="patch_16">
    <path d="M 261.654638 289.718906 
L 273.402007 289.718906 
L 273.402007 284.362793 
L 261.654638 284.362793 
z
" clip-path="url(#p104b99559b)" style="fill: #cccccc; stroke: #cccccc; stroke-linejoin: miter"/>
   </g>
   <g id="patch_17">
    <path d="M 276.338849 289.718906 
L 288.086217 289.718906 
L 288.086217 284.388712 
L 276.338849 284.388712 
z
" clip-path="url(#p104b99559b)" style="fill: #cccccc; stroke: #cccccc; stroke-linejoin: miter"/>
   </g>
   <g id="patch_18">
    <path d="M 291.023059 289.718906 
L 302.770428 289.718906 
L 302.770428 283.65686 
L 291.023059 283.65686 
z
" clip-path="url(#p104b99559b)" style="fill: #cccccc; stroke: #cccccc; stroke-linejoin: miter"/>
   </g>
   <g id="patch_19">
    <path d="M 305.70727 289.718906 
L 317.454638 289.718906 
L 317.454638 285.371247 
L 305.70727 285.371247 
z
" clip-path="url(#p104b99559b)" style="fill: #cccccc; stroke: #cccccc; stroke-linejoin: miter"/>
   </g>
   <g id="patch_20">
    <path d="M 320.39148 289.718906 
L 332.138849 289.718906 
L 332.138849 283.37918 
L 320.39148 283.37918 
z
" clip-path="url(#p104b99559b)" style="fill: #cccccc; stroke: #cccccc; stroke-linejoin: miter"/>
   </g>
   <g id="patch_21">
    <path d="M 335.075691 289.718906 
L 346.823059 289.718906 
L 346.823059 284.751572 
L 335.075691 284.751572 
z
" clip-path="url(#p104b99559b)" style="fill: #cccccc; stroke: #cccccc; stroke-linejoin: miter"/>
   </g>
   <g id="patch_22">
    <path d="M 349.759901 289.718906 
L 361.50727 289.718906 
L 361.50727 284.722887 
L 349.759901 284.722887 
z
" clip-path="url(#p104b99559b)" style="fill: #cccccc; stroke: #cccccc; stroke-linejoin: miter"/>
   </g>
   <g id="patch_23">
    <path d="M 364.444112 289.718906 
L 376.19148 289.718906 
L 376.19148 284.046033 
L 364.444112 284.046033 
z
" clip-path="url(#p104b99559b)" style="fill: #cccccc; stroke: #cccccc; stroke-linejoin: miter"/>
   </g>
   <g id="patch_24">
    <path d="M 379.128322 289.718906 
L 390.875691 289.718906 
L 390.875691 284.184715 
L 379.128322 284.184715 
z
" clip-path="url(#p104b99559b)" style="fill: #cccccc; stroke: #cccccc; stroke-linejoin: miter"/>
   </g>
   <g id="patch_25">
    <path d="M 393.812533 289.718906 
L 405.559901 289.718906 
L 405.559901 284.892592 
L 393.812533 284.892592 
z
" clip-path="url(#p104b99559b)" style="fill: #cccccc; stroke: #cccccc; stroke-linejoin: miter"/>
   </g>
   <g id="patch_26">
    <path d="M 408.496743 289.718906 
L 420.244112 289.718906 
L 420.244112 284.65942 
L 408.496743 284.65942 
z
" clip-path="url(#p104b99559b)" style="fill: #cccccc; stroke: #cccccc; stroke-linejoin: miter"/>
   </g>
   <g id="patch_27">
    <path d="M 423.180954 289.718906 
L 434.928322 289.718906 
L 434.928322 284.547576 
L 423.180954 284.547576 
z
" clip-path="url(#p104b99559b)" style="fill: #cccccc; stroke: #cccccc; stroke-linejoin: miter"/>
   </g>
   <g id="patch_28">
    <path d="M 437.865164 289.718906 
L 449.612533 289.718906 
L 449.612533 221.305126 
L 437.865164 221.305126 
z
" clip-path="url(#p104b99559b)" style="fill: #cccccc; stroke: #cccccc; stroke-linejoin: miter"/>
   </g>
   <g id="patch_29">
    <path d="M 452.549375 289.718906 
L 464.296743 289.718906 
L 464.296743 284.613344 
L 452.549375 284.613344 
z
" clip-path="url(#p104b99559b)" style="fill: #cccccc; stroke: #cccccc; stroke-linejoin: miter"/>
   </g>
   <g id="patch_30">
    <path d="M 467.233586 289.718906 
L 478.980954 289.718906 
L 478.980954 284.613344 
L 467.233586 284.613344 
z
" clip-path="url(#p104b99559b)" style="fill: #cccccc; stroke: #cccccc; stroke-linejoin: miter"/>
   </g>
   <g id="patch_31">
    <path d="M 481.917796 289.718906 
L 493.665164 289.718906 
L 493.665164 284.219497 
L 481.917796 284.219497 
z
" clip-path="url(#p104b99559b)" style="fill: #cccccc; stroke: #cccccc; stroke-linejoin: miter"/>
   </g>
   <g id="patch_32">
    <path d="M 496.602007 289.718906 
L 508.349375 289.718906 
L 508.349375 281.557817 
L 496.602007 281.557817 
z
" clip-path="url(#p104b99559b)" style="fill: #cccccc; stroke: #cccccc; stroke-linejoin: miter"/>
   </g>
   <g id="patch_33">
    <path d="M 511.286217 289.718906 
L 523.033586 289.718906 
L 523.033586 284.797649 
L 511.286217 284.797649 
z
" clip-path="url(#p104b99559b)" style="fill: #cccccc; stroke: #cccccc; stroke-linejoin: miter"/>
   </g>
   <g id="patch_34">
    <path d="M 525.970428 289.718906 
L 537.717796 289.718906 
L 537.717796 284.665635 
L 525.970428 284.665635 
z
" clip-path="url(#p104b99559b)" style="fill: #cccccc; stroke: #cccccc; stroke-linejoin: miter"/>
   </g>
   <g id="patch_35">
    <path d="M 540.654638 289.718906 
L 552.402007 289.718906 
L 552.402007 285.753895 
L 540.654638 285.753895 
z
" clip-path="url(#p104b99559b)" style="fill: #cccccc; stroke: #cccccc; stroke-linejoin: miter"/>
   </g>
   <g id="patch_36">
    <path d="M 555.338849 289.718906 
L 567.086217 289.718906 
L 567.086217 285.170013 
L 555.338849 285.170013 
z
" clip-path="url(#p104b99559b)" style="fill: #cccccc; stroke: #cccccc; stroke-linejoin: miter"/>
   </g>
   <g id="patch_37">
    <path d="M 570.023059 289.718906 
L 581.770428 289.718906 
L 581.770428 284.353929 
L 570.023059 284.353929 
z
" clip-path="url(#p104b99559b)" style="fill: #cccccc; stroke: #cccccc; stroke-linejoin: miter"/>
   </g>
   <g id="patch_38">
    <path d="M 584.70727 289.718906 
L 596.454638 289.718906 
L 596.454638 285.109378 
L 584.70727 285.109378 
z
" clip-path="url(#p104b99559b)" style="fill: #cccccc; stroke: #cccccc; stroke-linejoin: miter"/>
   </g>
   <g id="patch_39">
    <path d="M 599.39148 289.718906 
L 611.138849 289.718906 
L 611.138849 284.841424 
L 599.39148 284.841424 
z
" clip-path="url(#p104b99559b)" style="fill: #cccccc; stroke: #cccccc; stroke-linejoin: miter"/>
   </g>
   <g id="patch_40">
    <path d="M 614.075691 289.718906 
L 625.823059 289.718906 
L 625.823059 278.375797 
L 614.075691 278.375797 
z
" clip-path="url(#p104b99559b)" style="fill: #cccccc; stroke: #cccccc; stroke-linejoin: miter"/>
   </g>
   <g id="patch_41">
    <path d="M 628.759901 289.718906 
L 640.50727 289.718906 
L 640.50727 284.48133 
L 628.759901 284.48133 
z
" clip-path="url(#p104b99559b)" style="fill: #cccccc; stroke: #cccccc; stroke-linejoin: miter"/>
   </g>
   <g id="patch_42">
    <path d="M 643.444112 289.718906 
L 655.19148 289.718906 
L 655.19148 283.896068 
L 643.444112 283.896068 
z
" clip-path="url(#p104b99559b)" style="fill: #cccccc; stroke: #cccccc; stroke-linejoin: miter"/>
   </g>
   <g id="patch_43">
    <path d="M 658.128322 289.718906 
L 669.875691 289.718906 
L 669.875691 283.51403 
L 658.128322 283.51403 
z
" clip-path="url(#p104b99559b)" style="fill: #cccccc; stroke: #cccccc; stroke-linejoin: miter"/>
   </g>
   <g id="patch_44">
    <path d="M 672.812533 289.718906 
L 684.559901 289.718906 
L 684.559901 284.538234 
L 672.812533 284.538234 
z
" clip-path="url(#p104b99559b)" style="fill: #cccccc; stroke: #cccccc; stroke-linejoin: miter"/>
   </g>
   <g id="patch_45">
    <path d="M 687.496743 289.718906 
L 699.244112 289.718906 
L 699.244112 283.497185 
L 687.496743 283.497185 
z
" clip-path="url(#p104b99559b)" style="fill: #cccccc; stroke: #cccccc; stroke-linejoin: miter"/>
   </g>
   <g id="patch_46">
    <path d="M 702.180954 289.718906 
L 713.928322 289.718906 
L 713.928322 284.602167 
L 702.180954 284.602167 
z
" clip-path="url(#p104b99559b)" style="fill: #cccccc; stroke: #cccccc; stroke-linejoin: miter"/>
   </g>
   <g id="patch_47">
    <path d="M 716.865164 289.718906 
L 728.612533 289.718906 
L 728.612533 282.64427 
L 716.865164 282.64427 
z
" clip-path="url(#p104b99559b)" style="fill: #cccccc; stroke: #cccccc; stroke-linejoin: miter"/>
   </g>
   <g id="patch_48">
    <path d="M 731.549375 289.718906 
L 743.296743 289.718906 
L 743.296743 282.282615 
L 731.549375 282.282615 
z
" clip-path="url(#p104b99559b)" style="fill: #cccccc; stroke: #cccccc; stroke-linejoin: miter"/>
   </g>
   <g id="patch_49">
    <path d="M 746.233586 289.718906 
L 757.980954 289.718906 
L 757.980954 280.120891 
L 746.233586 280.120891 
z
" clip-path="url(#p104b99559b)" style="fill: #cccccc; stroke: #cccccc; stroke-linejoin: miter"/>
   </g>
   <g id="patch_50">
    <path d="M 760.917796 289.718906 
L 772.665164 289.718906 
L 772.665164 283.172083 
L 760.917796 283.172083 
z
" clip-path="url(#p104b99559b)" style="fill: #cccccc; stroke: #cccccc; stroke-linejoin: miter"/>
   </g>
   <g id="patch_51">
    <path d="M 775.602007 289.718906 
L 787.349375 289.718906 
L 787.349375 281.723433 
L 775.602007 281.723433 
z
" clip-path="url(#p104b99559b)" style="fill: #cccccc; stroke: #cccccc; stroke-linejoin: miter"/>
   </g>
   <g id="patch_52">
    <path d="M 790.286217 289.718906 
L 802.033586 289.718906 
L 802.033586 280.186351 
L 790.286217 280.186351 
z
" clip-path="url(#p104b99559b)" style="fill: #cccccc; stroke: #cccccc; stroke-linejoin: miter"/>
   </g>
   <g id="patch_53">
    <path d="M 804.970428 289.718906 
L 816.717796 289.718906 
L 816.717796 282.199023 
L 804.970428 282.199023 
z
" clip-path="url(#p104b99559b)" style="fill: #cccccc; stroke: #cccccc; stroke-linejoin: miter"/>
   </g>
   <g id="patch_54">
    <path d="M 819.654638 289.718906 
L 831.402007 289.718906 
L 831.402007 282.273784 
L 819.654638 282.273784 
z
" clip-path="url(#p104b99559b)" style="fill: #cccccc; stroke: #cccccc; stroke-linejoin: miter"/>
   </g>
   <g id="patch_55">
    <path d="M 834.338849 289.718906 
L 846.086217 289.718906 
L 846.086217 282.050702 
L 834.338849 282.050702 
z
" clip-path="url(#p104b99559b)" style="fill: #cccccc; stroke: #cccccc; stroke-linejoin: miter"/>
   </g>
   <g id="patch_56">
    <path d="M 849.023059 289.718906 
L 860.770428 289.718906 
L 860.770428 281.212304 
L 849.023059 281.212304 
z
" clip-path="url(#p104b99559b)" style="fill: #cccccc; stroke: #cccccc; stroke-linejoin: miter"/>
   </g>
   <g id="patch_57">
    <path d="M 863.70727 289.718906 
L 875.454638 289.718906 
L 875.454638 280.746046 
L 863.70727 280.746046 
z
" clip-path="url(#p104b99559b)" style="fill: #cccccc; stroke: #cccccc; stroke-linejoin: miter"/>
   </g>
   <g id="patch_58">
    <path d="M 878.39148 289.718906 
L 890.138849 289.718906 
L 890.138849 285.704992 
L 878.39148 285.704992 
z
" clip-path="url(#p104b99559b)" style="fill: #cccccc; stroke: #cccccc; stroke-linejoin: miter"/>
   </g>
   <g id="patch_59">
    <path d="M 893.075691 289.718906 
L 904.823059 289.718906 
L 904.823059 281.373417 
L 893.075691 281.373417 
z
" clip-path="url(#p104b99559b)" style="fill: #cccccc; stroke: #cccccc; stroke-linejoin: miter"/>
   </g>
   <g id="patch_60">
    <path d="M 907.759901 289.718906 
L 919.50727 289.718906 
L 919.50727 282.065793 
L 907.759901 282.065793 
z
" clip-path="url(#p104b99559b)" style="fill: #cccccc; stroke: #cccccc; stroke-linejoin: miter"/>
   </g>
   <g id="patch_61">
    <path d="M 922.444112 289.718906 
L 934.19148 289.718906 
L 934.19148 280.240828 
L 922.444112 280.240828 
z
" clip-path="url(#p104b99559b)" style="fill: #cccccc; stroke: #cccccc; stroke-linejoin: miter"/>
   </g>
   <g id="patch_62">
    <path d="M 937.128322 289.718906 
L 948.875691 289.718906 
L 948.875691 281.633395 
L 937.128322 281.633395 
z
" clip-path="url(#p104b99559b)" style="fill: #cccccc; stroke: #cccccc; stroke-linejoin: miter"/>
   </g>
   <g id="patch_63">
    <path d="M 951.812533 289.718906 
L 963.559901 289.718906 
L 963.559901 282.301108 
L 951.812533 282.301108 
z
" clip-path="url(#p104b99559b)" style="fill: #cccccc; stroke: #cccccc; stroke-linejoin: miter"/>
   </g>
   <g id="patch_64">
    <path d="M 966.496743 289.718906 
L 978.244112 289.718906 
L 978.244112 281.891358 
L 966.496743 281.891358 
z
" clip-path="url(#p104b99559b)" style="fill: #cccccc; stroke: #cccccc; stroke-linejoin: miter"/>
   </g>
   <g id="patch_65">
    <path d="M 981.180954 289.718906 
L 992.928322 289.718906 
L 992.928322 282.187828 
L 981.180954 282.187828 
z
" clip-path="url(#p104b99559b)" style="fill: #cccccc; stroke: #cccccc; stroke-linejoin: miter"/>
   </g>
   <g id="patch_66">
    <path d="M 995.865164 289.718906 
L 1007.612533 289.718906 
L 1007.612533 261.440323 
L 995.865164 261.440323 
z
" clip-path="url(#p104b99559b)" style="fill: #cccccc; stroke: #cccccc; stroke-linejoin: miter"/>
   </g>
   <g id="patch_67">
    <path d="M 1010.549375 289.718906 
L 1022.296743 289.718906 
L 1022.296743 229.1841 
L 1010.549375 229.1841 
z
" clip-path="url(#p104b99559b)" style="fill: #cccccc; stroke: #cccccc; stroke-linejoin: miter"/>
   </g>
   <g id="patch_68">
    <path d="M 1025.233586 289.718906 
L 1036.980954 289.718906 
L 1036.980954 282.661428 
L 1025.233586 282.661428 
z
" clip-path="url(#p104b99559b)" style="fill: #cccccc; stroke: #cccccc; stroke-linejoin: miter"/>
   </g>
   <g id="patch_69">
    <path d="M 1039.917796 289.718906 
L 1051.665164 289.718906 
L 1051.665164 282.996822 
L 1039.917796 282.996822 
z
" clip-path="url(#p104b99559b)" style="fill: #cccccc; stroke: #cccccc; stroke-linejoin: miter"/>
   </g>
   <g id="patch_70">
    <path d="M 1054.602007 289.718906 
L 1066.349375 289.718906 
L 1066.349375 282.075984 
L 1054.602007 282.075984 
z
" clip-path="url(#p104b99559b)" style="fill: #cccccc; stroke: #cccccc; stroke-linejoin: miter"/>
   </g>
   <g id="patch_71">
    <path d="M 1069.286217 289.718906 
L 1081.033586 289.718906 
L 1081.033586 281.125484 
L 1069.286217 281.125484 
z
" clip-path="url(#p104b99559b)" style="fill: #cccccc; stroke: #cccccc; stroke-linejoin: miter"/>
   </g>
   <g id="patch_72">
    <path d="M 1083.970428 289.718906 
L 1095.717796 289.718906 
L 1095.717796 282.059545 
L 1083.970428 282.059545 
z
" clip-path="url(#p104b99559b)" style="fill: #cccccc; stroke: #cccccc; stroke-linejoin: miter"/>
   </g>
   <g id="patch_73">
    <path d="M 1098.654638 289.718906 
L 1110.402007 289.718906 
L 1110.402007 281.554529 
L 1098.654638 281.554529 
z
" clip-path="url(#p104b99559b)" style="fill: #cccccc; stroke: #cccccc; stroke-linejoin: miter"/>
   </g>
   <g id="patch_74">
    <path d="M 1113.338849 289.718906 
L 1125.086217 289.718906 
L 1125.086217 220.089584 
L 1113.338849 220.089584 
z
" clip-path="url(#p104b99559b)" style="fill: #cccccc; stroke: #cccccc; stroke-linejoin: miter"/>
   </g>
   <g id="patch_75">
    <path d="M 1128.023059 289.718906 
L 1139.770428 289.718906 
L 1139.770428 280.233636 
L 1128.023059 280.233636 
z
" clip-path="url(#p104b99559b)" style="fill: #cccccc; stroke: #cccccc; stroke-linejoin: miter"/>
   </g>
   <g id="patch_76">
    <path d="M 1142.70727 289.718906 
L 1154.454638 289.718906 
L 1154.454638 281.322352 
L 1142.70727 281.322352 
z
" clip-path="url(#p104b99559b)" style="fill: #cccccc; stroke: #cccccc; stroke-linejoin: miter"/>
   </g>
   <g id="patch_77">
    <path d="M 1157.39148 289.718906 
L 1169.138849 289.718906 
L 1169.138849 280.810318 
L 1157.39148 280.810318 
z
" clip-path="url(#p104b99559b)" style="fill: #cccccc; stroke: #cccccc; stroke-linejoin: miter"/>
   </g>
   <g id="patch_78">
    <path d="M 1172.075691 289.718906 
L 1183.823059 289.718906 
L 1183.823059 281.509231 
L 1172.075691 281.509231 
z
" clip-path="url(#p104b99559b)" style="fill: #cccccc; stroke: #cccccc; stroke-linejoin: miter"/>
   </g>
   <g id="patch_79">
    <path d="M 1186.759901 289.718906 
L 1198.50727 289.718906 
L 1198.50727 280.154997 
L 1186.759901 280.154997 
z
" clip-path="url(#p104b99559b)" style="fill: #cccccc; stroke: #cccccc; stroke-linejoin: miter"/>
   </g>
   <g id="patch_80">
    <path d="M 1201.444112 289.718906 
L 1213.19148 289.718906 
L 1213.19148 281.496516 
L 1201.444112 281.496516 
z
" clip-path="url(#p104b99559b)" style="fill: #cccccc; stroke: #cccccc; stroke-linejoin: miter"/>
   </g>
   <g id="patch_81">
    <path d="M 1216.128322 289.718906 
L 1227.875691 289.718906 
L 1227.875691 280.764242 
L 1216.128322 280.764242 
z
" clip-path="url(#p104b99559b)" style="fill: #cccccc; stroke: #cccccc; stroke-linejoin: miter"/>
   </g>
   <g id="patch_82">
    <path d="M 1230.812533 289.718906 
L 1242.559901 289.718906 
L 1242.559901 281.512717 
L 1230.812533 281.512717 
z
" clip-path="url(#p104b99559b)" style="fill: #cccccc; stroke: #cccccc; stroke-linejoin: miter"/>
   </g>
   <g id="patch_83">
    <path d="M 1245.496743 289.718906 
L 1257.244112 289.718906 
L 1257.244112 281.242667 
L 1245.496743 281.242667 
z
" clip-path="url(#p104b99559b)" style="fill: #cccccc; stroke: #cccccc; stroke-linejoin: miter"/>
   </g>
   <g id="patch_84">
    <path d="M 1260.180954 289.718906 
L 1271.928322 289.718906 
L 1271.928322 281.152816 
L 1260.180954 281.152816 
z
" clip-path="url(#p104b99559b)" style="fill: #cccccc; stroke: #cccccc; stroke-linejoin: miter"/>
   </g>
   <g id="patch_85">
    <path d="M 1274.865164 289.718906 
L 1286.612533 289.718906 
L 1286.612533 281.072875 
L 1274.865164 281.072875 
z
" clip-path="url(#p104b99559b)" style="fill: #cccccc; stroke: #cccccc; stroke-linejoin: miter"/>
   </g>
   <g id="patch_86">
    <path d="M 1289.549375 289.718906 
L 1301.296743 289.718906 
L 1301.296743 278.986032 
L 1289.549375 278.986032 
z
" clip-path="url(#p104b99559b)" style="fill: #cccccc; stroke: #cccccc; stroke-linejoin: miter"/>
   </g>
   <g id="patch_87">
    <path d="M 1304.233586 289.718906 
L 1315.980954 289.718906 
L 1315.980954 281.875526 
L 1304.233586 281.875526 
z
" clip-path="url(#p104b99559b)" style="fill: #cccccc; stroke: #cccccc; stroke-linejoin: miter"/>
   </g>
   <g id="patch_88">
    <path d="M 1318.917796 289.718906 
L 1330.665164 289.718906 
L 1330.665164 285.394203 
L 1318.917796 285.394203 
z
" clip-path="url(#p104b99559b)" style="fill: #cccccc; stroke: #cccccc; stroke-linejoin: miter"/>
   </g>
   <g id="patch_89">
    <path d="M 1333.602007 289.718906 
L 1345.349375 289.718906 
L 1345.349375 279.170303 
L 1333.602007 279.170303 
z
" clip-path="url(#p104b99559b)" style="fill: #cccccc; stroke: #cccccc; stroke-linejoin: miter"/>
   </g>
   <g id="patch_90">
    <path d="M 1348.286217 289.718906 
L 1360.033586 289.718906 
L 1360.033586 283.663552 
L 1348.286217 283.663552 
z
" clip-path="url(#p104b99559b)" style="fill: #cccccc; stroke: #cccccc; stroke-linejoin: miter"/>
   </g>
   <g id="patch_91">
    <path d="M 1362.970428 289.718906 
L 1374.717796 289.718906 
L 1374.717796 281.789166 
L 1362.970428 281.789166 
z
" clip-path="url(#p104b99559b)" style="fill: #cccccc; stroke: #cccccc; stroke-linejoin: miter"/>
   </g>
   <g id="patch_92">
    <path d="M 1377.654638 289.718906 
L 1389.402007 289.718906 
L 1389.402007 279.09923 
L 1377.654638 279.09923 
z
" clip-path="url(#p104b99559b)" style="fill: #cccccc; stroke: #cccccc; stroke-linejoin: miter"/>
   </g>
   <g id="patch_93">
    <path d="M 1392.338849 289.718906 
L 1404.086217 289.718906 
L 1404.086217 281.014314 
L 1392.338849 281.014314 
z
" clip-path="url(#p104b99559b)" style="fill: #cccccc; stroke: #cccccc; stroke-linejoin: miter"/>
   </g>
   <g id="patch_94">
    <path d="M 1407.023059 289.718906 
L 1418.770428 289.718906 
L 1418.770428 283.714545 
L 1407.023059 283.714545 
z
" clip-path="url(#p104b99559b)" style="fill: #cccccc; stroke: #cccccc; stroke-linejoin: miter"/>
   </g>
   <g id="patch_95">
    <path d="M 1421.70727 289.718906 
L 1433.454638 289.718906 
L 1433.454638 283.618255 
L 1421.70727 283.618255 
z
" clip-path="url(#p104b99559b)" style="fill: #cccccc; stroke: #cccccc; stroke-linejoin: miter"/>
   </g>
   <g id="patch_96">
    <path d="M 1436.39148 289.718906 
L 1448.138849 289.718906 
L 1448.138849 281.070551 
L 1436.39148 281.070551 
z
" clip-path="url(#p104b99559b)" style="fill: #cccccc; stroke: #cccccc; stroke-linejoin: miter"/>
   </g>
   <g id="matplotlib.axis_1">
    <g id="xtick_1">
     <g id="line2d_1">
      <defs>
       <path id="m1b994c5d09" d="M 0 0 
L 0 3.5 
" style="stroke: #000000; stroke-width: 0.8"/>
      </defs>
      <g>
       <use xlink:href="#m1b994c5d09" x="194.10727" y="289.718906" style="stroke: #000000; stroke-width: 0.8"/>
      </g>
     </g>
     <g id="text_1">
      <!-- 190 -->
      <g transform="translate(180.74602 307.356719) scale(0.14 -0.14)">
       <defs>
        <path id="DejaVuSans-31" d="M 794 531 
L 1825 531 
L 1825 4091 
L 703 3866 
L 703 4441 
L 1819 4666 
L 2450 4666 
L 2450 531 
L 3481 531 
L 3481 0 
L 794 0 
L 794 531 
z
" transform="scale(0.015625)"/>
        <path id="DejaVuSans-39" d="M 703 97 
L 703 672 
Q 941 559 1184 500 
Q 1428 441 1663 441 
Q 2288 441 2617 861 
Q 2947 1281 2994 2138 
Q 2813 1869 2534 1725 
Q 2256 1581 1919 1581 
Q 1219 1581 811 2004 
Q 403 2428 403 3163 
Q 403 3881 828 4315 
Q 1253 4750 1959 4750 
Q 2769 4750 3195 4129 
Q 3622 3509 3622 2328 
Q 3622 1225 3098 567 
Q 2575 -91 1691 -91 
Q 1453 -91 1209 -44 
Q 966 3 703 97 
z
M 1959 2075 
Q 2384 2075 2632 2365 
Q 2881 2656 2881 3163 
Q 2881 3666 2632 3958 
Q 2384 4250 1959 4250 
Q 1534 4250 1286 3958 
Q 1038 3666 1038 3163 
Q 1038 2656 1286 2365 
Q 1534 2075 1959 2075 
z
" transform="scale(0.015625)"/>
        <path id="DejaVuSans-30" d="M 2034 4250 
Q 1547 4250 1301 3770 
Q 1056 3291 1056 2328 
Q 1056 1369 1301 889 
Q 1547 409 2034 409 
Q 2525 409 2770 889 
Q 3016 1369 3016 2328 
Q 3016 3291 2770 3770 
Q 2525 4250 2034 4250 
z
M 2034 4750 
Q 2819 4750 3233 4129 
Q 3647 3509 3647 2328 
Q 3647 1150 3233 529 
Q 2819 -91 2034 -91 
Q 1250 -91 836 529 
Q 422 1150 422 2328 
Q 422 3509 836 4129 
Q 1250 4750 2034 4750 
z
" transform="scale(0.015625)"/>
       </defs>
       <use xlink:href="#DejaVuSans-31"/>
       <use xlink:href="#DejaVuSans-39" x="63.623047"/>
       <use xlink:href="#DejaVuSans-30" x="127.246094"/>
      </g>
     </g>
    </g>
    <g id="xtick_2">
     <g id="line2d_2">
      <g>
       <use xlink:href="#m1b994c5d09" x="340.949375" y="289.718906" style="stroke: #000000; stroke-width: 0.8"/>
      </g>
     </g>
     <g id="text_2">
      <!-- 200 -->
      <g transform="translate(327.588125 307.356719) scale(0.14 -0.14)">
       <defs>
        <path id="DejaVuSans-32" d="M 1228 531 
L 3431 531 
L 3431 0 
L 469 0 
L 469 531 
Q 828 903 1448 1529 
Q 2069 2156 2228 2338 
Q 2531 2678 2651 2914 
Q 2772 3150 2772 3378 
Q 2772 3750 2511 3984 
Q 2250 4219 1831 4219 
Q 1534 4219 1204 4116 
Q 875 4013 500 3803 
L 500 4441 
Q 881 4594 1212 4672 
Q 1544 4750 1819 4750 
Q 2544 4750 2975 4387 
Q 3406 4025 3406 3419 
Q 3406 3131 3298 2873 
Q 3191 2616 2906 2266 
Q 2828 2175 2409 1742 
Q 1991 1309 1228 531 
z
" transform="scale(0.015625)"/>
       </defs>
       <use xlink:href="#DejaVuSans-32"/>
       <use xlink:href="#DejaVuSans-30" x="63.623047"/>
       <use xlink:href="#DejaVuSans-30" x="127.246094"/>
      </g>
     </g>
    </g>
    <g id="xtick_3">
     <g id="line2d_3">
      <g>
       <use xlink:href="#m1b994c5d09" x="487.79148" y="289.718906" style="stroke: #000000; stroke-width: 0.8"/>
      </g>
     </g>
     <g id="text_3">
      <!-- 210 -->
      <g transform="translate(474.43023 307.356719) scale(0.14 -0.14)">
       <use xlink:href="#DejaVuSans-32"/>
       <use xlink:href="#DejaVuSans-31" x="63.623047"/>
       <use xlink:href="#DejaVuSans-30" x="127.246094"/>
      </g>
     </g>
    </g>
    <g id="xtick_4">
     <g id="line2d_4">
      <g>
       <use xlink:href="#m1b994c5d09" x="634.633586" y="289.718906" style="stroke: #000000; stroke-width: 0.8"/>
      </g>
     </g>
     <g id="text_4">
      <!-- 220 -->
      <g transform="translate(621.272336 307.356719) scale(0.14 -0.14)">
       <use xlink:href="#DejaVuSans-32"/>
       <use xlink:href="#DejaVuSans-32" x="63.623047"/>
       <use xlink:href="#DejaVuSans-30" x="127.246094"/>
      </g>
     </g>
    </g>
    <g id="xtick_5">
     <g id="line2d_5">
      <g>
       <use xlink:href="#m1b994c5d09" x="781.475691" y="289.718906" style="stroke: #000000; stroke-width: 0.8"/>
      </g>
     </g>
     <g id="text_5">
      <!-- 230 -->
      <g transform="translate(768.114441 307.356719) scale(0.14 -0.14)">
       <defs>
        <path id="DejaVuSans-33" d="M 2597 2516 
Q 3050 2419 3304 2112 
Q 3559 1806 3559 1356 
Q 3559 666 3084 287 
Q 2609 -91 1734 -91 
Q 1441 -91 1130 -33 
Q 819 25 488 141 
L 488 750 
Q 750 597 1062 519 
Q 1375 441 1716 441 
Q 2309 441 2620 675 
Q 2931 909 2931 1356 
Q 2931 1769 2642 2001 
Q 2353 2234 1838 2234 
L 1294 2234 
L 1294 2753 
L 1863 2753 
Q 2328 2753 2575 2939 
Q 2822 3125 2822 3475 
Q 2822 3834 2567 4026 
Q 2313 4219 1838 4219 
Q 1578 4219 1281 4162 
Q 984 4106 628 3988 
L 628 4550 
Q 988 4650 1302 4700 
Q 1616 4750 1894 4750 
Q 2613 4750 3031 4423 
Q 3450 4097 3450 3541 
Q 3450 3153 3228 2886 
Q 3006 2619 2597 2516 
z
" transform="scale(0.015625)"/>
       </defs>
       <use xlink:href="#DejaVuSans-32"/>
       <use xlink:href="#DejaVuSans-33" x="63.623047"/>
       <use xlink:href="#DejaVuSans-30" x="127.246094"/>
      </g>
     </g>
    </g>
    <g id="xtick_6">
     <g id="line2d_6">
      <g>
       <use xlink:href="#m1b994c5d09" x="928.317796" y="289.718906" style="stroke: #000000; stroke-width: 0.8"/>
      </g>
     </g>
     <g id="text_6">
      <!-- 240 -->
      <g transform="translate(914.956546 307.356719) scale(0.14 -0.14)">
       <defs>
        <path id="DejaVuSans-34" d="M 2419 4116 
L 825 1625 
L 2419 1625 
L 2419 4116 
z
M 2253 4666 
L 3047 4666 
L 3047 1625 
L 3713 1625 
L 3713 1100 
L 3047 1100 
L 3047 0 
L 2419 0 
L 2419 1100 
L 313 1100 
L 313 1709 
L 2253 4666 
z
" transform="scale(0.015625)"/>
       </defs>
       <use xlink:href="#DejaVuSans-32"/>
       <use xlink:href="#DejaVuSans-34" x="63.623047"/>
       <use xlink:href="#DejaVuSans-30" x="127.246094"/>
      </g>
     </g>
    </g>
    <g id="xtick_7">
     <g id="line2d_7">
      <g>
       <use xlink:href="#m1b994c5d09" x="1075.159901" y="289.718906" style="stroke: #000000; stroke-width: 0.8"/>
      </g>
     </g>
     <g id="text_7">
      <!-- 250 -->
      <g transform="translate(1061.798651 307.356719) scale(0.14 -0.14)">
       <defs>
        <path id="DejaVuSans-35" d="M 691 4666 
L 3169 4666 
L 3169 4134 
L 1269 4134 
L 1269 2991 
Q 1406 3038 1543 3061 
Q 1681 3084 1819 3084 
Q 2600 3084 3056 2656 
Q 3513 2228 3513 1497 
Q 3513 744 3044 326 
Q 2575 -91 1722 -91 
Q 1428 -91 1123 -41 
Q 819 9 494 109 
L 494 744 
Q 775 591 1075 516 
Q 1375 441 1709 441 
Q 2250 441 2565 725 
Q 2881 1009 2881 1497 
Q 2881 1984 2565 2268 
Q 2250 2553 1709 2553 
Q 1456 2553 1204 2497 
Q 953 2441 691 2322 
L 691 4666 
z
" transform="scale(0.015625)"/>
       </defs>
       <use xlink:href="#DejaVuSans-32"/>
       <use xlink:href="#DejaVuSans-35" x="63.623047"/>
       <use xlink:href="#DejaVuSans-30" x="127.246094"/>
      </g>
     </g>
    </g>
    <g id="xtick_8">
     <g id="line2d_8">
      <g>
       <use xlink:href="#m1b994c5d09" x="1222.002007" y="289.718906" style="stroke: #000000; stroke-width: 0.8"/>
      </g>
     </g>
     <g id="text_8">
      <!-- 260 -->
      <g transform="translate(1208.640757 307.356719) scale(0.14 -0.14)">
       <defs>
        <path id="DejaVuSans-36" d="M 2113 2584 
Q 1688 2584 1439 2293 
Q 1191 2003 1191 1497 
Q 1191 994 1439 701 
Q 1688 409 2113 409 
Q 2538 409 2786 701 
Q 3034 994 3034 1497 
Q 3034 2003 2786 2293 
Q 2538 2584 2113 2584 
z
M 3366 4563 
L 3366 3988 
Q 3128 4100 2886 4159 
Q 2644 4219 2406 4219 
Q 1781 4219 1451 3797 
Q 1122 3375 1075 2522 
Q 1259 2794 1537 2939 
Q 1816 3084 2150 3084 
Q 2853 3084 3261 2657 
Q 3669 2231 3669 1497 
Q 3669 778 3244 343 
Q 2819 -91 2113 -91 
Q 1303 -91 875 529 
Q 447 1150 447 2328 
Q 447 3434 972 4092 
Q 1497 4750 2381 4750 
Q 2619 4750 2861 4703 
Q 3103 4656 3366 4563 
z
" transform="scale(0.015625)"/>
       </defs>
       <use xlink:href="#DejaVuSans-32"/>
       <use xlink:href="#DejaVuSans-36" x="63.623047"/>
       <use xlink:href="#DejaVuSans-30" x="127.246094"/>
      </g>
     </g>
    </g>
    <g id="xtick_9">
     <g id="line2d_9">
      <g>
       <use xlink:href="#m1b994c5d09" x="1368.844112" y="289.718906" style="stroke: #000000; stroke-width: 0.8"/>
      </g>
     </g>
     <g id="text_9">
      <!-- 270 -->
      <g transform="translate(1355.482862 307.356719) scale(0.14 -0.14)">
       <defs>
        <path id="DejaVuSans-37" d="M 525 4666 
L 3525 4666 
L 3525 4397 
L 1831 0 
L 1172 0 
L 2766 4134 
L 525 4134 
L 525 4666 
z
" transform="scale(0.015625)"/>
       </defs>
       <use xlink:href="#DejaVuSans-32"/>
       <use xlink:href="#DejaVuSans-37" x="63.623047"/>
       <use xlink:href="#DejaVuSans-30" x="127.246094"/>
      </g>
     </g>
    </g>
    <g id="text_10">
     <!-- Position in Alpha 3 (C-like Domain) -->
     <g transform="translate(620.998125 332.425781) scale(0.16 -0.16)">
      <defs>
       <path id="DejaVuSans-50" d="M 1259 4147 
L 1259 2394 
L 2053 2394 
Q 2494 2394 2734 2622 
Q 2975 2850 2975 3272 
Q 2975 3691 2734 3919 
Q 2494 4147 2053 4147 
L 1259 4147 
z
M 628 4666 
L 2053 4666 
Q 2838 4666 3239 4311 
Q 3641 3956 3641 3272 
Q 3641 2581 3239 2228 
Q 2838 1875 2053 1875 
L 1259 1875 
L 1259 0 
L 628 0 
L 628 4666 
z
" transform="scale(0.015625)"/>
       <path id="DejaVuSans-6f" d="M 1959 3097 
Q 1497 3097 1228 2736 
Q 959 2375 959 1747 
Q 959 1119 1226 758 
Q 1494 397 1959 397 
Q 2419 397 2687 759 
Q 2956 1122 2956 1747 
Q 2956 2369 2687 2733 
Q 2419 3097 1959 3097 
z
M 1959 3584 
Q 2709 3584 3137 3096 
Q 3566 2609 3566 1747 
Q 3566 888 3137 398 
Q 2709 -91 1959 -91 
Q 1206 -91 779 398 
Q 353 888 353 1747 
Q 353 2609 779 3096 
Q 1206 3584 1959 3584 
z
" transform="scale(0.015625)"/>
       <path id="DejaVuSans-73" d="M 2834 3397 
L 2834 2853 
Q 2591 2978 2328 3040 
Q 2066 3103 1784 3103 
Q 1356 3103 1142 2972 
Q 928 2841 928 2578 
Q 928 2378 1081 2264 
Q 1234 2150 1697 2047 
L 1894 2003 
Q 2506 1872 2764 1633 
Q 3022 1394 3022 966 
Q 3022 478 2636 193 
Q 2250 -91 1575 -91 
Q 1294 -91 989 -36 
Q 684 19 347 128 
L 347 722 
Q 666 556 975 473 
Q 1284 391 1588 391 
Q 1994 391 2212 530 
Q 2431 669 2431 922 
Q 2431 1156 2273 1281 
Q 2116 1406 1581 1522 
L 1381 1569 
Q 847 1681 609 1914 
Q 372 2147 372 2553 
Q 372 3047 722 3315 
Q 1072 3584 1716 3584 
Q 2034 3584 2315 3537 
Q 2597 3491 2834 3397 
z
" transform="scale(0.015625)"/>
       <path id="DejaVuSans-69" d="M 603 3500 
L 1178 3500 
L 1178 0 
L 603 0 
L 603 3500 
z
M 603 4863 
L 1178 4863 
L 1178 4134 
L 603 4134 
L 603 4863 
z
" transform="scale(0.015625)"/>
       <path id="DejaVuSans-74" d="M 1172 4494 
L 1172 3500 
L 2356 3500 
L 2356 3053 
L 1172 3053 
L 1172 1153 
Q 1172 725 1289 603 
Q 1406 481 1766 481 
L 2356 481 
L 2356 0 
L 1766 0 
Q 1100 0 847 248 
Q 594 497 594 1153 
L 594 3053 
L 172 3053 
L 172 3500 
L 594 3500 
L 594 4494 
L 1172 4494 
z
" transform="scale(0.015625)"/>
       <path id="DejaVuSans-6e" d="M 3513 2113 
L 3513 0 
L 2938 0 
L 2938 2094 
Q 2938 2591 2744 2837 
Q 2550 3084 2163 3084 
Q 1697 3084 1428 2787 
Q 1159 2491 1159 1978 
L 1159 0 
L 581 0 
L 581 3500 
L 1159 3500 
L 1159 2956 
Q 1366 3272 1645 3428 
Q 1925 3584 2291 3584 
Q 2894 3584 3203 3211 
Q 3513 2838 3513 2113 
z
" transform="scale(0.015625)"/>
       <path id="DejaVuSans-20" transform="scale(0.015625)"/>
       <path id="DejaVuSans-41" d="M 2188 4044 
L 1331 1722 
L 3047 1722 
L 2188 4044 
z
M 1831 4666 
L 2547 4666 
L 4325 0 
L 3669 0 
L 3244 1197 
L 1141 1197 
L 716 0 
L 50 0 
L 1831 4666 
z
" transform="scale(0.015625)"/>
       <path id="DejaVuSans-6c" d="M 603 4863 
L 1178 4863 
L 1178 0 
L 603 0 
L 603 4863 
z
" transform="scale(0.015625)"/>
       <path id="DejaVuSans-70" d="M 1159 525 
L 1159 -1331 
L 581 -1331 
L 581 3500 
L 1159 3500 
L 1159 2969 
Q 1341 3281 1617 3432 
Q 1894 3584 2278 3584 
Q 2916 3584 3314 3078 
Q 3713 2572 3713 1747 
Q 3713 922 3314 415 
Q 2916 -91 2278 -91 
Q 1894 -91 1617 61 
Q 1341 213 1159 525 
z
M 3116 1747 
Q 3116 2381 2855 2742 
Q 2594 3103 2138 3103 
Q 1681 3103 1420 2742 
Q 1159 2381 1159 1747 
Q 1159 1113 1420 752 
Q 1681 391 2138 391 
Q 2594 391 2855 752 
Q 3116 1113 3116 1747 
z
" transform="scale(0.015625)"/>
       <path id="DejaVuSans-68" d="M 3513 2113 
L 3513 0 
L 2938 0 
L 2938 2094 
Q 2938 2591 2744 2837 
Q 2550 3084 2163 3084 
Q 1697 3084 1428 2787 
Q 1159 2491 1159 1978 
L 1159 0 
L 581 0 
L 581 4863 
L 1159 4863 
L 1159 2956 
Q 1366 3272 1645 3428 
Q 1925 3584 2291 3584 
Q 2894 3584 3203 3211 
Q 3513 2838 3513 2113 
z
" transform="scale(0.015625)"/>
       <path id="DejaVuSans-61" d="M 2194 1759 
Q 1497 1759 1228 1600 
Q 959 1441 959 1056 
Q 959 750 1161 570 
Q 1363 391 1709 391 
Q 2188 391 2477 730 
Q 2766 1069 2766 1631 
L 2766 1759 
L 2194 1759 
z
M 3341 1997 
L 3341 0 
L 2766 0 
L 2766 531 
Q 2569 213 2275 61 
Q 1981 -91 1556 -91 
Q 1019 -91 701 211 
Q 384 513 384 1019 
Q 384 1609 779 1909 
Q 1175 2209 1959 2209 
L 2766 2209 
L 2766 2266 
Q 2766 2663 2505 2880 
Q 2244 3097 1772 3097 
Q 1472 3097 1187 3025 
Q 903 2953 641 2809 
L 641 3341 
Q 956 3463 1253 3523 
Q 1550 3584 1831 3584 
Q 2591 3584 2966 3190 
Q 3341 2797 3341 1997 
z
" transform="scale(0.015625)"/>
       <path id="DejaVuSans-28" d="M 1984 4856 
Q 1566 4138 1362 3434 
Q 1159 2731 1159 2009 
Q 1159 1288 1364 580 
Q 1569 -128 1984 -844 
L 1484 -844 
Q 1016 -109 783 600 
Q 550 1309 550 2009 
Q 550 2706 781 3412 
Q 1013 4119 1484 4856 
L 1984 4856 
z
" transform="scale(0.015625)"/>
       <path id="DejaVuSans-43" d="M 4122 4306 
L 4122 3641 
Q 3803 3938 3442 4084 
Q 3081 4231 2675 4231 
Q 1875 4231 1450 3742 
Q 1025 3253 1025 2328 
Q 1025 1406 1450 917 
Q 1875 428 2675 428 
Q 3081 428 3442 575 
Q 3803 722 4122 1019 
L 4122 359 
Q 3791 134 3420 21 
Q 3050 -91 2638 -91 
Q 1578 -91 968 557 
Q 359 1206 359 2328 
Q 359 3453 968 4101 
Q 1578 4750 2638 4750 
Q 3056 4750 3426 4639 
Q 3797 4528 4122 4306 
z
" transform="scale(0.015625)"/>
       <path id="DejaVuSans-2d" d="M 313 2009 
L 1997 2009 
L 1997 1497 
L 313 1497 
L 313 2009 
z
" transform="scale(0.015625)"/>
       <path id="DejaVuSans-6b" d="M 581 4863 
L 1159 4863 
L 1159 1991 
L 2875 3500 
L 3609 3500 
L 1753 1863 
L 3688 0 
L 2938 0 
L 1159 1709 
L 1159 0 
L 581 0 
L 581 4863 
z
" transform="scale(0.015625)"/>
       <path id="DejaVuSans-65" d="M 3597 1894 
L 3597 1613 
L 953 1613 
Q 991 1019 1311 708 
Q 1631 397 2203 397 
Q 2534 397 2845 478 
Q 3156 559 3463 722 
L 3463 178 
Q 3153 47 2828 -22 
Q 2503 -91 2169 -91 
Q 1331 -91 842 396 
Q 353 884 353 1716 
Q 353 2575 817 3079 
Q 1281 3584 2069 3584 
Q 2775 3584 3186 3129 
Q 3597 2675 3597 1894 
z
M 3022 2063 
Q 3016 2534 2758 2815 
Q 2500 3097 2075 3097 
Q 1594 3097 1305 2825 
Q 1016 2553 972 2059 
L 3022 2063 
z
" transform="scale(0.015625)"/>
       <path id="DejaVuSans-44" d="M 1259 4147 
L 1259 519 
L 2022 519 
Q 2988 519 3436 956 
Q 3884 1394 3884 2338 
Q 3884 3275 3436 3711 
Q 2988 4147 2022 4147 
L 1259 4147 
z
M 628 4666 
L 1925 4666 
Q 3281 4666 3915 4102 
Q 4550 3538 4550 2338 
Q 4550 1131 3912 565 
Q 3275 0 1925 0 
L 628 0 
L 628 4666 
z
" transform="scale(0.015625)"/>
       <path id="DejaVuSans-6d" d="M 3328 2828 
Q 3544 3216 3844 3400 
Q 4144 3584 4550 3584 
Q 5097 3584 5394 3201 
Q 5691 2819 5691 2113 
L 5691 0 
L 5113 0 
L 5113 2094 
Q 5113 2597 4934 2840 
Q 4756 3084 4391 3084 
Q 3944 3084 3684 2787 
Q 3425 2491 3425 1978 
L 3425 0 
L 2847 0 
L 2847 2094 
Q 2847 2600 2669 2842 
Q 2491 3084 2119 3084 
Q 1678 3084 1418 2786 
Q 1159 2488 1159 1978 
L 1159 0 
L 581 0 
L 581 3500 
L 1159 3500 
L 1159 2956 
Q 1356 3278 1631 3431 
Q 1906 3584 2284 3584 
Q 2666 3584 2933 3390 
Q 3200 3197 3328 2828 
z
" transform="scale(0.015625)"/>
       <path id="DejaVuSans-29" d="M 513 4856 
L 1013 4856 
Q 1481 4119 1714 3412 
Q 1947 2706 1947 2009 
Q 1947 1309 1714 600 
Q 1481 -109 1013 -844 
L 513 -844 
Q 928 -128 1133 580 
Q 1338 1288 1338 2009 
Q 1338 2731 1133 3434 
Q 928 4138 513 4856 
z
" transform="scale(0.015625)"/>
      </defs>
      <use xlink:href="#DejaVuSans-50"/>
      <use xlink:href="#DejaVuSans-6f" x="56.677734"/>
      <use xlink:href="#DejaVuSans-73" x="117.859375"/>
      <use xlink:href="#DejaVuSans-69" x="169.958984"/>
      <use xlink:href="#DejaVuSans-74" x="197.742188"/>
      <use xlink:href="#DejaVuSans-69" x="236.951172"/>
      <use xlink:href="#DejaVuSans-6f" x="264.734375"/>
      <use xlink:href="#DejaVuSans-6e" x="325.916016"/>
      <use xlink:href="#DejaVuSans-20" x="389.294922"/>
      <use xlink:href="#DejaVuSans-69" x="421.082031"/>
      <use xlink:href="#DejaVuSans-6e" x="448.865234"/>
      <use xlink:href="#DejaVuSans-20" x="512.244141"/>
      <use xlink:href="#DejaVuSans-41" x="544.03125"/>
      <use xlink:href="#DejaVuSans-6c" x="612.439453"/>
      <use xlink:href="#DejaVuSans-70" x="640.222656"/>
      <use xlink:href="#DejaVuSans-68" x="703.699219"/>
      <use xlink:href="#DejaVuSans-61" x="767.078125"/>
      <use xlink:href="#DejaVuSans-20" x="828.357422"/>
      <use xlink:href="#DejaVuSans-33" x="860.144531"/>
      <use xlink:href="#DejaVuSans-20" x="923.767578"/>
      <use xlink:href="#DejaVuSans-28" x="955.554688"/>
      <use xlink:href="#DejaVuSans-43" x="994.568359"/>
      <use xlink:href="#DejaVuSans-2d" x="1064.392578"/>
      <use xlink:href="#DejaVuSans-6c" x="1100.476562"/>
      <use xlink:href="#DejaVuSans-69" x="1128.259766"/>
      <use xlink:href="#DejaVuSans-6b" x="1156.042969"/>
      <use xlink:href="#DejaVuSans-65" x="1210.328125"/>
      <use xlink:href="#DejaVuSans-20" x="1271.851562"/>
      <use xlink:href="#DejaVuSans-44" x="1303.638672"/>
      <use xlink:href="#DejaVuSans-6f" x="1380.640625"/>
      <use xlink:href="#DejaVuSans-6d" x="1441.822266"/>
      <use xlink:href="#DejaVuSans-61" x="1539.234375"/>
      <use xlink:href="#DejaVuSans-69" x="1600.513672"/>
      <use xlink:href="#DejaVuSans-6e" x="1628.296875"/>
      <use xlink:href="#DejaVuSans-29" x="1691.675781"/>
     </g>
    </g>
   </g>
   <g id="matplotlib.axis_2">
    <g id="ytick_1">
     <g id="line2d_10">
      <defs>
       <path id="m4262701a6b" d="M 0 0 
L -3.5 0 
" style="stroke: #000000; stroke-width: 0.8"/>
      </defs>
      <g>
       <use xlink:href="#m4262701a6b" x="61.949375" y="289.718906" style="stroke: #000000; stroke-width: 0.8"/>
      </g>
     </g>
     <g id="text_11">
      <!-- 0 -->
      <g transform="translate(46.041875 295.037813) scale(0.14 -0.14)">
       <use xlink:href="#DejaVuSans-30"/>
      </g>
     </g>
    </g>
    <g id="ytick_2">
     <g id="line2d_11">
      <g>
       <use xlink:href="#m4262701a6b" x="61.949375" y="234.278906" style="stroke: #000000; stroke-width: 0.8"/>
      </g>
     </g>
     <g id="text_12">
      <!-- 0.2 -->
      <g transform="translate(32.685 239.597813) scale(0.14 -0.14)">
       <defs>
        <path id="DejaVuSans-2e" d="M 684 794 
L 1344 794 
L 1344 0 
L 684 0 
L 684 794 
z
" transform="scale(0.015625)"/>
       </defs>
       <use xlink:href="#DejaVuSans-30"/>
       <use xlink:href="#DejaVuSans-2e" x="63.623047"/>
       <use xlink:href="#DejaVuSans-32" x="95.410156"/>
      </g>
     </g>
    </g>
    <g id="ytick_3">
     <g id="line2d_12">
      <g>
       <use xlink:href="#m4262701a6b" x="61.949375" y="178.838906" style="stroke: #000000; stroke-width: 0.8"/>
      </g>
     </g>
     <g id="text_13">
      <!-- 0.4 -->
      <g transform="translate(32.685 184.157813) scale(0.14 -0.14)">
       <use xlink:href="#DejaVuSans-30"/>
       <use xlink:href="#DejaVuSans-2e" x="63.623047"/>
       <use xlink:href="#DejaVuSans-34" x="95.410156"/>
      </g>
     </g>
    </g>
    <g id="ytick_4">
     <g id="line2d_13">
      <g>
       <use xlink:href="#m4262701a6b" x="61.949375" y="123.398906" style="stroke: #000000; stroke-width: 0.8"/>
      </g>
     </g>
     <g id="text_14">
      <!-- 0.6 -->
      <g transform="translate(32.685 128.717813) scale(0.14 -0.14)">
       <use xlink:href="#DejaVuSans-30"/>
       <use xlink:href="#DejaVuSans-2e" x="63.623047"/>
       <use xlink:href="#DejaVuSans-36" x="95.410156"/>
      </g>
     </g>
    </g>
    <g id="ytick_5">
     <g id="line2d_14">
      <g>
       <use xlink:href="#m4262701a6b" x="61.949375" y="67.958906" style="stroke: #000000; stroke-width: 0.8"/>
      </g>
     </g>
     <g id="text_15">
      <!-- 0.8 -->
      <g transform="translate(32.685 73.277812) scale(0.14 -0.14)">
       <defs>
        <path id="DejaVuSans-38" d="M 2034 2216 
Q 1584 2216 1326 1975 
Q 1069 1734 1069 1313 
Q 1069 891 1326 650 
Q 1584 409 2034 409 
Q 2484 409 2743 651 
Q 3003 894 3003 1313 
Q 3003 1734 2745 1975 
Q 2488 2216 2034 2216 
z
M 1403 2484 
Q 997 2584 770 2862 
Q 544 3141 544 3541 
Q 544 4100 942 4425 
Q 1341 4750 2034 4750 
Q 2731 4750 3128 4425 
Q 3525 4100 3525 3541 
Q 3525 3141 3298 2862 
Q 3072 2584 2669 2484 
Q 3125 2378 3379 2068 
Q 3634 1759 3634 1313 
Q 3634 634 3220 271 
Q 2806 -91 2034 -91 
Q 1263 -91 848 271 
Q 434 634 434 1313 
Q 434 1759 690 2068 
Q 947 2378 1403 2484 
z
M 1172 3481 
Q 1172 3119 1398 2916 
Q 1625 2713 2034 2713 
Q 2441 2713 2670 2916 
Q 2900 3119 2900 3481 
Q 2900 3844 2670 4047 
Q 2441 4250 2034 4250 
Q 1625 4250 1398 4047 
Q 1172 3844 1172 3481 
z
" transform="scale(0.015625)"/>
       </defs>
       <use xlink:href="#DejaVuSans-30"/>
       <use xlink:href="#DejaVuSans-2e" x="63.623047"/>
       <use xlink:href="#DejaVuSans-38" x="95.410156"/>
      </g>
     </g>
    </g>
    <g id="ytick_6">
     <g id="line2d_15">
      <g>
       <use xlink:href="#m4262701a6b" x="61.949375" y="12.518906" style="stroke: #000000; stroke-width: 0.8"/>
      </g>
     </g>
     <g id="text_16">
      <!-- 1.0 -->
      <g transform="translate(32.685 17.837812) scale(0.14 -0.14)">
       <use xlink:href="#DejaVuSans-31"/>
       <use xlink:href="#DejaVuSans-2e" x="63.623047"/>
       <use xlink:href="#DejaVuSans-30" x="95.410156"/>
      </g>
     </g>
    </g>
    <g id="text_17">
     <!-- Normalised Shannon entropy -->
     <g transform="translate(19.3575 267.643906) rotate(-90) scale(0.16 -0.16)">
      <defs>
       <path id="DejaVuSans-4e" d="M 628 4666 
L 1478 4666 
L 3547 763 
L 3547 4666 
L 4159 4666 
L 4159 0 
L 3309 0 
L 1241 3903 
L 1241 0 
L 628 0 
L 628 4666 
z
" transform="scale(0.015625)"/>
       <path id="DejaVuSans-72" d="M 2631 2963 
Q 2534 3019 2420 3045 
Q 2306 3072 2169 3072 
Q 1681 3072 1420 2755 
Q 1159 2438 1159 1844 
L 1159 0 
L 581 0 
L 581 3500 
L 1159 3500 
L 1159 2956 
Q 1341 3275 1631 3429 
Q 1922 3584 2338 3584 
Q 2397 3584 2469 3576 
Q 2541 3569 2628 3553 
L 2631 2963 
z
" transform="scale(0.015625)"/>
       <path id="DejaVuSans-64" d="M 2906 2969 
L 2906 4863 
L 3481 4863 
L 3481 0 
L 2906 0 
L 2906 525 
Q 2725 213 2448 61 
Q 2172 -91 1784 -91 
Q 1150 -91 751 415 
Q 353 922 353 1747 
Q 353 2572 751 3078 
Q 1150 3584 1784 3584 
Q 2172 3584 2448 3432 
Q 2725 3281 2906 2969 
z
M 947 1747 
Q 947 1113 1208 752 
Q 1469 391 1925 391 
Q 2381 391 2643 752 
Q 2906 1113 2906 1747 
Q 2906 2381 2643 2742 
Q 2381 3103 1925 3103 
Q 1469 3103 1208 2742 
Q 947 2381 947 1747 
z
" transform="scale(0.015625)"/>
       <path id="DejaVuSans-53" d="M 3425 4513 
L 3425 3897 
Q 3066 4069 2747 4153 
Q 2428 4238 2131 4238 
Q 1616 4238 1336 4038 
Q 1056 3838 1056 3469 
Q 1056 3159 1242 3001 
Q 1428 2844 1947 2747 
L 2328 2669 
Q 3034 2534 3370 2195 
Q 3706 1856 3706 1288 
Q 3706 609 3251 259 
Q 2797 -91 1919 -91 
Q 1588 -91 1214 -16 
Q 841 59 441 206 
L 441 856 
Q 825 641 1194 531 
Q 1563 422 1919 422 
Q 2459 422 2753 634 
Q 3047 847 3047 1241 
Q 3047 1584 2836 1778 
Q 2625 1972 2144 2069 
L 1759 2144 
Q 1053 2284 737 2584 
Q 422 2884 422 3419 
Q 422 4038 858 4394 
Q 1294 4750 2059 4750 
Q 2388 4750 2728 4690 
Q 3069 4631 3425 4513 
z
" transform="scale(0.015625)"/>
       <path id="DejaVuSans-79" d="M 2059 -325 
Q 1816 -950 1584 -1140 
Q 1353 -1331 966 -1331 
L 506 -1331 
L 506 -850 
L 844 -850 
Q 1081 -850 1212 -737 
Q 1344 -625 1503 -206 
L 1606 56 
L 191 3500 
L 800 3500 
L 1894 763 
L 2988 3500 
L 3597 3500 
L 2059 -325 
z
" transform="scale(0.015625)"/>
      </defs>
      <use xlink:href="#DejaVuSans-4e"/>
      <use xlink:href="#DejaVuSans-6f" x="74.804688"/>
      <use xlink:href="#DejaVuSans-72" x="135.986328"/>
      <use xlink:href="#DejaVuSans-6d" x="175.349609"/>
      <use xlink:href="#DejaVuSans-61" x="272.761719"/>
      <use xlink:href="#DejaVuSans-6c" x="334.041016"/>
      <use xlink:href="#DejaVuSans-69" x="361.824219"/>
      <use xlink:href="#DejaVuSans-73" x="389.607422"/>
      <use xlink:href="#DejaVuSans-65" x="441.707031"/>
      <use xlink:href="#DejaVuSans-64" x="503.230469"/>
      <use xlink:href="#DejaVuSans-20" x="566.707031"/>
      <use xlink:href="#DejaVuSans-53" x="598.494141"/>
      <use xlink:href="#DejaVuSans-68" x="661.970703"/>
      <use xlink:href="#DejaVuSans-61" x="725.349609"/>
      <use xlink:href="#DejaVuSans-6e" x="786.628906"/>
      <use xlink:href="#DejaVuSans-6e" x="850.007812"/>
      <use xlink:href="#DejaVuSans-6f" x="913.386719"/>
      <use xlink:href="#DejaVuSans-6e" x="974.568359"/>
      <use xlink:href="#DejaVuSans-20" x="1037.947266"/>
      <use xlink:href="#DejaVuSans-65" x="1069.734375"/>
      <use xlink:href="#DejaVuSans-6e" x="1131.257812"/>
      <use xlink:href="#DejaVuSans-74" x="1194.636719"/>
      <use xlink:href="#DejaVuSans-72" x="1233.845703"/>
      <use xlink:href="#DejaVuSans-6f" x="1272.708984"/>
      <use xlink:href="#DejaVuSans-70" x="1333.890625"/>
      <use xlink:href="#DejaVuSans-79" x="1397.367188"/>
     </g>
    </g>
   </g>
   <g id="patch_97">
    <path d="M 61.949375 289.718906 
L 61.949375 12.518906 
" style="fill: none; stroke: #000000; stroke-width: 0.8; stroke-linejoin: miter; stroke-linecap: square"/>
   </g>
   <g id="patch_98">
    <path d="M 1456.949375 289.718906 
L 1456.949375 12.518906 
" style="fill: none; stroke: #000000; stroke-width: 0.8; stroke-linejoin: miter; stroke-linecap: square"/>
   </g>
   <g id="patch_99">
    <path d="M 61.949375 289.718906 
L 1456.949375 289.718906 
" style="fill: none; stroke: #000000; stroke-width: 0.8; stroke-linejoin: miter; stroke-linecap: square"/>
   </g>
   <g id="patch_100">
    <path d="M 61.949375 12.518906 
L 1456.949375 12.518906 
" style="fill: none; stroke: #000000; stroke-width: 0.8; stroke-linejoin: miter; stroke-linecap: square"/>
   </g>
   <g id="text_18">
    <!--  184 -->
    <g transform="translate(109.865132 222.136171) rotate(-90) scale(0.14 -0.14)">
     <use xlink:href="#DejaVuSans-20"/>
     <use xlink:href="#DejaVuSans-31" x="31.787109"/>
     <use xlink:href="#DejaVuSans-38" x="95.410156"/>
     <use xlink:href="#DejaVuSans-34" x="159.033203"/>
    </g>
   </g>
   <g id="text_19">
    <!--  193 -->
    <g transform="translate(242.023026 219.381201) rotate(-90) scale(0.14 -0.14)">
     <use xlink:href="#DejaVuSans-20"/>
     <use xlink:href="#DejaVuSans-31" x="31.787109"/>
     <use xlink:href="#DejaVuSans-39" x="95.410156"/>
     <use xlink:href="#DejaVuSans-33" x="159.033203"/>
    </g>
   </g>
   <g id="text_20">
    <!--  194 -->
    <g transform="translate(256.707237 221.665249) rotate(-90) scale(0.14 -0.14)">
     <use xlink:href="#DejaVuSans-20"/>
     <use xlink:href="#DejaVuSans-31" x="31.787109"/>
     <use xlink:href="#DejaVuSans-39" x="95.410156"/>
     <use xlink:href="#DejaVuSans-34" x="159.033203"/>
    </g>
   </g>
   <g id="text_21">
    <!--  207 -->
    <g transform="translate(447.601974 221.305126) rotate(-90) scale(0.14 -0.14)">
     <use xlink:href="#DejaVuSans-20"/>
     <use xlink:href="#DejaVuSans-32" x="31.787109"/>
     <use xlink:href="#DejaVuSans-30" x="95.410156"/>
     <use xlink:href="#DejaVuSans-37" x="159.033203"/>
    </g>
   </g>
   <g id="text_22">
    <!--  246 -->
    <g transform="translate(1020.286184 229.1841) rotate(-90) scale(0.14 -0.14)">
     <use xlink:href="#DejaVuSans-20"/>
     <use xlink:href="#DejaVuSans-32" x="31.787109"/>
     <use xlink:href="#DejaVuSans-34" x="95.410156"/>
     <use xlink:href="#DejaVuSans-36" x="159.033203"/>
    </g>
   </g>
   <g id="text_23">
    <!--  253 -->
    <g transform="translate(1123.075658 220.089584) rotate(-90) scale(0.14 -0.14)">
     <use xlink:href="#DejaVuSans-20"/>
     <use xlink:href="#DejaVuSans-32" x="31.787109"/>
     <use xlink:href="#DejaVuSans-35" x="95.410156"/>
     <use xlink:href="#DejaVuSans-33" x="159.033203"/>
    </g>
   </g>
  </g>
 </g>
 <defs>
  <clipPath id="p104b99559b">
   <rect x="61.949375" y="12.518906" width="1395" height="277.2"/>
  </clipPath>
 </defs>
</svg>
