<?xml version="1.0" encoding="utf-8" standalone="no"?>
<!DOCTYPE svg PUBLIC "-//W3C//DTD SVG 1.1//EN"
  "http://www.w3.org/Graphics/SVG/1.1/DTD/svg11.dtd">
<svg xmlns:xlink="http://www.w3.org/1999/xlink" width="1464.149375pt" height="342.953281pt" viewBox="0 0 1464.149375 342.953281" xmlns="http://www.w3.org/2000/svg" version="1.1">
 <metadata>
  <rdf:RDF xmlns:dc="http://purl.org/dc/elements/1.1/" xmlns:cc="http://creativecommons.org/ns#" xmlns:rdf="http://www.w3.org/1999/02/22-rdf-syntax-ns#">
   <cc:Work>
    <dc:type rdf:resource="http://purl.org/dc/dcmitype/StillImage"/>
    <dc:date>2023-10-13T09:38:54.388288</dc:date>
    <dc:format>image/svg+xml</dc:format>
    <dc:creator>
     <cc:Agent>
      <dc:title>Matplotlib v3.7.3, https://matplotlib.org/</dc:title>
     </cc:Agent>
    </dc:creator>
   </cc:Work>
  </rdf:RDF>
 </metadata>
 <defs>
  <style type="text/css">*{stroke-linejoin: round; stroke-linecap: butt}</style>
 </defs>
 <g id="figure_1">
  <g id="patch_1">
   <path d="M 0 342.953281 
L 1464.149375 342.953281 
L 1464.149375 0 
L 0 0 
z
" style="fill: #ffffff"/>
  </g>
  <g id="axes_1">
   <g id="patch_2">
    <path d="M 61.949375 289.718906 
L 1456.949375 289.718906 
L 1456.949375 12.518906 
L 61.949375 12.518906 
z
" style="fill: #ffffff"/>
   </g>
   <g id="patch_3">
    <path d="M 71.047201 289.718906 
L 83.177636 289.718906 
L 83.177636 284.362922 
L 71.047201 284.362922 
z
" clip-path="url(#p077c12cf6a)" style="fill: #cccccc; stroke: #cccccc; stroke-linejoin: miter"/>
   </g>
   <g id="patch_4">
    <path d="M 86.210245 289.718906 
L 98.340679 289.718906 
L 98.340679 286.359137 
L 86.210245 286.359137 
z
" clip-path="url(#p077c12cf6a)" style="fill: #cccccc; stroke: #cccccc; stroke-linejoin: miter"/>
   </g>
   <g id="patch_5">
    <path d="M 101.373288 289.718906 
L 113.503723 289.718906 
L 113.503723 286.154578 
L 101.373288 286.154578 
z
" clip-path="url(#p077c12cf6a)" style="fill: #cccccc; stroke: #cccccc; stroke-linejoin: miter"/>
   </g>
   <g id="patch_6">
    <path d="M 116.536332 289.718906 
L 128.666766 289.718906 
L 128.666766 284.985708 
L 116.536332 284.985708 
z
" clip-path="url(#p077c12cf6a)" style="fill: #cccccc; stroke: #cccccc; stroke-linejoin: miter"/>
   </g>
   <g id="patch_7">
    <path d="M 131.699375 289.718906 
L 143.82981 289.718906 
L 143.82981 200.666845 
L 131.699375 200.666845 
z
" clip-path="url(#p077c12cf6a)" style="fill: #e4bb7b; stroke: #e4bb7b; stroke-linejoin: miter"/>
   </g>
   <g id="patch_8">
    <path d="M 146.862418 289.718906 
L 158.992853 289.718906 
L 158.992853 285.736504 
L 146.862418 285.736504 
z
" clip-path="url(#p077c12cf6a)" style="fill: #cccccc; stroke: #cccccc; stroke-linejoin: miter"/>
   </g>
   <g id="patch_9">
    <path d="M 162.025462 289.718906 
L 174.155897 289.718906 
L 174.155897 184.122836 
L 162.025462 184.122836 
z
" clip-path="url(#p077c12cf6a)" style="fill: #9595c0; stroke: #9595c0; stroke-linejoin: miter"/>
   </g>
   <g id="patch_10">
    <path d="M 177.188505 289.718906 
L 189.31894 289.718906 
L 189.31894 285.635954 
L 177.188505 285.635954 
z
" clip-path="url(#p077c12cf6a)" style="fill: #cccccc; stroke: #cccccc; stroke-linejoin: miter"/>
   </g>
   <g id="patch_11">
    <path d="M 192.351549 289.718906 
L 204.481984 289.718906 
L 204.481984 239.755711 
L 192.351549 239.755711 
z
" clip-path="url(#p077c12cf6a)" style="fill: #aee6ae; stroke: #aee6ae; stroke-linejoin: miter"/>
   </g>
   <g id="patch_12">
    <path d="M 207.514592 289.718906 
L 219.645027 289.718906 
L 219.645027 286.200655 
L 207.514592 286.200655 
z
" clip-path="url(#p077c12cf6a)" style="fill: #cccccc; stroke: #cccccc; stroke-linejoin: miter"/>
   </g>
   <g id="patch_13">
    <path d="M 222.677636 289.718906 
L 234.808071 289.718906 
L 234.808071 285.938738 
L 222.677636 285.938738 
z
" clip-path="url(#p077c12cf6a)" style="fill: #cccccc; stroke: #cccccc; stroke-linejoin: miter"/>
   </g>
   <g id="patch_14">
    <path d="M 237.840679 289.718906 
L 249.971114 289.718906 
L 249.971114 279.517171 
L 237.840679 279.517171 
z
" clip-path="url(#p077c12cf6a)" style="fill: #cccccc; stroke: #cccccc; stroke-linejoin: miter"/>
   </g>
   <g id="patch_15">
    <path d="M 253.003723 289.718906 
L 265.134158 289.718906 
L 265.134158 283.035242 
L 253.003723 283.035242 
z
" clip-path="url(#p077c12cf6a)" style="fill: #cccccc; stroke: #cccccc; stroke-linejoin: miter"/>
   </g>
   <g id="patch_16">
    <path d="M 268.166766 289.718906 
L 280.297201 289.718906 
L 280.297201 285.374061 
L 268.166766 285.374061 
z
" clip-path="url(#p077c12cf6a)" style="fill: #cccccc; stroke: #cccccc; stroke-linejoin: miter"/>
   </g>
   <g id="patch_17">
    <path d="M 283.32981 289.718906 
L 295.460245 289.718906 
L 295.460245 228.788899 
L 283.32981 228.788899 
z
" clip-path="url(#p077c12cf6a)" style="fill: #cccccc; stroke: #cccccc; stroke-linejoin: miter"/>
   </g>
   <g id="patch_18">
    <path d="M 298.492853 289.718906 
L 310.623288 289.718906 
L 310.623288 285.35667 
L 298.492853 285.35667 
z
" clip-path="url(#p077c12cf6a)" style="fill: #cccccc; stroke: #cccccc; stroke-linejoin: miter"/>
   </g>
   <g id="patch_19">
    <path d="M 313.655897 289.718906 
L 325.786332 289.718906 
L 325.786332 236.466491 
L 313.655897 236.466491 
z
" clip-path="url(#p077c12cf6a)" style="fill: #cccccc; stroke: #cccccc; stroke-linejoin: miter"/>
   </g>
   <g id="patch_20">
    <path d="M 328.81894 289.718906 
L 340.949375 289.718906 
L 340.949375 284.590873 
L 328.81894 284.590873 
z
" clip-path="url(#p077c12cf6a)" style="fill: #cccccc; stroke: #cccccc; stroke-linejoin: miter"/>
   </g>
   <g id="patch_21">
    <path d="M 343.981984 289.718906 
L 356.112418 289.718906 
L 356.112418 269.955017 
L 343.981984 269.955017 
z
" clip-path="url(#p077c12cf6a)" style="fill: #cccccc; stroke: #cccccc; stroke-linejoin: miter"/>
   </g>
   <g id="patch_22">
    <path d="M 359.145027 289.718906 
L 371.275462 289.718906 
L 371.275462 285.987115 
L 359.145027 285.987115 
z
" clip-path="url(#p077c12cf6a)" style="fill: #cccccc; stroke: #cccccc; stroke-linejoin: miter"/>
   </g>
   <g id="patch_23">
    <path d="M 374.308071 289.718906 
L 386.438505 289.718906 
L 386.438505 284.657605 
L 374.308071 284.657605 
z
" clip-path="url(#p077c12cf6a)" style="fill: #cccccc; stroke: #cccccc; stroke-linejoin: miter"/>
   </g>
   <g id="patch_24">
    <path d="M 389.471114 289.718906 
L 401.601549 289.718906 
L 401.601549 284.093073 
L 389.471114 284.093073 
z
" clip-path="url(#p077c12cf6a)" style="fill: #cccccc; stroke: #cccccc; stroke-linejoin: miter"/>
   </g>
   <g id="patch_25">
    <path d="M 404.634158 289.718906 
L 416.764592 289.718906 
L 416.764592 284.8875 
L 404.634158 284.8875 
z
" clip-path="url(#p077c12cf6a)" style="fill: #cccccc; stroke: #cccccc; stroke-linejoin: miter"/>
   </g>
   <g id="patch_26">
    <path d="M 419.797201 289.718906 
L 431.927636 289.718906 
L 431.927636 172.654884 
L 419.797201 172.654884 
z
" clip-path="url(#p077c12cf6a)" style="fill: #aee6ae; stroke: #aee6ae; stroke-linejoin: miter"/>
   </g>
   <g id="patch_27">
    <path d="M 434.960245 289.718906 
L 447.090679 289.718906 
L 447.090679 283.31288 
L 434.960245 283.31288 
z
" clip-path="url(#p077c12cf6a)" style="fill: #cccccc; stroke: #cccccc; stroke-linejoin: miter"/>
   </g>
   <g id="patch_28">
    <path d="M 450.123288 289.718906 
L 462.253723 289.718906 
L 462.253723 206.317441 
L 450.123288 206.317441 
z
" clip-path="url(#p077c12cf6a)" style="fill: #e4bb7b; stroke: #e4bb7b; stroke-linejoin: miter"/>
   </g>
   <g id="patch_29">
    <path d="M 465.286332 289.718906 
L 477.416766 289.718906 
L 477.416766 283.703366 
L 465.286332 283.703366 
z
" clip-path="url(#p077c12cf6a)" style="fill: #cccccc; stroke: #cccccc; stroke-linejoin: miter"/>
   </g>
   <g id="patch_30">
    <path d="M 480.449375 289.718906 
L 492.57981 289.718906 
L 492.57981 283.879641 
L 480.449375 283.879641 
z
" clip-path="url(#p077c12cf6a)" style="fill: #cccccc; stroke: #cccccc; stroke-linejoin: miter"/>
   </g>
   <g id="patch_31">
    <path d="M 495.612418 289.718906 
L 507.742853 289.718906 
L 507.742853 284.843725 
L 495.612418 284.843725 
z
" clip-path="url(#p077c12cf6a)" style="fill: #cccccc; stroke: #cccccc; stroke-linejoin: miter"/>
   </g>
   <g id="patch_32">
    <path d="M 510.775462 289.718906 
L 522.905897 289.718906 
L 522.905897 281.401233 
L 510.775462 281.401233 
z
" clip-path="url(#p077c12cf6a)" style="fill: #cccccc; stroke: #cccccc; stroke-linejoin: miter"/>
   </g>
   <g id="patch_33">
    <path d="M 525.938505 289.718906 
L 538.06894 289.718906 
L 538.06894 285.123474 
L 525.938505 285.123474 
z
" clip-path="url(#p077c12cf6a)" style="fill: #cccccc; stroke: #cccccc; stroke-linejoin: miter"/>
   </g>
   <g id="patch_34">
    <path d="M 541.101549 289.718906 
L 553.231984 289.718906 
L 553.231984 285.186942 
L 541.101549 285.186942 
z
" clip-path="url(#p077c12cf6a)" style="fill: #cccccc; stroke: #cccccc; stroke-linejoin: miter"/>
   </g>
   <g id="patch_35">
    <path d="M 556.264592 289.718906 
L 568.395027 289.718906 
L 568.395027 285.716812 
L 556.264592 285.716812 
z
" clip-path="url(#p077c12cf6a)" style="fill: #e4bb7b; stroke: #e4bb7b; stroke-linejoin: miter"/>
   </g>
   <g id="patch_36">
    <path d="M 571.427636 289.718906 
L 583.558071 289.718906 
L 583.558071 282.692435 
L 571.427636 282.692435 
z
" clip-path="url(#p077c12cf6a)" style="fill: #cccccc; stroke: #cccccc; stroke-linejoin: miter"/>
   </g>
   <g id="patch_37">
    <path d="M 586.590679 289.718906 
L 598.721114 289.718906 
L 598.721114 283.202373 
L 586.590679 283.202373 
z
" clip-path="url(#p077c12cf6a)" style="fill: #cccccc; stroke: #cccccc; stroke-linejoin: miter"/>
   </g>
   <g id="patch_38">
    <path d="M 601.753723 289.718906 
L 613.884158 289.718906 
L 613.884158 285.094789 
L 601.753723 285.094789 
z
" clip-path="url(#p077c12cf6a)" style="fill: #cccccc; stroke: #cccccc; stroke-linejoin: miter"/>
   </g>
   <g id="patch_39">
    <path d="M 616.916766 289.718906 
L 629.047201 289.718906 
L 629.047201 222.904056 
L 616.916766 222.904056 
z
" clip-path="url(#p077c12cf6a)" style="fill: #cccccc; stroke: #cccccc; stroke-linejoin: miter"/>
   </g>
   <g id="patch_40">
    <path d="M 632.07981 289.718906 
L 644.210245 289.718906 
L 644.210245 282.430912 
L 632.07981 282.430912 
z
" clip-path="url(#p077c12cf6a)" style="fill: #cccccc; stroke: #cccccc; stroke-linejoin: miter"/>
   </g>
   <g id="patch_41">
    <path d="M 647.242853 289.718906 
L 659.373288 289.718906 
L 659.373288 284.8729 
L 647.242853 284.8729 
z
" clip-path="url(#p077c12cf6a)" style="fill: #cccccc; stroke: #cccccc; stroke-linejoin: miter"/>
   </g>
   <g id="patch_42">
    <path d="M 662.405897 289.718906 
L 674.536332 289.718906 
L 674.536332 286.013499 
L 662.405897 286.013499 
z
" clip-path="url(#p077c12cf6a)" style="fill: #cccccc; stroke: #cccccc; stroke-linejoin: miter"/>
   </g>
   <g id="patch_43">
    <path d="M 677.56894 289.718906 
L 689.699375 289.718906 
L 689.699375 282.530732 
L 677.56894 282.530732 
z
" clip-path="url(#p077c12cf6a)" style="fill: #cccccc; stroke: #cccccc; stroke-linejoin: miter"/>
   </g>
   <g id="patch_44">
    <path d="M 692.731984 289.718906 
L 704.862418 289.718906 
L 704.862418 285.716812 
L 692.731984 285.716812 
z
" clip-path="url(#p077c12cf6a)" style="fill: #cccccc; stroke: #cccccc; stroke-linejoin: miter"/>
   </g>
   <g id="patch_45">
    <path d="M 707.895027 289.718906 
L 720.025462 289.718906 
L 720.025462 284.841424 
L 707.895027 284.841424 
z
" clip-path="url(#p077c12cf6a)" style="fill: #cccccc; stroke: #cccccc; stroke-linejoin: miter"/>
   </g>
   <g id="patch_46">
    <path d="M 723.058071 289.718906 
L 735.188505 289.718906 
L 735.188505 285.38254 
L 723.058071 285.38254 
z
" clip-path="url(#p077c12cf6a)" style="fill: #cccccc; stroke: #cccccc; stroke-linejoin: miter"/>
   </g>
   <g id="patch_47">
    <path d="M 738.221114 289.718906 
L 750.351549 289.718906 
L 750.351549 283.968971 
L 738.221114 283.968971 
z
" clip-path="url(#p077c12cf6a)" style="fill: #cccccc; stroke: #cccccc; stroke-linejoin: miter"/>
   </g>
   <g id="patch_48">
    <path d="M 753.384158 289.718906 
L 765.514592 289.718906 
L 765.514592 285.494899 
L 753.384158 285.494899 
z
" clip-path="url(#p077c12cf6a)" style="fill: #cccccc; stroke: #cccccc; stroke-linejoin: miter"/>
   </g>
   <g id="patch_49">
    <path d="M 768.547201 289.718906 
L 780.677636 289.718906 
L 780.677636 283.522401 
L 768.547201 283.522401 
z
" clip-path="url(#p077c12cf6a)" style="fill: #cccccc; stroke: #cccccc; stroke-linejoin: miter"/>
   </g>
   <g id="patch_50">
    <path d="M 783.710245 289.718906 
L 795.840679 289.718906 
L 795.840679 279.926688 
L 783.710245 279.926688 
z
" clip-path="url(#p077c12cf6a)" style="fill: #cccccc; stroke: #cccccc; stroke-linejoin: miter"/>
   </g>
   <g id="patch_51">
    <path d="M 798.873288 289.718906 
L 811.003723 289.718906 
L 811.003723 285.152159 
L 798.873288 285.152159 
z
" clip-path="url(#p077c12cf6a)" style="fill: #cccccc; stroke: #cccccc; stroke-linejoin: miter"/>
   </g>
   <g id="patch_52">
    <path d="M 814.036332 289.718906 
L 826.166766 289.718906 
L 826.166766 285.621833 
L 814.036332 285.621833 
z
" clip-path="url(#p077c12cf6a)" style="fill: #cccccc; stroke: #cccccc; stroke-linejoin: miter"/>
   </g>
   <g id="patch_53">
    <path d="M 829.199375 289.718906 
L 841.32981 289.718906 
L 841.32981 284.230791 
L 829.199375 284.230791 
z
" clip-path="url(#p077c12cf6a)" style="fill: #cccccc; stroke: #cccccc; stroke-linejoin: miter"/>
   </g>
   <g id="patch_54">
    <path d="M 844.362418 289.718906 
L 856.492853 289.718906 
L 856.492853 230.757815 
L 844.362418 230.757815 
z
" clip-path="url(#p077c12cf6a)" style="fill: #cccccc; stroke: #cccccc; stroke-linejoin: miter"/>
   </g>
   <g id="patch_55">
    <path d="M 859.525462 289.718906 
L 871.655897 289.718906 
L 871.655897 284.777957 
L 859.525462 284.777957 
z
" clip-path="url(#p077c12cf6a)" style="fill: #e4bb7b; stroke: #e4bb7b; stroke-linejoin: miter"/>
   </g>
   <g id="patch_56">
    <path d="M 874.688505 289.718906 
L 886.81894 289.718906 
L 886.81894 226.692479 
L 874.688505 226.692479 
z
" clip-path="url(#p077c12cf6a)" style="fill: #cccccc; stroke: #cccccc; stroke-linejoin: miter"/>
   </g>
   <g id="patch_57">
    <path d="M 889.851549 289.718906 
L 901.981984 289.718906 
L 901.981984 227.080788 
L 889.851549 227.080788 
z
" clip-path="url(#p077c12cf6a)" style="fill: #cccccc; stroke: #cccccc; stroke-linejoin: miter"/>
   </g>
   <g id="patch_58">
    <path d="M 905.014592 289.718906 
L 917.145027 289.718906 
L 917.145027 284.556091 
L 905.014592 284.556091 
z
" clip-path="url(#p077c12cf6a)" style="fill: #e4bb7b; stroke: #e4bb7b; stroke-linejoin: miter"/>
   </g>
   <g id="patch_59">
    <path d="M 920.177636 289.718906 
L 932.308071 289.718906 
L 932.308071 284.962261 
L 920.177636 284.962261 
z
" clip-path="url(#p077c12cf6a)" style="fill: #9595c0; stroke: #9595c0; stroke-linejoin: miter"/>
   </g>
   <g id="patch_60">
    <path d="M 935.340679 289.718906 
L 947.471114 289.718906 
L 947.471114 285.826356 
L 935.340679 285.826356 
z
" clip-path="url(#p077c12cf6a)" style="fill: #cccccc; stroke: #cccccc; stroke-linejoin: miter"/>
   </g>
   <g id="patch_61">
    <path d="M 950.503723 289.718906 
L 962.634158 289.718906 
L 962.634158 255.318306 
L 950.503723 255.318306 
z
" clip-path="url(#p077c12cf6a)" style="fill: #cccccc; stroke: #cccccc; stroke-linejoin: miter"/>
   </g>
   <g id="patch_62">
    <path d="M 965.666766 289.718906 
L 977.797201 289.718906 
L 977.797201 259.206365 
L 965.666766 259.206365 
z
" clip-path="url(#p077c12cf6a)" style="fill: #cccccc; stroke: #cccccc; stroke-linejoin: miter"/>
   </g>
   <g id="patch_63">
    <path d="M 980.82981 289.718906 
L 992.960245 289.718906 
L 992.960245 231.343394 
L 980.82981 231.343394 
z
" clip-path="url(#p077c12cf6a)" style="fill: #cccccc; stroke: #cccccc; stroke-linejoin: miter"/>
   </g>
   <g id="patch_64">
    <path d="M 995.992853 289.718906 
L 1008.123288 289.718906 
L 1008.123288 186.167696 
L 995.992853 186.167696 
z
" clip-path="url(#p077c12cf6a)" style="fill: #9595c0; stroke: #9595c0; stroke-linejoin: miter"/>
   </g>
   <g id="patch_65">
    <path d="M 1011.155897 289.718906 
L 1023.286332 289.718906 
L 1023.286332 283.432753 
L 1011.155897 283.432753 
z
" clip-path="url(#p077c12cf6a)" style="fill: #cccccc; stroke: #cccccc; stroke-linejoin: miter"/>
   </g>
   <g id="patch_66">
    <path d="M 1026.31894 289.718906 
L 1038.449375 289.718906 
L 1038.449375 284.215701 
L 1026.31894 284.215701 
z
" clip-path="url(#p077c12cf6a)" style="fill: #cccccc; stroke: #cccccc; stroke-linejoin: miter"/>
   </g>
   <g id="patch_67">
    <path d="M 1041.481984 289.718906 
L 1053.612418 289.718906 
L 1053.612418 285.690428 
L 1041.481984 285.690428 
z
" clip-path="url(#p077c12cf6a)" style="fill: #aee6ae; stroke: #aee6ae; stroke-linejoin: miter"/>
   </g>
   <g id="patch_68">
    <path d="M 1056.645027 289.718906 
L 1068.775462 289.718906 
L 1068.775462 176.033166 
L 1056.645027 176.033166 
z
" clip-path="url(#p077c12cf6a)" style="fill: #aee6ae; stroke: #aee6ae; stroke-linejoin: miter"/>
   </g>
   <g id="patch_69">
    <path d="M 1071.808071 289.718906 
L 1083.938505 289.718906 
L 1083.938505 283.190673 
L 1071.808071 283.190673 
z
" clip-path="url(#p077c12cf6a)" style="fill: #cccccc; stroke: #cccccc; stroke-linejoin: miter"/>
   </g>
   <g id="patch_70">
    <path d="M 1086.971114 289.718906 
L 1099.101549 289.718906 
L 1099.101549 256.313275 
L 1086.971114 256.313275 
z
" clip-path="url(#p077c12cf6a)" style="fill: #cccccc; stroke: #cccccc; stroke-linejoin: miter"/>
   </g>
   <g id="patch_71">
    <path d="M 1102.134158 289.718906 
L 1114.264592 289.718906 
L 1114.264592 284.846515 
L 1102.134158 284.846515 
z
" clip-path="url(#p077c12cf6a)" style="fill: #ffdfb8; stroke: #ffdfb8; stroke-linejoin: miter"/>
   </g>
   <g id="patch_72">
    <path d="M 1117.297201 289.718906 
L 1129.427636 289.718906 
L 1129.427636 284.362793 
L 1117.297201 284.362793 
z
" clip-path="url(#p077c12cf6a)" style="fill: #cccccc; stroke: #cccccc; stroke-linejoin: miter"/>
   </g>
   <g id="patch_73">
    <path d="M 1132.460245 289.718906 
L 1144.590679 289.718906 
L 1144.590679 258.115144 
L 1132.460245 258.115144 
z
" clip-path="url(#p077c12cf6a)" style="fill: #cccccc; stroke: #cccccc; stroke-linejoin: miter"/>
   </g>
   <g id="patch_74">
    <path d="M 1147.623288 289.718906 
L 1159.753723 289.718906 
L 1159.753723 283.934188 
L 1147.623288 283.934188 
z
" clip-path="url(#p077c12cf6a)" style="fill: #cccccc; stroke: #cccccc; stroke-linejoin: miter"/>
   </g>
   <g id="patch_75">
    <path d="M 1162.786332 289.718906 
L 1174.916766 289.718906 
L 1174.916766 225.23246 
L 1162.786332 225.23246 
z
" clip-path="url(#p077c12cf6a)" style="fill: #ffdfb8; stroke: #ffdfb8; stroke-linejoin: miter"/>
   </g>
   <g id="patch_76">
    <path d="M 1177.949375 289.718906 
L 1190.07981 289.718906 
L 1190.07981 281.699349 
L 1177.949375 281.699349 
z
" clip-path="url(#p077c12cf6a)" style="fill: #cccccc; stroke: #cccccc; stroke-linejoin: miter"/>
   </g>
   <g id="patch_77">
    <path d="M 1193.112418 289.718906 
L 1205.242853 289.718906 
L 1205.242853 281.64605 
L 1193.112418 281.64605 
z
" clip-path="url(#p077c12cf6a)" style="fill: #cccccc; stroke: #cccccc; stroke-linejoin: miter"/>
   </g>
   <g id="patch_78">
    <path d="M 1208.275462 289.718906 
L 1220.405897 289.718906 
L 1220.405897 235.225873 
L 1208.275462 235.225873 
z
" clip-path="url(#p077c12cf6a)" style="fill: #cccccc; stroke: #cccccc; stroke-linejoin: miter"/>
   </g>
   <g id="patch_79">
    <path d="M 1223.438505 289.718906 
L 1235.56894 289.718906 
L 1235.56894 234.488099 
L 1223.438505 234.488099 
z
" clip-path="url(#p077c12cf6a)" style="fill: #ffdfb8; stroke: #ffdfb8; stroke-linejoin: miter"/>
   </g>
   <g id="patch_80">
    <path d="M 1238.601549 289.718906 
L 1250.731984 289.718906 
L 1250.731984 283.999515 
L 1238.601549 283.999515 
z
" clip-path="url(#p077c12cf6a)" style="fill: #cccccc; stroke: #cccccc; stroke-linejoin: miter"/>
   </g>
   <g id="patch_81">
    <path d="M 1253.764592 289.718906 
L 1265.895027 289.718906 
L 1265.895027 283.332572 
L 1253.764592 283.332572 
z
" clip-path="url(#p077c12cf6a)" style="fill: #cccccc; stroke: #cccccc; stroke-linejoin: miter"/>
   </g>
   <g id="patch_82">
    <path d="M 1268.927636 289.718906 
L 1281.058071 289.718906 
L 1281.058071 285.318478 
L 1268.927636 285.318478 
z
" clip-path="url(#p077c12cf6a)" style="fill: #cccccc; stroke: #cccccc; stroke-linejoin: miter"/>
   </g>
   <g id="patch_83">
    <path d="M 1284.090679 289.718906 
L 1296.221114 289.718906 
L 1296.221114 279.038856 
L 1284.090679 279.038856 
z
" clip-path="url(#p077c12cf6a)" style="fill: #ffdfb8; stroke: #ffdfb8; stroke-linejoin: miter"/>
   </g>
   <g id="patch_84">
    <path d="M 1299.253723 289.718906 
L 1311.384158 289.718906 
L 1311.384158 283.395493 
L 1299.253723 283.395493 
z
" clip-path="url(#p077c12cf6a)" style="fill: #cccccc; stroke: #cccccc; stroke-linejoin: miter"/>
   </g>
   <g id="patch_85">
    <path d="M 1314.416766 289.718906 
L 1326.547201 289.718906 
L 1326.547201 284.066688 
L 1314.416766 284.066688 
z
" clip-path="url(#p077c12cf6a)" style="fill: #cccccc; stroke: #cccccc; stroke-linejoin: miter"/>
   </g>
   <g id="patch_86">
    <path d="M 1329.57981 289.718906 
L 1341.710245 289.718906 
L 1341.710245 284.77175 
L 1329.57981 284.77175 
z
" clip-path="url(#p077c12cf6a)" style="fill: #cccccc; stroke: #cccccc; stroke-linejoin: miter"/>
   </g>
   <g id="patch_87">
    <path d="M 1344.742853 289.718906 
L 1356.873288 289.718906 
L 1356.873288 280.651398 
L 1344.742853 280.651398 
z
" clip-path="url(#p077c12cf6a)" style="fill: #cccccc; stroke: #cccccc; stroke-linejoin: miter"/>
   </g>
   <g id="patch_88">
    <path d="M 1359.905897 289.718906 
L 1372.036332 289.718906 
L 1372.036332 284.812739 
L 1359.905897 284.812739 
z
" clip-path="url(#p077c12cf6a)" style="fill: #cccccc; stroke: #cccccc; stroke-linejoin: miter"/>
   </g>
   <g id="patch_89">
    <path d="M 1375.06894 289.718906 
L 1387.199375 289.718906 
L 1387.199375 283.645566 
L 1375.06894 283.645566 
z
" clip-path="url(#p077c12cf6a)" style="fill: #cccccc; stroke: #cccccc; stroke-linejoin: miter"/>
   </g>
   <g id="patch_90">
    <path d="M 1390.231984 289.718906 
L 1402.362418 289.718906 
L 1402.362418 282.572342 
L 1390.231984 282.572342 
z
" clip-path="url(#p077c12cf6a)" style="fill: #cccccc; stroke: #cccccc; stroke-linejoin: miter"/>
   </g>
   <g id="patch_91">
    <path d="M 1405.395027 289.718906 
L 1417.525462 289.718906 
L 1417.525462 284.683026 
L 1405.395027 284.683026 
z
" clip-path="url(#p077c12cf6a)" style="fill: #cccccc; stroke: #cccccc; stroke-linejoin: miter"/>
   </g>
   <g id="patch_92">
    <path d="M 1420.558071 289.718906 
L 1432.688505 289.718906 
L 1432.688505 284.749272 
L 1420.558071 284.749272 
z
" clip-path="url(#p077c12cf6a)" style="fill: #cccccc; stroke: #cccccc; stroke-linejoin: miter"/>
   </g>
   <g id="patch_93">
    <path d="M 1435.721114 289.718906 
L 1447.851549 289.718906 
L 1447.851549 282.160552 
L 1435.721114 282.160552 
z
" clip-path="url(#p077c12cf6a)" style="fill: #cccccc; stroke: #cccccc; stroke-linejoin: miter"/>
   </g>
   <g id="matplotlib.axis_1">
    <g id="xtick_1">
     <g id="line2d_1">
      <defs>
       <path id="m8279b6646d" d="M 0 0 
L 0 3.5 
" style="stroke: #000000; stroke-width: 0.8"/>
      </defs>
      <g>
       <use xlink:href="#m8279b6646d" x="213.57981" y="289.718906" style="stroke: #000000; stroke-width: 0.8"/>
      </g>
     </g>
     <g id="text_1">
      <!-- 100 -->
      <g transform="translate(200.21856 307.356719) scale(0.14 -0.14)">
       <defs>
        <path id="DejaVuSans-31" d="M 794 531 
L 1825 531 
L 1825 4091 
L 703 3866 
L 703 4441 
L 1819 4666 
L 2450 4666 
L 2450 531 
L 3481 531 
L 3481 0 
L 794 0 
L 794 531 
z
" transform="scale(0.015625)"/>
        <path id="DejaVuSans-30" d="M 2034 4250 
Q 1547 4250 1301 3770 
Q 1056 3291 1056 2328 
Q 1056 1369 1301 889 
Q 1547 409 2034 409 
Q 2525 409 2770 889 
Q 3016 1369 3016 2328 
Q 3016 3291 2770 3770 
Q 2525 4250 2034 4250 
z
M 2034 4750 
Q 2819 4750 3233 4129 
Q 3647 3509 3647 2328 
Q 3647 1150 3233 529 
Q 2819 -91 2034 -91 
Q 1250 -91 836 529 
Q 422 1150 422 2328 
Q 422 3509 836 4129 
Q 1250 4750 2034 4750 
z
" transform="scale(0.015625)"/>
       </defs>
       <use xlink:href="#DejaVuSans-31"/>
       <use xlink:href="#DejaVuSans-30" x="63.623047"/>
       <use xlink:href="#DejaVuSans-30" x="127.246094"/>
      </g>
     </g>
    </g>
    <g id="xtick_2">
     <g id="line2d_2">
      <g>
       <use xlink:href="#m8279b6646d" x="365.210245" y="289.718906" style="stroke: #000000; stroke-width: 0.8"/>
      </g>
     </g>
     <g id="text_2">
      <!-- 110 -->
      <g transform="translate(351.848995 307.356719) scale(0.14 -0.14)">
       <use xlink:href="#DejaVuSans-31"/>
       <use xlink:href="#DejaVuSans-31" x="63.623047"/>
       <use xlink:href="#DejaVuSans-30" x="127.246094"/>
      </g>
     </g>
    </g>
    <g id="xtick_3">
     <g id="line2d_3">
      <g>
       <use xlink:href="#m8279b6646d" x="516.840679" y="289.718906" style="stroke: #000000; stroke-width: 0.8"/>
      </g>
     </g>
     <g id="text_3">
      <!-- 120 -->
      <g transform="translate(503.479429 307.356719) scale(0.14 -0.14)">
       <defs>
        <path id="DejaVuSans-32" d="M 1228 531 
L 3431 531 
L 3431 0 
L 469 0 
L 469 531 
Q 828 903 1448 1529 
Q 2069 2156 2228 2338 
Q 2531 2678 2651 2914 
Q 2772 3150 2772 3378 
Q 2772 3750 2511 3984 
Q 2250 4219 1831 4219 
Q 1534 4219 1204 4116 
Q 875 4013 500 3803 
L 500 4441 
Q 881 4594 1212 4672 
Q 1544 4750 1819 4750 
Q 2544 4750 2975 4387 
Q 3406 4025 3406 3419 
Q 3406 3131 3298 2873 
Q 3191 2616 2906 2266 
Q 2828 2175 2409 1742 
Q 1991 1309 1228 531 
z
" transform="scale(0.015625)"/>
       </defs>
       <use xlink:href="#DejaVuSans-31"/>
       <use xlink:href="#DejaVuSans-32" x="63.623047"/>
       <use xlink:href="#DejaVuSans-30" x="127.246094"/>
      </g>
     </g>
    </g>
    <g id="xtick_4">
     <g id="line2d_4">
      <g>
       <use xlink:href="#m8279b6646d" x="668.471114" y="289.718906" style="stroke: #000000; stroke-width: 0.8"/>
      </g>
     </g>
     <g id="text_4">
      <!-- 130 -->
      <g transform="translate(655.109864 307.356719) scale(0.14 -0.14)">
       <defs>
        <path id="DejaVuSans-33" d="M 2597 2516 
Q 3050 2419 3304 2112 
Q 3559 1806 3559 1356 
Q 3559 666 3084 287 
Q 2609 -91 1734 -91 
Q 1441 -91 1130 -33 
Q 819 25 488 141 
L 488 750 
Q 750 597 1062 519 
Q 1375 441 1716 441 
Q 2309 441 2620 675 
Q 2931 909 2931 1356 
Q 2931 1769 2642 2001 
Q 2353 2234 1838 2234 
L 1294 2234 
L 1294 2753 
L 1863 2753 
Q 2328 2753 2575 2939 
Q 2822 3125 2822 3475 
Q 2822 3834 2567 4026 
Q 2313 4219 1838 4219 
Q 1578 4219 1281 4162 
Q 984 4106 628 3988 
L 628 4550 
Q 988 4650 1302 4700 
Q 1616 4750 1894 4750 
Q 2613 4750 3031 4423 
Q 3450 4097 3450 3541 
Q 3450 3153 3228 2886 
Q 3006 2619 2597 2516 
z
" transform="scale(0.015625)"/>
       </defs>
       <use xlink:href="#DejaVuSans-31"/>
       <use xlink:href="#DejaVuSans-33" x="63.623047"/>
       <use xlink:href="#DejaVuSans-30" x="127.246094"/>
      </g>
     </g>
    </g>
    <g id="xtick_5">
     <g id="line2d_5">
      <g>
       <use xlink:href="#m8279b6646d" x="820.101549" y="289.718906" style="stroke: #000000; stroke-width: 0.8"/>
      </g>
     </g>
     <g id="text_5">
      <!-- 140 -->
      <g transform="translate(806.740299 307.356719) scale(0.14 -0.14)">
       <defs>
        <path id="DejaVuSans-34" d="M 2419 4116 
L 825 1625 
L 2419 1625 
L 2419 4116 
z
M 2253 4666 
L 3047 4666 
L 3047 1625 
L 3713 1625 
L 3713 1100 
L 3047 1100 
L 3047 0 
L 2419 0 
L 2419 1100 
L 313 1100 
L 313 1709 
L 2253 4666 
z
" transform="scale(0.015625)"/>
       </defs>
       <use xlink:href="#DejaVuSans-31"/>
       <use xlink:href="#DejaVuSans-34" x="63.623047"/>
       <use xlink:href="#DejaVuSans-30" x="127.246094"/>
      </g>
     </g>
    </g>
    <g id="xtick_6">
     <g id="line2d_6">
      <g>
       <use xlink:href="#m8279b6646d" x="971.731984" y="289.718906" style="stroke: #000000; stroke-width: 0.8"/>
      </g>
     </g>
     <g id="text_6">
      <!-- 150 -->
      <g transform="translate(958.370734 307.356719) scale(0.14 -0.14)">
       <defs>
        <path id="DejaVuSans-35" d="M 691 4666 
L 3169 4666 
L 3169 4134 
L 1269 4134 
L 1269 2991 
Q 1406 3038 1543 3061 
Q 1681 3084 1819 3084 
Q 2600 3084 3056 2656 
Q 3513 2228 3513 1497 
Q 3513 744 3044 326 
Q 2575 -91 1722 -91 
Q 1428 -91 1123 -41 
Q 819 9 494 109 
L 494 744 
Q 775 591 1075 516 
Q 1375 441 1709 441 
Q 2250 441 2565 725 
Q 2881 1009 2881 1497 
Q 2881 1984 2565 2268 
Q 2250 2553 1709 2553 
Q 1456 2553 1204 2497 
Q 953 2441 691 2322 
L 691 4666 
z
" transform="scale(0.015625)"/>
       </defs>
       <use xlink:href="#DejaVuSans-31"/>
       <use xlink:href="#DejaVuSans-35" x="63.623047"/>
       <use xlink:href="#DejaVuSans-30" x="127.246094"/>
      </g>
     </g>
    </g>
    <g id="xtick_7">
     <g id="line2d_7">
      <g>
       <use xlink:href="#m8279b6646d" x="1123.362418" y="289.718906" style="stroke: #000000; stroke-width: 0.8"/>
      </g>
     </g>
     <g id="text_7">
      <!-- 160 -->
      <g transform="translate(1110.001168 307.356719) scale(0.14 -0.14)">
       <defs>
        <path id="DejaVuSans-36" d="M 2113 2584 
Q 1688 2584 1439 2293 
Q 1191 2003 1191 1497 
Q 1191 994 1439 701 
Q 1688 409 2113 409 
Q 2538 409 2786 701 
Q 3034 994 3034 1497 
Q 3034 2003 2786 2293 
Q 2538 2584 2113 2584 
z
M 3366 4563 
L 3366 3988 
Q 3128 4100 2886 4159 
Q 2644 4219 2406 4219 
Q 1781 4219 1451 3797 
Q 1122 3375 1075 2522 
Q 1259 2794 1537 2939 
Q 1816 3084 2150 3084 
Q 2853 3084 3261 2657 
Q 3669 2231 3669 1497 
Q 3669 778 3244 343 
Q 2819 -91 2113 -91 
Q 1303 -91 875 529 
Q 447 1150 447 2328 
Q 447 3434 972 4092 
Q 1497 4750 2381 4750 
Q 2619 4750 2861 4703 
Q 3103 4656 3366 4563 
z
" transform="scale(0.015625)"/>
       </defs>
       <use xlink:href="#DejaVuSans-31"/>
       <use xlink:href="#DejaVuSans-36" x="63.623047"/>
       <use xlink:href="#DejaVuSans-30" x="127.246094"/>
      </g>
     </g>
    </g>
    <g id="xtick_8">
     <g id="line2d_8">
      <g>
       <use xlink:href="#m8279b6646d" x="1274.992853" y="289.718906" style="stroke: #000000; stroke-width: 0.8"/>
      </g>
     </g>
     <g id="text_8">
      <!-- 170 -->
      <g transform="translate(1261.631603 307.356719) scale(0.14 -0.14)">
       <defs>
        <path id="DejaVuSans-37" d="M 525 4666 
L 3525 4666 
L 3525 4397 
L 1831 0 
L 1172 0 
L 2766 4134 
L 525 4134 
L 525 4666 
z
" transform="scale(0.015625)"/>
       </defs>
       <use xlink:href="#DejaVuSans-31"/>
       <use xlink:href="#DejaVuSans-37" x="63.623047"/>
       <use xlink:href="#DejaVuSans-30" x="127.246094"/>
      </g>
     </g>
    </g>
    <g id="xtick_9">
     <g id="line2d_9">
      <g>
       <use xlink:href="#m8279b6646d" x="1426.623288" y="289.718906" style="stroke: #000000; stroke-width: 0.8"/>
      </g>
     </g>
     <g id="text_9">
      <!-- 180 -->
      <g transform="translate(1413.262038 307.356719) scale(0.14 -0.14)">
       <defs>
        <path id="DejaVuSans-38" d="M 2034 2216 
Q 1584 2216 1326 1975 
Q 1069 1734 1069 1313 
Q 1069 891 1326 650 
Q 1584 409 2034 409 
Q 2484 409 2743 651 
Q 3003 894 3003 1313 
Q 3003 1734 2745 1975 
Q 2488 2216 2034 2216 
z
M 1403 2484 
Q 997 2584 770 2862 
Q 544 3141 544 3541 
Q 544 4100 942 4425 
Q 1341 4750 2034 4750 
Q 2731 4750 3128 4425 
Q 3525 4100 3525 3541 
Q 3525 3141 3298 2862 
Q 3072 2584 2669 2484 
Q 3125 2378 3379 2068 
Q 3634 1759 3634 1313 
Q 3634 634 3220 271 
Q 2806 -91 2034 -91 
Q 1263 -91 848 271 
Q 434 634 434 1313 
Q 434 1759 690 2068 
Q 947 2378 1403 2484 
z
M 1172 3481 
Q 1172 3119 1398 2916 
Q 1625 2713 2034 2713 
Q 2441 2713 2670 2916 
Q 2900 3119 2900 3481 
Q 2900 3844 2670 4047 
Q 2441 4250 2034 4250 
Q 1625 4250 1398 4047 
Q 1172 3844 1172 3481 
z
" transform="scale(0.015625)"/>
       </defs>
       <use xlink:href="#DejaVuSans-31"/>
       <use xlink:href="#DejaVuSans-38" x="63.623047"/>
       <use xlink:href="#DejaVuSans-30" x="127.246094"/>
      </g>
     </g>
    </g>
    <g id="text_10">
     <!-- Position in Alpha 2 (G-Domain) -->
     <g transform="translate(636.638125 332.425781) scale(0.16 -0.16)">
      <defs>
       <path id="DejaVuSans-50" d="M 1259 4147 
L 1259 2394 
L 2053 2394 
Q 2494 2394 2734 2622 
Q 2975 2850 2975 3272 
Q 2975 3691 2734 3919 
Q 2494 4147 2053 4147 
L 1259 4147 
z
M 628 4666 
L 2053 4666 
Q 2838 4666 3239 4311 
Q 3641 3956 3641 3272 
Q 3641 2581 3239 2228 
Q 2838 1875 2053 1875 
L 1259 1875 
L 1259 0 
L 628 0 
L 628 4666 
z
" transform="scale(0.015625)"/>
       <path id="DejaVuSans-6f" d="M 1959 3097 
Q 1497 3097 1228 2736 
Q 959 2375 959 1747 
Q 959 1119 1226 758 
Q 1494 397 1959 397 
Q 2419 397 2687 759 
Q 2956 1122 2956 1747 
Q 2956 2369 2687 2733 
Q 2419 3097 1959 3097 
z
M 1959 3584 
Q 2709 3584 3137 3096 
Q 3566 2609 3566 1747 
Q 3566 888 3137 398 
Q 2709 -91 1959 -91 
Q 1206 -91 779 398 
Q 353 888 353 1747 
Q 353 2609 779 3096 
Q 1206 3584 1959 3584 
z
" transform="scale(0.015625)"/>
       <path id="DejaVuSans-73" d="M 2834 3397 
L 2834 2853 
Q 2591 2978 2328 3040 
Q 2066 3103 1784 3103 
Q 1356 3103 1142 2972 
Q 928 2841 928 2578 
Q 928 2378 1081 2264 
Q 1234 2150 1697 2047 
L 1894 2003 
Q 2506 1872 2764 1633 
Q 3022 1394 3022 966 
Q 3022 478 2636 193 
Q 2250 -91 1575 -91 
Q 1294 -91 989 -36 
Q 684 19 347 128 
L 347 722 
Q 666 556 975 473 
Q 1284 391 1588 391 
Q 1994 391 2212 530 
Q 2431 669 2431 922 
Q 2431 1156 2273 1281 
Q 2116 1406 1581 1522 
L 1381 1569 
Q 847 1681 609 1914 
Q 372 2147 372 2553 
Q 372 3047 722 3315 
Q 1072 3584 1716 3584 
Q 2034 3584 2315 3537 
Q 2597 3491 2834 3397 
z
" transform="scale(0.015625)"/>
       <path id="DejaVuSans-69" d="M 603 3500 
L 1178 3500 
L 1178 0 
L 603 0 
L 603 3500 
z
M 603 4863 
L 1178 4863 
L 1178 4134 
L 603 4134 
L 603 4863 
z
" transform="scale(0.015625)"/>
       <path id="DejaVuSans-74" d="M 1172 4494 
L 1172 3500 
L 2356 3500 
L 2356 3053 
L 1172 3053 
L 1172 1153 
Q 1172 725 1289 603 
Q 1406 481 1766 481 
L 2356 481 
L 2356 0 
L 1766 0 
Q 1100 0 847 248 
Q 594 497 594 1153 
L 594 3053 
L 172 3053 
L 172 3500 
L 594 3500 
L 594 4494 
L 1172 4494 
z
" transform="scale(0.015625)"/>
       <path id="DejaVuSans-6e" d="M 3513 2113 
L 3513 0 
L 2938 0 
L 2938 2094 
Q 2938 2591 2744 2837 
Q 2550 3084 2163 3084 
Q 1697 3084 1428 2787 
Q 1159 2491 1159 1978 
L 1159 0 
L 581 0 
L 581 3500 
L 1159 3500 
L 1159 2956 
Q 1366 3272 1645 3428 
Q 1925 3584 2291 3584 
Q 2894 3584 3203 3211 
Q 3513 2838 3513 2113 
z
" transform="scale(0.015625)"/>
       <path id="DejaVuSans-20" transform="scale(0.015625)"/>
       <path id="DejaVuSans-41" d="M 2188 4044 
L 1331 1722 
L 3047 1722 
L 2188 4044 
z
M 1831 4666 
L 2547 4666 
L 4325 0 
L 3669 0 
L 3244 1197 
L 1141 1197 
L 716 0 
L 50 0 
L 1831 4666 
z
" transform="scale(0.015625)"/>
       <path id="DejaVuSans-6c" d="M 603 4863 
L 1178 4863 
L 1178 0 
L 603 0 
L 603 4863 
z
" transform="scale(0.015625)"/>
       <path id="DejaVuSans-70" d="M 1159 525 
L 1159 -1331 
L 581 -1331 
L 581 3500 
L 1159 3500 
L 1159 2969 
Q 1341 3281 1617 3432 
Q 1894 3584 2278 3584 
Q 2916 3584 3314 3078 
Q 3713 2572 3713 1747 
Q 3713 922 3314 415 
Q 2916 -91 2278 -91 
Q 1894 -91 1617 61 
Q 1341 213 1159 525 
z
M 3116 1747 
Q 3116 2381 2855 2742 
Q 2594 3103 2138 3103 
Q 1681 3103 1420 2742 
Q 1159 2381 1159 1747 
Q 1159 1113 1420 752 
Q 1681 391 2138 391 
Q 2594 391 2855 752 
Q 3116 1113 3116 1747 
z
" transform="scale(0.015625)"/>
       <path id="DejaVuSans-68" d="M 3513 2113 
L 3513 0 
L 2938 0 
L 2938 2094 
Q 2938 2591 2744 2837 
Q 2550 3084 2163 3084 
Q 1697 3084 1428 2787 
Q 1159 2491 1159 1978 
L 1159 0 
L 581 0 
L 581 4863 
L 1159 4863 
L 1159 2956 
Q 1366 3272 1645 3428 
Q 1925 3584 2291 3584 
Q 2894 3584 3203 3211 
Q 3513 2838 3513 2113 
z
" transform="scale(0.015625)"/>
       <path id="DejaVuSans-61" d="M 2194 1759 
Q 1497 1759 1228 1600 
Q 959 1441 959 1056 
Q 959 750 1161 570 
Q 1363 391 1709 391 
Q 2188 391 2477 730 
Q 2766 1069 2766 1631 
L 2766 1759 
L 2194 1759 
z
M 3341 1997 
L 3341 0 
L 2766 0 
L 2766 531 
Q 2569 213 2275 61 
Q 1981 -91 1556 -91 
Q 1019 -91 701 211 
Q 384 513 384 1019 
Q 384 1609 779 1909 
Q 1175 2209 1959 2209 
L 2766 2209 
L 2766 2266 
Q 2766 2663 2505 2880 
Q 2244 3097 1772 3097 
Q 1472 3097 1187 3025 
Q 903 2953 641 2809 
L 641 3341 
Q 956 3463 1253 3523 
Q 1550 3584 1831 3584 
Q 2591 3584 2966 3190 
Q 3341 2797 3341 1997 
z
" transform="scale(0.015625)"/>
       <path id="DejaVuSans-28" d="M 1984 4856 
Q 1566 4138 1362 3434 
Q 1159 2731 1159 2009 
Q 1159 1288 1364 580 
Q 1569 -128 1984 -844 
L 1484 -844 
Q 1016 -109 783 600 
Q 550 1309 550 2009 
Q 550 2706 781 3412 
Q 1013 4119 1484 4856 
L 1984 4856 
z
" transform="scale(0.015625)"/>
       <path id="DejaVuSans-47" d="M 3809 666 
L 3809 1919 
L 2778 1919 
L 2778 2438 
L 4434 2438 
L 4434 434 
Q 4069 175 3628 42 
Q 3188 -91 2688 -91 
Q 1594 -91 976 548 
Q 359 1188 359 2328 
Q 359 3472 976 4111 
Q 1594 4750 2688 4750 
Q 3144 4750 3555 4637 
Q 3966 4525 4313 4306 
L 4313 3634 
Q 3963 3931 3569 4081 
Q 3175 4231 2741 4231 
Q 1884 4231 1454 3753 
Q 1025 3275 1025 2328 
Q 1025 1384 1454 906 
Q 1884 428 2741 428 
Q 3075 428 3337 486 
Q 3600 544 3809 666 
z
" transform="scale(0.015625)"/>
       <path id="DejaVuSans-2d" d="M 313 2009 
L 1997 2009 
L 1997 1497 
L 313 1497 
L 313 2009 
z
" transform="scale(0.015625)"/>
       <path id="DejaVuSans-44" d="M 1259 4147 
L 1259 519 
L 2022 519 
Q 2988 519 3436 956 
Q 3884 1394 3884 2338 
Q 3884 3275 3436 3711 
Q 2988 4147 2022 4147 
L 1259 4147 
z
M 628 4666 
L 1925 4666 
Q 3281 4666 3915 4102 
Q 4550 3538 4550 2338 
Q 4550 1131 3912 565 
Q 3275 0 1925 0 
L 628 0 
L 628 4666 
z
" transform="scale(0.015625)"/>
       <path id="DejaVuSans-6d" d="M 3328 2828 
Q 3544 3216 3844 3400 
Q 4144 3584 4550 3584 
Q 5097 3584 5394 3201 
Q 5691 2819 5691 2113 
L 5691 0 
L 5113 0 
L 5113 2094 
Q 5113 2597 4934 2840 
Q 4756 3084 4391 3084 
Q 3944 3084 3684 2787 
Q 3425 2491 3425 1978 
L 3425 0 
L 2847 0 
L 2847 2094 
Q 2847 2600 2669 2842 
Q 2491 3084 2119 3084 
Q 1678 3084 1418 2786 
Q 1159 2488 1159 1978 
L 1159 0 
L 581 0 
L 581 3500 
L 1159 3500 
L 1159 2956 
Q 1356 3278 1631 3431 
Q 1906 3584 2284 3584 
Q 2666 3584 2933 3390 
Q 3200 3197 3328 2828 
z
" transform="scale(0.015625)"/>
       <path id="DejaVuSans-29" d="M 513 4856 
L 1013 4856 
Q 1481 4119 1714 3412 
Q 1947 2706 1947 2009 
Q 1947 1309 1714 600 
Q 1481 -109 1013 -844 
L 513 -844 
Q 928 -128 1133 580 
Q 1338 1288 1338 2009 
Q 1338 2731 1133 3434 
Q 928 4138 513 4856 
z
" transform="scale(0.015625)"/>
      </defs>
      <use xlink:href="#DejaVuSans-50"/>
      <use xlink:href="#DejaVuSans-6f" x="56.677734"/>
      <use xlink:href="#DejaVuSans-73" x="117.859375"/>
      <use xlink:href="#DejaVuSans-69" x="169.958984"/>
      <use xlink:href="#DejaVuSans-74" x="197.742188"/>
      <use xlink:href="#DejaVuSans-69" x="236.951172"/>
      <use xlink:href="#DejaVuSans-6f" x="264.734375"/>
      <use xlink:href="#DejaVuSans-6e" x="325.916016"/>
      <use xlink:href="#DejaVuSans-20" x="389.294922"/>
      <use xlink:href="#DejaVuSans-69" x="421.082031"/>
      <use xlink:href="#DejaVuSans-6e" x="448.865234"/>
      <use xlink:href="#DejaVuSans-20" x="512.244141"/>
      <use xlink:href="#DejaVuSans-41" x="544.03125"/>
      <use xlink:href="#DejaVuSans-6c" x="612.439453"/>
      <use xlink:href="#DejaVuSans-70" x="640.222656"/>
      <use xlink:href="#DejaVuSans-68" x="703.699219"/>
      <use xlink:href="#DejaVuSans-61" x="767.078125"/>
      <use xlink:href="#DejaVuSans-20" x="828.357422"/>
      <use xlink:href="#DejaVuSans-32" x="860.144531"/>
      <use xlink:href="#DejaVuSans-20" x="923.767578"/>
      <use xlink:href="#DejaVuSans-28" x="955.554688"/>
      <use xlink:href="#DejaVuSans-47" x="994.568359"/>
      <use xlink:href="#DejaVuSans-2d" x="1072.058594"/>
      <use xlink:href="#DejaVuSans-44" x="1108.142578"/>
      <use xlink:href="#DejaVuSans-6f" x="1185.144531"/>
      <use xlink:href="#DejaVuSans-6d" x="1246.326172"/>
      <use xlink:href="#DejaVuSans-61" x="1343.738281"/>
      <use xlink:href="#DejaVuSans-69" x="1405.017578"/>
      <use xlink:href="#DejaVuSans-6e" x="1432.800781"/>
      <use xlink:href="#DejaVuSans-29" x="1496.179688"/>
     </g>
    </g>
   </g>
   <g id="matplotlib.axis_2">
    <g id="ytick_1">
     <g id="line2d_10">
      <defs>
       <path id="ma384e34c70" d="M 0 0 
L -3.5 0 
" style="stroke: #000000; stroke-width: 0.8"/>
      </defs>
      <g>
       <use xlink:href="#ma384e34c70" x="61.949375" y="289.718906" style="stroke: #000000; stroke-width: 0.8"/>
      </g>
     </g>
     <g id="text_11">
      <!-- 0 -->
      <g transform="translate(46.041875 295.037813) scale(0.14 -0.14)">
       <use xlink:href="#DejaVuSans-30"/>
      </g>
     </g>
    </g>
    <g id="ytick_2">
     <g id="line2d_11">
      <g>
       <use xlink:href="#ma384e34c70" x="61.949375" y="234.278906" style="stroke: #000000; stroke-width: 0.8"/>
      </g>
     </g>
     <g id="text_12">
      <!-- 0.2 -->
      <g transform="translate(32.685 239.597813) scale(0.14 -0.14)">
       <defs>
        <path id="DejaVuSans-2e" d="M 684 794 
L 1344 794 
L 1344 0 
L 684 0 
L 684 794 
z
" transform="scale(0.015625)"/>
       </defs>
       <use xlink:href="#DejaVuSans-30"/>
       <use xlink:href="#DejaVuSans-2e" x="63.623047"/>
       <use xlink:href="#DejaVuSans-32" x="95.410156"/>
      </g>
     </g>
    </g>
    <g id="ytick_3">
     <g id="line2d_12">
      <g>
       <use xlink:href="#ma384e34c70" x="61.949375" y="178.838906" style="stroke: #000000; stroke-width: 0.8"/>
      </g>
     </g>
     <g id="text_13">
      <!-- 0.4 -->
      <g transform="translate(32.685 184.157813) scale(0.14 -0.14)">
       <use xlink:href="#DejaVuSans-30"/>
       <use xlink:href="#DejaVuSans-2e" x="63.623047"/>
       <use xlink:href="#DejaVuSans-34" x="95.410156"/>
      </g>
     </g>
    </g>
    <g id="ytick_4">
     <g id="line2d_13">
      <g>
       <use xlink:href="#ma384e34c70" x="61.949375" y="123.398906" style="stroke: #000000; stroke-width: 0.8"/>
      </g>
     </g>
     <g id="text_14">
      <!-- 0.6 -->
      <g transform="translate(32.685 128.717813) scale(0.14 -0.14)">
       <use xlink:href="#DejaVuSans-30"/>
       <use xlink:href="#DejaVuSans-2e" x="63.623047"/>
       <use xlink:href="#DejaVuSans-36" x="95.410156"/>
      </g>
     </g>
    </g>
    <g id="ytick_5">
     <g id="line2d_14">
      <g>
       <use xlink:href="#ma384e34c70" x="61.949375" y="67.958906" style="stroke: #000000; stroke-width: 0.8"/>
      </g>
     </g>
     <g id="text_15">
      <!-- 0.8 -->
      <g transform="translate(32.685 73.277812) scale(0.14 -0.14)">
       <use xlink:href="#DejaVuSans-30"/>
       <use xlink:href="#DejaVuSans-2e" x="63.623047"/>
       <use xlink:href="#DejaVuSans-38" x="95.410156"/>
      </g>
     </g>
    </g>
    <g id="ytick_6">
     <g id="line2d_15">
      <g>
       <use xlink:href="#ma384e34c70" x="61.949375" y="12.518906" style="stroke: #000000; stroke-width: 0.8"/>
      </g>
     </g>
     <g id="text_16">
      <!-- 1.0 -->
      <g transform="translate(32.685 17.837812) scale(0.14 -0.14)">
       <use xlink:href="#DejaVuSans-31"/>
       <use xlink:href="#DejaVuSans-2e" x="63.623047"/>
       <use xlink:href="#DejaVuSans-30" x="95.410156"/>
      </g>
     </g>
    </g>
    <g id="text_17">
     <!-- Normalised Shannon entropy -->
     <g transform="translate(19.3575 267.643906) rotate(-90) scale(0.16 -0.16)">
      <defs>
       <path id="DejaVuSans-4e" d="M 628 4666 
L 1478 4666 
L 3547 763 
L 3547 4666 
L 4159 4666 
L 4159 0 
L 3309 0 
L 1241 3903 
L 1241 0 
L 628 0 
L 628 4666 
z
" transform="scale(0.015625)"/>
       <path id="DejaVuSans-72" d="M 2631 2963 
Q 2534 3019 2420 3045 
Q 2306 3072 2169 3072 
Q 1681 3072 1420 2755 
Q 1159 2438 1159 1844 
L 1159 0 
L 581 0 
L 581 3500 
L 1159 3500 
L 1159 2956 
Q 1341 3275 1631 3429 
Q 1922 3584 2338 3584 
Q 2397 3584 2469 3576 
Q 2541 3569 2628 3553 
L 2631 2963 
z
" transform="scale(0.015625)"/>
       <path id="DejaVuSans-65" d="M 3597 1894 
L 3597 1613 
L 953 1613 
Q 991 1019 1311 708 
Q 1631 397 2203 397 
Q 2534 397 2845 478 
Q 3156 559 3463 722 
L 3463 178 
Q 3153 47 2828 -22 
Q 2503 -91 2169 -91 
Q 1331 -91 842 396 
Q 353 884 353 1716 
Q 353 2575 817 3079 
Q 1281 3584 2069 3584 
Q 2775 3584 3186 3129 
Q 3597 2675 3597 1894 
z
M 3022 2063 
Q 3016 2534 2758 2815 
Q 2500 3097 2075 3097 
Q 1594 3097 1305 2825 
Q 1016 2553 972 2059 
L 3022 2063 
z
" transform="scale(0.015625)"/>
       <path id="DejaVuSans-64" d="M 2906 2969 
L 2906 4863 
L 3481 4863 
L 3481 0 
L 2906 0 
L 2906 525 
Q 2725 213 2448 61 
Q 2172 -91 1784 -91 
Q 1150 -91 751 415 
Q 353 922 353 1747 
Q 353 2572 751 3078 
Q 1150 3584 1784 3584 
Q 2172 3584 2448 3432 
Q 2725 3281 2906 2969 
z
M 947 1747 
Q 947 1113 1208 752 
Q 1469 391 1925 391 
Q 2381 391 2643 752 
Q 2906 1113 2906 1747 
Q 2906 2381 2643 2742 
Q 2381 3103 1925 3103 
Q 1469 3103 1208 2742 
Q 947 2381 947 1747 
z
" transform="scale(0.015625)"/>
       <path id="DejaVuSans-53" d="M 3425 4513 
L 3425 3897 
Q 3066 4069 2747 4153 
Q 2428 4238 2131 4238 
Q 1616 4238 1336 4038 
Q 1056 3838 1056 3469 
Q 1056 3159 1242 3001 
Q 1428 2844 1947 2747 
L 2328 2669 
Q 3034 2534 3370 2195 
Q 3706 1856 3706 1288 
Q 3706 609 3251 259 
Q 2797 -91 1919 -91 
Q 1588 -91 1214 -16 
Q 841 59 441 206 
L 441 856 
Q 825 641 1194 531 
Q 1563 422 1919 422 
Q 2459 422 2753 634 
Q 3047 847 3047 1241 
Q 3047 1584 2836 1778 
Q 2625 1972 2144 2069 
L 1759 2144 
Q 1053 2284 737 2584 
Q 422 2884 422 3419 
Q 422 4038 858 4394 
Q 1294 4750 2059 4750 
Q 2388 4750 2728 4690 
Q 3069 4631 3425 4513 
z
" transform="scale(0.015625)"/>
       <path id="DejaVuSans-79" d="M 2059 -325 
Q 1816 -950 1584 -1140 
Q 1353 -1331 966 -1331 
L 506 -1331 
L 506 -850 
L 844 -850 
Q 1081 -850 1212 -737 
Q 1344 -625 1503 -206 
L 1606 56 
L 191 3500 
L 800 3500 
L 1894 763 
L 2988 3500 
L 3597 3500 
L 2059 -325 
z
" transform="scale(0.015625)"/>
      </defs>
      <use xlink:href="#DejaVuSans-4e"/>
      <use xlink:href="#DejaVuSans-6f" x="74.804688"/>
      <use xlink:href="#DejaVuSans-72" x="135.986328"/>
      <use xlink:href="#DejaVuSans-6d" x="175.349609"/>
      <use xlink:href="#DejaVuSans-61" x="272.761719"/>
      <use xlink:href="#DejaVuSans-6c" x="334.041016"/>
      <use xlink:href="#DejaVuSans-69" x="361.824219"/>
      <use xlink:href="#DejaVuSans-73" x="389.607422"/>
      <use xlink:href="#DejaVuSans-65" x="441.707031"/>
      <use xlink:href="#DejaVuSans-64" x="503.230469"/>
      <use xlink:href="#DejaVuSans-20" x="566.707031"/>
      <use xlink:href="#DejaVuSans-53" x="598.494141"/>
      <use xlink:href="#DejaVuSans-68" x="661.970703"/>
      <use xlink:href="#DejaVuSans-61" x="725.349609"/>
      <use xlink:href="#DejaVuSans-6e" x="786.628906"/>
      <use xlink:href="#DejaVuSans-6e" x="850.007812"/>
      <use xlink:href="#DejaVuSans-6f" x="913.386719"/>
      <use xlink:href="#DejaVuSans-6e" x="974.568359"/>
      <use xlink:href="#DejaVuSans-20" x="1037.947266"/>
      <use xlink:href="#DejaVuSans-65" x="1069.734375"/>
      <use xlink:href="#DejaVuSans-6e" x="1131.257812"/>
      <use xlink:href="#DejaVuSans-74" x="1194.636719"/>
      <use xlink:href="#DejaVuSans-72" x="1233.845703"/>
      <use xlink:href="#DejaVuSans-6f" x="1272.708984"/>
      <use xlink:href="#DejaVuSans-70" x="1333.890625"/>
      <use xlink:href="#DejaVuSans-79" x="1397.367188"/>
     </g>
    </g>
   </g>
   <g id="patch_94">
    <path d="M 61.949375 289.718906 
L 61.949375 12.518906 
" style="fill: none; stroke: #000000; stroke-width: 0.8; stroke-linejoin: miter; stroke-linecap: square"/>
   </g>
   <g id="patch_95">
    <path d="M 1456.949375 289.718906 
L 1456.949375 12.518906 
" style="fill: none; stroke: #000000; stroke-width: 0.8; stroke-linejoin: miter; stroke-linecap: square"/>
   </g>
   <g id="patch_96">
    <path d="M 61.949375 289.718906 
L 1456.949375 289.718906 
" style="fill: none; stroke: #000000; stroke-width: 0.8; stroke-linejoin: miter; stroke-linecap: square"/>
   </g>
   <g id="patch_97">
    <path d="M 61.949375 12.518906 
L 1456.949375 12.518906 
" style="fill: none; stroke: #000000; stroke-width: 0.8; stroke-linejoin: miter; stroke-linecap: square"/>
   </g>
   <g id="text_18">
    <!--  95 -->
    <g transform="translate(141.627717 200.666845) rotate(-90) scale(0.14 -0.14)">
     <defs>
      <path id="DejaVuSans-39" d="M 703 97 
L 703 672 
Q 941 559 1184 500 
Q 1428 441 1663 441 
Q 2288 441 2617 861 
Q 2947 1281 2994 2138 
Q 2813 1869 2534 1725 
Q 2256 1581 1919 1581 
Q 1219 1581 811 2004 
Q 403 2428 403 3163 
Q 403 3881 828 4315 
Q 1253 4750 1959 4750 
Q 2769 4750 3195 4129 
Q 3622 3509 3622 2328 
Q 3622 1225 3098 567 
Q 2575 -91 1691 -91 
Q 1453 -91 1209 -44 
Q 966 3 703 97 
z
M 1959 2075 
Q 2384 2075 2632 2365 
Q 2881 2656 2881 3163 
Q 2881 3666 2632 3958 
Q 2384 4250 1959 4250 
Q 1534 4250 1286 3958 
Q 1038 3666 1038 3163 
Q 1038 2656 1286 2365 
Q 1534 2075 1959 2075 
z
" transform="scale(0.015625)"/>
     </defs>
     <use xlink:href="#DejaVuSans-20"/>
     <use xlink:href="#DejaVuSans-39" x="31.787109"/>
     <use xlink:href="#DejaVuSans-35" x="95.410156"/>
    </g>
   </g>
   <g id="text_19">
    <!--  97 -->
    <g transform="translate(171.953804 184.122836) rotate(-90) scale(0.14 -0.14)">
     <use xlink:href="#DejaVuSans-20"/>
     <use xlink:href="#DejaVuSans-39" x="31.787109"/>
     <use xlink:href="#DejaVuSans-37" x="95.410156"/>
    </g>
   </g>
   <g id="text_20">
    <!--  99 -->
    <g transform="translate(202.279891 239.755711) rotate(-90) scale(0.14 -0.14)">
     <use xlink:href="#DejaVuSans-20"/>
     <use xlink:href="#DejaVuSans-39" x="31.787109"/>
     <use xlink:href="#DejaVuSans-39" x="95.410156"/>
    </g>
   </g>
   <g id="text_21">
    <!--  105 -->
    <g transform="translate(293.258152 228.788899) rotate(-90) scale(0.14 -0.14)">
     <use xlink:href="#DejaVuSans-20"/>
     <use xlink:href="#DejaVuSans-31" x="31.787109"/>
     <use xlink:href="#DejaVuSans-30" x="95.410156"/>
     <use xlink:href="#DejaVuSans-35" x="159.033203"/>
    </g>
   </g>
   <g id="text_22">
    <!--  107 -->
    <g transform="translate(323.584239 236.466491) rotate(-90) scale(0.14 -0.14)">
     <use xlink:href="#DejaVuSans-20"/>
     <use xlink:href="#DejaVuSans-31" x="31.787109"/>
     <use xlink:href="#DejaVuSans-30" x="95.410156"/>
     <use xlink:href="#DejaVuSans-37" x="159.033203"/>
    </g>
   </g>
   <g id="text_23">
    <!--  114 -->
    <g transform="translate(429.725543 172.654884) rotate(-90) scale(0.14 -0.14)">
     <use xlink:href="#DejaVuSans-20"/>
     <use xlink:href="#DejaVuSans-31" x="31.787109"/>
     <use xlink:href="#DejaVuSans-31" x="95.410156"/>
     <use xlink:href="#DejaVuSans-34" x="159.033203"/>
    </g>
   </g>
   <g id="text_24">
    <!--  116 -->
    <g transform="translate(460.05163 206.317441) rotate(-90) scale(0.14 -0.14)">
     <use xlink:href="#DejaVuSans-20"/>
     <use xlink:href="#DejaVuSans-31" x="31.787109"/>
     <use xlink:href="#DejaVuSans-31" x="95.410156"/>
     <use xlink:href="#DejaVuSans-36" x="159.033203"/>
    </g>
   </g>
   <g id="text_25">
    <!--  127 -->
    <g transform="translate(626.845109 222.904056) rotate(-90) scale(0.14 -0.14)">
     <use xlink:href="#DejaVuSans-20"/>
     <use xlink:href="#DejaVuSans-31" x="31.787109"/>
     <use xlink:href="#DejaVuSans-32" x="95.410156"/>
     <use xlink:href="#DejaVuSans-37" x="159.033203"/>
    </g>
   </g>
   <g id="text_26">
    <!--  142 -->
    <g transform="translate(854.290761 230.757815) rotate(-90) scale(0.14 -0.14)">
     <use xlink:href="#DejaVuSans-20"/>
     <use xlink:href="#DejaVuSans-31" x="31.787109"/>
     <use xlink:href="#DejaVuSans-34" x="95.410156"/>
     <use xlink:href="#DejaVuSans-32" x="159.033203"/>
    </g>
   </g>
   <g id="text_27">
    <!--  144 -->
    <g transform="translate(884.616848 226.692479) rotate(-90) scale(0.14 -0.14)">
     <use xlink:href="#DejaVuSans-20"/>
     <use xlink:href="#DejaVuSans-31" x="31.787109"/>
     <use xlink:href="#DejaVuSans-34" x="95.410156"/>
     <use xlink:href="#DejaVuSans-34" x="159.033203"/>
    </g>
   </g>
   <g id="text_28">
    <!--  145 -->
    <g transform="translate(899.779891 227.080788) rotate(-90) scale(0.14 -0.14)">
     <use xlink:href="#DejaVuSans-20"/>
     <use xlink:href="#DejaVuSans-31" x="31.787109"/>
     <use xlink:href="#DejaVuSans-34" x="95.410156"/>
     <use xlink:href="#DejaVuSans-35" x="159.033203"/>
    </g>
   </g>
   <g id="text_29">
    <!--  151 -->
    <g transform="translate(990.758152 231.343394) rotate(-90) scale(0.14 -0.14)">
     <use xlink:href="#DejaVuSans-20"/>
     <use xlink:href="#DejaVuSans-31" x="31.787109"/>
     <use xlink:href="#DejaVuSans-35" x="95.410156"/>
     <use xlink:href="#DejaVuSans-31" x="159.033203"/>
    </g>
   </g>
   <g id="text_30">
    <!--  152 -->
    <g transform="translate(1005.921196 186.167696) rotate(-90) scale(0.14 -0.14)">
     <use xlink:href="#DejaVuSans-20"/>
     <use xlink:href="#DejaVuSans-31" x="31.787109"/>
     <use xlink:href="#DejaVuSans-35" x="95.410156"/>
     <use xlink:href="#DejaVuSans-32" x="159.033203"/>
    </g>
   </g>
   <g id="text_31">
    <!--  156 -->
    <g transform="translate(1066.57337 176.033166) rotate(-90) scale(0.14 -0.14)">
     <use xlink:href="#DejaVuSans-20"/>
     <use xlink:href="#DejaVuSans-31" x="31.787109"/>
     <use xlink:href="#DejaVuSans-35" x="95.410156"/>
     <use xlink:href="#DejaVuSans-36" x="159.033203"/>
    </g>
   </g>
   <g id="text_32">
    <!--  163 -->
    <g transform="translate(1172.714674 225.23246) rotate(-90) scale(0.14 -0.14)">
     <use xlink:href="#DejaVuSans-20"/>
     <use xlink:href="#DejaVuSans-31" x="31.787109"/>
     <use xlink:href="#DejaVuSans-36" x="95.410156"/>
     <use xlink:href="#DejaVuSans-33" x="159.033203"/>
    </g>
   </g>
   <g id="text_33">
    <!--  166 -->
    <g transform="translate(1218.203804 235.225873) rotate(-90) scale(0.14 -0.14)">
     <use xlink:href="#DejaVuSans-20"/>
     <use xlink:href="#DejaVuSans-31" x="31.787109"/>
     <use xlink:href="#DejaVuSans-36" x="95.410156"/>
     <use xlink:href="#DejaVuSans-36" x="159.033203"/>
    </g>
   </g>
   <g id="text_34">
    <!--  167 -->
    <g transform="translate(1233.366848 234.488099) rotate(-90) scale(0.14 -0.14)">
     <use xlink:href="#DejaVuSans-20"/>
     <use xlink:href="#DejaVuSans-31" x="31.787109"/>
     <use xlink:href="#DejaVuSans-36" x="95.410156"/>
     <use xlink:href="#DejaVuSans-37" x="159.033203"/>
    </g>
   </g>
  </g>
 </g>
 <defs>
  <clipPath id="p077c12cf6a">
   <rect x="61.949375" y="12.518906" width="1395" height="277.2"/>
  </clipPath>
 </defs>
</svg>
