<?xml version="1.0" encoding="utf-8" standalone="no"?>
<!DOCTYPE svg PUBLIC "-//W3C//DTD SVG 1.1//EN"
  "http://www.w3.org/Graphics/SVG/1.1/DTD/svg11.dtd">
<svg xmlns:xlink="http://www.w3.org/1999/xlink" width="1030.2774pt" height="679.68pt" viewBox="0 0 1030.2774 679.68" xmlns="http://www.w3.org/2000/svg" version="1.1">
 <metadata>
  <rdf:RDF xmlns:dc="http://purl.org/dc/elements/1.1/" xmlns:cc="http://creativecommons.org/ns#" xmlns:rdf="http://www.w3.org/1999/02/22-rdf-syntax-ns#">
   <cc:Work>
    <dc:type rdf:resource="http://purl.org/dc/dcmitype/StillImage"/>
    <dc:date>2023-10-13T09:55:46.208772</dc:date>
    <dc:format>image/svg+xml</dc:format>
    <dc:creator>
     <cc:Agent>
      <dc:title>Matplotlib v3.7.3, https://matplotlib.org/</dc:title>
     </cc:Agent>
    </dc:creator>
   </cc:Work>
  </rdf:RDF>
 </metadata>
 <defs>
  <style type="text/css">*{stroke-linejoin: round; stroke-linecap: butt}</style>
 </defs>
 <g id="figure_1">
  <g id="patch_1">
   <path d="M 0 679.68 
L 1030.2774 679.68 
L 1030.2774 0 
L 0 0 
z
" style="fill: #ffffff"/>
  </g>
  <g id="axes_1">
   <g id="patch_2">
    <path d="M 864.265245 586.185553 
L 792.505974 586.185553 
L 714.151533 517.122107 
" style="fill: none; stroke: #000000; stroke-width: 3; stroke-linecap: round"/>
   </g>
   <g id="text_1">
    <g id="patch_3">
     <path d="M 866.27115 606.702741 
L 1029.0774 606.702741 
L 1029.0774 565.668366 
L 866.27115 565.668366 
z
" style="fill: #ffffff"/>
    </g>
    <!-- H [78.2%] -->
    <g transform="translate(872.27115 594.463678) scale(0.3 -0.3)">
     <defs>
      <path id="DejaVuSans-48" d="M 628 4666 
L 1259 4666 
L 1259 2753 
L 3553 2753 
L 3553 4666 
L 4184 4666 
L 4184 0 
L 3553 0 
L 3553 2222 
L 1259 2222 
L 1259 0 
L 628 0 
L 628 4666 
z
" transform="scale(0.015625)"/>
      <path id="DejaVuSans-20" transform="scale(0.015625)"/>
      <path id="DejaVuSans-5b" d="M 550 4863 
L 1875 4863 
L 1875 4416 
L 1125 4416 
L 1125 -397 
L 1875 -397 
L 1875 -844 
L 550 -844 
L 550 4863 
z
" transform="scale(0.015625)"/>
      <path id="DejaVuSans-37" d="M 525 4666 
L 3525 4666 
L 3525 4397 
L 1831 0 
L 1172 0 
L 2766 4134 
L 525 4134 
L 525 4666 
z
" transform="scale(0.015625)"/>
      <path id="DejaVuSans-38" d="M 2034 2216 
Q 1584 2216 1326 1975 
Q 1069 1734 1069 1313 
Q 1069 891 1326 650 
Q 1584 409 2034 409 
Q 2484 409 2743 651 
Q 3003 894 3003 1313 
Q 3003 1734 2745 1975 
Q 2488 2216 2034 2216 
z
M 1403 2484 
Q 997 2584 770 2862 
Q 544 3141 544 3541 
Q 544 4100 942 4425 
Q 1341 4750 2034 4750 
Q 2731 4750 3128 4425 
Q 3525 4100 3525 3541 
Q 3525 3141 3298 2862 
Q 3072 2584 2669 2484 
Q 3125 2378 3379 2068 
Q 3634 1759 3634 1313 
Q 3634 634 3220 271 
Q 2806 -91 2034 -91 
Q 1263 -91 848 271 
Q 434 634 434 1313 
Q 434 1759 690 2068 
Q 947 2378 1403 2484 
z
M 1172 3481 
Q 1172 3119 1398 2916 
Q 1625 2713 2034 2713 
Q 2441 2713 2670 2916 
Q 2900 3119 2900 3481 
Q 2900 3844 2670 4047 
Q 2441 4250 2034 4250 
Q 1625 4250 1398 4047 
Q 1172 3844 1172 3481 
z
" transform="scale(0.015625)"/>
      <path id="DejaVuSans-2e" d="M 684 794 
L 1344 794 
L 1344 0 
L 684 0 
L 684 794 
z
" transform="scale(0.015625)"/>
      <path id="DejaVuSans-32" d="M 1228 531 
L 3431 531 
L 3431 0 
L 469 0 
L 469 531 
Q 828 903 1448 1529 
Q 2069 2156 2228 2338 
Q 2531 2678 2651 2914 
Q 2772 3150 2772 3378 
Q 2772 3750 2511 3984 
Q 2250 4219 1831 4219 
Q 1534 4219 1204 4116 
Q 875 4013 500 3803 
L 500 4441 
Q 881 4594 1212 4672 
Q 1544 4750 1819 4750 
Q 2544 4750 2975 4387 
Q 3406 4025 3406 3419 
Q 3406 3131 3298 2873 
Q 3191 2616 2906 2266 
Q 2828 2175 2409 1742 
Q 1991 1309 1228 531 
z
" transform="scale(0.015625)"/>
      <path id="DejaVuSans-25" d="M 4653 2053 
Q 4381 2053 4226 1822 
Q 4072 1591 4072 1178 
Q 4072 772 4226 539 
Q 4381 306 4653 306 
Q 4919 306 5073 539 
Q 5228 772 5228 1178 
Q 5228 1588 5073 1820 
Q 4919 2053 4653 2053 
z
M 4653 2450 
Q 5147 2450 5437 2106 
Q 5728 1763 5728 1178 
Q 5728 594 5436 251 
Q 5144 -91 4653 -91 
Q 4153 -91 3862 251 
Q 3572 594 3572 1178 
Q 3572 1766 3864 2108 
Q 4156 2450 4653 2450 
z
M 1428 4353 
Q 1159 4353 1004 4120 
Q 850 3888 850 3481 
Q 850 3069 1003 2837 
Q 1156 2606 1428 2606 
Q 1700 2606 1854 2837 
Q 2009 3069 2009 3481 
Q 2009 3884 1853 4118 
Q 1697 4353 1428 4353 
z
M 4250 4750 
L 4750 4750 
L 1831 -91 
L 1331 -91 
L 4250 4750 
z
M 1428 4750 
Q 1922 4750 2215 4408 
Q 2509 4066 2509 3481 
Q 2509 2891 2217 2550 
Q 1925 2209 1428 2209 
Q 931 2209 642 2551 
Q 353 2894 353 3481 
Q 353 4063 643 4406 
Q 934 4750 1428 4750 
z
" transform="scale(0.015625)"/>
      <path id="DejaVuSans-5d" d="M 1947 4863 
L 1947 -844 
L 622 -844 
L 622 -397 
L 1369 -397 
L 1369 4416 
L 622 4416 
L 622 4863 
L 1947 4863 
z
" transform="scale(0.015625)"/>
     </defs>
     <use xlink:href="#DejaVuSans-48"/>
     <use xlink:href="#DejaVuSans-20" x="75.195312"/>
     <use xlink:href="#DejaVuSans-5b" x="106.982422"/>
     <use xlink:href="#DejaVuSans-37" x="145.996094"/>
     <use xlink:href="#DejaVuSans-38" x="209.619141"/>
     <use xlink:href="#DejaVuSans-2e" x="273.242188"/>
     <use xlink:href="#DejaVuSans-32" x="305.029297"/>
     <use xlink:href="#DejaVuSans-25" x="368.652344"/>
     <use xlink:href="#DejaVuSans-5d" x="463.671875"/>
    </g>
   </g>
   <g id="patch_4">
    <path d="M 161.773011 93.494473 
L 233.533903 93.494473 
L 311.88835 162.557912 
" style="fill: none; stroke: #000000; stroke-width: 3; stroke-linecap: round"/>
   </g>
   <g id="text_2">
    <g id="patch_5">
     <path d="M 1.2 114.01166 
L 159.76875 114.01166 
L 159.76875 72.977285 
L 1.2 72.977285 
z
" style="fill: #ffffff"/>
    </g>
    <!-- Y [21.4%] -->
    <g transform="translate(7.2 101.772598) scale(0.3 -0.3)">
     <defs>
      <path id="DejaVuSans-59" d="M -13 4666 
L 666 4666 
L 1959 2747 
L 3244 4666 
L 3922 4666 
L 2272 2222 
L 2272 0 
L 1638 0 
L 1638 2222 
L -13 4666 
z
" transform="scale(0.015625)"/>
      <path id="DejaVuSans-31" d="M 794 531 
L 1825 531 
L 1825 4091 
L 703 3866 
L 703 4441 
L 1819 4666 
L 2450 4666 
L 2450 531 
L 3481 531 
L 3481 0 
L 794 0 
L 794 531 
z
" transform="scale(0.015625)"/>
      <path id="DejaVuSans-34" d="M 2419 4116 
L 825 1625 
L 2419 1625 
L 2419 4116 
z
M 2253 4666 
L 3047 4666 
L 3047 1625 
L 3713 1625 
L 3713 1100 
L 3047 1100 
L 3047 0 
L 2419 0 
L 2419 1100 
L 313 1100 
L 313 1709 
L 2253 4666 
z
" transform="scale(0.015625)"/>
     </defs>
     <use xlink:href="#DejaVuSans-59"/>
     <use xlink:href="#DejaVuSans-20" x="61.083984"/>
     <use xlink:href="#DejaVuSans-5b" x="92.871094"/>
     <use xlink:href="#DejaVuSans-32" x="131.884766"/>
     <use xlink:href="#DejaVuSans-31" x="195.507812"/>
     <use xlink:href="#DejaVuSans-2e" x="259.130859"/>
     <use xlink:href="#DejaVuSans-34" x="290.917969"/>
     <use xlink:href="#DejaVuSans-25" x="354.541016"/>
     <use xlink:href="#DejaVuSans-5d" x="449.560547"/>
    </g>
   </g>
   <g id="patch_6">
    <path d="M 247.222804 326.898845 
C 245.889505 354.283346 248.796226 381.710144 255.839913 408.206842 
C 262.8836 434.703541 273.980013 459.953252 288.735736 483.060766 
C 303.491459 506.168279 321.730022 526.857241 342.804788 544.394138 
C 363.879555 561.931034 387.538482 576.106135 412.942759 586.416869 
C 438.347036 596.727604 465.192841 603.050662 492.528374 605.161865 
C 519.863907 607.273067 547.36225 605.147164 574.048467 598.859529 
C 600.734684 592.571894 626.289623 582.197724 649.80725 568.104826 
C 673.324877 554.011929 694.523935 536.368849 712.652824 515.80111 
C 730.781714 495.23337 745.623623 471.98695 756.652343 446.886036 
C 767.681062 421.785122 774.764694 395.129907 777.652094 367.865435 
C 780.539493 340.600962 779.196128 313.0533 773.669627 286.199133 
C 768.143125 259.344965 758.499581 233.505453 745.0809 209.59672 
C 731.662219 185.687986 714.628881 163.995967 694.584792 145.289737 
C 674.540702 126.583507 651.725578 111.086784 626.948314 99.348993 
C 602.171051 87.611202 575.72797 79.772721 548.556593 76.111459 
C 521.385217 72.450196 493.8105 73.009938 466.810086 77.770839 
L 480.673045 156.391587 
C 499.573335 153.058956 518.875637 152.667137 537.8956 155.230021 
C 556.915564 157.792905 575.42572 163.279842 592.769805 171.496295 
C 610.11389 179.712749 626.084477 190.560455 640.115339 203.654816 
C 654.146202 216.749177 666.069538 231.93359 675.462615 248.669704 
C 684.855692 265.405817 691.606172 283.493475 695.474724 302.291393 
C 699.343275 321.08931 700.28363 340.372674 698.262451 359.457804 
C 696.241271 378.542935 691.282729 397.201585 683.562625 414.772225 
C 675.842521 432.342865 665.453184 448.615359 652.762962 463.012777 
C 640.072739 477.410194 625.233399 489.760351 608.77106 499.625379 
C 592.308721 509.490407 574.420264 516.752326 555.739912 521.153671 
C 537.05956 525.555015 517.81072 527.043147 498.675847 525.565305 
C 479.540974 524.087464 460.74891 519.661323 442.965917 512.443808 
C 425.182923 505.226294 408.621673 495.303724 393.869337 483.027896 
C 379.117 470.752069 366.350006 456.269795 356.021 440.094536 
C 345.691994 423.919277 337.924505 406.244478 332.993924 387.69679 
C 328.063343 369.149101 326.028638 349.950342 326.961947 330.781192 
z
" style="fill: #1f77b4"/>
   </g>
   <g id="patch_7">
    <path d="M 466.810037 77.770848 
C 407.397817 88.246837 353.278206 118.621262 313.387059 163.878909 
C 273.495912 209.136556 250.15662 266.641473 247.222804 326.898845 
L 326.961947 330.781192 
C 329.015619 288.601031 345.353124 248.347589 373.276927 216.667236 
C 401.200729 184.986883 439.084457 163.724786 480.673011 156.391594 
z
" style="fill: #ff7f0e"/>
   </g>
   <g id="matplotlib.axis_1"/>
   <g id="matplotlib.axis_2"/>
  </g>
 </g>
</svg>
