<?xml version="1.0" encoding="utf-8" standalone="no"?>
<!DOCTYPE svg PUBLIC "-//W3C//DTD SVG 1.1//EN"
  "http://www.w3.org/Graphics/SVG/1.1/DTD/svg11.dtd">
<svg xmlns:xlink="http://www.w3.org/1999/xlink" width="1016.68365pt" height="733.589034pt" viewBox="0 0 1016.68365 733.589034" xmlns="http://www.w3.org/2000/svg" version="1.1">
 <metadata>
  <rdf:RDF xmlns:dc="http://purl.org/dc/elements/1.1/" xmlns:cc="http://creativecommons.org/ns#" xmlns:rdf="http://www.w3.org/1999/02/22-rdf-syntax-ns#">
   <cc:Work>
    <dc:type rdf:resource="http://purl.org/dc/dcmitype/StillImage"/>
    <dc:date>2023-10-13T09:56:01.596700</dc:date>
    <dc:format>image/svg+xml</dc:format>
    <dc:creator>
     <cc:Agent>
      <dc:title>Matplotlib v3.7.3, https://matplotlib.org/</dc:title>
     </cc:Agent>
    </dc:creator>
   </cc:Work>
  </rdf:RDF>
 </metadata>
 <defs>
  <style type="text/css">*{stroke-linejoin: round; stroke-linecap: butt}</style>
 </defs>
 <g id="figure_1">
  <g id="patch_1">
   <path d="M 0 733.589034 
L 1016.68365 733.589034 
L 1016.68365 0 
L 0 0 
z
" style="fill: #ffffff"/>
  </g>
  <g id="axes_1">
   <g id="patch_2">
    <path d="M 843.578876 711.871846 
L 632.753304 711.871846 
L 593.383859 615.128759 
" style="fill: none; stroke: #000000; stroke-width: 3; stroke-linecap: round"/>
   </g>
   <g id="text_1">
    <g id="patch_3">
     <path d="M 845.575838 732.389034 
L 1015.48365 732.389034 
L 1015.48365 691.354659 
L 845.575838 691.354659 
z
" style="fill: #ffffff"/>
    </g>
    <!-- W [92.6%] -->
    <g transform="translate(851.575838 720.149971) scale(0.3 -0.3)">
     <defs>
      <path id="DejaVuSans-57" d="M 213 4666 
L 850 4666 
L 1831 722 
L 2809 4666 
L 3519 4666 
L 4500 722 
L 5478 4666 
L 6119 4666 
L 4947 0 
L 4153 0 
L 3169 4050 
L 2175 0 
L 1381 0 
L 213 4666 
z
" transform="scale(0.015625)"/>
      <path id="DejaVuSans-20" transform="scale(0.015625)"/>
      <path id="DejaVuSans-5b" d="M 550 4863 
L 1875 4863 
L 1875 4416 
L 1125 4416 
L 1125 -397 
L 1875 -397 
L 1875 -844 
L 550 -844 
L 550 4863 
z
" transform="scale(0.015625)"/>
      <path id="DejaVuSans-39" d="M 703 97 
L 703 672 
Q 941 559 1184 500 
Q 1428 441 1663 441 
Q 2288 441 2617 861 
Q 2947 1281 2994 2138 
Q 2813 1869 2534 1725 
Q 2256 1581 1919 1581 
Q 1219 1581 811 2004 
Q 403 2428 403 3163 
Q 403 3881 828 4315 
Q 1253 4750 1959 4750 
Q 2769 4750 3195 4129 
Q 3622 3509 3622 2328 
Q 3622 1225 3098 567 
Q 2575 -91 1691 -91 
Q 1453 -91 1209 -44 
Q 966 3 703 97 
z
M 1959 2075 
Q 2384 2075 2632 2365 
Q 2881 2656 2881 3163 
Q 2881 3666 2632 3958 
Q 2384 4250 1959 4250 
Q 1534 4250 1286 3958 
Q 1038 3666 1038 3163 
Q 1038 2656 1286 2365 
Q 1534 2075 1959 2075 
z
" transform="scale(0.015625)"/>
      <path id="DejaVuSans-32" d="M 1228 531 
L 3431 531 
L 3431 0 
L 469 0 
L 469 531 
Q 828 903 1448 1529 
Q 2069 2156 2228 2338 
Q 2531 2678 2651 2914 
Q 2772 3150 2772 3378 
Q 2772 3750 2511 3984 
Q 2250 4219 1831 4219 
Q 1534 4219 1204 4116 
Q 875 4013 500 3803 
L 500 4441 
Q 881 4594 1212 4672 
Q 1544 4750 1819 4750 
Q 2544 4750 2975 4387 
Q 3406 4025 3406 3419 
Q 3406 3131 3298 2873 
Q 3191 2616 2906 2266 
Q 2828 2175 2409 1742 
Q 1991 1309 1228 531 
z
" transform="scale(0.015625)"/>
      <path id="DejaVuSans-2e" d="M 684 794 
L 1344 794 
L 1344 0 
L 684 0 
L 684 794 
z
" transform="scale(0.015625)"/>
      <path id="DejaVuSans-36" d="M 2113 2584 
Q 1688 2584 1439 2293 
Q 1191 2003 1191 1497 
Q 1191 994 1439 701 
Q 1688 409 2113 409 
Q 2538 409 2786 701 
Q 3034 994 3034 1497 
Q 3034 2003 2786 2293 
Q 2538 2584 2113 2584 
z
M 3366 4563 
L 3366 3988 
Q 3128 4100 2886 4159 
Q 2644 4219 2406 4219 
Q 1781 4219 1451 3797 
Q 1122 3375 1075 2522 
Q 1259 2794 1537 2939 
Q 1816 3084 2150 3084 
Q 2853 3084 3261 2657 
Q 3669 2231 3669 1497 
Q 3669 778 3244 343 
Q 2819 -91 2113 -91 
Q 1303 -91 875 529 
Q 447 1150 447 2328 
Q 447 3434 972 4092 
Q 1497 4750 2381 4750 
Q 2619 4750 2861 4703 
Q 3103 4656 3366 4563 
z
" transform="scale(0.015625)"/>
      <path id="DejaVuSans-25" d="M 4653 2053 
Q 4381 2053 4226 1822 
Q 4072 1591 4072 1178 
Q 4072 772 4226 539 
Q 4381 306 4653 306 
Q 4919 306 5073 539 
Q 5228 772 5228 1178 
Q 5228 1588 5073 1820 
Q 4919 2053 4653 2053 
z
M 4653 2450 
Q 5147 2450 5437 2106 
Q 5728 1763 5728 1178 
Q 5728 594 5436 251 
Q 5144 -91 4653 -91 
Q 4153 -91 3862 251 
Q 3572 594 3572 1178 
Q 3572 1766 3864 2108 
Q 4156 2450 4653 2450 
z
M 1428 4353 
Q 1159 4353 1004 4120 
Q 850 3888 850 3481 
Q 850 3069 1003 2837 
Q 1156 2606 1428 2606 
Q 1700 2606 1854 2837 
Q 2009 3069 2009 3481 
Q 2009 3884 1853 4118 
Q 1697 4353 1428 4353 
z
M 4250 4750 
L 4750 4750 
L 1831 -91 
L 1331 -91 
L 4250 4750 
z
M 1428 4750 
Q 1922 4750 2215 4408 
Q 2509 4066 2509 3481 
Q 2509 2891 2217 2550 
Q 1925 2209 1428 2209 
Q 931 2209 642 2551 
Q 353 2894 353 3481 
Q 353 4063 643 4406 
Q 934 4750 1428 4750 
z
" transform="scale(0.015625)"/>
      <path id="DejaVuSans-5d" d="M 1947 4863 
L 1947 -844 
L 622 -844 
L 622 -397 
L 1369 -397 
L 1369 4416 
L 622 4416 
L 622 4863 
L 1947 4863 
z
" transform="scale(0.015625)"/>
     </defs>
     <use xlink:href="#DejaVuSans-57"/>
     <use xlink:href="#DejaVuSans-20" x="98.876953"/>
     <use xlink:href="#DejaVuSans-5b" x="130.664062"/>
     <use xlink:href="#DejaVuSans-39" x="169.677734"/>
     <use xlink:href="#DejaVuSans-32" x="233.300781"/>
     <use xlink:href="#DejaVuSans-2e" x="296.923828"/>
     <use xlink:href="#DejaVuSans-36" x="328.710938"/>
     <use xlink:href="#DejaVuSans-25" x="392.333984"/>
     <use xlink:href="#DejaVuSans-5d" x="487.353516"/>
    </g>
   </g>
   <g id="patch_4">
    <path d="M 141.073217 21.717188 
L 351.896003 21.717188 
L 391.265439 118.460278 
" style="fill: none; stroke: #000000; stroke-width: 3; stroke-linecap: round"/>
   </g>
   <g id="text_2">
    <g id="patch_5">
     <path d="M 1.2 42.234375 
L 139.073437 42.234375 
L 139.073437 1.2 
L 1.2 1.2 
z
" style="fill: #ffffff"/>
    </g>
    <!-- L [6.7%] -->
    <g transform="translate(7.2 29.995313) scale(0.3 -0.3)">
     <defs>
      <path id="DejaVuSans-4c" d="M 628 4666 
L 1259 4666 
L 1259 531 
L 3531 531 
L 3531 0 
L 628 0 
L 628 4666 
z
" transform="scale(0.015625)"/>
      <path id="DejaVuSans-37" d="M 525 4666 
L 3525 4666 
L 3525 4397 
L 1831 0 
L 1172 0 
L 2766 4134 
L 525 4134 
L 525 4666 
z
" transform="scale(0.015625)"/>
     </defs>
     <use xlink:href="#DejaVuSans-4c"/>
     <use xlink:href="#DejaVuSans-20" x="55.712891"/>
     <use xlink:href="#DejaVuSans-5b" x="87.5"/>
     <use xlink:href="#DejaVuSans-36" x="126.513672"/>
     <use xlink:href="#DejaVuSans-2e" x="190.136719"/>
     <use xlink:href="#DejaVuSans-37" x="221.923828"/>
     <use xlink:href="#DejaVuSans-25" x="285.546875"/>
     <use xlink:href="#DejaVuSans-5d" x="380.566406"/>
    </g>
   </g>
   <g id="patch_6">
    <path d="M 342.411273 146.927337 
C 315.497658 165.278009 292.18078 188.41537 273.62265 215.186354 
C 255.064519 241.957339 241.57863 271.909718 233.83706 303.550798 
C 226.09549 335.191877 224.229013 367.987159 228.330646 400.30227 
C 232.43228 432.617381 242.432736 463.906439 257.833638 492.610133 
C 273.234539 521.313827 293.775725 546.94728 318.433513 568.233034 
C 343.091301 589.518787 371.449159 606.097271 402.093856 617.142287 
C 432.738553 628.187302 465.152423 633.512271 497.7201 632.851821 
C 530.287778 632.19137 562.459113 625.556657 592.630828 613.278325 
C 622.802543 600.999994 650.464962 583.285457 674.239511 561.017528 
C 698.014059 538.749599 717.499126 512.304441 731.723661 482.999963 
C 745.948196 453.695485 754.67191 422.026714 757.460053 389.571883 
C 760.248195 357.117051 757.053667 324.424403 748.03567 293.123197 
C 739.017673 261.82199 724.328542 232.440981 704.700321 206.44439 
C 685.0721 180.447798 660.836358 158.274773 633.200898 141.03032 
C 605.565438 123.785867 574.997093 111.761287 543.019254 105.555835 
C 511.041415 99.350382 478.194269 99.068882 446.114774 104.725363 
L 459.977733 183.346111 
C 482.43338 179.386575 505.426382 179.583625 527.810869 183.927441 
C 550.195356 188.271258 571.593198 196.688464 590.93802 208.759581 
C 610.282842 220.830698 627.247861 236.351816 640.987616 254.54943 
C 654.727371 272.747043 665.009762 293.31375 671.32236 315.224595 
C 677.634958 337.135439 679.871128 360.020293 677.919428 382.738675 
C 675.967728 405.457057 669.861128 427.625196 659.903954 448.138331 
C 649.94678 468.651465 636.307233 487.163077 619.665049 502.750627 
C 603.022865 518.338177 583.659171 530.738353 562.538971 539.333185 
C 541.41877 547.928017 518.898836 552.572316 496.101461 553.034632 
C 473.304087 553.496947 450.614378 549.769469 429.16309 542.037958 
C 407.711803 534.306447 387.861302 522.701508 370.60085 507.801481 
C 353.340399 492.901453 338.961569 474.958036 328.180938 454.86545 
C 317.400307 434.772864 310.399987 412.870524 307.528844 390.249946 
C 304.6577 367.629368 305.964234 344.672671 311.383333 322.523915 
C 316.802432 300.37516 326.242555 279.408494 339.233246 260.668805 
C 352.223937 241.929116 368.545752 225.732963 387.385282 212.887493 
z
" style="fill: #1f77b4"/>
   </g>
   <g id="patch_7">
    <path d="M 446.114823 104.725354 
C 427.582398 107.993117 409.448764 113.217484 392.01847 120.310712 
C 374.588176 127.403941 357.959351 136.326097 342.411273 146.927337 
L 387.385282 212.887493 
C 398.268937 205.466625 409.909114 199.221115 422.11032 194.255855 
C 434.311526 189.290596 447.00507 185.633539 459.977767 183.346105 
z
" style="fill: #ff7f0e"/>
   </g>
   <g id="matplotlib.axis_1"/>
   <g id="matplotlib.axis_2"/>
  </g>
 </g>
</svg>
