<?xml version="1.0" encoding="utf-8" standalone="no"?>
<!DOCTYPE svg PUBLIC "-//W3C//DTD SVG 1.1//EN"
  "http://www.w3.org/Graphics/SVG/1.1/DTD/svg11.dtd">
<svg xmlns:xlink="http://www.w3.org/1999/xlink" width="1032.799275pt" height="679.68pt" viewBox="0 0 1032.799275 679.68" xmlns="http://www.w3.org/2000/svg" version="1.1">
 <metadata>
  <rdf:RDF xmlns:dc="http://purl.org/dc/elements/1.1/" xmlns:cc="http://creativecommons.org/ns#" xmlns:rdf="http://www.w3.org/1999/02/22-rdf-syntax-ns#">
   <cc:Work>
    <dc:type rdf:resource="http://purl.org/dc/dcmitype/StillImage"/>
    <dc:date>2023-10-13T09:50:46.428219</dc:date>
    <dc:format>image/svg+xml</dc:format>
    <dc:creator>
     <cc:Agent>
      <dc:title>Matplotlib v3.7.3, https://matplotlib.org/</dc:title>
     </cc:Agent>
    </dc:creator>
   </cc:Work>
  </rdf:RDF>
 </metadata>
 <defs>
  <style type="text/css">*{stroke-linejoin: round; stroke-linecap: butt}</style>
 </defs>
 <g id="figure_1">
  <g id="patch_1">
   <path d="M 0 679.68 
L 1032.799275 679.68 
L 1032.799275 0 
L 0 0 
z
" style="fill: #ffffff"/>
  </g>
  <g id="axes_1">
   <g id="patch_2">
    <path d="M 868.51116 513.457368 
L 846.886907 513.457368 
L 754.474658 464.783407 
" style="fill: none; stroke: #000000; stroke-width: 3; stroke-linecap: round"/>
   </g>
   <g id="text_1">
    <g id="patch_3">
     <path d="M 870.50865 533.974556 
L 1031.599275 533.974556 
L 1031.599275 492.940181 
L 870.50865 492.940181 
z
" style="fill: #ffffff"/>
    </g>
    <!-- R [70.2%] -->
    <g transform="translate(876.50865 521.735493) scale(0.3 -0.3)">
     <defs>
      <path id="DejaVuSans-52" d="M 2841 2188 
Q 3044 2119 3236 1894 
Q 3428 1669 3622 1275 
L 4263 0 
L 3584 0 
L 2988 1197 
Q 2756 1666 2539 1819 
Q 2322 1972 1947 1972 
L 1259 1972 
L 1259 0 
L 628 0 
L 628 4666 
L 2053 4666 
Q 2853 4666 3247 4331 
Q 3641 3997 3641 3322 
Q 3641 2881 3436 2590 
Q 3231 2300 2841 2188 
z
M 1259 4147 
L 1259 2491 
L 2053 2491 
Q 2509 2491 2742 2702 
Q 2975 2913 2975 3322 
Q 2975 3731 2742 3939 
Q 2509 4147 2053 4147 
L 1259 4147 
z
" transform="scale(0.015625)"/>
      <path id="DejaVuSans-20" transform="scale(0.015625)"/>
      <path id="DejaVuSans-5b" d="M 550 4863 
L 1875 4863 
L 1875 4416 
L 1125 4416 
L 1125 -397 
L 1875 -397 
L 1875 -844 
L 550 -844 
L 550 4863 
z
" transform="scale(0.015625)"/>
      <path id="DejaVuSans-37" d="M 525 4666 
L 3525 4666 
L 3525 4397 
L 1831 0 
L 1172 0 
L 2766 4134 
L 525 4134 
L 525 4666 
z
" transform="scale(0.015625)"/>
      <path id="DejaVuSans-30" d="M 2034 4250 
Q 1547 4250 1301 3770 
Q 1056 3291 1056 2328 
Q 1056 1369 1301 889 
Q 1547 409 2034 409 
Q 2525 409 2770 889 
Q 3016 1369 3016 2328 
Q 3016 3291 2770 3770 
Q 2525 4250 2034 4250 
z
M 2034 4750 
Q 2819 4750 3233 4129 
Q 3647 3509 3647 2328 
Q 3647 1150 3233 529 
Q 2819 -91 2034 -91 
Q 1250 -91 836 529 
Q 422 1150 422 2328 
Q 422 3509 836 4129 
Q 1250 4750 2034 4750 
z
" transform="scale(0.015625)"/>
      <path id="DejaVuSans-2e" d="M 684 794 
L 1344 794 
L 1344 0 
L 684 0 
L 684 794 
z
" transform="scale(0.015625)"/>
      <path id="DejaVuSans-32" d="M 1228 531 
L 3431 531 
L 3431 0 
L 469 0 
L 469 531 
Q 828 903 1448 1529 
Q 2069 2156 2228 2338 
Q 2531 2678 2651 2914 
Q 2772 3150 2772 3378 
Q 2772 3750 2511 3984 
Q 2250 4219 1831 4219 
Q 1534 4219 1204 4116 
Q 875 4013 500 3803 
L 500 4441 
Q 881 4594 1212 4672 
Q 1544 4750 1819 4750 
Q 2544 4750 2975 4387 
Q 3406 4025 3406 3419 
Q 3406 3131 3298 2873 
Q 3191 2616 2906 2266 
Q 2828 2175 2409 1742 
Q 1991 1309 1228 531 
z
" transform="scale(0.015625)"/>
      <path id="DejaVuSans-25" d="M 4653 2053 
Q 4381 2053 4226 1822 
Q 4072 1591 4072 1178 
Q 4072 772 4226 539 
Q 4381 306 4653 306 
Q 4919 306 5073 539 
Q 5228 772 5228 1178 
Q 5228 1588 5073 1820 
Q 4919 2053 4653 2053 
z
M 4653 2450 
Q 5147 2450 5437 2106 
Q 5728 1763 5728 1178 
Q 5728 594 5436 251 
Q 5144 -91 4653 -91 
Q 4153 -91 3862 251 
Q 3572 594 3572 1178 
Q 3572 1766 3864 2108 
Q 4156 2450 4653 2450 
z
M 1428 4353 
Q 1159 4353 1004 4120 
Q 850 3888 850 3481 
Q 850 3069 1003 2837 
Q 1156 2606 1428 2606 
Q 1700 2606 1854 2837 
Q 2009 3069 2009 3481 
Q 2009 3884 1853 4118 
Q 1697 4353 1428 4353 
z
M 4250 4750 
L 4750 4750 
L 1831 -91 
L 1331 -91 
L 4250 4750 
z
M 1428 4750 
Q 1922 4750 2215 4408 
Q 2509 4066 2509 3481 
Q 2509 2891 2217 2550 
Q 1925 2209 1428 2209 
Q 931 2209 642 2551 
Q 353 2894 353 3481 
Q 353 4063 643 4406 
Q 934 4750 1428 4750 
z
" transform="scale(0.015625)"/>
      <path id="DejaVuSans-5d" d="M 1947 4863 
L 1947 -844 
L 622 -844 
L 622 -397 
L 1369 -397 
L 1369 4416 
L 622 4416 
L 622 4863 
L 1947 4863 
z
" transform="scale(0.015625)"/>
     </defs>
     <use xlink:href="#DejaVuSans-52"/>
     <use xlink:href="#DejaVuSans-20" x="69.482422"/>
     <use xlink:href="#DejaVuSans-5b" x="101.269531"/>
     <use xlink:href="#DejaVuSans-37" x="140.283203"/>
     <use xlink:href="#DejaVuSans-30" x="203.90625"/>
     <use xlink:href="#DejaVuSans-2e" x="267.529297"/>
     <use xlink:href="#DejaVuSans-32" x="299.316406"/>
     <use xlink:href="#DejaVuSans-25" x="362.939453"/>
     <use xlink:href="#DejaVuSans-5d" x="457.958984"/>
    </g>
   </g>
   <g id="patch_4">
    <path d="M 166.001716 166.222601 
L 187.62801 166.222601 
L 280.040253 214.89657 
" style="fill: none; stroke: #000000; stroke-width: 3; stroke-linecap: round"/>
   </g>
   <g id="text_2">
    <g id="patch_5">
     <path d="M 1.2 186.739788 
L 164.00625 186.739788 
L 164.00625 145.705413 
L 1.2 145.705413 
z
" style="fill: #ffffff"/>
    </g>
    <!-- H [28.7%] -->
    <g transform="translate(7.2 174.500726) scale(0.3 -0.3)">
     <defs>
      <path id="DejaVuSans-48" d="M 628 4666 
L 1259 4666 
L 1259 2753 
L 3553 2753 
L 3553 4666 
L 4184 4666 
L 4184 0 
L 3553 0 
L 3553 2222 
L 1259 2222 
L 1259 0 
L 628 0 
L 628 4666 
z
" transform="scale(0.015625)"/>
      <path id="DejaVuSans-38" d="M 2034 2216 
Q 1584 2216 1326 1975 
Q 1069 1734 1069 1313 
Q 1069 891 1326 650 
Q 1584 409 2034 409 
Q 2484 409 2743 651 
Q 3003 894 3003 1313 
Q 3003 1734 2745 1975 
Q 2488 2216 2034 2216 
z
M 1403 2484 
Q 997 2584 770 2862 
Q 544 3141 544 3541 
Q 544 4100 942 4425 
Q 1341 4750 2034 4750 
Q 2731 4750 3128 4425 
Q 3525 4100 3525 3541 
Q 3525 3141 3298 2862 
Q 3072 2584 2669 2484 
Q 3125 2378 3379 2068 
Q 3634 1759 3634 1313 
Q 3634 634 3220 271 
Q 2806 -91 2034 -91 
Q 1263 -91 848 271 
Q 434 634 434 1313 
Q 434 1759 690 2068 
Q 947 2378 1403 2484 
z
M 1172 3481 
Q 1172 3119 1398 2916 
Q 1625 2713 2034 2713 
Q 2441 2713 2670 2916 
Q 2900 3119 2900 3481 
Q 2900 3844 2670 4047 
Q 2441 4250 2034 4250 
Q 1625 4250 1398 4047 
Q 1172 3844 1172 3481 
z
" transform="scale(0.015625)"/>
     </defs>
     <use xlink:href="#DejaVuSans-48"/>
     <use xlink:href="#DejaVuSans-20" x="75.195312"/>
     <use xlink:href="#DejaVuSans-5b" x="106.982422"/>
     <use xlink:href="#DejaVuSans-32" x="145.996094"/>
     <use xlink:href="#DejaVuSans-38" x="209.619141"/>
     <use xlink:href="#DejaVuSans-2e" x="273.242188"/>
     <use xlink:href="#DejaVuSans-37" x="305.029297"/>
     <use xlink:href="#DejaVuSans-25" x="368.652344"/>
     <use xlink:href="#DejaVuSans-5d" x="463.671875"/>
    </g>
   </g>
   <g id="patch_6">
    <path d="M 275.005839 449.97516 
C 295.605255 495.285321 328.509359 533.920141 369.962473 561.469841 
C 411.415587 589.01954 459.77818 604.394487 509.530142 605.839784 
C 559.282104 607.285081 608.455672 594.743565 651.438171 569.646725 
C 694.42067 544.549884 729.512079 507.890337 752.707062 463.852406 
C 775.902045 419.814475 786.283207 370.139925 782.66564 320.498614 
C 779.048073 270.857302 761.574859 223.212615 732.24039 183.002721 
C 702.905922 142.792828 662.87042 111.608087 616.703541 93.007929 
C 570.536662 74.40777 520.064374 69.127857 471.047586 77.770839 
L 484.910545 156.391587 
C 519.222297 150.3415 554.552899 154.037439 586.869714 167.05755 
C 619.186529 180.077661 647.21138 201.906979 667.745508 230.053905 
C 688.279636 258.200831 700.510886 291.552111 703.043183 326.30103 
C 705.57548 361.049948 698.308667 395.822132 682.072178 426.648684 
C 665.83569 457.475236 641.271704 483.136919 611.183954 500.704707 
C 581.096205 518.272496 546.674708 527.051557 511.848334 526.039849 
C 477.021961 525.028141 443.168146 514.265678 414.150966 494.980888 
C 385.133786 475.696099 362.100914 448.651724 347.681322 416.934612 
z
" style="fill: #1f77b4"/>
   </g>
   <g id="patch_7">
    <path d="M 471.047635 77.770831 
C 431.064321 84.82096 393.219678 100.928725 360.420202 124.857038 
C 327.620726 148.78535 300.728152 179.905546 281.80785 215.827572 
C 262.887547 251.749598 252.436606 291.52968 251.257666 332.112679 
C 250.078726 372.695679 258.202761 413.015366 275.005839 449.97516 
L 347.681322 416.934612 
C 335.919167 391.062756 330.232343 362.838975 331.057601 334.430876 
C 331.882859 306.022776 339.198518 278.176718 352.44273 253.0313 
C 365.686941 227.885882 384.511743 206.101745 407.471376 189.351926 
C 430.431009 172.602108 456.922259 161.326672 484.91058 156.391581 
z
" style="fill: #ff7f0e"/>
   </g>
   <g id="matplotlib.axis_1"/>
   <g id="matplotlib.axis_2"/>
  </g>
 </g>
</svg>
