<?xml version="1.0" encoding="utf-8" standalone="no"?>
<!DOCTYPE svg PUBLIC "-//W3C//DTD SVG 1.1//EN"
  "http://www.w3.org/Graphics/SVG/1.1/DTD/svg11.dtd">
<svg xmlns:xlink="http://www.w3.org/1999/xlink" width="1026.5274pt" height="679.68pt" viewBox="0 0 1026.5274 679.68" xmlns="http://www.w3.org/2000/svg" version="1.1">
 <metadata>
  <rdf:RDF xmlns:dc="http://purl.org/dc/elements/1.1/" xmlns:cc="http://creativecommons.org/ns#" xmlns:rdf="http://www.w3.org/1999/02/22-rdf-syntax-ns#">
   <cc:Work>
    <dc:type rdf:resource="http://purl.org/dc/dcmitype/StillImage"/>
    <dc:date>2023-10-13T10:05:38.946413</dc:date>
    <dc:format>image/svg+xml</dc:format>
    <dc:creator>
     <cc:Agent>
      <dc:title>Matplotlib v3.7.3, https://matplotlib.org/</dc:title>
     </cc:Agent>
    </dc:creator>
   </cc:Work>
  </rdf:RDF>
 </metadata>
 <defs>
  <style type="text/css">*{stroke-linejoin: round; stroke-linecap: butt}</style>
 </defs>
 <g id="figure_1">
  <g id="patch_1">
   <path d="M 0 679.68 
L 1026.5274 679.68 
L 1026.5274 0 
L 0 0 
z
" style="fill: #ffffff"/>
  </g>
  <g id="axes_1">
   <g id="patch_2">
    <path d="M 864.038084 579.334786 
L 798.163949 579.334786 
L 718.157577 512.191965 
" style="fill: none; stroke: #000000; stroke-width: 3; stroke-linecap: round"/>
   </g>
   <g id="text_1">
    <g id="patch_3">
     <path d="M 866.036775 599.851974 
L 1025.3274 599.851974 
L 1025.3274 558.817599 
L 866.036775 558.817599 
z
" style="fill: #ffffff"/>
    </g>
    <!-- S [77.8%] -->
    <g transform="translate(872.036775 587.612911) scale(0.3 -0.3)">
     <defs>
      <path id="DejaVuSans-53" d="M 3425 4513 
L 3425 3897 
Q 3066 4069 2747 4153 
Q 2428 4238 2131 4238 
Q 1616 4238 1336 4038 
Q 1056 3838 1056 3469 
Q 1056 3159 1242 3001 
Q 1428 2844 1947 2747 
L 2328 2669 
Q 3034 2534 3370 2195 
Q 3706 1856 3706 1288 
Q 3706 609 3251 259 
Q 2797 -91 1919 -91 
Q 1588 -91 1214 -16 
Q 841 59 441 206 
L 441 856 
Q 825 641 1194 531 
Q 1563 422 1919 422 
Q 2459 422 2753 634 
Q 3047 847 3047 1241 
Q 3047 1584 2836 1778 
Q 2625 1972 2144 2069 
L 1759 2144 
Q 1053 2284 737 2584 
Q 422 2884 422 3419 
Q 422 4038 858 4394 
Q 1294 4750 2059 4750 
Q 2388 4750 2728 4690 
Q 3069 4631 3425 4513 
z
" transform="scale(0.015625)"/>
      <path id="DejaVuSans-20" transform="scale(0.015625)"/>
      <path id="DejaVuSans-5b" d="M 550 4863 
L 1875 4863 
L 1875 4416 
L 1125 4416 
L 1125 -397 
L 1875 -397 
L 1875 -844 
L 550 -844 
L 550 4863 
z
" transform="scale(0.015625)"/>
      <path id="DejaVuSans-37" d="M 525 4666 
L 3525 4666 
L 3525 4397 
L 1831 0 
L 1172 0 
L 2766 4134 
L 525 4134 
L 525 4666 
z
" transform="scale(0.015625)"/>
      <path id="DejaVuSans-2e" d="M 684 794 
L 1344 794 
L 1344 0 
L 684 0 
L 684 794 
z
" transform="scale(0.015625)"/>
      <path id="DejaVuSans-38" d="M 2034 2216 
Q 1584 2216 1326 1975 
Q 1069 1734 1069 1313 
Q 1069 891 1326 650 
Q 1584 409 2034 409 
Q 2484 409 2743 651 
Q 3003 894 3003 1313 
Q 3003 1734 2745 1975 
Q 2488 2216 2034 2216 
z
M 1403 2484 
Q 997 2584 770 2862 
Q 544 3141 544 3541 
Q 544 4100 942 4425 
Q 1341 4750 2034 4750 
Q 2731 4750 3128 4425 
Q 3525 4100 3525 3541 
Q 3525 3141 3298 2862 
Q 3072 2584 2669 2484 
Q 3125 2378 3379 2068 
Q 3634 1759 3634 1313 
Q 3634 634 3220 271 
Q 2806 -91 2034 -91 
Q 1263 -91 848 271 
Q 434 634 434 1313 
Q 434 1759 690 2068 
Q 947 2378 1403 2484 
z
M 1172 3481 
Q 1172 3119 1398 2916 
Q 1625 2713 2034 2713 
Q 2441 2713 2670 2916 
Q 2900 3119 2900 3481 
Q 2900 3844 2670 4047 
Q 2441 4250 2034 4250 
Q 1625 4250 1398 4047 
Q 1172 3844 1172 3481 
z
" transform="scale(0.015625)"/>
      <path id="DejaVuSans-25" d="M 4653 2053 
Q 4381 2053 4226 1822 
Q 4072 1591 4072 1178 
Q 4072 772 4226 539 
Q 4381 306 4653 306 
Q 4919 306 5073 539 
Q 5228 772 5228 1178 
Q 5228 1588 5073 1820 
Q 4919 2053 4653 2053 
z
M 4653 2450 
Q 5147 2450 5437 2106 
Q 5728 1763 5728 1178 
Q 5728 594 5436 251 
Q 5144 -91 4653 -91 
Q 4153 -91 3862 251 
Q 3572 594 3572 1178 
Q 3572 1766 3864 2108 
Q 4156 2450 4653 2450 
z
M 1428 4353 
Q 1159 4353 1004 4120 
Q 850 3888 850 3481 
Q 850 3069 1003 2837 
Q 1156 2606 1428 2606 
Q 1700 2606 1854 2837 
Q 2009 3069 2009 3481 
Q 2009 3884 1853 4118 
Q 1697 4353 1428 4353 
z
M 4250 4750 
L 4750 4750 
L 1831 -91 
L 1331 -91 
L 4250 4750 
z
M 1428 4750 
Q 1922 4750 2215 4408 
Q 2509 4066 2509 3481 
Q 2509 2891 2217 2550 
Q 1925 2209 1428 2209 
Q 931 2209 642 2551 
Q 353 2894 353 3481 
Q 353 4063 643 4406 
Q 934 4750 1428 4750 
z
" transform="scale(0.015625)"/>
      <path id="DejaVuSans-5d" d="M 1947 4863 
L 1947 -844 
L 622 -844 
L 622 -397 
L 1369 -397 
L 1369 4416 
L 622 4416 
L 622 4863 
L 1947 4863 
z
" transform="scale(0.015625)"/>
     </defs>
     <use xlink:href="#DejaVuSans-53"/>
     <use xlink:href="#DejaVuSans-20" x="63.476562"/>
     <use xlink:href="#DejaVuSans-5b" x="95.263672"/>
     <use xlink:href="#DejaVuSans-37" x="134.277344"/>
     <use xlink:href="#DejaVuSans-37" x="197.900391"/>
     <use xlink:href="#DejaVuSans-2e" x="261.523438"/>
     <use xlink:href="#DejaVuSans-38" x="293.310547"/>
     <use xlink:href="#DejaVuSans-25" x="356.933594"/>
     <use xlink:href="#DejaVuSans-5d" x="451.953125"/>
    </g>
   </g>
   <g id="patch_4">
    <path d="M 161.537513 100.345254 
L 227.407167 100.345254 
L 307.413549 167.488064 
" style="fill: none; stroke: #000000; stroke-width: 3; stroke-linecap: round"/>
   </g>
   <g id="text_2">
    <g id="patch_5">
     <path d="M 1.2 120.862441 
L 159.534375 120.862441 
L 159.534375 79.828066 
L 1.2 79.828066 
z
" style="fill: #ffffff"/>
    </g>
    <!-- P [22.2%] -->
    <g transform="translate(7.2 108.623379) scale(0.3 -0.3)">
     <defs>
      <path id="DejaVuSans-50" d="M 1259 4147 
L 1259 2394 
L 2053 2394 
Q 2494 2394 2734 2622 
Q 2975 2850 2975 3272 
Q 2975 3691 2734 3919 
Q 2494 4147 2053 4147 
L 1259 4147 
z
M 628 4666 
L 2053 4666 
Q 2838 4666 3239 4311 
Q 3641 3956 3641 3272 
Q 3641 2581 3239 2228 
Q 2838 1875 2053 1875 
L 1259 1875 
L 1259 0 
L 628 0 
L 628 4666 
z
" transform="scale(0.015625)"/>
      <path id="DejaVuSans-32" d="M 1228 531 
L 3431 531 
L 3431 0 
L 469 0 
L 469 531 
Q 828 903 1448 1529 
Q 2069 2156 2228 2338 
Q 2531 2678 2651 2914 
Q 2772 3150 2772 3378 
Q 2772 3750 2511 3984 
Q 2250 4219 1831 4219 
Q 1534 4219 1204 4116 
Q 875 4013 500 3803 
L 500 4441 
Q 881 4594 1212 4672 
Q 1544 4750 1819 4750 
Q 2544 4750 2975 4387 
Q 3406 4025 3406 3419 
Q 3406 3131 3298 2873 
Q 3191 2616 2906 2266 
Q 2828 2175 2409 1742 
Q 1991 1309 1228 531 
z
" transform="scale(0.015625)"/>
     </defs>
     <use xlink:href="#DejaVuSans-50"/>
     <use xlink:href="#DejaVuSans-20" x="60.302734"/>
     <use xlink:href="#DejaVuSans-5b" x="92.089844"/>
     <use xlink:href="#DejaVuSans-32" x="131.103516"/>
     <use xlink:href="#DejaVuSans-32" x="194.726562"/>
     <use xlink:href="#DejaVuSans-2e" x="258.349609"/>
     <use xlink:href="#DejaVuSans-32" x="290.136719"/>
     <use xlink:href="#DejaVuSans-25" x="353.759766"/>
     <use xlink:href="#DejaVuSans-5d" x="448.779297"/>
    </g>
   </g>
   <g id="patch_6">
    <path d="M 246.673578 339.802904 
C 246.669793 366.949323 250.819892 393.937186 258.979594 419.828253 
C 267.139296 445.71932 279.212936 470.210038 294.78077 492.448983 
C 310.348604 514.687927 329.228112 534.414362 350.762943 550.942494 
C 372.297773 567.470627 396.235448 580.606676 421.743767 589.893966 
C 447.252086 599.181255 474.031985 604.510897 501.152453 605.697607 
C 528.272922 606.884316 555.415994 603.914179 581.638033 596.890453 
C 607.860073 589.866727 632.853648 578.871761 655.749849 564.287795 
C 678.646051 549.70383 699.176439 531.701852 716.627271 510.907705 
C 734.078103 490.113557 748.244779 466.771035 758.634794 441.691647 
C 769.024809 416.61226 775.516346 390.090043 777.883726 363.047047 
C 780.251106 336.004051 778.466573 308.757336 772.592167 282.254139 
C 766.717761 255.750942 756.822355 230.301994 743.249964 206.792032 
C 729.677574 183.28207 712.587325 161.986731 692.573364 143.646352 
C 672.559404 125.305974 649.85638 110.135583 625.253568 98.662582 
C 600.650757 87.18958 574.436607 79.548481 547.52246 76.004928 
C 520.608312 72.461374 493.309716 73.056913 466.575711 77.770839 
L 480.43867 156.391587 
C 499.152473 153.091839 518.261491 152.674962 537.101394 155.155449 
C 555.941298 157.635937 574.291202 162.984706 591.51317 171.015807 
C 608.735139 179.046908 624.627255 189.666182 638.637028 202.504447 
C 652.6468 215.342712 664.609974 230.249449 674.110647 246.706422 
C 683.611321 263.163396 690.538105 280.97766 694.650189 299.529897 
C 698.762274 318.082135 700.011447 337.154836 698.35428 356.084933 
C 696.697114 375.01503 692.153038 393.580582 684.880028 411.136153 
C 677.607018 428.691725 667.690344 445.03149 655.474762 459.587393 
C 643.25918 474.143297 628.887908 486.744681 612.860567 496.953457 
C 596.833226 507.162232 579.337724 514.858709 560.982296 519.775317 
C 542.626868 524.691925 523.626718 526.771021 504.64239 525.940325 
C 485.658062 525.109628 466.912133 521.378878 449.056309 514.877776 
C 431.200486 508.376673 414.444114 499.181439 399.369732 487.611746 
C 384.295351 476.042053 371.079696 462.233549 360.182212 446.666288 
C 349.284728 431.099027 340.83318 413.955524 335.121388 395.831777 
C 329.409597 377.70803 326.504528 358.816526 326.507177 339.814033 
z
" style="fill: #1f77b4"/>
   </g>
   <g id="patch_7">
    <path d="M 466.575638 77.770852 
C 404.983428 88.631238 349.148649 120.864884 308.943855 168.772324 
C 268.739061 216.679764 246.682296 277.260533 246.673578 339.802904 
L 326.507177 339.814033 
C 326.51328 296.034373 341.953015 253.627835 370.096371 220.092627 
C 398.239727 186.557419 437.324072 163.993867 480.438619 156.391597 
z
" style="fill: #ff7f0e"/>
   </g>
   <g id="matplotlib.axis_1"/>
   <g id="matplotlib.axis_2"/>
  </g>
 </g>
</svg>
