<?xml version="1.0" encoding="utf-8" standalone="no"?>
<!DOCTYPE svg PUBLIC "-//W3C//DTD SVG 1.1//EN"
  "http://www.w3.org/Graphics/SVG/1.1/DTD/svg11.dtd">
<svg xmlns:xlink="http://www.w3.org/1999/xlink" width="1016.566463pt" height="679.68pt" viewBox="0 0 1016.566463 679.68" xmlns="http://www.w3.org/2000/svg" version="1.1">
 <metadata>
  <rdf:RDF xmlns:dc="http://purl.org/dc/elements/1.1/" xmlns:cc="http://creativecommons.org/ns#" xmlns:rdf="http://www.w3.org/1999/02/22-rdf-syntax-ns#">
   <cc:Work>
    <dc:type rdf:resource="http://purl.org/dc/dcmitype/StillImage"/>
    <dc:date>2023-10-13T09:50:21.840075</dc:date>
    <dc:format>image/svg+xml</dc:format>
    <dc:creator>
     <cc:Agent>
      <dc:title>Matplotlib v3.7.3, https://matplotlib.org/</dc:title>
     </cc:Agent>
    </dc:creator>
   </cc:Work>
  </rdf:RDF>
 </metadata>
 <defs>
  <style type="text/css">*{stroke-linejoin: round; stroke-linecap: butt}</style>
 </defs>
 <g id="figure_1">
  <g id="patch_1">
   <path d="M 0 679.68 
L 1016.566463 679.68 
L 1016.566463 0 
L 0 0 
z
" style="fill: #ffffff"/>
  </g>
  <g id="axes_1">
   <g id="patch_2">
    <path d="M 854.796514 598.69044 
L 771.492438 598.69044 
L 696.373286 526.121224 
" style="fill: none; stroke: #000000; stroke-width: 3; stroke-linecap: round"/>
   </g>
   <g id="text_1">
    <g id="patch_3">
     <path d="M 856.797713 619.207627 
L 1015.366463 619.207627 
L 1015.366463 578.173252 
L 856.797713 578.173252 
z
" style="fill: #ffffff"/>
    </g>
    <!-- T [79.6%] -->
    <g transform="translate(862.797713 606.968565) scale(0.3 -0.3)">
     <defs>
      <path id="DejaVuSans-54" d="M -19 4666 
L 3928 4666 
L 3928 4134 
L 2272 4134 
L 2272 0 
L 1638 0 
L 1638 4134 
L -19 4134 
L -19 4666 
z
" transform="scale(0.015625)"/>
      <path id="DejaVuSans-20" transform="scale(0.015625)"/>
      <path id="DejaVuSans-5b" d="M 550 4863 
L 1875 4863 
L 1875 4416 
L 1125 4416 
L 1125 -397 
L 1875 -397 
L 1875 -844 
L 550 -844 
L 550 4863 
z
" transform="scale(0.015625)"/>
      <path id="DejaVuSans-37" d="M 525 4666 
L 3525 4666 
L 3525 4397 
L 1831 0 
L 1172 0 
L 2766 4134 
L 525 4134 
L 525 4666 
z
" transform="scale(0.015625)"/>
      <path id="DejaVuSans-39" d="M 703 97 
L 703 672 
Q 941 559 1184 500 
Q 1428 441 1663 441 
Q 2288 441 2617 861 
Q 2947 1281 2994 2138 
Q 2813 1869 2534 1725 
Q 2256 1581 1919 1581 
Q 1219 1581 811 2004 
Q 403 2428 403 3163 
Q 403 3881 828 4315 
Q 1253 4750 1959 4750 
Q 2769 4750 3195 4129 
Q 3622 3509 3622 2328 
Q 3622 1225 3098 567 
Q 2575 -91 1691 -91 
Q 1453 -91 1209 -44 
Q 966 3 703 97 
z
M 1959 2075 
Q 2384 2075 2632 2365 
Q 2881 2656 2881 3163 
Q 2881 3666 2632 3958 
Q 2384 4250 1959 4250 
Q 1534 4250 1286 3958 
Q 1038 3666 1038 3163 
Q 1038 2656 1286 2365 
Q 1534 2075 1959 2075 
z
" transform="scale(0.015625)"/>
      <path id="DejaVuSans-2e" d="M 684 794 
L 1344 794 
L 1344 0 
L 684 0 
L 684 794 
z
" transform="scale(0.015625)"/>
      <path id="DejaVuSans-36" d="M 2113 2584 
Q 1688 2584 1439 2293 
Q 1191 2003 1191 1497 
Q 1191 994 1439 701 
Q 1688 409 2113 409 
Q 2538 409 2786 701 
Q 3034 994 3034 1497 
Q 3034 2003 2786 2293 
Q 2538 2584 2113 2584 
z
M 3366 4563 
L 3366 3988 
Q 3128 4100 2886 4159 
Q 2644 4219 2406 4219 
Q 1781 4219 1451 3797 
Q 1122 3375 1075 2522 
Q 1259 2794 1537 2939 
Q 1816 3084 2150 3084 
Q 2853 3084 3261 2657 
Q 3669 2231 3669 1497 
Q 3669 778 3244 343 
Q 2819 -91 2113 -91 
Q 1303 -91 875 529 
Q 447 1150 447 2328 
Q 447 3434 972 4092 
Q 1497 4750 2381 4750 
Q 2619 4750 2861 4703 
Q 3103 4656 3366 4563 
z
" transform="scale(0.015625)"/>
      <path id="DejaVuSans-25" d="M 4653 2053 
Q 4381 2053 4226 1822 
Q 4072 1591 4072 1178 
Q 4072 772 4226 539 
Q 4381 306 4653 306 
Q 4919 306 5073 539 
Q 5228 772 5228 1178 
Q 5228 1588 5073 1820 
Q 4919 2053 4653 2053 
z
M 4653 2450 
Q 5147 2450 5437 2106 
Q 5728 1763 5728 1178 
Q 5728 594 5436 251 
Q 5144 -91 4653 -91 
Q 4153 -91 3862 251 
Q 3572 594 3572 1178 
Q 3572 1766 3864 2108 
Q 4156 2450 4653 2450 
z
M 1428 4353 
Q 1159 4353 1004 4120 
Q 850 3888 850 3481 
Q 850 3069 1003 2837 
Q 1156 2606 1428 2606 
Q 1700 2606 1854 2837 
Q 2009 3069 2009 3481 
Q 2009 3884 1853 4118 
Q 1697 4353 1428 4353 
z
M 4250 4750 
L 4750 4750 
L 1831 -91 
L 1331 -91 
L 4250 4750 
z
M 1428 4750 
Q 1922 4750 2215 4408 
Q 2509 4066 2509 3481 
Q 2509 2891 2217 2550 
Q 1925 2209 1428 2209 
Q 931 2209 642 2551 
Q 353 2894 353 3481 
Q 353 4063 643 4406 
Q 934 4750 1428 4750 
z
" transform="scale(0.015625)"/>
      <path id="DejaVuSans-5d" d="M 1947 4863 
L 1947 -844 
L 622 -844 
L 622 -397 
L 1369 -397 
L 1369 4416 
L 622 4416 
L 622 4863 
L 1947 4863 
z
" transform="scale(0.015625)"/>
     </defs>
     <use xlink:href="#DejaVuSans-54"/>
     <use xlink:href="#DejaVuSans-20" x="61.083984"/>
     <use xlink:href="#DejaVuSans-5b" x="92.871094"/>
     <use xlink:href="#DejaVuSans-37" x="131.884766"/>
     <use xlink:href="#DejaVuSans-39" x="195.507812"/>
     <use xlink:href="#DejaVuSans-2e" x="259.130859"/>
     <use xlink:href="#DejaVuSans-36" x="290.917969"/>
     <use xlink:href="#DejaVuSans-25" x="354.541016"/>
     <use xlink:href="#DejaVuSans-5d" x="449.560547"/>
    </g>
   </g>
   <g id="patch_4">
    <path d="M 152.295316 80.989573 
L 235.600575 80.989573 
L 310.719731 153.558785 
" style="fill: none; stroke: #000000; stroke-width: 3; stroke-linecap: round"/>
   </g>
   <g id="text_2">
    <g id="patch_5">
     <path d="M 1.2 101.50676 
L 150.295312 101.50676 
L 150.295312 60.472385 
L 1.2 60.472385 
z
" style="fill: #ffffff"/>
    </g>
    <!-- I [19.9%] -->
    <g transform="translate(7.2 89.267698) scale(0.3 -0.3)">
     <defs>
      <path id="DejaVuSans-49" d="M 628 4666 
L 1259 4666 
L 1259 0 
L 628 0 
L 628 4666 
z
" transform="scale(0.015625)"/>
      <path id="DejaVuSans-31" d="M 794 531 
L 1825 531 
L 1825 4091 
L 703 3866 
L 703 4441 
L 1819 4666 
L 2450 4666 
L 2450 531 
L 3481 531 
L 3481 0 
L 794 0 
L 794 531 
z
" transform="scale(0.015625)"/>
     </defs>
     <use xlink:href="#DejaVuSans-49"/>
     <use xlink:href="#DejaVuSans-20" x="29.492188"/>
     <use xlink:href="#DejaVuSans-5b" x="61.279297"/>
     <use xlink:href="#DejaVuSans-31" x="100.292969"/>
     <use xlink:href="#DejaVuSans-39" x="163.916016"/>
     <use xlink:href="#DejaVuSans-2e" x="227.539062"/>
     <use xlink:href="#DejaVuSans-39" x="259.326172"/>
     <use xlink:href="#DejaVuSans-25" x="322.949219"/>
     <use xlink:href="#DejaVuSans-5d" x="417.96875"/>
    </g>
   </g>
   <g id="patch_6">
    <path d="M 240.038341 302.704574 
C 236.141254 330.357792 236.621346 358.452893 241.460962 385.956818 
C 246.300578 413.460742 255.439665 440.032199 268.542178 464.694151 
C 281.64469 489.356104 298.548041 511.802528 318.630692 531.208064 
C 338.713344 550.613601 361.726094 566.737451 386.822761 578.986738 
C 411.919428 591.236026 438.788593 599.458751 466.442272 603.352565 
C 494.09595 607.246378 522.190995 606.762962 549.694346 601.920091 
C 577.197698 597.07722 603.768073 587.934988 628.428474 574.829557 
C 653.088876 561.724127 675.533299 544.818119 694.936459 524.733171 
C 714.339619 504.648224 730.460745 481.633565 742.707063 456.535449 
C 754.95338 431.437332 763.172926 404.567195 767.063467 376.913055 
C 770.954007 349.258916 770.467266 321.163929 765.62114 293.661151 
C 760.775014 266.158373 751.629638 239.58908 738.521289 214.930229 
C 725.41294 190.271378 708.504277 167.828956 688.417033 148.428174 
C 668.329789 129.027391 645.313223 112.908988 620.213657 100.665641 
C 595.114092 88.422294 568.242982 80.205928 540.588382 76.31866 
C 512.933782 72.431392 484.838853 72.921459 457.336649 77.770839 
L 471.199608 156.391587 
C 490.451151 152.997021 510.117601 152.653975 529.475821 155.375062 
C 548.834041 158.09615 567.643818 163.847606 585.213514 172.417949 
C 602.78321 180.988292 618.894806 192.271174 632.955877 205.851722 
C 647.016947 219.432269 658.853012 235.141965 668.028856 252.40316 
C 677.204701 269.664356 683.606464 288.262861 686.998752 307.514806 
C 690.39104 326.76675 690.731759 346.433241 688.00838 365.791139 
C 685.285002 385.149036 679.53132 403.958133 670.958898 421.526814 
C 662.386476 439.095496 651.101687 455.205756 637.519475 469.26522 
C 623.937263 483.324684 608.226167 495.158889 590.963886 504.33269 
C 573.701605 513.506492 555.102342 519.906054 535.849996 523.296064 
C 516.59765 526.686073 496.931119 527.024465 477.573544 524.298795 
C 458.215969 521.573126 439.407554 515.817218 421.839887 507.242717 
C 404.27222 498.668216 388.163295 487.381521 374.105438 473.797645 
C 360.047582 460.213769 348.215237 444.501273 339.043478 427.237906 
C 329.871719 409.974539 323.474359 391.37452 320.086627 372.121772 
C 316.698896 352.869025 316.362832 333.202454 319.090792 313.845202 
z
" style="fill: #1f77b4"/>
   </g>
   <g id="patch_7">
    <path d="M 457.336624 77.770844 
C 402.018599 87.524909 351.184136 114.547904 312.156557 154.946838 
C 273.128978 195.345771 247.876953 247.082799 240.038341 302.704574 
L 319.090792 313.845202 
C 324.577821 274.909959 342.254239 238.69404 369.573544 210.414786 
C 396.892849 182.135533 432.476973 163.219437 471.199591 156.39159 
z
" style="fill: #ff7f0e"/>
   </g>
   <g id="matplotlib.axis_1"/>
   <g id="matplotlib.axis_2"/>
  </g>
 </g>
</svg>
