<?xml version="1.0" encoding="utf-8" standalone="no"?>
<!DOCTYPE svg PUBLIC "-//W3C//DTD SVG 1.1//EN"
  "http://www.w3.org/Graphics/SVG/1.1/DTD/svg11.dtd">
<svg xmlns:xlink="http://www.w3.org/1999/xlink" width="1020.813338pt" height="705.262829pt" viewBox="0 0 1020.813338 705.262829" xmlns="http://www.w3.org/2000/svg" version="1.1">
 <metadata>
  <rdf:RDF xmlns:dc="http://purl.org/dc/elements/1.1/" xmlns:cc="http://creativecommons.org/ns#" xmlns:rdf="http://www.w3.org/1999/02/22-rdf-syntax-ns#">
   <cc:Work>
    <dc:type rdf:resource="http://purl.org/dc/dcmitype/StillImage"/>
    <dc:date>2023-10-13T09:59:10.593960</dc:date>
    <dc:format>image/svg+xml</dc:format>
    <dc:creator>
     <cc:Agent>
      <dc:title>Matplotlib v3.7.3, https://matplotlib.org/</dc:title>
     </cc:Agent>
    </dc:creator>
   </cc:Work>
  </rdf:RDF>
 </metadata>
 <defs>
  <style type="text/css">*{stroke-linejoin: round; stroke-linecap: butt}</style>
 </defs>
 <g id="figure_1">
  <g id="patch_1">
   <path d="M 0 705.262829 
L 1020.813338 705.262829 
L 1020.813338 -0 
L 0 -0 
z
" style="fill: #ffffff"/>
  </g>
  <g id="axes_1">
   <g id="patch_2">
    <path d="M 856.52197 683.545642 
L 676.427401 683.545642 
L 628.44352 590.773204 
" style="fill: none; stroke: #000000; stroke-width: 3; stroke-linecap: round"/>
   </g>
   <g id="text_1">
    <g id="patch_3">
     <path d="M 858.522713 704.062829 
L 1019.613338 704.062829 
L 1019.613338 663.028454 
L 858.522713 663.028454 
z
" style="fill: #ffffff"/>
    </g>
    <!-- R [90.2%] -->
    <g transform="translate(864.522713 691.823767) scale(0.3 -0.3)">
     <defs>
      <path id="DejaVuSans-52" d="M 2841 2188 
Q 3044 2119 3236 1894 
Q 3428 1669 3622 1275 
L 4263 0 
L 3584 0 
L 2988 1197 
Q 2756 1666 2539 1819 
Q 2322 1972 1947 1972 
L 1259 1972 
L 1259 0 
L 628 0 
L 628 4666 
L 2053 4666 
Q 2853 4666 3247 4331 
Q 3641 3997 3641 3322 
Q 3641 2881 3436 2590 
Q 3231 2300 2841 2188 
z
M 1259 4147 
L 1259 2491 
L 2053 2491 
Q 2509 2491 2742 2702 
Q 2975 2913 2975 3322 
Q 2975 3731 2742 3939 
Q 2509 4147 2053 4147 
L 1259 4147 
z
" transform="scale(0.015625)"/>
      <path id="DejaVuSans-20" transform="scale(0.015625)"/>
      <path id="DejaVuSans-5b" d="M 550 4863 
L 1875 4863 
L 1875 4416 
L 1125 4416 
L 1125 -397 
L 1875 -397 
L 1875 -844 
L 550 -844 
L 550 4863 
z
" transform="scale(0.015625)"/>
      <path id="DejaVuSans-39" d="M 703 97 
L 703 672 
Q 941 559 1184 500 
Q 1428 441 1663 441 
Q 2288 441 2617 861 
Q 2947 1281 2994 2138 
Q 2813 1869 2534 1725 
Q 2256 1581 1919 1581 
Q 1219 1581 811 2004 
Q 403 2428 403 3163 
Q 403 3881 828 4315 
Q 1253 4750 1959 4750 
Q 2769 4750 3195 4129 
Q 3622 3509 3622 2328 
Q 3622 1225 3098 567 
Q 2575 -91 1691 -91 
Q 1453 -91 1209 -44 
Q 966 3 703 97 
z
M 1959 2075 
Q 2384 2075 2632 2365 
Q 2881 2656 2881 3163 
Q 2881 3666 2632 3958 
Q 2384 4250 1959 4250 
Q 1534 4250 1286 3958 
Q 1038 3666 1038 3163 
Q 1038 2656 1286 2365 
Q 1534 2075 1959 2075 
z
" transform="scale(0.015625)"/>
      <path id="DejaVuSans-30" d="M 2034 4250 
Q 1547 4250 1301 3770 
Q 1056 3291 1056 2328 
Q 1056 1369 1301 889 
Q 1547 409 2034 409 
Q 2525 409 2770 889 
Q 3016 1369 3016 2328 
Q 3016 3291 2770 3770 
Q 2525 4250 2034 4250 
z
M 2034 4750 
Q 2819 4750 3233 4129 
Q 3647 3509 3647 2328 
Q 3647 1150 3233 529 
Q 2819 -91 2034 -91 
Q 1250 -91 836 529 
Q 422 1150 422 2328 
Q 422 3509 836 4129 
Q 1250 4750 2034 4750 
z
" transform="scale(0.015625)"/>
      <path id="DejaVuSans-2e" d="M 684 794 
L 1344 794 
L 1344 0 
L 684 0 
L 684 794 
z
" transform="scale(0.015625)"/>
      <path id="DejaVuSans-32" d="M 1228 531 
L 3431 531 
L 3431 0 
L 469 0 
L 469 531 
Q 828 903 1448 1529 
Q 2069 2156 2228 2338 
Q 2531 2678 2651 2914 
Q 2772 3150 2772 3378 
Q 2772 3750 2511 3984 
Q 2250 4219 1831 4219 
Q 1534 4219 1204 4116 
Q 875 4013 500 3803 
L 500 4441 
Q 881 4594 1212 4672 
Q 1544 4750 1819 4750 
Q 2544 4750 2975 4387 
Q 3406 4025 3406 3419 
Q 3406 3131 3298 2873 
Q 3191 2616 2906 2266 
Q 2828 2175 2409 1742 
Q 1991 1309 1228 531 
z
" transform="scale(0.015625)"/>
      <path id="DejaVuSans-25" d="M 4653 2053 
Q 4381 2053 4226 1822 
Q 4072 1591 4072 1178 
Q 4072 772 4226 539 
Q 4381 306 4653 306 
Q 4919 306 5073 539 
Q 5228 772 5228 1178 
Q 5228 1588 5073 1820 
Q 4919 2053 4653 2053 
z
M 4653 2450 
Q 5147 2450 5437 2106 
Q 5728 1763 5728 1178 
Q 5728 594 5436 251 
Q 5144 -91 4653 -91 
Q 4153 -91 3862 251 
Q 3572 594 3572 1178 
Q 3572 1766 3864 2108 
Q 4156 2450 4653 2450 
z
M 1428 4353 
Q 1159 4353 1004 4120 
Q 850 3888 850 3481 
Q 850 3069 1003 2837 
Q 1156 2606 1428 2606 
Q 1700 2606 1854 2837 
Q 2009 3069 2009 3481 
Q 2009 3884 1853 4118 
Q 1697 4353 1428 4353 
z
M 4250 4750 
L 4750 4750 
L 1831 -91 
L 1331 -91 
L 4250 4750 
z
M 1428 4750 
Q 1922 4750 2215 4408 
Q 2509 4066 2509 3481 
Q 2509 2891 2217 2550 
Q 1925 2209 1428 2209 
Q 931 2209 642 2551 
Q 353 2894 353 3481 
Q 353 4063 643 4406 
Q 934 4750 1428 4750 
z
" transform="scale(0.015625)"/>
      <path id="DejaVuSans-5d" d="M 1947 4863 
L 1947 -844 
L 622 -844 
L 622 -397 
L 1369 -397 
L 1369 4416 
L 622 4416 
L 622 4863 
L 1947 4863 
z
" transform="scale(0.015625)"/>
     </defs>
     <use xlink:href="#DejaVuSans-52"/>
     <use xlink:href="#DejaVuSans-20" x="69.482422"/>
     <use xlink:href="#DejaVuSans-5b" x="101.269531"/>
     <use xlink:href="#DejaVuSans-39" x="140.283203"/>
     <use xlink:href="#DejaVuSans-30" x="203.90625"/>
     <use xlink:href="#DejaVuSans-2e" x="267.529297"/>
     <use xlink:href="#DejaVuSans-32" x="299.316406"/>
     <use xlink:href="#DejaVuSans-25" x="362.939453"/>
     <use xlink:href="#DejaVuSans-5d" x="457.958984"/>
    </g>
   </g>
   <g id="patch_4">
    <path d="M 154.02144 21.717188 
L 334.115593 21.717188 
L 382.099482 114.489621 
" style="fill: none; stroke: #000000; stroke-width: 3; stroke-linecap: round"/>
   </g>
   <g id="text_2">
    <g id="patch_5">
     <path d="M 1.2 42.234375 
L 152.020312 42.234375 
L 152.020312 1.2 
L 1.2 1.2 
z
" style="fill: #ffffff"/>
    </g>
    <!-- W [9.6%] -->
    <g transform="translate(7.2 29.995313) scale(0.3 -0.3)">
     <defs>
      <path id="DejaVuSans-57" d="M 213 4666 
L 850 4666 
L 1831 722 
L 2809 4666 
L 3519 4666 
L 4500 722 
L 5478 4666 
L 6119 4666 
L 4947 0 
L 4153 0 
L 3169 4050 
L 2175 0 
L 1381 0 
L 213 4666 
z
" transform="scale(0.015625)"/>
      <path id="DejaVuSans-36" d="M 2113 2584 
Q 1688 2584 1439 2293 
Q 1191 2003 1191 1497 
Q 1191 994 1439 701 
Q 1688 409 2113 409 
Q 2538 409 2786 701 
Q 3034 994 3034 1497 
Q 3034 2003 2786 2293 
Q 2538 2584 2113 2584 
z
M 3366 4563 
L 3366 3988 
Q 3128 4100 2886 4159 
Q 2644 4219 2406 4219 
Q 1781 4219 1451 3797 
Q 1122 3375 1075 2522 
Q 1259 2794 1537 2939 
Q 1816 3084 2150 3084 
Q 2853 3084 3261 2657 
Q 3669 2231 3669 1497 
Q 3669 778 3244 343 
Q 2819 -91 2113 -91 
Q 1303 -91 875 529 
Q 447 1150 447 2328 
Q 447 3434 972 4092 
Q 1497 4750 2381 4750 
Q 2619 4750 2861 4703 
Q 3103 4656 3366 4563 
z
" transform="scale(0.015625)"/>
     </defs>
     <use xlink:href="#DejaVuSans-57"/>
     <use xlink:href="#DejaVuSans-20" x="98.876953"/>
     <use xlink:href="#DejaVuSans-5b" x="130.664062"/>
     <use xlink:href="#DejaVuSans-39" x="169.677734"/>
     <use xlink:href="#DejaVuSans-2e" x="233.300781"/>
     <use xlink:href="#DejaVuSans-36" x="265.087891"/>
     <use xlink:href="#DejaVuSans-25" x="328.710938"/>
     <use xlink:href="#DejaVuSans-5d" x="423.730469"/>
    </g>
   </g>
   <g id="patch_6">
    <path d="M 318.096557 163.472393 
C 295.663699 185.669956 277.357362 211.682119 264.034626 240.291027 
C 250.711889 268.899934 242.583966 299.652031 240.031395 331.107544 
C 237.478824 362.563057 240.542074 394.223302 249.077726 424.605987 
C 257.613378 454.988672 271.486111 483.612121 290.046423 509.136222 
C 308.606735 534.660324 331.560376 556.680427 357.832688 574.165579 
C 384.104999 591.650731 413.279469 604.32373 443.990187 611.591241 
C 474.700905 618.858752 506.460994 620.60556 537.783488 616.74988 
C 569.105983 612.894201 599.494306 603.497161 627.525718 588.998718 
C 655.55713 574.500274 680.787231 555.130281 702.034778 531.795616 
C 723.282326 508.46095 740.210471 481.531551 752.026659 452.268219 
C 763.842847 423.004887 770.359748 391.871551 771.27225 360.325834 
C 772.184752 328.780117 767.478388 297.322134 757.373505 267.424705 
C 747.268621 237.527277 731.925417 209.664386 712.062241 185.140538 
C 692.199065 160.616689 668.13082 139.820675 640.984351 123.726138 
C 613.837882 107.631601 584.043559 96.493697 552.996313 90.83389 
C 521.949067 85.174082 490.14111 85.082098 459.061649 90.562246 
L 472.924608 169.182994 
C 494.68023 165.346891 516.9458 165.411279 538.678873 169.373145 
C 560.411945 173.33501 581.267971 181.131543 600.270499 192.397719 
C 619.273028 203.663895 636.120799 218.221104 650.025022 235.387798 
C 663.929246 252.554492 674.669489 272.058516 681.742907 292.986716 
C 688.816326 313.914916 692.11078 335.935504 691.472029 358.017506 
C 690.833277 380.099508 686.271446 401.892843 678.000115 422.377175 
C 669.728783 442.861508 657.879082 461.712087 643.005799 478.046353 
C 628.132515 494.380619 610.471445 507.939614 590.849457 518.088524 
C 571.227468 528.237435 549.955642 534.815362 528.029896 537.514338 
C 506.10415 540.213314 483.872087 538.990548 462.374585 533.903291 
C 440.877082 528.816033 420.454953 519.944934 402.064335 507.705327 
C 383.673717 495.465721 367.606168 480.051649 354.61395 462.184778 
C 341.621732 444.317907 331.910818 424.281492 325.935862 403.013613 
C 319.960905 381.745733 317.816631 359.583562 319.60343 337.564703 
C 321.39023 315.545844 327.079776 294.019376 336.405692 273.993141 
C 345.731607 253.966905 358.546043 235.758391 374.249044 220.220097 
z
" style="fill: #1f77b4"/>
   </g>
   <g id="patch_7">
    <path d="M 459.0616 90.562255 
C 432.559968 95.235212 406.919827 103.901201 383.017284 116.264107 
C 359.114742 128.627014 337.225181 144.544405 318.096557 163.472393 
L 374.249044 220.220097 
C 387.639081 206.970506 402.961773 195.828332 419.693553 187.174297 
C 436.425332 178.520262 454.373432 172.454071 472.924573 169.183 
z
" style="fill: #ff7f0e"/>
   </g>
   <g id="matplotlib.axis_1"/>
   <g id="matplotlib.axis_2"/>
  </g>
 </g>
</svg>
