<?xml version="1.0" encoding="utf-8" standalone="no"?>
<!DOCTYPE svg PUBLIC "-//W3C//DTD SVG 1.1//EN"
  "http://www.w3.org/Graphics/SVG/1.1/DTD/svg11.dtd">
<svg xmlns:xlink="http://www.w3.org/1999/xlink" width="1011.1899pt" height="738.61927pt" viewBox="0 0 1011.1899 738.61927" xmlns="http://www.w3.org/2000/svg" version="1.1">
 <metadata>
  <rdf:RDF xmlns:dc="http://purl.org/dc/elements/1.1/" xmlns:cc="http://creativecommons.org/ns#" xmlns:rdf="http://www.w3.org/1999/02/22-rdf-syntax-ns#">
   <cc:Work>
    <dc:type rdf:resource="http://purl.org/dc/dcmitype/StillImage"/>
    <dc:date>2023-10-13T09:59:53.736866</dc:date>
    <dc:format>image/svg+xml</dc:format>
    <dc:creator>
     <cc:Agent>
      <dc:title>Matplotlib v3.7.3, https://matplotlib.org/</dc:title>
     </cc:Agent>
    </dc:creator>
   </cc:Work>
  </rdf:RDF>
 </metadata>
 <defs>
  <style type="text/css">*{stroke-linejoin: round; stroke-linecap: butt}</style>
 </defs>
 <g id="figure_1">
  <g id="patch_1">
   <path d="M 0 738.61927 
L 1011.1899 738.61927 
L 1011.1899 0 
L 0 0 
z
" style="fill: #ffffff"/>
  </g>
  <g id="axes_1">
   <g id="patch_2">
    <path d="M 849.421081 716.902083 
L 632.252241 716.902083 
L 594.662014 619.453876 
" style="fill: none; stroke: #000000; stroke-width: 3; stroke-linecap: round"/>
   </g>
   <g id="text_1">
    <g id="patch_3">
     <path d="M 851.42115 737.41927 
L 1009.9899 737.41927 
L 1009.9899 696.384895 
L 851.42115 696.384895 
z
" style="fill: #ffffff"/>
    </g>
    <!-- Y [93.3%] -->
    <g transform="translate(857.42115 725.180208) scale(0.3 -0.3)">
     <defs>
      <path id="DejaVuSans-59" d="M -13 4666 
L 666 4666 
L 1959 2747 
L 3244 4666 
L 3922 4666 
L 2272 2222 
L 2272 0 
L 1638 0 
L 1638 2222 
L -13 4666 
z
" transform="scale(0.015625)"/>
      <path id="DejaVuSans-20" transform="scale(0.015625)"/>
      <path id="DejaVuSans-5b" d="M 550 4863 
L 1875 4863 
L 1875 4416 
L 1125 4416 
L 1125 -397 
L 1875 -397 
L 1875 -844 
L 550 -844 
L 550 4863 
z
" transform="scale(0.015625)"/>
      <path id="DejaVuSans-39" d="M 703 97 
L 703 672 
Q 941 559 1184 500 
Q 1428 441 1663 441 
Q 2288 441 2617 861 
Q 2947 1281 2994 2138 
Q 2813 1869 2534 1725 
Q 2256 1581 1919 1581 
Q 1219 1581 811 2004 
Q 403 2428 403 3163 
Q 403 3881 828 4315 
Q 1253 4750 1959 4750 
Q 2769 4750 3195 4129 
Q 3622 3509 3622 2328 
Q 3622 1225 3098 567 
Q 2575 -91 1691 -91 
Q 1453 -91 1209 -44 
Q 966 3 703 97 
z
M 1959 2075 
Q 2384 2075 2632 2365 
Q 2881 2656 2881 3163 
Q 2881 3666 2632 3958 
Q 2384 4250 1959 4250 
Q 1534 4250 1286 3958 
Q 1038 3666 1038 3163 
Q 1038 2656 1286 2365 
Q 1534 2075 1959 2075 
z
" transform="scale(0.015625)"/>
      <path id="DejaVuSans-33" d="M 2597 2516 
Q 3050 2419 3304 2112 
Q 3559 1806 3559 1356 
Q 3559 666 3084 287 
Q 2609 -91 1734 -91 
Q 1441 -91 1130 -33 
Q 819 25 488 141 
L 488 750 
Q 750 597 1062 519 
Q 1375 441 1716 441 
Q 2309 441 2620 675 
Q 2931 909 2931 1356 
Q 2931 1769 2642 2001 
Q 2353 2234 1838 2234 
L 1294 2234 
L 1294 2753 
L 1863 2753 
Q 2328 2753 2575 2939 
Q 2822 3125 2822 3475 
Q 2822 3834 2567 4026 
Q 2313 4219 1838 4219 
Q 1578 4219 1281 4162 
Q 984 4106 628 3988 
L 628 4550 
Q 988 4650 1302 4700 
Q 1616 4750 1894 4750 
Q 2613 4750 3031 4423 
Q 3450 4097 3450 3541 
Q 3450 3153 3228 2886 
Q 3006 2619 2597 2516 
z
" transform="scale(0.015625)"/>
      <path id="DejaVuSans-2e" d="M 684 794 
L 1344 794 
L 1344 0 
L 684 0 
L 684 794 
z
" transform="scale(0.015625)"/>
      <path id="DejaVuSans-25" d="M 4653 2053 
Q 4381 2053 4226 1822 
Q 4072 1591 4072 1178 
Q 4072 772 4226 539 
Q 4381 306 4653 306 
Q 4919 306 5073 539 
Q 5228 772 5228 1178 
Q 5228 1588 5073 1820 
Q 4919 2053 4653 2053 
z
M 4653 2450 
Q 5147 2450 5437 2106 
Q 5728 1763 5728 1178 
Q 5728 594 5436 251 
Q 5144 -91 4653 -91 
Q 4153 -91 3862 251 
Q 3572 594 3572 1178 
Q 3572 1766 3864 2108 
Q 4156 2450 4653 2450 
z
M 1428 4353 
Q 1159 4353 1004 4120 
Q 850 3888 850 3481 
Q 850 3069 1003 2837 
Q 1156 2606 1428 2606 
Q 1700 2606 1854 2837 
Q 2009 3069 2009 3481 
Q 2009 3884 1853 4118 
Q 1697 4353 1428 4353 
z
M 4250 4750 
L 4750 4750 
L 1831 -91 
L 1331 -91 
L 4250 4750 
z
M 1428 4750 
Q 1922 4750 2215 4408 
Q 2509 4066 2509 3481 
Q 2509 2891 2217 2550 
Q 1925 2209 1428 2209 
Q 931 2209 642 2551 
Q 353 2894 353 3481 
Q 353 4063 643 4406 
Q 934 4750 1428 4750 
z
" transform="scale(0.015625)"/>
      <path id="DejaVuSans-5d" d="M 1947 4863 
L 1947 -844 
L 622 -844 
L 622 -397 
L 1369 -397 
L 1369 4416 
L 622 4416 
L 622 4863 
L 1947 4863 
z
" transform="scale(0.015625)"/>
     </defs>
     <use xlink:href="#DejaVuSans-59"/>
     <use xlink:href="#DejaVuSans-20" x="61.083984"/>
     <use xlink:href="#DejaVuSans-5b" x="92.871094"/>
     <use xlink:href="#DejaVuSans-39" x="131.884766"/>
     <use xlink:href="#DejaVuSans-33" x="195.507812"/>
     <use xlink:href="#DejaVuSans-2e" x="259.130859"/>
     <use xlink:href="#DejaVuSans-33" x="290.917969"/>
     <use xlink:href="#DejaVuSans-25" x="354.541016"/>
     <use xlink:href="#DejaVuSans-5d" x="449.560547"/>
    </g>
   </g>
   <g id="patch_4">
    <path d="M 146.91822 21.717188 
L 364.087668 21.717188 
L 401.677892 119.165395 
" style="fill: none; stroke: #000000; stroke-width: 3; stroke-linecap: round"/>
   </g>
   <g id="text_2">
    <g id="patch_5">
     <path d="M 1.2 42.234375 
L 144.91875 42.234375 
L 144.91875 1.2 
L 1.2 1.2 
z
" style="fill: #ffffff"/>
    </g>
    <!-- H [6.1%] -->
    <g transform="translate(7.2 29.995313) scale(0.3 -0.3)">
     <defs>
      <path id="DejaVuSans-48" d="M 628 4666 
L 1259 4666 
L 1259 2753 
L 3553 2753 
L 3553 4666 
L 4184 4666 
L 4184 0 
L 3553 0 
L 3553 2222 
L 1259 2222 
L 1259 0 
L 628 0 
L 628 4666 
z
" transform="scale(0.015625)"/>
      <path id="DejaVuSans-36" d="M 2113 2584 
Q 1688 2584 1439 2293 
Q 1191 2003 1191 1497 
Q 1191 994 1439 701 
Q 1688 409 2113 409 
Q 2538 409 2786 701 
Q 3034 994 3034 1497 
Q 3034 2003 2786 2293 
Q 2538 2584 2113 2584 
z
M 3366 4563 
L 3366 3988 
Q 3128 4100 2886 4159 
Q 2644 4219 2406 4219 
Q 1781 4219 1451 3797 
Q 1122 3375 1075 2522 
Q 1259 2794 1537 2939 
Q 1816 3084 2150 3084 
Q 2853 3084 3261 2657 
Q 3669 2231 3669 1497 
Q 3669 778 3244 343 
Q 2819 -91 2113 -91 
Q 1303 -91 875 529 
Q 447 1150 447 2328 
Q 447 3434 972 4092 
Q 1497 4750 2381 4750 
Q 2619 4750 2861 4703 
Q 3103 4656 3366 4563 
z
" transform="scale(0.015625)"/>
      <path id="DejaVuSans-31" d="M 794 531 
L 1825 531 
L 1825 4091 
L 703 3866 
L 703 4441 
L 1819 4666 
L 2450 4666 
L 2450 531 
L 3481 531 
L 3481 0 
L 794 0 
L 794 531 
z
" transform="scale(0.015625)"/>
     </defs>
     <use xlink:href="#DejaVuSans-48"/>
     <use xlink:href="#DejaVuSans-20" x="75.195312"/>
     <use xlink:href="#DejaVuSans-5b" x="106.982422"/>
     <use xlink:href="#DejaVuSans-36" x="145.996094"/>
     <use xlink:href="#DejaVuSans-2e" x="209.619141"/>
     <use xlink:href="#DejaVuSans-31" x="241.40625"/>
     <use xlink:href="#DejaVuSans-25" x="305.029297"/>
     <use xlink:href="#DejaVuSans-5d" x="400.048828"/>
    </g>
   </g>
   <g id="patch_6">
    <path d="M 356.413081 144.097322 
C 328.671786 161.558708 304.394062 183.996439 284.804849 210.278413 
C 265.215635 236.560388 250.650027 266.237023 241.842936 297.810978 
C 233.035844 329.384933 230.137925 362.316099 233.295393 394.942926 
C 236.452861 427.569753 245.611704 459.334124 260.30981 488.633358 
C 275.007917 517.932593 294.993859 544.265495 319.259242 566.303432 
C 343.524625 588.341369 371.654362 605.707357 402.22916 617.525191 
C 432.803958 629.343025 465.300801 635.410548 498.080052 635.421622 
C 530.859304 635.432695 563.360239 629.387129 593.943015 617.589955 
C 624.52579 605.792781 652.667254 588.445803 676.947521 566.424265 
C 701.227788 544.402728 721.231517 518.083335 735.949416 488.794038 
C 750.667315 459.504741 759.847617 427.746566 763.027128 395.121879 
C 766.206639 362.497193 763.33097 329.564076 754.545213 297.984178 
C 745.759456 266.40428 731.213902 236.717811 711.64245 210.422607 
C 692.070998 184.127403 667.80844 161.673275 640.078948 144.19315 
C 612.349457 126.713024 581.627376 114.50592 549.462796 108.187749 
C 517.298217 101.869577 484.241349 101.548418 451.960086 107.240476 
L 465.823045 185.861224 
C 488.419929 181.876784 511.559737 182.101595 534.074942 186.524315 
C 556.590148 190.947035 578.095605 199.492008 597.506249 211.728096 
C 616.916893 223.964183 633.900684 239.682073 647.6007 258.088716 
C 661.300716 276.495358 671.482604 297.275887 677.632634 319.381816 
C 683.782664 341.487744 685.795632 364.540926 683.569975 387.378206 
C 681.344317 410.215487 674.918105 432.44621 664.615576 452.948718 
C 654.313047 473.451226 640.310436 491.874801 623.314249 507.289877 
C 606.318063 522.704953 586.619038 534.847838 565.211095 543.10586 
C 543.803152 551.363882 521.052498 555.595778 498.107022 555.588026 
C 475.161546 555.580275 452.413755 551.333009 431.011397 543.060525 
C 409.609038 534.788041 389.918223 522.631849 372.932455 507.205293 
C 355.946687 491.778737 341.956527 473.345706 331.667852 452.836242 
C 321.379178 432.326778 314.967988 410.091718 312.75776 387.252939 
C 310.547532 364.41416 312.576076 341.362344 318.74104 319.260576 
C 324.906004 297.158807 335.101929 276.385162 348.814379 257.98778 
C 362.526829 239.590398 379.521235 223.883987 398.940142 211.661016 
z
" style="fill: #1f77b4"/>
   </g>
   <g id="patch_7">
    <path d="M 451.960098 107.240474 
C 435.032499 110.225265 418.43384 114.843132 402.396891 121.029316 
C 386.359942 127.2155 370.960019 134.940947 356.413081 144.097322 
L 398.940142 211.661016 
C 409.122998 205.251554 419.902944 199.843741 431.128809 195.513412 
C 442.354673 191.183084 453.973734 187.950577 465.823054 185.861223 
z
" style="fill: #ff7f0e"/>
   </g>
   <g id="matplotlib.axis_1"/>
   <g id="matplotlib.axis_2"/>
  </g>
 </g>
</svg>
