<?xml version="1.0" encoding="utf-8" standalone="no"?>
<!DOCTYPE svg PUBLIC "-//W3C//DTD SVG 1.1//EN"
  "http://www.w3.org/Graphics/SVG/1.1/DTD/svg11.dtd">
<svg xmlns:xlink="http://www.w3.org/1999/xlink" width="1001.599275pt" height="788.543186pt" viewBox="0 0 1001.599275 788.543186" xmlns="http://www.w3.org/2000/svg" version="1.1">
 <metadata>
  <rdf:RDF xmlns:dc="http://purl.org/dc/elements/1.1/" xmlns:cc="http://creativecommons.org/ns#" xmlns:rdf="http://www.w3.org/1999/02/22-rdf-syntax-ns#">
   <cc:Work>
    <dc:type rdf:resource="http://purl.org/dc/dcmitype/StillImage"/>
    <dc:date>2023-10-13T09:53:08.195992</dc:date>
    <dc:format>image/svg+xml</dc:format>
    <dc:creator>
     <cc:Agent>
      <dc:title>Matplotlib v3.7.3, https://matplotlib.org/</dc:title>
     </cc:Agent>
    </dc:creator>
   </cc:Work>
  </rdf:RDF>
 </metadata>
 <defs>
  <style type="text/css">*{stroke-linejoin: round; stroke-linecap: butt}</style>
 </defs>
 <g id="figure_1">
  <g id="patch_1">
   <path d="M 0 788.543186 
L 1001.599275 788.543186 
L 1001.599275 0 
L 0 0 
z
" style="fill: #ffffff"/>
  </g>
  <g id="axes_1">
   <g id="patch_2">
    <path d="M 854.796781 21.717187 
L 504.882245 21.717187 
L 504.50777 126.163527 
" style="fill: none; stroke: #000000; stroke-width: 3; stroke-linecap: round"/>
   </g>
   <g id="text_1">
    <g id="patch_3">
     <path d="M 856.797713 42.234375 
L 1000.399275 42.234375 
L 1000.399275 1.2 
L 856.797713 1.2 
z
" style="fill: #ffffff"/>
    </g>
    <!-- N [5.5%] -->
    <g transform="translate(862.797713 29.995312) scale(0.3 -0.3)">
     <defs>
      <path id="DejaVuSans-4e" d="M 628 4666 
L 1478 4666 
L 3547 763 
L 3547 4666 
L 4159 4666 
L 4159 0 
L 3309 0 
L 1241 3903 
L 1241 0 
L 628 0 
L 628 4666 
z
" transform="scale(0.015625)"/>
      <path id="DejaVuSans-20" transform="scale(0.015625)"/>
      <path id="DejaVuSans-5b" d="M 550 4863 
L 1875 4863 
L 1875 4416 
L 1125 4416 
L 1125 -397 
L 1875 -397 
L 1875 -844 
L 550 -844 
L 550 4863 
z
" transform="scale(0.015625)"/>
      <path id="DejaVuSans-35" d="M 691 4666 
L 3169 4666 
L 3169 4134 
L 1269 4134 
L 1269 2991 
Q 1406 3038 1543 3061 
Q 1681 3084 1819 3084 
Q 2600 3084 3056 2656 
Q 3513 2228 3513 1497 
Q 3513 744 3044 326 
Q 2575 -91 1722 -91 
Q 1428 -91 1123 -41 
Q 819 9 494 109 
L 494 744 
Q 775 591 1075 516 
Q 1375 441 1709 441 
Q 2250 441 2565 725 
Q 2881 1009 2881 1497 
Q 2881 1984 2565 2268 
Q 2250 2553 1709 2553 
Q 1456 2553 1204 2497 
Q 953 2441 691 2322 
L 691 4666 
z
" transform="scale(0.015625)"/>
      <path id="DejaVuSans-2e" d="M 684 794 
L 1344 794 
L 1344 0 
L 684 0 
L 684 794 
z
" transform="scale(0.015625)"/>
      <path id="DejaVuSans-25" d="M 4653 2053 
Q 4381 2053 4226 1822 
Q 4072 1591 4072 1178 
Q 4072 772 4226 539 
Q 4381 306 4653 306 
Q 4919 306 5073 539 
Q 5228 772 5228 1178 
Q 5228 1588 5073 1820 
Q 4919 2053 4653 2053 
z
M 4653 2450 
Q 5147 2450 5437 2106 
Q 5728 1763 5728 1178 
Q 5728 594 5436 251 
Q 5144 -91 4653 -91 
Q 4153 -91 3862 251 
Q 3572 594 3572 1178 
Q 3572 1766 3864 2108 
Q 4156 2450 4653 2450 
z
M 1428 4353 
Q 1159 4353 1004 4120 
Q 850 3888 850 3481 
Q 850 3069 1003 2837 
Q 1156 2606 1428 2606 
Q 1700 2606 1854 2837 
Q 2009 3069 2009 3481 
Q 2009 3884 1853 4118 
Q 1697 4353 1428 4353 
z
M 4250 4750 
L 4750 4750 
L 1831 -91 
L 1331 -91 
L 4250 4750 
z
M 1428 4750 
Q 1922 4750 2215 4408 
Q 2509 4066 2509 3481 
Q 2509 2891 2217 2550 
Q 1925 2209 1428 2209 
Q 931 2209 642 2551 
Q 353 2894 353 3481 
Q 353 4063 643 4406 
Q 934 4750 1428 4750 
z
" transform="scale(0.015625)"/>
      <path id="DejaVuSans-5d" d="M 1947 4863 
L 1947 -844 
L 622 -844 
L 622 -397 
L 1369 -397 
L 1369 4416 
L 622 4416 
L 622 4863 
L 1947 4863 
z
" transform="scale(0.015625)"/>
     </defs>
     <use xlink:href="#DejaVuSans-4e"/>
     <use xlink:href="#DejaVuSans-20" x="74.804688"/>
     <use xlink:href="#DejaVuSans-5b" x="106.591797"/>
     <use xlink:href="#DejaVuSans-35" x="145.605469"/>
     <use xlink:href="#DejaVuSans-2e" x="209.228516"/>
     <use xlink:href="#DejaVuSans-35" x="241.015625"/>
     <use xlink:href="#DejaVuSans-25" x="304.638672"/>
     <use xlink:href="#DejaVuSans-5d" x="399.658203"/>
    </g>
   </g>
   <g id="patch_4">
    <path d="M 152.29242 766.825998 
L 502.210749 766.825998 
L 502.585233 662.379659 
" style="fill: none; stroke: #000000; stroke-width: 3; stroke-linecap: round"/>
   </g>
   <g id="text_2">
    <g id="patch_5">
     <path d="M 1.2 787.343186 
L 150.295312 787.343186 
L 150.295312 746.308811 
L 1.2 746.308811 
z
" style="fill: #ffffff"/>
    </g>
    <!-- I [91.8%] -->
    <g transform="translate(7.2 775.104123) scale(0.3 -0.3)">
     <defs>
      <path id="DejaVuSans-49" d="M 628 4666 
L 1259 4666 
L 1259 0 
L 628 0 
L 628 4666 
z
" transform="scale(0.015625)"/>
      <path id="DejaVuSans-39" d="M 703 97 
L 703 672 
Q 941 559 1184 500 
Q 1428 441 1663 441 
Q 2288 441 2617 861 
Q 2947 1281 2994 2138 
Q 2813 1869 2534 1725 
Q 2256 1581 1919 1581 
Q 1219 1581 811 2004 
Q 403 2428 403 3163 
Q 403 3881 828 4315 
Q 1253 4750 1959 4750 
Q 2769 4750 3195 4129 
Q 3622 3509 3622 2328 
Q 3622 1225 3098 567 
Q 2575 -91 1691 -91 
Q 1453 -91 1209 -44 
Q 966 3 703 97 
z
M 1959 2075 
Q 2384 2075 2632 2365 
Q 2881 2656 2881 3163 
Q 2881 3666 2632 3958 
Q 2384 4250 1959 4250 
Q 1534 4250 1286 3958 
Q 1038 3666 1038 3163 
Q 1038 2656 1286 2365 
Q 1534 2075 1959 2075 
z
" transform="scale(0.015625)"/>
      <path id="DejaVuSans-31" d="M 794 531 
L 1825 531 
L 1825 4091 
L 703 3866 
L 703 4441 
L 1819 4666 
L 2450 4666 
L 2450 531 
L 3481 531 
L 3481 0 
L 794 0 
L 794 531 
z
" transform="scale(0.015625)"/>
      <path id="DejaVuSans-38" d="M 2034 2216 
Q 1584 2216 1326 1975 
Q 1069 1734 1069 1313 
Q 1069 891 1326 650 
Q 1584 409 2034 409 
Q 2484 409 2743 651 
Q 3003 894 3003 1313 
Q 3003 1734 2745 1975 
Q 2488 2216 2034 2216 
z
M 1403 2484 
Q 997 2584 770 2862 
Q 544 3141 544 3541 
Q 544 4100 942 4425 
Q 1341 4750 2034 4750 
Q 2731 4750 3128 4425 
Q 3525 4100 3525 3541 
Q 3525 3141 3298 2862 
Q 3072 2584 2669 2484 
Q 3125 2378 3379 2068 
Q 3634 1759 3634 1313 
Q 3634 634 3220 271 
Q 2806 -91 2034 -91 
Q 1263 -91 848 271 
Q 434 634 434 1313 
Q 434 1759 690 2068 
Q 947 2378 1403 2484 
z
M 1172 3481 
Q 1172 3119 1398 2916 
Q 1625 2713 2034 2713 
Q 2441 2713 2670 2916 
Q 2900 3119 2900 3481 
Q 2900 3844 2670 4047 
Q 2441 4250 2034 4250 
Q 1625 4250 1398 4047 
Q 1172 3844 1172 3481 
z
" transform="scale(0.015625)"/>
     </defs>
     <use xlink:href="#DejaVuSans-49"/>
     <use xlink:href="#DejaVuSans-20" x="29.492188"/>
     <use xlink:href="#DejaVuSans-5b" x="61.279297"/>
     <use xlink:href="#DejaVuSans-39" x="100.292969"/>
     <use xlink:href="#DejaVuSans-31" x="163.916016"/>
     <use xlink:href="#DejaVuSans-2e" x="227.539062"/>
     <use xlink:href="#DejaVuSans-38" x="259.326172"/>
     <use xlink:href="#DejaVuSans-25" x="322.949219"/>
     <use xlink:href="#DejaVuSans-5d" x="417.96875"/>
    </g>
   </g>
   <g id="patch_6">
    <path d="M 551.634376 132.540521 
C 536.084419 129.683527 520.310742 128.217988 504.500607 128.161303 
C 488.690472 128.104619 472.906692 129.457013 457.336649 132.202432 
L 471.199608 210.82318 
C 482.098638 208.901387 493.147284 207.954711 504.214379 207.99439 
C 515.281473 208.034069 526.323047 209.059947 537.208017 211.059843 
z
" style="fill: #1f77b4"/>
   </g>
   <g id="patch_7">
    <path d="M 457.336692 132.202425 
C 424.884661 137.924588 393.776008 149.625092 365.596731 166.707417 
C 337.417454 183.789742 312.654715 205.958568 292.570981 232.083672 
C 272.487247 258.208777 257.429725 287.838511 248.166085 319.462275 
C 238.902446 351.086039 235.592838 384.157123 238.405995 416.989479 
C 241.219151 449.821836 250.106438 481.84786 264.614758 511.434784 
C 279.123079 541.021709 299.001614 567.658036 323.236906 589.985779 
C 347.472198 612.313521 375.645268 629.946678 406.319782 641.986266 
C 436.994295 654.025855 469.639953 660.263734 502.592396 660.381883 
C 535.544839 660.500031 568.234387 654.496405 598.994445 642.677086 
C 629.754503 630.857766 658.053291 613.427084 682.448067 591.273701 
C 706.842842 569.120317 726.911869 542.627219 741.631976 513.14509 
C 756.352084 483.662962 765.468793 451.70149 768.517309 418.89015 
C 771.565826 386.07881 768.493448 352.984844 759.456812 321.295466 
C 750.420177 289.606088 735.575509 259.869142 715.679628 233.600694 
C 695.783747 207.332245 671.180612 184.986422 643.124552 167.70247 
C 615.068493 150.418518 584.044541 138.495243 551.634376 132.540521 
L 537.208017 211.059843 
C 559.895132 215.228148 581.611899 223.574441 601.25114 235.673207 
C 620.890382 247.771973 638.112577 263.41405 652.039693 281.801964 
C 665.96681 300.189878 676.358077 321.005739 682.683722 343.188304 
C 689.009367 365.370869 691.160032 388.536645 689.02607 411.504583 
C 686.892109 434.472521 680.510413 456.845551 670.206337 477.483041 
C 659.902262 498.120531 645.853943 516.6657 628.7776 532.173068 
C 611.701258 547.680437 591.892106 559.881914 570.360065 568.155438 
C 548.828025 576.428962 525.945341 580.631499 502.878631 580.548796 
C 479.811921 580.466092 456.95996 576.099576 435.487801 567.671864 
C 414.015641 559.244152 394.294493 546.900943 377.329788 531.271523 
C 360.365084 515.642103 346.450109 496.996674 336.294285 476.285827 
C 326.13846 455.57498 319.917359 433.156763 317.94815 410.174113 
C 315.978941 387.191464 318.295666 364.041705 324.780214 341.90507 
C 331.264761 319.768436 341.805027 299.027622 355.86364 280.740049 
C 369.922254 262.452475 387.256171 246.934297 406.981665 234.97667 
C 426.707159 223.019043 448.483216 214.828689 471.199638 210.823175 
z
" style="fill: #ff7f0e"/>
   </g>
   <g id="matplotlib.axis_1"/>
   <g id="matplotlib.axis_2"/>
  </g>
 </g>
</svg>
