<?xml version="1.0" encoding="utf-8" standalone="no"?>
<!DOCTYPE svg PUBLIC "-//W3C//DTD SVG 1.1//EN"
  "http://www.w3.org/Graphics/SVG/1.1/DTD/svg11.dtd">
<svg xmlns:xlink="http://www.w3.org/1999/xlink" width="1009.150838pt" height="701.164701pt" viewBox="0 0 1009.150838 701.164701" xmlns="http://www.w3.org/2000/svg" version="1.1">
 <metadata>
  <rdf:RDF xmlns:dc="http://purl.org/dc/elements/1.1/" xmlns:cc="http://creativecommons.org/ns#" xmlns:rdf="http://www.w3.org/1999/02/22-rdf-syntax-ns#">
   <cc:Work>
    <dc:type rdf:resource="http://purl.org/dc/dcmitype/StillImage"/>
    <dc:date>2023-10-13T09:50:47.848428</dc:date>
    <dc:format>image/svg+xml</dc:format>
    <dc:creator>
     <cc:Agent>
      <dc:title>Matplotlib v3.7.3, https://matplotlib.org/</dc:title>
     </cc:Agent>
    </dc:creator>
   </cc:Work>
  </rdf:RDF>
 </metadata>
 <defs>
  <style type="text/css">*{stroke-linejoin: round; stroke-linecap: butt}</style>
 </defs>
 <g id="figure_1">
  <g id="patch_1">
   <path d="M 0 701.164701 
L 1009.150838 701.164701 
L 1009.150838 0 
L 0 0 
z
" style="fill: #ffffff"/>
  </g>
  <g id="axes_1">
   <g id="patch_2">
    <path d="M 845.186581 679.447514 
L 668.993241 679.447514 
L 619.914614 587.249539 
" style="fill: none; stroke: #000000; stroke-width: 3; stroke-linecap: round"/>
   </g>
   <g id="text_1">
    <g id="patch_3">
     <path d="M 847.18365 699.964701 
L 1007.950838 699.964701 
L 1007.950838 658.930326 
L 847.18365 658.930326 
z
" style="fill: #ffffff"/>
    </g>
    <!-- A [89.4%] -->
    <g transform="translate(853.18365 687.725639) scale(0.3 -0.3)">
     <defs>
      <path id="DejaVuSans-41" d="M 2188 4044 
L 1331 1722 
L 3047 1722 
L 2188 4044 
z
M 1831 4666 
L 2547 4666 
L 4325 0 
L 3669 0 
L 3244 1197 
L 1141 1197 
L 716 0 
L 50 0 
L 1831 4666 
z
" transform="scale(0.015625)"/>
      <path id="DejaVuSans-20" transform="scale(0.015625)"/>
      <path id="DejaVuSans-5b" d="M 550 4863 
L 1875 4863 
L 1875 4416 
L 1125 4416 
L 1125 -397 
L 1875 -397 
L 1875 -844 
L 550 -844 
L 550 4863 
z
" transform="scale(0.015625)"/>
      <path id="DejaVuSans-38" d="M 2034 2216 
Q 1584 2216 1326 1975 
Q 1069 1734 1069 1313 
Q 1069 891 1326 650 
Q 1584 409 2034 409 
Q 2484 409 2743 651 
Q 3003 894 3003 1313 
Q 3003 1734 2745 1975 
Q 2488 2216 2034 2216 
z
M 1403 2484 
Q 997 2584 770 2862 
Q 544 3141 544 3541 
Q 544 4100 942 4425 
Q 1341 4750 2034 4750 
Q 2731 4750 3128 4425 
Q 3525 4100 3525 3541 
Q 3525 3141 3298 2862 
Q 3072 2584 2669 2484 
Q 3125 2378 3379 2068 
Q 3634 1759 3634 1313 
Q 3634 634 3220 271 
Q 2806 -91 2034 -91 
Q 1263 -91 848 271 
Q 434 634 434 1313 
Q 434 1759 690 2068 
Q 947 2378 1403 2484 
z
M 1172 3481 
Q 1172 3119 1398 2916 
Q 1625 2713 2034 2713 
Q 2441 2713 2670 2916 
Q 2900 3119 2900 3481 
Q 2900 3844 2670 4047 
Q 2441 4250 2034 4250 
Q 1625 4250 1398 4047 
Q 1172 3844 1172 3481 
z
" transform="scale(0.015625)"/>
      <path id="DejaVuSans-39" d="M 703 97 
L 703 672 
Q 941 559 1184 500 
Q 1428 441 1663 441 
Q 2288 441 2617 861 
Q 2947 1281 2994 2138 
Q 2813 1869 2534 1725 
Q 2256 1581 1919 1581 
Q 1219 1581 811 2004 
Q 403 2428 403 3163 
Q 403 3881 828 4315 
Q 1253 4750 1959 4750 
Q 2769 4750 3195 4129 
Q 3622 3509 3622 2328 
Q 3622 1225 3098 567 
Q 2575 -91 1691 -91 
Q 1453 -91 1209 -44 
Q 966 3 703 97 
z
M 1959 2075 
Q 2384 2075 2632 2365 
Q 2881 2656 2881 3163 
Q 2881 3666 2632 3958 
Q 2384 4250 1959 4250 
Q 1534 4250 1286 3958 
Q 1038 3666 1038 3163 
Q 1038 2656 1286 2365 
Q 1534 2075 1959 2075 
z
" transform="scale(0.015625)"/>
      <path id="DejaVuSans-2e" d="M 684 794 
L 1344 794 
L 1344 0 
L 684 0 
L 684 794 
z
" transform="scale(0.015625)"/>
      <path id="DejaVuSans-34" d="M 2419 4116 
L 825 1625 
L 2419 1625 
L 2419 4116 
z
M 2253 4666 
L 3047 4666 
L 3047 1625 
L 3713 1625 
L 3713 1100 
L 3047 1100 
L 3047 0 
L 2419 0 
L 2419 1100 
L 313 1100 
L 313 1709 
L 2253 4666 
z
" transform="scale(0.015625)"/>
      <path id="DejaVuSans-25" d="M 4653 2053 
Q 4381 2053 4226 1822 
Q 4072 1591 4072 1178 
Q 4072 772 4226 539 
Q 4381 306 4653 306 
Q 4919 306 5073 539 
Q 5228 772 5228 1178 
Q 5228 1588 5073 1820 
Q 4919 2053 4653 2053 
z
M 4653 2450 
Q 5147 2450 5437 2106 
Q 5728 1763 5728 1178 
Q 5728 594 5436 251 
Q 5144 -91 4653 -91 
Q 4153 -91 3862 251 
Q 3572 594 3572 1178 
Q 3572 1766 3864 2108 
Q 4156 2450 4653 2450 
z
M 1428 4353 
Q 1159 4353 1004 4120 
Q 850 3888 850 3481 
Q 850 3069 1003 2837 
Q 1156 2606 1428 2606 
Q 1700 2606 1854 2837 
Q 2009 3069 2009 3481 
Q 2009 3884 1853 4118 
Q 1697 4353 1428 4353 
z
M 4250 4750 
L 4750 4750 
L 1831 -91 
L 1331 -91 
L 4250 4750 
z
M 1428 4750 
Q 1922 4750 2215 4408 
Q 2509 4066 2509 3481 
Q 2509 2891 2217 2550 
Q 1925 2209 1428 2209 
Q 931 2209 642 2551 
Q 353 2894 353 3481 
Q 353 4063 643 4406 
Q 934 4750 1428 4750 
z
" transform="scale(0.015625)"/>
      <path id="DejaVuSans-5d" d="M 1947 4863 
L 1947 -844 
L 622 -844 
L 622 -397 
L 1369 -397 
L 1369 4416 
L 622 4416 
L 622 4863 
L 1947 4863 
z
" transform="scale(0.015625)"/>
     </defs>
     <use xlink:href="#DejaVuSans-41"/>
     <use xlink:href="#DejaVuSans-20" x="68.408203"/>
     <use xlink:href="#DejaVuSans-5b" x="100.195312"/>
     <use xlink:href="#DejaVuSans-38" x="139.208984"/>
     <use xlink:href="#DejaVuSans-39" x="202.832031"/>
     <use xlink:href="#DejaVuSans-2e" x="266.455078"/>
     <use xlink:href="#DejaVuSans-34" x="298.242188"/>
     <use xlink:href="#DejaVuSans-25" x="361.865234"/>
     <use xlink:href="#DejaVuSans-5d" x="456.884766"/>
    </g>
   </g>
   <g id="patch_4">
    <path d="M 142.681017 21.717187 
L 318.871698 21.717187 
L 367.950314 113.915167 
" style="fill: none; stroke: #000000; stroke-width: 3; stroke-linecap: round"/>
   </g>
   <g id="text_2">
    <g id="patch_5">
     <path d="M 1.2 42.234375 
L 140.68125 42.234375 
L 140.68125 1.2 
L 1.2 1.2 
z
" style="fill: #ffffff"/>
    </g>
    <!-- T [9.9%] -->
    <g transform="translate(7.2 29.995312) scale(0.3 -0.3)">
     <defs>
      <path id="DejaVuSans-54" d="M -19 4666 
L 3928 4666 
L 3928 4134 
L 2272 4134 
L 2272 0 
L 1638 0 
L 1638 4134 
L -19 4134 
L -19 4666 
z
" transform="scale(0.015625)"/>
     </defs>
     <use xlink:href="#DejaVuSans-54"/>
     <use xlink:href="#DejaVuSans-20" x="61.083984"/>
     <use xlink:href="#DejaVuSans-5b" x="92.871094"/>
     <use xlink:href="#DejaVuSans-39" x="131.884766"/>
     <use xlink:href="#DejaVuSans-2e" x="195.507812"/>
     <use xlink:href="#DejaVuSans-39" x="227.294922"/>
     <use xlink:href="#DejaVuSans-25" x="290.917969"/>
     <use xlink:href="#DejaVuSans-5d" x="385.9375"/>
    </g>
   </g>
   <g id="patch_6">
    <path d="M 302.332265 165.907063 
C 280.522935 188.534191 262.89328 214.846838 250.261885 243.623245 
C 237.63049 272.399653 230.195931 303.187434 228.303412 334.557039 
C 226.410893 365.926644 230.090166 397.384919 239.170393 427.471182 
C 248.25062 457.557446 262.589054 485.798718 281.519926 510.88369 
C 300.450798 535.968662 323.676502 557.502979 350.118612 574.486753 
C 376.560723 591.470526 405.80355 603.636757 436.489281 610.420539 
C 467.175011 617.204321 498.821242 618.499008 529.958563 614.244485 
C 561.095885 609.989962 591.234795 600.253112 618.975872 585.486041 
C 646.71695 570.718971 671.624084 551.153828 692.540778 527.69907 
C 713.457471 504.244312 730.054898 477.268665 741.562401 448.024672 
C 753.069903 418.780678 759.306575 387.728077 759.982831 356.308713 
C 760.659088 324.889349 755.764299 293.597159 745.52574 263.885113 
C 735.287182 234.173067 719.865812 206.508261 699.977682 182.175238 
C 680.089551 157.842214 656.047316 137.223507 628.967316 121.276492 
C 601.887315 105.329476 572.195266 94.304851 541.269841 88.714516 
C 510.344416 83.124181 478.671786 83.056021 447.722586 88.5132 
L 461.585545 167.133948 
C 483.249985 163.313923 505.420826 163.361635 527.068623 167.27487 
C 548.716421 171.188104 569.500855 178.905341 588.456856 190.068252 
C 607.412857 201.231163 624.242421 215.664258 638.164112 232.697375 
C 652.085803 249.730491 662.880762 269.095855 670.047753 289.894287 
C 677.214744 310.692719 680.641097 332.597252 680.167717 354.590807 
C 679.694337 376.584362 675.328667 398.321183 667.273416 418.791978 
C 659.218164 439.262774 647.599965 458.145727 632.958279 474.564057 
C 618.316594 490.982388 600.8816 504.677988 581.462845 515.014937 
C 562.044091 525.351887 540.946854 532.167681 519.150729 535.145848 
C 497.354604 538.124014 475.202243 537.217733 453.722231 532.469085 
C 432.24222 527.720438 411.772241 519.204076 393.262764 507.315435 
C 374.753286 495.426794 358.495294 480.352772 345.243683 462.793291 
C 331.992072 445.233811 321.955169 425.46492 315.59901 404.404536 
C 309.242851 383.344152 306.66736 361.323359 307.992124 339.364635 
C 309.316887 317.405912 314.521078 295.854465 323.363055 275.71098 
C 332.205031 255.567495 344.54579 237.148642 359.81232 221.309653 
z
" style="fill: #1f77b4"/>
   </g>
   <g id="patch_7">
    <path d="M 447.722647 88.513189 
C 420.180833 93.369548 393.57595 102.537394 368.889055 115.678666 
C 344.20216 128.819937 321.740472 145.771094 302.332265 165.907063 
L 359.81232 221.309653 
C 373.398065 207.214474 389.121247 195.348664 406.402074 186.149774 
C 423.6829 176.950884 442.306318 170.533392 461.585588 167.133941 
z
" style="fill: #ff7f0e"/>
   </g>
   <g id="matplotlib.axis_1"/>
   <g id="matplotlib.axis_2"/>
  </g>
 </g>
</svg>
