<?xml version="1.0" encoding="utf-8" standalone="no"?>
<!DOCTYPE svg PUBLIC "-//W3C//DTD SVG 1.1//EN"
  "http://www.w3.org/Graphics/SVG/1.1/DTD/svg11.dtd">
<svg xmlns:xlink="http://www.w3.org/1999/xlink" width="1008.3024pt" height="704.908207pt" viewBox="0 0 1008.3024 704.908207" xmlns="http://www.w3.org/2000/svg" version="1.1">
 <metadata>
  <rdf:RDF xmlns:dc="http://purl.org/dc/elements/1.1/" xmlns:cc="http://creativecommons.org/ns#" xmlns:rdf="http://www.w3.org/1999/02/22-rdf-syntax-ns#">
   <cc:Work>
    <dc:type rdf:resource="http://purl.org/dc/dcmitype/StillImage"/>
    <dc:date>2023-10-13T10:00:04.104095</dc:date>
    <dc:format>image/svg+xml</dc:format>
    <dc:creator>
     <cc:Agent>
      <dc:title>Matplotlib v3.7.3, https://matplotlib.org/</dc:title>
     </cc:Agent>
    </dc:creator>
   </cc:Work>
  </rdf:RDF>
 </metadata>
 <defs>
  <style type="text/css">*{stroke-linejoin: round; stroke-linecap: butt}</style>
 </defs>
 <g id="figure_1">
  <g id="patch_1">
   <path d="M 0 704.908207 
L 1008.3024 704.908207 
L 1008.3024 0 
L 0 0 
z
" style="fill: #ffffff"/>
  </g>
  <g id="axes_1">
   <g id="patch_2">
    <path d="M 846.534583 683.19102 
L 666.780726 683.19102 
L 618.700857 590.468292 
" style="fill: none; stroke: #000000; stroke-width: 3; stroke-linecap: round"/>
   </g>
   <g id="text_1">
    <g id="patch_3">
     <path d="M 848.53365 703.708207 
L 1007.1024 703.708207 
L 1007.1024 662.673832 
L 848.53365 662.673832 
z
" style="fill: #ffffff"/>
    </g>
    <!-- T [89.8%] -->
    <g transform="translate(854.53365 691.469145) scale(0.3 -0.3)">
     <defs>
      <path id="DejaVuSans-54" d="M -19 4666 
L 3928 4666 
L 3928 4134 
L 2272 4134 
L 2272 0 
L 1638 0 
L 1638 4134 
L -19 4134 
L -19 4666 
z
" transform="scale(0.015625)"/>
      <path id="DejaVuSans-20" transform="scale(0.015625)"/>
      <path id="DejaVuSans-5b" d="M 550 4863 
L 1875 4863 
L 1875 4416 
L 1125 4416 
L 1125 -397 
L 1875 -397 
L 1875 -844 
L 550 -844 
L 550 4863 
z
" transform="scale(0.015625)"/>
      <path id="DejaVuSans-38" d="M 2034 2216 
Q 1584 2216 1326 1975 
Q 1069 1734 1069 1313 
Q 1069 891 1326 650 
Q 1584 409 2034 409 
Q 2484 409 2743 651 
Q 3003 894 3003 1313 
Q 3003 1734 2745 1975 
Q 2488 2216 2034 2216 
z
M 1403 2484 
Q 997 2584 770 2862 
Q 544 3141 544 3541 
Q 544 4100 942 4425 
Q 1341 4750 2034 4750 
Q 2731 4750 3128 4425 
Q 3525 4100 3525 3541 
Q 3525 3141 3298 2862 
Q 3072 2584 2669 2484 
Q 3125 2378 3379 2068 
Q 3634 1759 3634 1313 
Q 3634 634 3220 271 
Q 2806 -91 2034 -91 
Q 1263 -91 848 271 
Q 434 634 434 1313 
Q 434 1759 690 2068 
Q 947 2378 1403 2484 
z
M 1172 3481 
Q 1172 3119 1398 2916 
Q 1625 2713 2034 2713 
Q 2441 2713 2670 2916 
Q 2900 3119 2900 3481 
Q 2900 3844 2670 4047 
Q 2441 4250 2034 4250 
Q 1625 4250 1398 4047 
Q 1172 3844 1172 3481 
z
" transform="scale(0.015625)"/>
      <path id="DejaVuSans-39" d="M 703 97 
L 703 672 
Q 941 559 1184 500 
Q 1428 441 1663 441 
Q 2288 441 2617 861 
Q 2947 1281 2994 2138 
Q 2813 1869 2534 1725 
Q 2256 1581 1919 1581 
Q 1219 1581 811 2004 
Q 403 2428 403 3163 
Q 403 3881 828 4315 
Q 1253 4750 1959 4750 
Q 2769 4750 3195 4129 
Q 3622 3509 3622 2328 
Q 3622 1225 3098 567 
Q 2575 -91 1691 -91 
Q 1453 -91 1209 -44 
Q 966 3 703 97 
z
M 1959 2075 
Q 2384 2075 2632 2365 
Q 2881 2656 2881 3163 
Q 2881 3666 2632 3958 
Q 2384 4250 1959 4250 
Q 1534 4250 1286 3958 
Q 1038 3666 1038 3163 
Q 1038 2656 1286 2365 
Q 1534 2075 1959 2075 
z
" transform="scale(0.015625)"/>
      <path id="DejaVuSans-2e" d="M 684 794 
L 1344 794 
L 1344 0 
L 684 0 
L 684 794 
z
" transform="scale(0.015625)"/>
      <path id="DejaVuSans-25" d="M 4653 2053 
Q 4381 2053 4226 1822 
Q 4072 1591 4072 1178 
Q 4072 772 4226 539 
Q 4381 306 4653 306 
Q 4919 306 5073 539 
Q 5228 772 5228 1178 
Q 5228 1588 5073 1820 
Q 4919 2053 4653 2053 
z
M 4653 2450 
Q 5147 2450 5437 2106 
Q 5728 1763 5728 1178 
Q 5728 594 5436 251 
Q 5144 -91 4653 -91 
Q 4153 -91 3862 251 
Q 3572 594 3572 1178 
Q 3572 1766 3864 2108 
Q 4156 2450 4653 2450 
z
M 1428 4353 
Q 1159 4353 1004 4120 
Q 850 3888 850 3481 
Q 850 3069 1003 2837 
Q 1156 2606 1428 2606 
Q 1700 2606 1854 2837 
Q 2009 3069 2009 3481 
Q 2009 3884 1853 4118 
Q 1697 4353 1428 4353 
z
M 4250 4750 
L 4750 4750 
L 1831 -91 
L 1331 -91 
L 4250 4750 
z
M 1428 4750 
Q 1922 4750 2215 4408 
Q 2509 4066 2509 3481 
Q 2509 2891 2217 2550 
Q 1925 2209 1428 2209 
Q 931 2209 642 2551 
Q 353 2894 353 3481 
Q 353 4063 643 4406 
Q 934 4750 1428 4750 
z
" transform="scale(0.015625)"/>
      <path id="DejaVuSans-5d" d="M 1947 4863 
L 1947 -844 
L 622 -844 
L 622 -397 
L 1369 -397 
L 1369 4416 
L 622 4416 
L 622 4863 
L 1947 4863 
z
" transform="scale(0.015625)"/>
     </defs>
     <use xlink:href="#DejaVuSans-54"/>
     <use xlink:href="#DejaVuSans-20" x="61.083984"/>
     <use xlink:href="#DejaVuSans-5b" x="92.871094"/>
     <use xlink:href="#DejaVuSans-38" x="131.884766"/>
     <use xlink:href="#DejaVuSans-39" x="195.507812"/>
     <use xlink:href="#DejaVuSans-2e" x="259.130859"/>
     <use xlink:href="#DejaVuSans-38" x="290.917969"/>
     <use xlink:href="#DejaVuSans-25" x="354.541016"/>
     <use xlink:href="#DejaVuSans-5d" x="449.560547"/>
    </g>
   </g>
   <g id="patch_4">
    <path d="M 144.033505 21.717187 
L 323.784158 21.717187 
L 371.864032 114.439913 
" style="fill: none; stroke: #000000; stroke-width: 3; stroke-linecap: round"/>
   </g>
   <g id="text_2">
    <g id="patch_5">
     <path d="M 1.2 42.234375 
L 142.03125 42.234375 
L 142.03125 1.2 
L 1.2 1.2 
z
" style="fill: #ffffff"/>
    </g>
    <!-- K [9.6%] -->
    <g transform="translate(7.2 29.995312) scale(0.3 -0.3)">
     <defs>
      <path id="DejaVuSans-4b" d="M 628 4666 
L 1259 4666 
L 1259 2694 
L 3353 4666 
L 4166 4666 
L 1850 2491 
L 4331 0 
L 3500 0 
L 1259 2247 
L 1259 0 
L 628 0 
L 628 4666 
z
" transform="scale(0.015625)"/>
      <path id="DejaVuSans-36" d="M 2113 2584 
Q 1688 2584 1439 2293 
Q 1191 2003 1191 1497 
Q 1191 994 1439 701 
Q 1688 409 2113 409 
Q 2538 409 2786 701 
Q 3034 994 3034 1497 
Q 3034 2003 2786 2293 
Q 2538 2584 2113 2584 
z
M 3366 4563 
L 3366 3988 
Q 3128 4100 2886 4159 
Q 2644 4219 2406 4219 
Q 1781 4219 1451 3797 
Q 1122 3375 1075 2522 
Q 1259 2794 1537 2939 
Q 1816 3084 2150 3084 
Q 2853 3084 3261 2657 
Q 3669 2231 3669 1497 
Q 3669 778 3244 343 
Q 2819 -91 2113 -91 
Q 1303 -91 875 529 
Q 447 1150 447 2328 
Q 447 3434 972 4092 
Q 1497 4750 2381 4750 
Q 2619 4750 2861 4703 
Q 3103 4656 3366 4563 
z
" transform="scale(0.015625)"/>
     </defs>
     <use xlink:href="#DejaVuSans-4b"/>
     <use xlink:href="#DejaVuSans-20" x="65.576172"/>
     <use xlink:href="#DejaVuSans-5b" x="97.363281"/>
     <use xlink:href="#DejaVuSans-39" x="136.376953"/>
     <use xlink:href="#DejaVuSans-2e" x="200"/>
     <use xlink:href="#DejaVuSans-36" x="231.787109"/>
     <use xlink:href="#DejaVuSans-25" x="295.410156"/>
     <use xlink:href="#DejaVuSans-5d" x="390.429688"/>
    </g>
   </g>
   <g id="patch_6">
    <path d="M 307.716355 163.682924 
C 285.337696 185.918722 267.090351 211.957846 253.828017 240.582059 
C 240.565684 269.206272 232.498465 299.96211 230.003784 331.410665 
C 227.509104 362.85922 230.626481 394.502285 239.210072 424.859443 
C 247.793662 455.216601 261.707484 483.806934 280.300582 509.292848 
C 298.893679 534.778761 321.8715 556.756508 348.15903 574.197861 
C 374.44656 591.639215 403.627353 604.26787 434.336189 611.492996 
C 465.045025 618.718122 496.795415 620.42526 528.101922 616.53454 
C 559.408429 612.64382 589.775094 603.21688 617.781219 588.694757 
C 645.787344 574.172634 670.989254 554.785389 692.207883 531.44005 
C 713.426512 508.094711 730.325713 481.161115 742.114861 451.899348 
C 753.904009 422.63758 760.396339 391.511204 761.288109 359.976465 
C 762.179879 328.441725 757.456961 296.998194 747.340316 267.116953 
C 737.223672 237.235712 721.873568 209.39014 702.008158 184.882986 
C 682.142749 160.375833 658.07674 139.595342 630.936058 123.513725 
C 603.795375 107.432107 574.009981 96.304129 542.973381 90.650411 
C 511.936781 84.996692 480.140657 84.9068 449.072586 90.384939 
L 462.935545 169.005687 
C 484.683195 165.17099 506.940482 165.233914 528.666102 169.191517 
C 550.391722 173.14912 571.241497 180.938705 590.239975 192.195837 
C 609.238453 203.452969 626.084659 217.999313 639.990446 235.15432 
C 653.896233 252.309328 664.641305 271.801228 671.722956 292.718097 
C 678.804608 313.634966 682.11065 335.645437 681.486411 357.719755 
C 680.862172 379.794073 676.317541 401.582536 668.065138 422.065773 
C 659.812734 442.549011 647.983293 461.402528 633.130253 477.744265 
C 618.277213 494.086002 600.635875 507.657074 581.031588 517.82256 
C 561.427301 527.988046 540.170635 534.586904 518.25608 537.310408 
C 496.341526 540.033912 474.116253 538.838916 452.620067 533.781327 
C 431.123882 528.723739 410.697327 519.88368 392.296056 507.674733 
C 373.894785 495.465785 357.81031 480.081363 344.795142 462.241223 
C 331.779974 444.401084 322.040299 424.387851 316.031785 403.13784 
C 310.023272 381.887829 307.841107 359.737684 309.587384 337.723695 
C 311.333661 315.709707 316.980714 294.18062 326.264347 274.143671 
C 335.547981 254.106722 348.321122 235.879335 363.986184 220.314277 
z
" style="fill: #1f77b4"/>
   </g>
   <g id="patch_7">
    <path d="M 449.072562 90.384943 
C 422.479998 95.073932 396.755375 103.783307 372.78367 116.213448 
C 348.811965 128.643589 326.871259 144.650302 307.716355 163.682924 
L 363.986184 220.314277 
C 377.394616 206.991441 392.753111 195.786742 409.533304 187.085644 
C 426.313498 178.384545 444.320734 172.287982 462.935528 169.00569 
z
" style="fill: #ff7f0e"/>
   </g>
   <g id="matplotlib.axis_1"/>
   <g id="matplotlib.axis_2"/>
  </g>
 </g>
</svg>
