<?xml version="1.0" encoding="utf-8" standalone="no"?>
<!DOCTYPE svg PUBLIC "-//W3C//DTD SVG 1.1//EN"
  "http://www.w3.org/Graphics/SVG/1.1/DTD/svg11.dtd">
<svg xmlns:xlink="http://www.w3.org/1999/xlink" width="1020.813338pt" height="716.105891pt" viewBox="0 0 1020.813338 716.105891" xmlns="http://www.w3.org/2000/svg" version="1.1">
 <metadata>
  <rdf:RDF xmlns:dc="http://purl.org/dc/elements/1.1/" xmlns:cc="http://creativecommons.org/ns#" xmlns:rdf="http://www.w3.org/1999/02/22-rdf-syntax-ns#">
   <cc:Work>
    <dc:type rdf:resource="http://purl.org/dc/dcmitype/StillImage"/>
    <dc:date>2023-10-13T10:07:09.645090</dc:date>
    <dc:format>image/svg+xml</dc:format>
    <dc:creator>
     <cc:Agent>
      <dc:title>Matplotlib v3.7.3, https://matplotlib.org/</dc:title>
     </cc:Agent>
    </dc:creator>
   </cc:Work>
  </rdf:RDF>
 </metadata>
 <defs>
  <style type="text/css">*{stroke-linejoin: round; stroke-linecap: butt}</style>
 </defs>
 <g id="figure_1">
  <g id="patch_1">
   <path d="M 0 716.105891 
L 1020.813338 716.105891 
L 1020.813338 0 
L 0 0 
z
" style="fill: #ffffff"/>
  </g>
  <g id="axes_1">
   <g id="patch_2">
    <path d="M 856.523542 694.388703 
L 691.628683 694.388703 
L 639.383094 603.947692 
" style="fill: none; stroke: #000000; stroke-width: 3; stroke-linecap: round"/>
   </g>
   <g id="text_1">
    <g id="patch_3">
     <path d="M 858.522713 714.905891 
L 1019.613338 714.905891 
L 1019.613338 673.871516 
L 858.522713 673.871516 
z
" style="fill: #ffffff"/>
    </g>
    <!-- R [88.9%] -->
    <g transform="translate(864.522713 702.666828) scale(0.3 -0.3)">
     <defs>
      <path id="DejaVuSans-52" d="M 2841 2188 
Q 3044 2119 3236 1894 
Q 3428 1669 3622 1275 
L 4263 0 
L 3584 0 
L 2988 1197 
Q 2756 1666 2539 1819 
Q 2322 1972 1947 1972 
L 1259 1972 
L 1259 0 
L 628 0 
L 628 4666 
L 2053 4666 
Q 2853 4666 3247 4331 
Q 3641 3997 3641 3322 
Q 3641 2881 3436 2590 
Q 3231 2300 2841 2188 
z
M 1259 4147 
L 1259 2491 
L 2053 2491 
Q 2509 2491 2742 2702 
Q 2975 2913 2975 3322 
Q 2975 3731 2742 3939 
Q 2509 4147 2053 4147 
L 1259 4147 
z
" transform="scale(0.015625)"/>
      <path id="DejaVuSans-20" transform="scale(0.015625)"/>
      <path id="DejaVuSans-5b" d="M 550 4863 
L 1875 4863 
L 1875 4416 
L 1125 4416 
L 1125 -397 
L 1875 -397 
L 1875 -844 
L 550 -844 
L 550 4863 
z
" transform="scale(0.015625)"/>
      <path id="DejaVuSans-38" d="M 2034 2216 
Q 1584 2216 1326 1975 
Q 1069 1734 1069 1313 
Q 1069 891 1326 650 
Q 1584 409 2034 409 
Q 2484 409 2743 651 
Q 3003 894 3003 1313 
Q 3003 1734 2745 1975 
Q 2488 2216 2034 2216 
z
M 1403 2484 
Q 997 2584 770 2862 
Q 544 3141 544 3541 
Q 544 4100 942 4425 
Q 1341 4750 2034 4750 
Q 2731 4750 3128 4425 
Q 3525 4100 3525 3541 
Q 3525 3141 3298 2862 
Q 3072 2584 2669 2484 
Q 3125 2378 3379 2068 
Q 3634 1759 3634 1313 
Q 3634 634 3220 271 
Q 2806 -91 2034 -91 
Q 1263 -91 848 271 
Q 434 634 434 1313 
Q 434 1759 690 2068 
Q 947 2378 1403 2484 
z
M 1172 3481 
Q 1172 3119 1398 2916 
Q 1625 2713 2034 2713 
Q 2441 2713 2670 2916 
Q 2900 3119 2900 3481 
Q 2900 3844 2670 4047 
Q 2441 4250 2034 4250 
Q 1625 4250 1398 4047 
Q 1172 3844 1172 3481 
z
" transform="scale(0.015625)"/>
      <path id="DejaVuSans-2e" d="M 684 794 
L 1344 794 
L 1344 0 
L 684 0 
L 684 794 
z
" transform="scale(0.015625)"/>
      <path id="DejaVuSans-39" d="M 703 97 
L 703 672 
Q 941 559 1184 500 
Q 1428 441 1663 441 
Q 2288 441 2617 861 
Q 2947 1281 2994 2138 
Q 2813 1869 2534 1725 
Q 2256 1581 1919 1581 
Q 1219 1581 811 2004 
Q 403 2428 403 3163 
Q 403 3881 828 4315 
Q 1253 4750 1959 4750 
Q 2769 4750 3195 4129 
Q 3622 3509 3622 2328 
Q 3622 1225 3098 567 
Q 2575 -91 1691 -91 
Q 1453 -91 1209 -44 
Q 966 3 703 97 
z
M 1959 2075 
Q 2384 2075 2632 2365 
Q 2881 2656 2881 3163 
Q 2881 3666 2632 3958 
Q 2384 4250 1959 4250 
Q 1534 4250 1286 3958 
Q 1038 3666 1038 3163 
Q 1038 2656 1286 2365 
Q 1534 2075 1959 2075 
z
" transform="scale(0.015625)"/>
      <path id="DejaVuSans-25" d="M 4653 2053 
Q 4381 2053 4226 1822 
Q 4072 1591 4072 1178 
Q 4072 772 4226 539 
Q 4381 306 4653 306 
Q 4919 306 5073 539 
Q 5228 772 5228 1178 
Q 5228 1588 5073 1820 
Q 4919 2053 4653 2053 
z
M 4653 2450 
Q 5147 2450 5437 2106 
Q 5728 1763 5728 1178 
Q 5728 594 5436 251 
Q 5144 -91 4653 -91 
Q 4153 -91 3862 251 
Q 3572 594 3572 1178 
Q 3572 1766 3864 2108 
Q 4156 2450 4653 2450 
z
M 1428 4353 
Q 1159 4353 1004 4120 
Q 850 3888 850 3481 
Q 850 3069 1003 2837 
Q 1156 2606 1428 2606 
Q 1700 2606 1854 2837 
Q 2009 3069 2009 3481 
Q 2009 3884 1853 4118 
Q 1697 4353 1428 4353 
z
M 4250 4750 
L 4750 4750 
L 1831 -91 
L 1331 -91 
L 4250 4750 
z
M 1428 4750 
Q 1922 4750 2215 4408 
Q 2509 4066 2509 3481 
Q 2509 2891 2217 2550 
Q 1925 2209 1428 2209 
Q 931 2209 642 2551 
Q 353 2894 353 3481 
Q 353 4063 643 4406 
Q 934 4750 1428 4750 
z
" transform="scale(0.015625)"/>
      <path id="DejaVuSans-5d" d="M 1947 4863 
L 1947 -844 
L 622 -844 
L 622 -397 
L 1369 -397 
L 1369 4416 
L 622 4416 
L 622 4863 
L 1947 4863 
z
" transform="scale(0.015625)"/>
     </defs>
     <use xlink:href="#DejaVuSans-52"/>
     <use xlink:href="#DejaVuSans-20" x="69.482422"/>
     <use xlink:href="#DejaVuSans-5b" x="101.269531"/>
     <use xlink:href="#DejaVuSans-38" x="140.283203"/>
     <use xlink:href="#DejaVuSans-38" x="203.90625"/>
     <use xlink:href="#DejaVuSans-2e" x="267.529297"/>
     <use xlink:href="#DejaVuSans-39" x="299.316406"/>
     <use xlink:href="#DejaVuSans-25" x="362.939453"/>
     <use xlink:href="#DejaVuSans-5d" x="457.958984"/>
    </g>
   </g>
   <g id="patch_4">
    <path d="M 154.0219 86.483176 
L 265.692138 86.483176 
L 332.858674 166.469641 
" style="fill: none; stroke: #000000; stroke-width: 3; stroke-linecap: round"/>
   </g>
   <g id="text_2">
    <g id="patch_5">
     <path d="M 7.246875 107.000363 
L 152.020312 107.000363 
L 152.020312 65.965988 
L 7.246875 65.965988 
z
" style="fill: #ffffff"/>
    </g>
    <!-- Q [5.6%] -->
    <g transform="translate(13.246875 94.761301) scale(0.3 -0.3)">
     <defs>
      <path id="DejaVuSans-51" d="M 2522 4238 
Q 1834 4238 1429 3725 
Q 1025 3213 1025 2328 
Q 1025 1447 1429 934 
Q 1834 422 2522 422 
Q 3209 422 3611 934 
Q 4013 1447 4013 2328 
Q 4013 3213 3611 3725 
Q 3209 4238 2522 4238 
z
M 3406 84 
L 4238 -825 
L 3475 -825 
L 2784 -78 
Q 2681 -84 2626 -87 
Q 2572 -91 2522 -91 
Q 1538 -91 948 567 
Q 359 1225 359 2328 
Q 359 3434 948 4092 
Q 1538 4750 2522 4750 
Q 3503 4750 4090 4092 
Q 4678 3434 4678 2328 
Q 4678 1516 4351 937 
Q 4025 359 3406 84 
z
" transform="scale(0.015625)"/>
      <path id="DejaVuSans-35" d="M 691 4666 
L 3169 4666 
L 3169 4134 
L 1269 4134 
L 1269 2991 
Q 1406 3038 1543 3061 
Q 1681 3084 1819 3084 
Q 2600 3084 3056 2656 
Q 3513 2228 3513 1497 
Q 3513 744 3044 326 
Q 2575 -91 1722 -91 
Q 1428 -91 1123 -41 
Q 819 9 494 109 
L 494 744 
Q 775 591 1075 516 
Q 1375 441 1709 441 
Q 2250 441 2565 725 
Q 2881 1009 2881 1497 
Q 2881 1984 2565 2268 
Q 2250 2553 1709 2553 
Q 1456 2553 1204 2497 
Q 953 2441 691 2322 
L 691 4666 
z
" transform="scale(0.015625)"/>
      <path id="DejaVuSans-36" d="M 2113 2584 
Q 1688 2584 1439 2293 
Q 1191 2003 1191 1497 
Q 1191 994 1439 701 
Q 1688 409 2113 409 
Q 2538 409 2786 701 
Q 3034 994 3034 1497 
Q 3034 2003 2786 2293 
Q 2538 2584 2113 2584 
z
M 3366 4563 
L 3366 3988 
Q 3128 4100 2886 4159 
Q 2644 4219 2406 4219 
Q 1781 4219 1451 3797 
Q 1122 3375 1075 2522 
Q 1259 2794 1537 2939 
Q 1816 3084 2150 3084 
Q 2853 3084 3261 2657 
Q 3669 2231 3669 1497 
Q 3669 778 3244 343 
Q 2819 -91 2113 -91 
Q 1303 -91 875 529 
Q 447 1150 447 2328 
Q 447 3434 972 4092 
Q 1497 4750 2381 4750 
Q 2619 4750 2861 4703 
Q 3103 4656 3366 4563 
z
" transform="scale(0.015625)"/>
     </defs>
     <use xlink:href="#DejaVuSans-51"/>
     <use xlink:href="#DejaVuSans-20" x="78.710938"/>
     <use xlink:href="#DejaVuSans-5b" x="110.498047"/>
     <use xlink:href="#DejaVuSans-35" x="149.511719"/>
     <use xlink:href="#DejaVuSans-2e" x="213.134766"/>
     <use xlink:href="#DejaVuSans-36" x="244.921875"/>
     <use xlink:href="#DejaVuSans-25" x="308.544922"/>
     <use xlink:href="#DejaVuSans-5d" x="403.564453"/>
    </g>
   </g>
   <g id="patch_6">
    <path d="M 154.025894 21.717188 
L 377.806943 21.717187 
L 413.541879 119.860921 
" style="fill: none; stroke: #000000; stroke-width: 3; stroke-linecap: round"/>
   </g>
   <g id="text_3">
    <g id="patch_7">
     <path d="M 1.2 42.234375 
L 152.020312 42.234375 
L 152.020312 1.2 
L 1.2 1.2 
z
" style="fill: #ffffff"/>
    </g>
    <!-- W [5.6%] -->
    <g transform="translate(7.2 29.995312) scale(0.3 -0.3)">
     <defs>
      <path id="DejaVuSans-57" d="M 213 4666 
L 850 4666 
L 1831 722 
L 2809 4666 
L 3519 4666 
L 4500 722 
L 5478 4666 
L 6119 4666 
L 4947 0 
L 4153 0 
L 3169 4050 
L 2175 0 
L 1381 0 
L 213 4666 
z
" transform="scale(0.015625)"/>
     </defs>
     <use xlink:href="#DejaVuSans-57"/>
     <use xlink:href="#DejaVuSans-20" x="98.876953"/>
     <use xlink:href="#DejaVuSans-5b" x="130.664062"/>
     <use xlink:href="#DejaVuSans-35" x="169.677734"/>
     <use xlink:href="#DejaVuSans-2e" x="233.300781"/>
     <use xlink:href="#DejaVuSans-36" x="265.087891"/>
     <use xlink:href="#DejaVuSans-25" x="328.710938"/>
     <use xlink:href="#DejaVuSans-5d" x="423.730469"/>
    </g>
   </g>
   <g id="patch_8">
    <path d="M 301.33439 200.83661 
C 281.394392 224.623754 265.769066 251.717203 255.166389 280.889364 
C 244.563713 310.061525 239.146274 340.86505 239.159537 371.904244 
C 239.172799 402.943438 244.616558 433.742322 255.244161 462.905412 
C 265.871763 492.068503 281.520235 519.148589 301.480553 542.918685 
C 321.440871 566.68878 345.406947 586.784376 372.292889 602.294949 
C 399.178831 617.805523 428.572348 628.493222 459.141634 633.873793 
C 489.710919 639.254363 520.987199 639.245295 551.553359 633.846999 
C 582.119519 628.448703 611.506834 617.743961 638.383777 602.2178 
C 665.26072 586.691639 689.215139 566.582149 709.16167 542.800483 
C 729.108201 519.018816 744.740968 491.92966 755.351658 462.760413 
C 765.962347 433.591165 771.388246 402.789129 771.383509 371.749933 
C 771.378773 340.710736 765.943473 309.910358 755.323882 280.74435 
C 744.704291 251.578342 729.063257 224.493958 709.109469 200.718381 
C 689.155681 176.942803 665.195125 156.840625 638.313445 141.322667 
C 611.431765 125.80471 582.041184 115.108937 551.473378 109.71997 
C 520.905572 104.331003 489.62929 104.33148 459.061649 109.72138 
L 472.924608 188.342128 
C 494.321957 184.569198 516.215354 184.568864 537.612818 188.341141 
C 559.010283 192.113418 579.583689 199.600459 598.400865 210.46303 
C 617.218042 221.3256 633.99043 235.397124 647.958082 252.040029 
C 661.925734 268.682933 672.874457 287.642001 680.308171 308.058207 
C 687.741885 328.474413 691.546595 350.034678 691.54991 371.762115 
C 691.553226 393.489553 687.755097 415.050978 680.327614 435.469451 
C 672.900132 455.887925 661.957195 474.850334 647.994623 491.4975 
C 634.032051 508.144666 617.263958 522.221309 598.450098 533.089622 
C 579.636238 543.957935 559.065117 551.451254 537.668805 555.230062 
C 516.272493 559.008869 494.379097 559.015217 472.980597 555.248817 
C 451.582097 551.482418 431.006635 544.001028 412.186476 533.143627 
C 393.366317 522.286226 376.590064 508.219308 362.617841 491.580241 
C 348.645618 474.941174 337.691688 455.985114 330.252366 435.570951 
C 322.813045 415.156788 319.002413 393.597569 318.99313 371.870133 
C 318.983846 350.142697 322.776053 328.58023 330.197926 308.159717 
C 337.6198 287.739204 348.557528 268.77379 362.515527 252.122789 
z
" style="fill: #1f77b4"/>
   </g>
   <g id="patch_9">
    <path d="M 372.159291 141.363257 
C 358.735671 149.117755 346.0153 158.030439 334.143388 167.999566 
C 322.271476 177.968693 311.293369 188.956184 301.33439 200.83661 
L 362.515527 252.122789 
C 369.486812 243.806491 377.171487 236.115247 385.481825 229.136858 
C 393.792164 222.158469 402.696424 215.919591 412.092958 210.491442 
z
" style="fill: #ff7f0e"/>
   </g>
   <g id="patch_10">
    <path d="M 459.061747 109.721363 
C 443.794818 112.413328 428.792279 116.434223 414.225392 121.738146 
C 399.658504 127.042068 385.582911 133.60876 372.159291 141.363257 
L 412.092958 210.491442 
C 421.489491 205.063294 431.342407 200.46661 441.539228 196.753864 
C 451.736049 193.041118 462.237826 190.226492 472.924677 188.342116 
z
" style="fill: #2ca02c"/>
   </g>
   <g id="matplotlib.axis_1"/>
   <g id="matplotlib.axis_2"/>
  </g>
 </g>
</svg>
