<?xml version="1.0" encoding="utf-8" standalone="no"?>
<!DOCTYPE svg PUBLIC "-//W3C//DTD SVG 1.1//EN"
  "http://www.w3.org/Graphics/SVG/1.1/DTD/svg11.dtd">
<svg xmlns:xlink="http://www.w3.org/1999/xlink" width="1035.799275pt" height="697.042469pt" viewBox="0 0 1035.799275 697.042469" xmlns="http://www.w3.org/2000/svg" version="1.1">
 <metadata>
  <rdf:RDF xmlns:dc="http://purl.org/dc/elements/1.1/" xmlns:cc="http://creativecommons.org/ns#" xmlns:rdf="http://www.w3.org/1999/02/22-rdf-syntax-ns#">
   <cc:Work>
    <dc:type rdf:resource="http://purl.org/dc/dcmitype/StillImage"/>
    <dc:date>2023-10-13T10:00:54.871985</dc:date>
    <dc:format>image/svg+xml</dc:format>
    <dc:creator>
     <cc:Agent>
      <dc:title>Matplotlib v3.7.3, https://matplotlib.org/</dc:title>
     </cc:Agent>
    </dc:creator>
   </cc:Work>
  </rdf:RDF>
 </metadata>
 <defs>
  <style type="text/css">*{stroke-linejoin: round; stroke-linecap: butt}</style>
 </defs>
 <g id="figure_1">
  <g id="patch_1">
   <path d="M -0 697.042469 
L 1035.799275 697.042469 
L 1035.799275 0 
L -0 0 
z
" style="fill: #ffffff"/>
  </g>
  <g id="axes_1">
   <g id="patch_2">
    <path d="M 866.474875 21.717187 
L 694.09736 21.717187 
L 643.948298 113.337326 
" style="fill: none; stroke: #000000; stroke-width: 3; stroke-linecap: round"/>
   </g>
   <g id="text_1">
    <g id="patch_3">
     <path d="M 868.469588 42.234375 
L 1034.599275 42.234375 
L 1034.599275 1.2 
L 868.469588 1.2 
z
" style="fill: #ffffff"/>
    </g>
    <!-- M [21.3%] -->
    <g transform="translate(874.469588 29.995312) scale(0.3 -0.3)">
     <defs>
      <path id="DejaVuSans-4d" d="M 628 4666 
L 1569 4666 
L 2759 1491 
L 3956 4666 
L 4897 4666 
L 4897 0 
L 4281 0 
L 4281 4097 
L 3078 897 
L 2444 897 
L 1241 4097 
L 1241 0 
L 628 0 
L 628 4666 
z
" transform="scale(0.015625)"/>
      <path id="DejaVuSans-20" transform="scale(0.015625)"/>
      <path id="DejaVuSans-5b" d="M 550 4863 
L 1875 4863 
L 1875 4416 
L 1125 4416 
L 1125 -397 
L 1875 -397 
L 1875 -844 
L 550 -844 
L 550 4863 
z
" transform="scale(0.015625)"/>
      <path id="DejaVuSans-32" d="M 1228 531 
L 3431 531 
L 3431 0 
L 469 0 
L 469 531 
Q 828 903 1448 1529 
Q 2069 2156 2228 2338 
Q 2531 2678 2651 2914 
Q 2772 3150 2772 3378 
Q 2772 3750 2511 3984 
Q 2250 4219 1831 4219 
Q 1534 4219 1204 4116 
Q 875 4013 500 3803 
L 500 4441 
Q 881 4594 1212 4672 
Q 1544 4750 1819 4750 
Q 2544 4750 2975 4387 
Q 3406 4025 3406 3419 
Q 3406 3131 3298 2873 
Q 3191 2616 2906 2266 
Q 2828 2175 2409 1742 
Q 1991 1309 1228 531 
z
" transform="scale(0.015625)"/>
      <path id="DejaVuSans-31" d="M 794 531 
L 1825 531 
L 1825 4091 
L 703 3866 
L 703 4441 
L 1819 4666 
L 2450 4666 
L 2450 531 
L 3481 531 
L 3481 0 
L 794 0 
L 794 531 
z
" transform="scale(0.015625)"/>
      <path id="DejaVuSans-2e" d="M 684 794 
L 1344 794 
L 1344 0 
L 684 0 
L 684 794 
z
" transform="scale(0.015625)"/>
      <path id="DejaVuSans-33" d="M 2597 2516 
Q 3050 2419 3304 2112 
Q 3559 1806 3559 1356 
Q 3559 666 3084 287 
Q 2609 -91 1734 -91 
Q 1441 -91 1130 -33 
Q 819 25 488 141 
L 488 750 
Q 750 597 1062 519 
Q 1375 441 1716 441 
Q 2309 441 2620 675 
Q 2931 909 2931 1356 
Q 2931 1769 2642 2001 
Q 2353 2234 1838 2234 
L 1294 2234 
L 1294 2753 
L 1863 2753 
Q 2328 2753 2575 2939 
Q 2822 3125 2822 3475 
Q 2822 3834 2567 4026 
Q 2313 4219 1838 4219 
Q 1578 4219 1281 4162 
Q 984 4106 628 3988 
L 628 4550 
Q 988 4650 1302 4700 
Q 1616 4750 1894 4750 
Q 2613 4750 3031 4423 
Q 3450 4097 3450 3541 
Q 3450 3153 3228 2886 
Q 3006 2619 2597 2516 
z
" transform="scale(0.015625)"/>
      <path id="DejaVuSans-25" d="M 4653 2053 
Q 4381 2053 4226 1822 
Q 4072 1591 4072 1178 
Q 4072 772 4226 539 
Q 4381 306 4653 306 
Q 4919 306 5073 539 
Q 5228 772 5228 1178 
Q 5228 1588 5073 1820 
Q 4919 2053 4653 2053 
z
M 4653 2450 
Q 5147 2450 5437 2106 
Q 5728 1763 5728 1178 
Q 5728 594 5436 251 
Q 5144 -91 4653 -91 
Q 4153 -91 3862 251 
Q 3572 594 3572 1178 
Q 3572 1766 3864 2108 
Q 4156 2450 4653 2450 
z
M 1428 4353 
Q 1159 4353 1004 4120 
Q 850 3888 850 3481 
Q 850 3069 1003 2837 
Q 1156 2606 1428 2606 
Q 1700 2606 1854 2837 
Q 2009 3069 2009 3481 
Q 2009 3884 1853 4118 
Q 1697 4353 1428 4353 
z
M 4250 4750 
L 4750 4750 
L 1831 -91 
L 1331 -91 
L 4250 4750 
z
M 1428 4750 
Q 1922 4750 2215 4408 
Q 2509 4066 2509 3481 
Q 2509 2891 2217 2550 
Q 1925 2209 1428 2209 
Q 931 2209 642 2551 
Q 353 2894 353 3481 
Q 353 4063 643 4406 
Q 934 4750 1428 4750 
z
" transform="scale(0.015625)"/>
      <path id="DejaVuSans-5d" d="M 1947 4863 
L 1947 -844 
L 622 -844 
L 622 -397 
L 1369 -397 
L 1369 4416 
L 622 4416 
L 622 4863 
L 1947 4863 
z
" transform="scale(0.015625)"/>
     </defs>
     <use xlink:href="#DejaVuSans-4d"/>
     <use xlink:href="#DejaVuSans-20" x="86.279297"/>
     <use xlink:href="#DejaVuSans-5b" x="118.066406"/>
     <use xlink:href="#DejaVuSans-32" x="157.080078"/>
     <use xlink:href="#DejaVuSans-31" x="220.703125"/>
     <use xlink:href="#DejaVuSans-2e" x="284.326172"/>
     <use xlink:href="#DejaVuSans-33" x="316.113281"/>
     <use xlink:href="#DejaVuSans-25" x="379.736328"/>
     <use xlink:href="#DejaVuSans-5d" x="474.755859"/>
    </g>
   </g>
   <g id="patch_4">
    <path d="M 163.966538 675.325281 
L 336.33943 675.325281 
L 386.488488 583.705141 
" style="fill: none; stroke: #000000; stroke-width: 3; stroke-linecap: round"/>
   </g>
   <g id="text_2">
    <g id="patch_5">
     <path d="M 1.2 695.842469 
L 161.967187 695.842469 
L 161.967187 654.808094 
L 1.2 654.808094 
z
" style="fill: #ffffff"/>
    </g>
    <!-- V [77.9%] -->
    <g transform="translate(7.2 683.603406) scale(0.3 -0.3)">
     <defs>
      <path id="DejaVuSans-56" d="M 1831 0 
L 50 4666 
L 709 4666 
L 2188 738 
L 3669 4666 
L 4325 4666 
L 2547 0 
L 1831 0 
z
" transform="scale(0.015625)"/>
      <path id="DejaVuSans-37" d="M 525 4666 
L 3525 4666 
L 3525 4397 
L 1831 0 
L 1172 0 
L 2766 4134 
L 525 4134 
L 525 4666 
z
" transform="scale(0.015625)"/>
      <path id="DejaVuSans-39" d="M 703 97 
L 703 672 
Q 941 559 1184 500 
Q 1428 441 1663 441 
Q 2288 441 2617 861 
Q 2947 1281 2994 2138 
Q 2813 1869 2534 1725 
Q 2256 1581 1919 1581 
Q 1219 1581 811 2004 
Q 403 2428 403 3163 
Q 403 3881 828 4315 
Q 1253 4750 1959 4750 
Q 2769 4750 3195 4129 
Q 3622 3509 3622 2328 
Q 3622 1225 3098 567 
Q 2575 -91 1691 -91 
Q 1453 -91 1209 -44 
Q 966 3 703 97 
z
M 1959 2075 
Q 2384 2075 2632 2365 
Q 2881 2656 2881 3163 
Q 2881 3666 2632 3958 
Q 2384 4250 1959 4250 
Q 1534 4250 1286 3958 
Q 1038 3666 1038 3163 
Q 1038 2656 1286 2365 
Q 1534 2075 1959 2075 
z
" transform="scale(0.015625)"/>
     </defs>
     <use xlink:href="#DejaVuSans-56"/>
     <use xlink:href="#DejaVuSans-20" x="68.408203"/>
     <use xlink:href="#DejaVuSans-5b" x="100.195312"/>
     <use xlink:href="#DejaVuSans-37" x="139.208984"/>
     <use xlink:href="#DejaVuSans-37" x="202.832031"/>
     <use xlink:href="#DejaVuSans-2e" x="266.455078"/>
     <use xlink:href="#DejaVuSans-39" x="298.242188"/>
     <use xlink:href="#DejaVuSans-25" x="361.865234"/>
     <use xlink:href="#DejaVuSans-5d" x="456.884766"/>
    </g>
   </g>
   <g id="patch_6">
    <path d="M 760.87595 246.208188 
C 737.627181 190.386998 696.032114 144.123326 642.989082 115.089771 
C 589.94605 86.056217 528.55895 75.951723 469.008524 86.45207 
L 482.871483 165.072818 
C 524.556781 157.722575 567.527752 164.795721 604.657874 185.119209 
C 641.787996 205.442697 670.904543 237.827267 687.178681 276.902101 
z
" style="fill: #1f77b4"/>
   </g>
   <g id="patch_7">
    <path d="M 469.008499 86.452074 
C 442.024991 91.209997 415.937471 100.106972 391.669711 112.827953 
C 367.40195 125.548934 345.243814 141.941976 325.97993 161.426594 
C 306.716047 180.911212 290.576513 203.254674 278.132836 227.665788 
C 265.68916 252.076901 257.089973 278.264089 252.639778 305.300053 
C 248.189582 332.336016 247.941533 359.897825 251.904413 387.009504 
C 255.867293 414.121183 263.993768 440.458898 275.996077 465.09002 
C 287.998385 489.721141 303.733166 512.351464 322.643244 532.179638 
C 341.553322 552.007813 363.412827 568.797003 387.447704 581.952695 
C 411.482581 595.108388 437.405746 604.473446 464.299251 609.716249 
C 491.192755 614.959052 518.73537 616.016978 545.951799 612.852564 
C 573.168229 609.68815 599.733388 602.339194 624.706593 591.065926 
C 649.679798 579.792658 672.762758 564.72973 693.138096 546.410527 
C 713.513433 528.091325 730.937776 506.734661 744.794121 483.096783 
C 758.650465 459.458905 768.773305 433.822155 774.804187 407.094341 
C 780.835068 380.366527 782.701956 352.866899 780.338742 325.569229 
C 777.975528 298.271559 771.410439 271.501904 760.87595 246.208188 
L 687.178681 276.902101 
C 694.552824 294.607702 699.148386 313.346461 700.802635 332.45483 
C 702.456885 351.563198 701.150064 370.812938 696.928447 389.522408 
C 692.70683 408.231878 685.620842 426.177602 675.921401 442.724117 
C 666.221959 459.270631 654.02492 474.220297 639.762183 487.043738 
C 625.499447 499.86718 609.341375 510.411229 591.860131 518.302517 
C 574.378888 526.193805 555.783276 531.338074 536.731776 533.553164 
C 517.680275 535.768254 498.400445 535.027706 479.574992 531.357744 
C 460.749539 527.687782 442.603323 521.132241 425.778909 511.923256 
C 408.954495 502.714271 393.652842 490.961838 380.415787 477.082116 
C 367.178733 463.202394 356.164386 447.361168 347.76277 430.119383 
C 339.361154 412.877598 333.672621 394.441197 330.898605 375.463022 
C 328.124589 356.484847 328.298224 337.191581 331.413361 318.266406 
C 334.528497 299.341232 340.547928 281.0102 349.258502 263.922421 
C 357.969075 246.834641 369.266749 231.194218 382.751468 217.554985 
C 396.236186 203.915752 411.746881 192.440623 428.734314 183.535936 
C 445.721746 174.631249 463.98301 168.403367 482.871466 165.072821 
z
" style="fill: #ff7f0e"/>
   </g>
   <g id="matplotlib.axis_1"/>
   <g id="matplotlib.axis_2"/>
  </g>
 </g>
</svg>
