<?xml version="1.0" encoding="utf-8" standalone="no"?>
<!DOCTYPE svg PUBLIC "-//W3C//DTD SVG 1.1//EN"
  "http://www.w3.org/Graphics/SVG/1.1/DTD/svg11.dtd">
<svg xmlns:xlink="http://www.w3.org/1999/xlink" width="1042.300838pt" height="679.68pt" viewBox="0 0 1042.300838 679.68" xmlns="http://www.w3.org/2000/svg" version="1.1">
 <metadata>
  <rdf:RDF xmlns:dc="http://purl.org/dc/elements/1.1/" xmlns:cc="http://creativecommons.org/ns#" xmlns:rdf="http://www.w3.org/1999/02/22-rdf-syntax-ns#">
   <cc:Work>
    <dc:type rdf:resource="http://purl.org/dc/dcmitype/StillImage"/>
    <dc:date>2023-10-13T09:50:32.778174</dc:date>
    <dc:format>image/svg+xml</dc:format>
    <dc:creator>
     <cc:Agent>
      <dc:title>Matplotlib v3.7.3, https://matplotlib.org/</dc:title>
     </cc:Agent>
    </dc:creator>
   </cc:Work>
  </rdf:RDF>
 </metadata>
 <defs>
  <style type="text/css">*{stroke-linejoin: round; stroke-linecap: butt}</style>
 </defs>
 <g id="figure_1">
  <g id="patch_1">
   <path d="M 0 679.68 
L 1042.300838 679.68 
L 1042.300838 0 
L 0 0 
z
" style="fill: #ffffff"/>
  </g>
  <g id="axes_1">
   <g id="patch_2">
    <path d="M 875.608985 579.204533 
L 809.846647 579.204533 
L 729.809643 512.098229 
" style="fill: none; stroke: #000000; stroke-width: 3; stroke-linecap: round"/>
   </g>
   <g id="text_1">
    <g id="patch_3">
     <path d="M 877.610213 599.72172 
L 1041.100838 599.72172 
L 1041.100838 558.687345 
L 877.610213 558.687345 
z
" style="fill: #ffffff"/>
    </g>
    <!-- G [77.3%] -->
    <g transform="translate(883.610213 587.482658) scale(0.3 -0.3)">
     <defs>
      <path id="DejaVuSans-47" d="M 3809 666 
L 3809 1919 
L 2778 1919 
L 2778 2438 
L 4434 2438 
L 4434 434 
Q 4069 175 3628 42 
Q 3188 -91 2688 -91 
Q 1594 -91 976 548 
Q 359 1188 359 2328 
Q 359 3472 976 4111 
Q 1594 4750 2688 4750 
Q 3144 4750 3555 4637 
Q 3966 4525 4313 4306 
L 4313 3634 
Q 3963 3931 3569 4081 
Q 3175 4231 2741 4231 
Q 1884 4231 1454 3753 
Q 1025 3275 1025 2328 
Q 1025 1384 1454 906 
Q 1884 428 2741 428 
Q 3075 428 3337 486 
Q 3600 544 3809 666 
z
" transform="scale(0.015625)"/>
      <path id="DejaVuSans-20" transform="scale(0.015625)"/>
      <path id="DejaVuSans-5b" d="M 550 4863 
L 1875 4863 
L 1875 4416 
L 1125 4416 
L 1125 -397 
L 1875 -397 
L 1875 -844 
L 550 -844 
L 550 4863 
z
" transform="scale(0.015625)"/>
      <path id="DejaVuSans-37" d="M 525 4666 
L 3525 4666 
L 3525 4397 
L 1831 0 
L 1172 0 
L 2766 4134 
L 525 4134 
L 525 4666 
z
" transform="scale(0.015625)"/>
      <path id="DejaVuSans-2e" d="M 684 794 
L 1344 794 
L 1344 0 
L 684 0 
L 684 794 
z
" transform="scale(0.015625)"/>
      <path id="DejaVuSans-33" d="M 2597 2516 
Q 3050 2419 3304 2112 
Q 3559 1806 3559 1356 
Q 3559 666 3084 287 
Q 2609 -91 1734 -91 
Q 1441 -91 1130 -33 
Q 819 25 488 141 
L 488 750 
Q 750 597 1062 519 
Q 1375 441 1716 441 
Q 2309 441 2620 675 
Q 2931 909 2931 1356 
Q 2931 1769 2642 2001 
Q 2353 2234 1838 2234 
L 1294 2234 
L 1294 2753 
L 1863 2753 
Q 2328 2753 2575 2939 
Q 2822 3125 2822 3475 
Q 2822 3834 2567 4026 
Q 2313 4219 1838 4219 
Q 1578 4219 1281 4162 
Q 984 4106 628 3988 
L 628 4550 
Q 988 4650 1302 4700 
Q 1616 4750 1894 4750 
Q 2613 4750 3031 4423 
Q 3450 4097 3450 3541 
Q 3450 3153 3228 2886 
Q 3006 2619 2597 2516 
z
" transform="scale(0.015625)"/>
      <path id="DejaVuSans-25" d="M 4653 2053 
Q 4381 2053 4226 1822 
Q 4072 1591 4072 1178 
Q 4072 772 4226 539 
Q 4381 306 4653 306 
Q 4919 306 5073 539 
Q 5228 772 5228 1178 
Q 5228 1588 5073 1820 
Q 4919 2053 4653 2053 
z
M 4653 2450 
Q 5147 2450 5437 2106 
Q 5728 1763 5728 1178 
Q 5728 594 5436 251 
Q 5144 -91 4653 -91 
Q 4153 -91 3862 251 
Q 3572 594 3572 1178 
Q 3572 1766 3864 2108 
Q 4156 2450 4653 2450 
z
M 1428 4353 
Q 1159 4353 1004 4120 
Q 850 3888 850 3481 
Q 850 3069 1003 2837 
Q 1156 2606 1428 2606 
Q 1700 2606 1854 2837 
Q 2009 3069 2009 3481 
Q 2009 3884 1853 4118 
Q 1697 4353 1428 4353 
z
M 4250 4750 
L 4750 4750 
L 1831 -91 
L 1331 -91 
L 4250 4750 
z
M 1428 4750 
Q 1922 4750 2215 4408 
Q 2509 4066 2509 3481 
Q 2509 2891 2217 2550 
Q 1925 2209 1428 2209 
Q 931 2209 642 2551 
Q 353 2894 353 3481 
Q 353 4063 643 4406 
Q 934 4750 1428 4750 
z
" transform="scale(0.015625)"/>
      <path id="DejaVuSans-5d" d="M 1947 4863 
L 1947 -844 
L 622 -844 
L 622 -397 
L 1369 -397 
L 1369 4416 
L 622 4416 
L 622 4863 
L 1947 4863 
z
" transform="scale(0.015625)"/>
     </defs>
     <use xlink:href="#DejaVuSans-47"/>
     <use xlink:href="#DejaVuSans-20" x="77.490234"/>
     <use xlink:href="#DejaVuSans-5b" x="109.277344"/>
     <use xlink:href="#DejaVuSans-37" x="148.291016"/>
     <use xlink:href="#DejaVuSans-37" x="211.914062"/>
     <use xlink:href="#DejaVuSans-2e" x="275.537109"/>
     <use xlink:href="#DejaVuSans-33" x="307.324219"/>
     <use xlink:href="#DejaVuSans-25" x="370.947266"/>
     <use xlink:href="#DejaVuSans-5d" x="465.966797"/>
    </g>
   </g>
   <g id="patch_4">
    <path d="M 173.108926 100.475521 
L 238.871333 100.475521 
L 318.908349 167.58181 
" style="fill: none; stroke: #000000; stroke-width: 3; stroke-linecap: round"/>
   </g>
   <g id="text_2">
    <g id="patch_5">
     <path d="M 1.2 120.992708 
L 171.107812 120.992708 
L 171.107812 79.958333 
L 1.2 79.958333 
z
" style="fill: #ffffff"/>
    </g>
    <!-- W [22.1%] -->
    <g transform="translate(7.2 108.753646) scale(0.3 -0.3)">
     <defs>
      <path id="DejaVuSans-57" d="M 213 4666 
L 850 4666 
L 1831 722 
L 2809 4666 
L 3519 4666 
L 4500 722 
L 5478 4666 
L 6119 4666 
L 4947 0 
L 4153 0 
L 3169 4050 
L 2175 0 
L 1381 0 
L 213 4666 
z
" transform="scale(0.015625)"/>
      <path id="DejaVuSans-32" d="M 1228 531 
L 3431 531 
L 3431 0 
L 469 0 
L 469 531 
Q 828 903 1448 1529 
Q 2069 2156 2228 2338 
Q 2531 2678 2651 2914 
Q 2772 3150 2772 3378 
Q 2772 3750 2511 3984 
Q 2250 4219 1831 4219 
Q 1534 4219 1204 4116 
Q 875 4013 500 3803 
L 500 4441 
Q 881 4594 1212 4672 
Q 1544 4750 1819 4750 
Q 2544 4750 2975 4387 
Q 3406 4025 3406 3419 
Q 3406 3131 3298 2873 
Q 3191 2616 2906 2266 
Q 2828 2175 2409 1742 
Q 1991 1309 1228 531 
z
" transform="scale(0.015625)"/>
      <path id="DejaVuSans-31" d="M 794 531 
L 1825 531 
L 1825 4091 
L 703 3866 
L 703 4441 
L 1819 4666 
L 2450 4666 
L 2450 531 
L 3481 531 
L 3481 0 
L 794 0 
L 794 531 
z
" transform="scale(0.015625)"/>
     </defs>
     <use xlink:href="#DejaVuSans-57"/>
     <use xlink:href="#DejaVuSans-20" x="98.876953"/>
     <use xlink:href="#DejaVuSans-5b" x="130.664062"/>
     <use xlink:href="#DejaVuSans-32" x="169.677734"/>
     <use xlink:href="#DejaVuSans-32" x="233.300781"/>
     <use xlink:href="#DejaVuSans-2e" x="296.923828"/>
     <use xlink:href="#DejaVuSans-31" x="328.710938"/>
     <use xlink:href="#DejaVuSans-25" x="392.333984"/>
     <use xlink:href="#DejaVuSans-5d" x="487.353516"/>
    </g>
   </g>
   <g id="patch_6">
    <path d="M 258.247092 340.045777 
C 258.26808 367.1871 262.441246 394.166165 270.621565 420.045388 
C 278.801884 445.924612 290.893482 470.400692 306.476149 492.62303 
C 322.058816 514.845368 340.949925 534.553521 362.492967 551.062584 
C 384.036009 567.571647 407.978502 580.688137 433.488389 589.956226 
C 458.998276 599.224314 485.776586 604.535381 512.892709 605.704854 
C 540.008832 606.874326 567.144973 603.888499 593.358087 596.851137 
C 619.571201 589.813774 644.554074 578.807352 667.438495 564.214371 
C 690.322915 549.621389 710.840681 531.612875 728.278752 510.814666 
C 745.716823 490.016457 759.870827 466.672305 770.248881 441.593473 
C 780.626934 416.514641 787.107408 389.995049 789.46509 362.956315 
C 791.822773 335.917581 790.030032 308.676594 784.14917 282.180042 
C 778.268308 255.68349 768.368247 230.241908 754.793038 206.73945 
C 741.217829 183.236993 724.126572 161.949104 704.113225 143.615589 
C 684.099879 125.282073 661.398998 110.117797 636.799491 98.649753 
C 612.199983 87.181708 585.990151 79.544301 559.080847 76.002947 
C 532.171544 72.461593 504.878141 73.057797 478.149149 77.770839 
L 492.012108 156.391587 
C 510.722403 153.092458 529.827784 152.675115 548.664297 155.154063 
C 567.50081 157.63301 585.847692 162.979196 603.067347 171.006827 
C 620.287003 179.034458 636.177619 189.649451 650.186962 202.482912 
C 664.196304 215.316373 676.160184 230.217895 685.662831 246.669615 
C 695.165477 263.121336 702.095519 280.930443 706.212123 299.478029 
C 710.328726 318.025616 711.583645 337.094307 709.933267 356.021421 
C 708.282889 374.948535 703.746558 393.512249 696.48192 411.067431 
C 689.217283 428.622614 679.30948 444.96352 667.10283 459.522266 
C 654.89618 474.081013 640.533744 486.686973 624.51465 496.90206 
C 608.495556 507.117147 591.007544 514.821642 572.658364 519.747796 
C 554.309185 524.673949 535.313886 526.764029 516.3326 525.945398 
C 497.351314 525.126767 478.606497 521.40902 460.749576 514.921358 
C 442.892655 508.433696 426.13291 499.252153 411.052781 487.695809 
C 395.972651 476.139464 382.748875 462.343758 371.841008 446.788121 
C 360.933141 431.232485 352.469022 414.099228 346.742799 395.983772 
C 341.016576 377.868315 338.09536 358.98297 338.080668 339.984044 
z
" style="fill: #1f77b4"/>
   </g>
   <g id="patch_7">
    <path d="M 478.14905 77.770857 
C 416.515791 88.638487 360.648949 120.907646 320.439241 168.865372 
C 280.229534 216.823098 258.198697 277.46174 258.247092 340.045777 
L 338.080668 339.984044 
C 338.046792 296.175218 353.468377 253.728169 381.615173 220.15776 
C 409.761968 186.587352 448.868757 163.998941 492.012039 156.3916 
z
" style="fill: #ff7f0e"/>
   </g>
   <g id="matplotlib.axis_1"/>
   <g id="matplotlib.axis_2"/>
  </g>
 </g>
</svg>
