<?xml version="1.0" encoding="utf-8" standalone="no"?>
<!DOCTYPE svg PUBLIC "-//W3C//DTD SVG 1.1//EN"
  "http://www.w3.org/Graphics/SVG/1.1/DTD/svg11.dtd">
<svg xmlns:xlink="http://www.w3.org/1999/xlink" width="1026.630525pt" height="694.836511pt" viewBox="0 0 1026.630525 694.836511" xmlns="http://www.w3.org/2000/svg" version="1.1">
 <metadata>
  <rdf:RDF xmlns:dc="http://purl.org/dc/elements/1.1/" xmlns:cc="http://creativecommons.org/ns#" xmlns:rdf="http://www.w3.org/1999/02/22-rdf-syntax-ns#">
   <cc:Work>
    <dc:type rdf:resource="http://purl.org/dc/dcmitype/StillImage"/>
    <dc:date>2023-10-13T10:00:28.088283</dc:date>
    <dc:format>image/svg+xml</dc:format>
    <dc:creator>
     <cc:Agent>
      <dc:title>Matplotlib v3.7.3, https://matplotlib.org/</dc:title>
     </cc:Agent>
    </dc:creator>
   </cc:Work>
  </rdf:RDF>
 </metadata>
 <defs>
  <style type="text/css">*{stroke-linejoin: round; stroke-linecap: butt}</style>
 </defs>
 <g id="figure_1">
  <g id="patch_1">
   <path d="M -0 694.836511 
L 1026.630525 694.836511 
L 1026.630525 0 
L -0 0 
z
" style="fill: #ffffff"/>
  </g>
  <g id="axes_1">
   <g id="patch_2">
    <path d="M 866.469122 21.717188 
L 696.097852 21.717188 
L 645.387949 113.028106 
" style="fill: none; stroke: #000000; stroke-width: 3; stroke-linecap: round"/>
   </g>
   <g id="text_1">
    <g id="patch_3">
     <path d="M 868.469588 42.234375 
L 1025.430525 42.234375 
L 1025.430525 1.2 
L 868.469588 1.2 
z
" style="fill: #ffffff"/>
    </g>
    <!-- L [21.5%] -->
    <g transform="translate(874.469588 29.995313) scale(0.3 -0.3)">
     <defs>
      <path id="DejaVuSans-4c" d="M 628 4666 
L 1259 4666 
L 1259 531 
L 3531 531 
L 3531 0 
L 628 0 
L 628 4666 
z
" transform="scale(0.015625)"/>
      <path id="DejaVuSans-20" transform="scale(0.015625)"/>
      <path id="DejaVuSans-5b" d="M 550 4863 
L 1875 4863 
L 1875 4416 
L 1125 4416 
L 1125 -397 
L 1875 -397 
L 1875 -844 
L 550 -844 
L 550 4863 
z
" transform="scale(0.015625)"/>
      <path id="DejaVuSans-32" d="M 1228 531 
L 3431 531 
L 3431 0 
L 469 0 
L 469 531 
Q 828 903 1448 1529 
Q 2069 2156 2228 2338 
Q 2531 2678 2651 2914 
Q 2772 3150 2772 3378 
Q 2772 3750 2511 3984 
Q 2250 4219 1831 4219 
Q 1534 4219 1204 4116 
Q 875 4013 500 3803 
L 500 4441 
Q 881 4594 1212 4672 
Q 1544 4750 1819 4750 
Q 2544 4750 2975 4387 
Q 3406 4025 3406 3419 
Q 3406 3131 3298 2873 
Q 3191 2616 2906 2266 
Q 2828 2175 2409 1742 
Q 1991 1309 1228 531 
z
" transform="scale(0.015625)"/>
      <path id="DejaVuSans-31" d="M 794 531 
L 1825 531 
L 1825 4091 
L 703 3866 
L 703 4441 
L 1819 4666 
L 2450 4666 
L 2450 531 
L 3481 531 
L 3481 0 
L 794 0 
L 794 531 
z
" transform="scale(0.015625)"/>
      <path id="DejaVuSans-2e" d="M 684 794 
L 1344 794 
L 1344 0 
L 684 0 
L 684 794 
z
" transform="scale(0.015625)"/>
      <path id="DejaVuSans-35" d="M 691 4666 
L 3169 4666 
L 3169 4134 
L 1269 4134 
L 1269 2991 
Q 1406 3038 1543 3061 
Q 1681 3084 1819 3084 
Q 2600 3084 3056 2656 
Q 3513 2228 3513 1497 
Q 3513 744 3044 326 
Q 2575 -91 1722 -91 
Q 1428 -91 1123 -41 
Q 819 9 494 109 
L 494 744 
Q 775 591 1075 516 
Q 1375 441 1709 441 
Q 2250 441 2565 725 
Q 2881 1009 2881 1497 
Q 2881 1984 2565 2268 
Q 2250 2553 1709 2553 
Q 1456 2553 1204 2497 
Q 953 2441 691 2322 
L 691 4666 
z
" transform="scale(0.015625)"/>
      <path id="DejaVuSans-25" d="M 4653 2053 
Q 4381 2053 4226 1822 
Q 4072 1591 4072 1178 
Q 4072 772 4226 539 
Q 4381 306 4653 306 
Q 4919 306 5073 539 
Q 5228 772 5228 1178 
Q 5228 1588 5073 1820 
Q 4919 2053 4653 2053 
z
M 4653 2450 
Q 5147 2450 5437 2106 
Q 5728 1763 5728 1178 
Q 5728 594 5436 251 
Q 5144 -91 4653 -91 
Q 4153 -91 3862 251 
Q 3572 594 3572 1178 
Q 3572 1766 3864 2108 
Q 4156 2450 4653 2450 
z
M 1428 4353 
Q 1159 4353 1004 4120 
Q 850 3888 850 3481 
Q 850 3069 1003 2837 
Q 1156 2606 1428 2606 
Q 1700 2606 1854 2837 
Q 2009 3069 2009 3481 
Q 2009 3884 1853 4118 
Q 1697 4353 1428 4353 
z
M 4250 4750 
L 4750 4750 
L 1831 -91 
L 1331 -91 
L 4250 4750 
z
M 1428 4750 
Q 1922 4750 2215 4408 
Q 2509 4066 2509 3481 
Q 2509 2891 2217 2550 
Q 1925 2209 1428 2209 
Q 931 2209 642 2551 
Q 353 2894 353 3481 
Q 353 4063 643 4406 
Q 934 4750 1428 4750 
z
" transform="scale(0.015625)"/>
      <path id="DejaVuSans-5d" d="M 1947 4863 
L 1947 -844 
L 622 -844 
L 622 -397 
L 1369 -397 
L 1369 4416 
L 622 4416 
L 622 4863 
L 1947 4863 
z
" transform="scale(0.015625)"/>
     </defs>
     <use xlink:href="#DejaVuSans-4c"/>
     <use xlink:href="#DejaVuSans-20" x="55.712891"/>
     <use xlink:href="#DejaVuSans-5b" x="87.5"/>
     <use xlink:href="#DejaVuSans-32" x="126.513672"/>
     <use xlink:href="#DejaVuSans-31" x="190.136719"/>
     <use xlink:href="#DejaVuSans-2e" x="253.759766"/>
     <use xlink:href="#DejaVuSans-35" x="285.546875"/>
     <use xlink:href="#DejaVuSans-25" x="349.169922"/>
     <use xlink:href="#DejaVuSans-5d" x="444.189453"/>
    </g>
   </g>
   <g id="patch_4">
    <path d="M 163.971167 673.119323 
L 334.338907 673.119323 
L 385.048815 581.808408 
" style="fill: none; stroke: #000000; stroke-width: 3; stroke-linecap: round"/>
   </g>
   <g id="text_2">
    <g id="patch_5">
     <path d="M 1.2 693.636511 
L 161.967187 693.636511 
L 161.967187 652.602136 
L 1.2 652.602136 
z
" style="fill: #ffffff"/>
    </g>
    <!-- V [77.5%] -->
    <g transform="translate(7.2 681.397448) scale(0.3 -0.3)">
     <defs>
      <path id="DejaVuSans-56" d="M 1831 0 
L 50 4666 
L 709 4666 
L 2188 738 
L 3669 4666 
L 4325 4666 
L 2547 0 
L 1831 0 
z
" transform="scale(0.015625)"/>
      <path id="DejaVuSans-37" d="M 525 4666 
L 3525 4666 
L 3525 4397 
L 1831 0 
L 1172 0 
L 2766 4134 
L 525 4134 
L 525 4666 
z
" transform="scale(0.015625)"/>
     </defs>
     <use xlink:href="#DejaVuSans-56"/>
     <use xlink:href="#DejaVuSans-20" x="68.408203"/>
     <use xlink:href="#DejaVuSans-5b" x="100.195312"/>
     <use xlink:href="#DejaVuSans-37" x="139.208984"/>
     <use xlink:href="#DejaVuSans-37" x="202.832031"/>
     <use xlink:href="#DejaVuSans-2e" x="266.455078"/>
     <use xlink:href="#DejaVuSans-35" x="298.242188"/>
     <use xlink:href="#DejaVuSans-25" x="361.865234"/>
     <use xlink:href="#DejaVuSans-5d" x="456.884766"/>
    </g>
   </g>
   <g id="patch_6">
    <path d="M 762.112154 248.125437 
C 739.340998 191.504463 697.770946 144.404418 644.418005 114.774637 
C 591.065064 85.144856 529.109722 74.751636 469.008524 85.349099 
L 482.871483 163.969847 
C 524.942321 156.551623 568.311061 163.826877 605.65812 184.567724 
C 643.005179 205.30857 672.104215 238.278602 688.044024 277.913284 
z
" style="fill: #1f77b4"/>
   </g>
   <g id="patch_7">
    <path d="M 469.008548 85.349095 
C 442.092389 90.095137 416.067349 98.959666 391.850439 111.630334 
C 367.633529 124.301002 345.512562 140.627221 326.266986 160.033724 
C 307.02141 179.440227 290.879955 201.696372 278.411375 226.017949 
C 265.942796 250.339525 257.29528 276.437476 252.773528 303.392222 
C 248.251775 330.346968 247.909527 357.838156 251.758843 384.897116 
C 255.608158 411.956077 263.603289 438.261218 275.46252 462.885661 
C 287.321752 487.510103 302.90414 510.161191 321.660629 530.040796 
C 340.417118 549.920401 362.124789 566.792258 386.018759 580.061877 
C 409.912729 593.331495 435.709021 602.841167 462.498686 608.255814 
C 489.288352 613.67046 516.752999 614.925729 543.924894 611.977389 
C 571.096788 609.02905 597.652997 601.912142 622.657793 590.877436 
C 647.662589 579.84273 670.818795 565.021371 691.310487 546.9356 
C 711.802179 528.849828 729.385816 507.714591 743.441827 484.274601 
C 757.497838 460.834611 767.85917 435.36845 774.160734 408.773434 
C 780.462299 382.178419 782.629202 354.770626 780.585093 327.515789 
C 778.540983 300.260951 772.310154 273.482987 762.112154 248.125437 
L 688.044024 277.913284 
C 695.182624 295.663569 699.544204 314.408143 700.975081 333.48653 
C 702.405958 352.564916 700.889125 371.750371 696.47803 390.366882 
C 692.066935 408.983393 684.814003 426.809706 674.974795 443.217699 
C 665.135587 459.625691 652.827041 474.420358 638.482857 487.080398 
C 624.138673 499.740438 607.929329 510.115389 590.425971 517.839683 
C 572.922614 525.563977 554.333268 530.545813 535.312942 532.60965 
C 516.292616 534.673488 497.067362 533.7948 478.314597 530.004548 
C 459.561831 526.214295 441.504426 519.557524 424.778647 510.268792 
C 408.052869 500.980059 392.857499 489.169758 379.727957 475.254035 
C 366.598415 461.338311 355.690743 445.48255 347.38928 428.24544 
C 339.087818 411.00833 333.491227 392.594732 330.796706 373.653459 
C 328.102185 354.712187 328.341759 335.468355 331.506986 316.600033 
C 334.672212 297.731711 340.725474 279.463146 349.453479 262.438042 
C 358.181484 245.412938 369.480503 229.833637 382.952406 216.249084 
C 396.42431 202.664532 411.908986 191.236179 428.860823 182.366712 
C 445.81266 173.497244 464.030188 167.292074 482.8715 163.969844 
z
" style="fill: #ff7f0e"/>
   </g>
   <g id="matplotlib.axis_1"/>
   <g id="matplotlib.axis_2"/>
  </g>
 </g>
</svg>
