<?xml version="1.0" encoding="utf-8" standalone="no"?>
<!DOCTYPE svg PUBLIC "-//W3C//DTD SVG 1.1//EN"
  "http://www.w3.org/Graphics/SVG/1.1/DTD/svg11.dtd">
<svg xmlns:xlink="http://www.w3.org/1999/xlink" width="871.713075pt" height="728.454013pt" viewBox="0 0 871.713075 728.454013" xmlns="http://www.w3.org/2000/svg" version="1.1">
 <metadata>
  <rdf:RDF xmlns:dc="http://purl.org/dc/elements/1.1/" xmlns:cc="http://creativecommons.org/ns#" xmlns:rdf="http://www.w3.org/1999/02/22-rdf-syntax-ns#">
   <cc:Work>
    <dc:type rdf:resource="http://purl.org/dc/dcmitype/StillImage"/>
    <dc:date>2023-10-13T10:04:18.074435</dc:date>
    <dc:format>image/svg+xml</dc:format>
    <dc:creator>
     <cc:Agent>
      <dc:title>Matplotlib v3.7.3, https://matplotlib.org/</dc:title>
     </cc:Agent>
    </dc:creator>
   </cc:Work>
  </rdf:RDF>
 </metadata>
 <defs>
  <style type="text/css">*{stroke-linejoin: round; stroke-linecap: butt}</style>
 </defs>
 <g id="figure_1">
  <g id="patch_1">
   <path d="M -0 728.454013 
L 871.713075 728.454013 
L 871.713075 0 
L -0 0 
z
" style="fill: #ffffff"/>
  </g>
  <g id="axes_1">
   <g id="patch_2">
    <path d="M 691.085794 706.736825 
L 404.533809 706.736825 
L 386.396776 603.876599 
" style="fill: none; stroke: #000000; stroke-width: 3; stroke-linecap: round"/>
   </g>
   <g id="text_1">
    <g id="patch_3">
     <path d="M 693.0912 727.254013 
L 870.513075 727.254013 
L 870.513075 686.219638 
L 693.0912 686.219638 
z
" style="fill: #ffffff"/>
    </g>
    <!-- P [100.0%] -->
    <g transform="translate(699.0912 715.01495) scale(0.3 -0.3)">
     <defs>
      <path id="DejaVuSans-50" d="M 1259 4147 
L 1259 2394 
L 2053 2394 
Q 2494 2394 2734 2622 
Q 2975 2850 2975 3272 
Q 2975 3691 2734 3919 
Q 2494 4147 2053 4147 
L 1259 4147 
z
M 628 4666 
L 2053 4666 
Q 2838 4666 3239 4311 
Q 3641 3956 3641 3272 
Q 3641 2581 3239 2228 
Q 2838 1875 2053 1875 
L 1259 1875 
L 1259 0 
L 628 0 
L 628 4666 
z
" transform="scale(0.015625)"/>
      <path id="DejaVuSans-20" transform="scale(0.015625)"/>
      <path id="DejaVuSans-5b" d="M 550 4863 
L 1875 4863 
L 1875 4416 
L 1125 4416 
L 1125 -397 
L 1875 -397 
L 1875 -844 
L 550 -844 
L 550 4863 
z
" transform="scale(0.015625)"/>
      <path id="DejaVuSans-31" d="M 794 531 
L 1825 531 
L 1825 4091 
L 703 3866 
L 703 4441 
L 1819 4666 
L 2450 4666 
L 2450 531 
L 3481 531 
L 3481 0 
L 794 0 
L 794 531 
z
" transform="scale(0.015625)"/>
      <path id="DejaVuSans-30" d="M 2034 4250 
Q 1547 4250 1301 3770 
Q 1056 3291 1056 2328 
Q 1056 1369 1301 889 
Q 1547 409 2034 409 
Q 2525 409 2770 889 
Q 3016 1369 3016 2328 
Q 3016 3291 2770 3770 
Q 2525 4250 2034 4250 
z
M 2034 4750 
Q 2819 4750 3233 4129 
Q 3647 3509 3647 2328 
Q 3647 1150 3233 529 
Q 2819 -91 2034 -91 
Q 1250 -91 836 529 
Q 422 1150 422 2328 
Q 422 3509 836 4129 
Q 1250 4750 2034 4750 
z
" transform="scale(0.015625)"/>
      <path id="DejaVuSans-2e" d="M 684 794 
L 1344 794 
L 1344 0 
L 684 0 
L 684 794 
z
" transform="scale(0.015625)"/>
      <path id="DejaVuSans-25" d="M 4653 2053 
Q 4381 2053 4226 1822 
Q 4072 1591 4072 1178 
Q 4072 772 4226 539 
Q 4381 306 4653 306 
Q 4919 306 5073 539 
Q 5228 772 5228 1178 
Q 5228 1588 5073 1820 
Q 4919 2053 4653 2053 
z
M 4653 2450 
Q 5147 2450 5437 2106 
Q 5728 1763 5728 1178 
Q 5728 594 5436 251 
Q 5144 -91 4653 -91 
Q 4153 -91 3862 251 
Q 3572 594 3572 1178 
Q 3572 1766 3864 2108 
Q 4156 2450 4653 2450 
z
M 1428 4353 
Q 1159 4353 1004 4120 
Q 850 3888 850 3481 
Q 850 3069 1003 2837 
Q 1156 2606 1428 2606 
Q 1700 2606 1854 2837 
Q 2009 3069 2009 3481 
Q 2009 3884 1853 4118 
Q 1697 4353 1428 4353 
z
M 4250 4750 
L 4750 4750 
L 1831 -91 
L 1331 -91 
L 4250 4750 
z
M 1428 4750 
Q 1922 4750 2215 4408 
Q 2509 4066 2509 3481 
Q 2509 2891 2217 2550 
Q 1925 2209 1428 2209 
Q 931 2209 642 2551 
Q 353 2894 353 3481 
Q 353 4063 643 4406 
Q 934 4750 1428 4750 
z
" transform="scale(0.015625)"/>
      <path id="DejaVuSans-5d" d="M 1947 4863 
L 1947 -844 
L 622 -844 
L 622 -397 
L 1369 -397 
L 1369 4416 
L 622 4416 
L 622 4863 
L 1947 4863 
z
" transform="scale(0.015625)"/>
     </defs>
     <use xlink:href="#DejaVuSans-50"/>
     <use xlink:href="#DejaVuSans-20" x="60.302734"/>
     <use xlink:href="#DejaVuSans-5b" x="92.089844"/>
     <use xlink:href="#DejaVuSans-31" x="131.103516"/>
     <use xlink:href="#DejaVuSans-30" x="194.726562"/>
     <use xlink:href="#DejaVuSans-30" x="258.349609"/>
     <use xlink:href="#DejaVuSans-2e" x="321.972656"/>
     <use xlink:href="#DejaVuSans-30" x="353.759766"/>
     <use xlink:href="#DejaVuSans-25" x="417.382812"/>
     <use xlink:href="#DejaVuSans-5d" x="512.402344"/>
    </g>
   </g>
   <g id="patch_4">
    <path d="M 605.952 339.84 
C 605.952 304.894492 599.068497 270.288786 585.69543 238.003346 
C 572.322363 205.717907 552.719805 176.380606 528.0096 151.6704 
C 503.299394 126.960195 473.962093 107.357637 441.676654 93.98457 
C 409.391214 80.611503 374.785508 73.728 339.84 73.728 
C 304.894492 73.728 270.288786 80.611503 238.003346 93.98457 
C 205.717907 107.357637 176.380606 126.960195 151.6704 151.6704 
C 126.960195 176.380606 107.357637 205.717907 93.98457 238.003346 
C 80.611503 270.288786 73.728 304.894492 73.728 339.84 
C 73.728 374.785508 80.611503 409.391214 93.98457 441.676654 
C 107.357637 473.962093 126.960195 503.299394 151.6704 528.0096 
C 176.380606 552.719805 205.717907 572.322363 238.003346 585.69543 
C 270.288786 599.068497 304.894492 605.952 339.84 605.952 
C 374.785508 605.952 409.391214 599.068497 441.676654 585.69543 
C 473.962093 572.322363 503.299394 552.719805 528.0096 528.0096 
C 552.719805 503.299394 572.322363 473.962093 585.69543 441.676654 
C 599.068497 409.391214 605.952 374.785508 605.952 339.84 
M 526.1184 339.84 
C 526.1184 364.301855 521.299948 388.52585 511.938801 411.125657 
C 502.577654 433.725465 488.855864 454.261576 471.55872 471.55872 
C 454.261576 488.855864 433.725465 502.577654 411.125657 511.938801 
C 388.52585 521.299948 364.301855 526.1184 339.84 526.1184 
C 315.378145 526.1184 291.15415 521.299948 268.554343 511.938801 
C 245.954535 502.577654 225.418424 488.855864 208.12128 471.55872 
C 190.824136 454.261576 177.102346 433.725465 167.741199 411.125657 
C 158.380052 388.52585 153.5616 364.301855 153.5616 339.84 
C 153.5616 315.378145 158.380052 291.15415 167.741199 268.554343 
C 177.102346 245.954535 190.824136 225.418424 208.12128 208.12128 
C 225.418424 190.824136 245.954535 177.102346 268.554343 167.741199 
C 291.15415 158.380052 315.378145 153.5616 339.84 153.5616 
C 364.301855 153.5616 388.52585 158.380052 411.125657 167.741199 
C 433.725465 177.102346 454.261576 190.824136 471.55872 208.12128 
C 488.855864 225.418424 502.577654 245.954535 511.938801 268.554343 
C 521.299948 291.15415 526.1184 315.378145 526.1184 339.84 
z
" style="fill: #1f77b4"/>
   </g>
   <g id="matplotlib.axis_1"/>
   <g id="matplotlib.axis_2"/>
  </g>
 </g>
</svg>
