<?xml version="1.0" encoding="utf-8" standalone="no"?>
<!DOCTYPE svg PUBLIC "-//W3C//DTD SVG 1.1//EN"
  "http://www.w3.org/Graphics/SVG/1.1/DTD/svg11.dtd">
<svg xmlns:xlink="http://www.w3.org/1999/xlink" width="1030.043025pt" height="689.855845pt" viewBox="0 0 1030.043025 689.855845" xmlns="http://www.w3.org/2000/svg" version="1.1">
 <metadata>
  <rdf:RDF xmlns:dc="http://purl.org/dc/elements/1.1/" xmlns:cc="http://creativecommons.org/ns#" xmlns:rdf="http://www.w3.org/1999/02/22-rdf-syntax-ns#">
   <cc:Work>
    <dc:type rdf:resource="http://purl.org/dc/dcmitype/StillImage"/>
    <dc:date>2023-10-13T10:00:23.815102</dc:date>
    <dc:format>image/svg+xml</dc:format>
    <dc:creator>
     <cc:Agent>
      <dc:title>Matplotlib v3.7.3, https://matplotlib.org/</dc:title>
     </cc:Agent>
    </dc:creator>
   </cc:Work>
  </rdf:RDF>
 </metadata>
 <defs>
  <style type="text/css">*{stroke-linejoin: round; stroke-linecap: butt}</style>
 </defs>
 <g id="figure_1">
  <g id="patch_1">
   <path d="M 0 689.855845 
L 1030.043025 689.855845 
L 1030.043025 0 
L 0 0 
z
" style="fill: #ffffff"/>
  </g>
  <g id="axes_1">
   <g id="patch_2">
    <path d="M 868.505523 21.717188 
L 702.550172 21.717188 
L 650.603003 112.329934 
" style="fill: none; stroke: #000000; stroke-width: 3; stroke-linecap: round"/>
   </g>
   <g id="text_1">
    <g id="patch_3">
     <path d="M 870.50865 42.234375 
L 1028.843025 42.234375 
L 1028.843025 1.2 
L 870.50865 1.2 
z
" style="fill: #ffffff"/>
    </g>
    <!-- P [21.8%] -->
    <g transform="translate(876.50865 29.995313) scale(0.3 -0.3)">
     <defs>
      <path id="DejaVuSans-50" d="M 1259 4147 
L 1259 2394 
L 2053 2394 
Q 2494 2394 2734 2622 
Q 2975 2850 2975 3272 
Q 2975 3691 2734 3919 
Q 2494 4147 2053 4147 
L 1259 4147 
z
M 628 4666 
L 2053 4666 
Q 2838 4666 3239 4311 
Q 3641 3956 3641 3272 
Q 3641 2581 3239 2228 
Q 2838 1875 2053 1875 
L 1259 1875 
L 1259 0 
L 628 0 
L 628 4666 
z
" transform="scale(0.015625)"/>
      <path id="DejaVuSans-20" transform="scale(0.015625)"/>
      <path id="DejaVuSans-5b" d="M 550 4863 
L 1875 4863 
L 1875 4416 
L 1125 4416 
L 1125 -397 
L 1875 -397 
L 1875 -844 
L 550 -844 
L 550 4863 
z
" transform="scale(0.015625)"/>
      <path id="DejaVuSans-32" d="M 1228 531 
L 3431 531 
L 3431 0 
L 469 0 
L 469 531 
Q 828 903 1448 1529 
Q 2069 2156 2228 2338 
Q 2531 2678 2651 2914 
Q 2772 3150 2772 3378 
Q 2772 3750 2511 3984 
Q 2250 4219 1831 4219 
Q 1534 4219 1204 4116 
Q 875 4013 500 3803 
L 500 4441 
Q 881 4594 1212 4672 
Q 1544 4750 1819 4750 
Q 2544 4750 2975 4387 
Q 3406 4025 3406 3419 
Q 3406 3131 3298 2873 
Q 3191 2616 2906 2266 
Q 2828 2175 2409 1742 
Q 1991 1309 1228 531 
z
" transform="scale(0.015625)"/>
      <path id="DejaVuSans-31" d="M 794 531 
L 1825 531 
L 1825 4091 
L 703 3866 
L 703 4441 
L 1819 4666 
L 2450 4666 
L 2450 531 
L 3481 531 
L 3481 0 
L 794 0 
L 794 531 
z
" transform="scale(0.015625)"/>
      <path id="DejaVuSans-2e" d="M 684 794 
L 1344 794 
L 1344 0 
L 684 0 
L 684 794 
z
" transform="scale(0.015625)"/>
      <path id="DejaVuSans-38" d="M 2034 2216 
Q 1584 2216 1326 1975 
Q 1069 1734 1069 1313 
Q 1069 891 1326 650 
Q 1584 409 2034 409 
Q 2484 409 2743 651 
Q 3003 894 3003 1313 
Q 3003 1734 2745 1975 
Q 2488 2216 2034 2216 
z
M 1403 2484 
Q 997 2584 770 2862 
Q 544 3141 544 3541 
Q 544 4100 942 4425 
Q 1341 4750 2034 4750 
Q 2731 4750 3128 4425 
Q 3525 4100 3525 3541 
Q 3525 3141 3298 2862 
Q 3072 2584 2669 2484 
Q 3125 2378 3379 2068 
Q 3634 1759 3634 1313 
Q 3634 634 3220 271 
Q 2806 -91 2034 -91 
Q 1263 -91 848 271 
Q 434 634 434 1313 
Q 434 1759 690 2068 
Q 947 2378 1403 2484 
z
M 1172 3481 
Q 1172 3119 1398 2916 
Q 1625 2713 2034 2713 
Q 2441 2713 2670 2916 
Q 2900 3119 2900 3481 
Q 2900 3844 2670 4047 
Q 2441 4250 2034 4250 
Q 1625 4250 1398 4047 
Q 1172 3844 1172 3481 
z
" transform="scale(0.015625)"/>
      <path id="DejaVuSans-25" d="M 4653 2053 
Q 4381 2053 4226 1822 
Q 4072 1591 4072 1178 
Q 4072 772 4226 539 
Q 4381 306 4653 306 
Q 4919 306 5073 539 
Q 5228 772 5228 1178 
Q 5228 1588 5073 1820 
Q 4919 2053 4653 2053 
z
M 4653 2450 
Q 5147 2450 5437 2106 
Q 5728 1763 5728 1178 
Q 5728 594 5436 251 
Q 5144 -91 4653 -91 
Q 4153 -91 3862 251 
Q 3572 594 3572 1178 
Q 3572 1766 3864 2108 
Q 4156 2450 4653 2450 
z
M 1428 4353 
Q 1159 4353 1004 4120 
Q 850 3888 850 3481 
Q 850 3069 1003 2837 
Q 1156 2606 1428 2606 
Q 1700 2606 1854 2837 
Q 2009 3069 2009 3481 
Q 2009 3884 1853 4118 
Q 1697 4353 1428 4353 
z
M 4250 4750 
L 4750 4750 
L 1831 -91 
L 1331 -91 
L 4250 4750 
z
M 1428 4750 
Q 1922 4750 2215 4408 
Q 2509 4066 2509 3481 
Q 2509 2891 2217 2550 
Q 1925 2209 1428 2209 
Q 931 2209 642 2551 
Q 353 2894 353 3481 
Q 353 4063 643 4406 
Q 934 4750 1428 4750 
z
" transform="scale(0.015625)"/>
      <path id="DejaVuSans-5d" d="M 1947 4863 
L 1947 -844 
L 622 -844 
L 622 -397 
L 1369 -397 
L 1369 4416 
L 622 4416 
L 622 4863 
L 1947 4863 
z
" transform="scale(0.015625)"/>
     </defs>
     <use xlink:href="#DejaVuSans-50"/>
     <use xlink:href="#DejaVuSans-20" x="60.302734"/>
     <use xlink:href="#DejaVuSans-5b" x="92.089844"/>
     <use xlink:href="#DejaVuSans-32" x="131.103516"/>
     <use xlink:href="#DejaVuSans-31" x="194.726562"/>
     <use xlink:href="#DejaVuSans-2e" x="258.349609"/>
     <use xlink:href="#DejaVuSans-38" x="290.136719"/>
     <use xlink:href="#DejaVuSans-25" x="353.759766"/>
     <use xlink:href="#DejaVuSans-5d" x="448.779297"/>
    </g>
   </g>
   <g id="patch_4">
    <path d="M 166.00418 668.138658 
L 331.964743 668.138658 
L 383.911908 577.525909 
" style="fill: none; stroke: #000000; stroke-width: 3; stroke-linecap: round"/>
   </g>
   <g id="text_2">
    <g id="patch_5">
     <path d="M 1.2 688.655845 
L 164.00625 688.655845 
L 164.00625 647.62147 
L 1.2 647.62147 
z
" style="fill: #ffffff"/>
    </g>
    <!-- H [76.6%] -->
    <g transform="translate(7.2 676.416783) scale(0.3 -0.3)">
     <defs>
      <path id="DejaVuSans-48" d="M 628 4666 
L 1259 4666 
L 1259 2753 
L 3553 2753 
L 3553 4666 
L 4184 4666 
L 4184 0 
L 3553 0 
L 3553 2222 
L 1259 2222 
L 1259 0 
L 628 0 
L 628 4666 
z
" transform="scale(0.015625)"/>
      <path id="DejaVuSans-37" d="M 525 4666 
L 3525 4666 
L 3525 4397 
L 1831 0 
L 1172 0 
L 2766 4134 
L 525 4134 
L 525 4666 
z
" transform="scale(0.015625)"/>
      <path id="DejaVuSans-36" d="M 2113 2584 
Q 1688 2584 1439 2293 
Q 1191 2003 1191 1497 
Q 1191 994 1439 701 
Q 1688 409 2113 409 
Q 2538 409 2786 701 
Q 3034 994 3034 1497 
Q 3034 2003 2786 2293 
Q 2538 2584 2113 2584 
z
M 3366 4563 
L 3366 3988 
Q 3128 4100 2886 4159 
Q 2644 4219 2406 4219 
Q 1781 4219 1451 3797 
Q 1122 3375 1075 2522 
Q 1259 2794 1537 2939 
Q 1816 3084 2150 3084 
Q 2853 3084 3261 2657 
Q 3669 2231 3669 1497 
Q 3669 778 3244 343 
Q 2819 -91 2113 -91 
Q 1303 -91 875 529 
Q 447 1150 447 2328 
Q 447 3434 972 4092 
Q 1497 4750 2381 4750 
Q 2619 4750 2861 4703 
Q 3103 4656 3366 4563 
z
" transform="scale(0.015625)"/>
     </defs>
     <use xlink:href="#DejaVuSans-48"/>
     <use xlink:href="#DejaVuSans-20" x="75.195312"/>
     <use xlink:href="#DejaVuSans-5b" x="106.982422"/>
     <use xlink:href="#DejaVuSans-37" x="145.996094"/>
     <use xlink:href="#DejaVuSans-36" x="209.619141"/>
     <use xlink:href="#DejaVuSans-2e" x="273.242188"/>
     <use xlink:href="#DejaVuSans-36" x="305.029297"/>
     <use xlink:href="#DejaVuSans-25" x="368.652344"/>
     <use xlink:href="#DejaVuSans-5d" x="463.671875"/>
    </g>
   </g>
   <g id="patch_6">
    <path d="M 766.760659 252.387411 
C 745.106271 194.003907 703.631531 145.033335 649.609394 114.063111 
C 595.587257 83.092886 532.371511 72.045695 471.047586 82.858757 
L 484.910545 161.479506 
C 527.837293 153.910362 572.088315 161.643396 609.903811 183.322553 
C 647.719307 205.00171 676.751625 239.28111 691.909696 280.149563 
z
" style="fill: #1f77b4"/>
   </g>
   <g id="patch_7">
    <path d="M 471.047562 82.858762 
C 444.2808 87.578467 418.394413 96.371221 394.290531 108.930602 
C 370.186649 121.489982 348.148566 137.668378 328.944301 156.901977 
C 309.740036 176.135577 293.595297 198.198327 281.072721 222.321351 
C 268.550146 246.444374 259.796912 272.344151 255.118068 299.118086 
C 250.439223 325.892021 249.889758 353.225437 253.488821 380.165777 
C 257.087883 407.106116 264.793174 433.336748 276.336167 457.943546 
C 287.87916 482.550343 303.124189 505.244101 321.539972 525.233951 
C 339.955755 545.223801 361.325849 562.274801 384.905517 575.792732 
C 408.485184 589.310663 433.997291 599.136647 460.552751 604.928252 
C 487.108211 610.719858 514.394917 612.409016 541.461937 609.93686 
C 568.528958 607.464705 595.058173 600.86029 620.125052 590.353779 
C 645.19193 579.847267 668.501858 565.562142 689.242495 547.996234 
C 709.983132 530.430326 727.910712 509.790088 742.400466 486.794823 
C 756.890221 463.799559 767.77185 438.719533 774.666135 412.428774 
C 781.560419 386.138015 784.38633 358.94552 783.045385 331.798936 
C 781.70444 304.652352 776.212399 277.870734 766.760659 252.387411 
L 691.909696 280.149563 
C 698.525915 297.98789 702.370343 316.735022 703.309004 335.737631 
C 704.247666 354.74024 702.269529 373.774986 697.443529 392.178517 
C 692.61753 410.582049 685.000389 428.138067 674.857561 444.234752 
C 664.714733 460.331437 652.165427 474.779603 637.646981 487.075739 
C 623.128536 499.371875 606.811586 509.371463 589.264771 516.726021 
C 571.717956 524.080579 553.147506 528.703669 534.200591 530.434178 
C 515.253677 532.164687 496.152983 530.982276 477.564161 526.928152 
C 458.975339 522.874028 441.116864 515.995839 424.611097 506.533288 
C 408.10533 497.070736 393.146263 485.135036 380.255215 471.142141 
C 367.364168 457.149246 356.692647 441.263616 348.612552 424.038857 
C 340.532457 406.814099 335.138753 388.452657 332.619409 369.594419 
C 330.100065 350.736181 330.484691 331.60279 333.759882 312.861036 
C 337.035074 294.119281 343.162337 275.989437 351.92814 259.103321 
C 360.693943 242.217204 371.99526 226.773279 385.438246 213.309759 
C 398.881232 199.84624 414.307889 188.521363 431.180607 179.729797 
C 448.053324 170.93823 466.173795 164.783302 484.910528 161.479509 
z
" style="fill: #ff7f0e"/>
   </g>
   <g id="matplotlib.axis_1"/>
   <g id="matplotlib.axis_2"/>
  </g>
 </g>
</svg>
