<?xml version="1.0" encoding="utf-8" standalone="no"?>
<!DOCTYPE svg PUBLIC "-//W3C//DTD SVG 1.1//EN"
  "http://www.w3.org/Graphics/SVG/1.1/DTD/svg11.dtd">
<svg xmlns:xlink="http://www.w3.org/1999/xlink" width="1031.9649pt" height="679.68pt" viewBox="0 0 1031.9649 679.68" xmlns="http://www.w3.org/2000/svg" version="1.1">
 <metadata>
  <rdf:RDF xmlns:dc="http://purl.org/dc/elements/1.1/" xmlns:cc="http://creativecommons.org/ns#" xmlns:rdf="http://www.w3.org/1999/02/22-rdf-syntax-ns#">
   <cc:Work>
    <dc:type rdf:resource="http://purl.org/dc/dcmitype/StillImage"/>
    <dc:date>2023-10-13T09:56:16.599584</dc:date>
    <dc:format>image/svg+xml</dc:format>
    <dc:creator>
     <cc:Agent>
      <dc:title>Matplotlib v3.7.3, https://matplotlib.org/</dc:title>
     </cc:Agent>
    </dc:creator>
   </cc:Work>
  </rdf:RDF>
 </metadata>
 <defs>
  <style type="text/css">*{stroke-linejoin: round; stroke-linecap: butt}</style>
 </defs>
 <g id="figure_1">
  <g id="patch_1">
   <path d="M 0 679.68 
L 1031.9649 679.68 
L 1031.9649 0 
L 0 0 
z
" style="fill: #ffffff"/>
  </g>
  <g id="axes_1">
   <g id="patch_2">
    <path d="M 864.900805 594.893611 
L 785.215324 594.893611 
L 709.082241 523.388843 
" style="fill: none; stroke: #000000; stroke-width: 3; stroke-linecap: round"/>
   </g>
   <g id="text_1">
    <g id="patch_3">
     <path d="M 866.903963 615.410798 
L 1030.7649 615.410798 
L 1030.7649 574.376423 
L 866.903963 574.376423 
z
" style="fill: #ffffff"/>
    </g>
    <!-- Q [79.2%] -->
    <g transform="translate(872.903963 603.171736) scale(0.3 -0.3)">
     <defs>
      <path id="DejaVuSans-51" d="M 2522 4238 
Q 1834 4238 1429 3725 
Q 1025 3213 1025 2328 
Q 1025 1447 1429 934 
Q 1834 422 2522 422 
Q 3209 422 3611 934 
Q 4013 1447 4013 2328 
Q 4013 3213 3611 3725 
Q 3209 4238 2522 4238 
z
M 3406 84 
L 4238 -825 
L 3475 -825 
L 2784 -78 
Q 2681 -84 2626 -87 
Q 2572 -91 2522 -91 
Q 1538 -91 948 567 
Q 359 1225 359 2328 
Q 359 3434 948 4092 
Q 1538 4750 2522 4750 
Q 3503 4750 4090 4092 
Q 4678 3434 4678 2328 
Q 4678 1516 4351 937 
Q 4025 359 3406 84 
z
" transform="scale(0.015625)"/>
      <path id="DejaVuSans-20" transform="scale(0.015625)"/>
      <path id="DejaVuSans-5b" d="M 550 4863 
L 1875 4863 
L 1875 4416 
L 1125 4416 
L 1125 -397 
L 1875 -397 
L 1875 -844 
L 550 -844 
L 550 4863 
z
" transform="scale(0.015625)"/>
      <path id="DejaVuSans-37" d="M 525 4666 
L 3525 4666 
L 3525 4397 
L 1831 0 
L 1172 0 
L 2766 4134 
L 525 4134 
L 525 4666 
z
" transform="scale(0.015625)"/>
      <path id="DejaVuSans-39" d="M 703 97 
L 703 672 
Q 941 559 1184 500 
Q 1428 441 1663 441 
Q 2288 441 2617 861 
Q 2947 1281 2994 2138 
Q 2813 1869 2534 1725 
Q 2256 1581 1919 1581 
Q 1219 1581 811 2004 
Q 403 2428 403 3163 
Q 403 3881 828 4315 
Q 1253 4750 1959 4750 
Q 2769 4750 3195 4129 
Q 3622 3509 3622 2328 
Q 3622 1225 3098 567 
Q 2575 -91 1691 -91 
Q 1453 -91 1209 -44 
Q 966 3 703 97 
z
M 1959 2075 
Q 2384 2075 2632 2365 
Q 2881 2656 2881 3163 
Q 2881 3666 2632 3958 
Q 2384 4250 1959 4250 
Q 1534 4250 1286 3958 
Q 1038 3666 1038 3163 
Q 1038 2656 1286 2365 
Q 1534 2075 1959 2075 
z
" transform="scale(0.015625)"/>
      <path id="DejaVuSans-2e" d="M 684 794 
L 1344 794 
L 1344 0 
L 684 0 
L 684 794 
z
" transform="scale(0.015625)"/>
      <path id="DejaVuSans-32" d="M 1228 531 
L 3431 531 
L 3431 0 
L 469 0 
L 469 531 
Q 828 903 1448 1529 
Q 2069 2156 2228 2338 
Q 2531 2678 2651 2914 
Q 2772 3150 2772 3378 
Q 2772 3750 2511 3984 
Q 2250 4219 1831 4219 
Q 1534 4219 1204 4116 
Q 875 4013 500 3803 
L 500 4441 
Q 881 4594 1212 4672 
Q 1544 4750 1819 4750 
Q 2544 4750 2975 4387 
Q 3406 4025 3406 3419 
Q 3406 3131 3298 2873 
Q 3191 2616 2906 2266 
Q 2828 2175 2409 1742 
Q 1991 1309 1228 531 
z
" transform="scale(0.015625)"/>
      <path id="DejaVuSans-25" d="M 4653 2053 
Q 4381 2053 4226 1822 
Q 4072 1591 4072 1178 
Q 4072 772 4226 539 
Q 4381 306 4653 306 
Q 4919 306 5073 539 
Q 5228 772 5228 1178 
Q 5228 1588 5073 1820 
Q 4919 2053 4653 2053 
z
M 4653 2450 
Q 5147 2450 5437 2106 
Q 5728 1763 5728 1178 
Q 5728 594 5436 251 
Q 5144 -91 4653 -91 
Q 4153 -91 3862 251 
Q 3572 594 3572 1178 
Q 3572 1766 3864 2108 
Q 4156 2450 4653 2450 
z
M 1428 4353 
Q 1159 4353 1004 4120 
Q 850 3888 850 3481 
Q 850 3069 1003 2837 
Q 1156 2606 1428 2606 
Q 1700 2606 1854 2837 
Q 2009 3069 2009 3481 
Q 2009 3884 1853 4118 
Q 1697 4353 1428 4353 
z
M 4250 4750 
L 4750 4750 
L 1831 -91 
L 1331 -91 
L 4250 4750 
z
M 1428 4750 
Q 1922 4750 2215 4408 
Q 2509 4066 2509 3481 
Q 2509 2891 2217 2550 
Q 1925 2209 1428 2209 
Q 931 2209 642 2551 
Q 353 2894 353 3481 
Q 353 4063 643 4406 
Q 934 4750 1428 4750 
z
" transform="scale(0.015625)"/>
      <path id="DejaVuSans-5d" d="M 1947 4863 
L 1947 -844 
L 622 -844 
L 622 -397 
L 1369 -397 
L 1369 4416 
L 622 4416 
L 622 4863 
L 1947 4863 
z
" transform="scale(0.015625)"/>
     </defs>
     <use xlink:href="#DejaVuSans-51"/>
     <use xlink:href="#DejaVuSans-20" x="78.710938"/>
     <use xlink:href="#DejaVuSans-5b" x="110.498047"/>
     <use xlink:href="#DejaVuSans-37" x="149.511719"/>
     <use xlink:href="#DejaVuSans-39" x="213.134766"/>
     <use xlink:href="#DejaVuSans-2e" x="276.757812"/>
     <use xlink:href="#DejaVuSans-32" x="308.544922"/>
     <use xlink:href="#DejaVuSans-25" x="372.167969"/>
     <use xlink:href="#DejaVuSans-5d" x="467.1875"/>
    </g>
   </g>
   <g id="patch_4">
    <path d="M 162.396512 84.786402 
L 242.090189 84.786402 
L 318.223275 156.291166 
" style="fill: none; stroke: #000000; stroke-width: 3; stroke-linecap: round"/>
   </g>
   <g id="text_2">
    <g id="patch_5">
     <path d="M 1.2 105.30359 
L 160.401562 105.30359 
L 160.401562 64.269215 
L 1.2 64.269215 
z
" style="fill: #ffffff"/>
    </g>
    <!-- E [20.4%] -->
    <g transform="translate(7.2 93.064527) scale(0.3 -0.3)">
     <defs>
      <path id="DejaVuSans-45" d="M 628 4666 
L 3578 4666 
L 3578 4134 
L 1259 4134 
L 1259 2753 
L 3481 2753 
L 3481 2222 
L 1259 2222 
L 1259 531 
L 3634 531 
L 3634 0 
L 628 0 
L 628 4666 
z
" transform="scale(0.015625)"/>
      <path id="DejaVuSans-30" d="M 2034 4250 
Q 1547 4250 1301 3770 
Q 1056 3291 1056 2328 
Q 1056 1369 1301 889 
Q 1547 409 2034 409 
Q 2525 409 2770 889 
Q 3016 1369 3016 2328 
Q 3016 3291 2770 3770 
Q 2525 4250 2034 4250 
z
M 2034 4750 
Q 2819 4750 3233 4129 
Q 3647 3509 3647 2328 
Q 3647 1150 3233 529 
Q 2819 -91 2034 -91 
Q 1250 -91 836 529 
Q 422 1150 422 2328 
Q 422 3509 836 4129 
Q 1250 4750 2034 4750 
z
" transform="scale(0.015625)"/>
      <path id="DejaVuSans-34" d="M 2419 4116 
L 825 1625 
L 2419 1625 
L 2419 4116 
z
M 2253 4666 
L 3047 4666 
L 3047 1625 
L 3713 1625 
L 3713 1100 
L 3047 1100 
L 3047 0 
L 2419 0 
L 2419 1100 
L 313 1100 
L 313 1709 
L 2253 4666 
z
" transform="scale(0.015625)"/>
     </defs>
     <use xlink:href="#DejaVuSans-45"/>
     <use xlink:href="#DejaVuSans-20" x="63.183594"/>
     <use xlink:href="#DejaVuSans-5b" x="94.970703"/>
     <use xlink:href="#DejaVuSans-32" x="133.984375"/>
     <use xlink:href="#DejaVuSans-30" x="197.607422"/>
     <use xlink:href="#DejaVuSans-2e" x="261.230469"/>
     <use xlink:href="#DejaVuSans-34" x="293.017578"/>
     <use xlink:href="#DejaVuSans-25" x="356.640625"/>
     <use xlink:href="#DejaVuSans-5d" x="451.660156"/>
    </g>
   </g>
   <g id="patch_6">
    <path d="M 249.20377 310.136015 
C 246.104084 337.731929 247.342969 365.643741 252.875375 392.856514 
C 258.407781 420.069288 268.165829 446.249138 281.794695 470.444108 
C 295.423561 494.639078 312.756026 516.552309 333.161844 535.386989 
C 353.567662 554.221668 376.796465 569.746705 402.003602 581.397574 
C 427.21074 593.048444 454.086935 600.682196 481.654911 604.021252 
C 509.222886 607.360308 537.144398 606.363699 564.404159 601.067664 
C 591.66392 595.771628 617.927468 586.241146 642.239803 572.822767 
C 666.552138 559.404387 688.614962 542.262746 707.626021 522.02115 
C 726.63708 501.779555 742.36312 478.686359 754.232308 453.581281 
C 766.101495 428.476203 773.968202 401.667268 777.546377 374.129308 
C 781.124552 346.591349 780.370294 318.66224 775.311028 291.357544 
C 770.251763 264.052849 760.949564 237.707581 747.742681 213.279712 
C 734.535798 188.851842 717.586271 166.641088 697.510423 147.455081 
C 677.434575 128.269073 654.478725 112.343214 629.477597 100.256603 
C 604.47647 88.169991 577.736815 80.070923 550.230945 76.253898 
C 522.725075 72.436873 494.790472 72.948724 467.442899 77.770839 
L 481.305858 156.391587 
C 500.449159 153.016107 520.003381 152.657811 539.25749 155.329729 
C 558.511599 158.001646 577.229358 163.670994 594.730147 172.131622 
C 612.230936 180.59225 628.300031 191.740351 642.353125 205.170557 
C 656.406219 218.600762 668.270887 234.14829 677.515705 251.247798 
C 686.760524 268.347307 693.272063 286.788994 696.813549 305.902281 
C 700.355034 325.015568 700.883015 344.565944 698.378293 363.842516 
C 695.87357 383.119088 690.366875 401.885342 682.058444 419.458896 
C 673.750013 437.032451 662.741785 453.197689 649.434043 467.366805 
C 636.126302 481.535922 620.682325 493.535071 603.663691 502.927937 
C 586.645056 512.320802 568.260572 518.99214 549.17874 522.699365 
C 530.096907 526.406589 510.551849 527.104216 491.254266 524.766877 
C 471.956683 522.429537 453.143347 517.08591 435.49835 508.930302 
C 417.853354 500.774693 401.593192 489.907168 387.309119 476.722892 
C 373.025047 463.538616 360.892321 448.199355 351.352115 431.262875 
C 341.811909 414.326396 334.981276 396.000501 331.108591 376.95156 
C 327.235907 357.902619 326.368688 338.364351 328.538468 319.04721 
z
" style="fill: #1f77b4"/>
   </g>
   <g id="patch_7">
    <path d="M 467.442874 77.770844 
C 410.864801 87.74709 359.010556 115.781998 319.679496 157.658859 
C 280.348435 199.53572 255.616559 253.044159 249.20377 310.136015 
L 328.538468 319.04721 
C 333.02742 279.082911 350.339733 241.627004 377.871476 212.313201 
C 405.403218 182.999398 441.701189 163.374963 481.305841 156.39159 
z
" style="fill: #ff7f0e"/>
   </g>
   <g id="matplotlib.axis_1"/>
   <g id="matplotlib.axis_2"/>
  </g>
 </g>
</svg>
