<?xml version="1.0" encoding="utf-8" standalone="no"?>
<!DOCTYPE svg PUBLIC "-//W3C//DTD SVG 1.1//EN"
  "http://www.w3.org/Graphics/SVG/1.1/DTD/svg11.dtd">
<svg xmlns:xlink="http://www.w3.org/1999/xlink" width="997.478963pt" height="781.436644pt" viewBox="0 0 997.478963 781.436644" xmlns="http://www.w3.org/2000/svg" version="1.1">
 <metadata>
  <rdf:RDF xmlns:dc="http://purl.org/dc/elements/1.1/" xmlns:cc="http://creativecommons.org/ns#" xmlns:rdf="http://www.w3.org/1999/02/22-rdf-syntax-ns#">
   <cc:Work>
    <dc:type rdf:resource="http://purl.org/dc/dcmitype/StillImage"/>
    <dc:date>2023-10-13T09:50:18.637589</dc:date>
    <dc:format>image/svg+xml</dc:format>
    <dc:creator>
     <cc:Agent>
      <dc:title>Matplotlib v3.7.3, https://matplotlib.org/</dc:title>
     </cc:Agent>
    </dc:creator>
   </cc:Work>
  </rdf:RDF>
 </metadata>
 <defs>
  <style type="text/css">*{stroke-linejoin: round; stroke-linecap: butt}</style>
 </defs>
 <g id="figure_1">
  <g id="patch_1">
   <path d="M 0 781.436644 
L 997.478963 781.436644 
L 997.478963 0 
L 0 0 
z
" style="fill: #ffffff"/>
  </g>
  <g id="axes_1">
   <g id="patch_2">
    <path d="M 864.269282 21.717187 
L 564.369054 21.717187 
L 549.973234 125.167361 
" style="fill: none; stroke: #000000; stroke-width: 3; stroke-linecap: round"/>
   </g>
   <g id="text_1">
    <g id="patch_3">
     <path d="M 866.27115 42.234375 
L 996.278963 42.234375 
L 996.278963 1.2 
L 866.27115 1.2 
z
" style="fill: #ffffff"/>
    </g>
    <!-- I [9.9%] -->
    <g transform="translate(872.27115 29.995312) scale(0.3 -0.3)">
     <defs>
      <path id="DejaVuSans-49" d="M 628 4666 
L 1259 4666 
L 1259 0 
L 628 0 
L 628 4666 
z
" transform="scale(0.015625)"/>
      <path id="DejaVuSans-20" transform="scale(0.015625)"/>
      <path id="DejaVuSans-5b" d="M 550 4863 
L 1875 4863 
L 1875 4416 
L 1125 4416 
L 1125 -397 
L 1875 -397 
L 1875 -844 
L 550 -844 
L 550 4863 
z
" transform="scale(0.015625)"/>
      <path id="DejaVuSans-39" d="M 703 97 
L 703 672 
Q 941 559 1184 500 
Q 1428 441 1663 441 
Q 2288 441 2617 861 
Q 2947 1281 2994 2138 
Q 2813 1869 2534 1725 
Q 2256 1581 1919 1581 
Q 1219 1581 811 2004 
Q 403 2428 403 3163 
Q 403 3881 828 4315 
Q 1253 4750 1959 4750 
Q 2769 4750 3195 4129 
Q 3622 3509 3622 2328 
Q 3622 1225 3098 567 
Q 2575 -91 1691 -91 
Q 1453 -91 1209 -44 
Q 966 3 703 97 
z
M 1959 2075 
Q 2384 2075 2632 2365 
Q 2881 2656 2881 3163 
Q 2881 3666 2632 3958 
Q 2384 4250 1959 4250 
Q 1534 4250 1286 3958 
Q 1038 3666 1038 3163 
Q 1038 2656 1286 2365 
Q 1534 2075 1959 2075 
z
" transform="scale(0.015625)"/>
      <path id="DejaVuSans-2e" d="M 684 794 
L 1344 794 
L 1344 0 
L 684 0 
L 684 794 
z
" transform="scale(0.015625)"/>
      <path id="DejaVuSans-25" d="M 4653 2053 
Q 4381 2053 4226 1822 
Q 4072 1591 4072 1178 
Q 4072 772 4226 539 
Q 4381 306 4653 306 
Q 4919 306 5073 539 
Q 5228 772 5228 1178 
Q 5228 1588 5073 1820 
Q 4919 2053 4653 2053 
z
M 4653 2450 
Q 5147 2450 5437 2106 
Q 5728 1763 5728 1178 
Q 5728 594 5436 251 
Q 5144 -91 4653 -91 
Q 4153 -91 3862 251 
Q 3572 594 3572 1178 
Q 3572 1766 3864 2108 
Q 4156 2450 4653 2450 
z
M 1428 4353 
Q 1159 4353 1004 4120 
Q 850 3888 850 3481 
Q 850 3069 1003 2837 
Q 1156 2606 1428 2606 
Q 1700 2606 1854 2837 
Q 2009 3069 2009 3481 
Q 2009 3884 1853 4118 
Q 1697 4353 1428 4353 
z
M 4250 4750 
L 4750 4750 
L 1831 -91 
L 1331 -91 
L 4250 4750 
z
M 1428 4750 
Q 1922 4750 2215 4408 
Q 2509 4066 2509 3481 
Q 2509 2891 2217 2550 
Q 1925 2209 1428 2209 
Q 931 2209 642 2551 
Q 353 2894 353 3481 
Q 353 4063 643 4406 
Q 934 4750 1428 4750 
z
" transform="scale(0.015625)"/>
      <path id="DejaVuSans-5d" d="M 1947 4863 
L 1947 -844 
L 622 -844 
L 622 -397 
L 1369 -397 
L 1369 4416 
L 622 4416 
L 622 4863 
L 1947 4863 
z
" transform="scale(0.015625)"/>
     </defs>
     <use xlink:href="#DejaVuSans-49"/>
     <use xlink:href="#DejaVuSans-20" x="29.492188"/>
     <use xlink:href="#DejaVuSans-5b" x="61.279297"/>
     <use xlink:href="#DejaVuSans-39" x="100.292969"/>
     <use xlink:href="#DejaVuSans-2e" x="163.916016"/>
     <use xlink:href="#DejaVuSans-39" x="195.703125"/>
     <use xlink:href="#DejaVuSans-25" x="259.326172"/>
     <use xlink:href="#DejaVuSans-5d" x="354.345703"/>
    </g>
   </g>
   <g id="patch_4">
    <path d="M 161.775106 759.719457 
L 461.67082 759.719457 
L 476.066647 656.269284 
" style="fill: none; stroke: #000000; stroke-width: 3; stroke-linecap: round"/>
   </g>
   <g id="text_2">
    <g id="patch_5">
     <path d="M 1.2 780.236644 
L 159.76875 780.236644 
L 159.76875 739.202269 
L 1.2 739.202269 
z
" style="fill: #ffffff"/>
    </g>
    <!-- T [89.6%] -->
    <g transform="translate(7.2 767.997582) scale(0.3 -0.3)">
     <defs>
      <path id="DejaVuSans-54" d="M -19 4666 
L 3928 4666 
L 3928 4134 
L 2272 4134 
L 2272 0 
L 1638 0 
L 1638 4134 
L -19 4134 
L -19 4666 
z
" transform="scale(0.015625)"/>
      <path id="DejaVuSans-38" d="M 2034 2216 
Q 1584 2216 1326 1975 
Q 1069 1734 1069 1313 
Q 1069 891 1326 650 
Q 1584 409 2034 409 
Q 2484 409 2743 651 
Q 3003 894 3003 1313 
Q 3003 1734 2745 1975 
Q 2488 2216 2034 2216 
z
M 1403 2484 
Q 997 2584 770 2862 
Q 544 3141 544 3541 
Q 544 4100 942 4425 
Q 1341 4750 2034 4750 
Q 2731 4750 3128 4425 
Q 3525 4100 3525 3541 
Q 3525 3141 3298 2862 
Q 3072 2584 2669 2484 
Q 3125 2378 3379 2068 
Q 3634 1759 3634 1313 
Q 3634 634 3220 271 
Q 2806 -91 2034 -91 
Q 1263 -91 848 271 
Q 434 634 434 1313 
Q 434 1759 690 2068 
Q 947 2378 1403 2484 
z
M 1172 3481 
Q 1172 3119 1398 2916 
Q 1625 2713 2034 2713 
Q 2441 2713 2670 2916 
Q 2900 3119 2900 3481 
Q 2900 3844 2670 4047 
Q 2441 4250 2034 4250 
Q 1625 4250 1398 4047 
Q 1172 3844 1172 3481 
z
" transform="scale(0.015625)"/>
      <path id="DejaVuSans-36" d="M 2113 2584 
Q 1688 2584 1439 2293 
Q 1191 2003 1191 1497 
Q 1191 994 1439 701 
Q 1688 409 2113 409 
Q 2538 409 2786 701 
Q 3034 994 3034 1497 
Q 3034 2003 2786 2293 
Q 2538 2584 2113 2584 
z
M 3366 4563 
L 3366 3988 
Q 3128 4100 2886 4159 
Q 2644 4219 2406 4219 
Q 1781 4219 1451 3797 
Q 1122 3375 1075 2522 
Q 1259 2794 1537 2939 
Q 1816 3084 2150 3084 
Q 2853 3084 3261 2657 
Q 3669 2231 3669 1497 
Q 3669 778 3244 343 
Q 2819 -91 2113 -91 
Q 1303 -91 875 529 
Q 447 1150 447 2328 
Q 447 3434 972 4092 
Q 1497 4750 2381 4750 
Q 2619 4750 2861 4703 
Q 3103 4656 3366 4563 
z
" transform="scale(0.015625)"/>
     </defs>
     <use xlink:href="#DejaVuSans-54"/>
     <use xlink:href="#DejaVuSans-20" x="61.083984"/>
     <use xlink:href="#DejaVuSans-5b" x="92.871094"/>
     <use xlink:href="#DejaVuSans-38" x="131.884766"/>
     <use xlink:href="#DejaVuSans-39" x="195.507812"/>
     <use xlink:href="#DejaVuSans-2e" x="259.130859"/>
     <use xlink:href="#DejaVuSans-36" x="290.917969"/>
     <use xlink:href="#DejaVuSans-25" x="354.541016"/>
     <use xlink:href="#DejaVuSans-5d" x="449.560547"/>
    </g>
   </g>
   <g id="patch_6">
    <path d="M 629.026087 151.222661 
C 604.003719 139.102407 577.235756 130.978173 549.697881 127.146084 
C 522.160007 123.313995 494.19092 123.821184 466.810086 128.649163 
L 480.673045 207.269912 
C 499.839629 203.890326 519.41799 203.535294 538.694502 206.217756 
C 557.971014 208.900218 576.708589 214.587182 594.224246 223.07136 
z
" style="fill: #1f77b4"/>
   </g>
   <g id="patch_7">
    <path d="M 466.810123 128.649157 
C 435.840768 134.109885 406.083123 145.017221 378.920681 160.86406 
C 351.75824 176.710899 327.618574 197.247791 307.623986 221.519935 
C 287.629399 245.792079 272.094629 273.4174 261.741921 303.11154 
C 251.389213 332.80568 246.381531 364.101216 246.951693 395.543153 
C 247.521855 426.985091 253.660885 458.078494 265.083368 487.377767 
C 276.505851 516.67704 293.031982 543.720975 313.893428 567.252243 
C 334.754873 590.783512 359.623247 610.431703 387.342369 625.28333 
C 415.06149 640.134958 445.195023 649.956239 476.342 654.290562 
C 507.488977 658.624885 539.159103 657.404022 569.879971 650.684735 
C 600.600838 643.965447 629.88886 631.853504 656.382378 614.912014 
C 682.875895 597.970525 706.157866 576.466171 725.145863 551.398732 
C 744.13386 526.331293 758.528989 498.095365 767.66199 468.003691 
C 776.794991 437.912018 780.5221 406.438281 778.670034 375.04576 
C 776.817969 343.653239 769.415884 312.836092 756.807918 284.027071 
C 744.199951 255.21805 726.584568 228.870646 704.780744 206.209803 
C 682.976921 183.548961 657.327876 164.93139 629.026087 151.222661 
L 594.224246 223.07136 
C 614.035498 232.66747 631.989829 245.69977 647.252506 261.562359 
C 662.515183 277.424949 674.845951 295.868132 683.671527 316.034447 
C 692.497104 336.200762 697.678563 357.772765 698.975009 379.747529 
C 700.271455 401.722294 697.662479 423.75391 691.269378 444.818081 
C 684.876277 465.882252 674.799687 485.647403 661.508089 503.19461 
C 648.216491 520.741817 631.919112 535.794865 613.37365 547.653907 
C 594.828187 559.51295 574.326572 567.99131 552.821965 572.694811 
C 531.317357 577.398313 509.148269 578.252917 487.345385 575.218891 
C 465.542501 572.184864 444.449028 565.309968 425.045643 554.913828 
C 405.642258 544.517689 388.234396 530.763956 373.631384 514.292068 
C 359.028373 497.820179 347.460081 478.889425 339.464343 458.379934 
C 331.468605 437.870443 327.171283 416.105061 326.77217 394.095704 
C 326.373057 372.086348 329.878434 350.179473 337.12533 329.393575 
C 344.372225 308.607677 355.246564 289.269953 369.242776 272.279452 
C 383.238987 255.288951 400.136753 240.913126 419.150462 229.820339 
C 438.164171 218.727552 458.994522 211.092417 480.673071 207.269907 
z
" style="fill: #ff7f0e"/>
   </g>
   <g id="matplotlib.axis_1"/>
   <g id="matplotlib.axis_2"/>
  </g>
 </g>
</svg>
