<?xml version="1.0" encoding="utf-8" standalone="no"?>
<!DOCTYPE svg PUBLIC "-//W3C//DTD SVG 1.1//EN"
  "http://www.w3.org/Graphics/SVG/1.1/DTD/svg11.dtd">
<svg xmlns:xlink="http://www.w3.org/1999/xlink" width="1010.824275pt" height="788.462353pt" viewBox="0 0 1010.824275 788.462353" xmlns="http://www.w3.org/2000/svg" version="1.1">
 <metadata>
  <rdf:RDF xmlns:dc="http://purl.org/dc/elements/1.1/" xmlns:cc="http://creativecommons.org/ns#" xmlns:rdf="http://www.w3.org/1999/02/22-rdf-syntax-ns#">
   <cc:Work>
    <dc:type rdf:resource="http://purl.org/dc/dcmitype/StillImage"/>
    <dc:date>2023-10-13T09:59:06.628163</dc:date>
    <dc:format>image/svg+xml</dc:format>
    <dc:creator>
     <cc:Agent>
      <dc:title>Matplotlib v3.7.3, https://matplotlib.org/</dc:title>
     </cc:Agent>
    </dc:creator>
   </cc:Work>
  </rdf:RDF>
 </metadata>
 <defs>
  <style type="text/css">*{stroke-linejoin: round; stroke-linecap: butt}</style>
 </defs>
 <g id="figure_1">
  <g id="patch_1">
   <path d="M 0 788.462353 
L 1010.824275 788.462353 
L 1010.824275 0 
L 0 0 
z
" style="fill: #ffffff"/>
  </g>
  <g id="axes_1">
   <g id="patch_2">
    <path d="M 866.791322 21.717187 
L 521.189582 21.717187 
L 519.606223 126.152196 
" style="fill: none; stroke: #000000; stroke-width: 3; stroke-linecap: round"/>
   </g>
   <g id="text_1">
    <g id="patch_3">
     <path d="M 868.793025 42.234375 
L 1009.624275 42.234375 
L 1009.624275 1.2 
L 868.793025 1.2 
z
" style="fill: #ffffff"/>
    </g>
    <!-- K [6.0%] -->
    <g transform="translate(874.793025 29.995312) scale(0.3 -0.3)">
     <defs>
      <path id="DejaVuSans-4b" d="M 628 4666 
L 1259 4666 
L 1259 2694 
L 3353 4666 
L 4166 4666 
L 1850 2491 
L 4331 0 
L 3500 0 
L 1259 2247 
L 1259 0 
L 628 0 
L 628 4666 
z
" transform="scale(0.015625)"/>
      <path id="DejaVuSans-20" transform="scale(0.015625)"/>
      <path id="DejaVuSans-5b" d="M 550 4863 
L 1875 4863 
L 1875 4416 
L 1125 4416 
L 1125 -397 
L 1875 -397 
L 1875 -844 
L 550 -844 
L 550 4863 
z
" transform="scale(0.015625)"/>
      <path id="DejaVuSans-36" d="M 2113 2584 
Q 1688 2584 1439 2293 
Q 1191 2003 1191 1497 
Q 1191 994 1439 701 
Q 1688 409 2113 409 
Q 2538 409 2786 701 
Q 3034 994 3034 1497 
Q 3034 2003 2786 2293 
Q 2538 2584 2113 2584 
z
M 3366 4563 
L 3366 3988 
Q 3128 4100 2886 4159 
Q 2644 4219 2406 4219 
Q 1781 4219 1451 3797 
Q 1122 3375 1075 2522 
Q 1259 2794 1537 2939 
Q 1816 3084 2150 3084 
Q 2853 3084 3261 2657 
Q 3669 2231 3669 1497 
Q 3669 778 3244 343 
Q 2819 -91 2113 -91 
Q 1303 -91 875 529 
Q 447 1150 447 2328 
Q 447 3434 972 4092 
Q 1497 4750 2381 4750 
Q 2619 4750 2861 4703 
Q 3103 4656 3366 4563 
z
" transform="scale(0.015625)"/>
      <path id="DejaVuSans-2e" d="M 684 794 
L 1344 794 
L 1344 0 
L 684 0 
L 684 794 
z
" transform="scale(0.015625)"/>
      <path id="DejaVuSans-30" d="M 2034 4250 
Q 1547 4250 1301 3770 
Q 1056 3291 1056 2328 
Q 1056 1369 1301 889 
Q 1547 409 2034 409 
Q 2525 409 2770 889 
Q 3016 1369 3016 2328 
Q 3016 3291 2770 3770 
Q 2525 4250 2034 4250 
z
M 2034 4750 
Q 2819 4750 3233 4129 
Q 3647 3509 3647 2328 
Q 3647 1150 3233 529 
Q 2819 -91 2034 -91 
Q 1250 -91 836 529 
Q 422 1150 422 2328 
Q 422 3509 836 4129 
Q 1250 4750 2034 4750 
z
" transform="scale(0.015625)"/>
      <path id="DejaVuSans-25" d="M 4653 2053 
Q 4381 2053 4226 1822 
Q 4072 1591 4072 1178 
Q 4072 772 4226 539 
Q 4381 306 4653 306 
Q 4919 306 5073 539 
Q 5228 772 5228 1178 
Q 5228 1588 5073 1820 
Q 4919 2053 4653 2053 
z
M 4653 2450 
Q 5147 2450 5437 2106 
Q 5728 1763 5728 1178 
Q 5728 594 5436 251 
Q 5144 -91 4653 -91 
Q 4153 -91 3862 251 
Q 3572 594 3572 1178 
Q 3572 1766 3864 2108 
Q 4156 2450 4653 2450 
z
M 1428 4353 
Q 1159 4353 1004 4120 
Q 850 3888 850 3481 
Q 850 3069 1003 2837 
Q 1156 2606 1428 2606 
Q 1700 2606 1854 2837 
Q 2009 3069 2009 3481 
Q 2009 3884 1853 4118 
Q 1697 4353 1428 4353 
z
M 4250 4750 
L 4750 4750 
L 1831 -91 
L 1331 -91 
L 4250 4750 
z
M 1428 4750 
Q 1922 4750 2215 4408 
Q 2509 4066 2509 3481 
Q 2509 2891 2217 2550 
Q 1925 2209 1428 2209 
Q 931 2209 642 2551 
Q 353 2894 353 3481 
Q 353 4063 643 4406 
Q 934 4750 1428 4750 
z
" transform="scale(0.015625)"/>
      <path id="DejaVuSans-5d" d="M 1947 4863 
L 1947 -844 
L 622 -844 
L 622 -397 
L 1369 -397 
L 1369 4416 
L 622 4416 
L 622 4863 
L 1947 4863 
z
" transform="scale(0.015625)"/>
     </defs>
     <use xlink:href="#DejaVuSans-4b"/>
     <use xlink:href="#DejaVuSans-20" x="65.576172"/>
     <use xlink:href="#DejaVuSans-5b" x="97.363281"/>
     <use xlink:href="#DejaVuSans-36" x="136.376953"/>
     <use xlink:href="#DejaVuSans-2e" x="200"/>
     <use xlink:href="#DejaVuSans-30" x="231.787109"/>
     <use xlink:href="#DejaVuSans-25" x="295.410156"/>
     <use xlink:href="#DejaVuSans-5d" x="390.429688"/>
    </g>
   </g>
   <g id="patch_4">
    <path d="M 164.290064 766.745165 
L 509.894033 766.745165 
L 511.477402 662.310156 
" style="fill: none; stroke: #000000; stroke-width: 3; stroke-linecap: round"/>
   </g>
   <g id="text_2">
    <g id="patch_5">
     <path d="M 1.2 787.262353 
L 162.290625 787.262353 
L 162.290625 746.227978 
L 1.2 746.227978 
z
" style="fill: #ffffff"/>
    </g>
    <!-- R [93.7%] -->
    <g transform="translate(7.2 775.02329) scale(0.3 -0.3)">
     <defs>
      <path id="DejaVuSans-52" d="M 2841 2188 
Q 3044 2119 3236 1894 
Q 3428 1669 3622 1275 
L 4263 0 
L 3584 0 
L 2988 1197 
Q 2756 1666 2539 1819 
Q 2322 1972 1947 1972 
L 1259 1972 
L 1259 0 
L 628 0 
L 628 4666 
L 2053 4666 
Q 2853 4666 3247 4331 
Q 3641 3997 3641 3322 
Q 3641 2881 3436 2590 
Q 3231 2300 2841 2188 
z
M 1259 4147 
L 1259 2491 
L 2053 2491 
Q 2509 2491 2742 2702 
Q 2975 2913 2975 3322 
Q 2975 3731 2742 3939 
Q 2509 4147 2053 4147 
L 1259 4147 
z
" transform="scale(0.015625)"/>
      <path id="DejaVuSans-39" d="M 703 97 
L 703 672 
Q 941 559 1184 500 
Q 1428 441 1663 441 
Q 2288 441 2617 861 
Q 2947 1281 2994 2138 
Q 2813 1869 2534 1725 
Q 2256 1581 1919 1581 
Q 1219 1581 811 2004 
Q 403 2428 403 3163 
Q 403 3881 828 4315 
Q 1253 4750 1959 4750 
Q 2769 4750 3195 4129 
Q 3622 3509 3622 2328 
Q 3622 1225 3098 567 
Q 2575 -91 1691 -91 
Q 1453 -91 1209 -44 
Q 966 3 703 97 
z
M 1959 2075 
Q 2384 2075 2632 2365 
Q 2881 2656 2881 3163 
Q 2881 3666 2632 3958 
Q 2384 4250 1959 4250 
Q 1534 4250 1286 3958 
Q 1038 3666 1038 3163 
Q 1038 2656 1286 2365 
Q 1534 2075 1959 2075 
z
" transform="scale(0.015625)"/>
      <path id="DejaVuSans-33" d="M 2597 2516 
Q 3050 2419 3304 2112 
Q 3559 1806 3559 1356 
Q 3559 666 3084 287 
Q 2609 -91 1734 -91 
Q 1441 -91 1130 -33 
Q 819 25 488 141 
L 488 750 
Q 750 597 1062 519 
Q 1375 441 1716 441 
Q 2309 441 2620 675 
Q 2931 909 2931 1356 
Q 2931 1769 2642 2001 
Q 2353 2234 1838 2234 
L 1294 2234 
L 1294 2753 
L 1863 2753 
Q 2328 2753 2575 2939 
Q 2822 3125 2822 3475 
Q 2822 3834 2567 4026 
Q 2313 4219 1838 4219 
Q 1578 4219 1281 4162 
Q 984 4106 628 3988 
L 628 4550 
Q 988 4650 1302 4700 
Q 1616 4750 1894 4750 
Q 2613 4750 3031 4423 
Q 3450 4097 3450 3541 
Q 3450 3153 3228 2886 
Q 3006 2619 2597 2516 
z
" transform="scale(0.015625)"/>
      <path id="DejaVuSans-37" d="M 525 4666 
L 3525 4666 
L 3525 4397 
L 1831 0 
L 1172 0 
L 2766 4134 
L 525 4134 
L 525 4666 
z
" transform="scale(0.015625)"/>
     </defs>
     <use xlink:href="#DejaVuSans-52"/>
     <use xlink:href="#DejaVuSans-20" x="69.482422"/>
     <use xlink:href="#DejaVuSans-5b" x="101.269531"/>
     <use xlink:href="#DejaVuSans-39" x="140.283203"/>
     <use xlink:href="#DejaVuSans-33" x="203.90625"/>
     <use xlink:href="#DejaVuSans-2e" x="267.529297"/>
     <use xlink:href="#DejaVuSans-37" x="299.316406"/>
     <use xlink:href="#DejaVuSans-25" x="362.939453"/>
     <use xlink:href="#DejaVuSans-5d" x="457.958984"/>
    </g>
   </g>
   <g id="patch_6">
    <path d="M 569.675187 133.683339 
C 553.18815 130.257869 536.413131 128.405028 519.575937 128.149756 
C 502.738744 127.894484 485.915265 129.237932 469.331961 132.162016 
L 483.19492 210.782764 
C 494.803233 208.735905 506.579668 207.795492 518.365704 207.974182 
C 530.151739 208.152872 541.894253 209.449861 553.435179 211.84769 
z
" style="fill: #1f77b4"/>
   </g>
   <g id="patch_7">
    <path d="M 469.33201 132.162007 
C 437.007444 137.861694 406.014625 149.493045 377.921441 166.467645 
C 349.828257 183.442244 325.116566 205.468942 305.036499 231.433436 
C 284.956432 257.39793 269.852407 286.854874 260.488515 318.314079 
C 251.124624 349.773284 247.661477 382.695157 250.274271 415.414224 
C 252.887065 448.13329 261.530986 480.088349 275.768747 509.662834 
C 290.006508 539.237319 309.593903 565.923966 333.54003 588.372731 
C 357.486156 610.821495 385.380288 628.647334 415.811297 640.948461 
C 446.242306 653.249588 478.688236 659.815012 511.507688 660.312597 
C 544.32714 660.810182 576.957191 655.231394 607.747129 643.858456 
C 638.537068 632.485517 666.95878 615.513499 691.574448 593.800994 
C 716.190117 572.088489 736.577531 546.007912 751.705317 516.878646 
C 766.833102 487.74938 776.441787 456.071055 780.045278 423.446235 
C 783.64877 390.821415 781.185262 357.809686 772.779379 326.081069 
C 764.373497 294.352451 750.169418 264.451159 730.885711 237.889859 
C 711.602003 211.32856 687.569422 188.562836 660.003746 170.744376 
C 632.438069 152.925916 601.812107 140.360345 569.675187 133.683339 
L 553.435179 211.84769 
C 575.931023 216.521595 597.369196 225.317494 616.665169 237.790416 
C 635.961143 250.263338 652.783949 266.199345 666.282545 284.792255 
C 679.78114 303.385164 689.723995 324.316069 695.608113 346.526101 
C 701.492231 368.736133 703.216687 391.844344 700.694242 414.681718 
C 698.171798 437.519091 691.445719 459.693919 680.856269 480.084405 
C 670.266819 500.474891 655.995629 518.731295 638.764661 533.930049 
C 621.533693 549.128803 601.638495 561.009215 580.085538 568.970272 
C 558.532581 576.931329 535.691545 580.836481 512.717929 580.488171 
C 489.744312 580.139861 467.032162 575.544064 445.730456 566.933276 
C 424.428749 558.322487 404.902857 545.8444 388.140568 530.130264 
C 371.378279 514.416129 357.667103 495.735477 347.70067 475.033337 
C 337.734237 454.331197 331.683493 431.962656 329.854537 409.059309 
C 328.025581 386.155963 330.449784 363.110651 337.004508 341.089208 
C 343.559232 319.067765 354.13205 298.447904 368.188097 280.272758 
C 382.244143 262.097613 399.542327 246.678924 419.207556 234.796704 
C 438.872785 222.914484 460.567758 214.772539 483.194955 210.782758 
z
" style="fill: #ff7f0e"/>
   </g>
   <g id="matplotlib.axis_1"/>
   <g id="matplotlib.axis_2"/>
  </g>
 </g>
</svg>
