<?xml version="1.0" encoding="utf-8" standalone="no"?>
<!DOCTYPE svg PUBLIC "-//W3C//DTD SVG 1.1//EN"
  "http://www.w3.org/Graphics/SVG/1.1/DTD/svg11.dtd">
<svg xmlns:xlink="http://www.w3.org/1999/xlink" width="1009.78365pt" height="709.259107pt" viewBox="0 0 1009.78365 709.259107" xmlns="http://www.w3.org/2000/svg" version="1.1">
 <metadata>
  <rdf:RDF xmlns:dc="http://purl.org/dc/elements/1.1/" xmlns:cc="http://creativecommons.org/ns#" xmlns:rdf="http://www.w3.org/1999/02/22-rdf-syntax-ns#">
   <cc:Work>
    <dc:type rdf:resource="http://purl.org/dc/dcmitype/StillImage"/>
    <dc:date>2023-10-13T09:59:26.089632</dc:date>
    <dc:format>image/svg+xml</dc:format>
    <dc:creator>
     <cc:Agent>
      <dc:title>Matplotlib v3.7.3, https://matplotlib.org/</dc:title>
     </cc:Agent>
    </dc:creator>
   </cc:Work>
  </rdf:RDF>
 </metadata>
 <defs>
  <style type="text/css">*{stroke-linejoin: round; stroke-linecap: butt}</style>
 </defs>
 <g id="figure_1">
  <g id="patch_1">
   <path d="M 0 709.259107 
L 1009.78365 709.259107 
L 1009.78365 -0 
L 0 -0 
z
" style="fill: #ffffff"/>
  </g>
  <g id="axes_1">
   <g id="patch_2">
    <path d="M 845.815211 687.541919 
L 661.801432 687.541919 
L 614.916452 594.209306 
" style="fill: none; stroke: #000000; stroke-width: 3; stroke-linecap: round"/>
   </g>
   <g id="text_1">
    <g id="patch_3">
     <path d="M 847.816463 708.059107 
L 1008.58365 708.059107 
L 1008.58365 667.024732 
L 847.816463 667.024732 
z
" style="fill: #ffffff"/>
    </g>
    <!-- A [90.4%] -->
    <g transform="translate(853.816463 695.820044) scale(0.3 -0.3)">
     <defs>
      <path id="DejaVuSans-41" d="M 2188 4044 
L 1331 1722 
L 3047 1722 
L 2188 4044 
z
M 1831 4666 
L 2547 4666 
L 4325 0 
L 3669 0 
L 3244 1197 
L 1141 1197 
L 716 0 
L 50 0 
L 1831 4666 
z
" transform="scale(0.015625)"/>
      <path id="DejaVuSans-20" transform="scale(0.015625)"/>
      <path id="DejaVuSans-5b" d="M 550 4863 
L 1875 4863 
L 1875 4416 
L 1125 4416 
L 1125 -397 
L 1875 -397 
L 1875 -844 
L 550 -844 
L 550 4863 
z
" transform="scale(0.015625)"/>
      <path id="DejaVuSans-39" d="M 703 97 
L 703 672 
Q 941 559 1184 500 
Q 1428 441 1663 441 
Q 2288 441 2617 861 
Q 2947 1281 2994 2138 
Q 2813 1869 2534 1725 
Q 2256 1581 1919 1581 
Q 1219 1581 811 2004 
Q 403 2428 403 3163 
Q 403 3881 828 4315 
Q 1253 4750 1959 4750 
Q 2769 4750 3195 4129 
Q 3622 3509 3622 2328 
Q 3622 1225 3098 567 
Q 2575 -91 1691 -91 
Q 1453 -91 1209 -44 
Q 966 3 703 97 
z
M 1959 2075 
Q 2384 2075 2632 2365 
Q 2881 2656 2881 3163 
Q 2881 3666 2632 3958 
Q 2384 4250 1959 4250 
Q 1534 4250 1286 3958 
Q 1038 3666 1038 3163 
Q 1038 2656 1286 2365 
Q 1534 2075 1959 2075 
z
" transform="scale(0.015625)"/>
      <path id="DejaVuSans-30" d="M 2034 4250 
Q 1547 4250 1301 3770 
Q 1056 3291 1056 2328 
Q 1056 1369 1301 889 
Q 1547 409 2034 409 
Q 2525 409 2770 889 
Q 3016 1369 3016 2328 
Q 3016 3291 2770 3770 
Q 2525 4250 2034 4250 
z
M 2034 4750 
Q 2819 4750 3233 4129 
Q 3647 3509 3647 2328 
Q 3647 1150 3233 529 
Q 2819 -91 2034 -91 
Q 1250 -91 836 529 
Q 422 1150 422 2328 
Q 422 3509 836 4129 
Q 1250 4750 2034 4750 
z
" transform="scale(0.015625)"/>
      <path id="DejaVuSans-2e" d="M 684 794 
L 1344 794 
L 1344 0 
L 684 0 
L 684 794 
z
" transform="scale(0.015625)"/>
      <path id="DejaVuSans-34" d="M 2419 4116 
L 825 1625 
L 2419 1625 
L 2419 4116 
z
M 2253 4666 
L 3047 4666 
L 3047 1625 
L 3713 1625 
L 3713 1100 
L 3047 1100 
L 3047 0 
L 2419 0 
L 2419 1100 
L 313 1100 
L 313 1709 
L 2253 4666 
z
" transform="scale(0.015625)"/>
      <path id="DejaVuSans-25" d="M 4653 2053 
Q 4381 2053 4226 1822 
Q 4072 1591 4072 1178 
Q 4072 772 4226 539 
Q 4381 306 4653 306 
Q 4919 306 5073 539 
Q 5228 772 5228 1178 
Q 5228 1588 5073 1820 
Q 4919 2053 4653 2053 
z
M 4653 2450 
Q 5147 2450 5437 2106 
Q 5728 1763 5728 1178 
Q 5728 594 5436 251 
Q 5144 -91 4653 -91 
Q 4153 -91 3862 251 
Q 3572 594 3572 1178 
Q 3572 1766 3864 2108 
Q 4156 2450 4653 2450 
z
M 1428 4353 
Q 1159 4353 1004 4120 
Q 850 3888 850 3481 
Q 850 3069 1003 2837 
Q 1156 2606 1428 2606 
Q 1700 2606 1854 2837 
Q 2009 3069 2009 3481 
Q 2009 3884 1853 4118 
Q 1697 4353 1428 4353 
z
M 4250 4750 
L 4750 4750 
L 1831 -91 
L 1331 -91 
L 4250 4750 
z
M 1428 4750 
Q 1922 4750 2215 4408 
Q 2509 4066 2509 3481 
Q 2509 2891 2217 2550 
Q 1925 2209 1428 2209 
Q 931 2209 642 2551 
Q 353 2894 353 3481 
Q 353 4063 643 4406 
Q 934 4750 1428 4750 
z
" transform="scale(0.015625)"/>
      <path id="DejaVuSans-5d" d="M 1947 4863 
L 1947 -844 
L 622 -844 
L 622 -397 
L 1369 -397 
L 1369 4416 
L 622 4416 
L 622 4863 
L 1947 4863 
z
" transform="scale(0.015625)"/>
     </defs>
     <use xlink:href="#DejaVuSans-41"/>
     <use xlink:href="#DejaVuSans-20" x="68.408203"/>
     <use xlink:href="#DejaVuSans-5b" x="100.195312"/>
     <use xlink:href="#DejaVuSans-39" x="139.208984"/>
     <use xlink:href="#DejaVuSans-30" x="202.832031"/>
     <use xlink:href="#DejaVuSans-2e" x="266.455078"/>
     <use xlink:href="#DejaVuSans-34" x="298.242188"/>
     <use xlink:href="#DejaVuSans-25" x="361.865234"/>
     <use xlink:href="#DejaVuSans-5d" x="456.884766"/>
    </g>
   </g>
   <g id="patch_4">
    <path d="M 143.312989 21.717188 
L 327.329156 21.717188 
L 374.214118 115.04981 
" style="fill: none; stroke: #000000; stroke-width: 3; stroke-linecap: round"/>
   </g>
   <g id="text_2">
    <g id="patch_5">
     <path d="M 1.2 42.234375 
L 141.314062 42.234375 
L 141.314062 1.2 
L 1.2 1.2 
z
" style="fill: #ffffff"/>
    </g>
    <!-- E [9.2%] -->
    <g transform="translate(7.2 29.995313) scale(0.3 -0.3)">
     <defs>
      <path id="DejaVuSans-45" d="M 628 4666 
L 3578 4666 
L 3578 4134 
L 1259 4134 
L 1259 2753 
L 3481 2753 
L 3481 2222 
L 1259 2222 
L 1259 531 
L 3634 531 
L 3634 0 
L 628 0 
L 628 4666 
z
" transform="scale(0.015625)"/>
      <path id="DejaVuSans-32" d="M 1228 531 
L 3431 531 
L 3431 0 
L 469 0 
L 469 531 
Q 828 903 1448 1529 
Q 2069 2156 2228 2338 
Q 2531 2678 2651 2914 
Q 2772 3150 2772 3378 
Q 2772 3750 2511 3984 
Q 2250 4219 1831 4219 
Q 1534 4219 1204 4116 
Q 875 4013 500 3803 
L 500 4441 
Q 881 4594 1212 4672 
Q 1544 4750 1819 4750 
Q 2544 4750 2975 4387 
Q 3406 4025 3406 3419 
Q 3406 3131 3298 2873 
Q 3191 2616 2906 2266 
Q 2828 2175 2409 1742 
Q 1991 1309 1228 531 
z
" transform="scale(0.015625)"/>
     </defs>
     <use xlink:href="#DejaVuSans-45"/>
     <use xlink:href="#DejaVuSans-20" x="63.183594"/>
     <use xlink:href="#DejaVuSans-5b" x="94.970703"/>
     <use xlink:href="#DejaVuSans-39" x="133.984375"/>
     <use xlink:href="#DejaVuSans-2e" x="197.607422"/>
     <use xlink:href="#DejaVuSans-32" x="229.394531"/>
     <use xlink:href="#DejaVuSans-25" x="293.017578"/>
     <use xlink:href="#DejaVuSans-5d" x="388.037109"/>
    </g>
   </g>
   <g id="patch_6">
    <path d="M 311.909778 161.102902 
C 288.862975 182.855073 269.886044 208.550285 255.874804 236.975578 
C 241.863565 265.400871 233.042012 296.101815 229.826572 327.629154 
C 226.611133 359.156492 229.053212 391.006202 237.037529 421.674798 
C 245.021845 452.343394 258.420757 481.340584 276.601759 507.297534 
C 294.78276 533.254485 317.455196 555.756228 343.548799 573.740555 
C 369.642401 591.724882 398.740018 604.90428 429.468075 612.656608 
C 460.196132 620.408935 492.063388 622.610257 523.565527 619.156659 
C 555.067666 615.70306 585.70107 606.649753 614.019669 592.424105 
C 642.338268 578.198457 667.889338 559.02789 689.466724 535.817364 
C 711.04411 512.606838 728.302858 485.727414 740.428259 456.447954 
C 752.553659 427.168495 759.351866 395.957083 760.501964 364.287076 
C 761.652062 332.617068 757.135666 300.994766 747.165974 270.912922 
C 737.196283 240.831078 721.93268 212.770603 702.095694 188.056112 
C 682.258708 163.34162 658.165468 142.368218 630.953313 126.125967 
C 603.741158 109.883716 573.845122 98.632279 542.676467 92.902787 
C 511.507813 87.173295 479.564826 87.057344 448.355399 92.560408 
L 462.218358 171.181157 
C 484.064957 167.329012 506.425048 167.410177 528.243106 171.420822 
C 550.061164 175.431466 570.988389 183.307472 590.036898 194.677048 
C 609.085406 206.046623 625.950674 220.728005 639.836564 238.028149 
C 653.722455 255.328293 664.406977 274.970625 671.385761 296.027916 
C 678.364545 317.085207 681.526022 339.220819 680.720953 361.389824 
C 679.915885 383.558829 675.15714 405.406817 666.66936 425.902439 
C 658.181579 446.398061 646.100455 465.213657 630.996285 481.461025 
C 615.892115 497.708394 598.006366 511.12779 578.183347 521.085744 
C 558.360328 531.043698 536.916945 537.381013 514.865448 539.798532 
C 492.813951 542.216051 470.506871 540.675125 448.997231 535.248496 
C 427.487591 529.821867 407.11926 520.596288 388.853738 508.007259 
C 370.588216 495.418231 354.717511 479.66701 341.99081 461.497145 
C 329.264109 443.327279 319.884871 423.029247 314.295849 401.56123 
C 308.706827 380.093212 306.997372 357.798415 309.248179 335.729278 
C 311.498987 313.660142 317.674074 292.16948 327.481942 272.271775 
C 337.289809 252.37407 350.573661 234.387422 366.706424 219.160902 
z
" style="fill: #1f77b4"/>
   </g>
   <g id="patch_7">
    <path d="M 448.355497 92.560391 
C 422.891124 97.050437 398.216591 105.228036 375.1109 116.835011 
C 352.00521 128.441986 330.714108 143.354889 311.909778 161.102902 
L 366.706424 219.160902 
C 379.869454 206.737293 394.773226 196.298261 410.947209 188.173378 
C 427.121192 180.048496 444.393366 174.324177 462.218427 171.181144 
z
" style="fill: #ff7f0e"/>
   </g>
   <g id="matplotlib.axis_1"/>
   <g id="matplotlib.axis_2"/>
  </g>
 </g>
</svg>
