<?xml version="1.0" encoding="utf-8" standalone="no"?>
<!DOCTYPE svg PUBLIC "-//W3C//DTD SVG 1.1//EN"
  "http://www.w3.org/Graphics/SVG/1.1/DTD/svg11.dtd">
<svg xmlns:xlink="http://www.w3.org/1999/xlink" width="1031.449275pt" height="679.68pt" viewBox="0 0 1031.449275 679.68" xmlns="http://www.w3.org/2000/svg" version="1.1">
 <metadata>
  <rdf:RDF xmlns:dc="http://purl.org/dc/elements/1.1/" xmlns:cc="http://creativecommons.org/ns#" xmlns:rdf="http://www.w3.org/1999/02/22-rdf-syntax-ns#">
   <cc:Work>
    <dc:type rdf:resource="http://purl.org/dc/dcmitype/StillImage"/>
    <dc:date>2023-10-13T09:56:15.253804</dc:date>
    <dc:format>image/svg+xml</dc:format>
    <dc:creator>
     <cc:Agent>
      <dc:title>Matplotlib v3.7.3, https://matplotlib.org/</dc:title>
     </cc:Agent>
    </dc:creator>
   </cc:Work>
  </rdf:RDF>
 </metadata>
 <defs>
  <style type="text/css">*{stroke-linejoin: round; stroke-linecap: butt}</style>
 </defs>
 <g id="figure_1">
  <g id="patch_1">
   <path d="M 0 679.68 
L 1031.449275 679.68 
L 1031.449275 0 
L 0 0 
z
" style="fill: #ffffff"/>
  </g>
  <g id="axes_1">
   <g id="patch_2">
    <path d="M 869.051424 593.926951 
L 790.263741 593.926951 
L 713.877033 522.693189 
" style="fill: none; stroke: #000000; stroke-width: 3; stroke-linecap: round"/>
   </g>
   <g id="text_1">
    <g id="patch_3">
     <path d="M 871.047713 614.444138 
L 1030.249275 614.444138 
L 1030.249275 573.409763 
L 871.047713 573.409763 
z
" style="fill: #ffffff"/>
    </g>
    <!-- E [79.0%] -->
    <g transform="translate(877.047713 602.205076) scale(0.3 -0.3)">
     <defs>
      <path id="DejaVuSans-45" d="M 628 4666 
L 3578 4666 
L 3578 4134 
L 1259 4134 
L 1259 2753 
L 3481 2753 
L 3481 2222 
L 1259 2222 
L 1259 531 
L 3634 531 
L 3634 0 
L 628 0 
L 628 4666 
z
" transform="scale(0.015625)"/>
      <path id="DejaVuSans-20" transform="scale(0.015625)"/>
      <path id="DejaVuSans-5b" d="M 550 4863 
L 1875 4863 
L 1875 4416 
L 1125 4416 
L 1125 -397 
L 1875 -397 
L 1875 -844 
L 550 -844 
L 550 4863 
z
" transform="scale(0.015625)"/>
      <path id="DejaVuSans-37" d="M 525 4666 
L 3525 4666 
L 3525 4397 
L 1831 0 
L 1172 0 
L 2766 4134 
L 525 4134 
L 525 4666 
z
" transform="scale(0.015625)"/>
      <path id="DejaVuSans-39" d="M 703 97 
L 703 672 
Q 941 559 1184 500 
Q 1428 441 1663 441 
Q 2288 441 2617 861 
Q 2947 1281 2994 2138 
Q 2813 1869 2534 1725 
Q 2256 1581 1919 1581 
Q 1219 1581 811 2004 
Q 403 2428 403 3163 
Q 403 3881 828 4315 
Q 1253 4750 1959 4750 
Q 2769 4750 3195 4129 
Q 3622 3509 3622 2328 
Q 3622 1225 3098 567 
Q 2575 -91 1691 -91 
Q 1453 -91 1209 -44 
Q 966 3 703 97 
z
M 1959 2075 
Q 2384 2075 2632 2365 
Q 2881 2656 2881 3163 
Q 2881 3666 2632 3958 
Q 2384 4250 1959 4250 
Q 1534 4250 1286 3958 
Q 1038 3666 1038 3163 
Q 1038 2656 1286 2365 
Q 1534 2075 1959 2075 
z
" transform="scale(0.015625)"/>
      <path id="DejaVuSans-2e" d="M 684 794 
L 1344 794 
L 1344 0 
L 684 0 
L 684 794 
z
" transform="scale(0.015625)"/>
      <path id="DejaVuSans-30" d="M 2034 4250 
Q 1547 4250 1301 3770 
Q 1056 3291 1056 2328 
Q 1056 1369 1301 889 
Q 1547 409 2034 409 
Q 2525 409 2770 889 
Q 3016 1369 3016 2328 
Q 3016 3291 2770 3770 
Q 2525 4250 2034 4250 
z
M 2034 4750 
Q 2819 4750 3233 4129 
Q 3647 3509 3647 2328 
Q 3647 1150 3233 529 
Q 2819 -91 2034 -91 
Q 1250 -91 836 529 
Q 422 1150 422 2328 
Q 422 3509 836 4129 
Q 1250 4750 2034 4750 
z
" transform="scale(0.015625)"/>
      <path id="DejaVuSans-25" d="M 4653 2053 
Q 4381 2053 4226 1822 
Q 4072 1591 4072 1178 
Q 4072 772 4226 539 
Q 4381 306 4653 306 
Q 4919 306 5073 539 
Q 5228 772 5228 1178 
Q 5228 1588 5073 1820 
Q 4919 2053 4653 2053 
z
M 4653 2450 
Q 5147 2450 5437 2106 
Q 5728 1763 5728 1178 
Q 5728 594 5436 251 
Q 5144 -91 4653 -91 
Q 4153 -91 3862 251 
Q 3572 594 3572 1178 
Q 3572 1766 3864 2108 
Q 4156 2450 4653 2450 
z
M 1428 4353 
Q 1159 4353 1004 4120 
Q 850 3888 850 3481 
Q 850 3069 1003 2837 
Q 1156 2606 1428 2606 
Q 1700 2606 1854 2837 
Q 2009 3069 2009 3481 
Q 2009 3884 1853 4118 
Q 1697 4353 1428 4353 
z
M 4250 4750 
L 4750 4750 
L 1831 -91 
L 1331 -91 
L 4250 4750 
z
M 1428 4750 
Q 1922 4750 2215 4408 
Q 2509 4066 2509 3481 
Q 2509 2891 2217 2550 
Q 1925 2209 1428 2209 
Q 931 2209 642 2551 
Q 353 2894 353 3481 
Q 353 4063 643 4406 
Q 934 4750 1428 4750 
z
" transform="scale(0.015625)"/>
      <path id="DejaVuSans-5d" d="M 1947 4863 
L 1947 -844 
L 622 -844 
L 622 -397 
L 1369 -397 
L 1369 4416 
L 622 4416 
L 622 4863 
L 1947 4863 
z
" transform="scale(0.015625)"/>
     </defs>
     <use xlink:href="#DejaVuSans-45"/>
     <use xlink:href="#DejaVuSans-20" x="63.183594"/>
     <use xlink:href="#DejaVuSans-5b" x="94.970703"/>
     <use xlink:href="#DejaVuSans-37" x="133.984375"/>
     <use xlink:href="#DejaVuSans-39" x="197.607422"/>
     <use xlink:href="#DejaVuSans-2e" x="261.230469"/>
     <use xlink:href="#DejaVuSans-30" x="293.017578"/>
     <use xlink:href="#DejaVuSans-25" x="356.640625"/>
     <use xlink:href="#DejaVuSans-5d" x="451.660156"/>
    </g>
   </g>
   <g id="patch_4">
    <path d="M 166.539208 85.753049 
L 245.329284 85.753049 
L 321.715992 156.986811 
" style="fill: none; stroke: #000000; stroke-width: 3; stroke-linecap: round"/>
   </g>
   <g id="text_2">
    <g id="patch_5">
     <path d="M 1.2 106.270237 
L 164.545312 106.270237 
L 164.545312 65.235862 
L 1.2 65.235862 
z
" style="fill: #ffffff"/>
    </g>
    <!-- D [20.4%] -->
    <g transform="translate(7.2 94.031174) scale(0.3 -0.3)">
     <defs>
      <path id="DejaVuSans-44" d="M 1259 4147 
L 1259 519 
L 2022 519 
Q 2988 519 3436 956 
Q 3884 1394 3884 2338 
Q 3884 3275 3436 3711 
Q 2988 4147 2022 4147 
L 1259 4147 
z
M 628 4666 
L 1925 4666 
Q 3281 4666 3915 4102 
Q 4550 3538 4550 2338 
Q 4550 1131 3912 565 
Q 3275 0 1925 0 
L 628 0 
L 628 4666 
z
" transform="scale(0.015625)"/>
      <path id="DejaVuSans-32" d="M 1228 531 
L 3431 531 
L 3431 0 
L 469 0 
L 469 531 
Q 828 903 1448 1529 
Q 2069 2156 2228 2338 
Q 2531 2678 2651 2914 
Q 2772 3150 2772 3378 
Q 2772 3750 2511 3984 
Q 2250 4219 1831 4219 
Q 1534 4219 1204 4116 
Q 875 4013 500 3803 
L 500 4441 
Q 881 4594 1212 4672 
Q 1544 4750 1819 4750 
Q 2544 4750 2975 4387 
Q 3406 4025 3406 3419 
Q 3406 3131 3298 2873 
Q 3191 2616 2906 2266 
Q 2828 2175 2409 1742 
Q 1991 1309 1228 531 
z
" transform="scale(0.015625)"/>
      <path id="DejaVuSans-34" d="M 2419 4116 
L 825 1625 
L 2419 1625 
L 2419 4116 
z
M 2253 4666 
L 3047 4666 
L 3047 1625 
L 3713 1625 
L 3713 1100 
L 3047 1100 
L 3047 0 
L 2419 0 
L 2419 1100 
L 313 1100 
L 313 1709 
L 2253 4666 
z
" transform="scale(0.015625)"/>
     </defs>
     <use xlink:href="#DejaVuSans-44"/>
     <use xlink:href="#DejaVuSans-20" x="77.001953"/>
     <use xlink:href="#DejaVuSans-5b" x="108.789062"/>
     <use xlink:href="#DejaVuSans-32" x="147.802734"/>
     <use xlink:href="#DejaVuSans-30" x="211.425781"/>
     <use xlink:href="#DejaVuSans-2e" x="275.048828"/>
     <use xlink:href="#DejaVuSans-34" x="306.835938"/>
     <use xlink:href="#DejaVuSans-25" x="370.458984"/>
     <use xlink:href="#DejaVuSans-5d" x="465.478516"/>
    </g>
   </g>
   <g id="patch_6">
    <path d="M 253.143083 312.016292 
C 250.243754 339.594115 251.672721 367.45642 257.37817 394.592932 
C 263.083619 421.729444 272.995748 447.808164 286.755146 471.883491 
C 300.514545 495.958818 317.952876 517.736205 338.437833 536.426014 
C 358.922791 555.115822 382.203754 570.489394 407.436566 581.98929 
C 432.669378 593.489187 459.545331 600.974714 487.089915 604.17445 
C 514.634499 607.374186 542.510724 606.248984 569.707809 600.839643 
C 596.904895 595.430303 623.090102 585.803003 647.313967 572.306827 
C 671.537832 558.81065 693.503991 541.610714 712.415961 521.330679 
C 731.327932 501.050645 746.954337 477.938626 758.728571 452.832654 
C 770.502805 427.726681 778.280817 400.933912 781.78058 373.425839 
C 785.280343 345.917766 784.45904 318.030934 779.34645 290.776505 
C 774.233861 263.522077 764.892534 237.233495 751.661183 212.863969 
C 738.429832 188.494444 721.470333 166.342122 701.397631 147.210236 
C 681.324929 128.078351 658.3846 112.200968 633.40845 100.153796 
C 608.4323 88.106623 581.725897 80.03705 554.257603 76.237676 
C 526.789309 72.438301 498.895182 72.955608 471.586649 77.770839 
L 485.449608 156.391587 
C 504.565581 153.020926 524.09147 152.658811 543.319276 155.318373 
C 562.547082 157.977935 581.241564 163.626636 598.724869 172.059657 
C 616.208174 180.492678 632.266404 191.606846 646.317295 204.999165 
C 660.368187 218.391485 672.239836 233.898111 681.501782 250.956778 
C 690.763728 268.015446 697.302656 286.417454 700.881469 305.495554 
C 704.460282 324.573653 705.035194 344.094436 702.58536 363.350087 
C 700.135526 382.605738 694.690917 401.360677 686.448953 418.934857 
C 678.20699 436.509038 667.268506 452.687451 654.030127 466.883475 
C 640.791747 481.0795 625.415436 493.119455 608.458731 502.566779 
C 591.502025 512.014102 573.17238 518.753212 554.13442 522.53975 
C 535.09646 526.326289 515.583103 527.11393 496.301894 524.874115 
C 477.020686 522.6343 458.207519 517.394431 440.54455 509.344503 
C 422.881582 501.294576 406.584907 490.533075 392.245437 477.45021 
C 377.905967 464.367344 365.699135 449.123173 356.067556 432.270444 
C 346.435977 415.417715 339.497487 397.16261 335.503673 378.167052 
C 331.509859 359.171494 330.509582 339.667881 332.539112 320.363405 
z
" style="fill: #1f77b4"/>
   </g>
   <g id="patch_7">
    <path d="M 471.586649 77.770839 
C 414.690217 87.803215 362.579533 116.096534 323.177064 158.349321 
C 283.774594 200.602107 259.183739 254.558804 253.143083 312.016292 
L 332.539112 320.363405 
C 336.767571 280.143163 353.98117 242.373475 381.562898 212.796525 
C 409.144627 183.219574 445.622105 163.414251 485.449608 156.391587 
z
" style="fill: #ff7f0e"/>
   </g>
   <g id="matplotlib.axis_1"/>
   <g id="matplotlib.axis_2"/>
  </g>
 </g>
</svg>
