<?xml version="1.0" encoding="utf-8" standalone="no"?>
<!DOCTYPE svg PUBLIC "-//W3C//DTD SVG 1.1//EN"
  "http://www.w3.org/Graphics/SVG/1.1/DTD/svg11.dtd">
<svg xmlns:xlink="http://www.w3.org/1999/xlink" width="1031.449275pt" height="679.68pt" viewBox="0 0 1031.449275 679.68" xmlns="http://www.w3.org/2000/svg" version="1.1">
 <metadata>
  <rdf:RDF xmlns:dc="http://purl.org/dc/elements/1.1/" xmlns:cc="http://creativecommons.org/ns#" xmlns:rdf="http://www.w3.org/1999/02/22-rdf-syntax-ns#">
   <cc:Work>
    <dc:type rdf:resource="http://purl.org/dc/dcmitype/StillImage"/>
    <dc:date>2023-10-13T09:51:06.690205</dc:date>
    <dc:format>image/svg+xml</dc:format>
    <dc:creator>
     <cc:Agent>
      <dc:title>Matplotlib v3.7.3, https://matplotlib.org/</dc:title>
     </cc:Agent>
    </dc:creator>
   </cc:Work>
  </rdf:RDF>
 </metadata>
 <defs>
  <style type="text/css">*{stroke-linejoin: round; stroke-linecap: butt}</style>
 </defs>
 <g id="figure_1">
  <g id="patch_1">
   <path d="M 0 679.68 
L 1031.449275 679.68 
L 1031.449275 0 
L 0 0 
z
" style="fill: #ffffff"/>
  </g>
  <g id="axes_1">
   <g id="patch_2">
    <path d="M 869.04934 578.56098 
L 803.822495 578.56098 
L 723.634564 511.635097 
" style="fill: none; stroke: #000000; stroke-width: 3; stroke-linecap: round"/>
   </g>
   <g id="text_1">
    <g id="patch_3">
     <path d="M 871.047713 599.078168 
L 1030.249275 599.078168 
L 1030.249275 558.043793 
L 871.047713 558.043793 
z
" style="fill: #ffffff"/>
    </g>
    <!-- E [77.1%] -->
    <g transform="translate(877.047713 586.839105) scale(0.3 -0.3)">
     <defs>
      <path id="DejaVuSans-45" d="M 628 4666 
L 3578 4666 
L 3578 4134 
L 1259 4134 
L 1259 2753 
L 3481 2753 
L 3481 2222 
L 1259 2222 
L 1259 531 
L 3634 531 
L 3634 0 
L 628 0 
L 628 4666 
z
" transform="scale(0.015625)"/>
      <path id="DejaVuSans-20" transform="scale(0.015625)"/>
      <path id="DejaVuSans-5b" d="M 550 4863 
L 1875 4863 
L 1875 4416 
L 1125 4416 
L 1125 -397 
L 1875 -397 
L 1875 -844 
L 550 -844 
L 550 4863 
z
" transform="scale(0.015625)"/>
      <path id="DejaVuSans-37" d="M 525 4666 
L 3525 4666 
L 3525 4397 
L 1831 0 
L 1172 0 
L 2766 4134 
L 525 4134 
L 525 4666 
z
" transform="scale(0.015625)"/>
      <path id="DejaVuSans-2e" d="M 684 794 
L 1344 794 
L 1344 0 
L 684 0 
L 684 794 
z
" transform="scale(0.015625)"/>
      <path id="DejaVuSans-31" d="M 794 531 
L 1825 531 
L 1825 4091 
L 703 3866 
L 703 4441 
L 1819 4666 
L 2450 4666 
L 2450 531 
L 3481 531 
L 3481 0 
L 794 0 
L 794 531 
z
" transform="scale(0.015625)"/>
      <path id="DejaVuSans-25" d="M 4653 2053 
Q 4381 2053 4226 1822 
Q 4072 1591 4072 1178 
Q 4072 772 4226 539 
Q 4381 306 4653 306 
Q 4919 306 5073 539 
Q 5228 772 5228 1178 
Q 5228 1588 5073 1820 
Q 4919 2053 4653 2053 
z
M 4653 2450 
Q 5147 2450 5437 2106 
Q 5728 1763 5728 1178 
Q 5728 594 5436 251 
Q 5144 -91 4653 -91 
Q 4153 -91 3862 251 
Q 3572 594 3572 1178 
Q 3572 1766 3864 2108 
Q 4156 2450 4653 2450 
z
M 1428 4353 
Q 1159 4353 1004 4120 
Q 850 3888 850 3481 
Q 850 3069 1003 2837 
Q 1156 2606 1428 2606 
Q 1700 2606 1854 2837 
Q 2009 3069 2009 3481 
Q 2009 3884 1853 4118 
Q 1697 4353 1428 4353 
z
M 4250 4750 
L 4750 4750 
L 1831 -91 
L 1331 -91 
L 4250 4750 
z
M 1428 4750 
Q 1922 4750 2215 4408 
Q 2509 4066 2509 3481 
Q 2509 2891 2217 2550 
Q 1925 2209 1428 2209 
Q 931 2209 642 2551 
Q 353 2894 353 3481 
Q 353 4063 643 4406 
Q 934 4750 1428 4750 
z
" transform="scale(0.015625)"/>
      <path id="DejaVuSans-5d" d="M 1947 4863 
L 1947 -844 
L 622 -844 
L 622 -397 
L 1369 -397 
L 1369 4416 
L 622 4416 
L 622 4863 
L 1947 4863 
z
" transform="scale(0.015625)"/>
     </defs>
     <use xlink:href="#DejaVuSans-45"/>
     <use xlink:href="#DejaVuSans-20" x="63.183594"/>
     <use xlink:href="#DejaVuSans-5b" x="94.970703"/>
     <use xlink:href="#DejaVuSans-37" x="133.984375"/>
     <use xlink:href="#DejaVuSans-37" x="197.607422"/>
     <use xlink:href="#DejaVuSans-2e" x="261.230469"/>
     <use xlink:href="#DejaVuSans-31" x="293.017578"/>
     <use xlink:href="#DejaVuSans-25" x="356.640625"/>
     <use xlink:href="#DejaVuSans-5d" x="451.660156"/>
    </g>
   </g>
   <g id="patch_4">
    <path d="M 166.540334 101.118993 
L 231.770552 101.118993 
L 311.958477 168.044884 
" style="fill: none; stroke: #000000; stroke-width: 3; stroke-linecap: round"/>
   </g>
   <g id="text_2">
    <g id="patch_5">
     <path d="M 1.2 121.636181 
L 164.545312 121.636181 
L 164.545312 80.601806 
L 1.2 80.601806 
z
" style="fill: #ffffff"/>
    </g>
    <!-- D [22.1%] -->
    <g transform="translate(7.2 109.397118) scale(0.3 -0.3)">
     <defs>
      <path id="DejaVuSans-44" d="M 1259 4147 
L 1259 519 
L 2022 519 
Q 2988 519 3436 956 
Q 3884 1394 3884 2338 
Q 3884 3275 3436 3711 
Q 2988 4147 2022 4147 
L 1259 4147 
z
M 628 4666 
L 1925 4666 
Q 3281 4666 3915 4102 
Q 4550 3538 4550 2338 
Q 4550 1131 3912 565 
Q 3275 0 1925 0 
L 628 0 
L 628 4666 
z
" transform="scale(0.015625)"/>
      <path id="DejaVuSans-32" d="M 1228 531 
L 3431 531 
L 3431 0 
L 469 0 
L 469 531 
Q 828 903 1448 1529 
Q 2069 2156 2228 2338 
Q 2531 2678 2651 2914 
Q 2772 3150 2772 3378 
Q 2772 3750 2511 3984 
Q 2250 4219 1831 4219 
Q 1534 4219 1204 4116 
Q 875 4013 500 3803 
L 500 4441 
Q 881 4594 1212 4672 
Q 1544 4750 1819 4750 
Q 2544 4750 2975 4387 
Q 3406 4025 3406 3419 
Q 3406 3131 3298 2873 
Q 3191 2616 2906 2266 
Q 2828 2175 2409 1742 
Q 1991 1309 1228 531 
z
" transform="scale(0.015625)"/>
     </defs>
     <use xlink:href="#DejaVuSans-44"/>
     <use xlink:href="#DejaVuSans-20" x="77.001953"/>
     <use xlink:href="#DejaVuSans-5b" x="108.789062"/>
     <use xlink:href="#DejaVuSans-32" x="147.802734"/>
     <use xlink:href="#DejaVuSans-32" x="211.425781"/>
     <use xlink:href="#DejaVuSans-2e" x="275.048828"/>
     <use xlink:href="#DejaVuSans-31" x="306.835938"/>
     <use xlink:href="#DejaVuSans-25" x="370.458984"/>
     <use xlink:href="#DejaVuSans-5d" x="465.478516"/>
    </g>
   </g>
   <g id="patch_6">
    <path d="M 251.688218 341.244392 
C 251.831323 368.360228 256.118154 395.295589 264.400008 421.116123 
C 272.681862 446.936657 284.861857 471.340311 300.517484 493.480555 
C 316.173111 515.6208 335.121228 535.238634 356.704552 551.653543 
C 378.287876 568.068451 402.25392 581.088409 427.771335 590.261772 
C 453.288751 599.435135 480.05903 604.654592 507.153549 605.739086 
C 534.248068 606.82358 561.34987 603.760425 587.51883 596.655878 
C 613.687791 589.55133 638.61778 578.488501 661.444012 563.851143 
C 684.270244 549.213786 704.725692 531.173132 722.100786 510.354986 
C 739.475879 489.53684 753.567361 466.184736 763.886417 441.108729 
C 774.205473 416.032721 780.631388 389.526152 782.941257 362.508499 
C 785.251126 335.490846 783.417928 308.278165 777.505252 281.814429 
C 771.592577 255.350692 761.669593 229.945477 748.080514 206.480055 
C 734.491436 183.014633 717.395231 161.763507 697.384943 143.46385 
C 677.374655 125.164193 654.684367 110.030077 630.101177 98.586484 
C 605.517986 87.142891 579.32947 79.523691 552.444073 75.993182 
C 525.558675 72.462674 498.290907 73.062158 471.586649 77.770839 
L 485.449608 156.391587 
C 504.142588 153.095511 523.230027 152.675872 542.049805 155.147228 
C 560.869583 157.618584 579.201544 162.952024 596.409778 170.962539 
C 613.618011 178.973054 629.501212 189.566935 643.508414 202.376695 
C 657.515615 215.186455 669.482959 230.062243 678.995314 246.488038 
C 688.507669 262.913834 695.453758 280.697485 699.59263 299.2221 
C 703.731503 317.746716 705.014742 336.795592 703.397834 355.707949 
C 701.780926 374.620306 697.282785 393.174905 690.059446 410.72811 
C 682.836107 428.281316 672.972069 444.627788 660.809504 459.20049 
C 648.646938 473.773192 634.328124 486.40165 618.349762 496.6478 
C 602.3714 506.89395 584.920407 514.637931 566.602135 519.611114 
C 548.283863 524.584297 529.312601 526.728506 510.346438 525.96936 
C 491.380275 525.210214 472.641079 521.556595 454.778888 515.135241 
C 436.916698 508.713886 420.140467 499.599916 405.03214 488.10948 
C 389.923814 476.619044 376.660131 462.88656 365.701192 447.388389 
C 354.742253 431.890218 346.216257 414.80766 340.41896 396.733286 
C 334.621662 378.658912 331.62088 359.80416 331.520707 340.823074 
z
" style="fill: #1f77b4"/>
   </g>
   <g id="patch_7">
    <path d="M 471.586698 77.770831 
C 409.750769 88.674161 353.725731 121.118854 313.492255 169.324995 
C 273.258779 217.531136 251.356848 278.455421 251.688218 341.244392 
L 331.520707 340.823074 
C 331.288748 296.870795 346.620099 254.223795 374.783532 220.479497 
C 402.946965 186.735198 442.164492 164.023913 485.449642 156.391581 
z
" style="fill: #ff7f0e"/>
   </g>
   <g id="matplotlib.axis_1"/>
   <g id="matplotlib.axis_2"/>
  </g>
 </g>
</svg>
