<?xml version="1.0" encoding="utf-8" standalone="no"?>
<!DOCTYPE svg PUBLIC "-//W3C//DTD SVG 1.1//EN"
  "http://www.w3.org/Graphics/SVG/1.1/DTD/svg11.dtd">
<svg xmlns:xlink="http://www.w3.org/1999/xlink" width="1026.630525pt" height="679.68pt" viewBox="0 0 1026.630525 679.68" xmlns="http://www.w3.org/2000/svg" version="1.1">
 <metadata>
  <rdf:RDF xmlns:dc="http://purl.org/dc/elements/1.1/" xmlns:cc="http://creativecommons.org/ns#" xmlns:rdf="http://www.w3.org/1999/02/22-rdf-syntax-ns#">
   <cc:Work>
    <dc:type rdf:resource="http://purl.org/dc/dcmitype/StillImage"/>
    <dc:date>2023-10-13T09:50:22.299784</dc:date>
    <dc:format>image/svg+xml</dc:format>
    <dc:creator>
     <cc:Agent>
      <dc:title>Matplotlib v3.7.3, https://matplotlib.org/</dc:title>
     </cc:Agent>
    </dc:creator>
   </cc:Work>
  </rdf:RDF>
 </metadata>
 <defs>
  <style type="text/css">*{stroke-linejoin: round; stroke-linecap: butt}</style>
 </defs>
 <g id="figure_1">
  <g id="patch_1">
   <path d="M -0 679.68 
L 1026.630525 679.68 
L 1026.630525 0 
L -0 0 
z
" style="fill: #ffffff"/>
  </g>
  <g id="axes_1">
   <g id="patch_2">
    <path d="M 866.46896 599.398289 
L 782.47868 599.398289 
L 707.551746 526.630627 
" style="fill: none; stroke: #000000; stroke-width: 3; stroke-linecap: round"/>
   </g>
   <g id="text_1">
    <g id="patch_3">
     <path d="M 868.469588 619.915476 
L 1025.430525 619.915476 
L 1025.430525 578.881101 
L 868.469588 578.881101 
z
" style="fill: #ffffff"/>
    </g>
    <!-- L [79.9%] -->
    <g transform="translate(874.469588 607.676414) scale(0.3 -0.3)">
     <defs>
      <path id="DejaVuSans-4c" d="M 628 4666 
L 1259 4666 
L 1259 531 
L 3531 531 
L 3531 0 
L 628 0 
L 628 4666 
z
" transform="scale(0.015625)"/>
      <path id="DejaVuSans-20" transform="scale(0.015625)"/>
      <path id="DejaVuSans-5b" d="M 550 4863 
L 1875 4863 
L 1875 4416 
L 1125 4416 
L 1125 -397 
L 1875 -397 
L 1875 -844 
L 550 -844 
L 550 4863 
z
" transform="scale(0.015625)"/>
      <path id="DejaVuSans-37" d="M 525 4666 
L 3525 4666 
L 3525 4397 
L 1831 0 
L 1172 0 
L 2766 4134 
L 525 4134 
L 525 4666 
z
" transform="scale(0.015625)"/>
      <path id="DejaVuSans-39" d="M 703 97 
L 703 672 
Q 941 559 1184 500 
Q 1428 441 1663 441 
Q 2288 441 2617 861 
Q 2947 1281 2994 2138 
Q 2813 1869 2534 1725 
Q 2256 1581 1919 1581 
Q 1219 1581 811 2004 
Q 403 2428 403 3163 
Q 403 3881 828 4315 
Q 1253 4750 1959 4750 
Q 2769 4750 3195 4129 
Q 3622 3509 3622 2328 
Q 3622 1225 3098 567 
Q 2575 -91 1691 -91 
Q 1453 -91 1209 -44 
Q 966 3 703 97 
z
M 1959 2075 
Q 2384 2075 2632 2365 
Q 2881 2656 2881 3163 
Q 2881 3666 2632 3958 
Q 2384 4250 1959 4250 
Q 1534 4250 1286 3958 
Q 1038 3666 1038 3163 
Q 1038 2656 1286 2365 
Q 1534 2075 1959 2075 
z
" transform="scale(0.015625)"/>
      <path id="DejaVuSans-2e" d="M 684 794 
L 1344 794 
L 1344 0 
L 684 0 
L 684 794 
z
" transform="scale(0.015625)"/>
      <path id="DejaVuSans-25" d="M 4653 2053 
Q 4381 2053 4226 1822 
Q 4072 1591 4072 1178 
Q 4072 772 4226 539 
Q 4381 306 4653 306 
Q 4919 306 5073 539 
Q 5228 772 5228 1178 
Q 5228 1588 5073 1820 
Q 4919 2053 4653 2053 
z
M 4653 2450 
Q 5147 2450 5437 2106 
Q 5728 1763 5728 1178 
Q 5728 594 5436 251 
Q 5144 -91 4653 -91 
Q 4153 -91 3862 251 
Q 3572 594 3572 1178 
Q 3572 1766 3864 2108 
Q 4156 2450 4653 2450 
z
M 1428 4353 
Q 1159 4353 1004 4120 
Q 850 3888 850 3481 
Q 850 3069 1003 2837 
Q 1156 2606 1428 2606 
Q 1700 2606 1854 2837 
Q 2009 3069 2009 3481 
Q 2009 3884 1853 4118 
Q 1697 4353 1428 4353 
z
M 4250 4750 
L 4750 4750 
L 1831 -91 
L 1331 -91 
L 4250 4750 
z
M 1428 4750 
Q 1922 4750 2215 4408 
Q 2509 4066 2509 3481 
Q 2509 2891 2217 2550 
Q 1925 2209 1428 2209 
Q 931 2209 642 2551 
Q 353 2894 353 3481 
Q 353 4063 643 4406 
Q 934 4750 1428 4750 
z
" transform="scale(0.015625)"/>
      <path id="DejaVuSans-5d" d="M 1947 4863 
L 1947 -844 
L 622 -844 
L 622 -397 
L 1369 -397 
L 1369 4416 
L 622 4416 
L 622 4863 
L 1947 4863 
z
" transform="scale(0.015625)"/>
     </defs>
     <use xlink:href="#DejaVuSans-4c"/>
     <use xlink:href="#DejaVuSans-20" x="55.712891"/>
     <use xlink:href="#DejaVuSans-5b" x="87.5"/>
     <use xlink:href="#DejaVuSans-37" x="126.513672"/>
     <use xlink:href="#DejaVuSans-39" x="190.136719"/>
     <use xlink:href="#DejaVuSans-2e" x="253.759766"/>
     <use xlink:href="#DejaVuSans-39" x="285.546875"/>
     <use xlink:href="#DejaVuSans-25" x="349.169922"/>
     <use xlink:href="#DejaVuSans-5d" x="444.189453"/>
    </g>
   </g>
   <g id="patch_4">
    <path d="M 163.967938 80.281711 
L 247.958095 80.281711 
L 322.885029 153.049373 
" style="fill: none; stroke: #000000; stroke-width: 3; stroke-linecap: round"/>
   </g>
   <g id="text_2">
    <g id="patch_5">
     <path d="M 1.2 100.798899 
L 161.967187 100.798899 
L 161.967187 59.764524 
L 1.2 59.764524 
z
" style="fill: #ffffff"/>
    </g>
    <!-- A [19.9%] -->
    <g transform="translate(7.2 88.559836) scale(0.3 -0.3)">
     <defs>
      <path id="DejaVuSans-41" d="M 2188 4044 
L 1331 1722 
L 3047 1722 
L 2188 4044 
z
M 1831 4666 
L 2547 4666 
L 4325 0 
L 3669 0 
L 3244 1197 
L 1141 1197 
L 716 0 
L 50 0 
L 1831 4666 
z
" transform="scale(0.015625)"/>
      <path id="DejaVuSans-31" d="M 794 531 
L 1825 531 
L 1825 4091 
L 703 3866 
L 703 4441 
L 1819 4666 
L 2450 4666 
L 2450 531 
L 3481 531 
L 3481 0 
L 794 0 
L 794 531 
z
" transform="scale(0.015625)"/>
     </defs>
     <use xlink:href="#DejaVuSans-41"/>
     <use xlink:href="#DejaVuSans-20" x="68.408203"/>
     <use xlink:href="#DejaVuSans-5b" x="100.195312"/>
     <use xlink:href="#DejaVuSans-31" x="139.208984"/>
     <use xlink:href="#DejaVuSans-39" x="202.832031"/>
     <use xlink:href="#DejaVuSans-2e" x="266.455078"/>
     <use xlink:href="#DejaVuSans-39" x="298.242188"/>
     <use xlink:href="#DejaVuSans-25" x="361.865234"/>
     <use xlink:href="#DejaVuSans-5d" x="456.884766"/>
    </g>
   </g>
   <g id="patch_6">
    <path d="M 251.910359 301.311067 
C 247.862762 328.97248 248.199221 357.099728 252.907339 384.656405 
C 257.615456 412.213082 266.636686 438.856519 279.638623 463.604982 
C 292.640559 488.353446 309.461523 510.899188 329.48171 530.411465 
C 349.501897 549.923741 372.472356 566.159915 397.546691 578.521731 
C 422.621027 590.883547 449.48744 599.217285 477.15598 603.215871 
C 504.82452 607.214458 532.951128 606.828171 560.499421 602.071242 
C 588.047715 597.314314 614.675128 588.245898 639.400519 575.200138 
C 664.12591 562.154379 686.641818 545.293501 706.118596 525.238778 
C 725.595375 505.184055 741.79083 482.184869 754.108206 457.088673 
C 766.425582 431.992477 774.711711 405.111343 778.661275 377.435762 
C 782.610839 349.760182 782.174725 321.634302 777.369 294.094479 
C 772.563276 266.554657 763.447702 239.943351 750.358161 215.241109 
C 737.268619 190.538868 720.367879 168.052866 700.278684 148.611646 
C 680.189488 129.170426 657.161647 113.015741 632.043669 100.742844 
C 606.925691 88.469947 580.029921 80.231451 552.347386 76.330922 
C 524.664852 72.430393 496.53979 72.916334 469.008524 77.770839 
L 482.871483 156.391587 
C 502.143369 152.993434 521.830913 152.653275 541.208687 155.383646 
C 560.586461 158.114016 579.4135 163.880963 596.996085 172.471991 
C 614.578669 181.063019 630.698158 192.371298 644.760595 205.980152 
C 658.823032 219.589006 670.65355 235.329208 679.816229 252.620777 
C 688.978908 269.912345 695.35981 288.54026 698.723817 307.818136 
C 702.087823 327.096011 702.393104 346.784127 699.628409 366.157034 
C 696.863714 385.52994 691.063423 404.346734 682.44126 421.914071 
C 673.819097 439.481408 662.482279 455.580838 648.848534 469.619144 
C 635.214789 483.657451 619.453653 495.460065 602.145879 504.592097 
C 584.838106 513.724129 566.198916 520.07202 546.915111 523.40187 
C 527.631306 526.731719 507.94268 527.002121 488.574702 524.20311 
C 469.206724 521.404099 450.400235 515.570483 432.8482 506.917211 
C 415.296165 498.26394 399.216844 486.898619 385.202713 473.240025 
C 371.188582 459.581432 359.413908 443.799412 350.312552 426.475488 
C 341.211196 409.151563 334.896335 390.501158 331.600653 371.211484 
C 328.304971 351.92181 328.06945 332.232736 330.902768 312.869747 
z
" style="fill: #1f77b4"/>
   </g>
   <g id="patch_7">
    <path d="M 469.008524 77.770839 
C 413.92715 87.483171 363.285065 114.318051 324.318179 154.441222 
C 285.351292 194.564393 260.008323 245.96931 251.910359 301.311067 
L 330.902768 312.869747 
C 336.571342 274.130517 354.311421 238.147075 381.588241 210.060856 
C 408.865062 181.974636 444.314521 163.19022 482.871483 156.391587 
z
" style="fill: #ff7f0e"/>
   </g>
   <g id="matplotlib.axis_1"/>
   <g id="matplotlib.axis_2"/>
  </g>
 </g>
</svg>
