<?xml version="1.0" encoding="utf-8" standalone="no"?>
<!DOCTYPE svg PUBLIC "-//W3C//DTD SVG 1.1//EN"
  "http://www.w3.org/Graphics/SVG/1.1/DTD/svg11.dtd">
<svg xmlns:xlink="http://www.w3.org/1999/xlink" width="1009.150838pt" height="739.38659pt" viewBox="0 0 1009.150838 739.38659" xmlns="http://www.w3.org/2000/svg" version="1.1">
 <metadata>
  <rdf:RDF xmlns:dc="http://purl.org/dc/elements/1.1/" xmlns:cc="http://creativecommons.org/ns#" xmlns:rdf="http://www.w3.org/1999/02/22-rdf-syntax-ns#">
   <cc:Work>
    <dc:type rdf:resource="http://purl.org/dc/dcmitype/StillImage"/>
    <dc:date>2023-10-13T09:56:06.740949</dc:date>
    <dc:format>image/svg+xml</dc:format>
    <dc:creator>
     <cc:Agent>
      <dc:title>Matplotlib v3.7.3, https://matplotlib.org/</dc:title>
     </cc:Agent>
    </dc:creator>
   </cc:Work>
  </rdf:RDF>
 </metadata>
 <defs>
  <style type="text/css">*{stroke-linejoin: round; stroke-linecap: butt}</style>
 </defs>
 <g id="figure_1">
  <g id="patch_1">
   <path d="M 0 739.38659 
L 1009.150838 739.38659 
L 1009.150838 0 
L 0 0 
z
" style="fill: #ffffff"/>
  </g>
  <g id="axes_1">
   <g id="patch_2">
    <path d="M 845.188611 717.669402 
L 627.015871 717.669402 
L 589.705679 620.113635 
" style="fill: none; stroke: #000000; stroke-width: 3; stroke-linecap: round"/>
   </g>
   <g id="text_1">
    <g id="patch_3">
     <path d="M 847.18365 738.18659 
L 1007.950838 738.18659 
L 1007.950838 697.152215 
L 847.18365 697.152215 
z
" style="fill: #ffffff"/>
    </g>
    <!-- A [93.6%] -->
    <g transform="translate(853.18365 725.947527) scale(0.3 -0.3)">
     <defs>
      <path id="DejaVuSans-41" d="M 2188 4044 
L 1331 1722 
L 3047 1722 
L 2188 4044 
z
M 1831 4666 
L 2547 4666 
L 4325 0 
L 3669 0 
L 3244 1197 
L 1141 1197 
L 716 0 
L 50 0 
L 1831 4666 
z
" transform="scale(0.015625)"/>
      <path id="DejaVuSans-20" transform="scale(0.015625)"/>
      <path id="DejaVuSans-5b" d="M 550 4863 
L 1875 4863 
L 1875 4416 
L 1125 4416 
L 1125 -397 
L 1875 -397 
L 1875 -844 
L 550 -844 
L 550 4863 
z
" transform="scale(0.015625)"/>
      <path id="DejaVuSans-39" d="M 703 97 
L 703 672 
Q 941 559 1184 500 
Q 1428 441 1663 441 
Q 2288 441 2617 861 
Q 2947 1281 2994 2138 
Q 2813 1869 2534 1725 
Q 2256 1581 1919 1581 
Q 1219 1581 811 2004 
Q 403 2428 403 3163 
Q 403 3881 828 4315 
Q 1253 4750 1959 4750 
Q 2769 4750 3195 4129 
Q 3622 3509 3622 2328 
Q 3622 1225 3098 567 
Q 2575 -91 1691 -91 
Q 1453 -91 1209 -44 
Q 966 3 703 97 
z
M 1959 2075 
Q 2384 2075 2632 2365 
Q 2881 2656 2881 3163 
Q 2881 3666 2632 3958 
Q 2384 4250 1959 4250 
Q 1534 4250 1286 3958 
Q 1038 3666 1038 3163 
Q 1038 2656 1286 2365 
Q 1534 2075 1959 2075 
z
" transform="scale(0.015625)"/>
      <path id="DejaVuSans-33" d="M 2597 2516 
Q 3050 2419 3304 2112 
Q 3559 1806 3559 1356 
Q 3559 666 3084 287 
Q 2609 -91 1734 -91 
Q 1441 -91 1130 -33 
Q 819 25 488 141 
L 488 750 
Q 750 597 1062 519 
Q 1375 441 1716 441 
Q 2309 441 2620 675 
Q 2931 909 2931 1356 
Q 2931 1769 2642 2001 
Q 2353 2234 1838 2234 
L 1294 2234 
L 1294 2753 
L 1863 2753 
Q 2328 2753 2575 2939 
Q 2822 3125 2822 3475 
Q 2822 3834 2567 4026 
Q 2313 4219 1838 4219 
Q 1578 4219 1281 4162 
Q 984 4106 628 3988 
L 628 4550 
Q 988 4650 1302 4700 
Q 1616 4750 1894 4750 
Q 2613 4750 3031 4423 
Q 3450 4097 3450 3541 
Q 3450 3153 3228 2886 
Q 3006 2619 2597 2516 
z
" transform="scale(0.015625)"/>
      <path id="DejaVuSans-2e" d="M 684 794 
L 1344 794 
L 1344 0 
L 684 0 
L 684 794 
z
" transform="scale(0.015625)"/>
      <path id="DejaVuSans-36" d="M 2113 2584 
Q 1688 2584 1439 2293 
Q 1191 2003 1191 1497 
Q 1191 994 1439 701 
Q 1688 409 2113 409 
Q 2538 409 2786 701 
Q 3034 994 3034 1497 
Q 3034 2003 2786 2293 
Q 2538 2584 2113 2584 
z
M 3366 4563 
L 3366 3988 
Q 3128 4100 2886 4159 
Q 2644 4219 2406 4219 
Q 1781 4219 1451 3797 
Q 1122 3375 1075 2522 
Q 1259 2794 1537 2939 
Q 1816 3084 2150 3084 
Q 2853 3084 3261 2657 
Q 3669 2231 3669 1497 
Q 3669 778 3244 343 
Q 2819 -91 2113 -91 
Q 1303 -91 875 529 
Q 447 1150 447 2328 
Q 447 3434 972 4092 
Q 1497 4750 2381 4750 
Q 2619 4750 2861 4703 
Q 3103 4656 3366 4563 
z
" transform="scale(0.015625)"/>
      <path id="DejaVuSans-25" d="M 4653 2053 
Q 4381 2053 4226 1822 
Q 4072 1591 4072 1178 
Q 4072 772 4226 539 
Q 4381 306 4653 306 
Q 4919 306 5073 539 
Q 5228 772 5228 1178 
Q 5228 1588 5073 1820 
Q 4919 2053 4653 2053 
z
M 4653 2450 
Q 5147 2450 5437 2106 
Q 5728 1763 5728 1178 
Q 5728 594 5436 251 
Q 5144 -91 4653 -91 
Q 4153 -91 3862 251 
Q 3572 594 3572 1178 
Q 3572 1766 3864 2108 
Q 4156 2450 4653 2450 
z
M 1428 4353 
Q 1159 4353 1004 4120 
Q 850 3888 850 3481 
Q 850 3069 1003 2837 
Q 1156 2606 1428 2606 
Q 1700 2606 1854 2837 
Q 2009 3069 2009 3481 
Q 2009 3884 1853 4118 
Q 1697 4353 1428 4353 
z
M 4250 4750 
L 4750 4750 
L 1831 -91 
L 1331 -91 
L 4250 4750 
z
M 1428 4750 
Q 1922 4750 2215 4408 
Q 2509 4066 2509 3481 
Q 2509 2891 2217 2550 
Q 1925 2209 1428 2209 
Q 931 2209 642 2551 
Q 353 2894 353 3481 
Q 353 4063 643 4406 
Q 934 4750 1428 4750 
z
" transform="scale(0.015625)"/>
      <path id="DejaVuSans-5d" d="M 1947 4863 
L 1947 -844 
L 622 -844 
L 622 -397 
L 1369 -397 
L 1369 4416 
L 622 4416 
L 622 4863 
L 1947 4863 
z
" transform="scale(0.015625)"/>
     </defs>
     <use xlink:href="#DejaVuSans-41"/>
     <use xlink:href="#DejaVuSans-20" x="68.408203"/>
     <use xlink:href="#DejaVuSans-5b" x="100.195312"/>
     <use xlink:href="#DejaVuSans-39" x="139.208984"/>
     <use xlink:href="#DejaVuSans-33" x="202.832031"/>
     <use xlink:href="#DejaVuSans-2e" x="266.455078"/>
     <use xlink:href="#DejaVuSans-36" x="298.242188"/>
     <use xlink:href="#DejaVuSans-25" x="361.865234"/>
     <use xlink:href="#DejaVuSans-5d" x="456.884766"/>
    </g>
   </g>
   <g id="patch_4">
    <path d="M 142.678399 21.717188 
L 360.849021 21.717188 
L 398.159215 119.272954 
" style="fill: none; stroke: #000000; stroke-width: 3; stroke-linecap: round"/>
   </g>
   <g id="text_2">
    <g id="patch_5">
     <path d="M 1.2 42.234375 
L 140.68125 42.234375 
L 140.68125 1.2 
L 1.2 1.2 
z
" style="fill: #ffffff"/>
    </g>
    <!-- T [6.0%] -->
    <g transform="translate(7.2 29.995313) scale(0.3 -0.3)">
     <defs>
      <path id="DejaVuSans-54" d="M -19 4666 
L 3928 4666 
L 3928 4134 
L 2272 4134 
L 2272 0 
L 1638 0 
L 1638 4134 
L -19 4134 
L -19 4666 
z
" transform="scale(0.015625)"/>
      <path id="DejaVuSans-30" d="M 2034 4250 
Q 1547 4250 1301 3770 
Q 1056 3291 1056 2328 
Q 1056 1369 1301 889 
Q 1547 409 2034 409 
Q 2525 409 2770 889 
Q 3016 1369 3016 2328 
Q 3016 3291 2770 3770 
Q 2525 4250 2034 4250 
z
M 2034 4750 
Q 2819 4750 3233 4129 
Q 3647 3509 3647 2328 
Q 3647 1150 3233 529 
Q 2819 -91 2034 -91 
Q 1250 -91 836 529 
Q 422 1150 422 2328 
Q 422 3509 836 4129 
Q 1250 4750 2034 4750 
z
" transform="scale(0.015625)"/>
     </defs>
     <use xlink:href="#DejaVuSans-54"/>
     <use xlink:href="#DejaVuSans-20" x="61.083984"/>
     <use xlink:href="#DejaVuSans-5b" x="92.871094"/>
     <use xlink:href="#DejaVuSans-36" x="131.884766"/>
     <use xlink:href="#DejaVuSans-2e" x="195.507812"/>
     <use xlink:href="#DejaVuSans-30" x="227.294922"/>
     <use xlink:href="#DejaVuSans-25" x="290.917969"/>
     <use xlink:href="#DejaVuSans-5d" x="385.9375"/>
    </g>
   </g>
   <g id="patch_6">
    <path d="M 353.471575 143.67042 
C 325.603159 160.989119 301.176642 183.313624 281.426849 209.515373 
C 261.677057 235.717121 246.942495 265.347021 237.968036 296.907201 
C 228.993577 328.467382 225.93304 361.41691 228.941144 394.090098 
C 231.949247 426.763286 240.974434 458.600125 255.560456 487.991176 
C 270.146478 517.382227 290.043334 543.823735 314.245185 565.979012 
C 338.447037 588.134289 366.53907 605.623599 397.101157 617.56281 
C 427.663244 629.502021 460.171559 635.686498 492.982718 635.803599 
C 525.793878 635.9207 558.345508 629.968418 588.992036 618.247657 
C 619.638564 606.526896 647.854717 589.238547 672.214091 567.256582 
C 696.573466 545.274617 716.658549 518.975801 731.453987 489.689611 
C 746.249424 460.403421 755.501625 428.631813 758.742867 395.980928 
C 761.984108 363.330044 759.158836 330.359509 750.409875 298.736075 
C 741.660915 267.112641 727.13822 237.378323 707.575953 211.036273 
C 688.013686 184.694223 663.747139 162.195935 636.00305 144.678758 
C 608.258962 127.161582 577.512859 114.925757 545.319039 108.589837 
C 513.125219 102.253917 480.035476 101.926498 447.722586 107.624133 
L 461.585545 186.244881 
C 484.204568 182.256537 507.367388 182.48573 529.903062 186.920874 
C 552.438736 191.356018 573.961008 199.921095 593.38187 212.183119 
C 612.802732 224.445142 629.789315 240.193944 643.482902 258.633379 
C 657.176489 277.072814 667.342375 297.886837 673.466648 320.023241 
C 679.59092 342.159645 681.568611 365.239019 679.299742 388.094638 
C 677.030873 410.950257 670.554332 433.190382 660.197526 453.690716 
C 649.840719 474.191049 635.781161 492.60022 618.729599 507.987595 
C 601.678037 523.374971 581.92673 535.476815 560.47416 543.681348 
C 539.021591 551.88588 516.23545 556.052478 493.267638 555.970507 
C 470.299826 555.888536 447.544006 551.559402 426.150545 543.201955 
C 404.757084 534.844507 385.092661 522.601991 368.151365 507.093297 
C 351.210069 491.584603 337.282269 473.075547 327.072054 452.501811 
C 316.861839 431.928075 310.544208 409.642288 308.438536 386.771056 
C 306.332863 363.899825 308.475239 340.835155 314.75736 318.743029 
C 321.039482 296.650902 331.353675 275.909972 345.17853 257.568749 
C 359.003384 239.227525 376.101947 223.600371 395.609837 211.477282 
z
" style="fill: #1f77b4"/>
   </g>
   <g id="patch_7">
    <path d="M 447.722574 107.624135 
C 431.046453 110.564586 414.688998 115.090051 398.872858 121.138932 
C 383.056718 127.187813 367.85398 134.732541 353.471575 143.67042 
L 395.609837 211.477282 
C 405.677521 205.220767 416.319438 199.939457 427.390736 195.70524 
C 438.462034 191.471023 449.912252 188.303198 461.585537 186.244882 
z
" style="fill: #ff7f0e"/>
   </g>
   <g id="matplotlib.axis_1"/>
   <g id="matplotlib.axis_2"/>
  </g>
 </g>
</svg>
