<?xml version="1.0" encoding="utf-8" standalone="no"?>
<!DOCTYPE svg PUBLIC "-//W3C//DTD SVG 1.1//EN"
  "http://www.w3.org/Graphics/SVG/1.1/DTD/svg11.dtd">
<svg xmlns:xlink="http://www.w3.org/1999/xlink" width="1024.97115pt" height="679.68pt" viewBox="0 0 1024.97115 679.68" xmlns="http://www.w3.org/2000/svg" version="1.1">
 <metadata>
  <rdf:RDF xmlns:dc="http://purl.org/dc/elements/1.1/" xmlns:cc="http://creativecommons.org/ns#" xmlns:rdf="http://www.w3.org/1999/02/22-rdf-syntax-ns#">
   <cc:Work>
    <dc:type rdf:resource="http://purl.org/dc/dcmitype/StillImage"/>
    <dc:date>2023-10-13T09:50:30.056644</dc:date>
    <dc:format>image/svg+xml</dc:format>
    <dc:creator>
     <cc:Agent>
      <dc:title>Matplotlib v3.7.3, https://matplotlib.org/</dc:title>
     </cc:Agent>
    </dc:creator>
   </cc:Work>
  </rdf:RDF>
 </metadata>
 <defs>
  <style type="text/css">*{stroke-linejoin: round; stroke-linecap: butt}</style>
 </defs>
 <g id="figure_1">
  <g id="patch_1">
   <path d="M 0 679.68 
L 1024.97115 679.68 
L 1024.97115 0 
L 0 0 
z
" style="fill: #ffffff"/>
  </g>
  <g id="axes_1">
   <g id="patch_2">
    <path d="M 863.201196 635.432444 
L 738.719091 635.432444 
L 675.14428 552.562537 
" style="fill: none; stroke: #000000; stroke-width: 3; stroke-linecap: round"/>
   </g>
   <g id="text_1">
    <g id="patch_3">
     <path d="M 865.2024 655.949631 
L 1023.77115 655.949631 
L 1023.77115 614.915256 
L 865.2024 614.915256 
z
" style="fill: #ffffff"/>
    </g>
    <!-- Y [82.9%] -->
    <g transform="translate(871.2024 643.710569) scale(0.3 -0.3)">
     <defs>
      <path id="DejaVuSans-59" d="M -13 4666 
L 666 4666 
L 1959 2747 
L 3244 4666 
L 3922 4666 
L 2272 2222 
L 2272 0 
L 1638 0 
L 1638 2222 
L -13 4666 
z
" transform="scale(0.015625)"/>
      <path id="DejaVuSans-20" transform="scale(0.015625)"/>
      <path id="DejaVuSans-5b" d="M 550 4863 
L 1875 4863 
L 1875 4416 
L 1125 4416 
L 1125 -397 
L 1875 -397 
L 1875 -844 
L 550 -844 
L 550 4863 
z
" transform="scale(0.015625)"/>
      <path id="DejaVuSans-38" d="M 2034 2216 
Q 1584 2216 1326 1975 
Q 1069 1734 1069 1313 
Q 1069 891 1326 650 
Q 1584 409 2034 409 
Q 2484 409 2743 651 
Q 3003 894 3003 1313 
Q 3003 1734 2745 1975 
Q 2488 2216 2034 2216 
z
M 1403 2484 
Q 997 2584 770 2862 
Q 544 3141 544 3541 
Q 544 4100 942 4425 
Q 1341 4750 2034 4750 
Q 2731 4750 3128 4425 
Q 3525 4100 3525 3541 
Q 3525 3141 3298 2862 
Q 3072 2584 2669 2484 
Q 3125 2378 3379 2068 
Q 3634 1759 3634 1313 
Q 3634 634 3220 271 
Q 2806 -91 2034 -91 
Q 1263 -91 848 271 
Q 434 634 434 1313 
Q 434 1759 690 2068 
Q 947 2378 1403 2484 
z
M 1172 3481 
Q 1172 3119 1398 2916 
Q 1625 2713 2034 2713 
Q 2441 2713 2670 2916 
Q 2900 3119 2900 3481 
Q 2900 3844 2670 4047 
Q 2441 4250 2034 4250 
Q 1625 4250 1398 4047 
Q 1172 3844 1172 3481 
z
" transform="scale(0.015625)"/>
      <path id="DejaVuSans-32" d="M 1228 531 
L 3431 531 
L 3431 0 
L 469 0 
L 469 531 
Q 828 903 1448 1529 
Q 2069 2156 2228 2338 
Q 2531 2678 2651 2914 
Q 2772 3150 2772 3378 
Q 2772 3750 2511 3984 
Q 2250 4219 1831 4219 
Q 1534 4219 1204 4116 
Q 875 4013 500 3803 
L 500 4441 
Q 881 4594 1212 4672 
Q 1544 4750 1819 4750 
Q 2544 4750 2975 4387 
Q 3406 4025 3406 3419 
Q 3406 3131 3298 2873 
Q 3191 2616 2906 2266 
Q 2828 2175 2409 1742 
Q 1991 1309 1228 531 
z
" transform="scale(0.015625)"/>
      <path id="DejaVuSans-2e" d="M 684 794 
L 1344 794 
L 1344 0 
L 684 0 
L 684 794 
z
" transform="scale(0.015625)"/>
      <path id="DejaVuSans-39" d="M 703 97 
L 703 672 
Q 941 559 1184 500 
Q 1428 441 1663 441 
Q 2288 441 2617 861 
Q 2947 1281 2994 2138 
Q 2813 1869 2534 1725 
Q 2256 1581 1919 1581 
Q 1219 1581 811 2004 
Q 403 2428 403 3163 
Q 403 3881 828 4315 
Q 1253 4750 1959 4750 
Q 2769 4750 3195 4129 
Q 3622 3509 3622 2328 
Q 3622 1225 3098 567 
Q 2575 -91 1691 -91 
Q 1453 -91 1209 -44 
Q 966 3 703 97 
z
M 1959 2075 
Q 2384 2075 2632 2365 
Q 2881 2656 2881 3163 
Q 2881 3666 2632 3958 
Q 2384 4250 1959 4250 
Q 1534 4250 1286 3958 
Q 1038 3666 1038 3163 
Q 1038 2656 1286 2365 
Q 1534 2075 1959 2075 
z
" transform="scale(0.015625)"/>
      <path id="DejaVuSans-25" d="M 4653 2053 
Q 4381 2053 4226 1822 
Q 4072 1591 4072 1178 
Q 4072 772 4226 539 
Q 4381 306 4653 306 
Q 4919 306 5073 539 
Q 5228 772 5228 1178 
Q 5228 1588 5073 1820 
Q 4919 2053 4653 2053 
z
M 4653 2450 
Q 5147 2450 5437 2106 
Q 5728 1763 5728 1178 
Q 5728 594 5436 251 
Q 5144 -91 4653 -91 
Q 4153 -91 3862 251 
Q 3572 594 3572 1178 
Q 3572 1766 3864 2108 
Q 4156 2450 4653 2450 
z
M 1428 4353 
Q 1159 4353 1004 4120 
Q 850 3888 850 3481 
Q 850 3069 1003 2837 
Q 1156 2606 1428 2606 
Q 1700 2606 1854 2837 
Q 2009 3069 2009 3481 
Q 2009 3884 1853 4118 
Q 1697 4353 1428 4353 
z
M 4250 4750 
L 4750 4750 
L 1831 -91 
L 1331 -91 
L 4250 4750 
z
M 1428 4750 
Q 1922 4750 2215 4408 
Q 2509 4066 2509 3481 
Q 2509 2891 2217 2550 
Q 1925 2209 1428 2209 
Q 931 2209 642 2551 
Q 353 2894 353 3481 
Q 353 4063 643 4406 
Q 934 4750 1428 4750 
z
" transform="scale(0.015625)"/>
      <path id="DejaVuSans-5d" d="M 1947 4863 
L 1947 -844 
L 622 -844 
L 622 -397 
L 1369 -397 
L 1369 4416 
L 622 4416 
L 622 4863 
L 1947 4863 
z
" transform="scale(0.015625)"/>
     </defs>
     <use xlink:href="#DejaVuSans-59"/>
     <use xlink:href="#DejaVuSans-20" x="61.083984"/>
     <use xlink:href="#DejaVuSans-5b" x="92.871094"/>
     <use xlink:href="#DejaVuSans-38" x="131.884766"/>
     <use xlink:href="#DejaVuSans-32" x="195.507812"/>
     <use xlink:href="#DejaVuSans-2e" x="259.130859"/>
     <use xlink:href="#DejaVuSans-39" x="290.917969"/>
     <use xlink:href="#DejaVuSans-25" x="354.541016"/>
     <use xlink:href="#DejaVuSans-5d" x="449.560547"/>
    </g>
   </g>
   <g id="patch_4">
    <path d="M 160.703947 44.247567 
L 285.183295 44.247567 
L 348.758111 127.117471 
" style="fill: none; stroke: #000000; stroke-width: 3; stroke-linecap: round"/>
   </g>
   <g id="text_2">
    <g id="patch_5">
     <path d="M 1.2 64.764754 
L 158.7 64.764754 
L 158.7 23.730379 
L 1.2 23.730379 
z
" style="fill: #ffffff"/>
    </g>
    <!-- F [14.9%] -->
    <g transform="translate(7.2 52.525692) scale(0.3 -0.3)">
     <defs>
      <path id="DejaVuSans-46" d="M 628 4666 
L 3309 4666 
L 3309 4134 
L 1259 4134 
L 1259 2759 
L 3109 2759 
L 3109 2228 
L 1259 2228 
L 1259 0 
L 628 0 
L 628 4666 
z
" transform="scale(0.015625)"/>
      <path id="DejaVuSans-31" d="M 794 531 
L 1825 531 
L 1825 4091 
L 703 3866 
L 703 4441 
L 1819 4666 
L 2450 4666 
L 2450 531 
L 3481 531 
L 3481 0 
L 794 0 
L 794 531 
z
" transform="scale(0.015625)"/>
      <path id="DejaVuSans-34" d="M 2419 4116 
L 825 1625 
L 2419 1625 
L 2419 4116 
z
M 2253 4666 
L 3047 4666 
L 3047 1625 
L 3713 1625 
L 3713 1100 
L 3047 1100 
L 3047 0 
L 2419 0 
L 2419 1100 
L 313 1100 
L 313 1709 
L 2253 4666 
z
" transform="scale(0.015625)"/>
     </defs>
     <use xlink:href="#DejaVuSans-46"/>
     <use xlink:href="#DejaVuSans-20" x="57.519531"/>
     <use xlink:href="#DejaVuSans-5b" x="89.306641"/>
     <use xlink:href="#DejaVuSans-31" x="128.320312"/>
     <use xlink:href="#DejaVuSans-34" x="191.943359"/>
     <use xlink:href="#DejaVuSans-2e" x="255.566406"/>
     <use xlink:href="#DejaVuSans-39" x="287.353516"/>
     <use xlink:href="#DejaVuSans-25" x="350.976562"/>
     <use xlink:href="#DejaVuSans-5d" x="445.996094"/>
    </g>
   </g>
   <g id="patch_6">
    <path d="M 270.794899 227.326734 
C 258.287862 254.133802 250.337741 282.839652 247.272103 312.261526 
C 244.206465 341.6834 246.067999 371.411585 252.780006 400.221197 
C 259.492014 429.03081 270.961025 456.520663 286.714488 481.5581 
C 302.46795 506.595537 322.286487 528.8319 345.353523 547.350989 
C 368.420559 565.870079 394.414874 580.414008 422.26543 590.383528 
C 450.115987 600.353047 479.434953 605.609327 509.014308 605.935793 
C 538.593663 606.26226 568.0215 601.654367 596.085312 592.301973 
C 624.149124 582.949579 650.458109 568.98292 673.928265 550.97746 
C 697.398422 532.972 717.702916 511.178474 734.005148 486.494835 
C 750.30738 461.811196 762.380334 434.581175 769.726571 405.926722 
C 777.072807 377.27227 779.590026 347.592414 777.174513 318.110044 
C 774.758999 288.627675 767.444389 259.753348 755.532065 232.676765 
C 743.61974 205.600182 727.275587 180.698397 707.173027 158.997431 
C 687.070468 137.296465 663.48944 119.098515 637.401547 105.153385 
C 611.313653 91.208256 583.082181 81.710139 553.870342 77.050384 
C 524.658504 72.390629 494.873088 72.634125 465.741336 77.770839 
L 479.604295 156.391587 
C 499.996522 152.795888 520.846313 152.625441 541.2946 155.887269 
C 561.742887 159.149098 581.504917 165.797779 599.766443 175.55937 
C 618.027968 185.320961 634.534687 198.059526 648.606479 213.250202 
C 662.678271 228.440878 674.119178 245.872127 682.457805 264.825736 
C 690.796432 283.779344 695.916659 303.991372 697.607519 324.629031 
C 699.298379 345.26669 697.536325 366.042589 692.393959 386.100706 
C 687.251594 406.158822 678.800526 425.219837 667.388964 442.498384 
C 655.977401 459.776932 641.764255 475.0324 625.335146 487.636222 
C 608.906036 500.240044 590.489747 510.016705 570.845078 516.563381 
C 551.20041 523.110057 530.600924 526.335582 509.895376 526.107055 
C 489.189827 525.878529 468.666551 522.199133 449.171161 515.220469 
C 429.675772 508.241806 411.479752 498.061055 395.332826 485.097693 
C 379.185901 472.13433 365.312925 456.568876 354.285501 439.04267 
C 343.258078 421.516464 335.22977 402.273567 330.531365 382.106838 
C 325.83296 361.940109 324.529885 341.13038 326.675832 320.535068 
C 328.821779 299.939756 334.386864 279.845661 343.141789 261.080714 
z
" style="fill: #1f77b4"/>
   </g>
   <g id="patch_7">
    <path d="M 465.741312 77.770844 
C 423.622167 85.197589 383.907645 102.66997 349.974125 128.702548 
C 316.040605 154.735126 288.877769 188.568655 270.794899 227.326734 
L 343.141789 261.080714 
C 355.799798 233.950059 374.813784 210.266588 398.567247 192.043783 
C 422.320711 173.820979 450.120877 161.590312 479.604278 156.39159 
z
" style="fill: #ff7f0e"/>
   </g>
   <g id="matplotlib.axis_1"/>
   <g id="matplotlib.axis_2"/>
  </g>
 </g>
</svg>
