<?xml version="1.0" encoding="utf-8" standalone="no"?>
<!DOCTYPE svg PUBLIC "-//W3C//DTD SVG 1.1//EN"
  "http://www.w3.org/Graphics/SVG/1.1/DTD/svg11.dtd">
<svg xmlns:xlink="http://www.w3.org/1999/xlink" width="1011.349275pt" height="726.106435pt" viewBox="0 0 1011.349275 726.106435" xmlns="http://www.w3.org/2000/svg" version="1.1">
 <metadata>
  <rdf:RDF xmlns:dc="http://purl.org/dc/elements/1.1/" xmlns:cc="http://creativecommons.org/ns#" xmlns:rdf="http://www.w3.org/1999/02/22-rdf-syntax-ns#">
   <cc:Work>
    <dc:type rdf:resource="http://purl.org/dc/dcmitype/StillImage"/>
    <dc:date>2023-10-13T09:56:24.535199</dc:date>
    <dc:format>image/svg+xml</dc:format>
    <dc:creator>
     <cc:Agent>
      <dc:title>Matplotlib v3.7.3, https://matplotlib.org/</dc:title>
     </cc:Agent>
    </dc:creator>
   </cc:Work>
  </rdf:RDF>
 </metadata>
 <defs>
  <style type="text/css">*{stroke-linejoin: round; stroke-linecap: butt}</style>
 </defs>
 <g id="figure_1">
  <g id="patch_1">
   <path d="M 0 726.106435 
L 1011.349275 726.106435 
L 1011.349275 0 
L 0 0 
z
" style="fill: #ffffff"/>
  </g>
  <g id="axes_1">
   <g id="patch_2">
    <path d="M 847.381147 704.389247 
L 645.423511 704.389247 
L 603.569039 608.69504 
" style="fill: none; stroke: #000000; stroke-width: 3; stroke-linecap: round"/>
   </g>
   <g id="text_1">
    <g id="patch_3">
     <path d="M 849.382088 724.906435 
L 1010.149275 724.906435 
L 1010.149275 683.87206 
L 849.382088 683.87206 
z
" style="fill: #ffffff"/>
    </g>
    <!-- A [92.0%] -->
    <g transform="translate(855.382088 712.667372) scale(0.3 -0.3)">
     <defs>
      <path id="DejaVuSans-41" d="M 2188 4044 
L 1331 1722 
L 3047 1722 
L 2188 4044 
z
M 1831 4666 
L 2547 4666 
L 4325 0 
L 3669 0 
L 3244 1197 
L 1141 1197 
L 716 0 
L 50 0 
L 1831 4666 
z
" transform="scale(0.015625)"/>
      <path id="DejaVuSans-20" transform="scale(0.015625)"/>
      <path id="DejaVuSans-5b" d="M 550 4863 
L 1875 4863 
L 1875 4416 
L 1125 4416 
L 1125 -397 
L 1875 -397 
L 1875 -844 
L 550 -844 
L 550 4863 
z
" transform="scale(0.015625)"/>
      <path id="DejaVuSans-39" d="M 703 97 
L 703 672 
Q 941 559 1184 500 
Q 1428 441 1663 441 
Q 2288 441 2617 861 
Q 2947 1281 2994 2138 
Q 2813 1869 2534 1725 
Q 2256 1581 1919 1581 
Q 1219 1581 811 2004 
Q 403 2428 403 3163 
Q 403 3881 828 4315 
Q 1253 4750 1959 4750 
Q 2769 4750 3195 4129 
Q 3622 3509 3622 2328 
Q 3622 1225 3098 567 
Q 2575 -91 1691 -91 
Q 1453 -91 1209 -44 
Q 966 3 703 97 
z
M 1959 2075 
Q 2384 2075 2632 2365 
Q 2881 2656 2881 3163 
Q 2881 3666 2632 3958 
Q 2384 4250 1959 4250 
Q 1534 4250 1286 3958 
Q 1038 3666 1038 3163 
Q 1038 2656 1286 2365 
Q 1534 2075 1959 2075 
z
" transform="scale(0.015625)"/>
      <path id="DejaVuSans-32" d="M 1228 531 
L 3431 531 
L 3431 0 
L 469 0 
L 469 531 
Q 828 903 1448 1529 
Q 2069 2156 2228 2338 
Q 2531 2678 2651 2914 
Q 2772 3150 2772 3378 
Q 2772 3750 2511 3984 
Q 2250 4219 1831 4219 
Q 1534 4219 1204 4116 
Q 875 4013 500 3803 
L 500 4441 
Q 881 4594 1212 4672 
Q 1544 4750 1819 4750 
Q 2544 4750 2975 4387 
Q 3406 4025 3406 3419 
Q 3406 3131 3298 2873 
Q 3191 2616 2906 2266 
Q 2828 2175 2409 1742 
Q 1991 1309 1228 531 
z
" transform="scale(0.015625)"/>
      <path id="DejaVuSans-2e" d="M 684 794 
L 1344 794 
L 1344 0 
L 684 0 
L 684 794 
z
" transform="scale(0.015625)"/>
      <path id="DejaVuSans-30" d="M 2034 4250 
Q 1547 4250 1301 3770 
Q 1056 3291 1056 2328 
Q 1056 1369 1301 889 
Q 1547 409 2034 409 
Q 2525 409 2770 889 
Q 3016 1369 3016 2328 
Q 3016 3291 2770 3770 
Q 2525 4250 2034 4250 
z
M 2034 4750 
Q 2819 4750 3233 4129 
Q 3647 3509 3647 2328 
Q 3647 1150 3233 529 
Q 2819 -91 2034 -91 
Q 1250 -91 836 529 
Q 422 1150 422 2328 
Q 422 3509 836 4129 
Q 1250 4750 2034 4750 
z
" transform="scale(0.015625)"/>
      <path id="DejaVuSans-25" d="M 4653 2053 
Q 4381 2053 4226 1822 
Q 4072 1591 4072 1178 
Q 4072 772 4226 539 
Q 4381 306 4653 306 
Q 4919 306 5073 539 
Q 5228 772 5228 1178 
Q 5228 1588 5073 1820 
Q 4919 2053 4653 2053 
z
M 4653 2450 
Q 5147 2450 5437 2106 
Q 5728 1763 5728 1178 
Q 5728 594 5436 251 
Q 5144 -91 4653 -91 
Q 4153 -91 3862 251 
Q 3572 594 3572 1178 
Q 3572 1766 3864 2108 
Q 4156 2450 4653 2450 
z
M 1428 4353 
Q 1159 4353 1004 4120 
Q 850 3888 850 3481 
Q 850 3069 1003 2837 
Q 1156 2606 1428 2606 
Q 1700 2606 1854 2837 
Q 2009 3069 2009 3481 
Q 2009 3884 1853 4118 
Q 1697 4353 1428 4353 
z
M 4250 4750 
L 4750 4750 
L 1831 -91 
L 1331 -91 
L 4250 4750 
z
M 1428 4750 
Q 1922 4750 2215 4408 
Q 2509 4066 2509 3481 
Q 2509 2891 2217 2550 
Q 1925 2209 1428 2209 
Q 931 2209 642 2551 
Q 353 2894 353 3481 
Q 353 4063 643 4406 
Q 934 4750 1428 4750 
z
" transform="scale(0.015625)"/>
      <path id="DejaVuSans-5d" d="M 1947 4863 
L 1947 -844 
L 622 -844 
L 622 -397 
L 1369 -397 
L 1369 4416 
L 622 4416 
L 622 4863 
L 1947 4863 
z
" transform="scale(0.015625)"/>
     </defs>
     <use xlink:href="#DejaVuSans-41"/>
     <use xlink:href="#DejaVuSans-20" x="68.408203"/>
     <use xlink:href="#DejaVuSans-5b" x="100.195312"/>
     <use xlink:href="#DejaVuSans-39" x="139.208984"/>
     <use xlink:href="#DejaVuSans-32" x="202.832031"/>
     <use xlink:href="#DejaVuSans-2e" x="266.455078"/>
     <use xlink:href="#DejaVuSans-30" x="298.242188"/>
     <use xlink:href="#DejaVuSans-25" x="361.865234"/>
     <use xlink:href="#DejaVuSans-5d" x="456.884766"/>
    </g>
   </g>
   <g id="patch_4">
    <path d="M 144.88322 21.717187 
L 346.838288 21.717187 
L 388.692753 117.411397 
" style="fill: none; stroke: #000000; stroke-width: 3; stroke-linecap: round"/>
   </g>
   <g id="text_2">
    <g id="patch_5">
     <path d="M 1.2 42.234375 
L 142.879687 42.234375 
L 142.879687 1.2 
L 1.2 1.2 
z
" style="fill: #ffffff"/>
    </g>
    <!-- V [7.5%] -->
    <g transform="translate(7.2 29.995312) scale(0.3 -0.3)">
     <defs>
      <path id="DejaVuSans-56" d="M 1831 0 
L 50 4666 
L 709 4666 
L 2188 738 
L 3669 4666 
L 4325 4666 
L 2547 0 
L 1831 0 
z
" transform="scale(0.015625)"/>
      <path id="DejaVuSans-37" d="M 525 4666 
L 3525 4666 
L 3525 4397 
L 1831 0 
L 1172 0 
L 2766 4134 
L 525 4134 
L 525 4666 
z
" transform="scale(0.015625)"/>
      <path id="DejaVuSans-35" d="M 691 4666 
L 3169 4666 
L 3169 4134 
L 1269 4134 
L 1269 2991 
Q 1406 3038 1543 3061 
Q 1681 3084 1819 3084 
Q 2600 3084 3056 2656 
Q 3513 2228 3513 1497 
Q 3513 744 3044 326 
Q 2575 -91 1722 -91 
Q 1428 -91 1123 -41 
Q 819 9 494 109 
L 494 744 
Q 775 591 1075 516 
Q 1375 441 1709 441 
Q 2250 441 2565 725 
Q 2881 1009 2881 1497 
Q 2881 1984 2565 2268 
Q 2250 2553 1709 2553 
Q 1456 2553 1204 2497 
Q 953 2441 691 2322 
L 691 4666 
z
" transform="scale(0.015625)"/>
     </defs>
     <use xlink:href="#DejaVuSans-56"/>
     <use xlink:href="#DejaVuSans-20" x="68.408203"/>
     <use xlink:href="#DejaVuSans-5b" x="100.195312"/>
     <use xlink:href="#DejaVuSans-37" x="139.208984"/>
     <use xlink:href="#DejaVuSans-2e" x="202.832031"/>
     <use xlink:href="#DejaVuSans-35" x="234.619141"/>
     <use xlink:href="#DejaVuSans-25" x="298.242188"/>
     <use xlink:href="#DejaVuSans-5d" x="393.261719"/>
    </g>
   </g>
   <g id="patch_6">
    <path d="M 335.066162 151.218969 
C 309.365678 170.759914 287.434592 194.815842 270.346842 222.208765 
C 253.259092 249.601688 241.298227 279.877055 235.049954 311.552322 
C 228.801682 343.227589 228.369685 375.777144 233.775117 407.607078 
C 239.180549 439.437013 250.333714 470.019149 266.688456 497.855921 
C 283.043199 525.692692 304.328132 550.322182 329.500961 570.538317 
C 354.673791 590.754452 383.316804 606.22177 414.027391 616.182858 
C 444.737978 626.143946 477.006535 630.433512 509.252914 628.841501 
C 541.499293 627.24949 573.188405 619.80232 602.768476 606.864669 
C 632.348547 593.927017 659.328734 575.713569 682.387851 553.116212 
C 705.446969 530.518855 724.20238 503.912565 737.735658 474.600215 
C 751.268935 445.287866 759.355511 413.755859 761.599397 381.548276 
C 763.843283 349.340693 760.207243 316.991977 750.869331 286.086204 
C 741.531419 255.18043 726.646584 226.230441 706.943719 200.653879 
C 687.240853 175.077317 663.046901 153.298593 635.546607 136.384183 
C 608.046314 119.469772 577.696012 107.700348 545.981916 101.652244 
C 514.26782 95.60414 481.716186 95.377717 449.921024 100.984062 
L 463.783983 179.60481 
C 486.040596 175.680369 508.82674 175.838865 531.026607 180.072538 
C 553.226474 184.30621 574.471686 192.544807 593.721891 204.384895 
C 612.972097 216.224982 629.907864 231.470089 643.699869 249.373682 
C 657.491875 267.277276 667.911259 287.542268 674.447798 309.176309 
C 680.984337 330.810351 683.529564 353.454452 681.958844 375.99976 
C 680.388124 398.545068 674.727521 420.617473 665.254227 441.136117 
C 655.780932 461.654762 642.652144 480.279165 626.510762 496.097315 
C 610.36938 511.915465 591.483249 524.664879 570.777199 533.721235 
C 550.07115 542.777591 527.888771 547.99061 505.316306 549.105017 
C 482.743841 550.219425 460.155851 547.216729 438.65844 540.243967 
C 417.161029 533.271206 397.11092 522.444083 379.489939 508.292788 
C 361.868959 494.141494 346.969506 476.900851 335.521186 457.415111 
C 324.072866 437.929371 316.26565 416.521876 312.481848 394.240922 
C 308.698045 371.959967 309.000444 349.175279 313.374234 327.002592 
C 317.748025 304.829905 326.12063 283.637148 338.082056 264.462102 
C 350.043481 245.287056 365.395241 228.447907 383.38558 214.769245 
z
" style="fill: #1f77b4"/>
   </g>
   <g id="patch_7">
    <path d="M 449.92106 100.984055 
C 429.125497 104.650871 408.840104 110.779925 389.493316 119.241769 
C 370.146528 127.703613 351.875514 138.438253 335.066162 151.218969 
L 383.38558 214.769245 
C 395.152126 205.822744 407.941836 198.308496 421.484588 192.385205 
C 435.027339 186.461914 449.227114 182.171577 463.784009 179.604805 
z
" style="fill: #ff7f0e"/>
   </g>
   <g id="matplotlib.axis_1"/>
   <g id="matplotlib.axis_2"/>
  </g>
 </g>
</svg>
