<?xml version="1.0" encoding="utf-8" standalone="no"?>
<!DOCTYPE svg PUBLIC "-//W3C//DTD SVG 1.1//EN"
  "http://www.w3.org/Graphics/SVG/1.1/DTD/svg11.dtd">
<svg xmlns:xlink="http://www.w3.org/1999/xlink" width="1028.238338pt" height="679.68pt" viewBox="0 0 1028.238338 679.68" xmlns="http://www.w3.org/2000/svg" version="1.1">
 <metadata>
  <rdf:RDF xmlns:dc="http://purl.org/dc/elements/1.1/" xmlns:cc="http://creativecommons.org/ns#" xmlns:rdf="http://www.w3.org/1999/02/22-rdf-syntax-ns#">
   <cc:Work>
    <dc:type rdf:resource="http://purl.org/dc/dcmitype/StillImage"/>
    <dc:date>2023-10-13T09:53:10.576309</dc:date>
    <dc:format>image/svg+xml</dc:format>
    <dc:creator>
     <cc:Agent>
      <dc:title>Matplotlib v3.7.3, https://matplotlib.org/</dc:title>
     </cc:Agent>
    </dc:creator>
   </cc:Work>
  </rdf:RDF>
 </metadata>
 <defs>
  <style type="text/css">*{stroke-linejoin: round; stroke-linecap: butt}</style>
 </defs>
 <g id="figure_1">
  <g id="patch_1">
   <path d="M 0 679.68 
L 1028.238338 679.68 
L 1028.238338 0 
L 0 0 
z
" style="fill: #ffffff"/>
  </g>
  <g id="axes_1">
   <g id="patch_2">
    <path d="M 864.268393 32.870602 
L 724.132142 32.870602 
L 664.946436 118.930059 
" style="fill: none; stroke: #000000; stroke-width: 3; stroke-linecap: round"/>
   </g>
   <g id="text_1">
    <g id="patch_3">
     <path d="M 866.27115 53.387789 
L 1027.038338 53.387789 
L 1027.038338 12.353414 
L 866.27115 12.353414 
z
" style="fill: #ffffff"/>
    </g>
    <!-- A [24.7%] -->
    <g transform="translate(872.27115 41.148727) scale(0.3 -0.3)">
     <defs>
      <path id="DejaVuSans-41" d="M 2188 4044 
L 1331 1722 
L 3047 1722 
L 2188 4044 
z
M 1831 4666 
L 2547 4666 
L 4325 0 
L 3669 0 
L 3244 1197 
L 1141 1197 
L 716 0 
L 50 0 
L 1831 4666 
z
" transform="scale(0.015625)"/>
      <path id="DejaVuSans-20" transform="scale(0.015625)"/>
      <path id="DejaVuSans-5b" d="M 550 4863 
L 1875 4863 
L 1875 4416 
L 1125 4416 
L 1125 -397 
L 1875 -397 
L 1875 -844 
L 550 -844 
L 550 4863 
z
" transform="scale(0.015625)"/>
      <path id="DejaVuSans-32" d="M 1228 531 
L 3431 531 
L 3431 0 
L 469 0 
L 469 531 
Q 828 903 1448 1529 
Q 2069 2156 2228 2338 
Q 2531 2678 2651 2914 
Q 2772 3150 2772 3378 
Q 2772 3750 2511 3984 
Q 2250 4219 1831 4219 
Q 1534 4219 1204 4116 
Q 875 4013 500 3803 
L 500 4441 
Q 881 4594 1212 4672 
Q 1544 4750 1819 4750 
Q 2544 4750 2975 4387 
Q 3406 4025 3406 3419 
Q 3406 3131 3298 2873 
Q 3191 2616 2906 2266 
Q 2828 2175 2409 1742 
Q 1991 1309 1228 531 
z
" transform="scale(0.015625)"/>
      <path id="DejaVuSans-34" d="M 2419 4116 
L 825 1625 
L 2419 1625 
L 2419 4116 
z
M 2253 4666 
L 3047 4666 
L 3047 1625 
L 3713 1625 
L 3713 1100 
L 3047 1100 
L 3047 0 
L 2419 0 
L 2419 1100 
L 313 1100 
L 313 1709 
L 2253 4666 
z
" transform="scale(0.015625)"/>
      <path id="DejaVuSans-2e" d="M 684 794 
L 1344 794 
L 1344 0 
L 684 0 
L 684 794 
z
" transform="scale(0.015625)"/>
      <path id="DejaVuSans-37" d="M 525 4666 
L 3525 4666 
L 3525 4397 
L 1831 0 
L 1172 0 
L 2766 4134 
L 525 4134 
L 525 4666 
z
" transform="scale(0.015625)"/>
      <path id="DejaVuSans-25" d="M 4653 2053 
Q 4381 2053 4226 1822 
Q 4072 1591 4072 1178 
Q 4072 772 4226 539 
Q 4381 306 4653 306 
Q 4919 306 5073 539 
Q 5228 772 5228 1178 
Q 5228 1588 5073 1820 
Q 4919 2053 4653 2053 
z
M 4653 2450 
Q 5147 2450 5437 2106 
Q 5728 1763 5728 1178 
Q 5728 594 5436 251 
Q 5144 -91 4653 -91 
Q 4153 -91 3862 251 
Q 3572 594 3572 1178 
Q 3572 1766 3864 2108 
Q 4156 2450 4653 2450 
z
M 1428 4353 
Q 1159 4353 1004 4120 
Q 850 3888 850 3481 
Q 850 3069 1003 2837 
Q 1156 2606 1428 2606 
Q 1700 2606 1854 2837 
Q 2009 3069 2009 3481 
Q 2009 3884 1853 4118 
Q 1697 4353 1428 4353 
z
M 4250 4750 
L 4750 4750 
L 1831 -91 
L 1331 -91 
L 4250 4750 
z
M 1428 4750 
Q 1922 4750 2215 4408 
Q 2509 4066 2509 3481 
Q 2509 2891 2217 2550 
Q 1925 2209 1428 2209 
Q 931 2209 642 2551 
Q 353 2894 353 3481 
Q 353 4063 643 4406 
Q 934 4750 1428 4750 
z
" transform="scale(0.015625)"/>
      <path id="DejaVuSans-5d" d="M 1947 4863 
L 1947 -844 
L 622 -844 
L 622 -397 
L 1369 -397 
L 1369 4416 
L 622 4416 
L 622 4863 
L 1947 4863 
z
" transform="scale(0.015625)"/>
     </defs>
     <use xlink:href="#DejaVuSans-41"/>
     <use xlink:href="#DejaVuSans-20" x="68.408203"/>
     <use xlink:href="#DejaVuSans-5b" x="100.195312"/>
     <use xlink:href="#DejaVuSans-32" x="139.208984"/>
     <use xlink:href="#DejaVuSans-34" x="202.832031"/>
     <use xlink:href="#DejaVuSans-2e" x="266.455078"/>
     <use xlink:href="#DejaVuSans-37" x="298.242188"/>
     <use xlink:href="#DejaVuSans-25" x="361.865234"/>
     <use xlink:href="#DejaVuSans-5d" x="456.884766"/>
    </g>
   </g>
   <g id="patch_4">
    <path d="M 161.770891 646.809418 
L 301.907787 646.809418 
L 361.093485 560.749955 
" style="fill: none; stroke: #000000; stroke-width: 3; stroke-linecap: round"/>
   </g>
   <g id="text_2">
    <g id="patch_5">
     <path d="M 1.2 667.326606 
L 159.76875 667.326606 
L 159.76875 626.292231 
L 1.2 626.292231 
z
" style="fill: #ffffff"/>
    </g>
    <!-- T [75.1%] -->
    <g transform="translate(7.2 655.087543) scale(0.3 -0.3)">
     <defs>
      <path id="DejaVuSans-54" d="M -19 4666 
L 3928 4666 
L 3928 4134 
L 2272 4134 
L 2272 0 
L 1638 0 
L 1638 4134 
L -19 4134 
L -19 4666 
z
" transform="scale(0.015625)"/>
      <path id="DejaVuSans-35" d="M 691 4666 
L 3169 4666 
L 3169 4134 
L 1269 4134 
L 1269 2991 
Q 1406 3038 1543 3061 
Q 1681 3084 1819 3084 
Q 2600 3084 3056 2656 
Q 3513 2228 3513 1497 
Q 3513 744 3044 326 
Q 2575 -91 1722 -91 
Q 1428 -91 1123 -41 
Q 819 9 494 109 
L 494 744 
Q 775 591 1075 516 
Q 1375 441 1709 441 
Q 2250 441 2565 725 
Q 2881 1009 2881 1497 
Q 2881 1984 2565 2268 
Q 2250 2553 1709 2553 
Q 1456 2553 1204 2497 
Q 953 2441 691 2322 
L 691 4666 
z
" transform="scale(0.015625)"/>
      <path id="DejaVuSans-31" d="M 794 531 
L 1825 531 
L 1825 4091 
L 703 3866 
L 703 4441 
L 1819 4666 
L 2450 4666 
L 2450 531 
L 3481 531 
L 3481 0 
L 794 0 
L 794 531 
z
" transform="scale(0.015625)"/>
     </defs>
     <use xlink:href="#DejaVuSans-54"/>
     <use xlink:href="#DejaVuSans-20" x="61.083984"/>
     <use xlink:href="#DejaVuSans-5b" x="92.871094"/>
     <use xlink:href="#DejaVuSans-37" x="131.884766"/>
     <use xlink:href="#DejaVuSans-35" x="195.507812"/>
     <use xlink:href="#DejaVuSans-2e" x="259.130859"/>
     <use xlink:href="#DejaVuSans-31" x="290.917969"/>
     <use xlink:href="#DejaVuSans-25" x="354.541016"/>
     <use xlink:href="#DejaVuSans-5d" x="449.560547"/>
    </g>
   </g>
   <g id="patch_6">
    <path d="M 774.273668 289.222897 
C 761.001702 220.721335 721.306058 160.114925 663.814373 120.576144 
C 606.322688 81.037363 535.525459 65.654465 466.810086 77.770839 
L 480.673045 156.391587 
C 528.773807 147.910125 578.331866 158.678154 618.576046 186.355301 
C 658.820226 214.032447 686.607176 256.456934 695.897553 304.408028 
z
" style="fill: #1f77b4"/>
   </g>
   <g id="patch_7">
    <path d="M 466.810037 77.770848 
C 440.942595 82.331981 415.892415 90.697938 392.475355 102.596249 
C 369.058296 114.49456 347.531371 129.794635 328.595691 147.998166 
C 309.660012 166.201696 293.523406 187.10889 280.711427 210.038819 
C 267.899448 232.968749 258.552713 257.669748 252.975637 283.337328 
C 247.398561 309.004909 245.652355 335.357358 247.79389 361.536401 
C 249.935426 387.715444 255.941199 413.433755 265.615607 437.853712 
C 275.290015 462.273669 288.526878 485.127252 304.895083 505.670142 
C 321.263287 526.213033 340.583186 544.219763 362.225548 559.10387 
C 383.867909 573.987978 407.595199 585.586103 432.634643 593.520506 
C 457.674086 601.454909 483.750863 605.638506 510.015679 605.935041 
C 536.280495 606.231577 562.44508 602.637796 587.65728 595.270745 
C 612.869481 587.903694 636.85258 576.84423 658.825471 562.452548 
C 680.798363 548.060866 700.519885 530.494922 717.347726 510.326823 
C 734.175566 490.158723 747.925033 467.609821 758.148318 443.414513 
C 768.371603 419.219205 774.956502 393.643047 777.68855 367.519027 
C 780.420599 341.395008 779.269811 315.009851 774.273668 289.222897 
L 695.897553 304.408028 
C 699.394853 322.458896 700.200404 340.928505 698.28797 359.215319 
C 696.375536 377.502133 691.766107 395.405444 684.609808 412.342159 
C 677.453508 429.278875 667.828881 445.063106 656.049393 459.180776 
C 644.269904 473.298446 630.464839 485.594606 615.083815 495.668783 
C 599.702791 505.742961 582.914621 513.484586 565.266081 518.641521 
C 547.617541 523.798457 529.302331 526.314104 510.91696 526.106529 
C 492.531589 525.898954 474.277845 522.970436 456.750235 517.416354 
C 439.222624 511.862272 422.613522 503.743584 407.463868 493.324709 
C 392.314215 482.905834 378.790286 470.301123 367.332543 455.9211 
C 355.874799 441.541076 346.608996 425.543568 339.83691 408.449598 
C 333.064824 391.355628 328.860783 373.352811 327.361708 355.027481 
C 325.862633 336.70215 327.084978 318.255436 330.988931 300.28813 
C 334.892884 282.320823 341.435598 265.030124 350.403984 248.979173 
C 359.372369 232.928223 370.667993 218.293187 383.922969 205.550716 
C 397.177945 192.808245 412.246792 182.098192 428.638734 173.769375 
C 445.030675 165.440557 462.565802 159.584387 480.673011 156.391594 
z
" style="fill: #ff7f0e"/>
   </g>
   <g id="matplotlib.axis_1"/>
   <g id="matplotlib.axis_2"/>
  </g>
 </g>
</svg>
