<?xml version="1.0" encoding="utf-8" standalone="no"?>
<!DOCTYPE svg PUBLIC "-//W3C//DTD SVG 1.1//EN"
  "http://www.w3.org/Graphics/SVG/1.1/DTD/svg11.dtd">
<svg xmlns:xlink="http://www.w3.org/1999/xlink" width="194.45029pt" height="108.862348pt" viewBox="0 0 194.45029 108.862348" xmlns="http://www.w3.org/2000/svg" version="1.1">
 <metadata>
  <rdf:RDF xmlns:dc="http://purl.org/dc/elements/1.1/" xmlns:cc="http://creativecommons.org/ns#" xmlns:rdf="http://www.w3.org/1999/02/22-rdf-syntax-ns#">
   <cc:Work>
    <dc:type rdf:resource="http://purl.org/dc/dcmitype/StillImage"/>
    <dc:date>2023-10-13T11:21:37.481004</dc:date>
    <dc:format>image/svg+xml</dc:format>
    <dc:creator>
     <cc:Agent>
      <dc:title>Matplotlib v3.7.3, https://matplotlib.org/</dc:title>
     </cc:Agent>
    </dc:creator>
   </cc:Work>
  </rdf:RDF>
 </metadata>
 <defs>
  <style type="text/css">*{stroke-linejoin: round; stroke-linecap: butt}</style>
 </defs>
 <g id="figure_1">
  <g id="patch_1">
   <path d="M 0 108.862348 
L 194.45029 108.862348 
L 194.45029 0 
L 0 0 
z
" style="fill: #ffffff"/>
  </g>
  <g id="axes_1">
   <g id="patch_2">
    <path d="M 132.756548 96.823285 
L 108.491976 96.823285 
L 104.837037 86.594887 
" style="fill: none; stroke: #000000; stroke-linecap: round"/>
   </g>
   <g id="text_1">
    <g id="patch_3">
     <path d="M 134.753415 103.662348 
L 189.25029 103.662348 
L 189.25029 89.984223 
L 134.753415 89.984223 
z
" style="fill: #ffffff"/>
    </g>
    <!-- G [94.5%] -->
    <g transform="translate(136.753415 99.58266) scale(0.1 -0.1)">
     <defs>
      <path id="DejaVuSans-47" d="M 3809 666 
L 3809 1919 
L 2778 1919 
L 2778 2438 
L 4434 2438 
L 4434 434 
Q 4069 175 3628 42 
Q 3188 -91 2688 -91 
Q 1594 -91 976 548 
Q 359 1188 359 2328 
Q 359 3472 976 4111 
Q 1594 4750 2688 4750 
Q 3144 4750 3555 4637 
Q 3966 4525 4313 4306 
L 4313 3634 
Q 3963 3931 3569 4081 
Q 3175 4231 2741 4231 
Q 1884 4231 1454 3753 
Q 1025 3275 1025 2328 
Q 1025 1384 1454 906 
Q 1884 428 2741 428 
Q 3075 428 3337 486 
Q 3600 544 3809 666 
z
" transform="scale(0.015625)"/>
      <path id="DejaVuSans-20" transform="scale(0.015625)"/>
      <path id="DejaVuSans-5b" d="M 550 4863 
L 1875 4863 
L 1875 4416 
L 1125 4416 
L 1125 -397 
L 1875 -397 
L 1875 -844 
L 550 -844 
L 550 4863 
z
" transform="scale(0.015625)"/>
      <path id="DejaVuSans-39" d="M 703 97 
L 703 672 
Q 941 559 1184 500 
Q 1428 441 1663 441 
Q 2288 441 2617 861 
Q 2947 1281 2994 2138 
Q 2813 1869 2534 1725 
Q 2256 1581 1919 1581 
Q 1219 1581 811 2004 
Q 403 2428 403 3163 
Q 403 3881 828 4315 
Q 1253 4750 1959 4750 
Q 2769 4750 3195 4129 
Q 3622 3509 3622 2328 
Q 3622 1225 3098 567 
Q 2575 -91 1691 -91 
Q 1453 -91 1209 -44 
Q 966 3 703 97 
z
M 1959 2075 
Q 2384 2075 2632 2365 
Q 2881 2656 2881 3163 
Q 2881 3666 2632 3958 
Q 2384 4250 1959 4250 
Q 1534 4250 1286 3958 
Q 1038 3666 1038 3163 
Q 1038 2656 1286 2365 
Q 1534 2075 1959 2075 
z
" transform="scale(0.015625)"/>
      <path id="DejaVuSans-34" d="M 2419 4116 
L 825 1625 
L 2419 1625 
L 2419 4116 
z
M 2253 4666 
L 3047 4666 
L 3047 1625 
L 3713 1625 
L 3713 1100 
L 3047 1100 
L 3047 0 
L 2419 0 
L 2419 1100 
L 313 1100 
L 313 1709 
L 2253 4666 
z
" transform="scale(0.015625)"/>
      <path id="DejaVuSans-2e" d="M 684 794 
L 1344 794 
L 1344 0 
L 684 0 
L 684 794 
z
" transform="scale(0.015625)"/>
      <path id="DejaVuSans-35" d="M 691 4666 
L 3169 4666 
L 3169 4134 
L 1269 4134 
L 1269 2991 
Q 1406 3038 1543 3061 
Q 1681 3084 1819 3084 
Q 2600 3084 3056 2656 
Q 3513 2228 3513 1497 
Q 3513 744 3044 326 
Q 2575 -91 1722 -91 
Q 1428 -91 1123 -41 
Q 819 9 494 109 
L 494 744 
Q 775 591 1075 516 
Q 1375 441 1709 441 
Q 2250 441 2565 725 
Q 2881 1009 2881 1497 
Q 2881 1984 2565 2268 
Q 2250 2553 1709 2553 
Q 1456 2553 1204 2497 
Q 953 2441 691 2322 
L 691 4666 
z
" transform="scale(0.015625)"/>
      <path id="DejaVuSans-25" d="M 4653 2053 
Q 4381 2053 4226 1822 
Q 4072 1591 4072 1178 
Q 4072 772 4226 539 
Q 4381 306 4653 306 
Q 4919 306 5073 539 
Q 5228 772 5228 1178 
Q 5228 1588 5073 1820 
Q 4919 2053 4653 2053 
z
M 4653 2450 
Q 5147 2450 5437 2106 
Q 5728 1763 5728 1178 
Q 5728 594 5436 251 
Q 5144 -91 4653 -91 
Q 4153 -91 3862 251 
Q 3572 594 3572 1178 
Q 3572 1766 3864 2108 
Q 4156 2450 4653 2450 
z
M 1428 4353 
Q 1159 4353 1004 4120 
Q 850 3888 850 3481 
Q 850 3069 1003 2837 
Q 1156 2606 1428 2606 
Q 1700 2606 1854 2837 
Q 2009 3069 2009 3481 
Q 2009 3884 1853 4118 
Q 1697 4353 1428 4353 
z
M 4250 4750 
L 4750 4750 
L 1831 -91 
L 1331 -91 
L 4250 4750 
z
M 1428 4750 
Q 1922 4750 2215 4408 
Q 2509 4066 2509 3481 
Q 2509 2891 2217 2550 
Q 1925 2209 1428 2209 
Q 931 2209 642 2551 
Q 353 2894 353 3481 
Q 353 4063 643 4406 
Q 934 4750 1428 4750 
z
" transform="scale(0.015625)"/>
      <path id="DejaVuSans-5d" d="M 1947 4863 
L 1947 -844 
L 622 -844 
L 622 -397 
L 1369 -397 
L 1369 4416 
L 622 4416 
L 622 4863 
L 1947 4863 
z
" transform="scale(0.015625)"/>
     </defs>
     <use xlink:href="#DejaVuSans-47"/>
     <use xlink:href="#DejaVuSans-20" x="77.490234"/>
     <use xlink:href="#DejaVuSans-5b" x="109.277344"/>
     <use xlink:href="#DejaVuSans-39" x="148.291016"/>
     <use xlink:href="#DejaVuSans-34" x="211.914062"/>
     <use xlink:href="#DejaVuSans-2e" x="275.537109"/>
     <use xlink:href="#DejaVuSans-35" x="307.324219"/>
     <use xlink:href="#DejaVuSans-25" x="370.947266"/>
     <use xlink:href="#DejaVuSans-5d" x="465.966797"/>
    </g>
   </g>
   <g id="patch_4">
    <path d="M 53.93363 12.039062 
L 78.195813 12.039062 
L 81.850752 22.26746 
" style="fill: none; stroke: #000000; stroke-linecap: round"/>
   </g>
   <g id="text_2">
    <g id="patch_5">
     <path d="M 5.2 18.878125 
L 51.934375 18.878125 
L 51.934375 5.2 
L 5.2 5.2 
z
" style="fill: #ffffff"/>
    </g>
    <!-- S [5.4%] -->
    <g transform="translate(7.2 14.798438) scale(0.1 -0.1)">
     <defs>
      <path id="DejaVuSans-53" d="M 3425 4513 
L 3425 3897 
Q 3066 4069 2747 4153 
Q 2428 4238 2131 4238 
Q 1616 4238 1336 4038 
Q 1056 3838 1056 3469 
Q 1056 3159 1242 3001 
Q 1428 2844 1947 2747 
L 2328 2669 
Q 3034 2534 3370 2195 
Q 3706 1856 3706 1288 
Q 3706 609 3251 259 
Q 2797 -91 1919 -91 
Q 1588 -91 1214 -16 
Q 841 59 441 206 
L 441 856 
Q 825 641 1194 531 
Q 1563 422 1919 422 
Q 2459 422 2753 634 
Q 3047 847 3047 1241 
Q 3047 1584 2836 1778 
Q 2625 1972 2144 2069 
L 1759 2144 
Q 1053 2284 737 2584 
Q 422 2884 422 3419 
Q 422 4038 858 4394 
Q 1294 4750 2059 4750 
Q 2388 4750 2728 4690 
Q 3069 4631 3425 4513 
z
" transform="scale(0.015625)"/>
     </defs>
     <use xlink:href="#DejaVuSans-53"/>
     <use xlink:href="#DejaVuSans-20" x="63.476562"/>
     <use xlink:href="#DejaVuSans-5b" x="95.263672"/>
     <use xlink:href="#DejaVuSans-35" x="134.277344"/>
     <use xlink:href="#DejaVuSans-2e" x="197.900391"/>
     <use xlink:href="#DejaVuSans-34" x="229.6875"/>
     <use xlink:href="#DejaVuSans-25" x="293.310547"/>
     <use xlink:href="#DejaVuSans-5d" x="388.330078"/>
    </g>
   </g>
   <g id="patch_6">
    <path d="M 77.594528 26.39701 
C 74.111914 28.353515 71.024175 30.941953 68.489728 34.029525 
C 65.955282 37.117096 64.018227 40.650079 62.777944 44.447211 
C 61.537661 48.244343 61.01573 52.239557 61.238931 56.227877 
C 61.462131 60.216198 62.426578 64.128229 64.08279 67.763264 
C 65.739002 71.398298 68.058163 74.693088 70.921287 77.478593 
C 73.784411 80.264098 77.141681 82.491852 80.82085 84.047558 
C 84.50002 85.603265 88.437075 86.459857 92.430022 86.573385 
C 96.422969 86.686913 100.402334 86.055402 104.163953 84.711254 
C 107.925572 83.367105 111.403996 81.333704 114.420762 78.715377 
C 117.437529 76.09705 119.940148 72.939354 121.800222 69.404295 
C 123.660295 65.869236 124.84546 62.018323 125.294909 58.049128 
C 125.744358 54.079933 125.450273 50.061517 124.427741 46.200048 
C 123.405208 42.338579 121.672021 38.701244 119.3171 35.474657 
C 116.962179 32.24807 114.026499 29.488373 110.660675 27.337152 
C 107.294852 25.185932 103.55745 23.680618 99.640217 22.898441 
C 95.722984 22.116265 91.694077 22.070835 87.760203 22.764484 
L 89.435311 32.264491 
C 92.189023 31.778937 95.009257 31.810738 97.75132 32.358261 
C 100.493383 32.905785 103.109565 33.959504 105.465641 35.465359 
C 107.821717 36.971213 109.876694 38.903001 111.525138 41.161612 
C 113.173583 43.420223 114.386814 45.966358 115.102587 48.669386 
C 115.81836 51.372414 116.024219 54.185305 115.709605 56.963742 
C 115.39499 59.742178 114.565375 62.437818 113.263324 64.912359 
C 111.961272 67.3869 110.209439 69.597287 108.097702 71.430116 
C 105.985966 73.262945 103.551069 74.686325 100.917936 75.62723 
C 98.284802 76.568134 95.499247 77.010191 92.704184 76.930721 
C 89.909121 76.851252 87.153183 76.251638 84.577764 75.162643 
C 82.002345 74.073648 79.652256 72.514221 77.648069 70.564367 
C 75.643883 68.614514 74.02047 66.308161 72.861121 63.763637 
C 71.701773 61.219112 71.02666 58.48069 70.87042 55.688866 
C 70.71418 52.897042 71.079531 50.100392 71.947729 47.4424 
C 72.815927 44.784407 74.171866 42.311319 75.945978 40.150019 
C 77.720091 37.988719 79.881508 36.176812 82.319338 34.807259 
z
" style="fill: #1f77b4"/>
   </g>
   <g id="patch_7">
    <path d="M 87.760202 22.764484 
C 85.978854 23.078583 84.227183 23.542433 82.523836 24.151094 
C 80.82049 24.759755 79.171535 25.51106 77.594528 26.39701 
L 82.319338 34.807259 
C 83.423243 34.187094 84.577511 33.661181 85.769854 33.235118 
C 86.962196 32.809055 88.188366 32.484361 89.43531 32.264491 
z
" style="fill: #ff7f0e"/>
   </g>
   <g id="matplotlib.axis_1"/>
   <g id="matplotlib.axis_2"/>
  </g>
 </g>
</svg>
