<?xml version="1.0" encoding="utf-8" standalone="no"?>
<!DOCTYPE svg PUBLIC "-//W3C//DTD SVG 1.1//EN"
  "http://www.w3.org/Graphics/SVG/1.1/DTD/svg11.dtd">
<svg xmlns:xlink="http://www.w3.org/1999/xlink" width="199.664353pt" height="98.262399pt" viewBox="0 0 199.664353 98.262399" xmlns="http://www.w3.org/2000/svg" version="1.1">
 <metadata>
  <rdf:RDF xmlns:dc="http://purl.org/dc/elements/1.1/" xmlns:cc="http://creativecommons.org/ns#" xmlns:rdf="http://www.w3.org/1999/02/22-rdf-syntax-ns#">
   <cc:Work>
    <dc:type rdf:resource="http://purl.org/dc/dcmitype/StillImage"/>
    <dc:date>2023-10-13T11:20:56.183941</dc:date>
    <dc:format>image/svg+xml</dc:format>
    <dc:creator>
     <cc:Agent>
      <dc:title>Matplotlib v3.7.3, https://matplotlib.org/</dc:title>
     </cc:Agent>
    </dc:creator>
   </cc:Work>
  </rdf:RDF>
 </metadata>
 <defs>
  <style type="text/css">*{stroke-linejoin: round; stroke-linecap: butt}</style>
 </defs>
 <g id="figure_1">
  <g id="patch_1">
   <path d="M 0 98.262399 
L 199.664352 98.262399 
L 199.664352 0 
L 0 0 
z
" style="fill: #ffffff"/>
  </g>
  <g id="axes_1">
   <g id="patch_2">
    <path d="M 138.874655 12.039062 
L 124.97516 12.039062 
L 118.820237 20.988679 
" style="fill: none; stroke: #000000; stroke-linecap: round"/>
   </g>
   <g id="text_1">
    <g id="patch_3">
     <path d="M 140.87529 18.878125 
L 194.464352 18.878125 
L 194.464352 5.2 
L 140.87529 5.2 
z
" style="fill: #ffffff"/>
    </g>
    <!-- A [24.7%] -->
    <g transform="translate(142.87529 14.798438) scale(0.1 -0.1)">
     <defs>
      <path id="DejaVuSans-41" d="M 2188 4044 
L 1331 1722 
L 3047 1722 
L 2188 4044 
z
M 1831 4666 
L 2547 4666 
L 4325 0 
L 3669 0 
L 3244 1197 
L 1141 1197 
L 716 0 
L 50 0 
L 1831 4666 
z
" transform="scale(0.015625)"/>
      <path id="DejaVuSans-20" transform="scale(0.015625)"/>
      <path id="DejaVuSans-5b" d="M 550 4863 
L 1875 4863 
L 1875 4416 
L 1125 4416 
L 1125 -397 
L 1875 -397 
L 1875 -844 
L 550 -844 
L 550 4863 
z
" transform="scale(0.015625)"/>
      <path id="DejaVuSans-32" d="M 1228 531 
L 3431 531 
L 3431 0 
L 469 0 
L 469 531 
Q 828 903 1448 1529 
Q 2069 2156 2228 2338 
Q 2531 2678 2651 2914 
Q 2772 3150 2772 3378 
Q 2772 3750 2511 3984 
Q 2250 4219 1831 4219 
Q 1534 4219 1204 4116 
Q 875 4013 500 3803 
L 500 4441 
Q 881 4594 1212 4672 
Q 1544 4750 1819 4750 
Q 2544 4750 2975 4387 
Q 3406 4025 3406 3419 
Q 3406 3131 3298 2873 
Q 3191 2616 2906 2266 
Q 2828 2175 2409 1742 
Q 1991 1309 1228 531 
z
" transform="scale(0.015625)"/>
      <path id="DejaVuSans-34" d="M 2419 4116 
L 825 1625 
L 2419 1625 
L 2419 4116 
z
M 2253 4666 
L 3047 4666 
L 3047 1625 
L 3713 1625 
L 3713 1100 
L 3047 1100 
L 3047 0 
L 2419 0 
L 2419 1100 
L 313 1100 
L 313 1709 
L 2253 4666 
z
" transform="scale(0.015625)"/>
      <path id="DejaVuSans-2e" d="M 684 794 
L 1344 794 
L 1344 0 
L 684 0 
L 684 794 
z
" transform="scale(0.015625)"/>
      <path id="DejaVuSans-37" d="M 525 4666 
L 3525 4666 
L 3525 4397 
L 1831 0 
L 1172 0 
L 2766 4134 
L 525 4134 
L 525 4666 
z
" transform="scale(0.015625)"/>
      <path id="DejaVuSans-25" d="M 4653 2053 
Q 4381 2053 4226 1822 
Q 4072 1591 4072 1178 
Q 4072 772 4226 539 
Q 4381 306 4653 306 
Q 4919 306 5073 539 
Q 5228 772 5228 1178 
Q 5228 1588 5073 1820 
Q 4919 2053 4653 2053 
z
M 4653 2450 
Q 5147 2450 5437 2106 
Q 5728 1763 5728 1178 
Q 5728 594 5436 251 
Q 5144 -91 4653 -91 
Q 4153 -91 3862 251 
Q 3572 594 3572 1178 
Q 3572 1766 3864 2108 
Q 4156 2450 4653 2450 
z
M 1428 4353 
Q 1159 4353 1004 4120 
Q 850 3888 850 3481 
Q 850 3069 1003 2837 
Q 1156 2606 1428 2606 
Q 1700 2606 1854 2837 
Q 2009 3069 2009 3481 
Q 2009 3884 1853 4118 
Q 1697 4353 1428 4353 
z
M 4250 4750 
L 4750 4750 
L 1831 -91 
L 1331 -91 
L 4250 4750 
z
M 1428 4750 
Q 1922 4750 2215 4408 
Q 2509 4066 2509 3481 
Q 2509 2891 2217 2550 
Q 1925 2209 1428 2209 
Q 931 2209 642 2551 
Q 353 2894 353 3481 
Q 353 4063 643 4406 
Q 934 4750 1428 4750 
z
" transform="scale(0.015625)"/>
      <path id="DejaVuSans-5d" d="M 1947 4863 
L 1947 -844 
L 622 -844 
L 622 -397 
L 1369 -397 
L 1369 4416 
L 622 4416 
L 622 4863 
L 1947 4863 
z
" transform="scale(0.015625)"/>
     </defs>
     <use xlink:href="#DejaVuSans-41"/>
     <use xlink:href="#DejaVuSans-20" x="68.408203"/>
     <use xlink:href="#DejaVuSans-5b" x="100.195312"/>
     <use xlink:href="#DejaVuSans-32" x="139.208984"/>
     <use xlink:href="#DejaVuSans-34" x="202.832031"/>
     <use xlink:href="#DejaVuSans-2e" x="266.455078"/>
     <use xlink:href="#DejaVuSans-37" x="298.242188"/>
     <use xlink:href="#DejaVuSans-25" x="361.865234"/>
     <use xlink:href="#DejaVuSans-5d" x="456.884766"/>
    </g>
   </g>
   <g id="patch_4">
    <path d="M 60.054204 86.223336 
L 73.956384 86.223336 
L 80.111306 77.273719 
" style="fill: none; stroke: #000000; stroke-linecap: round"/>
   </g>
   <g id="text_2">
    <g id="patch_5">
     <path d="M 5.2 93.062399 
L 58.05625 93.062399 
L 58.05625 79.384274 
L 5.2 79.384274 
z
" style="fill: #ffffff"/>
    </g>
    <!-- T [75.1%] -->
    <g transform="translate(7.2 88.982711) scale(0.1 -0.1)">
     <defs>
      <path id="DejaVuSans-54" d="M -19 4666 
L 3928 4666 
L 3928 4134 
L 2272 4134 
L 2272 0 
L 1638 0 
L 1638 4134 
L -19 4134 
L -19 4666 
z
" transform="scale(0.015625)"/>
      <path id="DejaVuSans-35" d="M 691 4666 
L 3169 4666 
L 3169 4134 
L 1269 4134 
L 1269 2991 
Q 1406 3038 1543 3061 
Q 1681 3084 1819 3084 
Q 2600 3084 3056 2656 
Q 3513 2228 3513 1497 
Q 3513 744 3044 326 
Q 2575 -91 1722 -91 
Q 1428 -91 1123 -41 
Q 819 9 494 109 
L 494 744 
Q 775 591 1075 516 
Q 1375 441 1709 441 
Q 2250 441 2565 725 
Q 2881 1009 2881 1497 
Q 2881 1984 2565 2268 
Q 2250 2553 1709 2553 
Q 1456 2553 1204 2497 
Q 953 2441 691 2322 
L 691 4666 
z
" transform="scale(0.015625)"/>
      <path id="DejaVuSans-31" d="M 794 531 
L 1825 531 
L 1825 4091 
L 703 3866 
L 703 4441 
L 1819 4666 
L 2450 4666 
L 2450 531 
L 3481 531 
L 3481 0 
L 794 0 
L 794 531 
z
" transform="scale(0.015625)"/>
     </defs>
     <use xlink:href="#DejaVuSans-54"/>
     <use xlink:href="#DejaVuSans-20" x="61.083984"/>
     <use xlink:href="#DejaVuSans-5b" x="92.871094"/>
     <use xlink:href="#DejaVuSans-37" x="131.884766"/>
     <use xlink:href="#DejaVuSans-35" x="195.507812"/>
     <use xlink:href="#DejaVuSans-2e" x="259.130859"/>
     <use xlink:href="#DejaVuSans-31" x="290.917969"/>
     <use xlink:href="#DejaVuSans-25" x="354.541016"/>
     <use xlink:href="#DejaVuSans-5d" x="449.560547"/>
    </g>
   </g>
   <g id="patch_6">
    <path d="M 131.033928 43.014965 
C 129.430232 34.737693 124.633675 27.414418 117.686763 22.636816 
C 110.739851 17.859213 102.185186 16.000446 93.882078 17.464508 
L 95.557186 26.964515 
C 101.369361 25.939672 107.357627 27.240808 112.220465 30.58513 
C 117.083303 33.929452 120.440893 39.055744 121.56348 44.849835 
z
" style="fill: #1f77b4"/>
   </g>
   <g id="patch_7">
    <path d="M 93.882072 17.464509 
C 90.756423 18.015646 87.729526 19.026532 84.899965 20.464245 
C 82.070403 21.901958 79.469233 23.750717 77.181172 25.95031 
C 74.893111 28.149903 72.943271 30.676189 71.395157 33.446889 
C 69.847043 36.217589 68.717646 39.202293 68.043749 42.303792 
C 67.369852 45.405291 67.158852 48.589546 67.417621 51.752847 
C 67.67639 54.916148 68.402088 58.023777 69.571079 60.974522 
C 70.74007 63.925266 72.339524 66.686741 74.317349 69.169007 
C 76.295173 71.651273 78.629661 73.827086 81.24478 75.625582 
C 83.859898 77.424079 86.726946 78.825519 89.752545 79.784259 
C 92.778145 80.743 95.929089 81.248518 99.102754 81.284349 
C 102.276419 81.32018 105.437973 80.885932 108.484447 79.995746 
C 111.530922 79.105561 114.428879 77.769209 117.083937 76.030214 
C 119.738995 74.291219 122.122012 72.168668 124.155376 69.731689 
C 126.18874 67.29471 127.850134 64.570052 129.085448 61.646452 
C 130.320761 58.722852 131.116437 55.6324 131.446559 52.475747 
C 131.776682 49.319095 131.637628 46.130889 131.033928 43.014965 
L 121.56348 44.849835 
C 121.986071 47.030981 122.083408 49.262726 121.852322 51.472383 
C 121.621237 53.682039 121.064264 55.845356 120.199544 57.891876 
C 119.334825 59.938395 118.171849 61.845657 116.748494 63.551542 
C 115.325139 65.257427 113.657027 66.743213 111.798487 67.960509 
C 109.939947 69.177806 107.911376 70.113252 105.778844 70.736382 
C 103.646312 71.359512 101.433224 71.663486 99.211659 71.638404 
C 96.990093 71.613322 94.784432 71.259459 92.666513 70.588341 
C 90.548593 69.917223 88.54166 68.936215 86.711077 67.677267 
C 84.880494 66.41832 83.246352 64.895251 81.861875 63.157664 
C 80.477398 61.420078 79.35778 59.487046 78.539486 57.421525 
C 77.721192 55.356003 77.213204 53.180663 77.032066 50.966352 
C 76.850928 48.752041 76.998628 46.523063 77.470355 44.352014 
C 77.942083 42.180964 78.732661 40.091671 79.816341 38.152182 
C 80.900021 36.212692 82.264909 34.444292 83.866551 32.904576 
C 85.468194 31.364861 87.289013 30.07073 89.269706 29.064331 
C 91.250399 28.057932 93.369227 27.350312 95.557182 26.964516 
z
" style="fill: #ff7f0e"/>
   </g>
   <g id="matplotlib.axis_1"/>
   <g id="matplotlib.axis_2"/>
  </g>
 </g>
</svg>
