<?xml version="1.0" encoding="utf-8" standalone="no"?>
<!DOCTYPE svg PUBLIC "-//W3C//DTD SVG 1.1//EN"
  "http://www.w3.org/Graphics/SVG/1.1/DTD/svg11.dtd">
<svg xmlns:xlink="http://www.w3.org/1999/xlink" width="202.06904pt" height="108.944966pt" viewBox="0 0 202.06904 108.944966" xmlns="http://www.w3.org/2000/svg" version="1.1">
 <metadata>
  <rdf:RDF xmlns:dc="http://purl.org/dc/elements/1.1/" xmlns:cc="http://creativecommons.org/ns#" xmlns:rdf="http://www.w3.org/1999/02/22-rdf-syntax-ns#">
   <cc:Work>
    <dc:type rdf:resource="http://purl.org/dc/dcmitype/StillImage"/>
    <dc:date>2023-10-13T11:20:55.896314</dc:date>
    <dc:format>image/svg+xml</dc:format>
    <dc:creator>
     <cc:Agent>
      <dc:title>Matplotlib v3.7.3, https://matplotlib.org/</dc:title>
     </cc:Agent>
    </dc:creator>
   </cc:Work>
  </rdf:RDF>
 </metadata>
 <defs>
  <style type="text/css">*{stroke-linejoin: round; stroke-linecap: butt}</style>
 </defs>
 <g id="figure_1">
  <g id="patch_1">
   <path d="M 0 108.944966 
L 202.06904 108.944966 
L 202.06904 -0 
L 0 -0 
z
" style="fill: #ffffff"/>
  </g>
  <g id="axes_1">
   <g id="patch_2">
    <path d="M 140.639744 12.039062 
L 101.592687 12.039062 
L 101.505138 22.90051 
" style="fill: none; stroke: #000000; stroke-linecap: round"/>
   </g>
   <g id="text_1">
    <g id="patch_3">
     <path d="M 142.639353 18.878125 
L 189.373728 18.878125 
L 189.373728 5.2 
L 142.639353 5.2 
z
" style="fill: #ffffff"/>
    </g>
    <!-- S [5.5%] -->
    <g transform="translate(144.639353 14.798437) scale(0.1 -0.1)">
     <defs>
      <path id="DejaVuSans-53" d="M 3425 4513 
L 3425 3897 
Q 3066 4069 2747 4153 
Q 2428 4238 2131 4238 
Q 1616 4238 1336 4038 
Q 1056 3838 1056 3469 
Q 1056 3159 1242 3001 
Q 1428 2844 1947 2747 
L 2328 2669 
Q 3034 2534 3370 2195 
Q 3706 1856 3706 1288 
Q 3706 609 3251 259 
Q 2797 -91 1919 -91 
Q 1588 -91 1214 -16 
Q 841 59 441 206 
L 441 856 
Q 825 641 1194 531 
Q 1563 422 1919 422 
Q 2459 422 2753 634 
Q 3047 847 3047 1241 
Q 3047 1584 2836 1778 
Q 2625 1972 2144 2069 
L 1759 2144 
Q 1053 2284 737 2584 
Q 422 2884 422 3419 
Q 422 4038 858 4394 
Q 1294 4750 2059 4750 
Q 2388 4750 2728 4690 
Q 3069 4631 3425 4513 
z
" transform="scale(0.015625)"/>
      <path id="DejaVuSans-20" transform="scale(0.015625)"/>
      <path id="DejaVuSans-5b" d="M 550 4863 
L 1875 4863 
L 1875 4416 
L 1125 4416 
L 1125 -397 
L 1875 -397 
L 1875 -844 
L 550 -844 
L 550 4863 
z
" transform="scale(0.015625)"/>
      <path id="DejaVuSans-35" d="M 691 4666 
L 3169 4666 
L 3169 4134 
L 1269 4134 
L 1269 2991 
Q 1406 3038 1543 3061 
Q 1681 3084 1819 3084 
Q 2600 3084 3056 2656 
Q 3513 2228 3513 1497 
Q 3513 744 3044 326 
Q 2575 -91 1722 -91 
Q 1428 -91 1123 -41 
Q 819 9 494 109 
L 494 744 
Q 775 591 1075 516 
Q 1375 441 1709 441 
Q 2250 441 2565 725 
Q 2881 1009 2881 1497 
Q 2881 1984 2565 2268 
Q 2250 2553 1709 2553 
Q 1456 2553 1204 2497 
Q 953 2441 691 2322 
L 691 4666 
z
" transform="scale(0.015625)"/>
      <path id="DejaVuSans-2e" d="M 684 794 
L 1344 794 
L 1344 0 
L 684 0 
L 684 794 
z
" transform="scale(0.015625)"/>
      <path id="DejaVuSans-25" d="M 4653 2053 
Q 4381 2053 4226 1822 
Q 4072 1591 4072 1178 
Q 4072 772 4226 539 
Q 4381 306 4653 306 
Q 4919 306 5073 539 
Q 5228 772 5228 1178 
Q 5228 1588 5073 1820 
Q 4919 2053 4653 2053 
z
M 4653 2450 
Q 5147 2450 5437 2106 
Q 5728 1763 5728 1178 
Q 5728 594 5436 251 
Q 5144 -91 4653 -91 
Q 4153 -91 3862 251 
Q 3572 594 3572 1178 
Q 3572 1766 3864 2108 
Q 4156 2450 4653 2450 
z
M 1428 4353 
Q 1159 4353 1004 4120 
Q 850 3888 850 3481 
Q 850 3069 1003 2837 
Q 1156 2606 1428 2606 
Q 1700 2606 1854 2837 
Q 2009 3069 2009 3481 
Q 2009 3884 1853 4118 
Q 1697 4353 1428 4353 
z
M 4250 4750 
L 4750 4750 
L 1831 -91 
L 1331 -91 
L 4250 4750 
z
M 1428 4750 
Q 1922 4750 2215 4408 
Q 2509 4066 2509 3481 
Q 2509 2891 2217 2550 
Q 1925 2209 1428 2209 
Q 931 2209 642 2551 
Q 353 2894 353 3481 
Q 353 4063 643 4406 
Q 934 4750 1428 4750 
z
" transform="scale(0.015625)"/>
      <path id="DejaVuSans-5d" d="M 1947 4863 
L 1947 -844 
L 622 -844 
L 622 -397 
L 1369 -397 
L 1369 4416 
L 622 4416 
L 622 4863 
L 1947 4863 
z
" transform="scale(0.015625)"/>
     </defs>
     <use xlink:href="#DejaVuSans-53"/>
     <use xlink:href="#DejaVuSans-20" x="63.476562"/>
     <use xlink:href="#DejaVuSans-5b" x="95.263672"/>
     <use xlink:href="#DejaVuSans-35" x="134.277344"/>
     <use xlink:href="#DejaVuSans-2e" x="197.900391"/>
     <use xlink:href="#DejaVuSans-35" x="229.6875"/>
     <use xlink:href="#DejaVuSans-25" x="293.310547"/>
     <use xlink:href="#DejaVuSans-5d" x="388.330078"/>
    </g>
   </g>
   <g id="patch_4">
    <path d="M 140.637638 96.905903 
L 122.169065 96.905903 
L 117.116832 87.290621 
" style="fill: none; stroke: #000000; stroke-linecap: round"/>
   </g>
   <g id="text_2">
    <g id="patch_5">
     <path d="M 142.639353 103.744966 
L 196.86904 103.744966 
L 196.86904 90.066841 
L 142.639353 90.066841 
z
" style="fill: #ffffff"/>
    </g>
    <!-- N [75.0%] -->
    <g transform="translate(144.639353 99.665278) scale(0.1 -0.1)">
     <defs>
      <path id="DejaVuSans-4e" d="M 628 4666 
L 1478 4666 
L 3547 763 
L 3547 4666 
L 4159 4666 
L 4159 0 
L 3309 0 
L 1241 3903 
L 1241 0 
L 628 0 
L 628 4666 
z
" transform="scale(0.015625)"/>
      <path id="DejaVuSans-37" d="M 525 4666 
L 3525 4666 
L 3525 4397 
L 1831 0 
L 1172 0 
L 2766 4134 
L 525 4134 
L 525 4666 
z
" transform="scale(0.015625)"/>
      <path id="DejaVuSans-30" d="M 2034 4250 
Q 1547 4250 1301 3770 
Q 1056 3291 1056 2328 
Q 1056 1369 1301 889 
Q 1547 409 2034 409 
Q 2525 409 2770 889 
Q 3016 1369 3016 2328 
Q 3016 3291 2770 3770 
Q 2525 4250 2034 4250 
z
M 2034 4750 
Q 2819 4750 3233 4129 
Q 3647 3509 3647 2328 
Q 3647 1150 3233 529 
Q 2819 -91 2034 -91 
Q 1250 -91 836 529 
Q 422 1150 422 2328 
Q 422 3509 836 4129 
Q 1250 4750 2034 4750 
z
" transform="scale(0.015625)"/>
     </defs>
     <use xlink:href="#DejaVuSans-4e"/>
     <use xlink:href="#DejaVuSans-20" x="74.804688"/>
     <use xlink:href="#DejaVuSans-5b" x="106.591797"/>
     <use xlink:href="#DejaVuSans-37" x="145.605469"/>
     <use xlink:href="#DejaVuSans-35" x="209.228516"/>
     <use xlink:href="#DejaVuSans-2e" x="272.851562"/>
     <use xlink:href="#DejaVuSans-30" x="304.638672"/>
     <use xlink:href="#DejaVuSans-25" x="368.261719"/>
     <use xlink:href="#DejaVuSans-5d" x="463.28125"/>
    </g>
   </g>
   <g id="patch_6">
    <path d="M 61.819568 21.668491 
L 73.402527 21.668491 
L 80.116719 30.206543 
" style="fill: none; stroke: #000000; stroke-linecap: round"/>
   </g>
   <g id="text_3">
    <g id="patch_7">
     <path d="M 5.2 28.507553 
L 59.820313 28.507553 
L 59.820313 14.829428 
L 5.2 14.829428 
z
" style="fill: #ffffff"/>
    </g>
    <!-- Q [14.9%] -->
    <g transform="translate(7.2 24.427866) scale(0.1 -0.1)">
     <defs>
      <path id="DejaVuSans-51" d="M 2522 4238 
Q 1834 4238 1429 3725 
Q 1025 3213 1025 2328 
Q 1025 1447 1429 934 
Q 1834 422 2522 422 
Q 3209 422 3611 934 
Q 4013 1447 4013 2328 
Q 4013 3213 3611 3725 
Q 3209 4238 2522 4238 
z
M 3406 84 
L 4238 -825 
L 3475 -825 
L 2784 -78 
Q 2681 -84 2626 -87 
Q 2572 -91 2522 -91 
Q 1538 -91 948 567 
Q 359 1225 359 2328 
Q 359 3434 948 4092 
Q 1538 4750 2522 4750 
Q 3503 4750 4090 4092 
Q 4678 3434 4678 2328 
Q 4678 1516 4351 937 
Q 4025 359 3406 84 
z
" transform="scale(0.015625)"/>
      <path id="DejaVuSans-31" d="M 794 531 
L 1825 531 
L 1825 4091 
L 703 3866 
L 703 4441 
L 1819 4666 
L 2450 4666 
L 2450 531 
L 3481 531 
L 3481 0 
L 794 0 
L 794 531 
z
" transform="scale(0.015625)"/>
      <path id="DejaVuSans-34" d="M 2419 4116 
L 825 1625 
L 2419 1625 
L 2419 4116 
z
M 2253 4666 
L 3047 4666 
L 3047 1625 
L 3713 1625 
L 3713 1100 
L 3047 1100 
L 3047 0 
L 2419 0 
L 2419 1100 
L 313 1100 
L 313 1709 
L 2253 4666 
z
" transform="scale(0.015625)"/>
      <path id="DejaVuSans-39" d="M 703 97 
L 703 672 
Q 941 559 1184 500 
Q 1428 441 1663 441 
Q 2288 441 2617 861 
Q 2947 1281 2994 2138 
Q 2813 1869 2534 1725 
Q 2256 1581 1919 1581 
Q 1219 1581 811 2004 
Q 403 2428 403 3163 
Q 403 3881 828 4315 
Q 1253 4750 1959 4750 
Q 2769 4750 3195 4129 
Q 3622 3509 3622 2328 
Q 3622 1225 3098 567 
Q 2575 -91 1691 -91 
Q 1453 -91 1209 -44 
Q 966 3 703 97 
z
M 1959 2075 
Q 2384 2075 2632 2365 
Q 2881 2656 2881 3163 
Q 2881 3666 2632 3958 
Q 2384 4250 1959 4250 
Q 1534 4250 1286 3958 
Q 1038 3666 1038 3163 
Q 1038 2656 1286 2365 
Q 1534 2075 1959 2075 
z
" transform="scale(0.015625)"/>
     </defs>
     <use xlink:href="#DejaVuSans-51"/>
     <use xlink:href="#DejaVuSans-20" x="78.710938"/>
     <use xlink:href="#DejaVuSans-5b" x="110.498047"/>
     <use xlink:href="#DejaVuSans-31" x="149.511719"/>
     <use xlink:href="#DejaVuSans-34" x="213.134766"/>
     <use xlink:href="#DejaVuSans-2e" x="276.757812"/>
     <use xlink:href="#DejaVuSans-39" x="308.544922"/>
     <use xlink:href="#DejaVuSans-25" x="372.167969"/>
     <use xlink:href="#DejaVuSans-5d" x="467.1875"/>
    </g>
   </g>
   <g id="patch_8">
    <path d="M 107.323271 25.482315 
C 105.400291 25.111183 103.447418 24.916511 101.489015 24.900725 
C 99.530611 24.884939 97.574854 25.048106 95.646141 25.38819 
L 97.321248 34.888197 
C 98.671348 34.650138 100.040378 34.535921 101.41126 34.546971 
C 102.782142 34.558021 104.149153 34.694292 105.49524 34.954084 
z
" style="fill: #1f77b4"/>
   </g>
   <g id="patch_9">
    <path d="M 71.772568 44.161996 
C 70.444586 47.196128 69.59332 50.4173 69.248935 53.711369 
C 68.904549 57.005437 69.071161 60.333026 69.742866 63.576218 
C 70.414572 66.819411 71.583341 69.939441 73.207758 72.825746 
C 74.832174 75.712051 76.892822 78.330131 79.316678 80.58721 
C 81.740534 82.844289 84.498627 84.713389 87.493219 86.128276 
C 90.487811 87.543162 93.683108 88.486923 96.965881 88.926115 
C 100.248654 89.365307 103.579663 89.29468 106.840869 88.716737 
C 110.102076 88.138793 113.254498 87.060443 116.186427 85.519897 
C 119.118355 83.979351 121.794744 81.995024 124.120752 79.637234 
C 126.446759 77.279444 128.394583 74.576373 129.895199 71.623808 
C 131.395815 68.671243 132.431286 65.504477 132.964919 62.235728 
C 133.498552 58.966979 133.523968 55.635318 133.040268 52.358808 
C 132.556567 49.082297 131.569531 45.900102 130.114136 42.924986 
C 128.658741 39.949871 126.752384 37.217397 124.462619 34.824394 
C 122.172854 32.431391 119.527052 30.406463 116.618968 28.821365 
C 113.710884 27.236266 110.575281 26.109946 107.323271 25.482315 
L 105.49524 34.954084 
C 107.771646 35.393426 109.966569 36.181851 112.002227 37.291419 
C 114.037886 38.400988 115.889948 39.818438 117.492783 41.49354 
C 119.095619 43.168642 120.430069 45.081374 121.448845 47.163954 
C 122.467621 49.246535 123.158547 51.474072 123.497137 53.767629 
C 123.835728 56.061187 123.817936 58.393349 123.444393 60.681474 
C 123.07085 62.969598 122.34602 65.186334 121.295589 67.25313 
C 120.245158 69.319925 118.881681 71.212075 117.253476 72.862528 
C 115.625271 74.512981 113.751799 75.90201 111.699449 76.980392 
C 109.647099 78.058774 107.440403 78.813619 105.157558 79.21818 
C 102.874714 79.62274 100.543007 79.672179 98.245067 79.364744 
C 95.947126 79.05731 93.710418 78.396678 91.614203 77.406257 
C 89.517988 76.415836 87.587324 75.107467 85.890624 73.527511 
C 84.193925 71.947555 82.751472 70.1149 81.61438 68.094486 
C 80.477288 66.074073 79.65915 63.890052 79.188956 61.619817 
C 78.718763 59.349582 78.602134 57.02027 78.843204 54.714422 
C 79.084274 52.408574 79.68016 50.153753 80.609747 48.029862 
z
" style="fill: #ff7f0e"/>
   </g>
   <g id="patch_10">
    <path d="M 95.646142 25.38819 
C 90.428359 26.308225 85.517961 28.503773 81.353186 31.778888 
C 77.18841 35.054002 73.896954 39.308265 71.772568 44.161996 
L 80.609747 48.029862 
C 82.096817 44.632249 84.400837 41.654265 87.31618 39.361685 
C 90.231522 37.069105 93.668801 35.532222 97.321249 34.888197 
z
" style="fill: #2ca02c"/>
   </g>
   <g id="matplotlib.axis_1"/>
   <g id="matplotlib.axis_2"/>
  </g>
 </g>
</svg>
