<?xml version="1.0" encoding="utf-8" standalone="no"?>
<!DOCTYPE svg PUBLIC "-//W3C//DTD SVG 1.1//EN"
  "http://www.w3.org/Graphics/SVG/1.1/DTD/svg11.dtd">
<svg xmlns:xlink="http://www.w3.org/1999/xlink" width="199.128415pt" height="96.574672pt" viewBox="0 0 199.128415 96.574672" xmlns="http://www.w3.org/2000/svg" version="1.1">
 <metadata>
  <rdf:RDF xmlns:dc="http://purl.org/dc/elements/1.1/" xmlns:cc="http://creativecommons.org/ns#" xmlns:rdf="http://www.w3.org/1999/02/22-rdf-syntax-ns#">
   <cc:Work>
    <dc:type rdf:resource="http://purl.org/dc/dcmitype/StillImage"/>
    <dc:date>2023-10-13T11:21:53.461931</dc:date>
    <dc:format>image/svg+xml</dc:format>
    <dc:creator>
     <cc:Agent>
      <dc:title>Matplotlib v3.7.3, https://matplotlib.org/</dc:title>
     </cc:Agent>
    </dc:creator>
   </cc:Work>
  </rdf:RDF>
 </metadata>
 <defs>
  <style type="text/css">*{stroke-linejoin: round; stroke-linecap: butt}</style>
 </defs>
 <g id="figure_1">
  <g id="patch_1">
   <path d="M 0 96.574672 
L 199.128415 96.574672 
L 199.128415 0 
L 0 0 
z
" style="fill: #ffffff"/>
  </g>
  <g id="axes_1">
   <g id="patch_2">
    <path d="M 139.606864 84.535609 
L 126.893493 84.535609 
L 120.452526 75.789601 
" style="fill: none; stroke: #000000; stroke-linecap: round"/>
   </g>
   <g id="text_1">
    <g id="patch_3">
     <path d="M 141.608103 91.374672 
L 193.928415 91.374672 
L 193.928415 77.696547 
L 141.608103 77.696547 
z
" style="fill: #ffffff"/>
    </g>
    <!-- L [85.1%] -->
    <g transform="translate(143.608103 87.294984) scale(0.1 -0.1)">
     <defs>
      <path id="DejaVuSans-4c" d="M 628 4666 
L 1259 4666 
L 1259 531 
L 3531 531 
L 3531 0 
L 628 0 
L 628 4666 
z
" transform="scale(0.015625)"/>
      <path id="DejaVuSans-20" transform="scale(0.015625)"/>
      <path id="DejaVuSans-5b" d="M 550 4863 
L 1875 4863 
L 1875 4416 
L 1125 4416 
L 1125 -397 
L 1875 -397 
L 1875 -844 
L 550 -844 
L 550 4863 
z
" transform="scale(0.015625)"/>
      <path id="DejaVuSans-38" d="M 2034 2216 
Q 1584 2216 1326 1975 
Q 1069 1734 1069 1313 
Q 1069 891 1326 650 
Q 1584 409 2034 409 
Q 2484 409 2743 651 
Q 3003 894 3003 1313 
Q 3003 1734 2745 1975 
Q 2488 2216 2034 2216 
z
M 1403 2484 
Q 997 2584 770 2862 
Q 544 3141 544 3541 
Q 544 4100 942 4425 
Q 1341 4750 2034 4750 
Q 2731 4750 3128 4425 
Q 3525 4100 3525 3541 
Q 3525 3141 3298 2862 
Q 3072 2584 2669 2484 
Q 3125 2378 3379 2068 
Q 3634 1759 3634 1313 
Q 3634 634 3220 271 
Q 2806 -91 2034 -91 
Q 1263 -91 848 271 
Q 434 634 434 1313 
Q 434 1759 690 2068 
Q 947 2378 1403 2484 
z
M 1172 3481 
Q 1172 3119 1398 2916 
Q 1625 2713 2034 2713 
Q 2441 2713 2670 2916 
Q 2900 3119 2900 3481 
Q 2900 3844 2670 4047 
Q 2441 4250 2034 4250 
Q 1625 4250 1398 4047 
Q 1172 3844 1172 3481 
z
" transform="scale(0.015625)"/>
      <path id="DejaVuSans-35" d="M 691 4666 
L 3169 4666 
L 3169 4134 
L 1269 4134 
L 1269 2991 
Q 1406 3038 1543 3061 
Q 1681 3084 1819 3084 
Q 2600 3084 3056 2656 
Q 3513 2228 3513 1497 
Q 3513 744 3044 326 
Q 2575 -91 1722 -91 
Q 1428 -91 1123 -41 
Q 819 9 494 109 
L 494 744 
Q 775 591 1075 516 
Q 1375 441 1709 441 
Q 2250 441 2565 725 
Q 2881 1009 2881 1497 
Q 2881 1984 2565 2268 
Q 2250 2553 1709 2553 
Q 1456 2553 1204 2497 
Q 953 2441 691 2322 
L 691 4666 
z
" transform="scale(0.015625)"/>
      <path id="DejaVuSans-2e" d="M 684 794 
L 1344 794 
L 1344 0 
L 684 0 
L 684 794 
z
" transform="scale(0.015625)"/>
      <path id="DejaVuSans-31" d="M 794 531 
L 1825 531 
L 1825 4091 
L 703 3866 
L 703 4441 
L 1819 4666 
L 2450 4666 
L 2450 531 
L 3481 531 
L 3481 0 
L 794 0 
L 794 531 
z
" transform="scale(0.015625)"/>
      <path id="DejaVuSans-25" d="M 4653 2053 
Q 4381 2053 4226 1822 
Q 4072 1591 4072 1178 
Q 4072 772 4226 539 
Q 4381 306 4653 306 
Q 4919 306 5073 539 
Q 5228 772 5228 1178 
Q 5228 1588 5073 1820 
Q 4919 2053 4653 2053 
z
M 4653 2450 
Q 5147 2450 5437 2106 
Q 5728 1763 5728 1178 
Q 5728 594 5436 251 
Q 5144 -91 4653 -91 
Q 4153 -91 3862 251 
Q 3572 594 3572 1178 
Q 3572 1766 3864 2108 
Q 4156 2450 4653 2450 
z
M 1428 4353 
Q 1159 4353 1004 4120 
Q 850 3888 850 3481 
Q 850 3069 1003 2837 
Q 1156 2606 1428 2606 
Q 1700 2606 1854 2837 
Q 2009 3069 2009 3481 
Q 2009 3884 1853 4118 
Q 1697 4353 1428 4353 
z
M 4250 4750 
L 4750 4750 
L 1831 -91 
L 1331 -91 
L 4250 4750 
z
M 1428 4750 
Q 1922 4750 2215 4408 
Q 2509 4066 2509 3481 
Q 2509 2891 2217 2550 
Q 1925 2209 1428 2209 
Q 931 2209 642 2551 
Q 353 2894 353 3481 
Q 353 4063 643 4406 
Q 934 4750 1428 4750 
z
" transform="scale(0.015625)"/>
      <path id="DejaVuSans-5d" d="M 1947 4863 
L 1947 -844 
L 622 -844 
L 622 -397 
L 1369 -397 
L 1369 4416 
L 622 4416 
L 622 4863 
L 1947 4863 
z
" transform="scale(0.015625)"/>
     </defs>
     <use xlink:href="#DejaVuSans-4c"/>
     <use xlink:href="#DejaVuSans-20" x="55.712891"/>
     <use xlink:href="#DejaVuSans-5b" x="87.5"/>
     <use xlink:href="#DejaVuSans-38" x="126.513672"/>
     <use xlink:href="#DejaVuSans-35" x="190.136719"/>
     <use xlink:href="#DejaVuSans-2e" x="253.759766"/>
     <use xlink:href="#DejaVuSans-31" x="285.546875"/>
     <use xlink:href="#DejaVuSans-25" x="349.169922"/>
     <use xlink:href="#DejaVuSans-5d" x="444.189453"/>
    </g>
   </g>
   <g id="patch_4">
    <path d="M 60.79219 12.039062 
L 73.503674 12.039062 
L 79.94464 20.785071 
" style="fill: none; stroke: #000000; stroke-linecap: round"/>
   </g>
   <g id="text_2">
    <g id="patch_5">
     <path d="M 5.2 18.878125 
L 58.789063 18.878125 
L 58.789063 5.2 
L 5.2 5.2 
z
" style="fill: #ffffff"/>
    </g>
    <!-- V [14.6%] -->
    <g transform="translate(7.2 14.798438) scale(0.1 -0.1)">
     <defs>
      <path id="DejaVuSans-56" d="M 1831 0 
L 50 4666 
L 709 4666 
L 2188 738 
L 3669 4666 
L 4325 4666 
L 2547 0 
L 1831 0 
z
" transform="scale(0.015625)"/>
      <path id="DejaVuSans-34" d="M 2419 4116 
L 825 1625 
L 2419 1625 
L 2419 4116 
z
M 2253 4666 
L 3047 4666 
L 3047 1625 
L 3713 1625 
L 3713 1100 
L 3047 1100 
L 3047 0 
L 2419 0 
L 2419 1100 
L 313 1100 
L 313 1709 
L 2253 4666 
z
" transform="scale(0.015625)"/>
      <path id="DejaVuSans-36" d="M 2113 2584 
Q 1688 2584 1439 2293 
Q 1191 2003 1191 1497 
Q 1191 994 1439 701 
Q 1688 409 2113 409 
Q 2538 409 2786 701 
Q 3034 994 3034 1497 
Q 3034 2003 2786 2293 
Q 2538 2584 2113 2584 
z
M 3366 4563 
L 3366 3988 
Q 3128 4100 2886 4159 
Q 2644 4219 2406 4219 
Q 1781 4219 1451 3797 
Q 1122 3375 1075 2522 
Q 1259 2794 1537 2939 
Q 1816 3084 2150 3084 
Q 2853 3084 3261 2657 
Q 3669 2231 3669 1497 
Q 3669 778 3244 343 
Q 2819 -91 2113 -91 
Q 1303 -91 875 529 
Q 447 1150 447 2328 
Q 447 3434 972 4092 
Q 1497 4750 2381 4750 
Q 2619 4750 2861 4703 
Q 3103 4656 3366 4563 
z
" transform="scale(0.015625)"/>
     </defs>
     <use xlink:href="#DejaVuSans-56"/>
     <use xlink:href="#DejaVuSans-20" x="68.408203"/>
     <use xlink:href="#DejaVuSans-5b" x="100.195312"/>
     <use xlink:href="#DejaVuSans-31" x="139.208984"/>
     <use xlink:href="#DejaVuSans-34" x="202.832031"/>
     <use xlink:href="#DejaVuSans-2e" x="266.455078"/>
     <use xlink:href="#DejaVuSans-36" x="298.242188"/>
     <use xlink:href="#DejaVuSans-25" x="361.865234"/>
     <use xlink:href="#DejaVuSans-5d" x="456.884766"/>
    </g>
   </g>
   <g id="patch_6">
    <path d="M 71.614806 33.558976 
C 69.965466 36.7599 68.865459 40.215255 68.360774 43.780579 
C 67.85609 47.345903 67.95386 50.970808 68.649998 54.503743 
C 69.346136 58.036679 70.630803 61.427714 72.450289 64.535078 
C 74.269776 67.642442 76.598368 70.422218 79.338711 72.758189 
C 82.079054 75.09416 85.192419 76.953313 88.548644 78.257919 
C 91.904868 79.562525 95.456519 80.294148 99.055108 80.422198 
C 102.653697 80.550249 106.248367 80.072919 109.68883 79.010163 
C 113.129294 77.947408 116.366929 76.314247 119.266375 74.17896 
C 122.165822 72.043673 124.686103 69.436437 126.721851 66.466257 
C 128.757598 63.496076 130.280041 60.204927 131.22553 56.730407 
C 132.171018 53.255886 132.526189 49.647099 132.276195 46.054921 
C 132.0262 42.462743 131.174572 38.937942 129.756917 35.627882 
C 128.339261 32.317823 126.375612 29.269286 123.948067 26.609725 
C 121.520523 23.950163 118.66339 21.717165 115.496119 20.004086 
C 112.328849 18.291007 108.896203 17.122059 105.341695 16.546113 
C 101.787187 15.970167 98.161052 15.995362 94.614891 16.620646 
L 96.289998 26.120653 
C 98.772311 25.682954 101.310606 25.665318 103.798762 26.06848 
C 106.286917 26.471642 108.689769 27.289906 110.906858 28.489061 
C 113.123947 29.688216 115.123941 31.251315 116.823222 33.113008 
C 118.522503 34.974701 119.897057 37.108677 120.889416 39.425719 
C 121.881775 41.74276 122.477915 44.210121 122.652911 46.724646 
C 122.827907 49.23917 122.579287 51.765321 121.917445 54.197486 
C 121.255604 56.62965 120.189893 58.933454 118.76487 61.012581 
C 117.339847 63.091707 115.57565 64.916772 113.546038 66.411473 
C 111.516425 67.906174 109.250081 69.049386 106.841756 69.793315 
C 104.433431 70.537244 101.917163 70.871375 99.39815 70.78174 
C 96.879138 70.692104 94.392983 70.179969 92.043625 69.266744 
C 89.694268 68.35352 87.514912 67.052113 85.596672 65.416933 
C 83.678432 63.781753 82.048418 61.83591 80.774777 59.660756 
C 79.501137 57.485601 78.60187 55.111876 78.114573 52.638821 
C 77.627277 50.165766 77.558838 47.628333 77.912117 45.132606 
C 78.265396 42.63688 79.035401 40.218131 80.189939 37.977484 
z
" style="fill: #1f77b4"/>
   </g>
   <g id="patch_7">
    <path d="M 94.614894 16.620646 
C 89.735493 17.481015 85.120333 19.457628 81.130791 22.395712 
C 77.141248 25.333796 73.884243 29.15461 71.614806 33.558976 
L 80.189939 37.977484 
C 81.778545 34.894428 84.058449 32.219858 86.851128 30.163199 
C 89.643808 28.106541 92.87442 26.722911 96.29 26.120653 
z
" style="fill: #ff7f0e"/>
   </g>
   <g id="matplotlib.axis_1"/>
   <g id="matplotlib.axis_2"/>
  </g>
 </g>
</svg>
