<?xml version="1.0" encoding="utf-8" standalone="no"?>
<!DOCTYPE svg PUBLIC "-//W3C//DTD SVG 1.1//EN"
  "http://www.w3.org/Graphics/SVG/1.1/DTD/svg11.dtd">
<svg xmlns:xlink="http://www.w3.org/1999/xlink" width="199.128415pt" height="102.789216pt" viewBox="0 0 199.128415 102.789216" xmlns="http://www.w3.org/2000/svg" version="1.1">
 <metadata>
  <rdf:RDF xmlns:dc="http://purl.org/dc/elements/1.1/" xmlns:cc="http://creativecommons.org/ns#" xmlns:rdf="http://www.w3.org/1999/02/22-rdf-syntax-ns#">
   <cc:Work>
    <dc:type rdf:resource="http://purl.org/dc/dcmitype/StillImage"/>
    <dc:date>2023-10-13T11:22:11.073629</dc:date>
    <dc:format>image/svg+xml</dc:format>
    <dc:creator>
     <cc:Agent>
      <dc:title>Matplotlib v3.7.3, https://matplotlib.org/</dc:title>
     </cc:Agent>
    </dc:creator>
   </cc:Work>
  </rdf:RDF>
 </metadata>
 <defs>
  <style type="text/css">*{stroke-linejoin: round; stroke-linecap: butt}</style>
 </defs>
 <g id="figure_1">
  <g id="patch_1">
   <path d="M 0 102.789216 
L 199.128415 102.789216 
L 199.128415 0 
L 0 0 
z
" style="fill: #ffffff"/>
  </g>
  <g id="axes_1">
   <g id="patch_2">
    <path d="M 139.610359 12.039062 
L 122.054851 12.039062 
L 116.781356 21.534796 
" style="fill: none; stroke: #000000; stroke-linecap: round"/>
   </g>
   <g id="text_1">
    <g id="patch_3">
     <path d="M 141.608103 18.878125 
L 193.928415 18.878125 
L 193.928415 5.2 
L 141.608103 5.2 
z
" style="fill: #ffffff"/>
    </g>
    <!-- L [21.5%] -->
    <g transform="translate(143.608103 14.798437) scale(0.1 -0.1)">
     <defs>
      <path id="DejaVuSans-4c" d="M 628 4666 
L 1259 4666 
L 1259 531 
L 3531 531 
L 3531 0 
L 628 0 
L 628 4666 
z
" transform="scale(0.015625)"/>
      <path id="DejaVuSans-20" transform="scale(0.015625)"/>
      <path id="DejaVuSans-5b" d="M 550 4863 
L 1875 4863 
L 1875 4416 
L 1125 4416 
L 1125 -397 
L 1875 -397 
L 1875 -844 
L 550 -844 
L 550 4863 
z
" transform="scale(0.015625)"/>
      <path id="DejaVuSans-32" d="M 1228 531 
L 3431 531 
L 3431 0 
L 469 0 
L 469 531 
Q 828 903 1448 1529 
Q 2069 2156 2228 2338 
Q 2531 2678 2651 2914 
Q 2772 3150 2772 3378 
Q 2772 3750 2511 3984 
Q 2250 4219 1831 4219 
Q 1534 4219 1204 4116 
Q 875 4013 500 3803 
L 500 4441 
Q 881 4594 1212 4672 
Q 1544 4750 1819 4750 
Q 2544 4750 2975 4387 
Q 3406 4025 3406 3419 
Q 3406 3131 3298 2873 
Q 3191 2616 2906 2266 
Q 2828 2175 2409 1742 
Q 1991 1309 1228 531 
z
" transform="scale(0.015625)"/>
      <path id="DejaVuSans-31" d="M 794 531 
L 1825 531 
L 1825 4091 
L 703 3866 
L 703 4441 
L 1819 4666 
L 2450 4666 
L 2450 531 
L 3481 531 
L 3481 0 
L 794 0 
L 794 531 
z
" transform="scale(0.015625)"/>
      <path id="DejaVuSans-2e" d="M 684 794 
L 1344 794 
L 1344 0 
L 684 0 
L 684 794 
z
" transform="scale(0.015625)"/>
      <path id="DejaVuSans-35" d="M 691 4666 
L 3169 4666 
L 3169 4134 
L 1269 4134 
L 1269 2991 
Q 1406 3038 1543 3061 
Q 1681 3084 1819 3084 
Q 2600 3084 3056 2656 
Q 3513 2228 3513 1497 
Q 3513 744 3044 326 
Q 2575 -91 1722 -91 
Q 1428 -91 1123 -41 
Q 819 9 494 109 
L 494 744 
Q 775 591 1075 516 
Q 1375 441 1709 441 
Q 2250 441 2565 725 
Q 2881 1009 2881 1497 
Q 2881 1984 2565 2268 
Q 2250 2553 1709 2553 
Q 1456 2553 1204 2497 
Q 953 2441 691 2322 
L 691 4666 
z
" transform="scale(0.015625)"/>
      <path id="DejaVuSans-25" d="M 4653 2053 
Q 4381 2053 4226 1822 
Q 4072 1591 4072 1178 
Q 4072 772 4226 539 
Q 4381 306 4653 306 
Q 4919 306 5073 539 
Q 5228 772 5228 1178 
Q 5228 1588 5073 1820 
Q 4919 2053 4653 2053 
z
M 4653 2450 
Q 5147 2450 5437 2106 
Q 5728 1763 5728 1178 
Q 5728 594 5436 251 
Q 5144 -91 4653 -91 
Q 4153 -91 3862 251 
Q 3572 594 3572 1178 
Q 3572 1766 3864 2108 
Q 4156 2450 4653 2450 
z
M 1428 4353 
Q 1159 4353 1004 4120 
Q 850 3888 850 3481 
Q 850 3069 1003 2837 
Q 1156 2606 1428 2606 
Q 1700 2606 1854 2837 
Q 2009 3069 2009 3481 
Q 2009 3884 1853 4118 
Q 1697 4353 1428 4353 
z
M 4250 4750 
L 4750 4750 
L 1831 -91 
L 1331 -91 
L 4250 4750 
z
M 1428 4750 
Q 1922 4750 2215 4408 
Q 2509 4066 2509 3481 
Q 2509 2891 2217 2550 
Q 1925 2209 1428 2209 
Q 931 2209 642 2551 
Q 353 2894 353 3481 
Q 353 4063 643 4406 
Q 934 4750 1428 4750 
z
" transform="scale(0.015625)"/>
      <path id="DejaVuSans-5d" d="M 1947 4863 
L 1947 -844 
L 622 -844 
L 622 -397 
L 1369 -397 
L 1369 4416 
L 622 4416 
L 622 4863 
L 1947 4863 
z
" transform="scale(0.015625)"/>
     </defs>
     <use xlink:href="#DejaVuSans-4c"/>
     <use xlink:href="#DejaVuSans-20" x="55.712891"/>
     <use xlink:href="#DejaVuSans-5b" x="87.5"/>
     <use xlink:href="#DejaVuSans-32" x="126.513672"/>
     <use xlink:href="#DejaVuSans-31" x="190.136719"/>
     <use xlink:href="#DejaVuSans-2e" x="253.759766"/>
     <use xlink:href="#DejaVuSans-35" x="285.546875"/>
     <use xlink:href="#DejaVuSans-25" x="349.169922"/>
     <use xlink:href="#DejaVuSans-5d" x="444.189453"/>
    </g>
   </g>
   <g id="patch_4">
    <path d="M 60.786972 90.750154 
L 78.342312 90.750154 
L 83.615808 81.254421 
" style="fill: none; stroke: #000000; stroke-linecap: round"/>
   </g>
   <g id="text_2">
    <g id="patch_5">
     <path d="M 5.2 97.589216 
L 58.789063 97.589216 
L 58.789063 83.911091 
L 5.2 83.911091 
z
" style="fill: #ffffff"/>
    </g>
    <!-- V [77.5%] -->
    <g transform="translate(7.2 93.509529) scale(0.1 -0.1)">
     <defs>
      <path id="DejaVuSans-56" d="M 1831 0 
L 50 4666 
L 709 4666 
L 2188 738 
L 3669 4666 
L 4325 4666 
L 2547 0 
L 1831 0 
z
" transform="scale(0.015625)"/>
      <path id="DejaVuSans-37" d="M 525 4666 
L 3525 4666 
L 3525 4397 
L 1831 0 
L 1172 0 
L 2766 4134 
L 525 4134 
L 525 4666 
z
" transform="scale(0.015625)"/>
     </defs>
     <use xlink:href="#DejaVuSans-56"/>
     <use xlink:href="#DejaVuSans-20" x="68.408203"/>
     <use xlink:href="#DejaVuSans-5b" x="100.195312"/>
     <use xlink:href="#DejaVuSans-37" x="139.208984"/>
     <use xlink:href="#DejaVuSans-37" x="202.832031"/>
     <use xlink:href="#DejaVuSans-2e" x="266.455078"/>
     <use xlink:href="#DejaVuSans-35" x="298.242188"/>
     <use xlink:href="#DejaVuSans-25" x="361.865234"/>
     <use xlink:href="#DejaVuSans-5d" x="456.884766"/>
    </g>
   </g>
   <g id="patch_6">
    <path d="M 130.031579 39.396726 
C 127.280065 32.555025 122.257017 26.863769 115.810203 23.283504 
C 109.363389 19.703239 101.877119 18.447392 94.614891 19.727918 
L 96.289998 29.227926 
C 101.373558 28.331557 106.613947 29.21065 111.126717 31.716836 
C 115.639486 34.223021 119.15562 38.2069 121.08168 42.996091 
z
" style="fill: #1f77b4"/>
   </g>
   <g id="patch_7">
    <path d="M 94.614894 19.727918 
C 91.362524 20.301398 88.217832 21.372529 85.291622 22.903568 
C 82.365412 24.434607 79.692462 26.407358 77.366955 28.752311 
C 75.041448 31.097263 73.091022 33.786547 71.584402 36.725404 
C 70.077782 39.664262 69.032874 42.817764 68.486495 46.074796 
C 67.940117 49.331828 67.898762 52.65368 68.363887 55.923304 
C 68.829013 59.192928 69.795091 62.371466 71.228082 65.34692 
C 72.661072 68.322373 74.543944 71.05938 76.810353 73.461498 
C 79.076762 75.863617 81.699773 77.9023 84.586961 79.505712 
C 87.474149 81.109125 90.591201 82.25821 93.828285 82.91248 
C 97.06537 83.56675 100.384015 83.718428 103.667285 83.36217 
C 106.950556 83.005913 110.159431 82.145953 113.180844 80.812593 
C 116.202257 79.479232 119.000298 77.688318 121.476378 75.502954 
C 123.952457 73.31759 126.077147 70.763749 127.775581 67.931417 
C 129.474016 65.099085 130.72601 62.021923 131.487449 58.808359 
C 132.248888 55.594795 132.510723 52.28302 132.263726 48.989727 
C 132.016729 45.696434 131.263838 42.460763 130.031579 39.396726 
L 121.08168 42.996091 
C 121.944261 45.140917 122.471285 47.405886 122.644183 49.711191 
C 122.817081 52.016496 122.633797 54.334739 122.100789 56.584234 
C 121.567782 58.833729 120.691386 60.987742 119.502482 62.970374 
C 118.313577 64.953007 116.826295 66.740696 115.093039 68.27045 
C 113.359784 69.800205 111.401155 71.053845 109.286166 71.987197 
C 107.171177 72.92055 104.924964 73.522521 102.626674 73.771902 
C 100.328385 74.021282 98.005334 73.915107 95.739374 73.457119 
C 93.473415 72.99913 91.291479 72.19477 89.270447 71.072381 
C 87.249416 69.949993 85.413308 68.522915 83.826822 66.841432 
C 82.240336 65.159948 80.922325 63.244044 79.919232 61.161226 
C 78.916139 59.078409 78.239884 56.853432 77.914296 54.564695 
C 77.588708 52.275958 77.617657 49.950662 78.000121 47.67074 
C 78.382586 45.390817 79.114022 43.183366 80.168656 41.126166 
C 81.22329 39.068966 82.588588 37.186467 84.216443 35.545 
C 85.844298 33.903533 87.715363 32.522607 89.76371 31.45088 
C 91.812057 30.379153 94.013342 29.629361 96.29 29.227925 
z
" style="fill: #ff7f0e"/>
   </g>
   <g id="matplotlib.axis_1"/>
   <g id="matplotlib.axis_2"/>
  </g>
 </g>
</svg>
