<?xml version="1.0" encoding="utf-8" standalone="no"?>
<!DOCTYPE svg PUBLIC "-//W3C//DTD SVG 1.1//EN"
  "http://www.w3.org/Graphics/SVG/1.1/DTD/svg11.dtd">
<svg xmlns:xlink="http://www.w3.org/1999/xlink" width="154.062895pt" height="103.766429pt" viewBox="0 0 154.062895 103.766429" xmlns="http://www.w3.org/2000/svg" version="1.1">
 <metadata>
  <rdf:RDF xmlns:dc="http://purl.org/dc/elements/1.1/" xmlns:cc="http://creativecommons.org/ns#" xmlns:rdf="http://www.w3.org/1999/02/22-rdf-syntax-ns#">
   <cc:Work>
    <dc:type rdf:resource="http://purl.org/dc/dcmitype/StillImage"/>
    <dc:date>2023-10-13T11:23:30.399795</dc:date>
    <dc:format>image/svg+xml</dc:format>
    <dc:creator>
     <cc:Agent>
      <dc:title>Matplotlib v3.7.3, https://matplotlib.org/</dc:title>
     </cc:Agent>
    </dc:creator>
   </cc:Work>
  </rdf:RDF>
 </metadata>
 <defs>
  <style type="text/css">*{stroke-linejoin: round; stroke-linecap: butt}</style>
 </defs>
 <g id="figure_1">
  <g id="patch_1">
   <path d="M 0 103.766429 
L 154.062895 103.766429 
L 154.062895 0 
L 0 0 
z
" style="fill: #ffffff"/>
  </g>
  <g id="axes_1">
   <g id="patch_2">
    <path d="M 86.8075 91.727366 
L 55.211169 91.727366 
L 53.325037 81.030581 
" style="fill: none; stroke: #000000; stroke-linecap: round"/>
   </g>
   <g id="text_1">
    <g id="patch_3">
     <path d="M 88.80352 98.566429 
L 148.862895 98.566429 
L 148.862895 84.888304 
L 88.80352 84.888304 
z
" style="fill: #ffffff"/>
    </g>
    <!-- R [100.0%] -->
    <g transform="translate(90.80352 94.486741) scale(0.1 -0.1)">
     <defs>
      <path id="DejaVuSans-52" d="M 2841 2188 
Q 3044 2119 3236 1894 
Q 3428 1669 3622 1275 
L 4263 0 
L 3584 0 
L 2988 1197 
Q 2756 1666 2539 1819 
Q 2322 1972 1947 1972 
L 1259 1972 
L 1259 0 
L 628 0 
L 628 4666 
L 2053 4666 
Q 2853 4666 3247 4331 
Q 3641 3997 3641 3322 
Q 3641 2881 3436 2590 
Q 3231 2300 2841 2188 
z
M 1259 4147 
L 1259 2491 
L 2053 2491 
Q 2509 2491 2742 2702 
Q 2975 2913 2975 3322 
Q 2975 3731 2742 3939 
Q 2509 4147 2053 4147 
L 1259 4147 
z
" transform="scale(0.015625)"/>
      <path id="DejaVuSans-20" transform="scale(0.015625)"/>
      <path id="DejaVuSans-5b" d="M 550 4863 
L 1875 4863 
L 1875 4416 
L 1125 4416 
L 1125 -397 
L 1875 -397 
L 1875 -844 
L 550 -844 
L 550 4863 
z
" transform="scale(0.015625)"/>
      <path id="DejaVuSans-31" d="M 794 531 
L 1825 531 
L 1825 4091 
L 703 3866 
L 703 4441 
L 1819 4666 
L 2450 4666 
L 2450 531 
L 3481 531 
L 3481 0 
L 794 0 
L 794 531 
z
" transform="scale(0.015625)"/>
      <path id="DejaVuSans-30" d="M 2034 4250 
Q 1547 4250 1301 3770 
Q 1056 3291 1056 2328 
Q 1056 1369 1301 889 
Q 1547 409 2034 409 
Q 2525 409 2770 889 
Q 3016 1369 3016 2328 
Q 3016 3291 2770 3770 
Q 2525 4250 2034 4250 
z
M 2034 4750 
Q 2819 4750 3233 4129 
Q 3647 3509 3647 2328 
Q 3647 1150 3233 529 
Q 2819 -91 2034 -91 
Q 1250 -91 836 529 
Q 422 1150 422 2328 
Q 422 3509 836 4129 
Q 1250 4750 2034 4750 
z
" transform="scale(0.015625)"/>
      <path id="DejaVuSans-2e" d="M 684 794 
L 1344 794 
L 1344 0 
L 684 0 
L 684 794 
z
" transform="scale(0.015625)"/>
      <path id="DejaVuSans-25" d="M 4653 2053 
Q 4381 2053 4226 1822 
Q 4072 1591 4072 1178 
Q 4072 772 4226 539 
Q 4381 306 4653 306 
Q 4919 306 5073 539 
Q 5228 772 5228 1178 
Q 5228 1588 5073 1820 
Q 4919 2053 4653 2053 
z
M 4653 2450 
Q 5147 2450 5437 2106 
Q 5728 1763 5728 1178 
Q 5728 594 5436 251 
Q 5144 -91 4653 -91 
Q 4153 -91 3862 251 
Q 3572 594 3572 1178 
Q 3572 1766 3864 2108 
Q 4156 2450 4653 2450 
z
M 1428 4353 
Q 1159 4353 1004 4120 
Q 850 3888 850 3481 
Q 850 3069 1003 2837 
Q 1156 2606 1428 2606 
Q 1700 2606 1854 2837 
Q 2009 3069 2009 3481 
Q 2009 3884 1853 4118 
Q 1697 4353 1428 4353 
z
M 4250 4750 
L 4750 4750 
L 1831 -91 
L 1331 -91 
L 4250 4750 
z
M 1428 4750 
Q 1922 4750 2215 4408 
Q 2509 4066 2509 3481 
Q 2509 2891 2217 2550 
Q 1925 2209 1428 2209 
Q 931 2209 642 2551 
Q 353 2894 353 3481 
Q 353 4063 643 4406 
Q 934 4750 1428 4750 
z
" transform="scale(0.015625)"/>
      <path id="DejaVuSans-5d" d="M 1947 4863 
L 1947 -844 
L 622 -844 
L 622 -397 
L 1369 -397 
L 1369 4416 
L 622 4416 
L 622 4863 
L 1947 4863 
z
" transform="scale(0.015625)"/>
     </defs>
     <use xlink:href="#DejaVuSans-52"/>
     <use xlink:href="#DejaVuSans-20" x="69.482422"/>
     <use xlink:href="#DejaVuSans-5b" x="101.269531"/>
     <use xlink:href="#DejaVuSans-31" x="140.283203"/>
     <use xlink:href="#DejaVuSans-30" x="203.90625"/>
     <use xlink:href="#DejaVuSans-30" x="267.529297"/>
     <use xlink:href="#DejaVuSans-2e" x="331.152344"/>
     <use xlink:href="#DejaVuSans-30" x="362.939453"/>
     <use xlink:href="#DejaVuSans-25" x="426.5625"/>
     <use xlink:href="#DejaVuSans-5d" x="521.582031"/>
    </g>
   </g>
   <g id="patch_4">
    <path d="M 79.5492 47.394 
C 79.5492 43.171418 78.717443 38.989895 77.101531 35.088738 
C 75.485619 31.18758 73.116976 27.642657 70.13116 24.65684 
C 67.145343 21.671024 63.60042 19.302381 59.699262 17.686469 
C 55.798105 16.070557 51.616582 15.2388 47.394 15.2388 
C 43.171418 15.2388 38.989895 16.070557 35.088738 17.686469 
C 31.18758 19.302381 27.642657 21.671024 24.65684 24.65684 
C 21.671024 27.642657 19.302381 31.18758 17.686469 35.088738 
C 16.070557 38.989895 15.2388 43.171418 15.2388 47.394 
C 15.2388 51.616582 16.070557 55.798105 17.686469 59.699262 
C 19.302381 63.60042 21.671024 67.145343 24.65684 70.13116 
C 27.642657 73.116976 31.18758 75.485619 35.088738 77.101531 
C 38.989895 78.717443 43.171418 79.5492 47.394 79.5492 
C 51.616582 79.5492 55.798105 78.717443 59.699262 77.101531 
C 63.60042 75.485619 67.145343 73.116976 70.13116 70.13116 
C 73.116976 67.145343 75.485619 63.60042 77.101531 59.699262 
C 78.717443 55.798105 79.5492 51.616582 79.5492 47.394 
M 69.90264 47.394 
C 69.90264 50.349808 69.32041 53.276874 68.189272 56.007684 
C 67.058133 58.738494 65.400084 61.21994 63.310012 63.310012 
C 61.21994 65.400084 58.738494 67.058133 56.007684 68.189272 
C 53.276874 69.32041 50.349808 69.90264 47.394 69.90264 
C 44.438192 69.90264 41.511126 69.32041 38.780316 68.189272 
C 36.049506 67.058133 33.56806 65.400084 31.477988 63.310012 
C 29.387916 61.21994 27.729867 58.738494 26.598728 56.007684 
C 25.46759 53.276874 24.88536 50.349808 24.88536 47.394 
C 24.88536 44.438192 25.46759 41.511126 26.598728 38.780316 
C 27.729867 36.049506 29.387916 33.56806 31.477988 31.477988 
C 33.56806 29.387916 36.049506 27.729867 38.780316 26.598728 
C 41.511126 25.46759 44.438192 24.88536 47.394 24.88536 
C 50.349808 24.88536 53.276874 25.46759 56.007684 26.598728 
C 58.738494 27.729867 61.21994 29.387916 63.310012 31.477988 
C 65.400084 33.56806 67.058133 36.049506 68.189272 38.780316 
C 69.32041 41.511126 69.90264 44.438192 69.90264 47.394 
z
" style="fill: #1f77b4"/>
   </g>
   <g id="matplotlib.axis_1"/>
   <g id="matplotlib.axis_2"/>
  </g>
 </g>
</svg>
