<?xml version="1.0" encoding="utf-8" standalone="no"?>
<!DOCTYPE svg PUBLIC "-//W3C//DTD SVG 1.1//EN"
  "http://www.w3.org/Graphics/SVG/1.1/DTD/svg11.dtd">
<svg xmlns:xlink="http://www.w3.org/1999/xlink" width="204.351853pt" height="94.788pt" viewBox="0 0 204.351853 94.788" xmlns="http://www.w3.org/2000/svg" version="1.1">
 <metadata>
  <rdf:RDF xmlns:dc="http://purl.org/dc/elements/1.1/" xmlns:cc="http://creativecommons.org/ns#" xmlns:rdf="http://www.w3.org/1999/02/22-rdf-syntax-ns#">
   <cc:Work>
    <dc:type rdf:resource="http://purl.org/dc/dcmitype/StillImage"/>
    <dc:date>2023-10-13T11:20:22.323714</dc:date>
    <dc:format>image/svg+xml</dc:format>
    <dc:creator>
     <cc:Agent>
      <dc:title>Matplotlib v3.7.3, https://matplotlib.org/</dc:title>
     </cc:Agent>
    </dc:creator>
   </cc:Work>
  </rdf:RDF>
 </metadata>
 <defs>
  <style type="text/css">*{stroke-linejoin: round; stroke-linecap: butt}</style>
 </defs>
 <g id="figure_1">
  <g id="patch_1">
   <path d="M 0 94.788 
L 204.351853 94.788 
L 204.351853 0 
L 0 0 
z
" style="fill: #ffffff"/>
  </g>
  <g id="axes_1">
   <g id="patch_2">
    <path d="M 140.518979 76.195407 
L 135.70458 76.195407 
L 127.356706 69.246184 
" style="fill: none; stroke: #000000; stroke-linecap: round"/>
   </g>
   <g id="text_1">
    <g id="patch_3">
     <path d="M 142.515915 83.03447 
L 199.151852 83.03447 
L 199.151852 69.356345 
L 142.515915 69.356345 
z
" style="fill: #ffffff"/>
    </g>
    <!-- W [76.9%] -->
    <g transform="translate(144.515915 78.954782) scale(0.1 -0.1)">
     <defs>
      <path id="DejaVuSans-57" d="M 213 4666 
L 850 4666 
L 1831 722 
L 2809 4666 
L 3519 4666 
L 4500 722 
L 5478 4666 
L 6119 4666 
L 4947 0 
L 4153 0 
L 3169 4050 
L 2175 0 
L 1381 0 
L 213 4666 
z
" transform="scale(0.015625)"/>
      <path id="DejaVuSans-20" transform="scale(0.015625)"/>
      <path id="DejaVuSans-5b" d="M 550 4863 
L 1875 4863 
L 1875 4416 
L 1125 4416 
L 1125 -397 
L 1875 -397 
L 1875 -844 
L 550 -844 
L 550 4863 
z
" transform="scale(0.015625)"/>
      <path id="DejaVuSans-37" d="M 525 4666 
L 3525 4666 
L 3525 4397 
L 1831 0 
L 1172 0 
L 2766 4134 
L 525 4134 
L 525 4666 
z
" transform="scale(0.015625)"/>
      <path id="DejaVuSans-36" d="M 2113 2584 
Q 1688 2584 1439 2293 
Q 1191 2003 1191 1497 
Q 1191 994 1439 701 
Q 1688 409 2113 409 
Q 2538 409 2786 701 
Q 3034 994 3034 1497 
Q 3034 2003 2786 2293 
Q 2538 2584 2113 2584 
z
M 3366 4563 
L 3366 3988 
Q 3128 4100 2886 4159 
Q 2644 4219 2406 4219 
Q 1781 4219 1451 3797 
Q 1122 3375 1075 2522 
Q 1259 2794 1537 2939 
Q 1816 3084 2150 3084 
Q 2853 3084 3261 2657 
Q 3669 2231 3669 1497 
Q 3669 778 3244 343 
Q 2819 -91 2113 -91 
Q 1303 -91 875 529 
Q 447 1150 447 2328 
Q 447 3434 972 4092 
Q 1497 4750 2381 4750 
Q 2619 4750 2861 4703 
Q 3103 4656 3366 4563 
z
" transform="scale(0.015625)"/>
      <path id="DejaVuSans-2e" d="M 684 794 
L 1344 794 
L 1344 0 
L 684 0 
L 684 794 
z
" transform="scale(0.015625)"/>
      <path id="DejaVuSans-39" d="M 703 97 
L 703 672 
Q 941 559 1184 500 
Q 1428 441 1663 441 
Q 2288 441 2617 861 
Q 2947 1281 2994 2138 
Q 2813 1869 2534 1725 
Q 2256 1581 1919 1581 
Q 1219 1581 811 2004 
Q 403 2428 403 3163 
Q 403 3881 828 4315 
Q 1253 4750 1959 4750 
Q 2769 4750 3195 4129 
Q 3622 3509 3622 2328 
Q 3622 1225 3098 567 
Q 2575 -91 1691 -91 
Q 1453 -91 1209 -44 
Q 966 3 703 97 
z
M 1959 2075 
Q 2384 2075 2632 2365 
Q 2881 2656 2881 3163 
Q 2881 3666 2632 3958 
Q 2384 4250 1959 4250 
Q 1534 4250 1286 3958 
Q 1038 3666 1038 3163 
Q 1038 2656 1286 2365 
Q 1534 2075 1959 2075 
z
" transform="scale(0.015625)"/>
      <path id="DejaVuSans-25" d="M 4653 2053 
Q 4381 2053 4226 1822 
Q 4072 1591 4072 1178 
Q 4072 772 4226 539 
Q 4381 306 4653 306 
Q 4919 306 5073 539 
Q 5228 772 5228 1178 
Q 5228 1588 5073 1820 
Q 4919 2053 4653 2053 
z
M 4653 2450 
Q 5147 2450 5437 2106 
Q 5728 1763 5728 1178 
Q 5728 594 5436 251 
Q 5144 -91 4653 -91 
Q 4153 -91 3862 251 
Q 3572 594 3572 1178 
Q 3572 1766 3864 2108 
Q 4156 2450 4653 2450 
z
M 1428 4353 
Q 1159 4353 1004 4120 
Q 850 3888 850 3481 
Q 850 3069 1003 2837 
Q 1156 2606 1428 2606 
Q 1700 2606 1854 2837 
Q 2009 3069 2009 3481 
Q 2009 3884 1853 4118 
Q 1697 4353 1428 4353 
z
M 4250 4750 
L 4750 4750 
L 1831 -91 
L 1331 -91 
L 4250 4750 
z
M 1428 4750 
Q 1922 4750 2215 4408 
Q 2509 4066 2509 3481 
Q 2509 2891 2217 2550 
Q 1925 2209 1428 2209 
Q 931 2209 642 2551 
Q 353 2894 353 3481 
Q 353 4063 643 4406 
Q 934 4750 1428 4750 
z
" transform="scale(0.015625)"/>
      <path id="DejaVuSans-5d" d="M 1947 4863 
L 1947 -844 
L 622 -844 
L 622 -397 
L 1369 -397 
L 1369 4416 
L 622 4416 
L 622 4863 
L 1947 4863 
z
" transform="scale(0.015625)"/>
     </defs>
     <use xlink:href="#DejaVuSans-57"/>
     <use xlink:href="#DejaVuSans-20" x="98.876953"/>
     <use xlink:href="#DejaVuSans-5b" x="130.664062"/>
     <use xlink:href="#DejaVuSans-37" x="169.677734"/>
     <use xlink:href="#DejaVuSans-36" x="233.300781"/>
     <use xlink:href="#DejaVuSans-2e" x="296.923828"/>
     <use xlink:href="#DejaVuSans-39" x="328.710938"/>
     <use xlink:href="#DejaVuSans-25" x="392.333984"/>
     <use xlink:href="#DejaVuSans-5d" x="487.353516"/>
    </g>
   </g>
   <g id="patch_4">
    <path d="M 61.693512 18.592588 
L 66.508214 18.592588 
L 74.856087 25.541812 
" style="fill: none; stroke: #000000; stroke-linecap: round"/>
   </g>
   <g id="text_2">
    <g id="patch_5">
     <path d="M 5.2 25.43165 
L 59.696875 25.43165 
L 59.696875 11.753525 
L 5.2 11.753525 
z
" style="fill: #ffffff"/>
    </g>
    <!-- G [22.1%] -->
    <g transform="translate(7.2 21.351963) scale(0.1 -0.1)">
     <defs>
      <path id="DejaVuSans-47" d="M 3809 666 
L 3809 1919 
L 2778 1919 
L 2778 2438 
L 4434 2438 
L 4434 434 
Q 4069 175 3628 42 
Q 3188 -91 2688 -91 
Q 1594 -91 976 548 
Q 359 1188 359 2328 
Q 359 3472 976 4111 
Q 1594 4750 2688 4750 
Q 3144 4750 3555 4637 
Q 3966 4525 4313 4306 
L 4313 3634 
Q 3963 3931 3569 4081 
Q 3175 4231 2741 4231 
Q 1884 4231 1454 3753 
Q 1025 3275 1025 2328 
Q 1025 1384 1454 906 
Q 1884 428 2741 428 
Q 3075 428 3337 486 
Q 3600 544 3809 666 
z
" transform="scale(0.015625)"/>
      <path id="DejaVuSans-32" d="M 1228 531 
L 3431 531 
L 3431 0 
L 469 0 
L 469 531 
Q 828 903 1448 1529 
Q 2069 2156 2228 2338 
Q 2531 2678 2651 2914 
Q 2772 3150 2772 3378 
Q 2772 3750 2511 3984 
Q 2250 4219 1831 4219 
Q 1534 4219 1204 4116 
Q 875 4013 500 3803 
L 500 4441 
Q 881 4594 1212 4672 
Q 1544 4750 1819 4750 
Q 2544 4750 2975 4387 
Q 3406 4025 3406 3419 
Q 3406 3131 3298 2873 
Q 3191 2616 2906 2266 
Q 2828 2175 2409 1742 
Q 1991 1309 1228 531 
z
" transform="scale(0.015625)"/>
      <path id="DejaVuSans-31" d="M 794 531 
L 1825 531 
L 1825 4091 
L 703 3866 
L 703 4441 
L 1819 4666 
L 2450 4666 
L 2450 531 
L 3481 531 
L 3481 0 
L 794 0 
L 794 531 
z
" transform="scale(0.015625)"/>
     </defs>
     <use xlink:href="#DejaVuSans-47"/>
     <use xlink:href="#DejaVuSans-20" x="77.490234"/>
     <use xlink:href="#DejaVuSans-5b" x="109.277344"/>
     <use xlink:href="#DejaVuSans-32" x="148.291016"/>
     <use xlink:href="#DejaVuSans-32" x="211.914062"/>
     <use xlink:href="#DejaVuSans-2e" x="275.537109"/>
     <use xlink:href="#DejaVuSans-31" x="307.324219"/>
     <use xlink:href="#DejaVuSans-25" x="370.947266"/>
     <use xlink:href="#DejaVuSans-5d" x="465.966797"/>
    </g>
   </g>
   <g id="patch_6">
    <path d="M 68.952179 47.645608 
C 68.977804 50.920333 69.503548 54.172011 70.511192 57.28796 
C 71.518836 60.403909 72.996606 63.347718 74.893292 66.017375 
C 76.789977 68.687032 79.083415 71.05134 81.694132 73.02837 
C 84.304848 75.0054 87.202334 76.572048 90.286184 77.674025 
C 93.370035 78.776003 96.604211 79.400432 99.876642 79.525676 
C 103.149072 79.650919 106.421515 79.275513 109.580571 78.412466 
C 112.739627 77.549419 115.74838 76.208816 118.502569 74.437114 
C 121.256758 72.665411 123.724198 70.483313 125.819384 67.966434 
C 127.914571 65.449555 129.613021 62.627308 130.855878 59.59749 
C 132.098734 56.567673 132.871474 53.365692 133.14732 50.102504 
C 133.423166 46.839316 133.198894 43.553054 132.482276 40.357597 
C 131.765658 37.162141 130.565068 34.09483 128.922111 31.261956 
C 127.279153 28.429082 125.213026 25.863749 122.795327 23.654853 
C 120.377629 21.445957 117.636611 19.619312 114.667259 18.238214 
C 111.697906 16.857116 108.534917 15.937706 105.287899 15.511843 
C 102.040881 15.085981 98.747777 15.158642 95.522703 15.72731 
L 97.197811 25.227317 
C 99.455363 24.82925 101.760535 24.778387 104.033448 25.07649 
C 106.306361 25.374594 108.520453 26.018181 110.599 26.98495 
C 112.677547 27.951718 114.596259 29.23037 116.288648 30.776597 
C 117.981037 32.322824 119.427325 34.118557 120.577396 36.101569 
C 121.727466 38.084581 122.567879 40.231698 123.069512 42.468518 
C 123.571144 44.705338 123.728135 47.005721 123.535043 49.289953 
C 123.341951 51.574184 122.801033 53.815571 121.931033 55.936443 
C 121.061033 58.057315 119.872118 60.032889 118.405488 61.794704 
C 116.938857 63.556519 115.211649 65.083988 113.283717 66.32418 
C 111.355785 67.564371 109.249658 68.502793 107.038318 69.106926 
C 104.826979 69.711059 102.536269 69.973844 100.245568 69.886173 
C 97.954866 69.798503 95.690943 69.361402 93.532248 68.590018 
C 91.373552 67.818633 89.345312 66.72198 87.517811 65.338059 
C 85.690309 63.954138 84.084903 62.299122 82.757223 60.430362 
C 81.429542 58.561602 80.395104 56.500936 79.689753 54.319772 
C 78.984402 52.138608 78.616381 49.862433 78.598444 47.570125 
z
" style="fill: #1f77b4"/>
   </g>
   <g id="patch_7">
    <path d="M 95.522712 15.727308 
C 88.03702 17.047235 81.256529 20.979658 76.393408 26.821563 
C 71.530288 32.663468 68.892702 40.04467 68.952179 47.645608 
L 78.598444 47.570125 
C 78.55681 42.249469 80.40312 37.082627 83.807304 32.993294 
C 87.211489 28.90396 91.957833 26.151265 97.197817 25.227316 
z
" style="fill: #ff7f0e"/>
   </g>
   <g id="matplotlib.axis_1"/>
   <g id="matplotlib.axis_2"/>
  </g>
 </g>
</svg>
