<?xml version="1.0" encoding="utf-8" standalone="no"?>
<!DOCTYPE svg PUBLIC "-//W3C//DTD SVG 1.1//EN"
  "http://www.w3.org/Graphics/SVG/1.1/DTD/svg11.dtd">
<svg xmlns:xlink="http://www.w3.org/1999/xlink" width="199.87529pt" height="94.788pt" viewBox="0 0 199.87529 94.788" xmlns="http://www.w3.org/2000/svg" version="1.1">
 <metadata>
  <rdf:RDF xmlns:dc="http://purl.org/dc/elements/1.1/" xmlns:cc="http://creativecommons.org/ns#" xmlns:rdf="http://www.w3.org/1999/02/22-rdf-syntax-ns#">
   <cc:Work>
    <dc:type rdf:resource="http://purl.org/dc/dcmitype/StillImage"/>
    <dc:date>2023-10-13T11:22:02.910128</dc:date>
    <dc:format>image/svg+xml</dc:format>
    <dc:creator>
     <cc:Agent>
      <dc:title>Matplotlib v3.7.3, https://matplotlib.org/</dc:title>
     </cc:Agent>
    </dc:creator>
   </cc:Work>
  </rdf:RDF>
 </metadata>
 <defs>
  <style type="text/css">*{stroke-linejoin: round; stroke-linecap: butt}</style>
 </defs>
 <g id="figure_1">
  <g id="patch_1">
   <path d="M -0 94.788 
L 199.87529 94.788 
L 199.87529 0 
L -0 0 
z
" style="fill: #ffffff"/>
  </g>
  <g id="axes_1">
   <g id="patch_2">
    <path d="M 139.082013 12.572121 
L 128.207257 12.572121 
L 121.323386 20.973968 
" style="fill: none; stroke: #000000; stroke-linecap: round"/>
   </g>
   <g id="text_1">
    <g id="patch_3">
     <path d="M 141.086227 19.411184 
L 194.67529 19.411184 
L 194.67529 5.733059 
L 141.086227 5.733059 
z
" style="fill: #ffffff"/>
    </g>
    <!-- A [26.2%] -->
    <g transform="translate(143.086227 15.331496) scale(0.1 -0.1)">
     <defs>
      <path id="DejaVuSans-41" d="M 2188 4044 
L 1331 1722 
L 3047 1722 
L 2188 4044 
z
M 1831 4666 
L 2547 4666 
L 4325 0 
L 3669 0 
L 3244 1197 
L 1141 1197 
L 716 0 
L 50 0 
L 1831 4666 
z
" transform="scale(0.015625)"/>
      <path id="DejaVuSans-20" transform="scale(0.015625)"/>
      <path id="DejaVuSans-5b" d="M 550 4863 
L 1875 4863 
L 1875 4416 
L 1125 4416 
L 1125 -397 
L 1875 -397 
L 1875 -844 
L 550 -844 
L 550 4863 
z
" transform="scale(0.015625)"/>
      <path id="DejaVuSans-32" d="M 1228 531 
L 3431 531 
L 3431 0 
L 469 0 
L 469 531 
Q 828 903 1448 1529 
Q 2069 2156 2228 2338 
Q 2531 2678 2651 2914 
Q 2772 3150 2772 3378 
Q 2772 3750 2511 3984 
Q 2250 4219 1831 4219 
Q 1534 4219 1204 4116 
Q 875 4013 500 3803 
L 500 4441 
Q 881 4594 1212 4672 
Q 1544 4750 1819 4750 
Q 2544 4750 2975 4387 
Q 3406 4025 3406 3419 
Q 3406 3131 3298 2873 
Q 3191 2616 2906 2266 
Q 2828 2175 2409 1742 
Q 1991 1309 1228 531 
z
" transform="scale(0.015625)"/>
      <path id="DejaVuSans-36" d="M 2113 2584 
Q 1688 2584 1439 2293 
Q 1191 2003 1191 1497 
Q 1191 994 1439 701 
Q 1688 409 2113 409 
Q 2538 409 2786 701 
Q 3034 994 3034 1497 
Q 3034 2003 2786 2293 
Q 2538 2584 2113 2584 
z
M 3366 4563 
L 3366 3988 
Q 3128 4100 2886 4159 
Q 2644 4219 2406 4219 
Q 1781 4219 1451 3797 
Q 1122 3375 1075 2522 
Q 1259 2794 1537 2939 
Q 1816 3084 2150 3084 
Q 2853 3084 3261 2657 
Q 3669 2231 3669 1497 
Q 3669 778 3244 343 
Q 2819 -91 2113 -91 
Q 1303 -91 875 529 
Q 447 1150 447 2328 
Q 447 3434 972 4092 
Q 1497 4750 2381 4750 
Q 2619 4750 2861 4703 
Q 3103 4656 3366 4563 
z
" transform="scale(0.015625)"/>
      <path id="DejaVuSans-2e" d="M 684 794 
L 1344 794 
L 1344 0 
L 684 0 
L 684 794 
z
" transform="scale(0.015625)"/>
      <path id="DejaVuSans-25" d="M 4653 2053 
Q 4381 2053 4226 1822 
Q 4072 1591 4072 1178 
Q 4072 772 4226 539 
Q 4381 306 4653 306 
Q 4919 306 5073 539 
Q 5228 772 5228 1178 
Q 5228 1588 5073 1820 
Q 4919 2053 4653 2053 
z
M 4653 2450 
Q 5147 2450 5437 2106 
Q 5728 1763 5728 1178 
Q 5728 594 5436 251 
Q 5144 -91 4653 -91 
Q 4153 -91 3862 251 
Q 3572 594 3572 1178 
Q 3572 1766 3864 2108 
Q 4156 2450 4653 2450 
z
M 1428 4353 
Q 1159 4353 1004 4120 
Q 850 3888 850 3481 
Q 850 3069 1003 2837 
Q 1156 2606 1428 2606 
Q 1700 2606 1854 2837 
Q 2009 3069 2009 3481 
Q 2009 3884 1853 4118 
Q 1697 4353 1428 4353 
z
M 4250 4750 
L 4750 4750 
L 1831 -91 
L 1331 -91 
L 4250 4750 
z
M 1428 4750 
Q 1922 4750 2215 4408 
Q 2509 4066 2509 3481 
Q 2509 2891 2217 2550 
Q 1925 2209 1428 2209 
Q 931 2209 642 2551 
Q 353 2894 353 3481 
Q 353 4063 643 4406 
Q 934 4750 1428 4750 
z
" transform="scale(0.015625)"/>
      <path id="DejaVuSans-5d" d="M 1947 4863 
L 1947 -844 
L 622 -844 
L 622 -397 
L 1369 -397 
L 1369 4416 
L 622 4416 
L 622 4863 
L 1947 4863 
z
" transform="scale(0.015625)"/>
     </defs>
     <use xlink:href="#DejaVuSans-41"/>
     <use xlink:href="#DejaVuSans-20" x="68.408203"/>
     <use xlink:href="#DejaVuSans-5b" x="100.195312"/>
     <use xlink:href="#DejaVuSans-32" x="139.208984"/>
     <use xlink:href="#DejaVuSans-36" x="202.832031"/>
     <use xlink:href="#DejaVuSans-2e" x="266.455078"/>
     <use xlink:href="#DejaVuSans-32" x="298.242188"/>
     <use xlink:href="#DejaVuSans-25" x="361.865234"/>
     <use xlink:href="#DejaVuSans-5d" x="456.884766"/>
    </g>
   </g>
   <g id="patch_4">
    <path d="M 60.269794 82.215879 
L 71.146158 82.215879 
L 78.030029 73.814032 
" style="fill: none; stroke: #000000; stroke-linecap: round"/>
   </g>
   <g id="text_2">
    <g id="patch_5">
     <path d="M 5.2 89.054941 
L 58.267187 89.054941 
L 58.267187 75.376816 
L 5.2 75.376816 
z
" style="fill: #ffffff"/>
    </g>
    <!-- E [69.4%] -->
    <g transform="translate(7.2 84.975254) scale(0.1 -0.1)">
     <defs>
      <path id="DejaVuSans-45" d="M 628 4666 
L 3578 4666 
L 3578 4134 
L 1259 4134 
L 1259 2753 
L 3481 2753 
L 3481 2222 
L 1259 2222 
L 1259 531 
L 3634 531 
L 3634 0 
L 628 0 
L 628 4666 
z
" transform="scale(0.015625)"/>
      <path id="DejaVuSans-39" d="M 703 97 
L 703 672 
Q 941 559 1184 500 
Q 1428 441 1663 441 
Q 2288 441 2617 861 
Q 2947 1281 2994 2138 
Q 2813 1869 2534 1725 
Q 2256 1581 1919 1581 
Q 1219 1581 811 2004 
Q 403 2428 403 3163 
Q 403 3881 828 4315 
Q 1253 4750 1959 4750 
Q 2769 4750 3195 4129 
Q 3622 3509 3622 2328 
Q 3622 1225 3098 567 
Q 2575 -91 1691 -91 
Q 1453 -91 1209 -44 
Q 966 3 703 97 
z
M 1959 2075 
Q 2384 2075 2632 2365 
Q 2881 2656 2881 3163 
Q 2881 3666 2632 3958 
Q 2384 4250 1959 4250 
Q 1534 4250 1286 3958 
Q 1038 3666 1038 3163 
Q 1038 2656 1286 2365 
Q 1534 2075 1959 2075 
z
" transform="scale(0.015625)"/>
      <path id="DejaVuSans-34" d="M 2419 4116 
L 825 1625 
L 2419 1625 
L 2419 4116 
z
M 2253 4666 
L 3047 4666 
L 3047 1625 
L 3713 1625 
L 3713 1100 
L 3047 1100 
L 3047 0 
L 2419 0 
L 2419 1100 
L 313 1100 
L 313 1709 
L 2253 4666 
z
" transform="scale(0.015625)"/>
     </defs>
     <use xlink:href="#DejaVuSans-45"/>
     <use xlink:href="#DejaVuSans-20" x="63.183594"/>
     <use xlink:href="#DejaVuSans-5b" x="94.970703"/>
     <use xlink:href="#DejaVuSans-36" x="133.984375"/>
     <use xlink:href="#DejaVuSans-39" x="197.607422"/>
     <use xlink:href="#DejaVuSans-2e" x="261.230469"/>
     <use xlink:href="#DejaVuSans-34" x="293.017578"/>
     <use xlink:href="#DejaVuSans-25" x="356.640625"/>
     <use xlink:href="#DejaVuSans-5d" x="451.660156"/>
    </g>
   </g>
   <g id="patch_6">
    <path d="M 131.823081 46.640618 
C 131.714561 42.010154 130.606832 37.457338 128.575911 33.294606 
C 126.544991 29.131875 123.638423 25.456679 120.055671 22.521229 
C 116.47292 19.58578 112.297858 17.458796 107.816999 16.286243 
C 103.336141 15.11369 98.654385 14.923017 94.093016 15.72731 
L 95.768123 25.227317 
C 98.961082 24.664312 102.238311 24.797783 105.374912 25.61857 
C 108.511513 26.439357 111.434056 27.928246 113.941982 29.983061 
C 116.449908 32.037875 118.484506 34.610512 119.90615 37.524424 
C 121.327795 40.438336 122.103205 43.625308 122.179169 46.866633 
z
" style="fill: #1f77b4"/>
   </g>
   <g id="patch_7">
    <path d="M 94.093016 15.72731 
C 88.034187 16.795645 82.407379 19.580731 77.883625 23.750429 
C 73.35987 27.920128 70.126443 33.301821 68.568951 39.253708 
C 67.011458 45.205595 67.194377 51.481279 69.095894 57.332345 
C 70.99741 63.183412 74.538805 68.367638 79.297744 72.266771 
C 84.056683 76.165904 89.836156 78.618528 95.946923 79.332153 
C 102.057691 80.045777 108.24678 78.990859 113.776101 76.293204 
C 119.305423 73.595549 123.946075 69.366834 127.144629 64.111362 
C 130.343183 58.855889 131.967226 52.791225 131.823081 46.640618 
L 122.179169 46.866633 
C 122.280071 51.172057 121.14324 55.417323 118.904252 59.096153 
C 116.665265 62.774984 113.416808 65.735084 109.546283 67.623443 
C 105.675758 69.511801 101.343396 70.250244 97.065859 69.750707 
C 92.788321 69.25117 88.74269 67.534333 85.411433 64.804939 
C 82.080176 62.075546 79.601199 58.446588 78.270138 54.350842 
C 76.939076 50.255096 76.811033 45.862116 77.901278 41.695796 
C 78.991522 37.529475 81.254921 33.762289 84.42155 30.843501 
C 87.588178 27.924712 91.526943 25.975151 95.768123 25.227317 
z
" style="fill: #ff7f0e"/>
   </g>
   <g id="matplotlib.axis_1"/>
   <g id="matplotlib.axis_2"/>
  </g>
 </g>
</svg>
