<?xml version="1.0" encoding="utf-8" standalone="no"?>
<!DOCTYPE svg PUBLIC "-//W3C//DTD SVG 1.1//EN"
  "http://www.w3.org/Graphics/SVG/1.1/DTD/svg11.dtd">
<svg xmlns:xlink="http://www.w3.org/1999/xlink" width="147.070707pt" height="103.766429pt" viewBox="0 0 147.070707 103.766429" xmlns="http://www.w3.org/2000/svg" version="1.1">
 <metadata>
  <rdf:RDF xmlns:dc="http://purl.org/dc/elements/1.1/" xmlns:cc="http://creativecommons.org/ns#" xmlns:rdf="http://www.w3.org/1999/02/22-rdf-syntax-ns#">
   <cc:Work>
    <dc:type rdf:resource="http://purl.org/dc/dcmitype/StillImage"/>
    <dc:date>2023-10-13T11:24:48.702303</dc:date>
    <dc:format>image/svg+xml</dc:format>
    <dc:creator>
     <cc:Agent>
      <dc:title>Matplotlib v3.7.3, https://matplotlib.org/</dc:title>
     </cc:Agent>
    </dc:creator>
   </cc:Work>
  </rdf:RDF>
 </metadata>
 <defs>
  <style type="text/css">*{stroke-linejoin: round; stroke-linecap: butt}</style>
 </defs>
 <g id="figure_1">
  <g id="patch_1">
   <path d="M 0 103.766429 
L 147.070707 103.766429 
L 147.070707 0 
L 0 0 
z
" style="fill: #ffffff"/>
  </g>
  <g id="axes_1">
   <g id="patch_2">
    <path d="M 86.80397 91.727366 
L 55.211169 91.727366 
L 53.325037 81.030581 
" style="fill: none; stroke: #000000; stroke-linecap: round"/>
   </g>
   <g id="text_1">
    <g id="patch_3">
     <path d="M 88.80352 98.566429 
L 141.870707 98.566429 
L 141.870707 84.888304 
L 88.80352 84.888304 
z
" style="fill: #ffffff"/>
    </g>
    <!-- E [97.2%] -->
    <g transform="translate(90.80352 94.486741) scale(0.1 -0.1)">
     <defs>
      <path id="DejaVuSans-45" d="M 628 4666 
L 3578 4666 
L 3578 4134 
L 1259 4134 
L 1259 2753 
L 3481 2753 
L 3481 2222 
L 1259 2222 
L 1259 531 
L 3634 531 
L 3634 0 
L 628 0 
L 628 4666 
z
" transform="scale(0.015625)"/>
      <path id="DejaVuSans-20" transform="scale(0.015625)"/>
      <path id="DejaVuSans-5b" d="M 550 4863 
L 1875 4863 
L 1875 4416 
L 1125 4416 
L 1125 -397 
L 1875 -397 
L 1875 -844 
L 550 -844 
L 550 4863 
z
" transform="scale(0.015625)"/>
      <path id="DejaVuSans-39" d="M 703 97 
L 703 672 
Q 941 559 1184 500 
Q 1428 441 1663 441 
Q 2288 441 2617 861 
Q 2947 1281 2994 2138 
Q 2813 1869 2534 1725 
Q 2256 1581 1919 1581 
Q 1219 1581 811 2004 
Q 403 2428 403 3163 
Q 403 3881 828 4315 
Q 1253 4750 1959 4750 
Q 2769 4750 3195 4129 
Q 3622 3509 3622 2328 
Q 3622 1225 3098 567 
Q 2575 -91 1691 -91 
Q 1453 -91 1209 -44 
Q 966 3 703 97 
z
M 1959 2075 
Q 2384 2075 2632 2365 
Q 2881 2656 2881 3163 
Q 2881 3666 2632 3958 
Q 2384 4250 1959 4250 
Q 1534 4250 1286 3958 
Q 1038 3666 1038 3163 
Q 1038 2656 1286 2365 
Q 1534 2075 1959 2075 
z
" transform="scale(0.015625)"/>
      <path id="DejaVuSans-37" d="M 525 4666 
L 3525 4666 
L 3525 4397 
L 1831 0 
L 1172 0 
L 2766 4134 
L 525 4134 
L 525 4666 
z
" transform="scale(0.015625)"/>
      <path id="DejaVuSans-2e" d="M 684 794 
L 1344 794 
L 1344 0 
L 684 0 
L 684 794 
z
" transform="scale(0.015625)"/>
      <path id="DejaVuSans-32" d="M 1228 531 
L 3431 531 
L 3431 0 
L 469 0 
L 469 531 
Q 828 903 1448 1529 
Q 2069 2156 2228 2338 
Q 2531 2678 2651 2914 
Q 2772 3150 2772 3378 
Q 2772 3750 2511 3984 
Q 2250 4219 1831 4219 
Q 1534 4219 1204 4116 
Q 875 4013 500 3803 
L 500 4441 
Q 881 4594 1212 4672 
Q 1544 4750 1819 4750 
Q 2544 4750 2975 4387 
Q 3406 4025 3406 3419 
Q 3406 3131 3298 2873 
Q 3191 2616 2906 2266 
Q 2828 2175 2409 1742 
Q 1991 1309 1228 531 
z
" transform="scale(0.015625)"/>
      <path id="DejaVuSans-25" d="M 4653 2053 
Q 4381 2053 4226 1822 
Q 4072 1591 4072 1178 
Q 4072 772 4226 539 
Q 4381 306 4653 306 
Q 4919 306 5073 539 
Q 5228 772 5228 1178 
Q 5228 1588 5073 1820 
Q 4919 2053 4653 2053 
z
M 4653 2450 
Q 5147 2450 5437 2106 
Q 5728 1763 5728 1178 
Q 5728 594 5436 251 
Q 5144 -91 4653 -91 
Q 4153 -91 3862 251 
Q 3572 594 3572 1178 
Q 3572 1766 3864 2108 
Q 4156 2450 4653 2450 
z
M 1428 4353 
Q 1159 4353 1004 4120 
Q 850 3888 850 3481 
Q 850 3069 1003 2837 
Q 1156 2606 1428 2606 
Q 1700 2606 1854 2837 
Q 2009 3069 2009 3481 
Q 2009 3884 1853 4118 
Q 1697 4353 1428 4353 
z
M 4250 4750 
L 4750 4750 
L 1831 -91 
L 1331 -91 
L 4250 4750 
z
M 1428 4750 
Q 1922 4750 2215 4408 
Q 2509 4066 2509 3481 
Q 2509 2891 2217 2550 
Q 1925 2209 1428 2209 
Q 931 2209 642 2551 
Q 353 2894 353 3481 
Q 353 4063 643 4406 
Q 934 4750 1428 4750 
z
" transform="scale(0.015625)"/>
      <path id="DejaVuSans-5d" d="M 1947 4863 
L 1947 -844 
L 622 -844 
L 622 -397 
L 1369 -397 
L 1369 4416 
L 622 4416 
L 622 4863 
L 1947 4863 
z
" transform="scale(0.015625)"/>
     </defs>
     <use xlink:href="#DejaVuSans-45"/>
     <use xlink:href="#DejaVuSans-20" x="63.183594"/>
     <use xlink:href="#DejaVuSans-5b" x="94.970703"/>
     <use xlink:href="#DejaVuSans-39" x="133.984375"/>
     <use xlink:href="#DejaVuSans-37" x="197.607422"/>
     <use xlink:href="#DejaVuSans-2e" x="261.230469"/>
     <use xlink:href="#DejaVuSans-32" x="293.017578"/>
     <use xlink:href="#DejaVuSans-25" x="356.640625"/>
     <use xlink:href="#DejaVuSans-5d" x="451.660156"/>
    </g>
   </g>
   <g id="patch_4">
    <path d="M 79.5492 47.394 
C 79.5492 43.171418 78.717443 38.989895 77.101531 35.088738 
C 75.485619 31.18758 73.116976 27.642657 70.13116 24.65684 
C 67.145343 21.671024 63.60042 19.302381 59.699262 17.686469 
C 55.798105 16.070557 51.616582 15.2388 47.394 15.2388 
C 43.171418 15.2388 38.989895 16.070557 35.088738 17.686469 
C 31.18758 19.302381 27.642657 21.671024 24.65684 24.65684 
C 21.671024 27.642657 19.302381 31.18758 17.686469 35.088738 
C 16.070557 38.989895 15.2388 43.171418 15.2388 47.394 
C 15.2388 51.616582 16.070557 55.798105 17.686469 59.699262 
C 19.302381 63.60042 21.671024 67.145343 24.65684 70.13116 
C 27.642657 73.116976 31.18758 75.485619 35.088738 77.101531 
C 38.989895 78.717443 43.171418 79.5492 47.394 79.5492 
C 51.616582 79.5492 55.798105 78.717443 59.699262 77.101531 
C 63.60042 75.485619 67.145343 73.116976 70.13116 70.13116 
C 73.116976 67.145343 75.485619 63.60042 77.101531 59.699262 
C 78.717443 55.798105 79.5492 51.616582 79.5492 47.394 
M 69.90264 47.394 
C 69.90264 50.349808 69.32041 53.276874 68.189272 56.007684 
C 67.058133 58.738494 65.400084 61.21994 63.310012 63.310012 
C 61.21994 65.400084 58.738494 67.058133 56.007684 68.189272 
C 53.276874 69.32041 50.349808 69.90264 47.394 69.90264 
C 44.438192 69.90264 41.511126 69.32041 38.780316 68.189272 
C 36.049506 67.058133 33.56806 65.400084 31.477988 63.310012 
C 29.387916 61.21994 27.729867 58.738494 26.598728 56.007684 
C 25.46759 53.276874 24.88536 50.349808 24.88536 47.394 
C 24.88536 44.438192 25.46759 41.511126 26.598728 38.780316 
C 27.729867 36.049506 29.387916 33.56806 31.477988 31.477988 
C 33.56806 29.387916 36.049506 27.729867 38.780316 26.598728 
C 41.511126 25.46759 44.438192 24.88536 47.394 24.88536 
C 50.349808 24.88536 53.276874 25.46759 56.007684 26.598728 
C 58.738494 27.729867 61.21994 29.387916 63.310012 31.477988 
C 65.400084 33.56806 67.058133 36.049506 68.189272 38.780316 
C 69.32041 41.511126 69.90264 44.438192 69.90264 47.394 
z
" style="fill: #1f77b4"/>
   </g>
   <g id="matplotlib.axis_1"/>
   <g id="matplotlib.axis_2"/>
  </g>
 </g>
</svg>
