<?xml version="1.0" encoding="utf-8" standalone="no"?>
<!DOCTYPE svg PUBLIC "-//W3C//DTD SVG 1.1//EN"
  "http://www.w3.org/Graphics/SVG/1.1/DTD/svg11.dtd">
<svg xmlns:xlink="http://www.w3.org/1999/xlink" width="197.189353pt" height="105.359266pt" viewBox="0 0 197.189353 105.359266" xmlns="http://www.w3.org/2000/svg" version="1.1">
 <metadata>
  <rdf:RDF xmlns:dc="http://purl.org/dc/elements/1.1/" xmlns:cc="http://creativecommons.org/ns#" xmlns:rdf="http://www.w3.org/1999/02/22-rdf-syntax-ns#">
   <cc:Work>
    <dc:type rdf:resource="http://purl.org/dc/dcmitype/StillImage"/>
    <dc:date>2023-10-13T11:24:59.574202</dc:date>
    <dc:format>image/svg+xml</dc:format>
    <dc:creator>
     <cc:Agent>
      <dc:title>Matplotlib v3.7.3, https://matplotlib.org/</dc:title>
     </cc:Agent>
    </dc:creator>
   </cc:Work>
  </rdf:RDF>
 </metadata>
 <defs>
  <style type="text/css">*{stroke-linejoin: round; stroke-linecap: butt}</style>
 </defs>
 <g id="figure_1">
  <g id="patch_1">
   <path d="M -0 105.359266 
L 197.189352 105.359266 
L 197.189352 0 
L -0 0 
z
" style="fill: #ffffff"/>
  </g>
  <g id="axes_1">
   <g id="patch_2">
    <path d="M 136.295698 93.320204 
L 119.401116 93.320204 
L 113.967919 83.914935 
" style="fill: none; stroke: #000000; stroke-linecap: round"/>
   </g>
   <g id="text_1">
    <g id="patch_3">
     <path d="M 138.292478 100.159266 
L 191.989353 100.159266 
L 191.989353 86.481141 
L 138.292478 86.481141 
z
" style="fill: #ffffff"/>
    </g>
    <!-- R [88.9%] -->
    <g transform="translate(140.292478 96.079579) scale(0.1 -0.1)">
     <defs>
      <path id="DejaVuSans-52" d="M 2841 2188 
Q 3044 2119 3236 1894 
Q 3428 1669 3622 1275 
L 4263 0 
L 3584 0 
L 2988 1197 
Q 2756 1666 2539 1819 
Q 2322 1972 1947 1972 
L 1259 1972 
L 1259 0 
L 628 0 
L 628 4666 
L 2053 4666 
Q 2853 4666 3247 4331 
Q 3641 3997 3641 3322 
Q 3641 2881 3436 2590 
Q 3231 2300 2841 2188 
z
M 1259 4147 
L 1259 2491 
L 2053 2491 
Q 2509 2491 2742 2702 
Q 2975 2913 2975 3322 
Q 2975 3731 2742 3939 
Q 2509 4147 2053 4147 
L 1259 4147 
z
" transform="scale(0.015625)"/>
      <path id="DejaVuSans-20" transform="scale(0.015625)"/>
      <path id="DejaVuSans-5b" d="M 550 4863 
L 1875 4863 
L 1875 4416 
L 1125 4416 
L 1125 -397 
L 1875 -397 
L 1875 -844 
L 550 -844 
L 550 4863 
z
" transform="scale(0.015625)"/>
      <path id="DejaVuSans-38" d="M 2034 2216 
Q 1584 2216 1326 1975 
Q 1069 1734 1069 1313 
Q 1069 891 1326 650 
Q 1584 409 2034 409 
Q 2484 409 2743 651 
Q 3003 894 3003 1313 
Q 3003 1734 2745 1975 
Q 2488 2216 2034 2216 
z
M 1403 2484 
Q 997 2584 770 2862 
Q 544 3141 544 3541 
Q 544 4100 942 4425 
Q 1341 4750 2034 4750 
Q 2731 4750 3128 4425 
Q 3525 4100 3525 3541 
Q 3525 3141 3298 2862 
Q 3072 2584 2669 2484 
Q 3125 2378 3379 2068 
Q 3634 1759 3634 1313 
Q 3634 634 3220 271 
Q 2806 -91 2034 -91 
Q 1263 -91 848 271 
Q 434 634 434 1313 
Q 434 1759 690 2068 
Q 947 2378 1403 2484 
z
M 1172 3481 
Q 1172 3119 1398 2916 
Q 1625 2713 2034 2713 
Q 2441 2713 2670 2916 
Q 2900 3119 2900 3481 
Q 2900 3844 2670 4047 
Q 2441 4250 2034 4250 
Q 1625 4250 1398 4047 
Q 1172 3844 1172 3481 
z
" transform="scale(0.015625)"/>
      <path id="DejaVuSans-2e" d="M 684 794 
L 1344 794 
L 1344 0 
L 684 0 
L 684 794 
z
" transform="scale(0.015625)"/>
      <path id="DejaVuSans-39" d="M 703 97 
L 703 672 
Q 941 559 1184 500 
Q 1428 441 1663 441 
Q 2288 441 2617 861 
Q 2947 1281 2994 2138 
Q 2813 1869 2534 1725 
Q 2256 1581 1919 1581 
Q 1219 1581 811 2004 
Q 403 2428 403 3163 
Q 403 3881 828 4315 
Q 1253 4750 1959 4750 
Q 2769 4750 3195 4129 
Q 3622 3509 3622 2328 
Q 3622 1225 3098 567 
Q 2575 -91 1691 -91 
Q 1453 -91 1209 -44 
Q 966 3 703 97 
z
M 1959 2075 
Q 2384 2075 2632 2365 
Q 2881 2656 2881 3163 
Q 2881 3666 2632 3958 
Q 2384 4250 1959 4250 
Q 1534 4250 1286 3958 
Q 1038 3666 1038 3163 
Q 1038 2656 1286 2365 
Q 1534 2075 1959 2075 
z
" transform="scale(0.015625)"/>
      <path id="DejaVuSans-25" d="M 4653 2053 
Q 4381 2053 4226 1822 
Q 4072 1591 4072 1178 
Q 4072 772 4226 539 
Q 4381 306 4653 306 
Q 4919 306 5073 539 
Q 5228 772 5228 1178 
Q 5228 1588 5073 1820 
Q 4919 2053 4653 2053 
z
M 4653 2450 
Q 5147 2450 5437 2106 
Q 5728 1763 5728 1178 
Q 5728 594 5436 251 
Q 5144 -91 4653 -91 
Q 4153 -91 3862 251 
Q 3572 594 3572 1178 
Q 3572 1766 3864 2108 
Q 4156 2450 4653 2450 
z
M 1428 4353 
Q 1159 4353 1004 4120 
Q 850 3888 850 3481 
Q 850 3069 1003 2837 
Q 1156 2606 1428 2606 
Q 1700 2606 1854 2837 
Q 2009 3069 2009 3481 
Q 2009 3884 1853 4118 
Q 1697 4353 1428 4353 
z
M 4250 4750 
L 4750 4750 
L 1831 -91 
L 1331 -91 
L 4250 4750 
z
M 1428 4750 
Q 1922 4750 2215 4408 
Q 2509 4066 2509 3481 
Q 2509 2891 2217 2550 
Q 1925 2209 1428 2209 
Q 931 2209 642 2551 
Q 353 2894 353 3481 
Q 353 4063 643 4406 
Q 934 4750 1428 4750 
z
" transform="scale(0.015625)"/>
      <path id="DejaVuSans-5d" d="M 1947 4863 
L 1947 -844 
L 622 -844 
L 622 -397 
L 1369 -397 
L 1369 4416 
L 622 4416 
L 622 4863 
L 1947 4863 
z
" transform="scale(0.015625)"/>
     </defs>
     <use xlink:href="#DejaVuSans-52"/>
     <use xlink:href="#DejaVuSans-20" x="69.482422"/>
     <use xlink:href="#DejaVuSans-5b" x="101.269531"/>
     <use xlink:href="#DejaVuSans-38" x="140.283203"/>
     <use xlink:href="#DejaVuSans-38" x="203.90625"/>
     <use xlink:href="#DejaVuSans-2e" x="267.529297"/>
     <use xlink:href="#DejaVuSans-39" x="299.316406"/>
     <use xlink:href="#DejaVuSans-25" x="362.939453"/>
     <use xlink:href="#DejaVuSans-5d" x="457.958984"/>
    </g>
   </g>
   <g id="patch_4">
    <path d="M 57.474924 19.864953 
L 67.933783 19.864953 
L 74.91866 28.183018 
" style="fill: none; stroke: #000000; stroke-linecap: round"/>
   </g>
   <g id="text_2">
    <g id="patch_5">
     <path d="M 7.215625 26.704015 
L 55.473438 26.704015 
L 55.473438 13.02589 
L 7.215625 13.02589 
z
" style="fill: #ffffff"/>
    </g>
    <!-- Q [5.6%] -->
    <g transform="translate(9.215625 22.624328) scale(0.1 -0.1)">
     <defs>
      <path id="DejaVuSans-51" d="M 2522 4238 
Q 1834 4238 1429 3725 
Q 1025 3213 1025 2328 
Q 1025 1447 1429 934 
Q 1834 422 2522 422 
Q 3209 422 3611 934 
Q 4013 1447 4013 2328 
Q 4013 3213 3611 3725 
Q 3209 4238 2522 4238 
z
M 3406 84 
L 4238 -825 
L 3475 -825 
L 2784 -78 
Q 2681 -84 2626 -87 
Q 2572 -91 2522 -91 
Q 1538 -91 948 567 
Q 359 1225 359 2328 
Q 359 3434 948 4092 
Q 1538 4750 2522 4750 
Q 3503 4750 4090 4092 
Q 4678 3434 4678 2328 
Q 4678 1516 4351 937 
Q 4025 359 3406 84 
z
" transform="scale(0.015625)"/>
      <path id="DejaVuSans-35" d="M 691 4666 
L 3169 4666 
L 3169 4134 
L 1269 4134 
L 1269 2991 
Q 1406 3038 1543 3061 
Q 1681 3084 1819 3084 
Q 2600 3084 3056 2656 
Q 3513 2228 3513 1497 
Q 3513 744 3044 326 
Q 2575 -91 1722 -91 
Q 1428 -91 1123 -41 
Q 819 9 494 109 
L 494 744 
Q 775 591 1075 516 
Q 1375 441 1709 441 
Q 2250 441 2565 725 
Q 2881 1009 2881 1497 
Q 2881 1984 2565 2268 
Q 2250 2553 1709 2553 
Q 1456 2553 1204 2497 
Q 953 2441 691 2322 
L 691 4666 
z
" transform="scale(0.015625)"/>
      <path id="DejaVuSans-36" d="M 2113 2584 
Q 1688 2584 1439 2293 
Q 1191 2003 1191 1497 
Q 1191 994 1439 701 
Q 1688 409 2113 409 
Q 2538 409 2786 701 
Q 3034 994 3034 1497 
Q 3034 2003 2786 2293 
Q 2538 2584 2113 2584 
z
M 3366 4563 
L 3366 3988 
Q 3128 4100 2886 4159 
Q 2644 4219 2406 4219 
Q 1781 4219 1451 3797 
Q 1122 3375 1075 2522 
Q 1259 2794 1537 2939 
Q 1816 3084 2150 3084 
Q 2853 3084 3261 2657 
Q 3669 2231 3669 1497 
Q 3669 778 3244 343 
Q 2819 -91 2113 -91 
Q 1303 -91 875 529 
Q 447 1150 447 2328 
Q 447 3434 972 4092 
Q 1497 4750 2381 4750 
Q 2619 4750 2861 4703 
Q 3103 4656 3366 4563 
z
" transform="scale(0.015625)"/>
     </defs>
     <use xlink:href="#DejaVuSans-51"/>
     <use xlink:href="#DejaVuSans-20" x="78.710938"/>
     <use xlink:href="#DejaVuSans-5b" x="110.498047"/>
     <use xlink:href="#DejaVuSans-35" x="149.511719"/>
     <use xlink:href="#DejaVuSans-2e" x="213.134766"/>
     <use xlink:href="#DejaVuSans-36" x="244.921875"/>
     <use xlink:href="#DejaVuSans-25" x="308.544922"/>
     <use xlink:href="#DejaVuSans-5d" x="403.564453"/>
    </g>
   </g>
   <g id="patch_6">
    <path d="M 57.478102 12.039062 
L 81.480989 12.039062 
L 85.197186 22.245364 
" style="fill: none; stroke: #000000; stroke-linecap: round"/>
   </g>
   <g id="text_3">
    <g id="patch_7">
     <path d="M 5.2 18.878125 
L 55.473438 18.878125 
L 55.473438 5.2 
L 5.2 5.2 
z
" style="fill: #ffffff"/>
    </g>
    <!-- W [5.6%] -->
    <g transform="translate(7.2 14.798438) scale(0.1 -0.1)">
     <defs>
      <path id="DejaVuSans-57" d="M 213 4666 
L 850 4666 
L 1831 722 
L 2809 4666 
L 3519 4666 
L 4500 722 
L 5478 4666 
L 6119 4666 
L 4947 0 
L 4153 0 
L 3169 4050 
L 2175 0 
L 1381 0 
L 213 4666 
z
" transform="scale(0.015625)"/>
     </defs>
     <use xlink:href="#DejaVuSans-57"/>
     <use xlink:href="#DejaVuSans-20" x="98.876953"/>
     <use xlink:href="#DejaVuSans-5b" x="130.664062"/>
     <use xlink:href="#DejaVuSans-35" x="169.677734"/>
     <use xlink:href="#DejaVuSans-2e" x="233.300781"/>
     <use xlink:href="#DejaVuSans-36" x="265.087891"/>
     <use xlink:href="#DejaVuSans-25" x="328.710938"/>
     <use xlink:href="#DejaVuSans-5d" x="423.730469"/>
    </g>
   </g>
   <g id="patch_8">
    <path d="M 72.240555 33.682659 
C 69.831139 36.556939 67.943079 39.830731 66.661922 43.355701 
C 65.380765 46.88067 64.726158 50.602763 64.72776 54.353332 
C 64.729363 58.103901 65.387151 61.825433 66.671319 65.349306 
C 67.955488 68.87318 69.846345 72.145357 72.258217 75.017577 
C 74.670088 77.889797 77.565989 80.318014 80.814707 82.192209 
C 84.063425 84.066403 87.615142 85.357833 91.30893 86.007986 
C 95.002719 86.658138 98.781936 86.657042 102.475347 86.004748 
C 106.168758 85.352454 109.719726 84.058964 112.967356 82.182886 
C 116.214987 80.306809 119.109479 77.876912 121.519685 75.003294 
C 123.929891 72.129676 125.81885 68.856403 127.100975 65.331786 
C 128.3831 61.807168 129.038729 58.085255 129.038157 54.334686 
C 129.037585 50.584116 128.380819 46.862404 127.097619 43.338178 
C 125.814418 39.813952 123.92446 36.541256 121.513377 33.668373 
C 119.102295 30.795491 116.207061 28.366478 112.958858 26.491391 
C 109.710655 24.616305 106.159293 23.323899 102.465683 22.672732 
C 98.772073 22.021565 94.992856 22.021623 91.299266 22.672902 
L 92.974373 32.17291 
C 95.559886 31.717014 98.205338 31.716973 100.790865 32.17279 
C 103.376392 32.628607 105.862346 33.533291 108.136088 34.845852 
C 110.40983 36.158412 112.436493 37.858722 114.124251 39.869739 
C 115.812009 41.880757 117.13498 44.171644 118.03322 46.638602 
C 118.931461 49.105561 119.391197 51.710759 119.391597 54.336158 
C 119.391998 56.961557 118.933057 59.566895 118.03557 62.034128 
C 117.138082 64.50136 115.815811 66.792651 114.128667 68.804184 
C 112.441523 70.815716 110.415378 72.516644 108.142037 73.829898 
C 105.868695 75.143153 103.383018 76.048596 100.79763 76.505201 
C 98.212243 76.961807 95.566791 76.962574 92.981139 76.507468 
C 90.395487 76.052361 87.909285 75.14836 85.635182 73.836424 
C 83.36108 72.524488 81.333949 70.824735 79.645639 68.814182 
C 77.957329 66.803628 76.633729 64.513104 75.734811 62.046392 
C 74.835893 59.579681 74.375441 56.974609 74.37432 54.34921 
C 74.373198 51.723812 74.831423 49.118347 75.728233 46.650868 
C 76.625042 44.18339 77.946684 41.891735 79.633276 39.879739 
z
" style="fill: #1f77b4"/>
   </g>
   <g id="patch_9">
    <path d="M 80.798564 26.496296 
C 79.176543 27.433298 77.639499 28.510247 76.204976 29.71485 
C 74.770453 30.919453 73.443932 32.247108 72.240555 33.682659 
L 79.633276 39.879739 
C 80.47564 38.874853 81.404204 37.945495 82.40837 37.102273 
C 83.412536 36.259051 84.488468 35.505186 85.623882 34.849285 
z
" style="fill: #ff7f0e"/>
   </g>
   <g id="patch_10">
    <path d="M 91.299277 22.6729 
C 89.454524 22.99818 87.641717 23.484038 85.881551 24.124928 
C 84.121386 24.765819 82.420585 25.559294 80.798564 26.496296 
L 85.623882 34.849285 
C 86.759297 34.193384 87.949857 33.637951 89.181973 33.189328 
C 90.414089 32.740704 91.683054 32.400603 92.974381 32.172908 
z
" style="fill: #2ca02c"/>
   </g>
   <g id="matplotlib.axis_1"/>
   <g id="matplotlib.axis_2"/>
  </g>
 </g>
</svg>
