<?xml version="1.0" encoding="utf-8" standalone="no"?>
<!DOCTYPE svg PUBLIC "-//W3C//DTD SVG 1.1//EN"
  "http://www.w3.org/Graphics/SVG/1.1/DTD/svg11.dtd">
<svg xmlns:xlink="http://www.w3.org/1999/xlink" width="198.317478pt" height="102.051908pt" viewBox="0 0 198.317478 102.051908" xmlns="http://www.w3.org/2000/svg" version="1.1">
 <metadata>
  <rdf:RDF xmlns:dc="http://purl.org/dc/elements/1.1/" xmlns:cc="http://creativecommons.org/ns#" xmlns:rdf="http://www.w3.org/1999/02/22-rdf-syntax-ns#">
   <cc:Work>
    <dc:type rdf:resource="http://purl.org/dc/dcmitype/StillImage"/>
    <dc:date>2023-10-13T11:23:56.188561</dc:date>
    <dc:format>image/svg+xml</dc:format>
    <dc:creator>
     <cc:Agent>
      <dc:title>Matplotlib v3.7.3, https://matplotlib.org/</dc:title>
     </cc:Agent>
    </dc:creator>
   </cc:Work>
  </rdf:RDF>
 </metadata>
 <defs>
  <style type="text/css">*{stroke-linejoin: round; stroke-linecap: butt}</style>
 </defs>
 <g id="figure_1">
  <g id="patch_1">
   <path d="M 0 102.051908 
L 198.317478 102.051908 
L 198.317478 0 
L 0 0 
z
" style="fill: #ffffff"/>
  </g>
  <g id="axes_1">
   <g id="patch_2">
    <path d="M 138.800022 90.012846 
L 121.894926 90.012846 
L 116.464354 80.606062 
" style="fill: none; stroke: #000000; stroke-linecap: round"/>
   </g>
   <g id="text_1">
    <g id="patch_3">
     <path d="M 140.797165 96.851908 
L 193.117477 96.851908 
L 193.117477 83.173783 
L 140.797165 83.173783 
z
" style="fill: #ffffff"/>
    </g>
    <!-- L [88.9%] -->
    <g transform="translate(142.797165 92.772221) scale(0.1 -0.1)">
     <defs>
      <path id="DejaVuSans-4c" d="M 628 4666 
L 1259 4666 
L 1259 531 
L 3531 531 
L 3531 0 
L 628 0 
L 628 4666 
z
" transform="scale(0.015625)"/>
      <path id="DejaVuSans-20" transform="scale(0.015625)"/>
      <path id="DejaVuSans-5b" d="M 550 4863 
L 1875 4863 
L 1875 4416 
L 1125 4416 
L 1125 -397 
L 1875 -397 
L 1875 -844 
L 550 -844 
L 550 4863 
z
" transform="scale(0.015625)"/>
      <path id="DejaVuSans-38" d="M 2034 2216 
Q 1584 2216 1326 1975 
Q 1069 1734 1069 1313 
Q 1069 891 1326 650 
Q 1584 409 2034 409 
Q 2484 409 2743 651 
Q 3003 894 3003 1313 
Q 3003 1734 2745 1975 
Q 2488 2216 2034 2216 
z
M 1403 2484 
Q 997 2584 770 2862 
Q 544 3141 544 3541 
Q 544 4100 942 4425 
Q 1341 4750 2034 4750 
Q 2731 4750 3128 4425 
Q 3525 4100 3525 3541 
Q 3525 3141 3298 2862 
Q 3072 2584 2669 2484 
Q 3125 2378 3379 2068 
Q 3634 1759 3634 1313 
Q 3634 634 3220 271 
Q 2806 -91 2034 -91 
Q 1263 -91 848 271 
Q 434 634 434 1313 
Q 434 1759 690 2068 
Q 947 2378 1403 2484 
z
M 1172 3481 
Q 1172 3119 1398 2916 
Q 1625 2713 2034 2713 
Q 2441 2713 2670 2916 
Q 2900 3119 2900 3481 
Q 2900 3844 2670 4047 
Q 2441 4250 2034 4250 
Q 1625 4250 1398 4047 
Q 1172 3844 1172 3481 
z
" transform="scale(0.015625)"/>
      <path id="DejaVuSans-2e" d="M 684 794 
L 1344 794 
L 1344 0 
L 684 0 
L 684 794 
z
" transform="scale(0.015625)"/>
      <path id="DejaVuSans-39" d="M 703 97 
L 703 672 
Q 941 559 1184 500 
Q 1428 441 1663 441 
Q 2288 441 2617 861 
Q 2947 1281 2994 2138 
Q 2813 1869 2534 1725 
Q 2256 1581 1919 1581 
Q 1219 1581 811 2004 
Q 403 2428 403 3163 
Q 403 3881 828 4315 
Q 1253 4750 1959 4750 
Q 2769 4750 3195 4129 
Q 3622 3509 3622 2328 
Q 3622 1225 3098 567 
Q 2575 -91 1691 -91 
Q 1453 -91 1209 -44 
Q 966 3 703 97 
z
M 1959 2075 
Q 2384 2075 2632 2365 
Q 2881 2656 2881 3163 
Q 2881 3666 2632 3958 
Q 2384 4250 1959 4250 
Q 1534 4250 1286 3958 
Q 1038 3666 1038 3163 
Q 1038 2656 1286 2365 
Q 1534 2075 1959 2075 
z
" transform="scale(0.015625)"/>
      <path id="DejaVuSans-25" d="M 4653 2053 
Q 4381 2053 4226 1822 
Q 4072 1591 4072 1178 
Q 4072 772 4226 539 
Q 4381 306 4653 306 
Q 4919 306 5073 539 
Q 5228 772 5228 1178 
Q 5228 1588 5073 1820 
Q 4919 2053 4653 2053 
z
M 4653 2450 
Q 5147 2450 5437 2106 
Q 5728 1763 5728 1178 
Q 5728 594 5436 251 
Q 5144 -91 4653 -91 
Q 4153 -91 3862 251 
Q 3572 594 3572 1178 
Q 3572 1766 3864 2108 
Q 4156 2450 4653 2450 
z
M 1428 4353 
Q 1159 4353 1004 4120 
Q 850 3888 850 3481 
Q 850 3069 1003 2837 
Q 1156 2606 1428 2606 
Q 1700 2606 1854 2837 
Q 2009 3069 2009 3481 
Q 2009 3884 1853 4118 
Q 1697 4353 1428 4353 
z
M 4250 4750 
L 4750 4750 
L 1831 -91 
L 1331 -91 
L 4250 4750 
z
M 1428 4750 
Q 1922 4750 2215 4408 
Q 2509 4066 2509 3481 
Q 2509 2891 2217 2550 
Q 1925 2209 1428 2209 
Q 931 2209 642 2551 
Q 353 2894 353 3481 
Q 353 4063 643 4406 
Q 934 4750 1428 4750 
z
" transform="scale(0.015625)"/>
      <path id="DejaVuSans-5d" d="M 1947 4863 
L 1947 -844 
L 622 -844 
L 622 -397 
L 1369 -397 
L 1369 4416 
L 622 4416 
L 622 4863 
L 1947 4863 
z
" transform="scale(0.015625)"/>
     </defs>
     <use xlink:href="#DejaVuSans-4c"/>
     <use xlink:href="#DejaVuSans-20" x="55.712891"/>
     <use xlink:href="#DejaVuSans-5b" x="87.5"/>
     <use xlink:href="#DejaVuSans-38" x="126.513672"/>
     <use xlink:href="#DejaVuSans-38" x="190.136719"/>
     <use xlink:href="#DejaVuSans-2e" x="253.759766"/>
     <use xlink:href="#DejaVuSans-39" x="285.546875"/>
     <use xlink:href="#DejaVuSans-25" x="349.169922"/>
     <use xlink:href="#DejaVuSans-5d" x="444.189453"/>
    </g>
   </g>
   <g id="patch_4">
    <path d="M 59.978389 12.039062 
L 76.880361 12.039062 
L 82.310934 21.445847 
" style="fill: none; stroke: #000000; stroke-linecap: round"/>
   </g>
   <g id="text_2">
    <g id="patch_5">
     <path d="M 5.2 18.878125 
L 57.978125 18.878125 
L 57.978125 5.2 
L 5.2 5.2 
z
" style="fill: #ffffff"/>
    </g>
    <!-- P [11.1%] -->
    <g transform="translate(7.2 14.798437) scale(0.1 -0.1)">
     <defs>
      <path id="DejaVuSans-50" d="M 1259 4147 
L 1259 2394 
L 2053 2394 
Q 2494 2394 2734 2622 
Q 2975 2850 2975 3272 
Q 2975 3691 2734 3919 
Q 2494 4147 2053 4147 
L 1259 4147 
z
M 628 4666 
L 2053 4666 
Q 2838 4666 3239 4311 
Q 3641 3956 3641 3272 
Q 3641 2581 3239 2228 
Q 2838 1875 2053 1875 
L 1259 1875 
L 1259 0 
L 628 0 
L 628 4666 
z
" transform="scale(0.015625)"/>
      <path id="DejaVuSans-31" d="M 794 531 
L 1825 531 
L 1825 4091 
L 703 3866 
L 703 4441 
L 1819 4666 
L 2450 4666 
L 2450 531 
L 3481 531 
L 3481 0 
L 794 0 
L 794 531 
z
" transform="scale(0.015625)"/>
     </defs>
     <use xlink:href="#DejaVuSans-50"/>
     <use xlink:href="#DejaVuSans-20" x="60.302734"/>
     <use xlink:href="#DejaVuSans-5b" x="92.089844"/>
     <use xlink:href="#DejaVuSans-31" x="131.103516"/>
     <use xlink:href="#DejaVuSans-31" x="194.726562"/>
     <use xlink:href="#DejaVuSans-2e" x="258.349609"/>
     <use xlink:href="#DejaVuSans-31" x="290.136719"/>
     <use xlink:href="#DejaVuSans-25" x="353.759766"/>
     <use xlink:href="#DejaVuSans-5d" x="448.779297"/>
    </g>
   </g>
   <g id="patch_6">
    <path d="M 74.756773 30.355272 
C 72.345511 33.228496 70.455489 36.5016 69.17236 40.026253 
C 67.88923 43.550906 67.232674 47.273046 67.232445 51.023992 
C 67.232216 54.774939 67.888319 58.497159 69.171018 62.021968 
C 70.453718 65.546778 72.343341 68.820112 74.754252 71.69363 
C 77.165164 74.567147 80.060386 76.996774 83.308711 78.872403 
C 86.557036 80.748032 90.108641 82.040894 93.802574 82.6924 
C 97.496506 83.343906 101.276109 83.344063 104.970095 82.692863 
C 108.664082 82.041662 112.215794 80.749094 115.464275 78.873734 
C 118.712755 76.998374 121.608178 74.568987 124.019327 71.695669 
C 126.430476 68.822351 128.32037 65.549172 129.603362 62.024469 
C 130.886353 58.499766 131.542763 54.7776 131.542845 51.026654 
C 131.542927 47.275708 130.886679 43.553513 129.603841 40.028754 
C 128.321003 36.503995 126.431252 33.230734 124.020227 30.357311 
C 121.609203 27.483888 118.713886 25.054375 115.465488 23.178873 
C 112.217089 21.303372 108.665433 20.010649 104.971475 19.359287 
C 101.277517 18.707926 97.497914 18.707918 93.803953 19.359263 
L 95.479061 28.85927 
C 98.064833 28.403329 100.710555 28.403335 103.296326 28.859287 
C 105.882097 29.31524 108.368256 30.220146 110.642135 31.532997 
C 112.916014 32.845848 114.942736 34.546508 116.630453 36.557904 
C 118.31817 38.5693 119.640996 40.860582 120.538982 43.327914 
C 121.436968 45.795245 121.896342 48.400781 121.896285 51.026444 
C 121.896228 53.652106 121.436741 56.257622 120.538647 58.724915 
C 119.640553 61.192207 118.317627 63.483431 116.629822 65.494754 
C 114.942018 67.506077 112.915222 69.206648 110.641286 70.5194 
C 108.36735 71.832152 105.881151 72.73695 103.29536 73.19279 
C 100.70957 73.64863 98.063848 73.64852 95.478095 73.192466 
C 92.892342 72.736412 90.406218 71.831408 88.132391 70.518468 
C 85.858564 69.205528 83.831908 67.504789 82.14427 65.493327 
C 80.456632 63.481865 79.133896 61.19053 78.236006 58.723164 
C 77.338116 56.255797 76.878845 53.650243 76.879005 51.024581 
C 76.879165 48.398918 77.338755 45.79342 78.236945 43.326163 
C 79.135136 40.858906 80.458151 38.567733 82.146035 36.556477 
z
" style="fill: #1f77b4"/>
   </g>
   <g id="patch_7">
    <path d="M 93.803949 19.359264 
C 90.110406 20.010536 86.559126 21.303026 83.311014 23.178174 
C 80.062901 25.053322 77.167763 27.482374 74.756773 30.355272 
L 82.146035 36.556477 
C 83.833727 34.545448 85.860324 32.845112 88.134003 31.532508 
C 90.407682 30.219904 92.893577 29.315161 95.479058 28.859271 
z
" style="fill: #ff7f0e"/>
   </g>
   <g id="matplotlib.axis_1"/>
   <g id="matplotlib.axis_2"/>
  </g>
 </g>
</svg>
