<?xml version="1.0" encoding="utf-8" standalone="no"?>
<!DOCTYPE svg PUBLIC "-//W3C//DTD SVG 1.1//EN"
  "http://www.w3.org/Graphics/SVG/1.1/DTD/svg11.dtd">
<svg xmlns:xlink="http://www.w3.org/1999/xlink" width="199.128415pt" height="94.788pt" viewBox="0 0 199.128415 94.788" xmlns="http://www.w3.org/2000/svg" version="1.1">
 <metadata>
  <rdf:RDF xmlns:dc="http://purl.org/dc/elements/1.1/" xmlns:cc="http://creativecommons.org/ns#" xmlns:rdf="http://www.w3.org/1999/02/22-rdf-syntax-ns#">
   <cc:Work>
    <dc:type rdf:resource="http://purl.org/dc/dcmitype/StillImage"/>
    <dc:date>2023-10-13T11:20:05.863161</dc:date>
    <dc:format>image/svg+xml</dc:format>
    <dc:creator>
     <cc:Agent>
      <dc:title>Matplotlib v3.7.3, https://matplotlib.org/</dc:title>
     </cc:Agent>
    </dc:creator>
   </cc:Work>
  </rdf:RDF>
 </metadata>
 <defs>
  <style type="text/css">*{stroke-linejoin: round; stroke-linecap: butt}</style>
 </defs>
 <g id="figure_1">
  <g id="patch_1">
   <path d="M 0 94.788 
L 199.128415 94.788 
L 199.128415 0 
L 0 0 
z
" style="fill: #ffffff"/>
  </g>
  <g id="axes_1">
   <g id="patch_2">
    <path d="M 139.61 78.757293 
L 132.492534 78.757293 
L 124.700627 71.189936 
" style="fill: none; stroke: #000000; stroke-linecap: round"/>
   </g>
   <g id="text_1">
    <g id="patch_3">
     <path d="M 141.608103 85.596356 
L 193.928415 85.596356 
L 193.928415 71.918231 
L 141.608103 71.918231 
z
" style="fill: #ffffff"/>
    </g>
    <!-- L [79.9%] -->
    <g transform="translate(143.608103 81.516668) scale(0.1 -0.1)">
     <defs>
      <path id="DejaVuSans-4c" d="M 628 4666 
L 1259 4666 
L 1259 531 
L 3531 531 
L 3531 0 
L 628 0 
L 628 4666 
z
" transform="scale(0.015625)"/>
      <path id="DejaVuSans-20" transform="scale(0.015625)"/>
      <path id="DejaVuSans-5b" d="M 550 4863 
L 1875 4863 
L 1875 4416 
L 1125 4416 
L 1125 -397 
L 1875 -397 
L 1875 -844 
L 550 -844 
L 550 4863 
z
" transform="scale(0.015625)"/>
      <path id="DejaVuSans-37" d="M 525 4666 
L 3525 4666 
L 3525 4397 
L 1831 0 
L 1172 0 
L 2766 4134 
L 525 4134 
L 525 4666 
z
" transform="scale(0.015625)"/>
      <path id="DejaVuSans-39" d="M 703 97 
L 703 672 
Q 941 559 1184 500 
Q 1428 441 1663 441 
Q 2288 441 2617 861 
Q 2947 1281 2994 2138 
Q 2813 1869 2534 1725 
Q 2256 1581 1919 1581 
Q 1219 1581 811 2004 
Q 403 2428 403 3163 
Q 403 3881 828 4315 
Q 1253 4750 1959 4750 
Q 2769 4750 3195 4129 
Q 3622 3509 3622 2328 
Q 3622 1225 3098 567 
Q 2575 -91 1691 -91 
Q 1453 -91 1209 -44 
Q 966 3 703 97 
z
M 1959 2075 
Q 2384 2075 2632 2365 
Q 2881 2656 2881 3163 
Q 2881 3666 2632 3958 
Q 2384 4250 1959 4250 
Q 1534 4250 1286 3958 
Q 1038 3666 1038 3163 
Q 1038 2656 1286 2365 
Q 1534 2075 1959 2075 
z
" transform="scale(0.015625)"/>
      <path id="DejaVuSans-2e" d="M 684 794 
L 1344 794 
L 1344 0 
L 684 0 
L 684 794 
z
" transform="scale(0.015625)"/>
      <path id="DejaVuSans-25" d="M 4653 2053 
Q 4381 2053 4226 1822 
Q 4072 1591 4072 1178 
Q 4072 772 4226 539 
Q 4381 306 4653 306 
Q 4919 306 5073 539 
Q 5228 772 5228 1178 
Q 5228 1588 5073 1820 
Q 4919 2053 4653 2053 
z
M 4653 2450 
Q 5147 2450 5437 2106 
Q 5728 1763 5728 1178 
Q 5728 594 5436 251 
Q 5144 -91 4653 -91 
Q 4153 -91 3862 251 
Q 3572 594 3572 1178 
Q 3572 1766 3864 2108 
Q 4156 2450 4653 2450 
z
M 1428 4353 
Q 1159 4353 1004 4120 
Q 850 3888 850 3481 
Q 850 3069 1003 2837 
Q 1156 2606 1428 2606 
Q 1700 2606 1854 2837 
Q 2009 3069 2009 3481 
Q 2009 3884 1853 4118 
Q 1697 4353 1428 4353 
z
M 4250 4750 
L 4750 4750 
L 1831 -91 
L 1331 -91 
L 4250 4750 
z
M 1428 4750 
Q 1922 4750 2215 4408 
Q 2509 4066 2509 3481 
Q 2509 2891 2217 2550 
Q 1925 2209 1428 2209 
Q 931 2209 642 2551 
Q 353 2894 353 3481 
Q 353 4063 643 4406 
Q 934 4750 1428 4750 
z
" transform="scale(0.015625)"/>
      <path id="DejaVuSans-5d" d="M 1947 4863 
L 1947 -844 
L 622 -844 
L 622 -397 
L 1369 -397 
L 1369 4416 
L 622 4416 
L 622 4863 
L 1947 4863 
z
" transform="scale(0.015625)"/>
     </defs>
     <use xlink:href="#DejaVuSans-4c"/>
     <use xlink:href="#DejaVuSans-20" x="55.712891"/>
     <use xlink:href="#DejaVuSans-5b" x="87.5"/>
     <use xlink:href="#DejaVuSans-37" x="126.513672"/>
     <use xlink:href="#DejaVuSans-39" x="190.136719"/>
     <use xlink:href="#DejaVuSans-2e" x="253.759766"/>
     <use xlink:href="#DejaVuSans-39" x="285.546875"/>
     <use xlink:href="#DejaVuSans-25" x="349.169922"/>
     <use xlink:href="#DejaVuSans-5d" x="444.189453"/>
    </g>
   </g>
   <g id="patch_4">
    <path d="M 60.789225 16.030707 
L 67.904631 16.030707 
L 75.696538 23.598064 
" style="fill: none; stroke: #000000; stroke-linecap: round"/>
   </g>
   <g id="text_2">
    <g id="patch_5">
     <path d="M 5.2 22.869769 
L 58.789063 22.869769 
L 58.789063 9.191644 
L 5.2 9.191644 
z
" style="fill: #ffffff"/>
    </g>
    <!-- A [19.9%] -->
    <g transform="translate(7.2 18.790082) scale(0.1 -0.1)">
     <defs>
      <path id="DejaVuSans-41" d="M 2188 4044 
L 1331 1722 
L 3047 1722 
L 2188 4044 
z
M 1831 4666 
L 2547 4666 
L 4325 0 
L 3669 0 
L 3244 1197 
L 1141 1197 
L 716 0 
L 50 0 
L 1831 4666 
z
" transform="scale(0.015625)"/>
      <path id="DejaVuSans-31" d="M 794 531 
L 1825 531 
L 1825 4091 
L 703 3866 
L 703 4441 
L 1819 4666 
L 2450 4666 
L 2450 531 
L 3481 531 
L 3481 0 
L 794 0 
L 794 531 
z
" transform="scale(0.015625)"/>
     </defs>
     <use xlink:href="#DejaVuSans-41"/>
     <use xlink:href="#DejaVuSans-20" x="68.408203"/>
     <use xlink:href="#DejaVuSans-5b" x="100.195312"/>
     <use xlink:href="#DejaVuSans-31" x="139.208984"/>
     <use xlink:href="#DejaVuSans-39" x="202.832031"/>
     <use xlink:href="#DejaVuSans-2e" x="266.455078"/>
     <use xlink:href="#DejaVuSans-39" x="298.242188"/>
     <use xlink:href="#DejaVuSans-25" x="361.865234"/>
     <use xlink:href="#DejaVuSans-5d" x="456.884766"/>
    </g>
   </g>
   <g id="patch_6">
    <path d="M 68.382196 42.738421 
C 67.893111 46.080841 67.933767 49.47955 68.502664 52.809316 
C 69.071562 56.139081 70.161627 59.358496 71.732694 62.348935 
C 73.303762 65.339375 75.336295 68.063652 77.755401 70.421385 
C 80.174507 72.779119 82.950104 74.74099 85.979919 76.234709 
C 89.009735 77.728429 92.256093 78.735422 95.599375 79.218584 
C 98.942657 79.701747 102.341289 79.655071 105.670041 79.080275 
C 108.998793 78.50548 112.216272 77.409713 115.203923 75.83335 
C 118.191575 74.256987 120.912247 72.219631 123.265691 69.796352 
C 125.619135 67.373073 127.576086 64.594005 129.064436 61.561548 
C 130.552785 58.529091 131.554026 55.280954 132.031265 51.936821 
C 132.508504 48.592689 132.455807 45.194145 131.875115 41.866416 
C 131.294423 38.538688 130.192958 35.323155 128.611305 32.338301 
C 127.029652 29.353447 124.987479 26.636388 122.560035 24.287241 
C 120.13259 21.938093 117.35006 19.986069 114.314971 18.503094 
C 111.279882 17.020119 108.029976 16.024634 104.685003 15.55332 
C 101.34003 15.082006 97.941585 15.140724 94.614891 15.72731 
L 96.289998 25.227317 
C 98.618684 24.816707 100.997596 24.775604 103.339077 25.105524 
C 105.680558 25.435444 107.955492 26.132283 110.080054 27.170366 
C 112.204617 28.208448 114.152388 29.574865 115.851599 31.219268 
C 117.55081 32.863672 118.980331 34.765613 120.087488 36.855011 
C 121.194645 38.944408 121.965671 41.195281 122.372155 43.524691 
C 122.778639 45.854101 122.815527 48.233082 122.48146 50.573975 
C 122.147393 52.914868 121.446524 55.188564 120.40468 57.311284 
C 119.362835 59.434004 117.992969 61.379351 116.345558 63.075647 
C 114.698148 64.771942 112.793677 66.198091 110.702321 67.301545 
C 108.610965 68.404999 106.35873 69.172036 104.028603 69.574393 
C 101.698477 69.976749 99.319435 70.009423 96.979137 69.671209 
C 94.63884 69.332995 92.366389 68.6281 90.245518 67.582496 
C 88.124647 66.536893 86.181729 65.163583 84.488355 63.51317 
C 82.794981 61.862756 81.372208 59.955762 80.272461 57.862455 
C 79.172714 55.769147 78.409668 53.515557 78.01144 51.184721 
C 77.613211 48.853885 77.584753 46.474789 77.927112 44.135094 
z
" style="fill: #1f77b4"/>
   </g>
   <g id="patch_7">
    <path d="M 94.614891 15.72731 
C 87.959225 16.900883 81.839973 20.143431 77.131474 24.991648 
C 72.422975 29.839864 69.3607 36.051292 68.382196 42.738421 
L 77.927112 44.135094 
C 78.612065 39.454104 80.755657 35.106105 84.051607 31.712353 
C 87.347556 28.318602 91.631032 26.048818 96.289998 25.227317 
z
" style="fill: #ff7f0e"/>
   </g>
   <g id="matplotlib.axis_1"/>
   <g id="matplotlib.axis_2"/>
  </g>
 </g>
</svg>
