<?xml version="1.0" encoding="utf-8" standalone="no"?>
<!DOCTYPE svg PUBLIC "-//W3C//DTD SVG 1.1//EN"
  "http://www.w3.org/Graphics/SVG/1.1/DTD/svg11.dtd">
<svg xmlns:xlink="http://www.w3.org/1999/xlink" width="199.592478pt" height="97.037596pt" viewBox="0 0 199.592478 97.037596" xmlns="http://www.w3.org/2000/svg" version="1.1">
 <metadata>
  <rdf:RDF xmlns:dc="http://purl.org/dc/elements/1.1/" xmlns:cc="http://creativecommons.org/ns#" xmlns:rdf="http://www.w3.org/1999/02/22-rdf-syntax-ns#">
   <cc:Work>
    <dc:type rdf:resource="http://purl.org/dc/dcmitype/StillImage"/>
    <dc:date>2023-10-13T11:22:07.828193</dc:date>
    <dc:format>image/svg+xml</dc:format>
    <dc:creator>
     <cc:Agent>
      <dc:title>Matplotlib v3.7.3, https://matplotlib.org/</dc:title>
     </cc:Agent>
    </dc:creator>
   </cc:Work>
  </rdf:RDF>
 </metadata>
 <defs>
  <style type="text/css">*{stroke-linejoin: round; stroke-linecap: butt}</style>
 </defs>
 <g id="figure_1">
  <g id="patch_1">
   <path d="M 0 97.037596 
L 199.592477 97.037596 
L 199.592477 0 
L 0 0 
z
" style="fill: #ffffff"/>
  </g>
  <g id="axes_1">
   <g id="patch_2">
    <path d="M 139.324892 84.998533 
L 126.293495 84.998533 
L 119.929059 76.196677 
" style="fill: none; stroke: #000000; stroke-linecap: round"/>
   </g>
   <g id="text_1">
    <g id="patch_3">
     <path d="M 141.32529 91.837596 
L 194.392477 91.837596 
L 194.392477 78.159471 
L 141.32529 78.159471 
z
" style="fill: #ffffff"/>
    </g>
    <!-- E [84.9%] -->
    <g transform="translate(143.32529 87.757908) scale(0.1 -0.1)">
     <defs>
      <path id="DejaVuSans-45" d="M 628 4666 
L 3578 4666 
L 3578 4134 
L 1259 4134 
L 1259 2753 
L 3481 2753 
L 3481 2222 
L 1259 2222 
L 1259 531 
L 3634 531 
L 3634 0 
L 628 0 
L 628 4666 
z
" transform="scale(0.015625)"/>
      <path id="DejaVuSans-20" transform="scale(0.015625)"/>
      <path id="DejaVuSans-5b" d="M 550 4863 
L 1875 4863 
L 1875 4416 
L 1125 4416 
L 1125 -397 
L 1875 -397 
L 1875 -844 
L 550 -844 
L 550 4863 
z
" transform="scale(0.015625)"/>
      <path id="DejaVuSans-38" d="M 2034 2216 
Q 1584 2216 1326 1975 
Q 1069 1734 1069 1313 
Q 1069 891 1326 650 
Q 1584 409 2034 409 
Q 2484 409 2743 651 
Q 3003 894 3003 1313 
Q 3003 1734 2745 1975 
Q 2488 2216 2034 2216 
z
M 1403 2484 
Q 997 2584 770 2862 
Q 544 3141 544 3541 
Q 544 4100 942 4425 
Q 1341 4750 2034 4750 
Q 2731 4750 3128 4425 
Q 3525 4100 3525 3541 
Q 3525 3141 3298 2862 
Q 3072 2584 2669 2484 
Q 3125 2378 3379 2068 
Q 3634 1759 3634 1313 
Q 3634 634 3220 271 
Q 2806 -91 2034 -91 
Q 1263 -91 848 271 
Q 434 634 434 1313 
Q 434 1759 690 2068 
Q 947 2378 1403 2484 
z
M 1172 3481 
Q 1172 3119 1398 2916 
Q 1625 2713 2034 2713 
Q 2441 2713 2670 2916 
Q 2900 3119 2900 3481 
Q 2900 3844 2670 4047 
Q 2441 4250 2034 4250 
Q 1625 4250 1398 4047 
Q 1172 3844 1172 3481 
z
" transform="scale(0.015625)"/>
      <path id="DejaVuSans-34" d="M 2419 4116 
L 825 1625 
L 2419 1625 
L 2419 4116 
z
M 2253 4666 
L 3047 4666 
L 3047 1625 
L 3713 1625 
L 3713 1100 
L 3047 1100 
L 3047 0 
L 2419 0 
L 2419 1100 
L 313 1100 
L 313 1709 
L 2253 4666 
z
" transform="scale(0.015625)"/>
      <path id="DejaVuSans-2e" d="M 684 794 
L 1344 794 
L 1344 0 
L 684 0 
L 684 794 
z
" transform="scale(0.015625)"/>
      <path id="DejaVuSans-39" d="M 703 97 
L 703 672 
Q 941 559 1184 500 
Q 1428 441 1663 441 
Q 2288 441 2617 861 
Q 2947 1281 2994 2138 
Q 2813 1869 2534 1725 
Q 2256 1581 1919 1581 
Q 1219 1581 811 2004 
Q 403 2428 403 3163 
Q 403 3881 828 4315 
Q 1253 4750 1959 4750 
Q 2769 4750 3195 4129 
Q 3622 3509 3622 2328 
Q 3622 1225 3098 567 
Q 2575 -91 1691 -91 
Q 1453 -91 1209 -44 
Q 966 3 703 97 
z
M 1959 2075 
Q 2384 2075 2632 2365 
Q 2881 2656 2881 3163 
Q 2881 3666 2632 3958 
Q 2384 4250 1959 4250 
Q 1534 4250 1286 3958 
Q 1038 3666 1038 3163 
Q 1038 2656 1286 2365 
Q 1534 2075 1959 2075 
z
" transform="scale(0.015625)"/>
      <path id="DejaVuSans-25" d="M 4653 2053 
Q 4381 2053 4226 1822 
Q 4072 1591 4072 1178 
Q 4072 772 4226 539 
Q 4381 306 4653 306 
Q 4919 306 5073 539 
Q 5228 772 5228 1178 
Q 5228 1588 5073 1820 
Q 4919 2053 4653 2053 
z
M 4653 2450 
Q 5147 2450 5437 2106 
Q 5728 1763 5728 1178 
Q 5728 594 5436 251 
Q 5144 -91 4653 -91 
Q 4153 -91 3862 251 
Q 3572 594 3572 1178 
Q 3572 1766 3864 2108 
Q 4156 2450 4653 2450 
z
M 1428 4353 
Q 1159 4353 1004 4120 
Q 850 3888 850 3481 
Q 850 3069 1003 2837 
Q 1156 2606 1428 2606 
Q 1700 2606 1854 2837 
Q 2009 3069 2009 3481 
Q 2009 3884 1853 4118 
Q 1697 4353 1428 4353 
z
M 4250 4750 
L 4750 4750 
L 1831 -91 
L 1331 -91 
L 4250 4750 
z
M 1428 4750 
Q 1922 4750 2215 4408 
Q 2509 4066 2509 3481 
Q 2509 2891 2217 2550 
Q 1925 2209 1428 2209 
Q 931 2209 642 2551 
Q 353 2894 353 3481 
Q 353 4063 643 4406 
Q 934 4750 1428 4750 
z
" transform="scale(0.015625)"/>
      <path id="DejaVuSans-5d" d="M 1947 4863 
L 1947 -844 
L 622 -844 
L 622 -397 
L 1369 -397 
L 1369 4416 
L 622 4416 
L 622 4863 
L 1947 4863 
z
" transform="scale(0.015625)"/>
     </defs>
     <use xlink:href="#DejaVuSans-45"/>
     <use xlink:href="#DejaVuSans-20" x="63.183594"/>
     <use xlink:href="#DejaVuSans-5b" x="94.970703"/>
     <use xlink:href="#DejaVuSans-38" x="133.984375"/>
     <use xlink:href="#DejaVuSans-34" x="197.607422"/>
     <use xlink:href="#DejaVuSans-2e" x="261.230469"/>
     <use xlink:href="#DejaVuSans-39" x="293.017578"/>
     <use xlink:href="#DejaVuSans-25" x="356.640625"/>
     <use xlink:href="#DejaVuSans-5d" x="451.660156"/>
    </g>
   </g>
   <g id="patch_4">
    <path d="M 60.504463 12.039062 
L 73.538044 12.039062 
L 79.90248 20.840918 
" style="fill: none; stroke: #000000; stroke-linecap: round"/>
   </g>
   <g id="text_2">
    <g id="patch_5">
     <path d="M 5.2 18.878125 
L 58.50625 18.878125 
L 58.50625 5.2 
L 5.2 5.2 
z
" style="fill: #ffffff"/>
    </g>
    <!-- K [14.2%] -->
    <g transform="translate(7.2 14.798437) scale(0.1 -0.1)">
     <defs>
      <path id="DejaVuSans-4b" d="M 628 4666 
L 1259 4666 
L 1259 2694 
L 3353 4666 
L 4166 4666 
L 1850 2491 
L 4331 0 
L 3500 0 
L 1259 2247 
L 1259 0 
L 628 0 
L 628 4666 
z
" transform="scale(0.015625)"/>
      <path id="DejaVuSans-31" d="M 794 531 
L 1825 531 
L 1825 4091 
L 703 3866 
L 703 4441 
L 1819 4666 
L 2450 4666 
L 2450 531 
L 3481 531 
L 3481 0 
L 794 0 
L 794 531 
z
" transform="scale(0.015625)"/>
      <path id="DejaVuSans-32" d="M 1228 531 
L 3431 531 
L 3431 0 
L 469 0 
L 469 531 
Q 828 903 1448 1529 
Q 2069 2156 2228 2338 
Q 2531 2678 2651 2914 
Q 2772 3150 2772 3378 
Q 2772 3750 2511 3984 
Q 2250 4219 1831 4219 
Q 1534 4219 1204 4116 
Q 875 4013 500 3803 
L 500 4441 
Q 881 4594 1212 4672 
Q 1544 4750 1819 4750 
Q 2544 4750 2975 4387 
Q 3406 4025 3406 3419 
Q 3406 3131 3298 2873 
Q 3191 2616 2906 2266 
Q 2828 2175 2409 1742 
Q 1991 1309 1228 531 
z
" transform="scale(0.015625)"/>
     </defs>
     <use xlink:href="#DejaVuSans-4b"/>
     <use xlink:href="#DejaVuSans-20" x="65.576172"/>
     <use xlink:href="#DejaVuSans-5b" x="97.363281"/>
     <use xlink:href="#DejaVuSans-31" x="136.376953"/>
     <use xlink:href="#DejaVuSans-34" x="200"/>
     <use xlink:href="#DejaVuSans-2e" x="263.623047"/>
     <use xlink:href="#DejaVuSans-32" x="295.410156"/>
     <use xlink:href="#DejaVuSans-25" x="359.033203"/>
     <use xlink:href="#DejaVuSans-5d" x="454.052734"/>
    </g>
   </g>
   <g id="patch_6">
    <path d="M 71.593265 33.294062 
C 69.882766 36.476094 68.720686 39.923754 68.155923 43.491971 
C 67.591159 47.060188 67.631746 50.698202 68.275976 54.252932 
C 68.920205 57.807661 70.158913 61.228537 71.939977 64.371616 
C 73.72104 67.514695 76.019122 70.335264 78.737524 72.714639 
C 81.455925 75.094014 84.555975 76.998347 87.907229 78.347505 
C 91.258483 79.696664 94.813267 80.471457 98.422002 80.639282 
C 102.030737 80.807107 105.642086 80.365576 109.10409 79.333269 
C 112.566094 78.300962 115.829505 76.692563 118.757002 74.575751 
C 121.684499 72.45894 124.234439 69.863829 126.299523 66.899616 
C 128.364607 63.935402 129.915458 60.644255 130.88682 57.164659 
C 131.858183 53.685063 132.236237 50.066518 132.005076 46.461286 
C 131.773914 42.856054 130.936826 39.315422 129.529034 35.988374 
C 128.121241 32.661325 126.162771 29.595189 123.736034 26.918984 
C 121.309296 24.242779 118.448811 21.994574 115.274945 20.268972 
C 112.101079 18.543369 108.65898 17.364916 105.093488 16.7832 
C 101.527995 16.201484 97.889829 16.224779 94.332078 16.852107 
L 96.007186 26.352114 
C 98.497611 25.912985 101.044327 25.896678 103.540172 26.303879 
C 106.036017 26.711081 108.445486 27.535998 110.667192 28.743919 
C 112.888899 29.951841 114.891238 31.525584 116.589954 33.398928 
C 118.288671 35.272272 119.6596 37.418567 120.645054 39.747501 
C 121.630509 42.076435 122.216471 44.554877 122.378284 47.07854 
C 122.540097 49.602202 122.275459 52.135183 121.595505 54.5709 
C 120.915552 57.006618 119.829956 59.310421 118.384397 61.38537 
C 116.938838 63.460319 115.153881 65.276897 113.104632 66.758665 
C 111.055384 68.240433 108.770997 69.366312 106.347594 70.088927 
C 103.924191 70.811542 101.396247 71.120614 98.870132 71.003137 
C 96.344018 70.885659 93.855669 70.343304 91.509791 69.398893 
C 89.163914 68.454482 86.993879 67.121449 85.090998 65.455887 
C 83.188116 63.790324 81.579459 61.815926 80.332715 59.61577 
C 79.08597 57.415615 78.218875 55.021002 77.767914 52.532691 
C 77.316953 50.044381 77.288542 47.497771 77.683877 45.000019 
C 78.079211 42.502267 78.892667 40.088905 80.090016 37.861482 
z
" style="fill: #1f77b4"/>
   </g>
   <g id="patch_7">
    <path d="M 94.332075 16.852107 
C 89.545933 17.696034 85.012817 19.614157 81.074537 22.461844 
C 77.136257 25.309531 73.89435 29.013363 71.593265 33.294062 
L 80.090016 37.861482 
C 81.700776 34.864993 83.970111 32.272311 86.726907 30.27893 
C 89.483703 28.285549 92.656884 26.942863 96.007184 26.352114 
z
" style="fill: #ff7f0e"/>
   </g>
   <g id="matplotlib.axis_1"/>
   <g id="matplotlib.axis_2"/>
  </g>
 </g>
</svg>
