<?xml version="1.0" encoding="utf-8" standalone="no"?>
<!DOCTYPE svg PUBLIC "-//W3C//DTD SVG 1.1//EN"
  "http://www.w3.org/Graphics/SVG/1.1/DTD/svg11.dtd">
<svg xmlns:xlink="http://www.w3.org/1999/xlink" width="195.773728pt" height="94.788pt" viewBox="0 0 195.773728 94.788" xmlns="http://www.w3.org/2000/svg" version="1.1">
 <metadata>
  <rdf:RDF xmlns:dc="http://purl.org/dc/elements/1.1/" xmlns:cc="http://creativecommons.org/ns#" xmlns:rdf="http://www.w3.org/1999/02/22-rdf-syntax-ns#">
   <cc:Work>
    <dc:type rdf:resource="http://purl.org/dc/dcmitype/StillImage"/>
    <dc:date>2023-10-13T11:20:05.665041</dc:date>
    <dc:format>image/svg+xml</dc:format>
    <dc:creator>
     <cc:Agent>
      <dc:title>Matplotlib v3.7.3, https://matplotlib.org/</dc:title>
     </cc:Agent>
    </dc:creator>
   </cc:Work>
  </rdf:RDF>
 </metadata>
 <defs>
  <style type="text/css">*{stroke-linejoin: round; stroke-linecap: butt}</style>
 </defs>
 <g id="figure_1">
  <g id="patch_1">
   <path d="M 0 94.788 
L 195.773728 94.788 
L 195.773728 0 
L 0 0 
z
" style="fill: #ffffff"/>
  </g>
  <g id="axes_1">
   <g id="patch_2">
    <path d="M 135.720538 78.671761 
L 128.684757 78.671761 
L 120.87286 71.125042 
" style="fill: none; stroke: #000000; stroke-linecap: round"/>
   </g>
   <g id="text_1">
    <g id="patch_3">
     <path d="M 137.717478 85.510824 
L 190.573728 85.510824 
L 190.573728 71.832699 
L 137.717478 71.832699 
z
" style="fill: #ffffff"/>
    </g>
    <!-- T [79.6%] -->
    <g transform="translate(139.717478 81.431136) scale(0.1 -0.1)">
     <defs>
      <path id="DejaVuSans-54" d="M -19 4666 
L 3928 4666 
L 3928 4134 
L 2272 4134 
L 2272 0 
L 1638 0 
L 1638 4134 
L -19 4134 
L -19 4666 
z
" transform="scale(0.015625)"/>
      <path id="DejaVuSans-20" transform="scale(0.015625)"/>
      <path id="DejaVuSans-5b" d="M 550 4863 
L 1875 4863 
L 1875 4416 
L 1125 4416 
L 1125 -397 
L 1875 -397 
L 1875 -844 
L 550 -844 
L 550 4863 
z
" transform="scale(0.015625)"/>
      <path id="DejaVuSans-37" d="M 525 4666 
L 3525 4666 
L 3525 4397 
L 1831 0 
L 1172 0 
L 2766 4134 
L 525 4134 
L 525 4666 
z
" transform="scale(0.015625)"/>
      <path id="DejaVuSans-39" d="M 703 97 
L 703 672 
Q 941 559 1184 500 
Q 1428 441 1663 441 
Q 2288 441 2617 861 
Q 2947 1281 2994 2138 
Q 2813 1869 2534 1725 
Q 2256 1581 1919 1581 
Q 1219 1581 811 2004 
Q 403 2428 403 3163 
Q 403 3881 828 4315 
Q 1253 4750 1959 4750 
Q 2769 4750 3195 4129 
Q 3622 3509 3622 2328 
Q 3622 1225 3098 567 
Q 2575 -91 1691 -91 
Q 1453 -91 1209 -44 
Q 966 3 703 97 
z
M 1959 2075 
Q 2384 2075 2632 2365 
Q 2881 2656 2881 3163 
Q 2881 3666 2632 3958 
Q 2384 4250 1959 4250 
Q 1534 4250 1286 3958 
Q 1038 3666 1038 3163 
Q 1038 2656 1286 2365 
Q 1534 2075 1959 2075 
z
" transform="scale(0.015625)"/>
      <path id="DejaVuSans-2e" d="M 684 794 
L 1344 794 
L 1344 0 
L 684 0 
L 684 794 
z
" transform="scale(0.015625)"/>
      <path id="DejaVuSans-36" d="M 2113 2584 
Q 1688 2584 1439 2293 
Q 1191 2003 1191 1497 
Q 1191 994 1439 701 
Q 1688 409 2113 409 
Q 2538 409 2786 701 
Q 3034 994 3034 1497 
Q 3034 2003 2786 2293 
Q 2538 2584 2113 2584 
z
M 3366 4563 
L 3366 3988 
Q 3128 4100 2886 4159 
Q 2644 4219 2406 4219 
Q 1781 4219 1451 3797 
Q 1122 3375 1075 2522 
Q 1259 2794 1537 2939 
Q 1816 3084 2150 3084 
Q 2853 3084 3261 2657 
Q 3669 2231 3669 1497 
Q 3669 778 3244 343 
Q 2819 -91 2113 -91 
Q 1303 -91 875 529 
Q 447 1150 447 2328 
Q 447 3434 972 4092 
Q 1497 4750 2381 4750 
Q 2619 4750 2861 4703 
Q 3103 4656 3366 4563 
z
" transform="scale(0.015625)"/>
      <path id="DejaVuSans-25" d="M 4653 2053 
Q 4381 2053 4226 1822 
Q 4072 1591 4072 1178 
Q 4072 772 4226 539 
Q 4381 306 4653 306 
Q 4919 306 5073 539 
Q 5228 772 5228 1178 
Q 5228 1588 5073 1820 
Q 4919 2053 4653 2053 
z
M 4653 2450 
Q 5147 2450 5437 2106 
Q 5728 1763 5728 1178 
Q 5728 594 5436 251 
Q 5144 -91 4653 -91 
Q 4153 -91 3862 251 
Q 3572 594 3572 1178 
Q 3572 1766 3864 2108 
Q 4156 2450 4653 2450 
z
M 1428 4353 
Q 1159 4353 1004 4120 
Q 850 3888 850 3481 
Q 850 3069 1003 2837 
Q 1156 2606 1428 2606 
Q 1700 2606 1854 2837 
Q 2009 3069 2009 3481 
Q 2009 3884 1853 4118 
Q 1697 4353 1428 4353 
z
M 4250 4750 
L 4750 4750 
L 1831 -91 
L 1331 -91 
L 4250 4750 
z
M 1428 4750 
Q 1922 4750 2215 4408 
Q 2509 4066 2509 3481 
Q 2509 2891 2217 2550 
Q 1925 2209 1428 2209 
Q 931 2209 642 2551 
Q 353 2894 353 3481 
Q 353 4063 643 4406 
Q 934 4750 1428 4750 
z
" transform="scale(0.015625)"/>
      <path id="DejaVuSans-5d" d="M 1947 4863 
L 1947 -844 
L 622 -844 
L 622 -397 
L 1369 -397 
L 1369 4416 
L 622 4416 
L 622 4863 
L 1947 4863 
z
" transform="scale(0.015625)"/>
     </defs>
     <use xlink:href="#DejaVuSans-54"/>
     <use xlink:href="#DejaVuSans-20" x="61.083984"/>
     <use xlink:href="#DejaVuSans-5b" x="92.871094"/>
     <use xlink:href="#DejaVuSans-37" x="131.884766"/>
     <use xlink:href="#DejaVuSans-39" x="195.507812"/>
     <use xlink:href="#DejaVuSans-2e" x="259.130859"/>
     <use xlink:href="#DejaVuSans-36" x="290.917969"/>
     <use xlink:href="#DejaVuSans-25" x="354.541016"/>
     <use xlink:href="#DejaVuSans-5d" x="449.560547"/>
    </g>
   </g>
   <g id="patch_4">
    <path d="M 56.899417 16.11624 
L 63.931157 16.11624 
L 71.743054 23.66296 
" style="fill: none; stroke: #000000; stroke-linecap: round"/>
   </g>
   <g id="text_2">
    <g id="patch_5">
     <path d="M 5.2 22.955303 
L 54.898438 22.955303 
L 54.898438 9.277178 
L 5.2 9.277178 
z
" style="fill: #ffffff"/>
    </g>
    <!-- I [19.9%] -->
    <g transform="translate(7.2 18.875615) scale(0.1 -0.1)">
     <defs>
      <path id="DejaVuSans-49" d="M 628 4666 
L 1259 4666 
L 1259 0 
L 628 0 
L 628 4666 
z
" transform="scale(0.015625)"/>
      <path id="DejaVuSans-31" d="M 794 531 
L 1825 531 
L 1825 4091 
L 703 3866 
L 703 4441 
L 1819 4666 
L 2450 4666 
L 2450 531 
L 3481 531 
L 3481 0 
L 794 0 
L 794 531 
z
" transform="scale(0.015625)"/>
     </defs>
     <use xlink:href="#DejaVuSans-49"/>
     <use xlink:href="#DejaVuSans-20" x="29.492188"/>
     <use xlink:href="#DejaVuSans-5b" x="61.279297"/>
     <use xlink:href="#DejaVuSans-31" x="100.292969"/>
     <use xlink:href="#DejaVuSans-39" x="163.916016"/>
     <use xlink:href="#DejaVuSans-2e" x="227.539062"/>
     <use xlink:href="#DejaVuSans-39" x="259.326172"/>
     <use xlink:href="#DejaVuSans-25" x="322.949219"/>
     <use xlink:href="#DejaVuSans-5d" x="417.96875"/>
    </g>
   </g>
   <g id="patch_6">
    <path d="M 64.467387 42.906803 
C 63.996489 46.248233 64.0545 49.643058 64.639287 52.966449 
C 65.224074 56.28984 66.32838 59.500557 67.9116 62.480543 
C 69.494821 65.460529 71.537309 68.172805 73.963963 70.517641 
C 76.390616 72.862477 79.171324 74.810775 82.203838 76.290898 
C 85.236351 77.77102 88.483042 78.764599 91.824528 79.235102 
C 95.166015 79.705604 98.560832 79.647191 101.884154 79.062011 
C 105.207476 78.476831 108.418063 77.372144 111.397861 75.788572 
C 114.37766 74.204999 117.089694 72.162189 119.434243 69.735258 
C 121.778791 67.308327 123.726761 64.527389 125.206524 61.4947 
C 126.686287 58.462011 127.679482 55.215203 128.149589 51.873661 
C 128.619696 48.532119 128.560882 45.137308 127.975308 41.814056 
C 127.389735 38.490803 126.284669 35.280347 124.700743 32.300736 
C 123.116818 29.321125 121.073687 26.609332 118.646479 24.265071 
C 116.21927 21.92081 113.438102 19.973169 110.405237 18.493765 
C 107.372373 17.014361 104.125448 16.02155 100.78385 15.551838 
C 97.442253 15.082127 94.047449 15.141343 90.724266 15.72731 
L 92.399373 25.227317 
C 94.725601 24.81714 97.101964 24.775689 99.441082 25.104487 
C 101.780201 25.433285 104.053049 26.128252 106.176053 27.163835 
C 108.299058 28.199419 110.245876 29.562767 111.944922 31.20375 
C 113.643968 32.844733 115.07416 34.742987 116.182907 36.828715 
C 117.291655 38.914443 118.065202 41.161762 118.475103 43.488039 
C 118.885005 45.814316 118.926175 48.190683 118.5971 50.529763 
C 118.268025 52.868842 117.572788 55.141608 116.536954 57.26449 
C 115.50112 59.387372 114.137541 61.334029 112.496357 63.032881 
C 110.855173 64.731733 108.956749 66.161699 106.87089 67.2702 
C 104.785031 68.378701 102.53762 69.151981 100.211295 69.561608 
C 97.88497 69.971234 95.508597 70.012123 93.169557 69.682771 
C 90.830517 69.353419 88.557833 68.657914 86.435074 67.621828 
C 84.312314 66.585743 82.365819 65.221934 80.667161 63.580549 
C 78.968503 61.939164 77.538762 60.04057 76.430508 57.95458 
C 75.322253 55.86859 74.549239 53.621088 74.139888 51.294714 
C 73.730537 48.968341 73.689929 46.591963 74.019558 44.252962 
z
" style="fill: #1f77b4"/>
   </g>
   <g id="patch_7">
    <path d="M 90.724263 15.72731 
C 84.040001 16.905927 77.897504 20.171205 73.181671 25.052743 
C 68.465839 29.934281 65.414552 36.185838 64.467387 42.906803 
L 74.019558 44.252962 
C 74.682574 39.548287 76.818474 35.172196 80.119557 31.75512 
C 83.42064 28.338044 87.720388 26.052349 92.399371 25.227317 
z
" style="fill: #ff7f0e"/>
   </g>
   <g id="matplotlib.axis_1"/>
   <g id="matplotlib.axis_2"/>
  </g>
 </g>
</svg>
