<?xml version="1.0" encoding="utf-8" standalone="no"?>
<!DOCTYPE svg PUBLIC "-//W3C//DTD SVG 1.1//EN"
  "http://www.w3.org/Graphics/SVG/1.1/DTD/svg11.dtd">
<svg xmlns:xlink="http://www.w3.org/1999/xlink" width="194.034665pt" height="105.236615pt" viewBox="0 0 194.034665 105.236615" xmlns="http://www.w3.org/2000/svg" version="1.1">
 <metadata>
  <rdf:RDF xmlns:dc="http://purl.org/dc/elements/1.1/" xmlns:cc="http://creativecommons.org/ns#" xmlns:rdf="http://www.w3.org/1999/02/22-rdf-syntax-ns#">
   <cc:Work>
    <dc:type rdf:resource="http://purl.org/dc/dcmitype/StillImage"/>
    <dc:date>2023-10-13T11:20:18.730544</dc:date>
    <dc:format>image/svg+xml</dc:format>
    <dc:creator>
     <cc:Agent>
      <dc:title>Matplotlib v3.7.3, https://matplotlib.org/</dc:title>
     </cc:Agent>
    </dc:creator>
   </cc:Work>
  </rdf:RDF>
 </metadata>
 <defs>
  <style type="text/css">*{stroke-linejoin: round; stroke-linecap: butt}</style>
 </defs>
 <g id="figure_1">
  <g id="patch_1">
   <path d="M 0 105.236615 
L 194.034665 105.236615 
L 194.034665 0 
L 0 0 
z
" style="fill: #ffffff"/>
  </g>
  <g id="axes_1">
   <g id="patch_2">
    <path d="M 133.249322 93.197552 
L 113.3266 93.197552 
L 108.623914 83.406564 
" style="fill: none; stroke: #000000; stroke-linecap: round"/>
   </g>
   <g id="text_1">
    <g id="patch_3">
     <path d="M 135.245603 100.036615 
L 188.834665 100.036615 
L 188.834665 86.35849 
L 135.245603 86.35849 
z
" style="fill: #ffffff"/>
    </g>
    <!-- A [90.9%] -->
    <g transform="translate(137.245603 95.956927) scale(0.1 -0.1)">
     <defs>
      <path id="DejaVuSans-41" d="M 2188 4044 
L 1331 1722 
L 3047 1722 
L 2188 4044 
z
M 1831 4666 
L 2547 4666 
L 4325 0 
L 3669 0 
L 3244 1197 
L 1141 1197 
L 716 0 
L 50 0 
L 1831 4666 
z
" transform="scale(0.015625)"/>
      <path id="DejaVuSans-20" transform="scale(0.015625)"/>
      <path id="DejaVuSans-5b" d="M 550 4863 
L 1875 4863 
L 1875 4416 
L 1125 4416 
L 1125 -397 
L 1875 -397 
L 1875 -844 
L 550 -844 
L 550 4863 
z
" transform="scale(0.015625)"/>
      <path id="DejaVuSans-39" d="M 703 97 
L 703 672 
Q 941 559 1184 500 
Q 1428 441 1663 441 
Q 2288 441 2617 861 
Q 2947 1281 2994 2138 
Q 2813 1869 2534 1725 
Q 2256 1581 1919 1581 
Q 1219 1581 811 2004 
Q 403 2428 403 3163 
Q 403 3881 828 4315 
Q 1253 4750 1959 4750 
Q 2769 4750 3195 4129 
Q 3622 3509 3622 2328 
Q 3622 1225 3098 567 
Q 2575 -91 1691 -91 
Q 1453 -91 1209 -44 
Q 966 3 703 97 
z
M 1959 2075 
Q 2384 2075 2632 2365 
Q 2881 2656 2881 3163 
Q 2881 3666 2632 3958 
Q 2384 4250 1959 4250 
Q 1534 4250 1286 3958 
Q 1038 3666 1038 3163 
Q 1038 2656 1286 2365 
Q 1534 2075 1959 2075 
z
" transform="scale(0.015625)"/>
      <path id="DejaVuSans-30" d="M 2034 4250 
Q 1547 4250 1301 3770 
Q 1056 3291 1056 2328 
Q 1056 1369 1301 889 
Q 1547 409 2034 409 
Q 2525 409 2770 889 
Q 3016 1369 3016 2328 
Q 3016 3291 2770 3770 
Q 2525 4250 2034 4250 
z
M 2034 4750 
Q 2819 4750 3233 4129 
Q 3647 3509 3647 2328 
Q 3647 1150 3233 529 
Q 2819 -91 2034 -91 
Q 1250 -91 836 529 
Q 422 1150 422 2328 
Q 422 3509 836 4129 
Q 1250 4750 2034 4750 
z
" transform="scale(0.015625)"/>
      <path id="DejaVuSans-2e" d="M 684 794 
L 1344 794 
L 1344 0 
L 684 0 
L 684 794 
z
" transform="scale(0.015625)"/>
      <path id="DejaVuSans-25" d="M 4653 2053 
Q 4381 2053 4226 1822 
Q 4072 1591 4072 1178 
Q 4072 772 4226 539 
Q 4381 306 4653 306 
Q 4919 306 5073 539 
Q 5228 772 5228 1178 
Q 5228 1588 5073 1820 
Q 4919 2053 4653 2053 
z
M 4653 2450 
Q 5147 2450 5437 2106 
Q 5728 1763 5728 1178 
Q 5728 594 5436 251 
Q 5144 -91 4653 -91 
Q 4153 -91 3862 251 
Q 3572 594 3572 1178 
Q 3572 1766 3864 2108 
Q 4156 2450 4653 2450 
z
M 1428 4353 
Q 1159 4353 1004 4120 
Q 850 3888 850 3481 
Q 850 3069 1003 2837 
Q 1156 2606 1428 2606 
Q 1700 2606 1854 2837 
Q 2009 3069 2009 3481 
Q 2009 3884 1853 4118 
Q 1697 4353 1428 4353 
z
M 4250 4750 
L 4750 4750 
L 1831 -91 
L 1331 -91 
L 4250 4750 
z
M 1428 4750 
Q 1922 4750 2215 4408 
Q 2509 4066 2509 3481 
Q 2509 2891 2217 2550 
Q 1925 2209 1428 2209 
Q 931 2209 642 2551 
Q 353 2894 353 3481 
Q 353 4063 643 4406 
Q 934 4750 1428 4750 
z
" transform="scale(0.015625)"/>
      <path id="DejaVuSans-5d" d="M 1947 4863 
L 1947 -844 
L 622 -844 
L 622 -397 
L 1369 -397 
L 1369 4416 
L 622 4416 
L 622 4863 
L 1947 4863 
z
" transform="scale(0.015625)"/>
     </defs>
     <use xlink:href="#DejaVuSans-41"/>
     <use xlink:href="#DejaVuSans-20" x="68.408203"/>
     <use xlink:href="#DejaVuSans-5b" x="100.195312"/>
     <use xlink:href="#DejaVuSans-39" x="139.208984"/>
     <use xlink:href="#DejaVuSans-30" x="202.832031"/>
     <use xlink:href="#DejaVuSans-2e" x="266.455078"/>
     <use xlink:href="#DejaVuSans-39" x="298.242188"/>
     <use xlink:href="#DejaVuSans-25" x="361.865234"/>
     <use xlink:href="#DejaVuSans-5d" x="456.884766"/>
    </g>
   </g>
   <g id="patch_4">
    <path d="M 54.425711 12.039063 
L 74.34556 12.039063 
L 79.048246 21.83005 
" style="fill: none; stroke: #000000; stroke-linecap: round"/>
   </g>
   <g id="text_2">
    <g id="patch_5">
     <path d="M 5.2 18.878125 
L 52.426563 18.878125 
L 52.426563 5.2 
L 5.2 5.2 
z
" style="fill: #ffffff"/>
    </g>
    <!-- V [8.7%] -->
    <g transform="translate(7.2 14.798438) scale(0.1 -0.1)">
     <defs>
      <path id="DejaVuSans-56" d="M 1831 0 
L 50 4666 
L 709 4666 
L 2188 738 
L 3669 4666 
L 4325 4666 
L 2547 0 
L 1831 0 
z
" transform="scale(0.015625)"/>
      <path id="DejaVuSans-38" d="M 2034 2216 
Q 1584 2216 1326 1975 
Q 1069 1734 1069 1313 
Q 1069 891 1326 650 
Q 1584 409 2034 409 
Q 2484 409 2743 651 
Q 3003 894 3003 1313 
Q 3003 1734 2745 1975 
Q 2488 2216 2034 2216 
z
M 1403 2484 
Q 997 2584 770 2862 
Q 544 3141 544 3541 
Q 544 4100 942 4425 
Q 1341 4750 2034 4750 
Q 2731 4750 3128 4425 
Q 3525 4100 3525 3541 
Q 3525 3141 3298 2862 
Q 3072 2584 2669 2484 
Q 3125 2378 3379 2068 
Q 3634 1759 3634 1313 
Q 3634 634 3220 271 
Q 2806 -91 2034 -91 
Q 1263 -91 848 271 
Q 434 634 434 1313 
Q 434 1759 690 2068 
Q 947 2378 1403 2484 
z
M 1172 3481 
Q 1172 3119 1398 2916 
Q 1625 2713 2034 2713 
Q 2441 2713 2670 2916 
Q 2900 3119 2900 3481 
Q 2900 3844 2670 4047 
Q 2441 4250 2034 4250 
Q 1625 4250 1398 4047 
Q 1172 3844 1172 3481 
z
" transform="scale(0.015625)"/>
      <path id="DejaVuSans-37" d="M 525 4666 
L 3525 4666 
L 3525 4397 
L 1831 0 
L 1172 0 
L 2766 4134 
L 525 4134 
L 525 4666 
z
" transform="scale(0.015625)"/>
     </defs>
     <use xlink:href="#DejaVuSans-56"/>
     <use xlink:href="#DejaVuSans-20" x="68.408203"/>
     <use xlink:href="#DejaVuSans-5b" x="100.195312"/>
     <use xlink:href="#DejaVuSans-38" x="139.208984"/>
     <use xlink:href="#DejaVuSans-2e" x="202.832031"/>
     <use xlink:href="#DejaVuSans-37" x="234.619141"/>
     <use xlink:href="#DejaVuSans-25" x="298.242188"/>
     <use xlink:href="#DejaVuSans-5d" x="393.261719"/>
    </g>
   </g>
   <g id="patch_6">
    <path d="M 72.609107 28.465202 
C 69.714745 31.008916 67.301044 34.052305 65.483356 37.449925 
C 63.665668 40.847545 62.473419 44.544397 61.963585 48.363805 
C 61.453751 52.183214 61.634586 56.063351 62.497448 59.818785 
C 63.36031 63.574219 64.891232 67.144156 67.017048 70.357987 
C 69.142865 73.571819 71.829165 76.377521 74.947569 78.641007 
C 78.065973 80.904493 81.566001 82.589122 85.280385 83.614385 
C 88.994769 84.639649 92.863381 84.988949 96.701338 84.645594 
C 100.539296 84.302239 104.284471 83.271787 107.757881 81.603482 
C 111.23129 79.935177 114.376706 77.656027 117.043809 74.874953 
C 119.710912 72.093878 121.856526 68.855899 123.378113 65.31576 
C 124.899699 61.775621 125.772627 57.990628 125.955177 54.141669 
C 126.137728 50.29271 125.626947 46.44209 124.447244 42.773832 
C 123.267542 39.105575 121.438015 35.67906 119.046097 32.658044 
C 116.654179 29.637027 113.73859 27.070412 110.438668 25.080858 
C 107.138746 23.091304 103.507909 21.711018 99.719675 21.005963 
C 95.931442 20.300909 92.047137 20.2825 88.252391 20.951616 
L 89.927498 30.451623 
C 92.58382 29.983242 95.302834 29.996128 97.954597 30.489666 
C 100.606361 30.983204 103.147947 31.949405 105.457892 33.342093 
C 107.767838 34.73478 109.80875 36.531411 111.483092 38.646122 
C 113.157435 40.760834 114.438104 43.159394 115.263896 45.727174 
C 116.089688 48.294955 116.447234 50.990389 116.319449 53.68466 
C 116.191663 56.378932 115.580614 59.028426 114.515504 61.506524 
C 113.450393 63.984621 111.948463 66.251207 110.081491 68.197959 
C 108.214519 70.144711 106.012728 71.740116 103.581341 72.907929 
C 101.149955 74.075743 98.528332 74.797059 95.841762 75.037408 
C 93.155191 75.277756 90.447163 75.033246 87.847094 74.315562 
C 85.247025 73.597877 82.797006 72.418637 80.614123 70.834197 
C 78.43124 69.249756 76.55083 67.285765 75.062759 65.036083 
C 73.574687 62.786401 72.503042 60.287445 71.899039 57.658641 
C 71.295035 55.029838 71.16845 52.313742 71.525334 49.640155 
C 71.882218 46.966569 72.716793 44.378774 73.989174 42.000439 
C 75.261555 39.622105 76.951146 37.491733 78.9772 35.711134 
z
" style="fill: #1f77b4"/>
   </g>
   <g id="patch_7">
    <path d="M 88.252382 20.951617 
C 85.363735 21.460965 82.558319 22.36318 79.91428 23.633132 
C 77.270242 24.903084 74.812362 26.52887 72.609107 28.465202 
L 78.9772 35.711134 
C 80.519478 34.355701 82.239994 33.217651 84.090821 32.328684 
C 85.941648 31.439718 87.905439 30.808167 89.927492 30.451624 
z
" style="fill: #ff7f0e"/>
   </g>
   <g id="matplotlib.axis_1"/>
   <g id="matplotlib.axis_2"/>
  </g>
 </g>
</svg>
