<?xml version="1.0" encoding="utf-8" standalone="no"?>
<!DOCTYPE svg PUBLIC "-//W3C//DTD SVG 1.1//EN"
  "http://www.w3.org/Graphics/SVG/1.1/DTD/svg11.dtd">
<svg xmlns:xlink="http://www.w3.org/1999/xlink" width="194.034665pt" height="107.21734pt" viewBox="0 0 194.034665 107.21734" xmlns="http://www.w3.org/2000/svg" version="1.1">
 <metadata>
  <rdf:RDF xmlns:dc="http://purl.org/dc/elements/1.1/" xmlns:cc="http://creativecommons.org/ns#" xmlns:rdf="http://www.w3.org/1999/02/22-rdf-syntax-ns#">
   <cc:Work>
    <dc:type rdf:resource="http://purl.org/dc/dcmitype/StillImage"/>
    <dc:date>2023-10-13T11:20:37.396745</dc:date>
    <dc:format>image/svg+xml</dc:format>
    <dc:creator>
     <cc:Agent>
      <dc:title>Matplotlib v3.7.3, https://matplotlib.org/</dc:title>
     </cc:Agent>
    </dc:creator>
   </cc:Work>
  </rdf:RDF>
 </metadata>
 <defs>
  <style type="text/css">*{stroke-linejoin: round; stroke-linecap: butt}</style>
 </defs>
 <g id="figure_1">
  <g id="patch_1">
   <path d="M 0 107.21734 
L 194.034665 107.21734 
L 194.034665 0 
L 0 0 
z
" style="fill: #ffffff"/>
  </g>
  <g id="axes_1">
   <g id="patch_2">
    <path d="M 133.24356 95.178277 
L 111.113907 95.178277 
L 106.945102 85.148334 
" style="fill: none; stroke: #000000; stroke-linecap: round"/>
   </g>
   <g id="text_1">
    <g id="patch_3">
     <path d="M 135.245603 102.01734 
L 188.834665 102.01734 
L 188.834665 88.339215 
L 135.245603 88.339215 
z
" style="fill: #ffffff"/>
    </g>
    <!-- A [92.3%] -->
    <g transform="translate(137.245603 97.937652) scale(0.1 -0.1)">
     <defs>
      <path id="DejaVuSans-41" d="M 2188 4044 
L 1331 1722 
L 3047 1722 
L 2188 4044 
z
M 1831 4666 
L 2547 4666 
L 4325 0 
L 3669 0 
L 3244 1197 
L 1141 1197 
L 716 0 
L 50 0 
L 1831 4666 
z
" transform="scale(0.015625)"/>
      <path id="DejaVuSans-20" transform="scale(0.015625)"/>
      <path id="DejaVuSans-5b" d="M 550 4863 
L 1875 4863 
L 1875 4416 
L 1125 4416 
L 1125 -397 
L 1875 -397 
L 1875 -844 
L 550 -844 
L 550 4863 
z
" transform="scale(0.015625)"/>
      <path id="DejaVuSans-39" d="M 703 97 
L 703 672 
Q 941 559 1184 500 
Q 1428 441 1663 441 
Q 2288 441 2617 861 
Q 2947 1281 2994 2138 
Q 2813 1869 2534 1725 
Q 2256 1581 1919 1581 
Q 1219 1581 811 2004 
Q 403 2428 403 3163 
Q 403 3881 828 4315 
Q 1253 4750 1959 4750 
Q 2769 4750 3195 4129 
Q 3622 3509 3622 2328 
Q 3622 1225 3098 567 
Q 2575 -91 1691 -91 
Q 1453 -91 1209 -44 
Q 966 3 703 97 
z
M 1959 2075 
Q 2384 2075 2632 2365 
Q 2881 2656 2881 3163 
Q 2881 3666 2632 3958 
Q 2384 4250 1959 4250 
Q 1534 4250 1286 3958 
Q 1038 3666 1038 3163 
Q 1038 2656 1286 2365 
Q 1534 2075 1959 2075 
z
" transform="scale(0.015625)"/>
      <path id="DejaVuSans-32" d="M 1228 531 
L 3431 531 
L 3431 0 
L 469 0 
L 469 531 
Q 828 903 1448 1529 
Q 2069 2156 2228 2338 
Q 2531 2678 2651 2914 
Q 2772 3150 2772 3378 
Q 2772 3750 2511 3984 
Q 2250 4219 1831 4219 
Q 1534 4219 1204 4116 
Q 875 4013 500 3803 
L 500 4441 
Q 881 4594 1212 4672 
Q 1544 4750 1819 4750 
Q 2544 4750 2975 4387 
Q 3406 4025 3406 3419 
Q 3406 3131 3298 2873 
Q 3191 2616 2906 2266 
Q 2828 2175 2409 1742 
Q 1991 1309 1228 531 
z
" transform="scale(0.015625)"/>
      <path id="DejaVuSans-2e" d="M 684 794 
L 1344 794 
L 1344 0 
L 684 0 
L 684 794 
z
" transform="scale(0.015625)"/>
      <path id="DejaVuSans-33" d="M 2597 2516 
Q 3050 2419 3304 2112 
Q 3559 1806 3559 1356 
Q 3559 666 3084 287 
Q 2609 -91 1734 -91 
Q 1441 -91 1130 -33 
Q 819 25 488 141 
L 488 750 
Q 750 597 1062 519 
Q 1375 441 1716 441 
Q 2309 441 2620 675 
Q 2931 909 2931 1356 
Q 2931 1769 2642 2001 
Q 2353 2234 1838 2234 
L 1294 2234 
L 1294 2753 
L 1863 2753 
Q 2328 2753 2575 2939 
Q 2822 3125 2822 3475 
Q 2822 3834 2567 4026 
Q 2313 4219 1838 4219 
Q 1578 4219 1281 4162 
Q 984 4106 628 3988 
L 628 4550 
Q 988 4650 1302 4700 
Q 1616 4750 1894 4750 
Q 2613 4750 3031 4423 
Q 3450 4097 3450 3541 
Q 3450 3153 3228 2886 
Q 3006 2619 2597 2516 
z
" transform="scale(0.015625)"/>
      <path id="DejaVuSans-25" d="M 4653 2053 
Q 4381 2053 4226 1822 
Q 4072 1591 4072 1178 
Q 4072 772 4226 539 
Q 4381 306 4653 306 
Q 4919 306 5073 539 
Q 5228 772 5228 1178 
Q 5228 1588 5073 1820 
Q 4919 2053 4653 2053 
z
M 4653 2450 
Q 5147 2450 5437 2106 
Q 5728 1763 5728 1178 
Q 5728 594 5436 251 
Q 5144 -91 4653 -91 
Q 4153 -91 3862 251 
Q 3572 594 3572 1178 
Q 3572 1766 3864 2108 
Q 4156 2450 4653 2450 
z
M 1428 4353 
Q 1159 4353 1004 4120 
Q 850 3888 850 3481 
Q 850 3069 1003 2837 
Q 1156 2606 1428 2606 
Q 1700 2606 1854 2837 
Q 2009 3069 2009 3481 
Q 2009 3884 1853 4118 
Q 1697 4353 1428 4353 
z
M 4250 4750 
L 4750 4750 
L 1831 -91 
L 1331 -91 
L 4250 4750 
z
M 1428 4750 
Q 1922 4750 2215 4408 
Q 2509 4066 2509 3481 
Q 2509 2891 2217 2550 
Q 1925 2209 1428 2209 
Q 931 2209 642 2551 
Q 353 2894 353 3481 
Q 353 4063 643 4406 
Q 934 4750 1428 4750 
z
" transform="scale(0.015625)"/>
      <path id="DejaVuSans-5d" d="M 1947 4863 
L 1947 -844 
L 622 -844 
L 622 -397 
L 1369 -397 
L 1369 4416 
L 622 4416 
L 622 4863 
L 1947 4863 
z
" transform="scale(0.015625)"/>
     </defs>
     <use xlink:href="#DejaVuSans-41"/>
     <use xlink:href="#DejaVuSans-20" x="68.408203"/>
     <use xlink:href="#DejaVuSans-5b" x="100.195312"/>
     <use xlink:href="#DejaVuSans-39" x="139.208984"/>
     <use xlink:href="#DejaVuSans-32" x="202.832031"/>
     <use xlink:href="#DejaVuSans-2e" x="266.455078"/>
     <use xlink:href="#DejaVuSans-33" x="298.242188"/>
     <use xlink:href="#DejaVuSans-25" x="361.865234"/>
     <use xlink:href="#DejaVuSans-5d" x="456.884766"/>
    </g>
   </g>
   <g id="patch_4">
    <path d="M 54.426598 12.039062 
L 76.558258 12.039062 
L 80.727063 22.069006 
" style="fill: none; stroke: #000000; stroke-linecap: round"/>
   </g>
   <g id="text_2">
    <g id="patch_5">
     <path d="M 5.2 18.878125 
L 52.426563 18.878125 
L 52.426563 5.2 
L 5.2 5.2 
z
" style="fill: #ffffff"/>
    </g>
    <!-- V [6.9%] -->
    <g transform="translate(7.2 14.798437) scale(0.1 -0.1)">
     <defs>
      <path id="DejaVuSans-56" d="M 1831 0 
L 50 4666 
L 709 4666 
L 2188 738 
L 3669 4666 
L 4325 4666 
L 2547 0 
L 1831 0 
z
" transform="scale(0.015625)"/>
      <path id="DejaVuSans-36" d="M 2113 2584 
Q 1688 2584 1439 2293 
Q 1191 2003 1191 1497 
Q 1191 994 1439 701 
Q 1688 409 2113 409 
Q 2538 409 2786 701 
Q 3034 994 3034 1497 
Q 3034 2003 2786 2293 
Q 2538 2584 2113 2584 
z
M 3366 4563 
L 3366 3988 
Q 3128 4100 2886 4159 
Q 2644 4219 2406 4219 
Q 1781 4219 1451 3797 
Q 1122 3375 1075 2522 
Q 1259 2794 1537 2939 
Q 1816 3084 2150 3084 
Q 2853 3084 3261 2657 
Q 3669 2231 3669 1497 
Q 3669 778 3244 343 
Q 2819 -91 2113 -91 
Q 1303 -91 875 529 
Q 447 1150 447 2328 
Q 447 3434 972 4092 
Q 1497 4750 2381 4750 
Q 2619 4750 2861 4703 
Q 3103 4656 3366 4563 
z
" transform="scale(0.015625)"/>
     </defs>
     <use xlink:href="#DejaVuSans-56"/>
     <use xlink:href="#DejaVuSans-20" x="68.408203"/>
     <use xlink:href="#DejaVuSans-5b" x="100.195312"/>
     <use xlink:href="#DejaVuSans-36" x="139.208984"/>
     <use xlink:href="#DejaVuSans-2e" x="202.832031"/>
     <use xlink:href="#DejaVuSans-39" x="234.619141"/>
     <use xlink:href="#DejaVuSans-25" x="298.242188"/>
     <use xlink:href="#DejaVuSans-5d" x="393.261719"/>
    </g>
   </g>
   <g id="patch_6">
    <path d="M 75.328744 27.313512 
C 72.118202 29.57319 69.348486 32.401873 67.156934 35.659299 
C 64.965382 38.916725 63.388825 42.548149 62.505438 46.373506 
C 61.622051 50.198862 61.44668 54.153862 61.988022 58.042393 
C 62.529363 61.930924 63.778318 65.687636 65.672958 69.12625 
C 67.567597 72.564864 70.076079 75.62759 73.074019 78.162562 
C 76.071959 80.697534 79.508973 82.662147 83.214635 83.958987 
C 86.920298 85.255827 90.83233 85.863097 94.756752 85.750687 
C 98.681174 85.638277 102.552031 84.808075 106.177386 83.301247 
C 109.802741 81.794419 113.121664 79.636289 115.969585 76.93387 
C 118.817506 74.231451 121.146563 71.030159 122.841267 67.488733 
C 124.535972 63.947306 125.567843 60.125263 125.885715 56.21212 
C 126.203587 52.298978 125.802117 48.360502 124.701212 44.591983 
C 123.600308 40.823464 121.818471 37.288237 119.444055 34.161597 
C 117.069639 31.034958 114.142549 28.369453 110.807925 26.297254 
C 107.473301 24.225054 103.787187 22.780985 99.93236 22.036652 
C 96.077532 21.292319 92.118777 21.260231 88.252391 21.94198 
L 89.927498 31.441987 
C 92.633969 30.964763 95.405097 30.987225 98.103477 31.508258 
C 100.801856 32.029291 103.382136 33.040139 105.716372 34.490679 
C 108.050609 35.941218 110.099572 37.807072 111.761663 39.995719 
C 113.423755 42.184367 114.67104 44.659026 115.441673 47.296989 
C 116.212306 49.934952 116.493335 52.691886 116.270825 55.431085 
C 116.048315 58.170285 115.326005 60.845715 114.139712 63.324714 
C 112.953419 65.803712 111.323079 68.044617 109.329534 69.93631 
C 107.335989 71.828004 105.012743 73.338694 102.474995 74.393474 
C 99.937247 75.448253 97.227647 76.029395 94.480551 76.108082 
C 91.733455 76.186769 88.995033 75.76168 86.401069 74.853892 
C 83.807106 73.946104 81.401196 72.570874 79.302638 70.796394 
C 77.20408 69.021914 75.448143 66.878006 74.121895 64.470976 
C 72.795647 62.063946 71.921379 59.434248 71.54244 56.712276 
C 71.163501 53.990304 71.28626 51.221805 71.904631 48.544055 
C 72.523002 45.866305 73.626592 43.324309 75.160678 41.04411 
C 76.694765 38.763912 78.633566 36.783834 80.880946 35.20206 
z
" style="fill: #1f77b4"/>
   </g>
   <g id="patch_7">
    <path d="M 88.252391 21.94198 
C 85.934395 22.350705 83.66827 23.012712 81.494779 23.916093 
C 79.321288 24.819474 77.253545 25.958779 75.328744 27.313512 
L 80.880946 35.20206 
C 82.228306 34.253746 83.675727 33.456233 85.19717 32.823866 
C 86.718613 32.1915 88.304901 31.728094 89.927498 31.441987 
z
" style="fill: #ff7f0e"/>
   </g>
   <g id="matplotlib.axis_1"/>
   <g id="matplotlib.axis_2"/>
  </g>
 </g>
</svg>
