<?xml version="1.0" encoding="utf-8" standalone="no"?>
<!DOCTYPE svg PUBLIC "-//W3C//DTD SVG 1.1//EN"
  "http://www.w3.org/Graphics/SVG/1.1/DTD/svg11.dtd">
<svg xmlns:xlink="http://www.w3.org/1999/xlink" width="195.81279pt" height="107.471813pt" viewBox="0 0 195.81279 107.471813" xmlns="http://www.w3.org/2000/svg" version="1.1">
 <metadata>
  <rdf:RDF xmlns:dc="http://purl.org/dc/elements/1.1/" xmlns:cc="http://creativecommons.org/ns#" xmlns:rdf="http://www.w3.org/1999/02/22-rdf-syntax-ns#">
   <cc:Work>
    <dc:type rdf:resource="http://purl.org/dc/dcmitype/StillImage"/>
    <dc:date>2023-10-13T11:21:10.234001</dc:date>
    <dc:format>image/svg+xml</dc:format>
    <dc:creator>
     <cc:Agent>
      <dc:title>Matplotlib v3.7.3, https://matplotlib.org/</dc:title>
     </cc:Agent>
    </dc:creator>
   </cc:Work>
  </rdf:RDF>
 </metadata>
 <defs>
  <style type="text/css">*{stroke-linejoin: round; stroke-linecap: butt}</style>
 </defs>
 <g id="figure_1">
  <g id="patch_1">
   <path d="M 0 107.471813 
L 195.81279 107.471813 
L 195.81279 0 
L 0 0 
z
" style="fill: #ffffff"/>
  </g>
  <g id="axes_1">
   <g id="patch_2">
    <path d="M 131.977791 95.43275 
L 109.535796 95.43275 
L 105.441634 85.372107 
" style="fill: none; stroke: #000000; stroke-linecap: round"/>
   </g>
   <g id="text_1">
    <g id="patch_3">
     <path d="M 133.976852 102.271813 
L 190.61279 102.271813 
L 190.61279 88.593688 
L 133.976852 88.593688 
z
" style="fill: #ffffff"/>
    </g>
    <!-- W [92.6%] -->
    <g transform="translate(135.976852 98.192125) scale(0.1 -0.1)">
     <defs>
      <path id="DejaVuSans-57" d="M 213 4666 
L 850 4666 
L 1831 722 
L 2809 4666 
L 3519 4666 
L 4500 722 
L 5478 4666 
L 6119 4666 
L 4947 0 
L 4153 0 
L 3169 4050 
L 2175 0 
L 1381 0 
L 213 4666 
z
" transform="scale(0.015625)"/>
      <path id="DejaVuSans-20" transform="scale(0.015625)"/>
      <path id="DejaVuSans-5b" d="M 550 4863 
L 1875 4863 
L 1875 4416 
L 1125 4416 
L 1125 -397 
L 1875 -397 
L 1875 -844 
L 550 -844 
L 550 4863 
z
" transform="scale(0.015625)"/>
      <path id="DejaVuSans-39" d="M 703 97 
L 703 672 
Q 941 559 1184 500 
Q 1428 441 1663 441 
Q 2288 441 2617 861 
Q 2947 1281 2994 2138 
Q 2813 1869 2534 1725 
Q 2256 1581 1919 1581 
Q 1219 1581 811 2004 
Q 403 2428 403 3163 
Q 403 3881 828 4315 
Q 1253 4750 1959 4750 
Q 2769 4750 3195 4129 
Q 3622 3509 3622 2328 
Q 3622 1225 3098 567 
Q 2575 -91 1691 -91 
Q 1453 -91 1209 -44 
Q 966 3 703 97 
z
M 1959 2075 
Q 2384 2075 2632 2365 
Q 2881 2656 2881 3163 
Q 2881 3666 2632 3958 
Q 2384 4250 1959 4250 
Q 1534 4250 1286 3958 
Q 1038 3666 1038 3163 
Q 1038 2656 1286 2365 
Q 1534 2075 1959 2075 
z
" transform="scale(0.015625)"/>
      <path id="DejaVuSans-32" d="M 1228 531 
L 3431 531 
L 3431 0 
L 469 0 
L 469 531 
Q 828 903 1448 1529 
Q 2069 2156 2228 2338 
Q 2531 2678 2651 2914 
Q 2772 3150 2772 3378 
Q 2772 3750 2511 3984 
Q 2250 4219 1831 4219 
Q 1534 4219 1204 4116 
Q 875 4013 500 3803 
L 500 4441 
Q 881 4594 1212 4672 
Q 1544 4750 1819 4750 
Q 2544 4750 2975 4387 
Q 3406 4025 3406 3419 
Q 3406 3131 3298 2873 
Q 3191 2616 2906 2266 
Q 2828 2175 2409 1742 
Q 1991 1309 1228 531 
z
" transform="scale(0.015625)"/>
      <path id="DejaVuSans-2e" d="M 684 794 
L 1344 794 
L 1344 0 
L 684 0 
L 684 794 
z
" transform="scale(0.015625)"/>
      <path id="DejaVuSans-36" d="M 2113 2584 
Q 1688 2584 1439 2293 
Q 1191 2003 1191 1497 
Q 1191 994 1439 701 
Q 1688 409 2113 409 
Q 2538 409 2786 701 
Q 3034 994 3034 1497 
Q 3034 2003 2786 2293 
Q 2538 2584 2113 2584 
z
M 3366 4563 
L 3366 3988 
Q 3128 4100 2886 4159 
Q 2644 4219 2406 4219 
Q 1781 4219 1451 3797 
Q 1122 3375 1075 2522 
Q 1259 2794 1537 2939 
Q 1816 3084 2150 3084 
Q 2853 3084 3261 2657 
Q 3669 2231 3669 1497 
Q 3669 778 3244 343 
Q 2819 -91 2113 -91 
Q 1303 -91 875 529 
Q 447 1150 447 2328 
Q 447 3434 972 4092 
Q 1497 4750 2381 4750 
Q 2619 4750 2861 4703 
Q 3103 4656 3366 4563 
z
" transform="scale(0.015625)"/>
      <path id="DejaVuSans-25" d="M 4653 2053 
Q 4381 2053 4226 1822 
Q 4072 1591 4072 1178 
Q 4072 772 4226 539 
Q 4381 306 4653 306 
Q 4919 306 5073 539 
Q 5228 772 5228 1178 
Q 5228 1588 5073 1820 
Q 4919 2053 4653 2053 
z
M 4653 2450 
Q 5147 2450 5437 2106 
Q 5728 1763 5728 1178 
Q 5728 594 5436 251 
Q 5144 -91 4653 -91 
Q 4153 -91 3862 251 
Q 3572 594 3572 1178 
Q 3572 1766 3864 2108 
Q 4156 2450 4653 2450 
z
M 1428 4353 
Q 1159 4353 1004 4120 
Q 850 3888 850 3481 
Q 850 3069 1003 2837 
Q 1156 2606 1428 2606 
Q 1700 2606 1854 2837 
Q 2009 3069 2009 3481 
Q 2009 3884 1853 4118 
Q 1697 4353 1428 4353 
z
M 4250 4750 
L 4750 4750 
L 1831 -91 
L 1331 -91 
L 4250 4750 
z
M 1428 4750 
Q 1922 4750 2215 4408 
Q 2509 4066 2509 3481 
Q 2509 2891 2217 2550 
Q 1925 2209 1428 2209 
Q 931 2209 642 2551 
Q 353 2894 353 3481 
Q 353 4063 643 4406 
Q 934 4750 1428 4750 
z
" transform="scale(0.015625)"/>
      <path id="DejaVuSans-5d" d="M 1947 4863 
L 1947 -844 
L 622 -844 
L 622 -397 
L 1369 -397 
L 1369 4416 
L 622 4416 
L 622 4863 
L 1947 4863 
z
" transform="scale(0.015625)"/>
     </defs>
     <use xlink:href="#DejaVuSans-57"/>
     <use xlink:href="#DejaVuSans-20" x="98.876953"/>
     <use xlink:href="#DejaVuSans-5b" x="130.664062"/>
     <use xlink:href="#DejaVuSans-39" x="169.677734"/>
     <use xlink:href="#DejaVuSans-32" x="233.300781"/>
     <use xlink:href="#DejaVuSans-2e" x="296.923828"/>
     <use xlink:href="#DejaVuSans-36" x="328.710938"/>
     <use xlink:href="#DejaVuSans-25" x="392.333984"/>
     <use xlink:href="#DejaVuSans-5d" x="487.353516"/>
    </g>
   </g>
   <g id="patch_4">
    <path d="M 53.158679 12.039062 
L 75.598872 12.039062 
L 79.693034 22.099706 
" style="fill: none; stroke: #000000; stroke-linecap: round"/>
   </g>
   <g id="text_2">
    <g id="patch_5">
     <path d="M 5.2 18.878125 
L 51.157812 18.878125 
L 51.157812 5.2 
L 5.2 5.2 
z
" style="fill: #ffffff"/>
    </g>
    <!-- L [6.7%] -->
    <g transform="translate(7.2 14.798437) scale(0.1 -0.1)">
     <defs>
      <path id="DejaVuSans-4c" d="M 628 4666 
L 1259 4666 
L 1259 531 
L 3531 531 
L 3531 0 
L 628 0 
L 628 4666 
z
" transform="scale(0.015625)"/>
      <path id="DejaVuSans-37" d="M 525 4666 
L 3525 4666 
L 3525 4397 
L 1831 0 
L 1172 0 
L 2766 4134 
L 525 4134 
L 525 4666 
z
" transform="scale(0.015625)"/>
     </defs>
     <use xlink:href="#DejaVuSans-4c"/>
     <use xlink:href="#DejaVuSans-20" x="55.712891"/>
     <use xlink:href="#DejaVuSans-5b" x="87.5"/>
     <use xlink:href="#DejaVuSans-36" x="126.513672"/>
     <use xlink:href="#DejaVuSans-2e" x="190.136719"/>
     <use xlink:href="#DejaVuSans-37" x="221.923828"/>
     <use xlink:href="#DejaVuSans-25" x="285.546875"/>
     <use xlink:href="#DejaVuSans-5d" x="380.566406"/>
    </g>
   </g>
   <g id="patch_6">
    <path d="M 74.452801 27.168622 
C 71.200739 29.385995 68.383283 32.18176 66.140842 35.416587 
C 63.898402 38.651414 62.268857 42.27066 61.333417 46.093957 
C 60.397977 49.917254 60.172445 53.880017 60.668059 57.78476 
C 61.163673 61.689503 62.372061 65.470264 64.233003 68.938627 
C 66.093946 72.40699 68.576006 75.504365 71.555488 78.076394 
C 74.534971 80.648422 77.961546 82.651656 81.664446 83.986262 
C 85.367347 85.320868 89.284023 85.964302 93.219284 85.884497 
C 97.154545 85.804693 101.041915 85.002998 104.687664 83.519367 
C 108.333413 82.035735 111.675955 79.895228 114.548713 77.20452 
C 117.421471 74.513812 119.775917 71.318356 121.494715 67.777398 
C 123.213512 64.23644 124.267628 60.409797 124.604529 56.488171 
C 124.941429 52.566546 124.555424 48.616184 123.465749 44.833955 
C 122.376074 41.051726 120.601138 37.501521 118.229394 34.360266 
C 115.857651 31.219011 112.929165 28.539771 109.589881 26.456066 
C 106.250596 24.372361 102.556921 22.919391 98.692932 22.169566 
C 94.828943 21.41974 90.859913 21.385726 86.983641 22.069217 
L 88.658748 31.569224 
C 91.372139 31.09078 94.15046 31.11459 96.855252 31.639468 
C 99.560044 32.164346 102.145617 33.181425 104.483116 34.640018 
C 106.820616 36.098612 108.870555 37.97408 110.530776 40.172958 
C 112.190996 42.371837 113.433452 44.85698 114.196224 47.504541 
C 114.958996 50.152101 115.2292 52.917354 114.99337 55.662492 
C 114.757539 58.40763 114.019658 61.08628 112.8165 63.564951 
C 111.613341 66.043621 109.965229 68.280441 107.954299 70.163936 
C 105.943368 72.047432 103.603589 73.545787 101.051564 74.584329 
C 98.49954 75.622871 95.778381 76.184057 93.023699 76.23992 
C 90.269016 76.295783 87.527343 75.84538 84.935312 74.911156 
C 82.343282 73.976931 79.944679 72.574668 77.859042 70.774248 
C 75.773404 68.973828 74.035962 66.805665 72.733302 64.377811 
C 71.430643 61.949957 70.584771 59.303424 70.237841 56.570104 
C 69.890911 53.836784 70.048784 51.06285 70.703592 48.386542 
C 71.358399 45.710234 72.499081 43.176762 74.068789 40.912383 
C 75.638498 38.648004 77.610717 36.690969 79.88716 35.138808 
z
" style="fill: #1f77b4"/>
   </g>
   <g id="patch_7">
    <path d="M 86.983647 22.069216 
C 84.744312 22.464071 82.553164 23.095348 80.447004 23.952447 
C 78.340843 24.809545 76.331527 25.887639 74.452801 27.168622 
L 79.88716 35.138808 
C 81.202269 34.24212 82.60879 33.487454 84.083102 32.887485 
C 85.557415 32.287516 87.091218 31.845622 88.658752 31.569223 
z
" style="fill: #ff7f0e"/>
   </g>
   <g id="matplotlib.axis_1"/>
   <g id="matplotlib.axis_2"/>
  </g>
 </g>
</svg>
