<?xml version="1.0" encoding="utf-8" standalone="no"?>
<!DOCTYPE svg PUBLIC "-//W3C//DTD SVG 1.1//EN"
  "http://www.w3.org/Graphics/SVG/1.1/DTD/svg11.dtd">
<svg xmlns:xlink="http://www.w3.org/1999/xlink" width="190.784665pt" height="114.112106pt" viewBox="0 0 190.784665 114.112106" xmlns="http://www.w3.org/2000/svg" version="1.1">
 <metadata>
  <rdf:RDF xmlns:dc="http://purl.org/dc/elements/1.1/" xmlns:cc="http://creativecommons.org/ns#" xmlns:rdf="http://www.w3.org/1999/02/22-rdf-syntax-ns#">
   <cc:Work>
    <dc:type rdf:resource="http://purl.org/dc/dcmitype/StillImage"/>
    <dc:date>2023-10-13T11:20:54.886551</dc:date>
    <dc:format>image/svg+xml</dc:format>
    <dc:creator>
     <cc:Agent>
      <dc:title>Matplotlib v3.7.3, https://matplotlib.org/</dc:title>
     </cc:Agent>
    </dc:creator>
   </cc:Work>
  </rdf:RDF>
 </metadata>
 <defs>
  <style type="text/css">*{stroke-linejoin: round; stroke-linecap: butt}</style>
 </defs>
 <g id="figure_1">
  <g id="patch_1">
   <path d="M 0 114.112106 
L 190.784665 114.112106 
L 190.784665 0 
L 0 0 
z
" style="fill: #ffffff"/>
  </g>
  <g id="axes_1">
   <g id="patch_2">
    <path d="M 135.719481 12.039062 
L 96.469359 12.039062 
L 96.430416 22.900793 
" style="fill: none; stroke: #000000; stroke-linecap: round"/>
   </g>
   <g id="text_1">
    <g id="patch_3">
     <path d="M 137.717478 18.878125 
L 185.584665 18.878125 
L 185.584665 5.2 
L 137.717478 5.2 
z
" style="fill: #ffffff"/>
    </g>
    <!-- N [5.5%] -->
    <g transform="translate(139.717478 14.798438) scale(0.1 -0.1)">
     <defs>
      <path id="DejaVuSans-4e" d="M 628 4666 
L 1478 4666 
L 3547 763 
L 3547 4666 
L 4159 4666 
L 4159 0 
L 3309 0 
L 1241 3903 
L 1241 0 
L 628 0 
L 628 4666 
z
" transform="scale(0.015625)"/>
      <path id="DejaVuSans-20" transform="scale(0.015625)"/>
      <path id="DejaVuSans-5b" d="M 550 4863 
L 1875 4863 
L 1875 4416 
L 1125 4416 
L 1125 -397 
L 1875 -397 
L 1875 -844 
L 550 -844 
L 550 4863 
z
" transform="scale(0.015625)"/>
      <path id="DejaVuSans-35" d="M 691 4666 
L 3169 4666 
L 3169 4134 
L 1269 4134 
L 1269 2991 
Q 1406 3038 1543 3061 
Q 1681 3084 1819 3084 
Q 2600 3084 3056 2656 
Q 3513 2228 3513 1497 
Q 3513 744 3044 326 
Q 2575 -91 1722 -91 
Q 1428 -91 1123 -41 
Q 819 9 494 109 
L 494 744 
Q 775 591 1075 516 
Q 1375 441 1709 441 
Q 2250 441 2565 725 
Q 2881 1009 2881 1497 
Q 2881 1984 2565 2268 
Q 2250 2553 1709 2553 
Q 1456 2553 1204 2497 
Q 953 2441 691 2322 
L 691 4666 
z
" transform="scale(0.015625)"/>
      <path id="DejaVuSans-2e" d="M 684 794 
L 1344 794 
L 1344 0 
L 684 0 
L 684 794 
z
" transform="scale(0.015625)"/>
      <path id="DejaVuSans-25" d="M 4653 2053 
Q 4381 2053 4226 1822 
Q 4072 1591 4072 1178 
Q 4072 772 4226 539 
Q 4381 306 4653 306 
Q 4919 306 5073 539 
Q 5228 772 5228 1178 
Q 5228 1588 5073 1820 
Q 4919 2053 4653 2053 
z
M 4653 2450 
Q 5147 2450 5437 2106 
Q 5728 1763 5728 1178 
Q 5728 594 5436 251 
Q 5144 -91 4653 -91 
Q 4153 -91 3862 251 
Q 3572 594 3572 1178 
Q 3572 1766 3864 2108 
Q 4156 2450 4653 2450 
z
M 1428 4353 
Q 1159 4353 1004 4120 
Q 850 3888 850 3481 
Q 850 3069 1003 2837 
Q 1156 2606 1428 2606 
Q 1700 2606 1854 2837 
Q 2009 3069 2009 3481 
Q 2009 3884 1853 4118 
Q 1697 4353 1428 4353 
z
M 4250 4750 
L 4750 4750 
L 1831 -91 
L 1331 -91 
L 4250 4750 
z
M 1428 4750 
Q 1922 4750 2215 4408 
Q 2509 4066 2509 3481 
Q 2509 2891 2217 2550 
Q 1925 2209 1428 2209 
Q 931 2209 642 2551 
Q 353 2894 353 3481 
Q 353 4063 643 4406 
Q 934 4750 1428 4750 
z
" transform="scale(0.015625)"/>
      <path id="DejaVuSans-5d" d="M 1947 4863 
L 1947 -844 
L 622 -844 
L 622 -397 
L 1369 -397 
L 1369 4416 
L 622 4416 
L 622 4863 
L 1947 4863 
z
" transform="scale(0.015625)"/>
     </defs>
     <use xlink:href="#DejaVuSans-4e"/>
     <use xlink:href="#DejaVuSans-20" x="74.804688"/>
     <use xlink:href="#DejaVuSans-5b" x="106.591797"/>
     <use xlink:href="#DejaVuSans-35" x="145.605469"/>
     <use xlink:href="#DejaVuSans-2e" x="209.228516"/>
     <use xlink:href="#DejaVuSans-35" x="241.015625"/>
     <use xlink:href="#DejaVuSans-25" x="304.638672"/>
     <use xlink:href="#DejaVuSans-5d" x="399.658203"/>
    </g>
   </g>
   <g id="patch_4">
    <path d="M 56.89782 102.073044 
L 96.146553 102.073044 
L 96.185497 91.211313 
" style="fill: none; stroke: #000000; stroke-linecap: round"/>
   </g>
   <g id="text_2">
    <g id="patch_5">
     <path d="M 5.2 108.912106 
L 54.898438 108.912106 
L 54.898438 95.233981 
L 5.2 95.233981 
z
" style="fill: #ffffff"/>
    </g>
    <!-- I [91.8%] -->
    <g transform="translate(7.2 104.832419) scale(0.1 -0.1)">
     <defs>
      <path id="DejaVuSans-49" d="M 628 4666 
L 1259 4666 
L 1259 0 
L 628 0 
L 628 4666 
z
" transform="scale(0.015625)"/>
      <path id="DejaVuSans-39" d="M 703 97 
L 703 672 
Q 941 559 1184 500 
Q 1428 441 1663 441 
Q 2288 441 2617 861 
Q 2947 1281 2994 2138 
Q 2813 1869 2534 1725 
Q 2256 1581 1919 1581 
Q 1219 1581 811 2004 
Q 403 2428 403 3163 
Q 403 3881 828 4315 
Q 1253 4750 1959 4750 
Q 2769 4750 3195 4129 
Q 3622 3509 3622 2328 
Q 3622 1225 3098 567 
Q 2575 -91 1691 -91 
Q 1453 -91 1209 -44 
Q 966 3 703 97 
z
M 1959 2075 
Q 2384 2075 2632 2365 
Q 2881 2656 2881 3163 
Q 2881 3666 2632 3958 
Q 2384 4250 1959 4250 
Q 1534 4250 1286 3958 
Q 1038 3666 1038 3163 
Q 1038 2656 1286 2365 
Q 1534 2075 1959 2075 
z
" transform="scale(0.015625)"/>
      <path id="DejaVuSans-31" d="M 794 531 
L 1825 531 
L 1825 4091 
L 703 3866 
L 703 4441 
L 1819 4666 
L 2450 4666 
L 2450 531 
L 3481 531 
L 3481 0 
L 794 0 
L 794 531 
z
" transform="scale(0.015625)"/>
      <path id="DejaVuSans-38" d="M 2034 2216 
Q 1584 2216 1326 1975 
Q 1069 1734 1069 1313 
Q 1069 891 1326 650 
Q 1584 409 2034 409 
Q 2484 409 2743 651 
Q 3003 894 3003 1313 
Q 3003 1734 2745 1975 
Q 2488 2216 2034 2216 
z
M 1403 2484 
Q 997 2584 770 2862 
Q 544 3141 544 3541 
Q 544 4100 942 4425 
Q 1341 4750 2034 4750 
Q 2731 4750 3128 4425 
Q 3525 4100 3525 3541 
Q 3525 3141 3298 2862 
Q 3072 2584 2669 2484 
Q 3125 2378 3379 2068 
Q 3634 1759 3634 1313 
Q 3634 634 3220 271 
Q 2806 -91 2034 -91 
Q 1263 -91 848 271 
Q 434 634 434 1313 
Q 434 1759 690 2068 
Q 947 2378 1403 2484 
z
M 1172 3481 
Q 1172 3119 1398 2916 
Q 1625 2713 2034 2713 
Q 2441 2713 2670 2916 
Q 2900 3119 2900 3481 
Q 2900 3844 2670 4047 
Q 2441 4250 2034 4250 
Q 1625 4250 1398 4047 
Q 1172 3844 1172 3481 
z
" transform="scale(0.015625)"/>
     </defs>
     <use xlink:href="#DejaVuSans-49"/>
     <use xlink:href="#DejaVuSans-20" x="29.492188"/>
     <use xlink:href="#DejaVuSans-5b" x="61.279297"/>
     <use xlink:href="#DejaVuSans-39" x="100.292969"/>
     <use xlink:href="#DejaVuSans-31" x="163.916016"/>
     <use xlink:href="#DejaVuSans-2e" x="227.539062"/>
     <use xlink:href="#DejaVuSans-38" x="259.326172"/>
     <use xlink:href="#DejaVuSans-25" x="322.949219"/>
     <use xlink:href="#DejaVuSans-5d" x="417.96875"/>
    </g>
   </g>
   <g id="patch_6">
    <path d="M 102.118574 25.430215 
C 100.239621 25.084995 98.333635 24.907909 96.423244 24.90106 
C 94.512853 24.89421 92.605646 25.057625 90.724266 25.389363 
L 92.399373 34.88937 
C 93.716339 34.657153 95.051384 34.542763 96.388658 34.547558 
C 97.725932 34.552352 99.060122 34.676313 100.375389 34.917967 
z
" style="fill: #1f77b4"/>
   </g>
   <g id="patch_7">
    <path d="M 90.724271 25.389362 
C 86.802984 26.08079 83.044022 27.494601 79.639026 29.558715 
C 76.23403 31.622829 73.241865 34.301563 70.815081 37.458346 
C 68.388296 40.61513 66.568846 44.195389 65.449489 48.016594 
C 64.330133 51.837799 63.930222 55.833888 64.270145 59.801131 
C 64.610068 63.768374 65.683948 67.638185 67.437037 71.213272 
C 69.190126 74.788359 71.592116 78.006915 74.520547 80.704851 
C 77.448978 83.402786 80.853224 85.533459 84.559728 86.988243 
C 88.266231 88.443026 92.210915 89.19677 96.192668 89.211046 
C 100.174422 89.225323 104.124409 88.499885 107.841249 87.071717 
C 111.55809 85.643549 114.977527 83.537342 117.925229 80.860475 
C 120.872931 78.183607 123.297938 74.982358 125.076618 71.419934 
C 126.855297 67.85751 127.9569 63.995499 128.325262 60.030795 
C 128.693625 56.066092 128.322379 52.067238 127.230452 48.238105 
C 126.138525 44.408971 124.344795 40.815757 121.940709 37.641653 
C 119.536623 34.467549 116.563744 31.767428 113.173637 29.678951 
C 109.78353 27.590473 106.034803 26.149744 102.118574 25.430215 
L 100.375389 34.917967 
C 103.116749 35.421637 105.740858 36.430147 108.113933 37.892082 
C 110.487008 39.354016 112.568024 41.2441 114.250884 43.465973 
C 115.933743 45.687846 117.189355 48.203096 117.953704 50.883489 
C 118.718052 53.563882 118.977924 56.36308 118.720071 59.138373 
C 118.462217 61.913665 117.691095 64.617073 116.44602 67.11077 
C 115.200944 69.604467 113.503439 71.845341 111.440047 73.719148 
C 109.376656 75.592955 106.98305 77.0673 104.381262 78.067018 
C 101.779474 79.066735 99.014483 79.574542 96.227255 79.564548 
C 93.440028 79.554555 90.678749 79.026934 88.084197 78.008586 
C 85.489644 76.990237 83.106672 75.498766 81.05677 73.610211 
C 79.006868 71.721656 77.325475 69.468667 76.098313 66.966106 
C 74.871151 64.463546 74.119435 61.754678 73.881489 58.977608 
C 73.643543 56.200538 73.92348 53.403275 74.70703 50.728432 
C 75.490579 48.053588 76.764195 45.547407 78.462944 43.337658 
C 80.161693 41.12791 82.256208 39.252797 84.639705 37.807917 
C 87.023202 36.363037 89.654476 35.373369 92.399377 34.889369 
z
" style="fill: #ff7f0e"/>
   </g>
   <g id="matplotlib.axis_1"/>
   <g id="matplotlib.axis_2"/>
  </g>
 </g>
</svg>
