<?xml version="1.0" encoding="utf-8" standalone="no"?>
<!DOCTYPE svg PUBLIC "-//W3C//DTD SVG 1.1//EN"
  "http://www.w3.org/Graphics/SVG/1.1/DTD/svg11.dtd">
<svg xmlns:xlink="http://www.w3.org/1999/xlink" width="201.41279pt" height="94.788pt" viewBox="0 0 201.41279 94.788" xmlns="http://www.w3.org/2000/svg" version="1.1">
 <metadata>
  <rdf:RDF xmlns:dc="http://purl.org/dc/elements/1.1/" xmlns:cc="http://creativecommons.org/ns#" xmlns:rdf="http://www.w3.org/1999/02/22-rdf-syntax-ns#">
   <cc:Work>
    <dc:type rdf:resource="http://purl.org/dc/dcmitype/StillImage"/>
    <dc:date>2023-10-13T11:20:06.256311</dc:date>
    <dc:format>image/svg+xml</dc:format>
    <dc:creator>
     <cc:Agent>
      <dc:title>Matplotlib v3.7.3, https://matplotlib.org/</dc:title>
     </cc:Agent>
    </dc:creator>
   </cc:Work>
  </rdf:RDF>
 </metadata>
 <defs>
  <style type="text/css">*{stroke-linejoin: round; stroke-linecap: butt}</style>
 </defs>
 <g id="figure_1">
  <g id="patch_1">
   <path d="M 0 94.788 
L 201.41279 94.788 
L 201.41279 0 
L 0 0 
z
" style="fill: #ffffff"/>
  </g>
  <g id="axes_1">
   <g id="patch_2">
    <path d="M 139.716171 78.671761 
L 132.683194 78.671761 
L 124.871298 71.125042 
" style="fill: none; stroke: #000000; stroke-linecap: round"/>
   </g>
   <g id="text_1">
    <g id="patch_3">
     <path d="M 141.715915 85.510824 
L 196.21279 85.510824 
L 196.21279 71.832699 
L 141.715915 71.832699 
z
" style="fill: #ffffff"/>
    </g>
    <!-- G [79.6%] -->
    <g transform="translate(143.715915 81.431136) scale(0.1 -0.1)">
     <defs>
      <path id="DejaVuSans-47" d="M 3809 666 
L 3809 1919 
L 2778 1919 
L 2778 2438 
L 4434 2438 
L 4434 434 
Q 4069 175 3628 42 
Q 3188 -91 2688 -91 
Q 1594 -91 976 548 
Q 359 1188 359 2328 
Q 359 3472 976 4111 
Q 1594 4750 2688 4750 
Q 3144 4750 3555 4637 
Q 3966 4525 4313 4306 
L 4313 3634 
Q 3963 3931 3569 4081 
Q 3175 4231 2741 4231 
Q 1884 4231 1454 3753 
Q 1025 3275 1025 2328 
Q 1025 1384 1454 906 
Q 1884 428 2741 428 
Q 3075 428 3337 486 
Q 3600 544 3809 666 
z
" transform="scale(0.015625)"/>
      <path id="DejaVuSans-20" transform="scale(0.015625)"/>
      <path id="DejaVuSans-5b" d="M 550 4863 
L 1875 4863 
L 1875 4416 
L 1125 4416 
L 1125 -397 
L 1875 -397 
L 1875 -844 
L 550 -844 
L 550 4863 
z
" transform="scale(0.015625)"/>
      <path id="DejaVuSans-37" d="M 525 4666 
L 3525 4666 
L 3525 4397 
L 1831 0 
L 1172 0 
L 2766 4134 
L 525 4134 
L 525 4666 
z
" transform="scale(0.015625)"/>
      <path id="DejaVuSans-39" d="M 703 97 
L 703 672 
Q 941 559 1184 500 
Q 1428 441 1663 441 
Q 2288 441 2617 861 
Q 2947 1281 2994 2138 
Q 2813 1869 2534 1725 
Q 2256 1581 1919 1581 
Q 1219 1581 811 2004 
Q 403 2428 403 3163 
Q 403 3881 828 4315 
Q 1253 4750 1959 4750 
Q 2769 4750 3195 4129 
Q 3622 3509 3622 2328 
Q 3622 1225 3098 567 
Q 2575 -91 1691 -91 
Q 1453 -91 1209 -44 
Q 966 3 703 97 
z
M 1959 2075 
Q 2384 2075 2632 2365 
Q 2881 2656 2881 3163 
Q 2881 3666 2632 3958 
Q 2384 4250 1959 4250 
Q 1534 4250 1286 3958 
Q 1038 3666 1038 3163 
Q 1038 2656 1286 2365 
Q 1534 2075 1959 2075 
z
" transform="scale(0.015625)"/>
      <path id="DejaVuSans-2e" d="M 684 794 
L 1344 794 
L 1344 0 
L 684 0 
L 684 794 
z
" transform="scale(0.015625)"/>
      <path id="DejaVuSans-36" d="M 2113 2584 
Q 1688 2584 1439 2293 
Q 1191 2003 1191 1497 
Q 1191 994 1439 701 
Q 1688 409 2113 409 
Q 2538 409 2786 701 
Q 3034 994 3034 1497 
Q 3034 2003 2786 2293 
Q 2538 2584 2113 2584 
z
M 3366 4563 
L 3366 3988 
Q 3128 4100 2886 4159 
Q 2644 4219 2406 4219 
Q 1781 4219 1451 3797 
Q 1122 3375 1075 2522 
Q 1259 2794 1537 2939 
Q 1816 3084 2150 3084 
Q 2853 3084 3261 2657 
Q 3669 2231 3669 1497 
Q 3669 778 3244 343 
Q 2819 -91 2113 -91 
Q 1303 -91 875 529 
Q 447 1150 447 2328 
Q 447 3434 972 4092 
Q 1497 4750 2381 4750 
Q 2619 4750 2861 4703 
Q 3103 4656 3366 4563 
z
" transform="scale(0.015625)"/>
      <path id="DejaVuSans-25" d="M 4653 2053 
Q 4381 2053 4226 1822 
Q 4072 1591 4072 1178 
Q 4072 772 4226 539 
Q 4381 306 4653 306 
Q 4919 306 5073 539 
Q 5228 772 5228 1178 
Q 5228 1588 5073 1820 
Q 4919 2053 4653 2053 
z
M 4653 2450 
Q 5147 2450 5437 2106 
Q 5728 1763 5728 1178 
Q 5728 594 5436 251 
Q 5144 -91 4653 -91 
Q 4153 -91 3862 251 
Q 3572 594 3572 1178 
Q 3572 1766 3864 2108 
Q 4156 2450 4653 2450 
z
M 1428 4353 
Q 1159 4353 1004 4120 
Q 850 3888 850 3481 
Q 850 3069 1003 2837 
Q 1156 2606 1428 2606 
Q 1700 2606 1854 2837 
Q 2009 3069 2009 3481 
Q 2009 3884 1853 4118 
Q 1697 4353 1428 4353 
z
M 4250 4750 
L 4750 4750 
L 1831 -91 
L 1331 -91 
L 4250 4750 
z
M 1428 4750 
Q 1922 4750 2215 4408 
Q 2509 4066 2509 3481 
Q 2509 2891 2217 2550 
Q 1925 2209 1428 2209 
Q 931 2209 642 2551 
Q 353 2894 353 3481 
Q 353 4063 643 4406 
Q 934 4750 1428 4750 
z
" transform="scale(0.015625)"/>
      <path id="DejaVuSans-5d" d="M 1947 4863 
L 1947 -844 
L 622 -844 
L 622 -397 
L 1369 -397 
L 1369 4416 
L 622 4416 
L 622 4863 
L 1947 4863 
z
" transform="scale(0.015625)"/>
     </defs>
     <use xlink:href="#DejaVuSans-47"/>
     <use xlink:href="#DejaVuSans-20" x="77.490234"/>
     <use xlink:href="#DejaVuSans-5b" x="109.277344"/>
     <use xlink:href="#DejaVuSans-37" x="148.291016"/>
     <use xlink:href="#DejaVuSans-39" x="211.914062"/>
     <use xlink:href="#DejaVuSans-2e" x="275.537109"/>
     <use xlink:href="#DejaVuSans-36" x="307.324219"/>
     <use xlink:href="#DejaVuSans-25" x="370.947266"/>
     <use xlink:href="#DejaVuSans-5d" x="465.966797"/>
    </g>
   </g>
   <g id="patch_4">
    <path d="M 60.892288 16.11624 
L 67.929594 16.11624 
L 75.741491 23.66296 
" style="fill: none; stroke: #000000; stroke-linecap: round"/>
   </g>
   <g id="text_2">
    <g id="patch_5">
     <path d="M 5.2 22.955303 
L 58.896875 22.955303 
L 58.896875 9.277178 
L 5.2 9.277178 
z
" style="fill: #ffffff"/>
    </g>
    <!-- R [19.9%] -->
    <g transform="translate(7.2 18.875615) scale(0.1 -0.1)">
     <defs>
      <path id="DejaVuSans-52" d="M 2841 2188 
Q 3044 2119 3236 1894 
Q 3428 1669 3622 1275 
L 4263 0 
L 3584 0 
L 2988 1197 
Q 2756 1666 2539 1819 
Q 2322 1972 1947 1972 
L 1259 1972 
L 1259 0 
L 628 0 
L 628 4666 
L 2053 4666 
Q 2853 4666 3247 4331 
Q 3641 3997 3641 3322 
Q 3641 2881 3436 2590 
Q 3231 2300 2841 2188 
z
M 1259 4147 
L 1259 2491 
L 2053 2491 
Q 2509 2491 2742 2702 
Q 2975 2913 2975 3322 
Q 2975 3731 2742 3939 
Q 2509 4147 2053 4147 
L 1259 4147 
z
" transform="scale(0.015625)"/>
      <path id="DejaVuSans-31" d="M 794 531 
L 1825 531 
L 1825 4091 
L 703 3866 
L 703 4441 
L 1819 4666 
L 2450 4666 
L 2450 531 
L 3481 531 
L 3481 0 
L 794 0 
L 794 531 
z
" transform="scale(0.015625)"/>
     </defs>
     <use xlink:href="#DejaVuSans-52"/>
     <use xlink:href="#DejaVuSans-20" x="69.482422"/>
     <use xlink:href="#DejaVuSans-5b" x="101.269531"/>
     <use xlink:href="#DejaVuSans-31" x="140.283203"/>
     <use xlink:href="#DejaVuSans-39" x="203.90625"/>
     <use xlink:href="#DejaVuSans-2e" x="267.529297"/>
     <use xlink:href="#DejaVuSans-39" x="299.316406"/>
     <use xlink:href="#DejaVuSans-25" x="362.939453"/>
     <use xlink:href="#DejaVuSans-5d" x="457.958984"/>
    </g>
   </g>
   <g id="patch_6">
    <path d="M 68.465824 42.906803 
C 67.994926 46.248233 68.052937 49.643058 68.637724 52.966449 
C 69.222511 56.28984 70.326818 59.500557 71.910038 62.480543 
C 73.493258 65.460529 75.535746 68.172805 77.9624 70.517641 
C 80.389054 72.862477 83.169761 74.810775 86.202275 76.290898 
C 89.234789 77.77102 92.48148 78.764599 95.822966 79.235102 
C 99.164452 79.705604 102.55927 79.647191 105.882592 79.062011 
C 109.205913 78.476831 112.4165 77.372144 115.396299 75.788572 
C 118.376097 74.204999 121.088132 72.162189 123.43268 69.735258 
C 125.777229 67.308327 127.725198 64.527389 129.204961 61.4947 
C 130.684725 58.462011 131.67792 55.215203 132.148027 51.873661 
C 132.618134 48.532119 132.559319 45.137308 131.973746 41.814056 
C 131.388172 38.490803 130.283106 35.280347 128.699181 32.300736 
C 127.115255 29.321125 125.072125 26.609332 122.644916 24.265071 
C 120.217708 21.92081 117.436539 19.973169 114.403675 18.493765 
C 111.370811 17.014361 108.123885 16.02155 104.782288 15.551838 
C 101.44069 15.082127 98.045886 15.141343 94.722703 15.72731 
L 96.397811 25.227317 
C 98.724039 24.81714 101.100402 24.775689 103.43952 25.104487 
C 105.778638 25.433285 108.051486 26.128252 110.174491 27.163835 
C 112.297496 28.199419 114.244314 29.562767 115.94336 31.20375 
C 117.642406 32.844733 119.072597 34.742987 120.181345 36.828715 
C 121.290093 38.914443 122.063639 41.161762 122.473541 43.488039 
C 122.883442 45.814316 122.924612 48.190683 122.595537 50.529763 
C 122.266462 52.868842 121.571226 55.141608 120.535392 57.26449 
C 119.499557 59.387372 118.135979 61.334029 116.494795 63.032881 
C 114.853611 64.731733 112.955187 66.161699 110.869328 67.2702 
C 108.783469 68.378701 106.536058 69.151981 104.209733 69.561608 
C 101.883407 69.971234 99.507035 70.012123 97.167995 69.682771 
C 94.828954 69.353419 92.556271 68.657914 90.433511 67.621828 
C 88.310751 66.585743 86.364256 65.221934 84.665599 63.580549 
C 82.966941 61.939164 81.537199 60.04057 80.428945 57.95458 
C 79.320691 55.86859 78.547676 53.621088 78.138326 51.294714 
C 77.728975 48.968341 77.688367 46.591963 78.017995 44.252962 
z
" style="fill: #1f77b4"/>
   </g>
   <g id="patch_7">
    <path d="M 94.7227 15.72731 
C 88.038439 16.905927 81.895941 20.171205 77.180109 25.052743 
C 72.464276 29.934281 69.41299 36.185838 68.465824 42.906803 
L 78.017995 44.252962 
C 78.681011 39.548287 80.816912 35.172196 84.117995 31.75512 
C 87.419077 28.338044 91.718826 26.052349 96.397809 25.227317 
z
" style="fill: #ff7f0e"/>
   </g>
   <g id="matplotlib.axis_1"/>
   <g id="matplotlib.axis_2"/>
  </g>
 </g>
</svg>
