<?xml version="1.0" encoding="utf-8" standalone="no"?>
<!DOCTYPE svg PUBLIC "-//W3C//DTD SVG 1.1//EN"
  "http://www.w3.org/Graphics/SVG/1.1/DTD/svg11.dtd">
<svg xmlns:xlink="http://www.w3.org/1999/xlink" width="196.589353pt" height="105.135556pt" viewBox="0 0 196.589353 105.135556" xmlns="http://www.w3.org/2000/svg" version="1.1">
 <metadata>
  <rdf:RDF xmlns:dc="http://purl.org/dc/elements/1.1/" xmlns:cc="http://creativecommons.org/ns#" xmlns:rdf="http://www.w3.org/1999/02/22-rdf-syntax-ns#">
   <cc:Work>
    <dc:type rdf:resource="http://purl.org/dc/dcmitype/StillImage"/>
    <dc:date>2023-10-13T11:21:14.126291</dc:date>
    <dc:format>image/svg+xml</dc:format>
    <dc:creator>
     <cc:Agent>
      <dc:title>Matplotlib v3.7.3, https://matplotlib.org/</dc:title>
     </cc:Agent>
    </dc:creator>
   </cc:Work>
  </rdf:RDF>
 </metadata>
 <defs>
  <style type="text/css">*{stroke-linejoin: round; stroke-linecap: butt}</style>
 </defs>
 <g id="figure_1">
  <g id="patch_1">
   <path d="M 0 105.135556 
L 196.589353 105.135556 
L 196.589353 0 
L 0 0 
z
" style="fill: #ffffff"/>
  </g>
  <g id="axes_1">
   <g id="patch_2">
    <path d="M 132.752991 93.096493 
L 112.939269 93.096493 
L 108.211283 83.317697 
" style="fill: none; stroke: #000000; stroke-linecap: round"/>
   </g>
   <g id="text_1">
    <g id="patch_3">
     <path d="M 134.753415 99.935556 
L 191.389353 99.935556 
L 191.389353 86.257431 
L 134.753415 86.257431 
z
" style="fill: #ffffff"/>
    </g>
    <!-- W [90.6%] -->
    <g transform="translate(136.753415 95.855868) scale(0.1 -0.1)">
     <defs>
      <path id="DejaVuSans-57" d="M 213 4666 
L 850 4666 
L 1831 722 
L 2809 4666 
L 3519 4666 
L 4500 722 
L 5478 4666 
L 6119 4666 
L 4947 0 
L 4153 0 
L 3169 4050 
L 2175 0 
L 1381 0 
L 213 4666 
z
" transform="scale(0.015625)"/>
      <path id="DejaVuSans-20" transform="scale(0.015625)"/>
      <path id="DejaVuSans-5b" d="M 550 4863 
L 1875 4863 
L 1875 4416 
L 1125 4416 
L 1125 -397 
L 1875 -397 
L 1875 -844 
L 550 -844 
L 550 4863 
z
" transform="scale(0.015625)"/>
      <path id="DejaVuSans-39" d="M 703 97 
L 703 672 
Q 941 559 1184 500 
Q 1428 441 1663 441 
Q 2288 441 2617 861 
Q 2947 1281 2994 2138 
Q 2813 1869 2534 1725 
Q 2256 1581 1919 1581 
Q 1219 1581 811 2004 
Q 403 2428 403 3163 
Q 403 3881 828 4315 
Q 1253 4750 1959 4750 
Q 2769 4750 3195 4129 
Q 3622 3509 3622 2328 
Q 3622 1225 3098 567 
Q 2575 -91 1691 -91 
Q 1453 -91 1209 -44 
Q 966 3 703 97 
z
M 1959 2075 
Q 2384 2075 2632 2365 
Q 2881 2656 2881 3163 
Q 2881 3666 2632 3958 
Q 2384 4250 1959 4250 
Q 1534 4250 1286 3958 
Q 1038 3666 1038 3163 
Q 1038 2656 1286 2365 
Q 1534 2075 1959 2075 
z
" transform="scale(0.015625)"/>
      <path id="DejaVuSans-30" d="M 2034 4250 
Q 1547 4250 1301 3770 
Q 1056 3291 1056 2328 
Q 1056 1369 1301 889 
Q 1547 409 2034 409 
Q 2525 409 2770 889 
Q 3016 1369 3016 2328 
Q 3016 3291 2770 3770 
Q 2525 4250 2034 4250 
z
M 2034 4750 
Q 2819 4750 3233 4129 
Q 3647 3509 3647 2328 
Q 3647 1150 3233 529 
Q 2819 -91 2034 -91 
Q 1250 -91 836 529 
Q 422 1150 422 2328 
Q 422 3509 836 4129 
Q 1250 4750 2034 4750 
z
" transform="scale(0.015625)"/>
      <path id="DejaVuSans-2e" d="M 684 794 
L 1344 794 
L 1344 0 
L 684 0 
L 684 794 
z
" transform="scale(0.015625)"/>
      <path id="DejaVuSans-36" d="M 2113 2584 
Q 1688 2584 1439 2293 
Q 1191 2003 1191 1497 
Q 1191 994 1439 701 
Q 1688 409 2113 409 
Q 2538 409 2786 701 
Q 3034 994 3034 1497 
Q 3034 2003 2786 2293 
Q 2538 2584 2113 2584 
z
M 3366 4563 
L 3366 3988 
Q 3128 4100 2886 4159 
Q 2644 4219 2406 4219 
Q 1781 4219 1451 3797 
Q 1122 3375 1075 2522 
Q 1259 2794 1537 2939 
Q 1816 3084 2150 3084 
Q 2853 3084 3261 2657 
Q 3669 2231 3669 1497 
Q 3669 778 3244 343 
Q 2819 -91 2113 -91 
Q 1303 -91 875 529 
Q 447 1150 447 2328 
Q 447 3434 972 4092 
Q 1497 4750 2381 4750 
Q 2619 4750 2861 4703 
Q 3103 4656 3366 4563 
z
" transform="scale(0.015625)"/>
      <path id="DejaVuSans-25" d="M 4653 2053 
Q 4381 2053 4226 1822 
Q 4072 1591 4072 1178 
Q 4072 772 4226 539 
Q 4381 306 4653 306 
Q 4919 306 5073 539 
Q 5228 772 5228 1178 
Q 5228 1588 5073 1820 
Q 4919 2053 4653 2053 
z
M 4653 2450 
Q 5147 2450 5437 2106 
Q 5728 1763 5728 1178 
Q 5728 594 5436 251 
Q 5144 -91 4653 -91 
Q 4153 -91 3862 251 
Q 3572 594 3572 1178 
Q 3572 1766 3864 2108 
Q 4156 2450 4653 2450 
z
M 1428 4353 
Q 1159 4353 1004 4120 
Q 850 3888 850 3481 
Q 850 3069 1003 2837 
Q 1156 2606 1428 2606 
Q 1700 2606 1854 2837 
Q 2009 3069 2009 3481 
Q 2009 3884 1853 4118 
Q 1697 4353 1428 4353 
z
M 4250 4750 
L 4750 4750 
L 1831 -91 
L 1331 -91 
L 4250 4750 
z
M 1428 4750 
Q 1922 4750 2215 4408 
Q 2509 4066 2509 3481 
Q 2509 2891 2217 2550 
Q 1925 2209 1428 2209 
Q 931 2209 642 2551 
Q 353 2894 353 3481 
Q 353 4063 643 4406 
Q 934 4750 1428 4750 
z
" transform="scale(0.015625)"/>
      <path id="DejaVuSans-5d" d="M 1947 4863 
L 1947 -844 
L 622 -844 
L 622 -397 
L 1369 -397 
L 1369 4416 
L 622 4416 
L 622 4863 
L 1947 4863 
z
" transform="scale(0.015625)"/>
     </defs>
     <use xlink:href="#DejaVuSans-57"/>
     <use xlink:href="#DejaVuSans-20" x="98.876953"/>
     <use xlink:href="#DejaVuSans-5b" x="130.664062"/>
     <use xlink:href="#DejaVuSans-39" x="169.677734"/>
     <use xlink:href="#DejaVuSans-30" x="233.300781"/>
     <use xlink:href="#DejaVuSans-2e" x="296.923828"/>
     <use xlink:href="#DejaVuSans-36" x="328.710938"/>
     <use xlink:href="#DejaVuSans-25" x="392.333984"/>
     <use xlink:href="#DejaVuSans-5d" x="487.353516"/>
    </g>
   </g>
   <g id="patch_4">
    <path d="M 53.932709 12.039062 
L 73.748519 12.039062 
L 78.476505 21.817859 
" style="fill: none; stroke: #000000; stroke-linecap: round"/>
   </g>
   <g id="text_2">
    <g id="patch_5">
     <path d="M 5.2 18.878125 
L 51.934375 18.878125 
L 51.934375 5.2 
L 5.2 5.2 
z
" style="fill: #ffffff"/>
    </g>
    <!-- S [8.7%] -->
    <g transform="translate(7.2 14.798438) scale(0.1 -0.1)">
     <defs>
      <path id="DejaVuSans-53" d="M 3425 4513 
L 3425 3897 
Q 3066 4069 2747 4153 
Q 2428 4238 2131 4238 
Q 1616 4238 1336 4038 
Q 1056 3838 1056 3469 
Q 1056 3159 1242 3001 
Q 1428 2844 1947 2747 
L 2328 2669 
Q 3034 2534 3370 2195 
Q 3706 1856 3706 1288 
Q 3706 609 3251 259 
Q 2797 -91 1919 -91 
Q 1588 -91 1214 -16 
Q 841 59 441 206 
L 441 856 
Q 825 641 1194 531 
Q 1563 422 1919 422 
Q 2459 422 2753 634 
Q 3047 847 3047 1241 
Q 3047 1584 2836 1778 
Q 2625 1972 2144 2069 
L 1759 2144 
Q 1053 2284 737 2584 
Q 422 2884 422 3419 
Q 422 4038 858 4394 
Q 1294 4750 2059 4750 
Q 2388 4750 2728 4690 
Q 3069 4631 3425 4513 
z
" transform="scale(0.015625)"/>
      <path id="DejaVuSans-38" d="M 2034 2216 
Q 1584 2216 1326 1975 
Q 1069 1734 1069 1313 
Q 1069 891 1326 650 
Q 1584 409 2034 409 
Q 2484 409 2743 651 
Q 3003 894 3003 1313 
Q 3003 1734 2745 1975 
Q 2488 2216 2034 2216 
z
M 1403 2484 
Q 997 2584 770 2862 
Q 544 3141 544 3541 
Q 544 4100 942 4425 
Q 1341 4750 2034 4750 
Q 2731 4750 3128 4425 
Q 3525 4100 3525 3541 
Q 3525 3141 3298 2862 
Q 3072 2584 2669 2484 
Q 3125 2378 3379 2068 
Q 3634 1759 3634 1313 
Q 3634 634 3220 271 
Q 2806 -91 2034 -91 
Q 1263 -91 848 271 
Q 434 634 434 1313 
Q 434 1759 690 2068 
Q 947 2378 1403 2484 
z
M 1172 3481 
Q 1172 3119 1398 2916 
Q 1625 2713 2034 2713 
Q 2441 2713 2670 2916 
Q 2900 3119 2900 3481 
Q 2900 3844 2670 4047 
Q 2441 4250 2034 4250 
Q 1625 4250 1398 4047 
Q 1172 3844 1172 3481 
z
" transform="scale(0.015625)"/>
      <path id="DejaVuSans-37" d="M 525 4666 
L 3525 4666 
L 3525 4397 
L 1831 0 
L 1172 0 
L 2766 4134 
L 525 4134 
L 525 4666 
z
" transform="scale(0.015625)"/>
     </defs>
     <use xlink:href="#DejaVuSans-53"/>
     <use xlink:href="#DejaVuSans-20" x="63.476562"/>
     <use xlink:href="#DejaVuSans-5b" x="95.263672"/>
     <use xlink:href="#DejaVuSans-38" x="134.277344"/>
     <use xlink:href="#DejaVuSans-2e" x="197.900391"/>
     <use xlink:href="#DejaVuSans-37" x="229.6875"/>
     <use xlink:href="#DejaVuSans-25" x="293.310547"/>
     <use xlink:href="#DejaVuSans-5d" x="388.330078"/>
    </g>
   </g>
   <g id="patch_6">
    <path d="M 71.992304 28.524765 
C 69.113745 31.081093 66.717528 34.133722 64.917966 37.537028 
C 63.118403 40.940333 61.944573 44.639323 61.452473 48.457536 
C 60.960373 52.275749 61.157954 56.151489 62.035791 59.899864 
C 62.913628 63.64824 64.457536 67.208682 66.593864 70.41134 
C 68.730191 73.613998 71.424418 76.407122 74.548017 78.657466 
C 77.671615 80.90781 81.174112 82.579012 84.888421 83.591347 
C 88.60273 84.603681 92.468834 84.940792 96.3023 84.586596 
C 100.135765 84.232399 103.87465 83.19262 107.34059 81.51686 
C 110.806531 79.8411 113.943522 77.556438 116.601915 74.771862 
C 119.260308 71.987286 121.397147 68.747792 122.910493 65.207919 
C 124.423839 61.668047 125.289239 57.884995 125.46541 54.039234 
C 125.64158 50.193473 125.125675 46.347144 123.942304 42.683738 
C 122.758934 39.020331 120.92722 35.599041 118.534544 32.583081 
C 116.141868 29.56712 113.226893 27.005223 109.928677 25.019603 
C 106.630461 23.033984 103.002298 21.656727 99.21727 20.953534 
C 95.432243 20.250342 91.55151 20.232577 87.760203 20.901087 
L 89.435311 30.401094 
C 92.089226 29.933137 94.805738 29.945573 97.455258 30.437807 
C 100.104777 30.930042 102.644491 31.894122 104.953242 33.284055 
C 107.261994 34.673989 109.302476 36.467317 110.977349 38.57849 
C 112.652222 40.689662 113.934422 43.084565 114.762781 45.64895 
C 115.591141 48.213334 115.952275 50.905764 115.828955 53.597797 
C 115.705636 56.28983 115.099856 58.937966 114.040513 61.415877 
C 112.981171 63.893788 111.485384 66.161434 109.624509 68.110637 
C 107.763634 70.05984 105.56774 71.659103 103.141582 72.832135 
C 100.715423 74.005167 98.098204 74.733013 95.414778 74.98095 
C 92.731352 75.228887 90.02508 74.99291 87.425063 74.284276 
C 84.825047 73.575641 82.373299 72.4058 80.18678 70.830559 
C 78.000261 69.255318 76.114303 67.300132 74.618873 65.058271 
C 73.123444 62.81641 72.042708 60.324101 71.428222 57.700238 
C 70.813736 55.076376 70.675429 52.363358 71.0199 49.690608 
C 71.36437 47.017859 72.186051 44.428567 73.445745 42.046253 
C 74.705438 39.663939 76.38279 37.527098 78.397781 35.737669 
z
" style="fill: #1f77b4"/>
   </g>
   <g id="patch_7">
    <path d="M 87.760199 20.901088 
C 84.84413 21.41527 82.013012 22.329791 79.347198 23.618695 
C 76.681384 24.907599 74.206336 26.558576 71.992304 28.524765 
L 78.397781 35.737669 
C 79.947604 34.361336 81.680137 33.205653 83.546207 32.30342 
C 85.412277 31.401187 87.39406 30.761022 89.435308 30.401095 
z
" style="fill: #ff7f0e"/>
   </g>
   <g id="matplotlib.axis_1"/>
   <g id="matplotlib.axis_2"/>
  </g>
 </g>
</svg>
