<?xml version="1.0" encoding="utf-8" standalone="no"?>
<!DOCTYPE svg PUBLIC "-//W3C//DTD SVG 1.1//EN"
  "http://www.w3.org/Graphics/SVG/1.1/DTD/svg11.dtd">
<svg xmlns:xlink="http://www.w3.org/1999/xlink" width="201.897165pt" height="94.788pt" viewBox="0 0 201.897165 94.788" xmlns="http://www.w3.org/2000/svg" version="1.1">
 <metadata>
  <rdf:RDF xmlns:dc="http://purl.org/dc/elements/1.1/" xmlns:cc="http://creativecommons.org/ns#" xmlns:rdf="http://www.w3.org/1999/02/22-rdf-syntax-ns#">
   <cc:Work>
    <dc:type rdf:resource="http://purl.org/dc/dcmitype/StillImage"/>
    <dc:date>2023-10-13T11:21:55.502469</dc:date>
    <dc:format>image/svg+xml</dc:format>
    <dc:creator>
     <cc:Agent>
      <dc:title>Matplotlib v3.7.3, https://matplotlib.org/</dc:title>
     </cc:Agent>
    </dc:creator>
   </cc:Work>
  </rdf:RDF>
 </metadata>
 <defs>
  <style type="text/css">*{stroke-linejoin: round; stroke-linecap: butt}</style>
 </defs>
 <g id="figure_1">
  <g id="patch_1">
   <path d="M 0 94.788 
L 201.897165 94.788 
L 201.897165 0 
L 0 0 
z
" style="fill: #ffffff"/>
  </g>
  <g id="axes_1">
   <g id="patch_2">
    <path d="M 140.253871 73.479573 
L 137.528421 73.479573 
L 128.676022 67.185628 
" style="fill: none; stroke: #000000; stroke-linecap: round"/>
   </g>
   <g id="text_1">
    <g id="patch_3">
     <path d="M 142.248728 80.318635 
L 196.697165 80.318635 
L 196.697165 66.64051 
L 142.248728 66.64051 
z
" style="fill: #ffffff"/>
    </g>
    <!-- D [74.7%] -->
    <g transform="translate(144.248728 76.238948) scale(0.1 -0.1)">
     <defs>
      <path id="DejaVuSans-44" d="M 1259 4147 
L 1259 519 
L 2022 519 
Q 2988 519 3436 956 
Q 3884 1394 3884 2338 
Q 3884 3275 3436 3711 
Q 2988 4147 2022 4147 
L 1259 4147 
z
M 628 4666 
L 1925 4666 
Q 3281 4666 3915 4102 
Q 4550 3538 4550 2338 
Q 4550 1131 3912 565 
Q 3275 0 1925 0 
L 628 0 
L 628 4666 
z
" transform="scale(0.015625)"/>
      <path id="DejaVuSans-20" transform="scale(0.015625)"/>
      <path id="DejaVuSans-5b" d="M 550 4863 
L 1875 4863 
L 1875 4416 
L 1125 4416 
L 1125 -397 
L 1875 -397 
L 1875 -844 
L 550 -844 
L 550 4863 
z
" transform="scale(0.015625)"/>
      <path id="DejaVuSans-37" d="M 525 4666 
L 3525 4666 
L 3525 4397 
L 1831 0 
L 1172 0 
L 2766 4134 
L 525 4134 
L 525 4666 
z
" transform="scale(0.015625)"/>
      <path id="DejaVuSans-34" d="M 2419 4116 
L 825 1625 
L 2419 1625 
L 2419 4116 
z
M 2253 4666 
L 3047 4666 
L 3047 1625 
L 3713 1625 
L 3713 1100 
L 3047 1100 
L 3047 0 
L 2419 0 
L 2419 1100 
L 313 1100 
L 313 1709 
L 2253 4666 
z
" transform="scale(0.015625)"/>
      <path id="DejaVuSans-2e" d="M 684 794 
L 1344 794 
L 1344 0 
L 684 0 
L 684 794 
z
" transform="scale(0.015625)"/>
      <path id="DejaVuSans-25" d="M 4653 2053 
Q 4381 2053 4226 1822 
Q 4072 1591 4072 1178 
Q 4072 772 4226 539 
Q 4381 306 4653 306 
Q 4919 306 5073 539 
Q 5228 772 5228 1178 
Q 5228 1588 5073 1820 
Q 4919 2053 4653 2053 
z
M 4653 2450 
Q 5147 2450 5437 2106 
Q 5728 1763 5728 1178 
Q 5728 594 5436 251 
Q 5144 -91 4653 -91 
Q 4153 -91 3862 251 
Q 3572 594 3572 1178 
Q 3572 1766 3864 2108 
Q 4156 2450 4653 2450 
z
M 1428 4353 
Q 1159 4353 1004 4120 
Q 850 3888 850 3481 
Q 850 3069 1003 2837 
Q 1156 2606 1428 2606 
Q 1700 2606 1854 2837 
Q 2009 3069 2009 3481 
Q 2009 3884 1853 4118 
Q 1697 4353 1428 4353 
z
M 4250 4750 
L 4750 4750 
L 1831 -91 
L 1331 -91 
L 4250 4750 
z
M 1428 4750 
Q 1922 4750 2215 4408 
Q 2509 4066 2509 3481 
Q 2509 2891 2217 2550 
Q 1925 2209 1428 2209 
Q 931 2209 642 2551 
Q 353 2894 353 3481 
Q 353 4063 643 4406 
Q 934 4750 1428 4750 
z
" transform="scale(0.015625)"/>
      <path id="DejaVuSans-5d" d="M 1947 4863 
L 1947 -844 
L 622 -844 
L 622 -397 
L 1369 -397 
L 1369 4416 
L 622 4416 
L 622 4863 
L 1947 4863 
z
" transform="scale(0.015625)"/>
     </defs>
     <use xlink:href="#DejaVuSans-44"/>
     <use xlink:href="#DejaVuSans-20" x="77.001953"/>
     <use xlink:href="#DejaVuSans-5b" x="108.789062"/>
     <use xlink:href="#DejaVuSans-37" x="147.802734"/>
     <use xlink:href="#DejaVuSans-34" x="211.425781"/>
     <use xlink:href="#DejaVuSans-2e" x="275.048828"/>
     <use xlink:href="#DejaVuSans-37" x="306.835938"/>
     <use xlink:href="#DejaVuSans-25" x="370.458984"/>
     <use xlink:href="#DejaVuSans-5d" x="465.478516"/>
    </g>
   </g>
   <g id="patch_4">
    <path d="M 61.424908 21.308422 
L 64.149998 21.308422 
L 73.002396 27.602368 
" style="fill: none; stroke: #000000; stroke-linecap: round"/>
   </g>
   <g id="text_2">
    <g id="patch_5">
     <path d="M 5.2 28.147484 
L 59.429688 28.147484 
L 59.429688 14.469359 
L 5.2 14.469359 
z
" style="fill: #ffffff"/>
    </g>
    <!-- N [24.6%] -->
    <g transform="translate(7.2 24.067797) scale(0.1 -0.1)">
     <defs>
      <path id="DejaVuSans-4e" d="M 628 4666 
L 1478 4666 
L 3547 763 
L 3547 4666 
L 4159 4666 
L 4159 0 
L 3309 0 
L 1241 3903 
L 1241 0 
L 628 0 
L 628 4666 
z
" transform="scale(0.015625)"/>
      <path id="DejaVuSans-32" d="M 1228 531 
L 3431 531 
L 3431 0 
L 469 0 
L 469 531 
Q 828 903 1448 1529 
Q 2069 2156 2228 2338 
Q 2531 2678 2651 2914 
Q 2772 3150 2772 3378 
Q 2772 3750 2511 3984 
Q 2250 4219 1831 4219 
Q 1534 4219 1204 4116 
Q 875 4013 500 3803 
L 500 4441 
Q 881 4594 1212 4672 
Q 1544 4750 1819 4750 
Q 2544 4750 2975 4387 
Q 3406 4025 3406 3419 
Q 3406 3131 3298 2873 
Q 3191 2616 2906 2266 
Q 2828 2175 2409 1742 
Q 1991 1309 1228 531 
z
" transform="scale(0.015625)"/>
      <path id="DejaVuSans-36" d="M 2113 2584 
Q 1688 2584 1439 2293 
Q 1191 2003 1191 1497 
Q 1191 994 1439 701 
Q 1688 409 2113 409 
Q 2538 409 2786 701 
Q 3034 994 3034 1497 
Q 3034 2003 2786 2293 
Q 2538 2584 2113 2584 
z
M 3366 4563 
L 3366 3988 
Q 3128 4100 2886 4159 
Q 2644 4219 2406 4219 
Q 1781 4219 1451 3797 
Q 1122 3375 1075 2522 
Q 1259 2794 1537 2939 
Q 1816 3084 2150 3084 
Q 2853 3084 3261 2657 
Q 3669 2231 3669 1497 
Q 3669 778 3244 343 
Q 2819 -91 2113 -91 
Q 1303 -91 875 529 
Q 447 1150 447 2328 
Q 447 3434 972 4092 
Q 1497 4750 2381 4750 
Q 2619 4750 2861 4703 
Q 3103 4656 3366 4563 
z
" transform="scale(0.015625)"/>
     </defs>
     <use xlink:href="#DejaVuSans-4e"/>
     <use xlink:href="#DejaVuSans-20" x="74.804688"/>
     <use xlink:href="#DejaVuSans-5b" x="106.591797"/>
     <use xlink:href="#DejaVuSans-32" x="145.605469"/>
     <use xlink:href="#DejaVuSans-34" x="209.228516"/>
     <use xlink:href="#DejaVuSans-2e" x="272.851562"/>
     <use xlink:href="#DejaVuSans-36" x="304.638672"/>
     <use xlink:href="#DejaVuSans-25" x="368.261719"/>
     <use xlink:href="#DejaVuSans-5d" x="463.28125"/>
    </g>
   </g>
   <g id="patch_6">
    <path d="M 69.09543 52.521325 
C 69.601258 55.652955 70.567731 58.692565 71.963405 61.541259 
C 73.35908 64.389954 75.168653 67.0165 77.33325 69.335441 
C 79.497846 71.654382 81.993733 73.640294 84.739706 75.228564 
C 87.485679 76.816834 90.451631 77.990047 93.541062 78.710034 
C 96.630494 79.43002 99.809532 79.688885 102.974747 79.478207 
C 106.139961 79.267529 109.256648 78.589618 112.223403 77.466529 
C 115.190159 76.34344 117.974456 74.787487 120.485706 72.849294 
C 122.996956 70.911101 125.207625 68.611919 127.045789 66.026552 
C 128.883952 63.441185 130.329456 60.59798 131.335271 57.589441 
C 132.341085 54.580903 132.896182 51.440016 132.982501 48.268973 
C 133.06882 45.09793 132.685415 41.931496 131.844759 38.872695 
C 131.004104 35.813894 129.715416 32.896261 128.020623 30.214723 
C 126.32583 27.533186 124.243513 25.117144 121.841423 23.045205 
C 119.439333 20.973266 116.743806 19.268147 113.842542 17.985325 
C 110.941277 16.702502 107.866086 15.856041 104.71702 15.473482 
C 101.567954 15.090923 98.379541 15.17646 95.255516 15.72731 
L 96.930623 25.227317 
C 99.117441 24.841722 101.34933 24.781846 103.553676 25.049638 
C 105.758022 25.317429 107.910656 25.909952 109.941541 26.807927 
C 111.972426 27.705903 113.859296 28.899486 115.540759 30.349844 
C 117.222222 31.800201 118.679843 33.49143 119.866198 35.368506 
C 121.052553 37.245583 121.954635 39.287925 122.543094 41.429086 
C 123.131552 43.570247 123.399936 45.786751 123.339513 48.006481 
C 123.27909 50.226211 122.890522 52.424832 122.186452 54.530809 
C 121.482382 56.636786 120.470529 58.62703 119.183814 60.436786 
C 117.8971 62.246543 116.349631 63.855971 114.591756 65.212706 
C 112.833881 66.569441 110.884873 67.658608 108.808144 68.44477 
C 106.731416 69.230932 104.549735 69.70547 102.334085 69.852945 
C 100.118435 70.00042 97.893108 69.819214 95.730506 69.315224 
C 93.567904 68.811233 91.491738 67.989983 89.569557 66.878195 
C 87.647376 65.766406 85.900255 64.376268 84.385037 62.753009 
C 82.869819 61.12975 81.603118 59.291168 80.626146 57.297081 
C 79.649174 55.302995 78.972643 53.175268 78.618563 50.983128 
z
" style="fill: #1f77b4"/>
   </g>
   <g id="patch_7">
    <path d="M 95.255525 15.727308 
C 86.939013 17.193731 79.526032 21.878903 74.632629 28.761444 
C 69.739227 35.643986 67.748858 44.184568 69.09543 52.521325 
L 78.618563 50.983128 
C 77.675963 45.147398 79.069221 39.16899 82.494603 34.351211 
C 85.919984 29.533432 91.109071 26.253812 96.930629 25.227316 
z
" style="fill: #ff7f0e"/>
   </g>
   <g id="matplotlib.axis_1"/>
   <g id="matplotlib.axis_2"/>
  </g>
 </g>
</svg>
