<?xml version="1.0" encoding="utf-8" standalone="no"?>
<!DOCTYPE svg PUBLIC "-//W3C//DTD SVG 1.1//EN"
  "http://www.w3.org/Graphics/SVG/1.1/DTD/svg11.dtd">
<svg xmlns:xlink="http://www.w3.org/1999/xlink" width="200.734665pt" height="94.788pt" viewBox="0 0 200.734665 94.788" xmlns="http://www.w3.org/2000/svg" version="1.1">
 <metadata>
  <rdf:RDF xmlns:dc="http://purl.org/dc/elements/1.1/" xmlns:cc="http://creativecommons.org/ns#" xmlns:rdf="http://www.w3.org/1999/02/22-rdf-syntax-ns#">
   <cc:Work>
    <dc:type rdf:resource="http://purl.org/dc/dcmitype/StillImage"/>
    <dc:date>2023-10-13T11:20:22.136527</dc:date>
    <dc:format>image/svg+xml</dc:format>
    <dc:creator>
     <cc:Agent>
      <dc:title>Matplotlib v3.7.3, https://matplotlib.org/</dc:title>
     </cc:Agent>
    </dc:creator>
   </cc:Work>
  </rdf:RDF>
 </metadata>
 <defs>
  <style type="text/css">*{stroke-linejoin: round; stroke-linecap: butt}</style>
 </defs>
 <g id="figure_1">
  <g id="patch_1">
   <path d="M 0 94.788 
L 200.734665 94.788 
L 200.734665 0 
L 0 0 
z
" style="fill: #ffffff"/>
  </g>
  <g id="axes_1">
   <g id="patch_2">
    <path d="M 140.472571 76.239452 
L 135.61943 76.239452 
L 127.280414 69.279601 
" style="fill: none; stroke: #000000; stroke-linecap: round"/>
   </g>
   <g id="text_1">
    <g id="patch_3">
     <path d="M 142.467478 83.078514 
L 195.534665 83.078514 
L 195.534665 69.400389 
L 142.467478 69.400389 
z
" style="fill: #ffffff"/>
    </g>
    <!-- E [77.1%] -->
    <g transform="translate(144.467478 78.998827) scale(0.1 -0.1)">
     <defs>
      <path id="DejaVuSans-45" d="M 628 4666 
L 3578 4666 
L 3578 4134 
L 1259 4134 
L 1259 2753 
L 3481 2753 
L 3481 2222 
L 1259 2222 
L 1259 531 
L 3634 531 
L 3634 0 
L 628 0 
L 628 4666 
z
" transform="scale(0.015625)"/>
      <path id="DejaVuSans-20" transform="scale(0.015625)"/>
      <path id="DejaVuSans-5b" d="M 550 4863 
L 1875 4863 
L 1875 4416 
L 1125 4416 
L 1125 -397 
L 1875 -397 
L 1875 -844 
L 550 -844 
L 550 4863 
z
" transform="scale(0.015625)"/>
      <path id="DejaVuSans-37" d="M 525 4666 
L 3525 4666 
L 3525 4397 
L 1831 0 
L 1172 0 
L 2766 4134 
L 525 4134 
L 525 4666 
z
" transform="scale(0.015625)"/>
      <path id="DejaVuSans-2e" d="M 684 794 
L 1344 794 
L 1344 0 
L 684 0 
L 684 794 
z
" transform="scale(0.015625)"/>
      <path id="DejaVuSans-31" d="M 794 531 
L 1825 531 
L 1825 4091 
L 703 3866 
L 703 4441 
L 1819 4666 
L 2450 4666 
L 2450 531 
L 3481 531 
L 3481 0 
L 794 0 
L 794 531 
z
" transform="scale(0.015625)"/>
      <path id="DejaVuSans-25" d="M 4653 2053 
Q 4381 2053 4226 1822 
Q 4072 1591 4072 1178 
Q 4072 772 4226 539 
Q 4381 306 4653 306 
Q 4919 306 5073 539 
Q 5228 772 5228 1178 
Q 5228 1588 5073 1820 
Q 4919 2053 4653 2053 
z
M 4653 2450 
Q 5147 2450 5437 2106 
Q 5728 1763 5728 1178 
Q 5728 594 5436 251 
Q 5144 -91 4653 -91 
Q 4153 -91 3862 251 
Q 3572 594 3572 1178 
Q 3572 1766 3864 2108 
Q 4156 2450 4653 2450 
z
M 1428 4353 
Q 1159 4353 1004 4120 
Q 850 3888 850 3481 
Q 850 3069 1003 2837 
Q 1156 2606 1428 2606 
Q 1700 2606 1854 2837 
Q 2009 3069 2009 3481 
Q 2009 3884 1853 4118 
Q 1697 4353 1428 4353 
z
M 4250 4750 
L 4750 4750 
L 1831 -91 
L 1331 -91 
L 4250 4750 
z
M 1428 4750 
Q 1922 4750 2215 4408 
Q 2509 4066 2509 3481 
Q 2509 2891 2217 2550 
Q 1925 2209 1428 2209 
Q 931 2209 642 2551 
Q 353 2894 353 3481 
Q 353 4063 643 4406 
Q 934 4750 1428 4750 
z
" transform="scale(0.015625)"/>
      <path id="DejaVuSans-5d" d="M 1947 4863 
L 1947 -844 
L 622 -844 
L 622 -397 
L 1369 -397 
L 1369 4416 
L 622 4416 
L 622 4863 
L 1947 4863 
z
" transform="scale(0.015625)"/>
     </defs>
     <use xlink:href="#DejaVuSans-45"/>
     <use xlink:href="#DejaVuSans-20" x="63.183594"/>
     <use xlink:href="#DejaVuSans-5b" x="94.970703"/>
     <use xlink:href="#DejaVuSans-37" x="133.984375"/>
     <use xlink:href="#DejaVuSans-37" x="197.607422"/>
     <use xlink:href="#DejaVuSans-2e" x="261.230469"/>
     <use xlink:href="#DejaVuSans-31" x="293.017578"/>
     <use xlink:href="#DejaVuSans-25" x="356.640625"/>
     <use xlink:href="#DejaVuSans-5d" x="451.660156"/>
    </g>
   </g>
   <g id="patch_4">
    <path d="M 61.643131 18.548545 
L 66.496487 18.548545 
L 74.835503 25.508396 
" style="fill: none; stroke: #000000; stroke-linecap: round"/>
   </g>
   <g id="text_2">
    <g id="patch_5">
     <path d="M 5.2 25.387607 
L 59.648438 25.387607 
L 59.648438 11.709482 
L 5.2 11.709482 
z
" style="fill: #ffffff"/>
    </g>
    <!-- D [22.1%] -->
    <g transform="translate(7.2 21.30792) scale(0.1 -0.1)">
     <defs>
      <path id="DejaVuSans-44" d="M 1259 4147 
L 1259 519 
L 2022 519 
Q 2988 519 3436 956 
Q 3884 1394 3884 2338 
Q 3884 3275 3436 3711 
Q 2988 4147 2022 4147 
L 1259 4147 
z
M 628 4666 
L 1925 4666 
Q 3281 4666 3915 4102 
Q 4550 3538 4550 2338 
Q 4550 1131 3912 565 
Q 3275 0 1925 0 
L 628 0 
L 628 4666 
z
" transform="scale(0.015625)"/>
      <path id="DejaVuSans-32" d="M 1228 531 
L 3431 531 
L 3431 0 
L 469 0 
L 469 531 
Q 828 903 1448 1529 
Q 2069 2156 2228 2338 
Q 2531 2678 2651 2914 
Q 2772 3150 2772 3378 
Q 2772 3750 2511 3984 
Q 2250 4219 1831 4219 
Q 1534 4219 1204 4116 
Q 875 4013 500 3803 
L 500 4441 
Q 881 4594 1212 4672 
Q 1544 4750 1819 4750 
Q 2544 4750 2975 4387 
Q 3406 4025 3406 3419 
Q 3406 3131 3298 2873 
Q 3191 2616 2906 2266 
Q 2828 2175 2409 1742 
Q 1991 1309 1228 531 
z
" transform="scale(0.015625)"/>
     </defs>
     <use xlink:href="#DejaVuSans-44"/>
     <use xlink:href="#DejaVuSans-20" x="77.001953"/>
     <use xlink:href="#DejaVuSans-5b" x="108.789062"/>
     <use xlink:href="#DejaVuSans-32" x="147.802734"/>
     <use xlink:href="#DejaVuSans-32" x="211.425781"/>
     <use xlink:href="#DejaVuSans-2e" x="275.048828"/>
     <use xlink:href="#DejaVuSans-31" x="306.835938"/>
     <use xlink:href="#DejaVuSans-25" x="370.458984"/>
     <use xlink:href="#DejaVuSans-5d" x="465.478516"/>
    </g>
   </g>
   <g id="patch_6">
    <path d="M 68.903205 47.563697 
C 68.920497 50.840194 69.438489 54.094884 70.439213 57.214865 
C 71.439937 60.334846 72.911687 63.283621 74.803408 65.9589 
C 76.69513 68.63418 78.984694 71.004668 81.592679 72.988136 
C 84.200664 74.971604 87.096561 76.544849 90.179915 77.653297 
C 93.26327 78.761746 96.498012 79.39243 99.771933 79.523473 
C 103.045854 79.654516 106.320655 79.284385 109.482738 78.425919 
C 112.64482 77.567452 115.657194 76.230694 118.415364 74.462013 
C 121.173533 72.693333 123.645233 70.51342 125.744724 67.997894 
C 127.844214 65.482368 129.546935 62.660656 130.793821 59.630638 
C 132.040707 56.60062 132.817172 53.397743 133.096281 50.13311 
C 133.37539 46.868477 133.153878 43.580278 132.43943 40.382577 
C 131.724982 37.184875 130.525955 34.115078 128.883941 31.279673 
C 127.241927 28.444268 125.176136 25.876424 122.758226 23.665215 
C 120.340316 21.454007 117.598573 19.625301 114.628104 18.242533 
C 111.657636 16.859766 108.49319 15.939113 105.244538 15.51251 
C 101.995886 15.085906 98.70103 15.158344 95.474266 15.72731 
L 97.149373 25.227317 
C 99.408108 24.829041 101.714507 24.778335 103.988564 25.076957 
C 106.26262 25.375579 108.477732 26.020036 110.55706 26.987973 
C 112.636389 27.955911 114.555609 29.236005 116.248146 30.783851 
C 117.940682 32.331697 119.386736 34.129188 120.536146 36.113971 
C 121.685556 38.098755 122.524875 40.247613 123.024988 42.486004 
C 123.525102 44.724395 123.68016 47.026134 123.484784 49.311377 
C 123.289407 51.59662 122.745882 53.838634 121.873062 55.959647 
C 121.000242 58.080659 119.808337 60.055858 118.338694 61.816726 
C 116.869051 63.577594 115.138861 65.103533 113.208142 66.341609 
C 111.277423 67.579686 109.168761 68.515417 106.955304 69.116343 
C 104.741846 69.717269 102.449485 69.976361 100.15774 69.884631 
C 97.865995 69.792901 95.601676 69.351422 93.443328 68.575508 
C 91.28498 67.799595 89.257852 66.698323 87.432263 65.309895 
C 85.606673 63.921468 84.003978 62.262126 82.679773 60.38943 
C 81.355568 58.516735 80.325343 56.452592 79.624837 54.268605 
C 78.92433 52.084619 78.561735 49.806336 78.549631 47.512788 
z
" style="fill: #1f77b4"/>
   </g>
   <g id="patch_7">
    <path d="M 95.474272 15.727309 
C 88.00243 17.044794 81.232738 20.965195 76.371193 26.790104 
C 71.509648 32.615012 68.863165 39.976697 68.903205 47.563697 
L 78.549631 47.512788 
C 78.521603 42.201888 80.374141 37.048709 83.777222 32.971272 
C 87.180304 28.893836 91.919088 26.149556 97.149377 25.227316 
z
" style="fill: #ff7f0e"/>
   </g>
   <g id="matplotlib.axis_1"/>
   <g id="matplotlib.axis_2"/>
  </g>
 </g>
</svg>
