<?xml version="1.0" encoding="utf-8" standalone="no"?>
<!DOCTYPE svg PUBLIC "-//W3C//DTD SVG 1.1//EN"
  "http://www.w3.org/Graphics/SVG/1.1/DTD/svg11.dtd">
<svg xmlns:xlink="http://www.w3.org/1999/xlink" width="200.515915pt" height="94.788pt" viewBox="0 0 200.515915 94.788" xmlns="http://www.w3.org/2000/svg" version="1.1">
 <metadata>
  <rdf:RDF xmlns:dc="http://purl.org/dc/elements/1.1/" xmlns:cc="http://creativecommons.org/ns#" xmlns:rdf="http://www.w3.org/1999/02/22-rdf-syntax-ns#">
   <cc:Work>
    <dc:type rdf:resource="http://purl.org/dc/dcmitype/StillImage"/>
    <dc:date>2023-10-13T11:20:02.408475</dc:date>
    <dc:format>image/svg+xml</dc:format>
    <dc:creator>
     <cc:Agent>
      <dc:title>Matplotlib v3.7.3, https://matplotlib.org/</dc:title>
     </cc:Agent>
    </dc:creator>
   </cc:Work>
  </rdf:RDF>
 </metadata>
 <defs>
  <style type="text/css">*{stroke-linejoin: round; stroke-linecap: butt}</style>
 </defs>
 <g id="figure_1">
  <g id="patch_1">
   <path d="M 0 94.788 
L 200.515915 94.788 
L 200.515915 0 
L 0 0 
z
" style="fill: #ffffff"/>
  </g>
  <g id="axes_1">
   <g id="patch_2">
    <path d="M 140.253562 78.271455 
L 133.597996 78.271455 
L 125.693933 70.821321 
" style="fill: none; stroke: #000000; stroke-linecap: round"/>
   </g>
   <g id="text_1">
    <g id="patch_3">
     <path d="M 142.248728 85.110518 
L 195.315915 85.110518 
L 195.315915 71.432393 
L 142.248728 71.432393 
z
" style="fill: #ffffff"/>
    </g>
    <!-- E [76.5%] -->
    <g transform="translate(144.248728 81.03083) scale(0.1 -0.1)">
     <defs>
      <path id="DejaVuSans-45" d="M 628 4666 
L 3578 4666 
L 3578 4134 
L 1259 4134 
L 1259 2753 
L 3481 2753 
L 3481 2222 
L 1259 2222 
L 1259 531 
L 3634 531 
L 3634 0 
L 628 0 
L 628 4666 
z
" transform="scale(0.015625)"/>
      <path id="DejaVuSans-20" transform="scale(0.015625)"/>
      <path id="DejaVuSans-5b" d="M 550 4863 
L 1875 4863 
L 1875 4416 
L 1125 4416 
L 1125 -397 
L 1875 -397 
L 1875 -844 
L 550 -844 
L 550 4863 
z
" transform="scale(0.015625)"/>
      <path id="DejaVuSans-37" d="M 525 4666 
L 3525 4666 
L 3525 4397 
L 1831 0 
L 1172 0 
L 2766 4134 
L 525 4134 
L 525 4666 
z
" transform="scale(0.015625)"/>
      <path id="DejaVuSans-36" d="M 2113 2584 
Q 1688 2584 1439 2293 
Q 1191 2003 1191 1497 
Q 1191 994 1439 701 
Q 1688 409 2113 409 
Q 2538 409 2786 701 
Q 3034 994 3034 1497 
Q 3034 2003 2786 2293 
Q 2538 2584 2113 2584 
z
M 3366 4563 
L 3366 3988 
Q 3128 4100 2886 4159 
Q 2644 4219 2406 4219 
Q 1781 4219 1451 3797 
Q 1122 3375 1075 2522 
Q 1259 2794 1537 2939 
Q 1816 3084 2150 3084 
Q 2853 3084 3261 2657 
Q 3669 2231 3669 1497 
Q 3669 778 3244 343 
Q 2819 -91 2113 -91 
Q 1303 -91 875 529 
Q 447 1150 447 2328 
Q 447 3434 972 4092 
Q 1497 4750 2381 4750 
Q 2619 4750 2861 4703 
Q 3103 4656 3366 4563 
z
" transform="scale(0.015625)"/>
      <path id="DejaVuSans-2e" d="M 684 794 
L 1344 794 
L 1344 0 
L 684 0 
L 684 794 
z
" transform="scale(0.015625)"/>
      <path id="DejaVuSans-35" d="M 691 4666 
L 3169 4666 
L 3169 4134 
L 1269 4134 
L 1269 2991 
Q 1406 3038 1543 3061 
Q 1681 3084 1819 3084 
Q 2600 3084 3056 2656 
Q 3513 2228 3513 1497 
Q 3513 744 3044 326 
Q 2575 -91 1722 -91 
Q 1428 -91 1123 -41 
Q 819 9 494 109 
L 494 744 
Q 775 591 1075 516 
Q 1375 441 1709 441 
Q 2250 441 2565 725 
Q 2881 1009 2881 1497 
Q 2881 1984 2565 2268 
Q 2250 2553 1709 2553 
Q 1456 2553 1204 2497 
Q 953 2441 691 2322 
L 691 4666 
z
" transform="scale(0.015625)"/>
      <path id="DejaVuSans-25" d="M 4653 2053 
Q 4381 2053 4226 1822 
Q 4072 1591 4072 1178 
Q 4072 772 4226 539 
Q 4381 306 4653 306 
Q 4919 306 5073 539 
Q 5228 772 5228 1178 
Q 5228 1588 5073 1820 
Q 4919 2053 4653 2053 
z
M 4653 2450 
Q 5147 2450 5437 2106 
Q 5728 1763 5728 1178 
Q 5728 594 5436 251 
Q 5144 -91 4653 -91 
Q 4153 -91 3862 251 
Q 3572 594 3572 1178 
Q 3572 1766 3864 2108 
Q 4156 2450 4653 2450 
z
M 1428 4353 
Q 1159 4353 1004 4120 
Q 850 3888 850 3481 
Q 850 3069 1003 2837 
Q 1156 2606 1428 2606 
Q 1700 2606 1854 2837 
Q 2009 3069 2009 3481 
Q 2009 3884 1853 4118 
Q 1697 4353 1428 4353 
z
M 4250 4750 
L 4750 4750 
L 1831 -91 
L 1331 -91 
L 4250 4750 
z
M 1428 4750 
Q 1922 4750 2215 4408 
Q 2509 4066 2509 3481 
Q 2509 2891 2217 2550 
Q 1925 2209 1428 2209 
Q 931 2209 642 2551 
Q 353 2894 353 3481 
Q 353 4063 643 4406 
Q 934 4750 1428 4750 
z
" transform="scale(0.015625)"/>
      <path id="DejaVuSans-5d" d="M 1947 4863 
L 1947 -844 
L 622 -844 
L 622 -397 
L 1369 -397 
L 1369 4416 
L 622 4416 
L 622 4863 
L 1947 4863 
z
" transform="scale(0.015625)"/>
     </defs>
     <use xlink:href="#DejaVuSans-45"/>
     <use xlink:href="#DejaVuSans-20" x="63.183594"/>
     <use xlink:href="#DejaVuSans-5b" x="94.970703"/>
     <use xlink:href="#DejaVuSans-37" x="133.984375"/>
     <use xlink:href="#DejaVuSans-36" x="197.607422"/>
     <use xlink:href="#DejaVuSans-2e" x="261.230469"/>
     <use xlink:href="#DejaVuSans-35" x="293.017578"/>
     <use xlink:href="#DejaVuSans-25" x="356.640625"/>
     <use xlink:href="#DejaVuSans-5d" x="451.660156"/>
    </g>
   </g>
   <g id="patch_4">
    <path d="M 61.429058 16.516548 
L 68.080416 16.516548 
L 75.98448 23.966681 
" style="fill: none; stroke: #000000; stroke-linecap: round"/>
   </g>
   <g id="text_2">
    <g id="patch_5">
     <path d="M 5.2 23.35561 
L 59.429688 23.35561 
L 59.429688 9.677485 
L 5.2 9.677485 
z
" style="fill: #ffffff"/>
    </g>
    <!-- N [19.6%] -->
    <g transform="translate(7.2 19.275923) scale(0.1 -0.1)">
     <defs>
      <path id="DejaVuSans-4e" d="M 628 4666 
L 1478 4666 
L 3547 763 
L 3547 4666 
L 4159 4666 
L 4159 0 
L 3309 0 
L 1241 3903 
L 1241 0 
L 628 0 
L 628 4666 
z
" transform="scale(0.015625)"/>
      <path id="DejaVuSans-31" d="M 794 531 
L 1825 531 
L 1825 4091 
L 703 3866 
L 703 4441 
L 1819 4666 
L 2450 4666 
L 2450 531 
L 3481 531 
L 3481 0 
L 794 0 
L 794 531 
z
" transform="scale(0.015625)"/>
      <path id="DejaVuSans-39" d="M 703 97 
L 703 672 
Q 941 559 1184 500 
Q 1428 441 1663 441 
Q 2288 441 2617 861 
Q 2947 1281 2994 2138 
Q 2813 1869 2534 1725 
Q 2256 1581 1919 1581 
Q 1219 1581 811 2004 
Q 403 2428 403 3163 
Q 403 3881 828 4315 
Q 1253 4750 1959 4750 
Q 2769 4750 3195 4129 
Q 3622 3509 3622 2328 
Q 3622 1225 3098 567 
Q 2575 -91 1691 -91 
Q 1453 -91 1209 -44 
Q 966 3 703 97 
z
M 1959 2075 
Q 2384 2075 2632 2365 
Q 2881 2656 2881 3163 
Q 2881 3666 2632 3958 
Q 2384 4250 1959 4250 
Q 1534 4250 1286 3958 
Q 1038 3666 1038 3163 
Q 1038 2656 1286 2365 
Q 1534 2075 1959 2075 
z
" transform="scale(0.015625)"/>
     </defs>
     <use xlink:href="#DejaVuSans-4e"/>
     <use xlink:href="#DejaVuSans-20" x="74.804688"/>
     <use xlink:href="#DejaVuSans-5b" x="106.591797"/>
     <use xlink:href="#DejaVuSans-31" x="145.605469"/>
     <use xlink:href="#DejaVuSans-39" x="209.228516"/>
     <use xlink:href="#DejaVuSans-2e" x="272.851562"/>
     <use xlink:href="#DejaVuSans-36" x="304.638672"/>
     <use xlink:href="#DejaVuSans-25" x="368.261719"/>
     <use xlink:href="#DejaVuSans-5d" x="463.28125"/>
    </g>
   </g>
   <g id="patch_6">
    <path d="M 68.897961 43.690805 
C 68.511246 47.026342 68.649389 50.401963 69.307359 53.694748 
C 69.965329 56.987533 71.135041 60.157023 72.773903 63.087807 
C 74.412764 66.01859 76.500638 68.674655 78.961496 70.959285 
C 81.422355 73.243914 84.225961 75.129037 87.270226 76.546009 
C 90.314491 77.962981 93.562009 78.894391 96.894526 79.306323 
C 100.227043 79.718256 103.603611 79.605649 106.901279 78.972603 
C 110.198946 78.339558 113.377194 77.193852 116.320289 75.577204 
C 119.263384 73.960557 121.935165 71.892833 124.238342 69.449325 
C 126.54152 67.005817 128.447794 64.216549 129.887751 61.183089 
C 131.327708 58.149629 132.283655 54.909249 132.720782 51.579943 
C 133.157908 48.250637 133.070844 44.873313 132.462759 41.570952 
C 131.854674 38.268591 130.73304 35.081769 129.138699 32.12653 
C 127.544359 29.171291 125.496902 26.483947 123.070885 24.162353 
C 120.644867 21.84076 117.870098 19.913443 114.847616 18.450583 
C 111.825133 16.987723 108.592076 16.007295 105.266172 15.544999 
C 101.940268 15.082703 98.562382 15.14422 95.255516 15.72731 
L 96.930623 25.227317 
C 99.245429 24.819154 101.60995 24.776092 103.938083 25.099699 
C 106.266216 25.423306 108.529356 26.109606 110.645093 27.133608 
C 112.760831 28.15761 114.703169 29.506732 116.401382 31.131847 
C 118.099594 32.756963 119.532814 34.638104 120.648852 36.706771 
C 121.76489 38.775438 122.550034 41.006213 122.975693 43.317866 
C 123.401353 45.629519 123.462298 47.993646 123.156309 50.32416 
C 122.850321 52.654674 122.181158 54.92294 121.173188 57.046362 
C 120.165218 59.169785 118.830826 61.122272 117.218602 62.832728 
C 115.606378 64.543183 113.736131 65.99059 111.675964 67.122243 
C 109.615798 68.253896 107.391025 69.05589 105.082657 69.499022 
C 102.77429 69.942154 100.410692 70.020979 98.07793 69.732626 
C 95.745168 69.444274 93.471906 68.792287 91.34092 67.800406 
C 89.209935 66.808526 87.247411 65.48894 85.52481 63.889699 
C 83.802209 62.290458 82.340697 60.431213 81.193494 58.379665 
C 80.046291 56.328116 79.227493 54.109473 78.766914 51.804523 
C 78.306335 49.499574 78.209635 47.13664 78.480335 44.801763 
z
" style="fill: #1f77b4"/>
   </g>
   <g id="patch_7">
    <path d="M 95.25551 15.727311 
C 88.438296 16.929371 82.188146 20.301304 77.44007 25.338677 
C 72.691994 30.37605 69.695186 36.814485 68.897961 43.690805 
L 78.480335 44.801763 
C 79.038392 39.988339 81.136158 35.481435 84.459812 31.955274 
C 87.783465 28.429113 92.15857 26.06876 96.930619 25.227318 
z
" style="fill: #ff7f0e"/>
   </g>
   <g id="matplotlib.axis_1"/>
   <g id="matplotlib.axis_2"/>
  </g>
 </g>
</svg>
