<?xml version="1.0" encoding="utf-8" standalone="no"?>
<!DOCTYPE svg PUBLIC "-//W3C//DTD SVG 1.1//EN"
  "http://www.w3.org/Graphics/SVG/1.1/DTD/svg11.dtd">
<svg xmlns:xlink="http://www.w3.org/1999/xlink" width="193.301853pt" height="103.553873pt" viewBox="0 0 193.301853 103.553873" xmlns="http://www.w3.org/2000/svg" version="1.1">
 <metadata>
  <rdf:RDF xmlns:dc="http://purl.org/dc/elements/1.1/" xmlns:cc="http://creativecommons.org/ns#" xmlns:rdf="http://www.w3.org/1999/02/22-rdf-syntax-ns#">
   <cc:Work>
    <dc:type rdf:resource="http://purl.org/dc/dcmitype/StillImage"/>
    <dc:date>2023-10-13T11:20:18.460180</dc:date>
    <dc:format>image/svg+xml</dc:format>
    <dc:creator>
     <cc:Agent>
      <dc:title>Matplotlib v3.7.3, https://matplotlib.org/</dc:title>
     </cc:Agent>
    </dc:creator>
   </cc:Work>
  </rdf:RDF>
 </metadata>
 <defs>
  <style type="text/css">*{stroke-linejoin: round; stroke-linecap: butt}</style>
 </defs>
 <g id="figure_1">
  <g id="patch_1">
   <path d="M 0 103.553873 
L 193.301852 103.553873 
L 193.301852 0 
L 0 0 
z
" style="fill: #ffffff"/>
  </g>
  <g id="axes_1">
   <g id="patch_2">
    <path d="M 132.50825 91.51481 
L 114.256449 91.51481 
L 109.152595 81.926829 
" style="fill: none; stroke: #000000; stroke-linecap: round"/>
   </g>
   <g id="text_1">
    <g id="patch_3">
     <path d="M 134.51279 98.353873 
L 188.101853 98.353873 
L 188.101853 84.675748 
L 134.51279 84.675748 
z
" style="fill: #ffffff"/>
    </g>
    <!-- A [89.4%] -->
    <g transform="translate(136.51279 94.274185) scale(0.1 -0.1)">
     <defs>
      <path id="DejaVuSans-41" d="M 2188 4044 
L 1331 1722 
L 3047 1722 
L 2188 4044 
z
M 1831 4666 
L 2547 4666 
L 4325 0 
L 3669 0 
L 3244 1197 
L 1141 1197 
L 716 0 
L 50 0 
L 1831 4666 
z
" transform="scale(0.015625)"/>
      <path id="DejaVuSans-20" transform="scale(0.015625)"/>
      <path id="DejaVuSans-5b" d="M 550 4863 
L 1875 4863 
L 1875 4416 
L 1125 4416 
L 1125 -397 
L 1875 -397 
L 1875 -844 
L 550 -844 
L 550 4863 
z
" transform="scale(0.015625)"/>
      <path id="DejaVuSans-38" d="M 2034 2216 
Q 1584 2216 1326 1975 
Q 1069 1734 1069 1313 
Q 1069 891 1326 650 
Q 1584 409 2034 409 
Q 2484 409 2743 651 
Q 3003 894 3003 1313 
Q 3003 1734 2745 1975 
Q 2488 2216 2034 2216 
z
M 1403 2484 
Q 997 2584 770 2862 
Q 544 3141 544 3541 
Q 544 4100 942 4425 
Q 1341 4750 2034 4750 
Q 2731 4750 3128 4425 
Q 3525 4100 3525 3541 
Q 3525 3141 3298 2862 
Q 3072 2584 2669 2484 
Q 3125 2378 3379 2068 
Q 3634 1759 3634 1313 
Q 3634 634 3220 271 
Q 2806 -91 2034 -91 
Q 1263 -91 848 271 
Q 434 634 434 1313 
Q 434 1759 690 2068 
Q 947 2378 1403 2484 
z
M 1172 3481 
Q 1172 3119 1398 2916 
Q 1625 2713 2034 2713 
Q 2441 2713 2670 2916 
Q 2900 3119 2900 3481 
Q 2900 3844 2670 4047 
Q 2441 4250 2034 4250 
Q 1625 4250 1398 4047 
Q 1172 3844 1172 3481 
z
" transform="scale(0.015625)"/>
      <path id="DejaVuSans-39" d="M 703 97 
L 703 672 
Q 941 559 1184 500 
Q 1428 441 1663 441 
Q 2288 441 2617 861 
Q 2947 1281 2994 2138 
Q 2813 1869 2534 1725 
Q 2256 1581 1919 1581 
Q 1219 1581 811 2004 
Q 403 2428 403 3163 
Q 403 3881 828 4315 
Q 1253 4750 1959 4750 
Q 2769 4750 3195 4129 
Q 3622 3509 3622 2328 
Q 3622 1225 3098 567 
Q 2575 -91 1691 -91 
Q 1453 -91 1209 -44 
Q 966 3 703 97 
z
M 1959 2075 
Q 2384 2075 2632 2365 
Q 2881 2656 2881 3163 
Q 2881 3666 2632 3958 
Q 2384 4250 1959 4250 
Q 1534 4250 1286 3958 
Q 1038 3666 1038 3163 
Q 1038 2656 1286 2365 
Q 1534 2075 1959 2075 
z
" transform="scale(0.015625)"/>
      <path id="DejaVuSans-2e" d="M 684 794 
L 1344 794 
L 1344 0 
L 684 0 
L 684 794 
z
" transform="scale(0.015625)"/>
      <path id="DejaVuSans-34" d="M 2419 4116 
L 825 1625 
L 2419 1625 
L 2419 4116 
z
M 2253 4666 
L 3047 4666 
L 3047 1625 
L 3713 1625 
L 3713 1100 
L 3047 1100 
L 3047 0 
L 2419 0 
L 2419 1100 
L 313 1100 
L 313 1709 
L 2253 4666 
z
" transform="scale(0.015625)"/>
      <path id="DejaVuSans-25" d="M 4653 2053 
Q 4381 2053 4226 1822 
Q 4072 1591 4072 1178 
Q 4072 772 4226 539 
Q 4381 306 4653 306 
Q 4919 306 5073 539 
Q 5228 772 5228 1178 
Q 5228 1588 5073 1820 
Q 4919 2053 4653 2053 
z
M 4653 2450 
Q 5147 2450 5437 2106 
Q 5728 1763 5728 1178 
Q 5728 594 5436 251 
Q 5144 -91 4653 -91 
Q 4153 -91 3862 251 
Q 3572 594 3572 1178 
Q 3572 1766 3864 2108 
Q 4156 2450 4653 2450 
z
M 1428 4353 
Q 1159 4353 1004 4120 
Q 850 3888 850 3481 
Q 850 3069 1003 2837 
Q 1156 2606 1428 2606 
Q 1700 2606 1854 2837 
Q 2009 3069 2009 3481 
Q 2009 3884 1853 4118 
Q 1697 4353 1428 4353 
z
M 4250 4750 
L 4750 4750 
L 1831 -91 
L 1331 -91 
L 4250 4750 
z
M 1428 4750 
Q 1922 4750 2215 4408 
Q 2509 4066 2509 3481 
Q 2509 2891 2217 2550 
Q 1925 2209 1428 2209 
Q 931 2209 642 2551 
Q 353 2894 353 3481 
Q 353 4063 643 4406 
Q 934 4750 1428 4750 
z
" transform="scale(0.015625)"/>
      <path id="DejaVuSans-5d" d="M 1947 4863 
L 1947 -844 
L 622 -844 
L 622 -397 
L 1369 -397 
L 1369 4416 
L 622 4416 
L 622 4863 
L 1947 4863 
z
" transform="scale(0.015625)"/>
     </defs>
     <use xlink:href="#DejaVuSans-41"/>
     <use xlink:href="#DejaVuSans-20" x="68.408203"/>
     <use xlink:href="#DejaVuSans-5b" x="100.195312"/>
     <use xlink:href="#DejaVuSans-38" x="139.208984"/>
     <use xlink:href="#DejaVuSans-39" x="202.832031"/>
     <use xlink:href="#DejaVuSans-2e" x="266.455078"/>
     <use xlink:href="#DejaVuSans-34" x="298.242188"/>
     <use xlink:href="#DejaVuSans-25" x="361.865234"/>
     <use xlink:href="#DejaVuSans-5d" x="456.884766"/>
    </g>
   </g>
   <g id="patch_4">
    <path d="M 53.6963 12.039063 
L 71.950096 12.039062 
L 77.053948 21.627045 
" style="fill: none; stroke: #000000; stroke-linecap: round"/>
   </g>
   <g id="text_2">
    <g id="patch_5">
     <path d="M 5.2 18.878125 
L 51.69375 18.878125 
L 51.69375 5.2 
L 5.2 5.2 
z
" style="fill: #ffffff"/>
    </g>
    <!-- T [9.9%] -->
    <g transform="translate(7.2 14.798438) scale(0.1 -0.1)">
     <defs>
      <path id="DejaVuSans-54" d="M -19 4666 
L 3928 4666 
L 3928 4134 
L 2272 4134 
L 2272 0 
L 1638 0 
L 1638 4134 
L -19 4134 
L -19 4666 
z
" transform="scale(0.015625)"/>
     </defs>
     <use xlink:href="#DejaVuSans-54"/>
     <use xlink:href="#DejaVuSans-20" x="61.083984"/>
     <use xlink:href="#DejaVuSans-5b" x="92.871094"/>
     <use xlink:href="#DejaVuSans-39" x="131.884766"/>
     <use xlink:href="#DejaVuSans-2e" x="195.507812"/>
     <use xlink:href="#DejaVuSans-39" x="227.294922"/>
     <use xlink:href="#DejaVuSans-25" x="290.917969"/>
     <use xlink:href="#DejaVuSans-5d" x="385.9375"/>
    </g>
   </g>
   <g id="patch_6">
    <path d="M 69.951581 29.462006 
C 67.316287 32.196117 65.186037 35.375562 63.659743 38.852711 
C 62.13345 42.32986 61.235107 46.050051 61.006428 49.840545 
C 60.777749 53.631039 61.222327 57.432247 62.319521 61.06767 
C 63.416716 64.703094 65.149276 68.115581 67.436757 71.146682 
C 69.724237 74.177782 72.530676 76.779846 75.725765 78.832052 
C 78.920853 80.884258 82.454361 82.354344 86.16222 83.174051 
C 89.870079 83.993758 93.693999 84.150199 97.456425 83.636111 
C 101.218852 83.122023 104.860637 81.945487 108.212684 80.161132 
C 111.56473 78.376778 114.574342 76.012657 117.101776 73.17854 
C 119.62921 70.344423 121.634733 67.084866 123.025222 63.551217 
C 124.415712 60.017568 125.16931 56.265378 125.251024 52.468872 
C 125.332739 48.672365 124.741285 44.891226 123.504126 41.30102 
C 122.266967 37.710815 120.403551 34.367984 118.000402 31.427744 
C 115.597253 28.487503 112.69215 25.996076 109.419983 24.069145 
C 106.147816 22.142214 102.560027 20.810072 98.823205 20.134573 
C 95.086383 19.459074 91.259273 19.450838 87.519578 20.110247 
L 89.194686 29.610254 
C 91.812472 29.148668 94.491449 29.154433 97.107224 29.627282 
C 99.723 30.100132 102.234452 31.032631 104.524969 32.381483 
C 106.815486 33.730335 108.849058 35.474334 110.531262 37.532502 
C 112.213467 39.59067 113.517858 41.930651 114.383869 44.443795 
C 115.249881 46.956939 115.663898 49.603737 115.606698 52.261292 
C 115.549498 54.918846 115.02198 57.545379 114.048637 60.018933 
C 113.075294 62.492487 111.671428 64.774178 109.902224 66.758059 
C 108.133021 68.741941 106.026292 70.396826 103.679859 71.645874 
C 101.333427 72.894922 98.784177 73.718497 96.150479 74.078359 
C 93.51678 74.438221 90.840037 74.328712 88.244535 73.754917 
C 85.649034 73.181122 83.175578 72.152062 80.939016 70.715517 
C 78.702454 69.278973 76.737947 67.457529 75.136711 65.335758 
C 73.535474 63.213988 72.322682 60.825247 71.554646 58.28045 
C 70.78661 55.735654 70.475405 53.074808 70.635481 50.421462 
C 70.795556 47.768117 71.424396 45.163984 72.492801 42.729979 
C 73.561207 40.295975 75.052382 38.070363 76.897088 36.156485 
z
" style="fill: #1f77b4"/>
   </g>
   <g id="patch_7">
    <path d="M 87.519586 20.110246 
C 84.191616 20.697056 80.97686 21.804838 77.99386 23.392741 
C 75.01086 24.980645 72.296739 27.02891 69.951581 29.462006 
L 76.897088 36.156485 
C 78.538699 34.453318 80.438583 33.019533 82.526683 31.908 
C 84.614783 30.796468 86.865112 30.02102 89.194691 29.610254 
z
" style="fill: #ff7f0e"/>
   </g>
   <g id="matplotlib.axis_1"/>
   <g id="matplotlib.axis_2"/>
  </g>
 </g>
</svg>
