<?xml version="1.0" encoding="utf-8" standalone="no"?>
<!DOCTYPE svg PUBLIC "-//W3C//DTD SVG 1.1//EN"
  "http://www.w3.org/Graphics/SVG/1.1/DTD/svg11.dtd">
<svg xmlns:xlink="http://www.w3.org/1999/xlink" width="189.411228pt" height="113.253399pt" viewBox="0 0 189.411228 113.253399" xmlns="http://www.w3.org/2000/svg" version="1.1">
 <metadata>
  <rdf:RDF xmlns:dc="http://purl.org/dc/elements/1.1/" xmlns:cc="http://creativecommons.org/ns#" xmlns:rdf="http://www.w3.org/1999/02/22-rdf-syntax-ns#">
   <cc:Work>
    <dc:type rdf:resource="http://purl.org/dc/dcmitype/StillImage"/>
    <dc:date>2023-10-13T11:20:04.322625</dc:date>
    <dc:format>image/svg+xml</dc:format>
    <dc:creator>
     <cc:Agent>
      <dc:title>Matplotlib v3.7.3, https://matplotlib.org/</dc:title>
     </cc:Agent>
    </dc:creator>
   </cc:Work>
  </rdf:RDF>
 </metadata>
 <defs>
  <style type="text/css">*{stroke-linejoin: round; stroke-linecap: butt}</style>
 </defs>
 <g id="figure_1">
  <g id="patch_1">
   <path d="M 0 113.253399 
L 189.411228 113.253399 
L 189.411228 0 
L 0 0 
z
" style="fill: #ffffff"/>
  </g>
  <g id="axes_1">
   <g id="patch_2">
    <path d="M 138.874152 12.039062 
L 105.670453 12.039062 
L 104.173383 22.797198 
" style="fill: none; stroke: #000000; stroke-linecap: round"/>
   </g>
   <g id="text_1">
    <g id="patch_3">
     <path d="M 140.87529 18.878125 
L 184.211227 18.878125 
L 184.211227 5.2 
L 140.87529 5.2 
z
" style="fill: #ffffff"/>
    </g>
    <!-- I [9.9%] -->
    <g transform="translate(142.87529 14.798437) scale(0.1 -0.1)">
     <defs>
      <path id="DejaVuSans-49" d="M 628 4666 
L 1259 4666 
L 1259 0 
L 628 0 
L 628 4666 
z
" transform="scale(0.015625)"/>
      <path id="DejaVuSans-20" transform="scale(0.015625)"/>
      <path id="DejaVuSans-5b" d="M 550 4863 
L 1875 4863 
L 1875 4416 
L 1125 4416 
L 1125 -397 
L 1875 -397 
L 1875 -844 
L 550 -844 
L 550 4863 
z
" transform="scale(0.015625)"/>
      <path id="DejaVuSans-39" d="M 703 97 
L 703 672 
Q 941 559 1184 500 
Q 1428 441 1663 441 
Q 2288 441 2617 861 
Q 2947 1281 2994 2138 
Q 2813 1869 2534 1725 
Q 2256 1581 1919 1581 
Q 1219 1581 811 2004 
Q 403 2428 403 3163 
Q 403 3881 828 4315 
Q 1253 4750 1959 4750 
Q 2769 4750 3195 4129 
Q 3622 3509 3622 2328 
Q 3622 1225 3098 567 
Q 2575 -91 1691 -91 
Q 1453 -91 1209 -44 
Q 966 3 703 97 
z
M 1959 2075 
Q 2384 2075 2632 2365 
Q 2881 2656 2881 3163 
Q 2881 3666 2632 3958 
Q 2384 4250 1959 4250 
Q 1534 4250 1286 3958 
Q 1038 3666 1038 3163 
Q 1038 2656 1286 2365 
Q 1534 2075 1959 2075 
z
" transform="scale(0.015625)"/>
      <path id="DejaVuSans-2e" d="M 684 794 
L 1344 794 
L 1344 0 
L 684 0 
L 684 794 
z
" transform="scale(0.015625)"/>
      <path id="DejaVuSans-25" d="M 4653 2053 
Q 4381 2053 4226 1822 
Q 4072 1591 4072 1178 
Q 4072 772 4226 539 
Q 4381 306 4653 306 
Q 4919 306 5073 539 
Q 5228 772 5228 1178 
Q 5228 1588 5073 1820 
Q 4919 2053 4653 2053 
z
M 4653 2450 
Q 5147 2450 5437 2106 
Q 5728 1763 5728 1178 
Q 5728 594 5436 251 
Q 5144 -91 4653 -91 
Q 4153 -91 3862 251 
Q 3572 594 3572 1178 
Q 3572 1766 3864 2108 
Q 4156 2450 4653 2450 
z
M 1428 4353 
Q 1159 4353 1004 4120 
Q 850 3888 850 3481 
Q 850 3069 1003 2837 
Q 1156 2606 1428 2606 
Q 1700 2606 1854 2837 
Q 2009 3069 2009 3481 
Q 2009 3884 1853 4118 
Q 1697 4353 1428 4353 
z
M 4250 4750 
L 4750 4750 
L 1831 -91 
L 1331 -91 
L 4250 4750 
z
M 1428 4750 
Q 1922 4750 2215 4408 
Q 2509 4066 2509 3481 
Q 2509 2891 2217 2550 
Q 1925 2209 1428 2209 
Q 931 2209 642 2551 
Q 353 2894 353 3481 
Q 353 4063 643 4406 
Q 934 4750 1428 4750 
z
" transform="scale(0.015625)"/>
      <path id="DejaVuSans-5d" d="M 1947 4863 
L 1947 -844 
L 622 -844 
L 622 -397 
L 1369 -397 
L 1369 4416 
L 622 4416 
L 622 4863 
L 1947 4863 
z
" transform="scale(0.015625)"/>
     </defs>
     <use xlink:href="#DejaVuSans-49"/>
     <use xlink:href="#DejaVuSans-20" x="29.492188"/>
     <use xlink:href="#DejaVuSans-5b" x="61.279297"/>
     <use xlink:href="#DejaVuSans-39" x="100.292969"/>
     <use xlink:href="#DejaVuSans-2e" x="163.916016"/>
     <use xlink:href="#DejaVuSans-39" x="195.703125"/>
     <use xlink:href="#DejaVuSans-25" x="259.326172"/>
     <use xlink:href="#DejaVuSans-5d" x="354.345703"/>
    </g>
   </g>
   <g id="patch_4">
    <path d="M 60.053025 101.214337 
L 93.261084 101.214337 
L 94.758155 90.456201 
" style="fill: none; stroke: #000000; stroke-linecap: round"/>
   </g>
   <g id="text_2">
    <g id="patch_5">
     <path d="M 5.2 108.053399 
L 58.05625 108.053399 
L 58.05625 94.375274 
L 5.2 94.375274 
z
" style="fill: #ffffff"/>
    </g>
    <!-- T [89.6%] -->
    <g transform="translate(7.2 103.973712) scale(0.1 -0.1)">
     <defs>
      <path id="DejaVuSans-54" d="M -19 4666 
L 3928 4666 
L 3928 4134 
L 2272 4134 
L 2272 0 
L 1638 0 
L 1638 4134 
L -19 4134 
L -19 4666 
z
" transform="scale(0.015625)"/>
      <path id="DejaVuSans-38" d="M 2034 2216 
Q 1584 2216 1326 1975 
Q 1069 1734 1069 1313 
Q 1069 891 1326 650 
Q 1584 409 2034 409 
Q 2484 409 2743 651 
Q 3003 894 3003 1313 
Q 3003 1734 2745 1975 
Q 2488 2216 2034 2216 
z
M 1403 2484 
Q 997 2584 770 2862 
Q 544 3141 544 3541 
Q 544 4100 942 4425 
Q 1341 4750 2034 4750 
Q 2731 4750 3128 4425 
Q 3525 4100 3525 3541 
Q 3525 3141 3298 2862 
Q 3072 2584 2669 2484 
Q 3125 2378 3379 2068 
Q 3634 1759 3634 1313 
Q 3634 634 3220 271 
Q 2806 -91 2034 -91 
Q 1263 -91 848 271 
Q 434 634 434 1313 
Q 434 1759 690 2068 
Q 947 2378 1403 2484 
z
M 1172 3481 
Q 1172 3119 1398 2916 
Q 1625 2713 2034 2713 
Q 2441 2713 2670 2916 
Q 2900 3119 2900 3481 
Q 2900 3844 2670 4047 
Q 2441 4250 2034 4250 
Q 1625 4250 1398 4047 
Q 1172 3844 1172 3481 
z
" transform="scale(0.015625)"/>
      <path id="DejaVuSans-36" d="M 2113 2584 
Q 1688 2584 1439 2293 
Q 1191 2003 1191 1497 
Q 1191 994 1439 701 
Q 1688 409 2113 409 
Q 2538 409 2786 701 
Q 3034 994 3034 1497 
Q 3034 2003 2786 2293 
Q 2538 2584 2113 2584 
z
M 3366 4563 
L 3366 3988 
Q 3128 4100 2886 4159 
Q 2644 4219 2406 4219 
Q 1781 4219 1451 3797 
Q 1122 3375 1075 2522 
Q 1259 2794 1537 2939 
Q 1816 3084 2150 3084 
Q 2853 3084 3261 2657 
Q 3669 2231 3669 1497 
Q 3669 778 3244 343 
Q 2819 -91 2113 -91 
Q 1303 -91 875 529 
Q 447 1150 447 2328 
Q 447 3434 972 4092 
Q 1497 4750 2381 4750 
Q 2619 4750 2861 4703 
Q 3103 4656 3366 4563 
z
" transform="scale(0.015625)"/>
     </defs>
     <use xlink:href="#DejaVuSans-54"/>
     <use xlink:href="#DejaVuSans-20" x="61.083984"/>
     <use xlink:href="#DejaVuSans-5b" x="92.871094"/>
     <use xlink:href="#DejaVuSans-38" x="131.884766"/>
     <use xlink:href="#DejaVuSans-39" x="195.507812"/>
     <use xlink:href="#DejaVuSans-2e" x="259.130859"/>
     <use xlink:href="#DejaVuSans-36" x="290.917969"/>
     <use xlink:href="#DejaVuSans-25" x="354.541016"/>
     <use xlink:href="#DejaVuSans-5d" x="449.560547"/>
    </g>
   </g>
   <g id="patch_6">
    <path d="M 113.483178 27.687641 
C 110.459642 26.22311 107.22518 25.241432 103.897687 24.778387 
C 100.570194 24.315343 97.190596 24.376629 93.882078 24.96001 
L 95.557186 34.460017 
C 97.873148 34.05165 100.238866 34.00875 102.568112 34.332881 
C 104.897357 34.657012 107.161481 35.344187 109.277956 36.369358 
z
" style="fill: #1f77b4"/>
   </g>
   <g id="patch_7">
    <path d="M 93.882083 24.960009 
C 90.139952 25.619847 86.544237 26.937817 83.262108 28.852643 
C 79.97998 30.767469 77.063104 33.24901 74.647091 36.181895 
C 72.231078 39.114779 70.35396 42.452838 69.103008 46.04088 
C 67.852056 49.628922 67.246961 53.410466 67.315856 57.2097 
C 67.38475 61.008934 68.12655 64.766054 69.506766 68.306383 
C 70.886983 71.846711 72.883891 75.11452 75.404649 77.957882 
C 77.925407 80.801243 80.930335 83.1754 84.279729 84.969971 
C 87.629123 86.764543 91.270258 87.951281 95.033851 88.475012 
C 98.797444 88.998743 102.624251 88.851222 106.336356 88.039308 
C 110.048461 87.227394 113.58743 85.763867 116.78873 83.716771 
C 119.99003 81.669674 122.803268 79.071231 125.097651 76.042249 
C 127.392034 73.013267 129.131446 69.601426 130.235017 65.965348 
C 131.338587 62.329271 131.788946 58.526195 131.565155 54.732932 
C 131.341364 50.939669 130.446945 47.21593 128.923483 43.73484 
C 127.40002 40.25375 125.271495 37.070105 122.636866 34.33192 
C 120.002237 31.593735 116.902978 29.344112 113.483178 27.687641 
L 109.277956 36.369358 
C 111.671815 37.528888 113.841297 39.103625 115.685537 41.020354 
C 117.529777 42.937084 119.019745 45.165635 120.086169 47.602398 
C 121.152593 50.039161 121.778686 52.645778 121.93534 55.301062 
C 122.091993 57.956346 121.776742 60.6185 121.004243 63.163754 
C 120.231743 65.709008 119.014155 68.097297 117.408087 70.217584 
C 115.802019 72.337872 113.832752 74.156782 111.591842 75.589749 
C 109.350932 77.022717 106.873653 78.047186 104.27518 78.615525 
C 101.676707 79.183865 98.997942 79.28713 96.363427 78.920518 
C 93.728912 78.553907 91.180117 77.72319 88.835541 76.46699 
C 86.490966 75.21079 84.387516 73.54888 82.622985 71.558527 
C 80.858454 69.568174 79.460619 67.280708 78.494467 64.802478 
C 77.528316 62.324248 77.009056 59.694264 76.96083 57.0348 
C 76.912604 54.375336 77.33617 51.728255 78.211837 49.216626 
C 79.087503 46.704997 80.401486 44.368355 82.092695 42.315336 
C 83.783904 40.262317 85.825717 38.525238 88.123207 37.18486 
C 90.420697 35.844482 92.937697 34.921903 95.557189 34.460016 
z
" style="fill: #ff7f0e"/>
   </g>
   <g id="matplotlib.axis_1"/>
   <g id="matplotlib.axis_2"/>
  </g>
 </g>
</svg>
