<?xml version="1.0" encoding="utf-8" standalone="no"?>
<!DOCTYPE svg PUBLIC "-//W3C//DTD SVG 1.1//EN"
  "http://www.w3.org/Graphics/SVG/1.1/DTD/svg11.dtd">
<svg xmlns:xlink="http://www.w3.org/1999/xlink" width="201.901853pt" height="101.310575pt" viewBox="0 0 201.901853 101.310575" xmlns="http://www.w3.org/2000/svg" version="1.1">
 <metadata>
  <rdf:RDF xmlns:dc="http://purl.org/dc/elements/1.1/" xmlns:cc="http://creativecommons.org/ns#" xmlns:rdf="http://www.w3.org/1999/02/22-rdf-syntax-ns#">
   <cc:Work>
    <dc:type rdf:resource="http://purl.org/dc/dcmitype/StillImage"/>
    <dc:date>2023-10-13T11:20:51.224729</dc:date>
    <dc:format>image/svg+xml</dc:format>
    <dc:creator>
     <cc:Agent>
      <dc:title>Matplotlib v3.7.3, https://matplotlib.org/</dc:title>
     </cc:Agent>
    </dc:creator>
   </cc:Work>
  </rdf:RDF>
 </metadata>
 <defs>
  <style type="text/css">*{stroke-linejoin: round; stroke-linecap: butt}</style>
 </defs>
 <g id="figure_1">
  <g id="patch_1">
   <path d="M 0 101.310575 
L 201.901853 101.310575 
L 201.901853 0 
L 0 0 
z
" style="fill: #ffffff"/>
  </g>
  <g id="axes_1">
   <g id="patch_2">
    <path d="M 139.324834 12.039062 
L 116.433319 12.039062 
L 112.447953 22.143298 
" style="fill: none; stroke: #000000; stroke-linecap: round"/>
   </g>
   <g id="text_1">
    <g id="patch_3">
     <path d="M 141.32529 18.878125 
L 196.701853 18.878125 
L 196.701853 5.2 
L 141.32529 5.2 
z
" style="fill: #ffffff"/>
    </g>
    <!-- M [17.3%] -->
    <g transform="translate(143.32529 14.798437) scale(0.1 -0.1)">
     <defs>
      <path id="DejaVuSans-4d" d="M 628 4666 
L 1569 4666 
L 2759 1491 
L 3956 4666 
L 4897 4666 
L 4897 0 
L 4281 0 
L 4281 4097 
L 3078 897 
L 2444 897 
L 1241 4097 
L 1241 0 
L 628 0 
L 628 4666 
z
" transform="scale(0.015625)"/>
      <path id="DejaVuSans-20" transform="scale(0.015625)"/>
      <path id="DejaVuSans-5b" d="M 550 4863 
L 1875 4863 
L 1875 4416 
L 1125 4416 
L 1125 -397 
L 1875 -397 
L 1875 -844 
L 550 -844 
L 550 4863 
z
" transform="scale(0.015625)"/>
      <path id="DejaVuSans-31" d="M 794 531 
L 1825 531 
L 1825 4091 
L 703 3866 
L 703 4441 
L 1819 4666 
L 2450 4666 
L 2450 531 
L 3481 531 
L 3481 0 
L 794 0 
L 794 531 
z
" transform="scale(0.015625)"/>
      <path id="DejaVuSans-37" d="M 525 4666 
L 3525 4666 
L 3525 4397 
L 1831 0 
L 1172 0 
L 2766 4134 
L 525 4134 
L 525 4666 
z
" transform="scale(0.015625)"/>
      <path id="DejaVuSans-2e" d="M 684 794 
L 1344 794 
L 1344 0 
L 684 0 
L 684 794 
z
" transform="scale(0.015625)"/>
      <path id="DejaVuSans-33" d="M 2597 2516 
Q 3050 2419 3304 2112 
Q 3559 1806 3559 1356 
Q 3559 666 3084 287 
Q 2609 -91 1734 -91 
Q 1441 -91 1130 -33 
Q 819 25 488 141 
L 488 750 
Q 750 597 1062 519 
Q 1375 441 1716 441 
Q 2309 441 2620 675 
Q 2931 909 2931 1356 
Q 2931 1769 2642 2001 
Q 2353 2234 1838 2234 
L 1294 2234 
L 1294 2753 
L 1863 2753 
Q 2328 2753 2575 2939 
Q 2822 3125 2822 3475 
Q 2822 3834 2567 4026 
Q 2313 4219 1838 4219 
Q 1578 4219 1281 4162 
Q 984 4106 628 3988 
L 628 4550 
Q 988 4650 1302 4700 
Q 1616 4750 1894 4750 
Q 2613 4750 3031 4423 
Q 3450 4097 3450 3541 
Q 3450 3153 3228 2886 
Q 3006 2619 2597 2516 
z
" transform="scale(0.015625)"/>
      <path id="DejaVuSans-25" d="M 4653 2053 
Q 4381 2053 4226 1822 
Q 4072 1591 4072 1178 
Q 4072 772 4226 539 
Q 4381 306 4653 306 
Q 4919 306 5073 539 
Q 5228 772 5228 1178 
Q 5228 1588 5073 1820 
Q 4919 2053 4653 2053 
z
M 4653 2450 
Q 5147 2450 5437 2106 
Q 5728 1763 5728 1178 
Q 5728 594 5436 251 
Q 5144 -91 4653 -91 
Q 4153 -91 3862 251 
Q 3572 594 3572 1178 
Q 3572 1766 3864 2108 
Q 4156 2450 4653 2450 
z
M 1428 4353 
Q 1159 4353 1004 4120 
Q 850 3888 850 3481 
Q 850 3069 1003 2837 
Q 1156 2606 1428 2606 
Q 1700 2606 1854 2837 
Q 2009 3069 2009 3481 
Q 2009 3884 1853 4118 
Q 1697 4353 1428 4353 
z
M 4250 4750 
L 4750 4750 
L 1831 -91 
L 1331 -91 
L 4250 4750 
z
M 1428 4750 
Q 1922 4750 2215 4408 
Q 2509 4066 2509 3481 
Q 2509 2891 2217 2550 
Q 1925 2209 1428 2209 
Q 931 2209 642 2551 
Q 353 2894 353 3481 
Q 353 4063 643 4406 
Q 934 4750 1428 4750 
z
" transform="scale(0.015625)"/>
      <path id="DejaVuSans-5d" d="M 1947 4863 
L 1947 -844 
L 622 -844 
L 622 -397 
L 1369 -397 
L 1369 4416 
L 622 4416 
L 622 4863 
L 1947 4863 
z
" transform="scale(0.015625)"/>
     </defs>
     <use xlink:href="#DejaVuSans-4d"/>
     <use xlink:href="#DejaVuSans-20" x="86.279297"/>
     <use xlink:href="#DejaVuSans-5b" x="118.066406"/>
     <use xlink:href="#DejaVuSans-31" x="157.080078"/>
     <use xlink:href="#DejaVuSans-37" x="220.703125"/>
     <use xlink:href="#DejaVuSans-2e" x="284.326172"/>
     <use xlink:href="#DejaVuSans-33" x="316.113281"/>
     <use xlink:href="#DejaVuSans-25" x="379.736328"/>
     <use xlink:href="#DejaVuSans-5d" x="474.755859"/>
    </g>
   </g>
   <g id="patch_4">
    <path d="M 139.462086 69.383904 
L 131.725256 66.35788 
" style="fill: none; stroke: #000000; stroke-linecap: round"/>
   </g>
   <g id="text_2">
    <g id="patch_5">
     <path d="M 141.32529 77.153178 
L 194.392477 77.153178 
L 194.392477 63.475053 
L 141.32529 63.475053 
z
" style="fill: #ffffff"/>
    </g>
    <!-- E [32.0%] -->
    <g transform="translate(143.32529 73.073491) scale(0.1 -0.1)">
     <defs>
      <path id="DejaVuSans-45" d="M 628 4666 
L 3578 4666 
L 3578 4134 
L 1259 4134 
L 1259 2753 
L 3481 2753 
L 3481 2222 
L 1259 2222 
L 1259 531 
L 3634 531 
L 3634 0 
L 628 0 
L 628 4666 
z
" transform="scale(0.015625)"/>
      <path id="DejaVuSans-32" d="M 1228 531 
L 3431 531 
L 3431 0 
L 469 0 
L 469 531 
Q 828 903 1448 1529 
Q 2069 2156 2228 2338 
Q 2531 2678 2651 2914 
Q 2772 3150 2772 3378 
Q 2772 3750 2511 3984 
Q 2250 4219 1831 4219 
Q 1534 4219 1204 4116 
Q 875 4013 500 3803 
L 500 4441 
Q 881 4594 1212 4672 
Q 1544 4750 1819 4750 
Q 2544 4750 2975 4387 
Q 3406 4025 3406 3419 
Q 3406 3131 3298 2873 
Q 3191 2616 2906 2266 
Q 2828 2175 2409 1742 
Q 1991 1309 1228 531 
z
" transform="scale(0.015625)"/>
      <path id="DejaVuSans-30" d="M 2034 4250 
Q 1547 4250 1301 3770 
Q 1056 3291 1056 2328 
Q 1056 1369 1301 889 
Q 1547 409 2034 409 
Q 2525 409 2770 889 
Q 3016 1369 3016 2328 
Q 3016 3291 2770 3770 
Q 2525 4250 2034 4250 
z
M 2034 4750 
Q 2819 4750 3233 4129 
Q 3647 3509 3647 2328 
Q 3647 1150 3233 529 
Q 2819 -91 2034 -91 
Q 1250 -91 836 529 
Q 422 1150 422 2328 
Q 422 3509 836 4129 
Q 1250 4750 2034 4750 
z
" transform="scale(0.015625)"/>
     </defs>
     <use xlink:href="#DejaVuSans-45"/>
     <use xlink:href="#DejaVuSans-20" x="63.183594"/>
     <use xlink:href="#DejaVuSans-5b" x="94.970703"/>
     <use xlink:href="#DejaVuSans-33" x="133.984375"/>
     <use xlink:href="#DejaVuSans-32" x="197.607422"/>
     <use xlink:href="#DejaVuSans-2e" x="261.230469"/>
     <use xlink:href="#DejaVuSans-30" x="293.017578"/>
     <use xlink:href="#DejaVuSans-25" x="356.640625"/>
     <use xlink:href="#DejaVuSans-5d" x="451.660156"/>
    </g>
   </g>
   <g id="patch_6">
    <path d="M 60.507423 88.904978 
L 71.589684 88.904978 
L 78.424222 80.462952 
" style="fill: none; stroke: #000000; stroke-linecap: round"/>
   </g>
   <g id="text_3">
    <g id="patch_7">
     <path d="M 5.65 95.744041 
L 58.50625 95.744041 
L 58.50625 82.065916 
L 5.65 82.065916 
z
" style="fill: #ffffff"/>
    </g>
    <!-- T [27.1%] -->
    <g transform="translate(7.65 91.664353) scale(0.1 -0.1)">
     <defs>
      <path id="DejaVuSans-54" d="M -19 4666 
L 3928 4666 
L 3928 4134 
L 2272 4134 
L 2272 0 
L 1638 0 
L 1638 4134 
L -19 4134 
L -19 4666 
z
" transform="scale(0.015625)"/>
     </defs>
     <use xlink:href="#DejaVuSans-54"/>
     <use xlink:href="#DejaVuSans-20" x="61.083984"/>
     <use xlink:href="#DejaVuSans-5b" x="92.871094"/>
     <use xlink:href="#DejaVuSans-32" x="131.884766"/>
     <use xlink:href="#DejaVuSans-37" x="195.507812"/>
     <use xlink:href="#DejaVuSans-2e" x="259.130859"/>
     <use xlink:href="#DejaVuSans-31" x="290.917969"/>
     <use xlink:href="#DejaVuSans-25" x="354.541016"/>
     <use xlink:href="#DejaVuSans-5d" x="449.560547"/>
    </g>
   </g>
   <g id="patch_8">
    <path d="M 60.502192 25.490397 
L 65.008638 25.490397 
L 73.431055 32.349085 
" style="fill: none; stroke: #000000; stroke-linecap: round"/>
   </g>
   <g id="text_4">
    <g id="patch_9">
     <path d="M 5.2 32.32946 
L 58.50625 32.32946 
L 58.50625 18.651335 
L 5.2 18.651335 
z
" style="fill: #ffffff"/>
    </g>
    <!-- K [22.4%] -->
    <g transform="translate(7.2 28.249772) scale(0.1 -0.1)">
     <defs>
      <path id="DejaVuSans-4b" d="M 628 4666 
L 1259 4666 
L 1259 2694 
L 3353 4666 
L 4166 4666 
L 1850 2491 
L 4331 0 
L 3500 0 
L 1259 2247 
L 1259 0 
L 628 0 
L 628 4666 
z
" transform="scale(0.015625)"/>
      <path id="DejaVuSans-34" d="M 2419 4116 
L 825 1625 
L 2419 1625 
L 2419 4116 
z
M 2253 4666 
L 3047 4666 
L 3047 1625 
L 3713 1625 
L 3713 1100 
L 3047 1100 
L 3047 0 
L 2419 0 
L 2419 1100 
L 313 1100 
L 313 1709 
L 2253 4666 
z
" transform="scale(0.015625)"/>
     </defs>
     <use xlink:href="#DejaVuSans-4b"/>
     <use xlink:href="#DejaVuSans-20" x="65.576172"/>
     <use xlink:href="#DejaVuSans-5b" x="97.363281"/>
     <use xlink:href="#DejaVuSans-32" x="136.376953"/>
     <use xlink:href="#DejaVuSans-32" x="200"/>
     <use xlink:href="#DejaVuSans-2e" x="263.623047"/>
     <use xlink:href="#DejaVuSans-34" x="295.410156"/>
     <use xlink:href="#DejaVuSans-25" x="359.033203"/>
     <use xlink:href="#DejaVuSans-5d" x="454.052734"/>
    </g>
   </g>
   <g id="patch_10">
    <path d="M 125.613289 34.587985 
C 122.046064 29.84533 117.23458 26.181515 111.714019 24.004066 
C 106.193458 21.826617 100.176385 21.219376 94.332078 22.249885 
L 96.007186 31.749892 
C 100.098201 31.028536 104.310152 31.453605 108.174544 32.977819 
C 112.038937 34.502033 115.406975 37.066703 117.904033 40.386562 
z
" style="fill: #1f77b4"/>
   </g>
   <g id="patch_11">
    <path d="M 105.680762 85.550762 
C 111.075265 84.567671 116.129698 82.22086 120.361797 78.734248 
C 124.593896 75.247635 127.864638 70.735755 129.861948 65.629104 
C 131.859257 60.522453 132.517524 54.988783 131.77394 49.556085 
C 131.030356 44.123387 128.909348 38.970122 125.613289 34.587985 
L 117.904033 40.386562 
C 120.211274 43.454058 121.69598 47.061343 122.216489 50.864232 
C 122.736998 54.667121 122.276211 58.54069 120.878094 62.115345 
C 119.479977 65.690001 117.190458 68.848317 114.227989 71.288946 
C 111.26552 73.729575 107.727416 75.372343 103.951264 76.060506 
z
" style="fill: #ff7f0e"/>
   </g>
   <g id="patch_12">
    <path d="M 67.774484 54.862408 
C 67.910704 59.491437 69.045348 64.036872 71.100575 68.186874 
C 73.155802 72.336875 76.083512 75.994321 79.682851 78.908292 
C 83.282191 81.822263 87.468923 83.924563 91.955818 85.070966 
C 96.442714 86.217368 101.124765 86.381043 105.680762 85.550762 
L 103.951264 76.060506 
C 100.762067 76.641703 97.484631 76.527131 94.343804 75.724649 
C 91.202977 74.922167 88.272265 73.450557 85.752727 71.410777 
C 83.233189 69.370997 81.183792 66.810785 79.745133 63.905784 
C 78.306475 61.000783 77.512224 57.818979 77.41687 54.578658 
z
" style="fill: #2ca02c"/>
   </g>
   <g id="patch_13">
    <path d="M 94.332075 22.249886 
C 86.728923 23.590527 79.85718 27.625605 74.982104 33.612162 
C 70.107028 39.598719 67.54739 47.145306 67.774484 54.862408 
L 77.41687 54.578658 
C 77.257904 49.176687 79.04965 43.894076 82.462204 39.703486 
C 85.874757 35.512896 90.684977 32.688342 96.007184 31.749892 
z
" style="fill: #d62728"/>
   </g>
   <g id="matplotlib.axis_1"/>
   <g id="matplotlib.axis_2"/>
  </g>
 </g>
</svg>
