<?xml version="1.0" encoding="utf-8" standalone="no"?>
<!DOCTYPE svg PUBLIC "-//W3C//DTD SVG 1.1//EN"
  "http://www.w3.org/Graphics/SVG/1.1/DTD/svg11.dtd">
<svg xmlns:xlink="http://www.w3.org/1999/xlink" width="199.236228pt" height="94.788pt" viewBox="0 0 199.236228 94.788" xmlns="http://www.w3.org/2000/svg" version="1.1">
 <metadata>
  <rdf:RDF xmlns:dc="http://purl.org/dc/elements/1.1/" xmlns:cc="http://creativecommons.org/ns#" xmlns:rdf="http://www.w3.org/1999/02/22-rdf-syntax-ns#">
   <cc:Work>
    <dc:type rdf:resource="http://purl.org/dc/dcmitype/StillImage"/>
    <dc:date>2023-10-13T11:20:58.331436</dc:date>
    <dc:format>image/svg+xml</dc:format>
    <dc:creator>
     <cc:Agent>
      <dc:title>Matplotlib v3.7.3, https://matplotlib.org/</dc:title>
     </cc:Agent>
    </dc:creator>
   </cc:Work>
  </rdf:RDF>
 </metadata>
 <defs>
  <style type="text/css">*{stroke-linejoin: round; stroke-linecap: butt}</style>
 </defs>
 <g id="figure_1">
  <g id="patch_1">
   <path d="M 0 94.788 
L 199.236228 94.788 
L 199.236228 0 
L 0 0 
z
" style="fill: #ffffff"/>
  </g>
  <g id="axes_1">
   <g id="patch_2">
    <path d="M 139.71681 21.626079 
L 137.219397 21.626079 
L 128.313002 27.843381 
" style="fill: none; stroke: #000000; stroke-linecap: round"/>
   </g>
   <g id="text_1">
    <g id="patch_3">
     <path d="M 141.715915 28.465141 
L 194.036227 28.465141 
L 194.036227 14.787016 
L 141.715915 14.787016 
z
" style="fill: #ffffff"/>
    </g>
    <!-- L [36.1%] -->
    <g transform="translate(143.715915 24.385454) scale(0.1 -0.1)">
     <defs>
      <path id="DejaVuSans-4c" d="M 628 4666 
L 1259 4666 
L 1259 531 
L 3531 531 
L 3531 0 
L 628 0 
L 628 4666 
z
" transform="scale(0.015625)"/>
      <path id="DejaVuSans-20" transform="scale(0.015625)"/>
      <path id="DejaVuSans-5b" d="M 550 4863 
L 1875 4863 
L 1875 4416 
L 1125 4416 
L 1125 -397 
L 1875 -397 
L 1875 -844 
L 550 -844 
L 550 4863 
z
" transform="scale(0.015625)"/>
      <path id="DejaVuSans-33" d="M 2597 2516 
Q 3050 2419 3304 2112 
Q 3559 1806 3559 1356 
Q 3559 666 3084 287 
Q 2609 -91 1734 -91 
Q 1441 -91 1130 -33 
Q 819 25 488 141 
L 488 750 
Q 750 597 1062 519 
Q 1375 441 1716 441 
Q 2309 441 2620 675 
Q 2931 909 2931 1356 
Q 2931 1769 2642 2001 
Q 2353 2234 1838 2234 
L 1294 2234 
L 1294 2753 
L 1863 2753 
Q 2328 2753 2575 2939 
Q 2822 3125 2822 3475 
Q 2822 3834 2567 4026 
Q 2313 4219 1838 4219 
Q 1578 4219 1281 4162 
Q 984 4106 628 3988 
L 628 4550 
Q 988 4650 1302 4700 
Q 1616 4750 1894 4750 
Q 2613 4750 3031 4423 
Q 3450 4097 3450 3541 
Q 3450 3153 3228 2886 
Q 3006 2619 2597 2516 
z
" transform="scale(0.015625)"/>
      <path id="DejaVuSans-36" d="M 2113 2584 
Q 1688 2584 1439 2293 
Q 1191 2003 1191 1497 
Q 1191 994 1439 701 
Q 1688 409 2113 409 
Q 2538 409 2786 701 
Q 3034 994 3034 1497 
Q 3034 2003 2786 2293 
Q 2538 2584 2113 2584 
z
M 3366 4563 
L 3366 3988 
Q 3128 4100 2886 4159 
Q 2644 4219 2406 4219 
Q 1781 4219 1451 3797 
Q 1122 3375 1075 2522 
Q 1259 2794 1537 2939 
Q 1816 3084 2150 3084 
Q 2853 3084 3261 2657 
Q 3669 2231 3669 1497 
Q 3669 778 3244 343 
Q 2819 -91 2113 -91 
Q 1303 -91 875 529 
Q 447 1150 447 2328 
Q 447 3434 972 4092 
Q 1497 4750 2381 4750 
Q 2619 4750 2861 4703 
Q 3103 4656 3366 4563 
z
" transform="scale(0.015625)"/>
      <path id="DejaVuSans-2e" d="M 684 794 
L 1344 794 
L 1344 0 
L 684 0 
L 684 794 
z
" transform="scale(0.015625)"/>
      <path id="DejaVuSans-31" d="M 794 531 
L 1825 531 
L 1825 4091 
L 703 3866 
L 703 4441 
L 1819 4666 
L 2450 4666 
L 2450 531 
L 3481 531 
L 3481 0 
L 794 0 
L 794 531 
z
" transform="scale(0.015625)"/>
      <path id="DejaVuSans-25" d="M 4653 2053 
Q 4381 2053 4226 1822 
Q 4072 1591 4072 1178 
Q 4072 772 4226 539 
Q 4381 306 4653 306 
Q 4919 306 5073 539 
Q 5228 772 5228 1178 
Q 5228 1588 5073 1820 
Q 4919 2053 4653 2053 
z
M 4653 2450 
Q 5147 2450 5437 2106 
Q 5728 1763 5728 1178 
Q 5728 594 5436 251 
Q 5144 -91 4653 -91 
Q 4153 -91 3862 251 
Q 3572 594 3572 1178 
Q 3572 1766 3864 2108 
Q 4156 2450 4653 2450 
z
M 1428 4353 
Q 1159 4353 1004 4120 
Q 850 3888 850 3481 
Q 850 3069 1003 2837 
Q 1156 2606 1428 2606 
Q 1700 2606 1854 2837 
Q 2009 3069 2009 3481 
Q 2009 3884 1853 4118 
Q 1697 4353 1428 4353 
z
M 4250 4750 
L 4750 4750 
L 1831 -91 
L 1331 -91 
L 4250 4750 
z
M 1428 4750 
Q 1922 4750 2215 4408 
Q 2509 4066 2509 3481 
Q 2509 2891 2217 2550 
Q 1925 2209 1428 2209 
Q 931 2209 642 2551 
Q 353 2894 353 3481 
Q 353 4063 643 4406 
Q 934 4750 1428 4750 
z
" transform="scale(0.015625)"/>
      <path id="DejaVuSans-5d" d="M 1947 4863 
L 1947 -844 
L 622 -844 
L 622 -397 
L 1369 -397 
L 1369 4416 
L 622 4416 
L 622 4863 
L 1947 4863 
z
" transform="scale(0.015625)"/>
     </defs>
     <use xlink:href="#DejaVuSans-4c"/>
     <use xlink:href="#DejaVuSans-20" x="55.712891"/>
     <use xlink:href="#DejaVuSans-5b" x="87.5"/>
     <use xlink:href="#DejaVuSans-33" x="126.513672"/>
     <use xlink:href="#DejaVuSans-36" x="190.136719"/>
     <use xlink:href="#DejaVuSans-2e" x="253.759766"/>
     <use xlink:href="#DejaVuSans-31" x="285.546875"/>
     <use xlink:href="#DejaVuSans-25" x="349.169922"/>
     <use xlink:href="#DejaVuSans-5d" x="444.189453"/>
    </g>
   </g>
   <g id="patch_4">
    <path d="M 60.895187 73.161918 
L 63.39339 73.161918 
L 72.299786 66.944617 
" style="fill: none; stroke: #000000; stroke-linecap: round"/>
   </g>
   <g id="text_2">
    <g id="patch_5">
     <path d="M 5.2 80.00098 
L 58.896875 80.00098 
L 58.896875 66.322855 
L 5.2 66.322855 
z
" style="fill: #ffffff"/>
    </g>
    <!-- R [63.7%] -->
    <g transform="translate(7.2 75.921293) scale(0.1 -0.1)">
     <defs>
      <path id="DejaVuSans-52" d="M 2841 2188 
Q 3044 2119 3236 1894 
Q 3428 1669 3622 1275 
L 4263 0 
L 3584 0 
L 2988 1197 
Q 2756 1666 2539 1819 
Q 2322 1972 1947 1972 
L 1259 1972 
L 1259 0 
L 628 0 
L 628 4666 
L 2053 4666 
Q 2853 4666 3247 4331 
Q 3641 3997 3641 3322 
Q 3641 2881 3436 2590 
Q 3231 2300 2841 2188 
z
M 1259 4147 
L 1259 2491 
L 2053 2491 
Q 2509 2491 2742 2702 
Q 2975 2913 2975 3322 
Q 2975 3731 2742 3939 
Q 2509 4147 2053 4147 
L 1259 4147 
z
" transform="scale(0.015625)"/>
      <path id="DejaVuSans-37" d="M 525 4666 
L 3525 4666 
L 3525 4397 
L 1831 0 
L 1172 0 
L 2766 4134 
L 525 4134 
L 525 4666 
z
" transform="scale(0.015625)"/>
     </defs>
     <use xlink:href="#DejaVuSans-52"/>
     <use xlink:href="#DejaVuSans-20" x="69.482422"/>
     <use xlink:href="#DejaVuSans-5b" x="101.269531"/>
     <use xlink:href="#DejaVuSans-36" x="140.283203"/>
     <use xlink:href="#DejaVuSans-33" x="203.90625"/>
     <use xlink:href="#DejaVuSans-2e" x="267.529297"/>
     <use xlink:href="#DejaVuSans-37" x="299.316406"/>
     <use xlink:href="#DejaVuSans-25" x="362.939453"/>
     <use xlink:href="#DejaVuSans-5d" x="457.958984"/>
    </g>
   </g>
   <g id="patch_6">
    <path d="M 128.10737 63.551434 
C 131.186643 58.253143 132.688064 52.183388 132.433934 46.060543 
C 132.179805 39.937698 130.180563 34.013238 126.672825 28.988342 
C 123.165087 23.963445 118.292921 20.044492 112.632964 17.695303 
C 106.973006 15.346114 100.75772 14.663174 94.722703 15.72731 
L 96.397811 25.227317 
C 100.622322 24.482421 104.973023 24.96048 108.934993 26.604912 
C 112.896963 28.249345 116.30748 30.992612 118.762896 34.510039 
C 121.218313 38.027467 122.617782 42.174589 122.795672 46.46058 
C 122.973563 50.746571 121.922568 54.9954 119.767077 58.704204 
z
" style="fill: #1f77b4"/>
   </g>
   <g id="patch_7">
    <path d="M 94.722709 15.727309 
C 89.402335 16.665433 84.4032 18.92943 80.1887 22.309438 
C 75.9742 25.689446 72.678708 30.077699 70.6077 35.067427 
C 68.536692 40.057155 67.756198 45.489269 68.338566 50.860238 
C 68.920935 56.231207 70.847598 61.369787 73.939963 65.799656 
C 77.032329 70.229525 81.191801 73.809443 86.032818 76.207571 
C 90.873835 78.605699 96.242048 79.745575 101.63985 79.521539 
C 107.037653 79.297503 112.292944 77.716698 116.918584 74.925656 
C 121.544224 72.134614 125.392732 68.222323 128.10737 63.551434 
L 119.767077 58.704204 
C 117.866831 61.973826 115.172875 64.71243 111.934927 66.666159 
C 108.696979 68.619888 105.018275 69.726452 101.239814 69.883278 
C 97.461352 70.040103 93.703603 69.242189 90.314891 67.5635 
C 86.926179 65.88481 84.014549 63.378867 81.849893 60.277959 
C 79.685237 57.177051 78.336573 53.580045 77.928915 49.820367 
C 77.521257 46.060688 78.067603 42.258209 79.517308 38.765399 
C 80.967014 35.272589 83.273859 32.200812 86.224009 29.834807 
C 89.174158 27.468801 92.673553 25.884003 96.397815 25.227316 
z
" style="fill: #ff7f0e"/>
   </g>
   <g id="matplotlib.axis_1"/>
   <g id="matplotlib.axis_2"/>
  </g>
 </g>
</svg>
