<?xml version="1.0" encoding="utf-8" standalone="no"?>
<!DOCTYPE svg PUBLIC "-//W3C//DTD SVG 1.1//EN"
  "http://www.w3.org/Graphics/SVG/1.1/DTD/svg11.dtd">
<svg xmlns:xlink="http://www.w3.org/1999/xlink" width="204.351853pt" height="94.788pt" viewBox="0 0 204.351853 94.788" xmlns="http://www.w3.org/2000/svg" version="1.1">
 <metadata>
  <rdf:RDF xmlns:dc="http://purl.org/dc/elements/1.1/" xmlns:cc="http://creativecommons.org/ns#" xmlns:rdf="http://www.w3.org/1999/02/22-rdf-syntax-ns#">
   <cc:Work>
    <dc:type rdf:resource="http://purl.org/dc/dcmitype/StillImage"/>
    <dc:date>2023-10-13T11:20:11.034717</dc:date>
    <dc:format>image/svg+xml</dc:format>
    <dc:creator>
     <cc:Agent>
      <dc:title>Matplotlib v3.7.3, https://matplotlib.org/</dc:title>
     </cc:Agent>
    </dc:creator>
   </cc:Work>
  </rdf:RDF>
 </metadata>
 <defs>
  <style type="text/css">*{stroke-linejoin: round; stroke-linecap: butt}</style>
 </defs>
 <g id="figure_1">
  <g id="patch_1">
   <path d="M 0 94.788 
L 204.351853 94.788 
L 204.351853 0 
L 0 0 
z
" style="fill: #ffffff"/>
  </g>
  <g id="axes_1">
   <g id="patch_2">
    <path d="M 142.650993 76.317214 
L 137.74188 76.317214 
L 129.418559 69.338601 
" style="fill: none; stroke: #000000; stroke-linecap: round"/>
   </g>
   <g id="text_1">
    <g id="patch_3">
     <path d="M 144.654978 83.156277 
L 199.151853 83.156277 
L 199.151853 69.478152 
L 144.654978 69.478152 
z
" style="fill: #ffffff"/>
    </g>
    <!-- G [77.3%] -->
    <g transform="translate(146.654978 79.076589) scale(0.1 -0.1)">
     <defs>
      <path id="DejaVuSans-47" d="M 3809 666 
L 3809 1919 
L 2778 1919 
L 2778 2438 
L 4434 2438 
L 4434 434 
Q 4069 175 3628 42 
Q 3188 -91 2688 -91 
Q 1594 -91 976 548 
Q 359 1188 359 2328 
Q 359 3472 976 4111 
Q 1594 4750 2688 4750 
Q 3144 4750 3555 4637 
Q 3966 4525 4313 4306 
L 4313 3634 
Q 3963 3931 3569 4081 
Q 3175 4231 2741 4231 
Q 1884 4231 1454 3753 
Q 1025 3275 1025 2328 
Q 1025 1384 1454 906 
Q 1884 428 2741 428 
Q 3075 428 3337 486 
Q 3600 544 3809 666 
z
" transform="scale(0.015625)"/>
      <path id="DejaVuSans-20" transform="scale(0.015625)"/>
      <path id="DejaVuSans-5b" d="M 550 4863 
L 1875 4863 
L 1875 4416 
L 1125 4416 
L 1125 -397 
L 1875 -397 
L 1875 -844 
L 550 -844 
L 550 4863 
z
" transform="scale(0.015625)"/>
      <path id="DejaVuSans-37" d="M 525 4666 
L 3525 4666 
L 3525 4397 
L 1831 0 
L 1172 0 
L 2766 4134 
L 525 4134 
L 525 4666 
z
" transform="scale(0.015625)"/>
      <path id="DejaVuSans-2e" d="M 684 794 
L 1344 794 
L 1344 0 
L 684 0 
L 684 794 
z
" transform="scale(0.015625)"/>
      <path id="DejaVuSans-33" d="M 2597 2516 
Q 3050 2419 3304 2112 
Q 3559 1806 3559 1356 
Q 3559 666 3084 287 
Q 2609 -91 1734 -91 
Q 1441 -91 1130 -33 
Q 819 25 488 141 
L 488 750 
Q 750 597 1062 519 
Q 1375 441 1716 441 
Q 2309 441 2620 675 
Q 2931 909 2931 1356 
Q 2931 1769 2642 2001 
Q 2353 2234 1838 2234 
L 1294 2234 
L 1294 2753 
L 1863 2753 
Q 2328 2753 2575 2939 
Q 2822 3125 2822 3475 
Q 2822 3834 2567 4026 
Q 2313 4219 1838 4219 
Q 1578 4219 1281 4162 
Q 984 4106 628 3988 
L 628 4550 
Q 988 4650 1302 4700 
Q 1616 4750 1894 4750 
Q 2613 4750 3031 4423 
Q 3450 4097 3450 3541 
Q 3450 3153 3228 2886 
Q 3006 2619 2597 2516 
z
" transform="scale(0.015625)"/>
      <path id="DejaVuSans-25" d="M 4653 2053 
Q 4381 2053 4226 1822 
Q 4072 1591 4072 1178 
Q 4072 772 4226 539 
Q 4381 306 4653 306 
Q 4919 306 5073 539 
Q 5228 772 5228 1178 
Q 5228 1588 5073 1820 
Q 4919 2053 4653 2053 
z
M 4653 2450 
Q 5147 2450 5437 2106 
Q 5728 1763 5728 1178 
Q 5728 594 5436 251 
Q 5144 -91 4653 -91 
Q 4153 -91 3862 251 
Q 3572 594 3572 1178 
Q 3572 1766 3864 2108 
Q 4156 2450 4653 2450 
z
M 1428 4353 
Q 1159 4353 1004 4120 
Q 850 3888 850 3481 
Q 850 3069 1003 2837 
Q 1156 2606 1428 2606 
Q 1700 2606 1854 2837 
Q 2009 3069 2009 3481 
Q 2009 3884 1853 4118 
Q 1697 4353 1428 4353 
z
M 4250 4750 
L 4750 4750 
L 1831 -91 
L 1331 -91 
L 4250 4750 
z
M 1428 4750 
Q 1922 4750 2215 4408 
Q 2509 4066 2509 3481 
Q 2509 2891 2217 2550 
Q 1925 2209 1428 2209 
Q 931 2209 642 2551 
Q 353 2894 353 3481 
Q 353 4063 643 4406 
Q 934 4750 1428 4750 
z
" transform="scale(0.015625)"/>
      <path id="DejaVuSans-5d" d="M 1947 4863 
L 1947 -844 
L 622 -844 
L 622 -397 
L 1369 -397 
L 1369 4416 
L 622 4416 
L 622 4863 
L 1947 4863 
z
" transform="scale(0.015625)"/>
     </defs>
     <use xlink:href="#DejaVuSans-47"/>
     <use xlink:href="#DejaVuSans-20" x="77.490234"/>
     <use xlink:href="#DejaVuSans-5b" x="109.277344"/>
     <use xlink:href="#DejaVuSans-37" x="148.291016"/>
     <use xlink:href="#DejaVuSans-37" x="211.914062"/>
     <use xlink:href="#DejaVuSans-2e" x="275.537109"/>
     <use xlink:href="#DejaVuSans-33" x="307.324219"/>
     <use xlink:href="#DejaVuSans-25" x="370.947266"/>
     <use xlink:href="#DejaVuSans-5d" x="465.966797"/>
    </g>
   </g>
   <g id="patch_4">
    <path d="M 63.838993 18.470792 
L 68.74903 18.470792 
L 77.072352 25.449404 
" style="fill: none; stroke: #000000; stroke-linecap: round"/>
   </g>
   <g id="text_2">
    <g id="patch_5">
     <path d="M 5.2 25.309855 
L 61.835938 25.309855 
L 61.835938 11.63173 
L 5.2 11.63173 
z
" style="fill: #ffffff"/>
    </g>
    <!-- W [22.1%] -->
    <g transform="translate(7.2 21.230167) scale(0.1 -0.1)">
     <defs>
      <path id="DejaVuSans-57" d="M 213 4666 
L 850 4666 
L 1831 722 
L 2809 4666 
L 3519 4666 
L 4500 722 
L 5478 4666 
L 6119 4666 
L 4947 0 
L 4153 0 
L 3169 4050 
L 2175 0 
L 1381 0 
L 213 4666 
z
" transform="scale(0.015625)"/>
      <path id="DejaVuSans-32" d="M 1228 531 
L 3431 531 
L 3431 0 
L 469 0 
L 469 531 
Q 828 903 1448 1529 
Q 2069 2156 2228 2338 
Q 2531 2678 2651 2914 
Q 2772 3150 2772 3378 
Q 2772 3750 2511 3984 
Q 2250 4219 1831 4219 
Q 1534 4219 1204 4116 
Q 875 4013 500 3803 
L 500 4441 
Q 881 4594 1212 4672 
Q 1544 4750 1819 4750 
Q 2544 4750 2975 4387 
Q 3406 4025 3406 3419 
Q 3406 3131 3298 2873 
Q 3191 2616 2906 2266 
Q 2828 2175 2409 1742 
Q 1991 1309 1228 531 
z
" transform="scale(0.015625)"/>
      <path id="DejaVuSans-31" d="M 794 531 
L 1825 531 
L 1825 4091 
L 703 3866 
L 703 4441 
L 1819 4666 
L 2450 4666 
L 2450 531 
L 3481 531 
L 3481 0 
L 794 0 
L 794 531 
z
" transform="scale(0.015625)"/>
     </defs>
     <use xlink:href="#DejaVuSans-57"/>
     <use xlink:href="#DejaVuSans-20" x="98.876953"/>
     <use xlink:href="#DejaVuSans-5b" x="130.664062"/>
     <use xlink:href="#DejaVuSans-32" x="169.677734"/>
     <use xlink:href="#DejaVuSans-32" x="233.300781"/>
     <use xlink:href="#DejaVuSans-2e" x="296.923828"/>
     <use xlink:href="#DejaVuSans-31" x="328.710938"/>
     <use xlink:href="#DejaVuSans-25" x="392.333984"/>
     <use xlink:href="#DejaVuSans-5d" x="487.353516"/>
    </g>
   </g>
   <g id="patch_6">
    <path d="M 71.090267 47.418865 
C 71.092803 50.698441 71.597061 53.958412 72.585516 57.085484 
C 73.573971 60.212557 75.035039 63.170084 76.917945 65.855283 
C 78.80085 68.540482 81.083526 70.921884 83.686644 72.916729 
C 86.289761 74.911574 89.182812 76.496483 92.265257 77.616377 
C 95.347702 78.736271 98.583414 79.378025 101.859946 79.519336 
C 105.136477 79.660648 108.415428 79.29986 111.582846 78.449512 
C 114.750264 77.599164 117.769027 76.269222 120.534228 74.505903 
C 123.299429 72.742585 125.778659 70.566556 127.885759 68.053439 
C 129.99286 65.540322 131.703135 62.71957 132.95715 59.689211 
C 134.211165 56.658852 134.994222 53.454402 135.279109 50.187221 
C 135.563995 46.920041 135.347372 43.628422 134.636768 40.426755 
C 133.926164 37.225088 132.729907 34.150897 131.089569 31.311017 
C 129.449231 28.471137 127.384038 25.89885 124.965758 23.68355 
C 122.547479 21.468251 119.804456 19.6359 116.832015 18.250178 
C 113.859575 16.864456 110.692553 15.941603 107.441013 15.513689 
C 104.189472 15.085776 100.891519 15.157817 97.661766 15.72731 
L 99.336873 25.227317 
C 101.5977 24.828672 103.906267 24.778243 106.182346 25.077783 
C 108.458425 25.377322 110.67534 26.02332 112.756048 26.993325 
C 114.836756 27.96333 116.756872 29.245975 118.449668 30.796685 
C 120.142464 32.347395 121.588099 34.147996 122.736336 36.135912 
C 123.884572 38.123828 124.721952 40.275762 125.219375 42.516929 
C 125.716798 44.758095 125.868434 47.062229 125.669013 49.349255 
C 125.469593 51.636281 124.921453 53.879397 124.043642 56.000648 
C 123.165832 58.121899 121.968639 60.096425 120.493669 61.855607 
C 119.018699 63.614789 117.283238 65.138009 115.347597 66.372332 
C 113.411956 67.606655 111.298822 68.537615 109.081629 69.132859 
C 106.864437 69.728102 104.569171 69.980653 102.275599 69.881736 
C 99.982027 69.782818 97.717029 69.33359 95.559317 68.549664 
C 93.401606 67.765738 91.37647 66.656302 89.554288 65.25991 
C 87.732106 63.863519 86.134233 62.196537 84.816199 60.316898 
C 83.498165 58.437259 82.475417 56.36699 81.783498 54.178039 
C 81.09158 51.989088 80.738599 49.707109 80.736824 47.411405 
z
" style="fill: #1f77b4"/>
   </g>
   <g id="patch_7">
    <path d="M 97.661754 15.727312 
C 90.214402 17.040484 83.463825 20.939674 78.605152 26.734566 
C 73.746479 32.529458 71.084419 39.856627 71.090267 47.418865 
L 80.736824 47.411405 
C 80.732731 42.117839 82.596172 36.98882 85.997244 32.932396 
C 89.398315 28.875972 94.123718 26.146539 99.336865 25.227318 
z
" style="fill: #ff7f0e"/>
   </g>
   <g id="matplotlib.axis_1"/>
   <g id="matplotlib.axis_2"/>
  </g>
 </g>
</svg>
