<?xml version="1.0" encoding="utf-8" standalone="no"?>
<!DOCTYPE svg PUBLIC "-//W3C//DTD SVG 1.1//EN"
  "http://www.w3.org/Graphics/SVG/1.1/DTD/svg11.dtd">
<svg xmlns:xlink="http://www.w3.org/1999/xlink" width="194.372165pt" height="106.235802pt" viewBox="0 0 194.372165 106.235802" xmlns="http://www.w3.org/2000/svg" version="1.1">
 <metadata>
  <rdf:RDF xmlns:dc="http://purl.org/dc/elements/1.1/" xmlns:cc="http://creativecommons.org/ns#" xmlns:rdf="http://www.w3.org/1999/02/22-rdf-syntax-ns#">
   <cc:Work>
    <dc:type rdf:resource="http://purl.org/dc/dcmitype/StillImage"/>
    <dc:date>2023-10-13T11:20:21.247048</dc:date>
    <dc:format>image/svg+xml</dc:format>
    <dc:creator>
     <cc:Agent>
      <dc:title>Matplotlib v3.7.3, https://matplotlib.org/</dc:title>
     </cc:Agent>
    </dc:creator>
   </cc:Work>
  </rdf:RDF>
 </metadata>
 <defs>
  <style type="text/css">*{stroke-linejoin: round; stroke-linecap: butt}</style>
 </defs>
 <g id="figure_1">
  <g id="patch_1">
   <path d="M 0 106.235802 
L 194.372165 106.235802 
L 194.372165 0 
L 0 0 
z
" style="fill: #ffffff"/>
  </g>
  <g id="axes_1">
   <g id="patch_2">
    <path d="M 134.1042 94.19674 
L 113.109703 94.19674 
L 108.666701 84.285209 
" style="fill: none; stroke: #000000; stroke-linecap: round"/>
   </g>
   <g id="text_1">
    <g id="patch_3">
     <path d="M 136.104978 101.035802 
L 189.172165 101.035802 
L 189.172165 87.357677 
L 136.104978 87.357677 
z
" style="fill: #ffffff"/>
    </g>
    <!-- E [91.3%] -->
    <g transform="translate(138.104978 96.956115) scale(0.1 -0.1)">
     <defs>
      <path id="DejaVuSans-45" d="M 628 4666 
L 3578 4666 
L 3578 4134 
L 1259 4134 
L 1259 2753 
L 3481 2753 
L 3481 2222 
L 1259 2222 
L 1259 531 
L 3634 531 
L 3634 0 
L 628 0 
L 628 4666 
z
" transform="scale(0.015625)"/>
      <path id="DejaVuSans-20" transform="scale(0.015625)"/>
      <path id="DejaVuSans-5b" d="M 550 4863 
L 1875 4863 
L 1875 4416 
L 1125 4416 
L 1125 -397 
L 1875 -397 
L 1875 -844 
L 550 -844 
L 550 4863 
z
" transform="scale(0.015625)"/>
      <path id="DejaVuSans-39" d="M 703 97 
L 703 672 
Q 941 559 1184 500 
Q 1428 441 1663 441 
Q 2288 441 2617 861 
Q 2947 1281 2994 2138 
Q 2813 1869 2534 1725 
Q 2256 1581 1919 1581 
Q 1219 1581 811 2004 
Q 403 2428 403 3163 
Q 403 3881 828 4315 
Q 1253 4750 1959 4750 
Q 2769 4750 3195 4129 
Q 3622 3509 3622 2328 
Q 3622 1225 3098 567 
Q 2575 -91 1691 -91 
Q 1453 -91 1209 -44 
Q 966 3 703 97 
z
M 1959 2075 
Q 2384 2075 2632 2365 
Q 2881 2656 2881 3163 
Q 2881 3666 2632 3958 
Q 2384 4250 1959 4250 
Q 1534 4250 1286 3958 
Q 1038 3666 1038 3163 
Q 1038 2656 1286 2365 
Q 1534 2075 1959 2075 
z
" transform="scale(0.015625)"/>
      <path id="DejaVuSans-31" d="M 794 531 
L 1825 531 
L 1825 4091 
L 703 3866 
L 703 4441 
L 1819 4666 
L 2450 4666 
L 2450 531 
L 3481 531 
L 3481 0 
L 794 0 
L 794 531 
z
" transform="scale(0.015625)"/>
      <path id="DejaVuSans-2e" d="M 684 794 
L 1344 794 
L 1344 0 
L 684 0 
L 684 794 
z
" transform="scale(0.015625)"/>
      <path id="DejaVuSans-33" d="M 2597 2516 
Q 3050 2419 3304 2112 
Q 3559 1806 3559 1356 
Q 3559 666 3084 287 
Q 2609 -91 1734 -91 
Q 1441 -91 1130 -33 
Q 819 25 488 141 
L 488 750 
Q 750 597 1062 519 
Q 1375 441 1716 441 
Q 2309 441 2620 675 
Q 2931 909 2931 1356 
Q 2931 1769 2642 2001 
Q 2353 2234 1838 2234 
L 1294 2234 
L 1294 2753 
L 1863 2753 
Q 2328 2753 2575 2939 
Q 2822 3125 2822 3475 
Q 2822 3834 2567 4026 
Q 2313 4219 1838 4219 
Q 1578 4219 1281 4162 
Q 984 4106 628 3988 
L 628 4550 
Q 988 4650 1302 4700 
Q 1616 4750 1894 4750 
Q 2613 4750 3031 4423 
Q 3450 4097 3450 3541 
Q 3450 3153 3228 2886 
Q 3006 2619 2597 2516 
z
" transform="scale(0.015625)"/>
      <path id="DejaVuSans-25" d="M 4653 2053 
Q 4381 2053 4226 1822 
Q 4072 1591 4072 1178 
Q 4072 772 4226 539 
Q 4381 306 4653 306 
Q 4919 306 5073 539 
Q 5228 772 5228 1178 
Q 5228 1588 5073 1820 
Q 4919 2053 4653 2053 
z
M 4653 2450 
Q 5147 2450 5437 2106 
Q 5728 1763 5728 1178 
Q 5728 594 5436 251 
Q 5144 -91 4653 -91 
Q 4153 -91 3862 251 
Q 3572 594 3572 1178 
Q 3572 1766 3864 2108 
Q 4156 2450 4653 2450 
z
M 1428 4353 
Q 1159 4353 1004 4120 
Q 850 3888 850 3481 
Q 850 3069 1003 2837 
Q 1156 2606 1428 2606 
Q 1700 2606 1854 2837 
Q 2009 3069 2009 3481 
Q 2009 3884 1853 4118 
Q 1697 4353 1428 4353 
z
M 4250 4750 
L 4750 4750 
L 1831 -91 
L 1331 -91 
L 4250 4750 
z
M 1428 4750 
Q 1922 4750 2215 4408 
Q 2509 4066 2509 3481 
Q 2509 2891 2217 2550 
Q 1925 2209 1428 2209 
Q 931 2209 642 2551 
Q 353 2894 353 3481 
Q 353 4063 643 4406 
Q 934 4750 1428 4750 
z
" transform="scale(0.015625)"/>
      <path id="DejaVuSans-5d" d="M 1947 4863 
L 1947 -844 
L 622 -844 
L 622 -397 
L 1369 -397 
L 1369 4416 
L 622 4416 
L 622 4863 
L 1947 4863 
z
" transform="scale(0.015625)"/>
     </defs>
     <use xlink:href="#DejaVuSans-45"/>
     <use xlink:href="#DejaVuSans-20" x="63.183594"/>
     <use xlink:href="#DejaVuSans-5b" x="94.970703"/>
     <use xlink:href="#DejaVuSans-39" x="133.984375"/>
     <use xlink:href="#DejaVuSans-31" x="197.607422"/>
     <use xlink:href="#DejaVuSans-2e" x="261.230469"/>
     <use xlink:href="#DejaVuSans-33" x="293.017578"/>
     <use xlink:href="#DejaVuSans-25" x="356.640625"/>
     <use xlink:href="#DejaVuSans-5d" x="451.660156"/>
    </g>
   </g>
   <g id="patch_4">
    <path d="M 55.288764 12.039062 
L 76.281208 12.039062 
L 80.724211 21.950593 
" style="fill: none; stroke: #000000; stroke-linecap: round"/>
   </g>
   <g id="text_2">
    <g id="patch_5">
     <path d="M 5.2 18.878125 
L 53.285938 18.878125 
L 53.285938 5.2 
L 5.2 5.2 
z
" style="fill: #ffffff"/>
    </g>
    <!-- D [7.8%] -->
    <g transform="translate(7.2 14.798438) scale(0.1 -0.1)">
     <defs>
      <path id="DejaVuSans-44" d="M 1259 4147 
L 1259 519 
L 2022 519 
Q 2988 519 3436 956 
Q 3884 1394 3884 2338 
Q 3884 3275 3436 3711 
Q 2988 4147 2022 4147 
L 1259 4147 
z
M 628 4666 
L 1925 4666 
Q 3281 4666 3915 4102 
Q 4550 3538 4550 2338 
Q 4550 1131 3912 565 
Q 3275 0 1925 0 
L 628 0 
L 628 4666 
z
" transform="scale(0.015625)"/>
      <path id="DejaVuSans-37" d="M 525 4666 
L 3525 4666 
L 3525 4397 
L 1831 0 
L 1172 0 
L 2766 4134 
L 525 4134 
L 525 4666 
z
" transform="scale(0.015625)"/>
      <path id="DejaVuSans-38" d="M 2034 2216 
Q 1584 2216 1326 1975 
Q 1069 1734 1069 1313 
Q 1069 891 1326 650 
Q 1584 409 2034 409 
Q 2484 409 2743 651 
Q 3003 894 3003 1313 
Q 3003 1734 2745 1975 
Q 2488 2216 2034 2216 
z
M 1403 2484 
Q 997 2584 770 2862 
Q 544 3141 544 3541 
Q 544 4100 942 4425 
Q 1341 4750 2034 4750 
Q 2731 4750 3128 4425 
Q 3525 4100 3525 3541 
Q 3525 3141 3298 2862 
Q 3072 2584 2669 2484 
Q 3125 2378 3379 2068 
Q 3634 1759 3634 1313 
Q 3634 634 3220 271 
Q 2806 -91 2034 -91 
Q 1263 -91 848 271 
Q 434 634 434 1313 
Q 434 1759 690 2068 
Q 947 2378 1403 2484 
z
M 1172 3481 
Q 1172 3119 1398 2916 
Q 1625 2713 2034 2713 
Q 2441 2713 2670 2916 
Q 2900 3119 2900 3481 
Q 2900 3844 2670 4047 
Q 2441 4250 2034 4250 
Q 1625 4250 1398 4047 
Q 1172 3844 1172 3481 
z
" transform="scale(0.015625)"/>
     </defs>
     <use xlink:href="#DejaVuSans-44"/>
     <use xlink:href="#DejaVuSans-20" x="77.001953"/>
     <use xlink:href="#DejaVuSans-5b" x="108.789062"/>
     <use xlink:href="#DejaVuSans-37" x="147.802734"/>
     <use xlink:href="#DejaVuSans-2e" x="211.425781"/>
     <use xlink:href="#DejaVuSans-38" x="243.212891"/>
     <use xlink:href="#DejaVuSans-25" x="306.835938"/>
     <use xlink:href="#DejaVuSans-5d" x="401.855469"/>
    </g>
   </g>
   <g id="patch_6">
    <path d="M 74.770682 27.879829 
C 71.718361 30.289554 69.128358 33.233139 67.126713 36.567334 
C 65.125069 39.90153 63.744789 43.571358 63.053046 47.398228 
C 62.361302 51.225097 62.3695 55.145906 63.077242 58.969849 
C 63.784983 62.793792 65.180598 66.457816 67.196168 69.783612 
C 69.211738 73.109407 71.814029 76.042135 74.876401 78.439075 
C 77.938773 80.836014 81.410729 82.657642 85.123309 83.815308 
C 88.835889 84.972975 92.727874 85.447591 96.609862 85.216061 
C 100.491851 84.984531 104.299831 84.050671 107.84849 82.459928 
C 111.397148 80.869186 114.62797 78.64779 117.383728 75.903844 
C 120.139486 73.159899 122.374741 69.938649 123.980713 66.396857 
C 125.586685 62.855065 126.536894 59.051131 126.785099 55.170173 
C 127.033303 51.289215 126.575409 47.395227 125.433702 43.677708 
C 124.291994 39.96019 122.485298 36.48044 120.101536 33.4078 
C 117.717774 30.335159 114.796252 27.720294 111.479146 25.690456 
C 108.162039 23.660617 104.504044 22.249276 100.683177 21.525114 
C 96.862309 20.800953 92.941571 20.775912 89.111766 21.45121 
L 90.786873 30.951217 
C 93.467737 30.478508 96.212254 30.496037 98.886861 31.00295 
C 101.561468 31.509863 104.122065 32.497802 106.444039 33.918689 
C 108.766014 35.339576 110.811079 37.169982 112.479713 39.32083 
C 114.148346 41.471678 115.413033 43.907503 116.212229 46.509766 
C 117.011424 49.112029 117.331949 51.837821 117.158206 54.554491 
C 116.984463 57.271162 116.319317 59.933915 115.195136 62.41317 
C 114.070956 64.892424 112.506278 67.147299 110.577247 69.068061 
C 108.648216 70.988823 106.386641 72.5438 103.90258 73.65732 
C 101.418519 74.77084 98.752933 75.424542 96.035541 75.586613 
C 93.318149 75.748684 90.593759 75.416452 87.994954 74.606086 
C 85.396148 73.795719 82.965778 72.52058 80.822118 70.842722 
C 78.678458 69.164865 76.856854 67.111955 75.445955 64.783898 
C 74.035056 62.455841 73.058125 59.891025 72.562706 57.214265 
C 72.067287 54.537504 72.061549 51.792938 72.545769 49.114129 
C 73.02999 46.435321 73.996185 43.866441 75.397336 41.532504 
C 76.798488 39.198567 78.61149 37.138058 80.748115 35.45125 
z
" style="fill: #1f77b4"/>
   </g>
   <g id="patch_7">
    <path d="M 89.111758 21.451211 
C 86.502518 21.911291 83.960116 22.692103 81.542422 23.775873 
C 79.124727 24.859644 76.850224 26.238088 74.770682 27.879829 
L 80.748115 35.45125 
C 82.203794 34.302031 83.795946 33.337121 85.488333 32.578481 
C 87.180719 31.819842 88.9604 31.273274 90.786868 30.951218 
z
" style="fill: #ff7f0e"/>
   </g>
   <g id="matplotlib.axis_1"/>
   <g id="matplotlib.axis_2"/>
  </g>
 </g>
</svg>
