<?xml version="1.0" encoding="utf-8" standalone="no"?>
<!DOCTYPE svg PUBLIC "-//W3C//DTD SVG 1.1//EN"
  "http://www.w3.org/Graphics/SVG/1.1/DTD/svg11.dtd">
<svg xmlns:xlink="http://www.w3.org/1999/xlink" width="193.51279pt" height="104.531947pt" viewBox="0 0 193.51279 104.531947" xmlns="http://www.w3.org/2000/svg" version="1.1">
 <metadata>
  <rdf:RDF xmlns:dc="http://purl.org/dc/elements/1.1/" xmlns:cc="http://creativecommons.org/ns#" xmlns:rdf="http://www.w3.org/1999/02/22-rdf-syntax-ns#">
   <cc:Work>
    <dc:type rdf:resource="http://purl.org/dc/dcmitype/StillImage"/>
    <dc:date>2023-10-13T11:21:43.498307</dc:date>
    <dc:format>image/svg+xml</dc:format>
    <dc:creator>
     <cc:Agent>
      <dc:title>Matplotlib v3.7.3, https://matplotlib.org/</dc:title>
     </cc:Agent>
    </dc:creator>
   </cc:Work>
  </rdf:RDF>
 </metadata>
 <defs>
  <style type="text/css">*{stroke-linejoin: round; stroke-linecap: butt}</style>
 </defs>
 <g id="figure_1">
  <g id="patch_1">
   <path d="M 0 104.531947 
L 193.51279 104.531947 
L 193.51279 0 
L 0 0 
z
" style="fill: #ffffff"/>
  </g>
  <g id="axes_1">
   <g id="patch_2">
    <path d="M 132.721956 92.492884 
L 113.521911 92.492884 
L 108.646183 82.786908 
" style="fill: none; stroke: #000000; stroke-linecap: round"/>
   </g>
   <g id="text_1">
    <g id="patch_3">
     <path d="M 134.723727 99.331947 
L 188.31279 99.331947 
L 188.31279 85.653822 
L 134.723727 85.653822 
z
" style="fill: #ffffff"/>
    </g>
    <!-- A [90.4%] -->
    <g transform="translate(136.723727 95.252259) scale(0.1 -0.1)">
     <defs>
      <path id="DejaVuSans-41" d="M 2188 4044 
L 1331 1722 
L 3047 1722 
L 2188 4044 
z
M 1831 4666 
L 2547 4666 
L 4325 0 
L 3669 0 
L 3244 1197 
L 1141 1197 
L 716 0 
L 50 0 
L 1831 4666 
z
" transform="scale(0.015625)"/>
      <path id="DejaVuSans-20" transform="scale(0.015625)"/>
      <path id="DejaVuSans-5b" d="M 550 4863 
L 1875 4863 
L 1875 4416 
L 1125 4416 
L 1125 -397 
L 1875 -397 
L 1875 -844 
L 550 -844 
L 550 4863 
z
" transform="scale(0.015625)"/>
      <path id="DejaVuSans-39" d="M 703 97 
L 703 672 
Q 941 559 1184 500 
Q 1428 441 1663 441 
Q 2288 441 2617 861 
Q 2947 1281 2994 2138 
Q 2813 1869 2534 1725 
Q 2256 1581 1919 1581 
Q 1219 1581 811 2004 
Q 403 2428 403 3163 
Q 403 3881 828 4315 
Q 1253 4750 1959 4750 
Q 2769 4750 3195 4129 
Q 3622 3509 3622 2328 
Q 3622 1225 3098 567 
Q 2575 -91 1691 -91 
Q 1453 -91 1209 -44 
Q 966 3 703 97 
z
M 1959 2075 
Q 2384 2075 2632 2365 
Q 2881 2656 2881 3163 
Q 2881 3666 2632 3958 
Q 2384 4250 1959 4250 
Q 1534 4250 1286 3958 
Q 1038 3666 1038 3163 
Q 1038 2656 1286 2365 
Q 1534 2075 1959 2075 
z
" transform="scale(0.015625)"/>
      <path id="DejaVuSans-30" d="M 2034 4250 
Q 1547 4250 1301 3770 
Q 1056 3291 1056 2328 
Q 1056 1369 1301 889 
Q 1547 409 2034 409 
Q 2525 409 2770 889 
Q 3016 1369 3016 2328 
Q 3016 3291 2770 3770 
Q 2525 4250 2034 4250 
z
M 2034 4750 
Q 2819 4750 3233 4129 
Q 3647 3509 3647 2328 
Q 3647 1150 3233 529 
Q 2819 -91 2034 -91 
Q 1250 -91 836 529 
Q 422 1150 422 2328 
Q 422 3509 836 4129 
Q 1250 4750 2034 4750 
z
" transform="scale(0.015625)"/>
      <path id="DejaVuSans-2e" d="M 684 794 
L 1344 794 
L 1344 0 
L 684 0 
L 684 794 
z
" transform="scale(0.015625)"/>
      <path id="DejaVuSans-34" d="M 2419 4116 
L 825 1625 
L 2419 1625 
L 2419 4116 
z
M 2253 4666 
L 3047 4666 
L 3047 1625 
L 3713 1625 
L 3713 1100 
L 3047 1100 
L 3047 0 
L 2419 0 
L 2419 1100 
L 313 1100 
L 313 1709 
L 2253 4666 
z
" transform="scale(0.015625)"/>
      <path id="DejaVuSans-25" d="M 4653 2053 
Q 4381 2053 4226 1822 
Q 4072 1591 4072 1178 
Q 4072 772 4226 539 
Q 4381 306 4653 306 
Q 4919 306 5073 539 
Q 5228 772 5228 1178 
Q 5228 1588 5073 1820 
Q 4919 2053 4653 2053 
z
M 4653 2450 
Q 5147 2450 5437 2106 
Q 5728 1763 5728 1178 
Q 5728 594 5436 251 
Q 5144 -91 4653 -91 
Q 4153 -91 3862 251 
Q 3572 594 3572 1178 
Q 3572 1766 3864 2108 
Q 4156 2450 4653 2450 
z
M 1428 4353 
Q 1159 4353 1004 4120 
Q 850 3888 850 3481 
Q 850 3069 1003 2837 
Q 1156 2606 1428 2606 
Q 1700 2606 1854 2837 
Q 2009 3069 2009 3481 
Q 2009 3884 1853 4118 
Q 1697 4353 1428 4353 
z
M 4250 4750 
L 4750 4750 
L 1831 -91 
L 1331 -91 
L 4250 4750 
z
M 1428 4750 
Q 1922 4750 2215 4408 
Q 2509 4066 2509 3481 
Q 2509 2891 2217 2550 
Q 1925 2209 1428 2209 
Q 931 2209 642 2551 
Q 353 2894 353 3481 
Q 353 4063 643 4406 
Q 934 4750 1428 4750 
z
" transform="scale(0.015625)"/>
      <path id="DejaVuSans-5d" d="M 1947 4863 
L 1947 -844 
L 622 -844 
L 622 -397 
L 1369 -397 
L 1369 4416 
L 622 4416 
L 622 4863 
L 1947 4863 
z
" transform="scale(0.015625)"/>
     </defs>
     <use xlink:href="#DejaVuSans-41"/>
     <use xlink:href="#DejaVuSans-20" x="68.408203"/>
     <use xlink:href="#DejaVuSans-5b" x="100.195312"/>
     <use xlink:href="#DejaVuSans-39" x="139.208984"/>
     <use xlink:href="#DejaVuSans-30" x="202.832031"/>
     <use xlink:href="#DejaVuSans-2e" x="266.455078"/>
     <use xlink:href="#DejaVuSans-34" x="298.242188"/>
     <use xlink:href="#DejaVuSans-25" x="361.865234"/>
     <use xlink:href="#DejaVuSans-5d" x="456.884766"/>
    </g>
   </g>
   <g id="patch_4">
    <path d="M 53.904295 12.039062 
L 73.106511 12.039062 
L 77.982238 21.74504 
" style="fill: none; stroke: #000000; stroke-linecap: round"/>
   </g>
   <g id="text_2">
    <g id="patch_5">
     <path d="M 5.2 18.878125 
L 51.904688 18.878125 
L 51.904688 5.2 
L 5.2 5.2 
z
" style="fill: #ffffff"/>
    </g>
    <!-- E [9.2%] -->
    <g transform="translate(7.2 14.798438) scale(0.1 -0.1)">
     <defs>
      <path id="DejaVuSans-45" d="M 628 4666 
L 3578 4666 
L 3578 4134 
L 1259 4134 
L 1259 2753 
L 3481 2753 
L 3481 2222 
L 1259 2222 
L 1259 531 
L 3634 531 
L 3634 0 
L 628 0 
L 628 4666 
z
" transform="scale(0.015625)"/>
      <path id="DejaVuSans-32" d="M 1228 531 
L 3431 531 
L 3431 0 
L 469 0 
L 469 531 
Q 828 903 1448 1529 
Q 2069 2156 2228 2338 
Q 2531 2678 2651 2914 
Q 2772 3150 2772 3378 
Q 2772 3750 2511 3984 
Q 2250 4219 1831 4219 
Q 1534 4219 1204 4116 
Q 875 4013 500 3803 
L 500 4441 
Q 881 4594 1212 4672 
Q 1544 4750 1819 4750 
Q 2544 4750 2975 4387 
Q 3406 4025 3406 3419 
Q 3406 3131 3298 2873 
Q 3191 2616 2906 2266 
Q 2828 2175 2409 1742 
Q 1991 1309 1228 531 
z
" transform="scale(0.015625)"/>
     </defs>
     <use xlink:href="#DejaVuSans-45"/>
     <use xlink:href="#DejaVuSans-20" x="63.183594"/>
     <use xlink:href="#DejaVuSans-5b" x="94.970703"/>
     <use xlink:href="#DejaVuSans-39" x="133.984375"/>
     <use xlink:href="#DejaVuSans-2e" x="197.607422"/>
     <use xlink:href="#DejaVuSans-32" x="229.394531"/>
     <use xlink:href="#DejaVuSans-25" x="293.017578"/>
     <use xlink:href="#DejaVuSans-5d" x="388.037109"/>
    </g>
   </g>
   <g id="patch_6">
    <path d="M 71.243337 28.881503 
C 68.458514 31.50989 66.165469 34.614728 64.472444 38.049451 
C 62.779419 41.484174 61.713481 45.193872 61.324949 49.003425 
C 60.936417 52.812978 61.231501 56.661485 62.196273 60.367274 
C 63.161045 64.073063 64.78008 67.57689 66.976951 70.713354 
C 69.173822 73.849819 71.913408 76.56878 75.066385 78.741886 
C 78.219362 80.914992 81.735324 82.507503 85.448297 83.444242 
C 89.161271 84.380982 93.011898 84.646975 96.818406 84.229665 
C 100.624915 83.812355 104.326451 82.718414 107.748282 80.999482 
C 111.170112 79.280549 114.257533 76.964106 116.864801 74.1595 
C 119.472068 71.354895 121.5575 68.106965 123.022653 64.56903 
C 124.487805 61.031095 125.309255 57.259717 125.448226 53.432924 
C 125.587196 49.606131 125.041465 45.785103 123.836794 42.150214 
C 122.632122 38.515324 120.78777 35.124684 118.390801 32.138349 
C 115.993832 29.152015 113.082566 26.617729 109.79443 24.655123 
C 106.506295 22.692518 102.893857 21.332969 99.127645 20.640656 
C 95.361432 19.948342 91.501655 19.934331 87.730516 20.599285 
L 89.405623 30.099292 
C 92.045421 29.633825 94.747265 29.643632 97.383614 30.128252 
C 100.019962 30.612871 102.548669 31.564555 104.850363 32.938379 
C 107.152058 34.312203 109.189945 36.086203 110.867823 38.176637 
C 112.545702 40.267071 113.836748 42.64052 114.680018 45.184942 
C 115.523287 47.729365 115.905299 50.404085 115.80802 53.082839 
C 115.710741 55.761594 115.135726 58.401559 114.110119 60.878114 
C 113.084512 63.354668 111.62471 65.628219 109.799623 67.591443 
C 107.974536 69.554667 105.813341 71.176177 103.418059 72.37943 
C 101.022778 73.582683 98.431702 74.348441 95.767147 74.640558 
C 93.102591 74.932675 90.407152 74.74648 87.80807 74.090762 
C 85.208989 73.435045 82.747815 72.320287 80.540732 70.799113 
C 78.333648 69.277939 76.415938 67.374666 74.878128 65.179141 
C 73.340318 62.983615 72.206993 60.530936 71.531653 57.936884 
C 70.856313 55.342832 70.649754 52.648877 70.921727 49.98219 
C 71.193699 47.315503 71.939856 44.718715 73.124973 42.314409 
C 74.31009 39.910102 75.915222 37.736716 77.864598 35.896845 
z
" style="fill: #1f77b4"/>
   </g>
   <g id="patch_7">
    <path d="M 87.730527 20.599283 
C 84.653582 21.14183 81.672076 22.129957 78.880139 23.532466 
C 76.088201 24.934976 73.515526 26.736951 71.243337 28.881503 
L 77.864598 35.896845 
C 79.455131 34.395659 81.256003 33.134276 83.210359 32.152519 
C 85.164716 31.170762 87.25177 30.479074 89.405631 30.099291 
z
" style="fill: #ff7f0e"/>
   </g>
   <g id="matplotlib.axis_1"/>
   <g id="matplotlib.axis_2"/>
  </g>
 </g>
</svg>
